<svg width="48" height="48" viewBox="0 0 48 48" fill="none" xmlns="http://www.w3.org/2000/svg">
<path fill-rule="evenodd" clip-rule="evenodd" d="M23.9997 0.000433159C37.2547 0.000432 48 10.7457 48 24.0007C48 37.2557 37.2547 48.001 23.9997 48.001C10.7448 48.001 -0.000546441 37.2557 -0.0005476 24.0007C-0.000548759 10.7457 10.7448 0.000434318 23.9997 0.000433159Z" fill="#03224C"/>
<path d="M18.1831 29.4884C20.2367 29.4884 21.9015 27.8236 21.9015 25.7701C21.9015 23.7165 20.2367 22.0518 18.1831 22.0518C16.1296 22.0518 14.4648 23.7165 14.4648 25.7701C14.4648 27.8236 16.1296 29.4884 18.1831 29.4884Z" fill="white" stroke="white" stroke-width="1.23944" stroke-linecap="round" stroke-linejoin="round"/>
<path d="M14.4648 25.7717V25.7717C14.4648 20.9801 18.3492 17.0957 23.1409 17.0957" stroke="white" stroke-width="1.23944" stroke-linecap="round" stroke-linejoin="round"/>
<path d="M28.1011 29.4893C30.1547 29.4893 31.8194 27.8246 31.8194 25.771C31.8194 23.7175 30.1547 22.0527 28.1011 22.0527C26.0476 22.0527 24.3828 23.7175 24.3828 25.771C24.3828 27.8246 26.0476 29.4893 28.1011 29.4893Z" fill="white" stroke="white" stroke-width="1.23944" stroke-linecap="round" stroke-linejoin="round"/>
<path d="M24.3828 25.7717V25.7717C24.3828 20.9801 28.2672 17.0957 33.0589 17.0957" stroke="white" stroke-width="1.23944" stroke-linecap="round" stroke-linejoin="round"/>
</svg>
