<svg width="651" height="107" viewBox="0 0 651 107" fill="none" xmlns="http://www.w3.org/2000/svg">
<g clip-path="url(#clip0)">
<path d="M147.593 101.823C95.4798 56.8097 27.3276 43.8085 -0.234375 42.9346V100.784L27.6702 85.5377C29.5303 87.1256 33.4818 91.2132 34.4074 94.8608C35.3329 98.5084 34.793 104.638 34.4074 107.246H41.5529C44.0572 105.395 44.6379 103.345 44.6152 102.551H46.3165V92.1387L76.872 89.5528V107.246H87.5562V94.5206L112.94 97.4468V106.906H122.739L140.025 105.409L147.593 101.823Z" fill="white"/>
<path d="M-56.5493 101.176C-53.3374 102.301 -45.6109 103.192 -40.4 97.7598C-36.936 98.2217 -29.5923 97.4272 -27.9293 90.5533C-23.9555 93.9717 -14.4969 98.7576 -6.51433 90.5533V101.176C-3.97366 102.116 2.42403 102.749 5.75012 97.7598C8.91507 98.3141 15.7645 98.1478 17.8428 93.0478C20.0484 92.6321 25.0139 90.8582 27.2313 87.0886C29.495 87.9663 34.1332 90.969 34.5767 95.9582C35.0202 100.947 34.7615 106.722 34.5767 108.985C37.3014 109.078 43.1667 107.932 44.8297 102.61C48.2952 103.349 55.9467 103.054 58.8293 95.9582C61.1856 96.5264 65.4606 89.7438 68.5649 92.5543C71.6693 95.3648 76.9464 90.6434 76.9924 92.0755V108.985H81.5573H100.544H157.883V97.7598C144.451 84.5633 103.037 54.6659 44.8297 40.6488C-13.3775 26.6316 -47.0093 34.8083 -56.5493 40.6488V47.3282" stroke="#03224C" stroke-width="1.12941"/>
<path d="M200.801 78.5057C155.593 38.4944 71.9294 -0.286039 -2.74902 14.7781L-58.2338 40.965C25.8396 18.1498 121.294 63.714 158.563 98.0046L200.801 78.5057Z" fill="#F4D8CD" stroke="#03224C" stroke-width="1.12941"/>
<path d="M2.09039 70.8987V100.754C3.1832 100.754 4.91538 98.7638 5.64487 97.7689C13.8129 98.9498 17.1788 95.1446 17.8407 93.0944C22.48 92.0119 26.3218 88.5429 27.6627 86.9437C32.4232 89.114 34.2737 93.4989 34.8136 97.0489C34.8764 98.449 34.9193 99.7121 34.9305 100.754C35.036 99.792 35.0327 98.4892 34.8136 97.0489C34.5238 90.5897 33.8086 81.2162 33.8086 77.2428C33.8086 61.0144 28.771 51.6308 16.2694 51.2576C6.26817 50.959 2.09039 59.5237 2.09039 70.8987Z" fill="#03224C"/>
<path d="M45.9079 82.3619V102.764C53.1839 103.595 57.7914 98.6568 59.1857 96.0839C60.6902 96.3951 62.1904 95.6515 62.7524 95.2408C62.9111 95.5345 64.3198 96.4539 68.6849 97.7824C73.05 99.1109 76.3548 95.331 77.4616 93.275V80.2271C77.4616 78.0924 78.1737 63.3833 61.0929 59.5877C45.9079 56.2135 45.9079 72.4749 45.9079 82.3619Z" fill="#03224C"/>
<path d="M87.7577 89.7839V106.282C94.8181 105.361 100.292 99.6314 102.146 96.8818C104.256 100.718 113.462 101.102 113.078 96.8818C112.695 92.6614 108.475 82.6862 98.1158 79.2332C89.8286 76.4708 87.7574 85.116 87.7577 89.7839Z" fill="#03224C" stroke="#03224C" stroke-width="1.12941"/>
<path d="M123.187 103.363V108.428H142.676C126.715 95.1679 123.032 99.5264 123.187 103.363Z" fill="#03224C" stroke="#03224C" stroke-width="1.12941"/>
<path d="M113.082 97.0664V108.697" stroke="#03224C" stroke-width="1.12941"/>
<path d="M32.4869 47.3678C-9.10706 38.5033 -44.2233 43.6743 -56.5822 47.3678V40.9C-25.3352 30.666 15.8168 35.2605 32.4869 38.837C93.0629 49.7313 141.38 82.6162 157.967 97.6968V109.816L156.076 108.311C117.721 77.6265 84.4794 58.4485 32.4869 47.3678Z" fill="#F4D8CD" stroke="#03224C" stroke-width="1.12941"/>
<path d="M194.659 73.5526L173.536 83.2805M167.65 86.2244L152.801 93.1365M188.77 68.9443L147.425 88.6565M182.114 64.0801L141.665 84.3042M175.97 59.4723L168.418 62.8003M160.737 66.3842L134.241 79.4403M168.418 54.8641L125.921 74.7042M161.505 50.6399L118.113 70.2241M153.569 45.648L125.153 58.5761M118.113 62.032L109.793 65.6161M145.121 41.4239L101.857 61.264M137.057 37.2L92.6409 57.5522M127.532 32.8182L108.193 41.4239M97.1168 46.4781L82.0001 53.2168M115.512 27.901L108.193 31.1793M99.1202 34.822L69.9796 48.4817M103.673 23.7122L57.2306 44.657M91.4708 20.0693L45.5744 41.4239M79.6325 17.1553L34.1003 39.1929M67.7941 14.6055L40.6569 26.626M34.1003 30.2688L20.4407 37.0076M52.3878 12.663L5.5219 34.822M36.0438 11.2393L-11.241 34.822M15.2964 12.663L-30.7017 35.686" stroke="#03224C" stroke-width="1.12941" stroke-linecap="round"/>
<path d="M231.803 65.2685L121.946 113.48H588.251C502.366 99.5168 323.167 70.3266 293.45 65.2685C263.733 60.2103 239.888 61.7429 231.803 65.2685Z" fill="white" stroke="#03224C" stroke-width="1.12941"/>
<path d="M650.965 110.589L278.426 48.5934C267.001 47.4451 240 46.8217 223.394 53.5146L201.199 62.6216V80.3444M158.15 99.8463V81.0134L81.6515 114.929" stroke="#03224C" stroke-width="1.12941" stroke-linecap="round" stroke-linejoin="round"/>
<path d="M200.934 62.8029C185.763 51.5555 146.895 26.4975 112.787 16.2444C70.1513 3.42811 42.9488 1.59718 1.36047 2.38187V13.3674" stroke="#03224C" stroke-width="1.12941" stroke-linecap="round" stroke-linejoin="round"/>
<path d="M157.968 81.0147C143.071 70.3347 100.377 45.6865 48.7766 32.5332C-2.82401 19.3799 -42.1432 25.3663 -55.3527 30.0037V39.2782" stroke="#03224C" stroke-width="1.12941" stroke-linecap="round" stroke-linejoin="round"/>
<path d="M627.291 106.853V110.484M618.073 105.177V110.484M608.83 103.583V110.484M599.457 102.093V110.484M590.609 100.604V110.484M581.064 99.0033V110.484M571.395 97.2124V110.484M561.189 95.6013V110.484M551.689 94.0006V107.212M542.954 92.6901V105.901M534.438 91.3797V104.482M525.376 89.6331V103.063M516.095 88.1045V101.425M507.251 86.6851V100.115M498.188 85.2653V98.4767M490.436 83.7369V97.385M481.92 82.427V96.0751M472.093 80.6799V94.4372M462.703 79.2604V92.9085M453.204 77.6227V91.2708M444.36 76.2034V89.8515M434.63 74.5146V88.4055M425.317 73.0401V86.7757M414.919 71.1777V85.0685M405.141 69.6261V83.5946M395.596 67.9962V81.9646M386.283 66.5219V80.2576M377.67 65.2025V78.8606M368.357 63.495V77.7738M359.511 62.0985V76.067M350.509 60.6239V74.5148M341.507 59.0719V73.1179M332.117 57.5197V71.5657M322.106 55.735V70.0914M312.095 54.0276V68.4616M303.171 52.7083V66.8319M294.169 51.079V65.4355M286.409 49.9148V64.1936M278.261 48.5954V63.2623M270.591 47.978V62.3058M262.233 47.978V62.3058M253.398 47.978V62.3058M244.443 48.5954V62.3058M235.249 49.9148V64.1936M226.823 52.2443V67.0853M219.136 55.2886V70.8146M211.601 58.3329V73.935M205.208 60.9206V76.8271M197.445 60.2356V75.8377M192.422 56.6585V71.7279M187.78 53.7664V67.6181M183.137 50.646V64.1171M178.418 47.7539V60.9206M173.547 44.786V57.2677M167.992 41.513V53.7664M162.664 38.5452V50.7986M157.184 35.3484V47.7539M151.248 32.3042V44.4053M145.616 29.5641V40.8281M140.136 26.9767V38.5452M134.2 24.3891V35.8053M129.253 22.1819V33.3697M123.316 19.7462V30.934M117.836 17.6914V28.7271M112.052 16.0931V26.596M106.496 14.3425V24.3888M100.56 12.668V22.562M94.7756 11.0699V21.0401M89.6003 9.92841V19.5941M83.9683 8.78684V17.6914M78.4124 7.56908V16.8543M73.1609 6.65567V15.6364M67.8334 5.58998V14.5707M62.658 4.82921V13.5816M56.7977 4.14394V12.8964M50.7852 3.45918V12.0594M45.2301 3.01454V12.0594M39.04 2.61685V11.3626M31.9979 2.61685V11.0786M25.2965 2.33281V11.3626M18.3681 2.04883V12.1008M11.4396 2.33281V12.1008M6.10129 2.33281V13.123M155.124 79.3349V94.6732M149.61 75.5435V90.7955M144.353 72.0966V86.4009M138.752 69.0807V82.437M133.041 65.9786V78.8179M127.636 63.0488V75.5435M122.121 60.0328V72.6137M116.779 57.5339V69.0807M111.005 54.8627V65.9786M105.577 52.3637V63.652M99.631 49.7786V60.636M94.1161 47.3659V58.1371M88.5151 45.1254V55.6382M82.8278 43.1435V53.3116M76.796 41.0755V50.8127M70.8502 38.9212V48.9169M64.9907 37.1116V46.5903M58.9588 35.2159V45.1254M53.1854 33.6648V43.1435M47.8428 32.0276V42.0233M42.4141 30.8212V40.4723M36.2099 29.5287V39.3521M30.5227 28.4946V38.2318M23.7153 27.4606V37.284M17.8408 26.3404V36.3361M11.9961 25.651V35.4744M5.27484 25.134V34.9574M-1.79108 25.134V34.9574M-8.68467 24.4446V34.9574M-15.2336 24.4446V34.9574M-21.8687 24.4446V34.9574M-29.2793 25.134V35.4744M-36.5176 25.7372V36.3361M-43.2389 27.0297V37.7148M-49.874 28.4085V38.9212M154.171 82.8616V99.1327M147.868 85.5627V101.962M140.794 88.8427V105.242M133.655 91.7367V108.008M126.539 94.6732V110.542M119.074 98.3951V110.542M111.138 102.117V110.542M103.062 105.242V110.542" stroke="#03224C" stroke-width="1.12941"/>
<path d="M244.634 72.9751C244.634 73.0768 244.68 73.222 244.863 73.4064C245.049 73.5932 245.346 73.7873 245.758 73.9625C246.58 74.3119 247.755 74.5417 249.082 74.5417C250.409 74.5417 251.584 74.3119 252.406 73.9625C252.818 73.7873 253.115 73.5932 253.3 73.4064C253.484 73.222 253.53 73.0768 253.53 72.9751C253.53 72.8734 253.484 72.7282 253.3 72.5437C253.115 72.357 252.818 72.1629 252.406 71.9877C251.584 71.6382 250.409 71.4085 249.082 71.4085C247.755 71.4085 246.58 71.6382 245.758 71.9877C245.346 72.1629 245.049 72.357 244.863 72.5437C244.68 72.7282 244.634 72.8734 244.634 72.9751Z" fill="#F4D8CD" stroke="#03224C" stroke-width="1.12941"/>
<path d="M249.102 72.2683V29.0508" stroke="#03224C" stroke-width="1.12941" stroke-linecap="round"/>
<path d="M249.549 31.8616L252.282 30.2355L248.779 29.0684L245.972 30.6907L249.549 31.8616Z" fill="#F4D8CD" stroke="#03224C" stroke-width="1.12941" stroke-linejoin="round"/>
<path d="M249.777 30.9148L253.983 28.4124L248.592 26.6163L244.273 29.1129L249.777 30.9148Z" fill="#F4D8CD" stroke="#03224C" stroke-width="1.12941" stroke-linejoin="round"/>
<path d="M248.075 14.1914L248.428 26.4142" stroke="#03224C" stroke-width="1.12941"/>
<path d="M257.15 18.2812L253.841 28.2878L249.808 30.6279L251.099 21.4285L257.15 18.2812Z" fill="#F4D8CD" stroke="#03224C" stroke-width="1.12941"/>
<path d="M250.778 21.6694L249.485 30.4649L244.439 28.7689L241.167 18.6445L250.778 21.6694Z" fill="#F4D8CD" stroke="#03224C" stroke-width="1.12941"/>
<path d="M250.285 21.3149L257.992 17.1902L248.23 13.8673L240.256 18.0314L250.285 21.3149Z" fill="#F4D8CD" stroke="#03224C" stroke-width="1.12941" stroke-linejoin="round"/>
<path d="M249.916 18.2811L255.164 15.4726L248.517 13.21L243.087 16.0454L249.916 18.2811Z" fill="#F4D8CD" stroke="#03224C" stroke-width="1.12941" stroke-linejoin="round"/>
<path d="M249.128 15.18V11.2393" stroke="#03224C" stroke-width="1.12941" stroke-linecap="round"/>
<path d="M367.634 91.9751C367.634 92.0768 367.68 92.222 367.863 92.4064C368.049 92.5932 368.346 92.7873 368.758 92.9625C369.58 93.3119 370.755 93.5417 372.082 93.5417C373.409 93.5417 374.584 93.3119 375.406 92.9625C375.818 92.7873 376.115 92.5932 376.3 92.4064C376.484 92.222 376.53 92.0768 376.53 91.9751C376.53 91.8734 376.484 91.7282 376.3 91.5437C376.115 91.357 375.818 91.1629 375.406 90.9877C374.584 90.6382 373.409 90.4085 372.082 90.4085C370.755 90.4085 369.58 90.6382 368.758 90.9877C368.346 91.1629 368.049 91.357 367.863 91.5437C367.68 91.7282 367.634 91.8734 367.634 91.9751Z" fill="#F4D8CD" stroke="#03224C" stroke-width="1.12941"/>
<path d="M372.102 91.2683V48.0508" stroke="#03224C" stroke-width="1.12941" stroke-linecap="round"/>
<path d="M372.549 50.8616L375.282 49.2355L371.779 48.0684L368.972 49.6907L372.549 50.8616Z" fill="#F4D8CD" stroke="#03224C" stroke-width="1.12941" stroke-linejoin="round"/>
<path d="M372.777 49.9148L376.983 47.4124L371.592 45.6163L367.273 48.1129L372.777 49.9148Z" fill="#F4D8CD" stroke="#03224C" stroke-width="1.12941" stroke-linejoin="round"/>
<path d="M371.075 33.1914L371.428 45.4142" stroke="#03224C" stroke-width="1.12941"/>
<path d="M380.15 37.2812L376.841 47.2878L372.808 49.6279L374.099 40.4285L380.15 37.2812Z" fill="#F4D8CD" stroke="#03224C" stroke-width="1.12941"/>
<path d="M373.778 40.6694L372.485 49.4649L367.439 47.7689L364.167 37.6445L373.778 40.6694Z" fill="#F4D8CD" stroke="#03224C" stroke-width="1.12941"/>
<path d="M373.285 40.3149L380.992 36.1902L371.23 32.8673L363.256 37.0314L373.285 40.3149Z" fill="#F4D8CD" stroke="#03224C" stroke-width="1.12941" stroke-linejoin="round"/>
<path d="M372.916 37.2811L378.164 34.4726L371.517 32.21L366.087 35.0454L372.916 37.2811Z" fill="#F4D8CD" stroke="#03224C" stroke-width="1.12941" stroke-linejoin="round"/>
<path d="M372.128 34.18V30.2393" stroke="#03224C" stroke-width="1.12941" stroke-linecap="round"/>
<path d="M117.85 126.163V82.9453" stroke="#03224C" stroke-width="1.12941" stroke-linecap="round"/>
<path d="M118.296 85.7561L121.029 84.13L117.526 82.963L114.719 84.5852L118.296 85.7561Z" fill="#F4D8CD" stroke="#03224C" stroke-width="1.12941" stroke-linejoin="round"/>
<path d="M118.524 84.8093L122.73 82.3069L117.339 80.5109L113.02 83.0074L118.524 84.8093Z" fill="#F4D8CD" stroke="#03224C" stroke-width="1.12941" stroke-linejoin="round"/>
<path d="M116.822 68.0859L117.175 80.3087" stroke="#03224C" stroke-width="1.12941"/>
<path d="M125.897 72.1758L122.588 82.1823L118.555 84.5224L119.846 75.323L125.897 72.1758Z" fill="#F4D8CD" stroke="#03224C" stroke-width="1.12941"/>
<path d="M119.525 75.5639L118.232 84.3595L113.186 82.6635L109.914 72.5391L119.525 75.5639Z" fill="#F4D8CD" stroke="#03224C" stroke-width="1.12941"/>
<path d="M119.032 75.2104L126.739 71.0857L116.977 67.7628L109.003 71.9269L119.032 75.2104Z" fill="#F4D8CD" stroke="#03224C" stroke-width="1.12941" stroke-linejoin="round"/>
<path d="M118.663 72.1757L123.911 69.3671L117.264 67.1046L111.834 69.9399L118.663 72.1757Z" fill="#F4D8CD" stroke="#03224C" stroke-width="1.12941" stroke-linejoin="round"/>
<path d="M117.875 69.0745V65.1338" stroke="#03224C" stroke-width="1.12941" stroke-linecap="round"/>
<path d="M293.193 58.7469V65.993L327.735 72.1474L329.115 71.6392V63.697L294.857 58.0664L293.193 58.7469Z" fill="#FFF3EE"/>
<path d="M293.193 58.7469L327.735 64.4049V72.1474M293.193 58.7469V65.993L327.735 72.1474M293.193 58.7469L294.857 58.0664L329.115 63.697V71.6392L327.735 72.1474" stroke="#03224C" stroke-width="0.805479"/>
<path d="M328.451 75.4426L293.919 69.0117L287.136 71.9189V73.5926L321.844 80.3757L328.451 76.9401V75.4426Z" fill="#FFF3EE"/>
<path d="M328.451 75.4426L293.919 69.0117L287.136 71.9189M328.451 75.4426L321.844 78.7019L287.136 71.9189M328.451 75.4426V76.9401L321.844 80.3757L287.136 73.5926V71.9189" stroke="#03224C" stroke-width="0.805479"/>
<path d="M324.143 74.5111V71.6083L322.465 71.3105V74.1894L324.143 74.5111Z" fill="#FFF3EE" stroke="#03224C"/>
<path d="M299.936 70.0102V67.3031L298.258 67.0253V69.7102L299.936 70.0102Z" fill="#FFF3EE" stroke="#03224C"/>
<path d="M327.982 82.6202V77.2949L327.098 77.7698L325.749 78.469V82.9577L327.098 83.2949L327.982 82.6202Z" fill="#FFF3EE"/>
<path d="M327.098 83.2949L327.982 82.6202V77.2949L327.098 77.7698M327.098 83.2949V77.7698M327.098 83.2949L325.749 82.9577V78.469L327.098 77.7698" stroke="#03224C"/>
<path d="M295.428 76.636V75.3344L294.543 75.1544L293.194 74.9229V76.9734L294.543 77.3107L295.428 76.636Z" fill="#FFF3EE"/>
<path d="M294.543 77.3107L295.428 76.636V75.3344L294.543 75.1544M294.543 77.3107V75.1544M294.543 77.3107L293.194 76.9734V74.9229L294.543 75.1544" stroke="#03224C"/>
<path d="M322.779 85.9237V80.162L321.895 80.5992L320.546 80.3486V86.2611L321.895 86.5984L322.779 85.9237Z" fill="#FFF3EE"/>
<path d="M321.895 86.5984L322.779 85.9237V80.162L321.895 80.5992M321.895 86.5984V80.5992M321.895 86.5984L320.546 86.2611V80.3486L321.895 80.5992" stroke="#03224C"/>
<path d="M290.334 79.4677V74.3249L289.45 74.1432L288.101 73.8926V79.8051L289.45 80.1424L290.334 79.4677Z" fill="#FFF3EE"/>
<path d="M289.45 80.1424L290.334 79.4677V74.3249L289.45 74.1432M289.45 80.1424V74.1432M289.45 80.1424L288.101 79.8051V73.8926L289.45 74.1432" stroke="#03224C"/>
</g>
<defs>
<clipPath id="clip0">
<rect width="651" height="108" fill="white" transform="translate(-0.138672 0.438477)"/>
</clipPath>
</defs>
</svg>
