<svg width="30" height="30" viewBox="0 0 30 30" fill="none" xmlns="http://www.w3.org/2000/svg">
	<g id="content">
		<circle cx="15" cy="15" r="14.5" stroke="white"/>
		<g clip-path="url(#clip0)">
			<path d="M16.0994 15.0099L20.772 10.3372C21.076 10.0332 21.076 9.54178 20.772 9.23784C20.468 8.9339 19.9766 8.9339 19.6726 9.23784L14.9999 13.9105L10.3274 9.23784C10.0233 8.9339 9.532 8.9339 9.22806 9.23784C8.92398 9.54178 8.92398 10.0332 9.22806 10.3372L13.9006 15.0099L9.22806 19.6826C8.92398 19.9865 8.92398 20.4779 9.22806 20.7819C9.37953 20.9335 9.5787 21.0096 9.77772 21.0096C9.97674 21.0096 10.1758 20.9335 10.3274 20.7819L14.9999 16.1092L19.6726 20.7819C19.8243 20.9335 20.0233 21.0096 20.2223 21.0096C20.4213 21.0096 20.6203 20.9335 20.772 20.7819C21.076 20.4779 21.076 19.9865 20.772 19.6826L16.0994 15.0099Z" fill="white"/>
		</g>
		<defs>
			<clipPath id="clip0">
				<rect width="12" height="12" fill="white" transform="translate(9 9)"/>
			</clipPath>
		</defs>
	</g>
</svg>
