<svg width="85" height="41" viewBox="0 0 85 41" fill="none" xmlns="http://www.w3.org/2000/svg">
<path d="M33.0158 36.6928C31.0812 34.8233 29.7019 31.5399 29.2541 30.1318L42.3306 35.8839L46.7193 33.2775C50.1228 28.1545 51.6454 27.2557 59.4376 24.7392C65.6713 22.726 75.1115 18.7475 79.0524 17.0099C78.4792 18.8793 76.9028 21.7434 76.1863 22.9417H73.8576C73.4396 24.3797 71.9051 27.4355 69.1106 28.1545C66.3162 28.8735 62.7515 27.8549 61.3185 27.2557C60.3631 28.544 57.6821 31.7316 54.601 34.1762C51.52 36.6208 45.7938 36.8725 43.3158 36.6928C41.5245 38.4903 38.748 39.2392 37.5836 39.389C36.8671 39.2692 34.9504 38.5622 33.0158 36.6928Z" fill="#03224C"/>
<path d="M51.5472 32.5388C51.5531 32.5355 51.5636 32.5333 51.5728 32.5358C52.0232 32.6554 52.6314 32.942 53.1125 32.6651C53.356 32.525 53.5306 32.2644 53.5585 31.9789C53.5581 31.9714 53.5577 31.9638 53.5543 31.9579C53.5493 31.9491 53.5367 31.9407 53.5233 31.9445C53.0097 32.0487 51.1933 31.9263 50.8087 31.2534C50.6861 31.0388 50.7899 30.8658 51.0041 30.7426C51.9634 30.1905 53.6816 30.1 54.0443 30.7348C54.1451 30.9111 54.105 31.1138 54.0815 31.1273C54.0669 31.1358 54.0438 31.1295 54.0354 31.1148C54.0304 31.106 54.0299 31.0984 54.0325 31.0892C54.0563 30.9739 54.0407 30.858 53.9852 30.761C53.6544 30.182 51.9777 30.2565 51.0507 30.79C50.8659 30.8963 50.7599 31.0315 50.8674 31.2196C51.0689 31.5722 52.0575 31.9992 53.3471 31.8819C53.4238 31.8729 53.4779 31.8652 53.5157 31.863L53.5215 31.8596C53.5333 31.8529 53.54 31.8373 53.5349 31.8285C53.5332 31.8255 53.5316 31.8226 53.5269 31.8214C52.6917 31.2398 52.0155 30.8752 52.0155 30.8752C52.0054 30.8576 52.0163 30.8357 52.031 30.8272C52.0398 30.8222 52.0503 30.8201 52.0629 30.8284C53.3867 31.5623 54.389 32.368 54.3957 32.3797C54.4041 32.3944 54.3945 32.4117 54.3798 32.4201C54.3681 32.4269 54.353 32.4277 54.3404 32.4194C54.1139 32.2412 53.8894 32.0736 53.6687 31.9194C53.6608 31.9123 53.6532 31.9127 53.6474 31.9161C53.6415 31.9195 53.6344 31.9275 53.6348 31.935C53.6164 32.0666 53.5627 32.4842 53.149 32.7222C52.6356 33.0177 51.9993 32.716 51.5535 32.5977C51.5443 32.5952 51.538 32.591 51.5347 32.5851C51.5263 32.5704 51.5325 32.5473 51.5472 32.5388ZM50.8824 32.9605C50.874 32.9458 50.8802 32.9226 50.8949 32.9142C50.9008 32.9108 50.9113 32.9087 50.9205 32.9112C51.1029 32.9507 51.4799 33.0032 51.6412 32.9104C51.7146 32.8682 51.7171 32.8043 51.6801 32.7396C51.6348 32.6603 51.5303 32.5798 51.433 32.546C51.4238 32.5435 51.4175 32.5393 51.4124 32.5305C51.404 32.5158 51.4103 32.4926 51.425 32.4842C51.4308 32.4808 51.4384 32.4804 51.4476 32.4829C51.5697 32.5259 51.6867 32.6148 51.7405 32.7088C51.7942 32.8028 51.7863 32.905 51.6719 32.9708C51.4959 33.0721 51.0992 33.0192 50.9013 32.973C50.892 32.9705 50.8857 32.9663 50.8824 32.9605ZM51.2915 32.3462C51.2966 32.355 51.2974 32.3701 51.292 32.3811C51.2878 32.3874 51.2849 32.3891 51.279 32.3925C51.2702 32.3975 51.2551 32.3984 51.2442 32.393C51.1993 32.3758 51.1557 32.3541 51.1108 32.3369C51.1045 32.3328 51.0999 32.3315 51.0966 32.3256C51.0915 32.3168 51.0907 32.3017 51.0961 32.2907C51.1003 32.2844 51.1032 32.2827 51.1091 32.2794C51.1179 32.2743 51.1301 32.2751 51.1439 32.2789C51.1858 32.2977 51.2324 32.3178 51.2773 32.3349C51.2836 32.3391 51.2882 32.3403 51.2915 32.3462ZM50.3466 32.9485C50.2845 32.8398 50.237 32.7226 50.203 32.6016C50.1992 32.5882 50.2059 32.5726 50.2176 32.5659C50.2323 32.5574 50.2537 32.5607 50.2637 32.5784C50.2637 32.5784 50.3096 32.7473 50.4053 32.9148C50.538 33.1469 50.7746 33.37 50.8832 33.3076C50.9506 33.2687 50.9128 33.1343 50.8905 33.0612C50.8128 32.8092 50.7301 32.7669 50.7859 32.7348C50.8005 32.7264 50.8173 32.7284 50.8274 32.7461C50.9164 32.9018 51.0764 33.2705 50.9209 33.36C50.7772 33.4427 50.5246 33.26 50.3466 32.9485ZM54.5986 34.2832C54.5902 34.2685 54.5935 34.2471 54.6082 34.2386C54.6111 34.2369 55.0744 34.2359 55.2299 34.1464C55.3091 34.1008 55.3103 34.0142 55.2667 33.9378C55.2364 33.8849 55.184 33.8409 55.1353 33.8103C55.129 33.8061 55.1227 33.802 55.1211 33.799C55.116 33.7902 55.1156 33.7826 55.1181 33.7734C55.1206 33.7641 55.1277 33.7561 55.1336 33.7527C55.1483 33.7443 55.1575 33.7468 55.1713 33.7506C55.1755 33.7442 55.2204 33.7067 55.279 33.673C55.5225 33.5328 55.8022 33.6062 55.8761 33.7355C55.9097 33.7943 55.8808 33.846 55.831 33.8747C55.7165 33.9406 55.4423 33.8836 55.2997 33.8524L55.2968 33.8541C55.2938 33.8558 55.2926 33.8604 55.2943 33.8634C55.3056 33.8764 55.314 33.8911 55.3224 33.9057C55.3879 34.0204 55.3645 34.1432 55.2648 34.2006C55.1005 34.2951 54.6171 34.3155 54.5986 34.2832ZM55.802 33.8172C55.8255 33.8037 55.8338 33.7911 55.817 33.7617C55.7717 33.6823 55.531 33.6022 55.3109 33.7288C55.2933 33.7389 55.2787 33.7474 55.2657 33.7587C55.2598 33.7621 55.2602 33.7697 55.2619 33.7726C55.2636 33.7756 55.2653 33.7785 55.2682 33.7768C55.4355 33.8172 55.7169 33.8662 55.802 33.8172Z" fill="white"/>
<path d="M51.5728 32.5358L51.5434 32.6466L51.5428 32.6464L51.5728 32.5358ZM53.5585 31.9789L53.6726 31.9723L53.6731 31.9811L53.6722 31.9899L53.5585 31.9789ZM53.5233 31.9445L53.5544 32.055L53.5458 32.0568L53.5233 31.9445ZM54.0325 31.0892L54.1445 31.1123L54.1427 31.1191L54.0325 31.0892ZM53.3471 31.8819L53.3602 31.9957L53.3573 31.9959L53.3471 31.8819ZM53.5157 31.863L53.5724 31.9623L53.549 31.9758L53.5221 31.9773L53.5157 31.863ZM53.5269 31.8214L53.497 31.9319L53.4779 31.9268L53.4617 31.9155L53.5269 31.8214ZM52.0155 30.8752L51.9613 30.9761L51.9326 30.9606L51.9164 30.9323L52.0155 30.8752ZM52.0629 30.8284L52.0073 30.929L51.9996 30.9239L52.0629 30.8284ZM54.3404 32.4194L54.2769 32.5151L54.2698 32.5095L54.3404 32.4194ZM53.6687 31.9194L53.6029 32.0141L53.5926 32.0049L53.6687 31.9194ZM53.6348 31.935L53.7489 31.9284L53.7495 31.9396L53.7479 31.9507L53.6348 31.935ZM51.5535 32.5977L51.5241 32.7084L51.5236 32.7082L51.5535 32.5977ZM51.4904 32.4395C51.5208 32.422 51.5624 32.4143 51.6028 32.4253L51.5428 32.6464C51.5559 32.65 51.567 32.6496 51.5746 32.6485C51.5817 32.6475 51.5921 32.645 51.604 32.6381L51.4904 32.4395ZM51.6022 32.4251C51.7177 32.4558 51.8447 32.4975 51.9694 32.5359C52.0964 32.575 52.2249 32.6119 52.3529 32.6367C52.6103 32.6865 52.8499 32.6843 53.0557 32.5658L53.1693 32.7645C52.894 32.9229 52.589 32.9158 52.3093 32.8616C52.1688 32.8344 52.0308 32.7946 51.902 32.7549C51.771 32.7146 51.6531 32.6757 51.5434 32.6465L51.6022 32.4251ZM53.0557 32.5658C53.2683 32.4435 53.4207 32.2152 53.4448 31.9679L53.6722 31.9899C53.6406 32.3136 53.4437 32.6065 53.1693 32.7645L53.0557 32.5658ZM53.4445 31.9855C53.4444 31.9845 53.4444 31.9839 53.4443 31.9834C53.4443 31.9829 53.4443 31.9828 53.4443 31.9828C53.4443 31.9828 53.4443 31.9831 53.4444 31.9837C53.4444 31.9843 53.4446 31.9852 53.4447 31.9863C53.4454 31.9903 53.4475 32.0016 53.4552 32.015L53.6534 31.9009C53.6728 31.9347 53.6726 31.9722 53.6726 31.9723L53.4445 31.9855ZM53.4552 32.015C53.4642 32.0308 53.4768 32.042 53.4909 32.049C53.5064 32.0568 53.5292 32.0619 53.5543 32.0547L53.4922 31.8343C53.5694 31.8124 53.6299 31.8596 53.6534 31.9009L53.4552 32.015ZM53.5458 32.0568C53.2693 32.1129 52.671 32.1061 52.0973 32.0031C51.8087 31.9513 51.5198 31.874 51.276 31.7644C51.0346 31.6559 50.8232 31.5093 50.7095 31.3104L50.9078 31.1963C50.9864 31.3339 51.1463 31.4549 51.3697 31.5554C51.5908 31.6547 51.8601 31.7277 52.1379 31.7776C52.697 31.878 53.2636 31.8804 53.5008 31.8323L53.5458 32.0568ZM50.7095 31.3104C50.6331 31.1767 50.6214 31.0416 50.6755 30.9178C50.7267 30.8008 50.8296 30.711 50.9473 30.6433L51.0609 30.8419C50.9644 30.8974 50.9083 30.9557 50.8847 31.0096C50.8641 31.0568 50.8616 31.1155 50.9078 31.1963L50.7095 31.3104ZM50.9473 30.6433C51.4468 30.3559 52.1357 30.1917 52.7458 30.1791C53.0514 30.1728 53.3434 30.2043 53.5858 30.2814C53.8265 30.3579 54.0328 30.484 54.1435 30.6777L53.9452 30.7918C53.8745 30.6682 53.73 30.5676 53.5165 30.4998C53.3048 30.4325 53.0393 30.4022 52.7501 30.4081C52.1705 30.4201 51.5207 30.5773 51.0609 30.8419L50.9473 30.6433ZM54.1435 30.6777C54.2063 30.7876 54.2242 30.9034 54.2238 30.9925C54.2236 31.0372 54.2187 31.0779 54.2111 31.1109C54.2073 31.127 54.2023 31.144 54.1954 31.1597C54.192 31.1675 54.1871 31.1774 54.1802 31.1875C54.1744 31.1959 54.1612 31.2135 54.1383 31.2266L54.0248 31.028C54.0048 31.0395 53.9947 31.0539 53.992 31.0578C53.9882 31.0633 53.9865 31.0673 53.9862 31.0679C53.9856 31.0692 53.9868 31.0668 53.9885 31.0593C53.9919 31.0449 53.9951 31.0214 53.9953 30.9917C53.9956 30.932 53.9832 30.8583 53.9452 30.7918L54.1435 30.6777ZM54.1383 31.2266C54.0987 31.2494 54.0567 31.2486 54.0262 31.2403C53.9956 31.232 53.9589 31.2115 53.9363 31.1719L54.1346 31.0578C54.1203 31.0328 54.0993 31.0228 54.0861 31.0192C54.0729 31.0156 54.0497 31.0137 54.0248 31.028L54.1383 31.2266ZM53.9363 31.1719C53.9271 31.1559 53.9197 31.1365 53.9175 31.114C53.9152 31.092 53.9185 31.0731 53.9222 31.0593L54.1427 31.1191C54.1439 31.1145 54.1462 31.1041 54.1448 31.0904C54.1433 31.0761 54.1387 31.0649 54.1346 31.0578L53.9363 31.1719ZM53.9206 31.0661C53.9393 30.9755 53.9263 30.8884 53.8861 30.818L54.0844 30.7039C54.155 30.8275 54.1732 30.9724 54.1443 31.1122L53.9206 31.0661ZM53.8861 30.818C53.8243 30.71 53.6903 30.6183 53.4843 30.5559C53.281 30.4943 53.0242 30.4665 52.7439 30.4728C52.1819 30.4854 51.5507 30.6342 51.1074 30.8893L50.9939 30.6907C51.4777 30.4123 52.1483 30.2571 52.7392 30.2438C53.0352 30.2372 53.3176 30.266 53.5507 30.3366C53.7811 30.4064 53.9807 30.5225 54.0844 30.7039L53.8861 30.818ZM51.1074 30.8893C51.0214 30.9388 50.972 30.9854 50.951 31.0263C50.9351 31.0574 50.929 31.0969 50.9665 31.1625L50.7682 31.2766C50.6982 31.1542 50.6914 31.0321 50.7478 30.9219C50.7991 30.8217 50.8951 30.7475 50.9939 30.6907L51.1074 30.8893ZM50.9665 31.1625C51.0035 31.2273 51.0852 31.3079 51.2188 31.391C51.3503 31.4728 51.524 31.5519 51.7335 31.6177C52.1523 31.7492 52.7068 31.8251 53.337 31.7678L53.3573 31.9959C52.6978 32.0559 52.1131 31.977 51.6649 31.8363C51.4409 31.7659 51.249 31.6795 51.0982 31.5857C50.9494 31.4932 50.832 31.3882 50.7682 31.2766L50.9665 31.1625ZM53.334 31.7681C53.4057 31.7597 53.467 31.7511 53.5092 31.7486L53.5221 31.9773C53.4888 31.9793 53.442 31.986 53.3602 31.9956L53.334 31.7681ZM53.4589 31.7637L53.4648 31.7603L53.5783 31.9589L53.5724 31.9623L53.4589 31.7637ZM53.4648 31.7603C53.4471 31.7704 53.4359 31.7849 53.4296 31.7996C53.4247 31.811 53.4133 31.8462 53.4358 31.8855L53.6341 31.7714C53.6616 31.8196 53.6493 31.867 53.6394 31.89C53.6281 31.9164 53.6076 31.942 53.5783 31.9589L53.4648 31.7603ZM53.4358 31.8855C53.4339 31.8822 53.4395 31.8932 53.4496 31.9037C53.4624 31.9171 53.4789 31.927 53.497 31.9319L53.5569 31.7108C53.61 31.7252 53.6315 31.767 53.6341 31.7714L53.4358 31.8855ZM53.4617 31.9155C53.0466 31.6265 52.671 31.3914 52.3993 31.2285C52.2635 31.1471 52.1537 31.0839 52.0779 31.041C52.0401 31.0196 52.0108 31.0033 51.991 30.9924C51.9811 30.9869 51.9736 30.9828 51.9686 30.9801C51.9661 30.9787 51.9642 30.9777 51.963 30.977C51.9624 30.9767 51.962 30.9765 51.9617 30.9763C51.9615 30.9762 51.9614 30.9762 51.9614 30.9761C51.9613 30.9761 51.9613 30.9761 51.9613 30.9761C51.9613 30.9761 51.9613 30.9761 51.9613 30.9761C51.9613 30.9761 51.9613 30.9761 52.0155 30.8752C52.0698 30.7743 52.0698 30.7743 52.0698 30.7743C52.0698 30.7743 52.0698 30.7743 52.0698 30.7743C52.0698 30.7744 52.0699 30.7744 52.0699 30.7744C52.07 30.7745 52.0702 30.7745 52.0704 30.7746C52.0707 30.7748 52.0713 30.7751 52.072 30.7755C52.0733 30.7763 52.0754 30.7774 52.078 30.7788C52.0833 30.7817 52.0912 30.786 52.1014 30.7916C52.1219 30.8029 52.1519 30.8197 52.1905 30.8415C52.2677 30.8852 52.3791 30.9494 52.5167 31.0319C52.7919 31.1967 53.172 31.4347 53.5922 31.7272L53.4617 31.9155ZM51.9164 30.9323C51.8909 30.8878 51.8944 30.841 51.9071 30.8074C51.9192 30.7754 51.9425 30.7462 51.9742 30.7279L52.0878 30.9266C52.1048 30.9167 52.1153 30.9027 52.1208 30.8882C52.1269 30.872 52.13 30.845 52.1147 30.8181L51.9164 30.9323ZM51.9742 30.7279C51.9893 30.7192 52.013 30.709 52.0432 30.7083C52.0747 30.7076 52.1031 30.7176 52.1262 30.733L51.9996 30.9239C52.0101 30.9309 52.0269 30.9378 52.0479 30.9373C52.0675 30.9369 52.0815 30.9302 52.0878 30.9266L51.9742 30.7279ZM52.1183 30.7282C52.7847 31.0976 53.3698 31.4849 53.7891 31.7812C53.9988 31.9294 54.1673 32.055 54.284 32.1446C54.3424 32.1893 54.3879 32.2251 54.4193 32.2503C54.435 32.2629 54.4474 32.273 54.4563 32.2805C54.4606 32.2841 54.4646 32.2875 54.4679 32.2905C54.4695 32.2918 54.4717 32.2938 54.474 32.296C54.475 32.2971 54.477 32.299 54.4793 32.3015C54.4794 32.3016 54.4877 32.3101 54.4949 32.3227L54.2966 32.4368C54.301 32.4444 54.3052 32.4498 54.3067 32.4517C54.3088 32.4542 54.3105 32.4561 54.3114 32.4571C54.3134 32.4592 54.3149 32.4607 54.3154 32.4612C54.3165 32.4622 54.317 32.4627 54.3164 32.4622C54.3155 32.4613 54.3133 32.4595 54.3097 32.4564C54.3024 32.4503 54.2914 32.4413 54.2764 32.4292C54.2465 32.4053 54.2023 32.3705 54.145 32.3266C54.0306 32.2388 53.8645 32.1149 53.6573 31.9685C53.2428 31.6756 52.6648 31.2931 52.0075 30.9287L52.1183 30.7282ZM54.4949 32.3227C54.5203 32.3671 54.516 32.4142 54.5008 32.4486C54.4866 32.4808 54.4623 32.5046 54.4366 32.5194L54.3231 32.3208C54.312 32.3272 54.2999 32.3381 54.292 32.3559C54.2832 32.3759 54.2796 32.407 54.2966 32.4368L54.4949 32.3227ZM54.4366 32.5194C54.3928 32.5446 54.3307 32.5505 54.2771 32.5148L54.4037 32.3239C54.3753 32.305 54.3434 32.3091 54.3231 32.3208L54.4366 32.5194ZM54.2698 32.5095C54.0447 32.3325 53.822 32.1662 53.6033 32.0134L53.7342 31.8254C53.9568 31.981 54.183 32.1499 54.411 32.3292L54.2698 32.5095ZM53.5926 32.0049C53.6032 32.0144 53.6212 32.0253 53.6458 32.0278C53.6701 32.0302 53.6904 32.0233 53.7041 32.0154L53.5906 31.8168C53.6102 31.8055 53.6372 31.7967 53.6687 31.7998C53.7005 31.803 53.7263 31.8173 53.7448 31.8339L53.5926 32.0049ZM53.7041 32.0154C53.7156 32.0088 53.7242 32.0006 53.7308 31.9916C53.7366 31.9838 53.7507 31.9615 53.7489 31.9284L53.5207 31.9416C53.5184 31.9009 53.536 31.8709 53.5466 31.8564C53.5581 31.8406 53.5733 31.8267 53.5906 31.8168L53.7041 32.0154ZM53.7479 31.9507C53.7294 32.0834 53.6709 32.5539 53.2058 32.8215L53.0923 32.6229C53.4544 32.4145 53.5034 32.0499 53.5216 31.9193L53.7479 31.9507ZM53.2058 32.8215C52.9148 32.989 52.5951 32.9832 52.3044 32.9276C52.1585 32.8998 52.0163 32.8587 51.8849 32.8181C51.7511 32.7767 51.6326 32.7372 51.5241 32.7084L51.5829 32.4869C51.6973 32.5173 51.8256 32.5599 51.9525 32.5992C52.0819 32.6391 52.2144 32.6772 52.3475 32.7026C52.6147 32.7536 52.8698 32.7509 53.0923 32.6229L53.2058 32.8215ZM51.5236 32.7082C51.4973 32.7011 51.4592 32.6837 51.4355 32.6422L51.6338 32.528C51.6168 32.4983 51.5913 32.4892 51.5835 32.4871L51.5236 32.7082ZM51.4355 32.6422C51.4129 32.6025 51.4137 32.5604 51.422 32.5297C51.4303 32.4991 51.4509 32.4623 51.4904 32.4395L51.604 32.6381C51.6289 32.6238 51.6389 32.6028 51.6425 32.5895C51.6461 32.5762 51.6481 32.553 51.6338 32.528L51.4355 32.6422ZM50.9205 32.9112L50.8962 33.0233L50.8905 33.0218L50.9205 32.9112ZM51.433 32.546L51.463 32.4351L51.4706 32.4378L51.433 32.546ZM51.4476 32.4829L51.4777 32.372L51.4857 32.3748L51.4476 32.4829ZM50.9013 32.973L50.8752 33.0846L50.8713 33.0836L50.9013 32.973ZM51.292 32.3811L51.3942 32.4321L51.391 32.4385L51.3871 32.4444L51.292 32.3811ZM51.2442 32.393L51.2852 32.2854L51.2952 32.2904L51.2442 32.393ZM51.1108 32.3369L51.07 32.444L51.0581 32.4395L51.0475 32.4324L51.1108 32.3369ZM51.0961 32.2907L50.9939 32.2398L50.9971 32.2334L51.001 32.2274L51.0961 32.2907ZM51.1439 32.2789L51.1739 32.1683L51.1825 32.1706L51.1907 32.1743L51.1439 32.2789ZM51.2773 32.3349L51.3181 32.2278L51.33 32.2324L51.3406 32.2394L51.2773 32.3349ZM50.7832 33.0175C50.7606 32.9779 50.7615 32.9357 50.7698 32.9051C50.7781 32.8745 50.7986 32.8376 50.8382 32.8149L50.9517 33.0135C50.9766 32.9992 50.9866 32.9781 50.9902 32.9649C50.9938 32.9516 50.9958 32.9284 50.9815 32.9034L50.7832 33.0175ZM50.8382 32.8149C50.8686 32.7974 50.9101 32.7897 50.9505 32.8006L50.8905 33.0218C50.9036 33.0253 50.9147 33.025 50.9223 33.0239C50.9294 33.0229 50.9398 33.0203 50.9517 33.0135L50.8382 32.8149ZM50.9448 32.7992C51.0316 32.818 51.165 32.8399 51.2943 32.846C51.3589 32.8491 51.42 32.848 51.4724 32.8416C51.5263 32.8349 51.563 32.8234 51.5845 32.8111L51.698 33.0097C51.6388 33.0438 51.5679 33.0605 51.5 33.0689C51.4306 33.0775 51.3558 33.0782 51.2832 33.0748C51.1381 33.068 50.9918 33.0439 50.8962 33.0231L50.9448 32.7992ZM51.5845 32.8111C51.5923 32.8065 51.5939 32.804 51.5931 32.805C51.5919 32.8066 51.5902 32.8098 51.5895 32.8137C51.5889 32.8171 51.5897 32.8179 51.5889 32.8149C51.5881 32.8117 51.586 32.8056 51.581 32.7967L51.7793 32.6826C51.8052 32.728 51.826 32.7879 51.8145 32.8532C51.8022 32.9232 51.7571 32.9757 51.698 33.0097L51.5845 32.8111ZM51.581 32.7967C51.5517 32.7455 51.4717 32.6807 51.3954 32.6542L51.4706 32.4378C51.5889 32.4789 51.7178 32.5751 51.7793 32.6826L51.581 32.7967ZM51.403 32.6565C51.3892 32.6528 51.3714 32.6461 51.3536 32.6331C51.3354 32.6197 51.3224 32.6035 51.3133 32.5875L51.5116 32.4734C51.5075 32.4662 51.5002 32.4566 51.4887 32.4481C51.4776 32.44 51.4676 32.4366 51.463 32.4354L51.403 32.6565ZM51.3133 32.5875C51.2906 32.5479 51.2915 32.5057 51.2998 32.4751C51.3081 32.4445 51.3286 32.4077 51.3682 32.3849L51.4817 32.5835C51.5067 32.5692 51.5167 32.5481 51.5203 32.5349C51.5239 32.5216 51.5258 32.4984 51.5116 32.4734L51.3133 32.5875ZM51.3682 32.3849C51.4097 32.361 51.4514 32.3652 51.4776 32.3723L51.4176 32.5935C51.4254 32.5956 51.452 32.6006 51.4817 32.5835L51.3682 32.3849ZM51.4857 32.3748C51.627 32.4246 51.7692 32.5285 51.8396 32.6517L51.6413 32.7658C51.6043 32.701 51.5124 32.6272 51.4096 32.5909L51.4857 32.3748ZM51.8396 32.6517C51.8759 32.7152 51.898 32.793 51.881 32.8738C51.8635 32.9575 51.8082 33.0244 51.7287 33.0702L51.6151 32.8715C51.6501 32.8514 51.6559 32.8343 51.6574 32.827C51.6596 32.8167 51.6588 32.7964 51.6413 32.7658L51.8396 32.6517ZM51.7287 33.0702C51.6664 33.106 51.5921 33.1244 51.5198 33.134C51.4462 33.1437 51.3669 33.145 51.2897 33.1417C51.1355 33.135 50.9797 33.109 50.8752 33.0846L50.9273 32.8615C51.0207 32.8833 51.1623 32.9068 51.2999 32.9128C51.3686 32.9158 51.4339 32.9143 51.4904 32.9068C51.5481 32.8992 51.5893 32.8864 51.6151 32.8715L51.7287 33.0702ZM50.8713 33.0836C50.8451 33.0765 50.8069 33.059 50.7832 33.0175L50.9815 32.9034C50.9645 32.8736 50.939 32.8646 50.9312 32.8625L50.8713 33.0836ZM51.3907 32.2891C51.4047 32.3137 51.4094 32.3393 51.4099 32.3597C51.4104 32.3807 51.4069 32.4066 51.3942 32.4321L51.1898 32.3301C51.1825 32.3447 51.1813 32.3575 51.1815 32.366C51.1817 32.3739 51.1834 32.3875 51.1924 32.4033L51.3907 32.2891ZM51.3871 32.4444C51.3804 32.4545 51.3713 32.4659 51.3584 32.4765C51.3477 32.4852 51.3367 32.4912 51.3358 32.4918L51.2222 32.2932C51.2242 32.292 51.2234 32.2924 51.2224 32.2931C51.2209 32.294 51.2177 32.2961 51.2138 32.2993C51.2049 32.3066 51.1994 32.314 51.1969 32.3178L51.3871 32.4444ZM51.3358 32.4918C51.3112 32.5059 51.2857 32.5106 51.2654 32.5112C51.2444 32.5117 51.2186 32.5082 51.1932 32.4955L51.2952 32.2904C51.2807 32.2832 51.2679 32.2819 51.2594 32.2822C51.2515 32.2824 51.238 32.2841 51.2222 32.2932L51.3358 32.4918ZM51.2034 32.5C51.1779 32.4903 51.1532 32.4794 51.1315 32.4699C51.1089 32.46 51.0894 32.4514 51.07 32.444L51.1516 32.2299C51.1771 32.2396 51.2018 32.2505 51.2235 32.26C51.2461 32.27 51.2656 32.2785 51.285 32.2859L51.2034 32.5ZM51.0475 32.4324C51.049 32.4334 51.0501 32.434 51.0489 32.4333C51.0486 32.4331 51.044 32.4305 51.0393 32.4274C51.0339 32.4238 51.0263 32.4182 51.0183 32.4102C51.0102 32.402 51.0032 32.3928 50.9974 32.3827L51.1957 32.2686C51.1916 32.2614 51.1864 32.2546 51.1803 32.2484C51.1744 32.2424 51.169 32.2385 51.1659 32.2365C51.1636 32.2349 51.1614 32.2337 51.1639 32.2352C51.1655 32.2361 51.1695 32.2384 51.1741 32.2415L51.0475 32.4324ZM50.9974 32.3827C50.9834 32.3581 50.9787 32.3325 50.9782 32.3121C50.9777 32.2911 50.9812 32.2653 50.9939 32.2398L51.1983 32.3417C51.2056 32.3271 51.2068 32.3143 51.2066 32.3058C51.2064 32.2979 51.2047 32.2843 51.1957 32.2686L50.9974 32.3827ZM51.001 32.2274C51.0077 32.2173 51.0168 32.206 51.0297 32.1954C51.0404 32.1866 51.0514 32.1806 51.0523 32.18L51.1659 32.3787C51.1639 32.3798 51.1647 32.3794 51.1657 32.3787C51.1672 32.3778 51.1704 32.3757 51.1743 32.3725C51.1832 32.3652 51.1887 32.3578 51.1912 32.3541L51.001 32.2274ZM51.0523 32.18C51.1036 32.1506 51.1558 32.1634 51.1739 32.1683L51.1139 32.3894C51.1123 32.389 51.1162 32.3903 51.1237 32.3903C51.1315 32.3904 51.1478 32.3891 51.1659 32.3787L51.0523 32.18ZM51.1907 32.1743C51.2317 32.1927 51.2761 32.2118 51.3181 32.2278L51.2365 32.4419C51.1887 32.4237 51.14 32.4026 51.0971 32.3834L51.1907 32.1743ZM51.3406 32.2394C51.3391 32.2384 51.338 32.2378 51.3392 32.2385C51.3395 32.2387 51.3441 32.2414 51.3488 32.2445C51.3542 32.2481 51.3618 32.2536 51.3698 32.2616C51.3779 32.2698 51.3849 32.2791 51.3907 32.2891L51.1924 32.4033C51.1965 32.4104 51.2017 32.4173 51.2078 32.4235C51.2137 32.4294 51.2191 32.4333 51.2222 32.4354C51.2245 32.4369 51.2267 32.4381 51.2242 32.4366C51.2226 32.4357 51.2186 32.4334 51.214 32.4303L51.3406 32.2394ZM50.203 32.6016L50.093 32.6329L50.093 32.6329L50.203 32.6016ZM50.2637 32.5784L50.3629 32.5213L50.3701 32.534L50.374 32.5482L50.2637 32.5784ZM50.8905 33.0612L50.9997 33.0272L50.9998 33.0276L50.8905 33.0612ZM50.2475 33.0056C50.1802 32.8879 50.1293 32.762 50.093 32.6329L50.3129 32.5704C50.3447 32.6833 50.3887 32.7917 50.4458 32.8915L50.2475 33.0056ZM50.093 32.6329C50.0746 32.5676 50.1048 32.4988 50.1608 32.4666L50.2744 32.6652C50.2928 32.6546 50.304 32.6393 50.3099 32.6252C50.3158 32.6109 50.3189 32.5916 50.3129 32.5704L50.093 32.6329ZM50.1608 32.4666C50.2237 32.4304 50.3178 32.4425 50.3629 32.5213L50.1646 32.6354C50.1895 32.679 50.2408 32.6845 50.2744 32.6652L50.1608 32.4666ZM50.2637 32.5784C50.374 32.5482 50.374 32.5481 50.374 32.5481C50.374 32.5481 50.374 32.5481 50.374 32.5481C50.374 32.5481 50.3739 32.5481 50.3739 32.5481C50.3739 32.548 50.3739 32.548 50.3739 32.548C50.3739 32.548 50.3739 32.5481 50.374 32.5482C50.374 32.5483 50.3741 32.5486 50.3742 32.5491C50.3745 32.55 50.3749 32.5516 50.3756 32.5537C50.3768 32.5579 50.3787 32.5644 50.3814 32.5728C50.3867 32.5897 50.3948 32.6142 50.4057 32.6437C50.4277 32.7031 50.4606 32.7811 50.5044 32.8577L50.3061 32.9718C50.2542 32.881 50.2163 32.7907 50.1915 32.7238C50.179 32.6902 50.1697 32.662 50.1634 32.6419C50.1603 32.6319 50.1579 32.6239 50.1562 32.6182C50.1554 32.6154 50.1548 32.6131 50.1543 32.6115C50.1541 32.6107 50.1539 32.6101 50.1538 32.6096C50.1537 32.6093 50.1536 32.6091 50.1536 32.609C50.1536 32.6089 50.1536 32.6088 50.1535 32.6088C50.1535 32.6087 50.1535 32.6087 50.1535 32.6087C50.1535 32.6087 50.1535 32.6086 50.1535 32.6086C50.1535 32.6086 50.1535 32.6086 50.2637 32.5784ZM50.5044 32.8577C50.565 32.9638 50.6494 33.0671 50.7278 33.1347C50.7674 33.1689 50.8004 33.1895 50.8237 33.1987C50.8491 33.2089 50.8432 33.1986 50.8264 33.2082L50.9399 33.4069C50.8688 33.4478 50.7926 33.433 50.739 33.4116C50.6832 33.3894 50.6284 33.3514 50.5787 33.3085C50.4785 33.2222 50.3782 33.0979 50.3061 32.9718L50.5044 32.8577ZM50.8264 33.2082C50.8115 33.2168 50.8067 33.2294 50.8063 33.231C50.8062 33.2313 50.8067 33.2295 50.807 33.2249C50.8073 33.2204 50.8072 33.2143 50.8066 33.2066C50.8039 33.1729 50.7926 33.1319 50.7813 33.0948L50.9998 33.0276C51.0107 33.0636 51.0295 33.1264 51.0344 33.1879C51.0384 33.238 51.0384 33.3502 50.9399 33.4069L50.8264 33.2082ZM50.7814 33.0952C50.7457 32.9795 50.7097 32.9137 50.6863 32.8676C50.6804 32.8561 50.6738 32.8427 50.6684 32.8296C50.6633 32.8171 50.6561 32.7976 50.654 32.7744C50.6516 32.7481 50.6558 32.717 50.6742 32.6874C50.6908 32.6605 50.7133 32.6446 50.7291 32.6355L50.8426 32.8341C50.8445 32.833 50.8573 32.8255 50.8682 32.8081C50.8807 32.7879 50.8828 32.7673 50.8815 32.7534C50.8806 32.7427 50.8777 32.7374 50.8796 32.7419C50.8812 32.7457 50.8841 32.7519 50.8899 32.7634C50.9134 32.8095 50.9576 32.8909 50.9997 33.0272L50.7814 33.0952ZM50.7291 32.6355C50.7557 32.6202 50.7929 32.6096 50.8339 32.619C50.8769 32.6288 50.9082 32.6569 50.9265 32.689L50.7282 32.8031C50.7365 32.8176 50.7543 32.8358 50.7828 32.8423C50.8093 32.8484 50.8307 32.841 50.8426 32.8341L50.7291 32.6355ZM50.9265 32.689C50.9742 32.7724 51.0414 32.9132 51.0764 33.0491C51.0938 33.1163 51.1057 33.1912 51.098 33.2607C51.0901 33.332 51.0592 33.4125 50.9777 33.4593L50.8642 33.2607C50.8646 33.2605 50.8645 33.2605 50.8642 33.2607C50.8641 33.2609 50.8644 33.2607 50.865 33.2595C50.8664 33.2569 50.8693 33.2499 50.8709 33.2358C50.8742 33.2062 50.8696 33.1623 50.8552 33.1067C50.8269 32.997 50.7696 32.8755 50.7282 32.8031L50.9265 32.689ZM50.9777 33.4593C50.8442 33.5362 50.6919 33.4757 50.58 33.3952C50.4602 33.3092 50.3425 33.1718 50.2475 33.0056L50.4458 32.8915C50.5288 33.0368 50.6263 33.1465 50.7133 33.209C50.8081 33.2771 50.854 33.2666 50.8642 33.2607L50.9777 33.4593ZM55.1353 33.8103L55.0745 33.9074L55.072 33.9058L55.1353 33.8103ZM55.1181 33.7734L55.2283 33.8033L55.2283 33.8033L55.1181 33.7734ZM55.1713 33.7506L55.2664 33.8139L55.2208 33.8827L55.1414 33.8611L55.1713 33.7506ZM55.2997 33.8524L55.243 33.7531L55.2812 33.7311L55.3242 33.7405L55.2997 33.8524ZM55.2943 33.8634L55.2082 33.9388L55.2007 33.9302L55.1951 33.9204L55.2943 33.8634ZM55.2657 33.7587L55.3408 33.8449L55.3323 33.8524L55.3224 33.8581L55.2657 33.7587ZM55.2682 33.7768L55.2114 33.6775L55.2509 33.6548L55.2951 33.6655L55.2682 33.7768ZM54.4994 34.3403C54.4806 34.3074 54.4761 34.27 54.4826 34.2366C54.4893 34.2029 54.5096 34.1634 54.5514 34.1393L54.6649 34.3379C54.6921 34.3223 54.7034 34.2978 54.7068 34.2805C54.7101 34.2637 54.7081 34.2444 54.6977 34.2262L54.4994 34.3403ZM54.5514 34.1393C54.5654 34.1313 54.5777 34.1283 54.5799 34.1277C54.5843 34.1266 54.5879 34.1259 54.5897 34.1256C54.5935 34.125 54.5965 34.1247 54.5976 34.1246C54.6003 34.1243 54.6026 34.1242 54.6036 34.1241C54.6059 34.124 54.6083 34.1239 54.6102 34.1238C54.6143 34.1237 54.62 34.1235 54.6264 34.1234C54.6396 34.123 54.6581 34.1225 54.6806 34.1216C54.7258 34.1199 54.7869 34.1169 54.8523 34.1113C54.918 34.1057 54.9861 34.0975 55.046 34.0859C55.1087 34.0737 55.1513 34.0597 55.1732 34.0471L55.2867 34.2457C55.2308 34.2779 55.1572 34.2975 55.0892 34.3108C55.0183 34.3245 54.9414 34.3335 54.8714 34.3396C54.8012 34.3456 54.7362 34.3488 54.6888 34.3506C54.6651 34.3514 54.6457 34.352 54.6323 34.3523C54.6255 34.3525 54.6208 34.3527 54.6176 34.3528C54.616 34.3528 54.6156 34.3529 54.616 34.3528C54.616 34.3528 54.6175 34.3528 54.6197 34.3525C54.6206 34.3525 54.6234 34.3522 54.6269 34.3516C54.6287 34.3513 54.6322 34.3507 54.6366 34.3495C54.6387 34.349 54.651 34.346 54.6649 34.3379L54.5514 34.1393ZM55.1732 34.0471C55.1763 34.0453 55.1782 34.0438 55.1791 34.0429C55.1801 34.042 55.1804 34.0415 55.1805 34.0414C55.1806 34.0413 55.1806 34.0413 55.1806 34.0411C55.1807 34.041 55.1809 34.0404 55.1811 34.0392C55.1818 34.0337 55.1808 34.0181 55.1675 33.9949L55.3658 33.8808C55.3962 33.934 55.4164 33.9998 55.4077 34.0681C55.3983 34.1413 55.3567 34.2054 55.2867 34.2457L55.1732 34.0471ZM55.1675 33.9949C55.1504 33.965 55.1155 33.9332 55.0745 33.9074L55.1961 33.7133C55.2524 33.7487 55.3224 33.8048 55.3658 33.8808L55.1675 33.9949ZM55.072 33.9058C55.0697 33.9042 55.0635 33.9001 55.0577 33.8958C55.0547 33.8935 55.0499 33.8898 55.0448 33.8849C55.0407 33.8811 55.0306 33.8712 55.0219 33.8561L55.2202 33.742C55.2159 33.7344 55.2115 33.7289 55.2087 33.7256C55.2057 33.7221 55.2031 33.7196 55.2014 33.7179C55.1982 33.7148 55.1957 33.713 55.1952 33.7126C55.1946 33.7121 55.1947 33.7123 55.1986 33.7149L55.072 33.9058ZM55.0219 33.8561C55.0128 33.8401 55.0054 33.8207 55.0031 33.7982C55.0009 33.7762 55.0041 33.7574 55.0079 33.7435L55.2283 33.8033C55.2296 33.7987 55.2318 33.7883 55.2304 33.7746C55.2289 33.7603 55.2243 33.7491 55.2202 33.742L55.0219 33.8561ZM55.0079 33.7435C55.0188 33.703 55.0464 33.6709 55.0768 33.6534L55.1904 33.8521C55.2022 33.8452 55.2096 33.8375 55.2141 33.8319C55.2189 33.8258 55.2248 33.8164 55.2283 33.8033L55.0079 33.7435ZM55.0768 33.6534C55.099 33.6407 55.1247 33.6324 55.1537 33.6325C55.1771 33.6327 55.1977 33.639 55.2013 33.64L55.1414 33.8611C55.1371 33.86 55.1374 33.8601 55.1384 33.8603C55.1399 33.8606 55.1449 33.8616 55.1518 33.8616C55.1593 33.8617 55.1671 33.8607 55.1747 33.8585C55.1821 33.8564 55.1874 33.8538 55.1904 33.8521L55.0768 33.6534ZM55.0762 33.6872C55.0843 33.675 55.0938 33.6661 55.0952 33.6647C55.0991 33.6609 55.1032 33.6572 55.1072 33.6538C55.1151 33.6469 55.125 33.639 55.1361 33.6306C55.1584 33.6138 55.1882 33.5932 55.2223 33.5736L55.3358 33.7723C55.3111 33.7865 55.2892 33.8016 55.2734 33.8135C55.2654 33.8195 55.2596 33.8243 55.2562 33.8272C55.2544 33.8288 55.2539 33.8293 55.2543 33.8289C55.2545 33.8287 55.2555 33.8277 55.257 33.8261C55.2578 33.8252 55.2619 33.8207 55.2664 33.8139L55.0762 33.6872ZM55.2223 33.5736C55.368 33.4898 55.5253 33.4693 55.6588 33.49C55.7867 33.5098 55.9144 33.5719 55.9753 33.6784L55.777 33.7925C55.764 33.7698 55.7149 33.7305 55.6236 33.7164C55.5378 33.7031 55.4335 33.716 55.3358 33.7723L55.2223 33.5736ZM55.9753 33.6784C56.0078 33.7353 56.0141 33.7991 55.9913 33.8578C55.9702 33.9124 55.9287 33.9504 55.8877 33.9741L55.7742 33.7754C55.7781 33.7732 55.78 33.7714 55.7806 33.7708C55.7811 33.7702 55.7798 33.7715 55.7784 33.775C55.7769 33.779 55.7761 33.7838 55.7765 33.7886C55.7769 33.7932 55.7782 33.7947 55.777 33.7925L55.9753 33.6784ZM55.8877 33.9741C55.8378 34.0028 55.7798 34.0136 55.7284 34.0176C55.6753 34.0217 55.6186 34.0193 55.5646 34.014C55.4565 34.0033 55.3465 33.9799 55.2752 33.9643L55.3242 33.7405C55.3955 33.7561 55.4939 33.7768 55.5872 33.786C55.6339 33.7906 55.6761 33.7919 55.7111 33.7892C55.7478 33.7864 55.7669 33.7796 55.7742 33.7754L55.8877 33.9741ZM55.3565 33.9517L55.3535 33.9534L55.24 33.7548L55.243 33.7531L55.3565 33.9517ZM55.3535 33.9534C55.3843 33.9357 55.3986 33.9084 55.404 33.8881C55.4095 33.8679 55.411 33.8371 55.3934 33.8063L55.1951 33.9204C55.1758 33.8866 55.1771 33.8521 55.1836 33.8284C55.19 33.8047 55.2063 33.7742 55.24 33.7548L55.3535 33.9534ZM55.3804 33.7879C55.4003 33.8109 55.414 33.8355 55.4215 33.8487L55.2232 33.9628C55.214 33.9466 55.2109 33.9419 55.2082 33.9388L55.3804 33.7879ZM55.4215 33.8487C55.5103 34.0039 55.4892 34.2034 55.3215 34.2999L55.208 34.1012C55.2398 34.0829 55.2655 34.0368 55.2232 33.9628L55.4215 33.8487ZM55.3215 34.2999C55.2647 34.3326 55.1896 34.3545 55.1176 34.3699C55.0433 34.3858 54.9621 34.3968 54.887 34.4035C54.8119 34.4103 54.7403 34.413 54.6846 34.4117C54.6572 34.4111 54.6306 34.4095 54.6083 34.406C54.5976 34.4044 54.5836 34.4017 54.5696 34.3968C54.5626 34.3944 54.5524 34.3903 54.5414 34.3835C54.5315 34.3773 54.5131 34.3641 54.4994 34.3403L54.6977 34.2262C54.6852 34.2043 54.6689 34.193 54.6619 34.1887C54.6539 34.1837 54.6474 34.1813 54.645 34.1805C54.6402 34.1788 54.6387 34.1789 54.6432 34.1796C54.6515 34.1809 54.667 34.1822 54.6901 34.1827C54.7354 34.1838 54.7983 34.1815 54.867 34.1754C54.9355 34.1692 55.0072 34.1594 55.0703 34.1459C55.1358 34.1319 55.1827 34.1158 55.208 34.1012L55.3215 34.2999ZM55.7452 33.7179C55.7478 33.7164 55.7444 33.718 55.7391 33.7229C55.7332 33.7284 55.7229 33.7399 55.7166 33.7582C55.7031 33.7977 55.7214 33.8249 55.7179 33.8187L55.9162 33.7046C55.9295 33.7279 55.952 33.7761 55.9326 33.8326C55.9148 33.8843 55.8722 33.9088 55.8587 33.9165L55.7452 33.7179ZM55.7179 33.8187C55.7221 33.8261 55.7204 33.819 55.6974 33.8071C55.6772 33.7967 55.648 33.7867 55.6123 33.7813C55.541 33.7705 55.4525 33.7793 55.3677 33.8281L55.2542 33.6295C55.3894 33.5517 55.5313 33.5373 55.6467 33.5548C55.7043 33.5635 55.7576 33.5804 55.8021 33.6034C55.8439 33.6249 55.8893 33.6576 55.9162 33.7046L55.7179 33.8187ZM55.3677 33.8281C55.3481 33.8394 55.3437 33.8424 55.3408 33.8449L55.1906 33.6726C55.2136 33.6524 55.2386 33.6385 55.2542 33.6295L55.3677 33.8281ZM55.3224 33.8581C55.3564 33.8385 55.3702 33.8065 55.3738 33.7833C55.3767 33.7647 55.3752 33.7403 55.3611 33.7156L55.1628 33.8297C55.147 33.8021 55.1444 33.7723 55.1481 33.7484C55.1525 33.7198 55.1691 33.6823 55.2089 33.6594L55.3224 33.8581ZM55.3611 33.7156C55.3619 33.717 55.3604 33.7143 55.3583 33.7112C55.3565 33.7084 55.3507 33.6998 55.3407 33.6909C55.3302 33.6815 55.3107 33.6679 55.2823 33.6639C55.2527 33.6597 55.2279 33.6681 55.2114 33.6775L55.325 33.8761C55.3071 33.8864 55.281 33.8951 55.2502 33.8907C55.2206 33.8865 55.2 33.8723 55.1885 33.862C55.1775 33.8522 55.1708 33.8425 55.168 33.8383C55.1651 33.8339 55.1628 33.8297 55.1628 33.8297L55.3611 33.7156ZM55.2951 33.6655C55.3757 33.6849 55.4829 33.7062 55.5785 33.7167C55.6265 33.7219 55.6687 33.7241 55.7018 33.7228C55.7393 33.7213 55.7492 33.7156 55.7452 33.7179L55.8587 33.9165C55.8122 33.9433 55.7551 33.9499 55.7107 33.9517C55.6618 33.9537 55.6073 33.9503 55.5534 33.9444C55.4452 33.9325 55.328 33.9091 55.2413 33.8882L55.2951 33.6655Z" fill="white"/>
<path d="M79.4605 16.5216C78.9741 17.5402 79.0164 18.2404 76.5422 22.8877M80.0417 21.5526C79.1451 22.2119 76.6896 23.402 74.041 22.8877C73.6042 24.2653 71.9718 27.2281 68.9369 28.0587C65.902 28.8892 62.7982 27.6203 61.6256 26.882C60.1772 29.4429 55.9835 34.7862 50.7967 35.6722C45.6098 36.5581 43.8073 36.4566 43.5543 36.2951C43.1405 37.2872 40.754 39.3405 34.5187 39.6174M33.0547 25.3629C31.8959 26.1213 28.7311 27.4869 25.3419 26.882C24.8349 27.6837 23.0606 29.3744 20.0189 29.7232C16.9772 30.072 14.2615 28.7589 13.2838 28.0587C12.0526 30.3889 7.96085 35.1738 1.44297 35.6722" stroke="#03224C" stroke-linecap="round"/>
<path d="M29.3482 30.174C29.8199 32.491 32.0892 37.5435 37.3925 39.2178" stroke="#03224C"/>
<path d="M32.6343 26.36L28.4418 28.5018V29.7374L42.3913 36.235L46.7327 33.3923C47.3397 32.394 49.0496 30.0182 51.0326 28.5018C53.5113 26.6063 59.3794 24.7119 66.0063 22.3768C72.6332 20.0417 79.3613 17.4528 81.6484 14.6609C83.478 12.4273 83.9727 9.02229 83.9913 7.59897C84.1199 4.84711 82.7959 2.46084 81.6484 1.19422C69.8332 -1.33001 57.1032 3.79495 54.4352 7.84901C51.7673 11.9031 43.9159 16.1866 39.6472 18.0989C36.2322 19.6288 33.549 24.2438 32.6343 26.36Z" fill="white"/>
<path d="M45.8978 32.7854C46.1519 31.842 47.7882 29.2361 52.3009 26.36C57.9417 22.7649 72.9585 20.6232 80.3525 14.2743C82.9285 12.0624 83.8922 9.72191 83.9913 7.59897M45.8978 32.7854L42.3913 35.1566L28.4418 28.5018M45.8978 32.7854L40.9657 30.4481M28.4418 28.5018L32.6343 26.36M28.4418 28.5018V29.7374L42.3913 36.235L46.7327 33.3923C47.3397 32.394 49.0496 30.0182 51.0326 28.5018C53.5113 26.6063 59.3794 24.7119 66.0063 22.3768C72.6332 20.0417 79.3613 17.4528 81.6484 14.6609C83.478 12.4273 83.9727 9.02229 83.9913 7.59897M32.6343 26.36C33.549 24.2438 36.2322 19.6288 39.6472 18.0989C43.9159 16.1866 51.7673 11.9031 54.4352 7.84901C57.1032 3.79495 69.8332 -1.33001 81.6484 1.19422C82.7959 2.46084 84.1199 4.84711 83.9913 7.59897M32.6343 26.36L38.3352 29.179" stroke="#03224C" stroke-linecap="round" stroke-linejoin="round"/>
<path d="M83.3921 8.53476L76.4802 13.6507M83.7843 5.53411L80.4999 7.8461M78.6861 9.22347L75.5488 11.6338M82.8529 3.22213L74.8625 9.22347M81.4803 1.35288L73.833 7.20664M78.6861 0.910162L72.3134 5.53411M75.8919 0.664185L70.2055 4.5011M71.9702 0.664185L68.1466 3.71403M68.1466 1.35288L66.0877 2.68101M51.0734 24.3588C50.3609 24.6613 48.8209 25.3487 48.3606 25.6787C47.9002 26.0087 46.7438 27.4111 46.2232 28.071M45.0723 29.8033L43.757 31.5357M41.8662 19.4092C41.0715 19.7117 39.2684 20.5641 38.4135 21.5541C37.5585 22.544 35.5362 25.6512 34.6319 27.0811" stroke="#03224C" stroke-width="0.4" stroke-linecap="round"/>
<path d="M75.4501 14.8264C74.6441 15.5004 72.8007 16.5676 71.9797 17.017C72.2988 16.7468 74.1581 15.4441 75.0478 14.8264C69.8106 9.6475 61.4167 7.57601 57.8745 7.18763C57.5162 7.45723 55.9341 8.61054 55.1877 9.1535C55.5012 6.18784 58.0797 3.27462 59.3298 2.18872C67.4347 2.683 72.782 6.81318 74.4426 8.81649C75.2038 11.6024 75.4314 13.9839 75.4501 14.8264Z" fill="#E2EFF2"/>
<path d="M74.4105 8.67998C73.4701 10.8368 72.4141 15.1205 72.0036 16.9928C72.9888 16.6333 74.6903 15.3827 75.418 14.8023C75.3284 12.1961 74.709 9.63483 74.4105 8.67998ZM74.4105 8.67998C73.2537 6.95751 68.6452 3.25419 59.4656 2.2207M59.4656 2.2207C59.0924 3.08194 58.2678 5.29869 57.9543 7.27579C57.2453 7.70641 55.7266 8.69122 55.3236 9.18549C54.8198 9.80333 56.2191 4.57974 59.4656 2.2207Z" stroke="#03224C" stroke-width="0.4"/>
<path d="M64.4921 19.8322C70.5138 18.6557 73.9776 15.9107 75.4164 14.9125C69.4906 8.83787 61.3481 7.5153 57.9909 7.15881C56.0725 8.31385 52.5376 11.4189 51.383 13.0944L64.4921 19.8322Z" fill="#03224C"/>
<path d="M49.3048 14.5382L60.8685 20.6343C59.419 21.276 54.4738 23.1832 52.1824 24.0566L41.8976 18.6023C43.6881 17.875 47.5818 15.5899 49.3048 14.5382Z" fill="#03224C"/>
<path d="M67.0749 11.0612C67.3454 10.72 68.1181 10.1214 69.0453 10.4564C70.4464 10.9625 70.5791 12.5028 70.2312 13.3099C69.8834 14.117 69.1381 14.3876 68.7903 14.5272" stroke="#5B5B5B" stroke-width="0.4"/>
<path d="M70.6578 13.658C70.5185 13.7558 70.1353 13.9329 69.9611 14.0092C69.8345 13.7594 69.6851 13.5631 69.6262 13.4962C69.7457 13.4178 69.784 13.1999 69.827 13.0352C69.8614 12.9034 70.0774 12.9151 70.1858 12.9024C70.1819 12.9946 70.1431 13.1158 70.1195 13.1999C70.5881 13.1144 70.4942 12.8323 70.5311 12.5433C70.6525 12.6044 70.8953 12.7541 70.8953 12.864C70.8953 13.0014 70.8319 13.5359 70.6578 13.658Z" fill="white"/>
<path d="M49.7699 22.4132C48.795 22.7297 46.7421 23.4403 46.3293 23.751C45.9164 24.0618 42.9746 28.3114 41.5554 30.3973M45.7701 20.2122C44.8096 20.5862 42.8198 21.3688 42.5445 21.5069C42.2005 21.6795 38.9319 25.5205 37.1685 28.3258" stroke="#03224C" stroke-linecap="round"/>
<path d="M71.8807 16.9032C72.5836 14.416 73.8126 10.4929 74.383 9.08533C74.8829 10.2182 75.1762 13.4176 75.2761 14.7552C73.5374 16.0917 72.8035 16.4936 71.8807 16.9032Z" fill="#FFF3EE"/>
<path fill-rule="evenodd" clip-rule="evenodd" d="M66.4723 10.2542C66.4179 10.4177 66.3745 10.8561 66.6353 11.3009C66.748 11.4932 66.9504 11.6425 67.1697 11.8042C67.5844 12.1101 68.0595 12.4605 68.1021 13.2308C68.12 13.5542 68.169 13.846 68.2195 14.1118L69.2534 13.451C69.6608 13.5191 69.9864 13.9597 69.8152 14.4753C69.4983 14.7819 68.3014 15.7087 67.9148 15.9406L67.9149 15.935C67.5707 16.1412 67.114 16.04 66.896 15.5206V17.6795C66.3419 18.0502 64.9076 18.5692 63.6037 17.6795C62.2998 16.7897 62.2781 15.8695 62.4302 15.5206C62.5431 15.4262 62.6121 15.1247 62.6954 14.7608C62.7565 14.4941 62.8252 14.194 62.9244 13.9173C63.0734 13.5022 63.1333 13.0504 63.1903 12.6205C63.2457 12.2035 63.2983 11.8072 63.4267 11.485C63.5368 11.2087 63.8646 10.9871 64.209 10.7542C64.6801 10.4358 65.1821 10.0963 65.201 9.56726L66.4723 10.2542Z" fill="#03224C"/>
<path d="M66.6353 11.3009L66.8078 11.1998V11.1998L66.6353 11.3009ZM66.4723 10.2542L66.5673 10.0782C66.6527 10.1244 66.6927 10.2251 66.6621 10.3172L66.4723 10.2542ZM67.1697 11.8042L67.0509 11.9652L67.1697 11.8042ZM68.1021 13.2308L67.9024 13.2419L68.1021 13.2308ZM68.2195 14.1118L68.3272 14.2803C68.2712 14.316 68.2012 14.3217 68.1402 14.2954C68.0793 14.2691 68.0353 14.2143 68.023 14.149L68.2195 14.1118ZM69.2534 13.451L69.1457 13.2824C69.1874 13.2558 69.2375 13.2455 69.2864 13.2537L69.2534 13.451ZM69.8152 14.4753L70.005 14.5383C69.9948 14.5689 69.9774 14.5966 69.9542 14.619L69.8152 14.4753ZM67.9148 15.9406L68.0176 16.1121C67.9551 16.1496 67.8771 16.1501 67.8141 16.1134C67.7511 16.0767 67.7131 16.0086 67.7148 15.9358L67.9148 15.9406ZM67.9149 15.935L67.8121 15.7634C67.8746 15.726 67.9526 15.7255 68.0156 15.7622C68.0786 15.7989 68.1166 15.8669 68.1148 15.9398L67.9149 15.935ZM66.896 15.5206H66.696C66.696 15.4253 66.7632 15.3433 66.8566 15.3245C66.9499 15.3057 67.0436 15.3554 67.0804 15.4432L66.896 15.5206ZM66.896 17.6795H67.096C67.096 17.7462 67.0627 17.8086 67.0072 17.8457L66.896 17.6795ZM63.6037 17.6795L63.491 17.8447L63.6037 17.6795ZM62.4302 15.5206L62.2469 15.4406C62.2593 15.4122 62.2781 15.387 62.3019 15.3671L62.4302 15.5206ZM62.6954 14.7608L62.5005 14.7161L62.6954 14.7608ZM62.9244 13.9173L63.1127 13.9848L62.9244 13.9173ZM63.1903 12.6205L63.3886 12.6468L63.1903 12.6205ZM63.4267 11.485L63.6125 11.5591L63.4267 11.485ZM64.209 10.7542L64.3211 10.9199L64.209 10.7542ZM65.201 9.56726L65.0011 9.56015C65.0035 9.49101 65.0416 9.42806 65.1016 9.39369C65.1616 9.35932 65.2352 9.35842 65.296 9.3913L65.201 9.56726ZM66.4627 11.4021C66.1693 10.9015 66.2123 10.4024 66.2825 10.1911L66.6621 10.3172C66.6236 10.4331 66.5797 10.8106 66.8078 11.1998L66.4627 11.4021ZM67.0509 11.9652C66.8414 11.8107 66.6004 11.637 66.4627 11.4021L66.8078 11.1998C66.8956 11.3495 67.0593 11.4744 67.2884 11.6433L67.0509 11.9652ZM67.9024 13.2419C67.8654 12.5727 67.4666 12.2717 67.0509 11.9652L67.2884 11.6433C67.7022 11.9485 68.2536 12.3483 68.3018 13.2198L67.9024 13.2419ZM68.023 14.149C67.972 13.8804 67.9211 13.5785 67.9024 13.2419L68.3018 13.2198C68.319 13.5299 68.3661 13.8115 68.416 14.0745L68.023 14.149ZM68.1118 13.9432L69.1457 13.2824L69.3611 13.6195L68.3272 14.2803L68.1118 13.9432ZM69.2864 13.2537C69.8138 13.3419 70.2152 13.9053 70.005 14.5383L69.6254 14.4122C69.7576 14.0141 69.5077 13.6963 69.2204 13.6482L69.2864 13.2537ZM69.9542 14.619C69.7867 14.7812 69.3996 15.0959 69.0134 15.3942C68.6274 15.6924 68.2226 15.9892 68.0176 16.1121L67.8119 15.769C67.9936 15.6601 68.3806 15.3776 68.7689 15.0777C69.157 14.778 69.5268 14.476 69.6761 14.3316L69.9542 14.619ZM67.7148 15.9358L67.715 15.9302L68.1148 15.9398L68.1147 15.9454L67.7148 15.9358ZM67.0804 15.4432C67.1714 15.66 67.302 15.7684 67.4241 15.8111C67.5476 15.8543 67.6862 15.8388 67.8121 15.7634L68.0177 16.1065C67.7993 16.2374 67.5375 16.2745 67.2921 16.1887C67.0453 16.1025 66.8386 15.9006 66.7116 15.598L67.0804 15.4432ZM66.696 17.6795V15.5206H67.096V17.6795H66.696ZM63.7164 17.5143C64.9252 18.3391 66.2655 17.8606 66.7848 17.5132L67.0072 17.8457C66.4182 18.2398 64.89 18.7993 63.491 17.8447L63.7164 17.5143ZM62.6135 15.6005C62.5115 15.8344 62.4648 16.6602 63.7164 17.5143L63.491 17.8447C62.1348 16.9193 62.0446 15.9045 62.2469 15.4406L62.6135 15.6005ZM62.8904 14.8054C62.8493 14.9847 62.8094 15.1598 62.7647 15.3018C62.7422 15.3733 62.7167 15.4423 62.6864 15.5028C62.6571 15.5612 62.6168 15.6253 62.5585 15.674L62.3019 15.3671C62.3001 15.3687 62.3107 15.3597 62.3287 15.3237C62.3457 15.2897 62.3638 15.2429 62.3831 15.1817C62.422 15.0583 62.4582 14.9007 62.5005 14.7161L62.8904 14.8054ZM63.1127 13.9848C63.0182 14.2483 62.9519 14.5367 62.8904 14.8054L62.5005 14.7161C62.561 14.4515 62.6322 14.1396 62.7362 13.8498L63.1127 13.9848ZM63.3886 12.6468C63.3321 13.0728 63.27 13.5462 63.1127 13.9848L62.7362 13.8498C62.8767 13.4582 62.9345 13.028 62.9921 12.5942L63.3886 12.6468ZM63.6125 11.5591C63.4951 11.8534 63.4449 12.2227 63.3886 12.6468L62.9921 12.5942C63.0465 12.1844 63.1014 11.7609 63.2409 11.411L63.6125 11.5591ZM64.3211 10.9199C64.1465 11.0379 63.9886 11.145 63.8602 11.2551C63.731 11.366 63.6499 11.4651 63.6125 11.5591L63.2409 11.411C63.3136 11.2287 63.4514 11.0788 63.5998 10.9515C63.7489 10.8236 63.9272 10.7033 64.097 10.5885L64.3211 10.9199ZM65.4008 9.57437C65.389 9.90668 65.2241 10.1686 65.0175 10.3796C64.814 10.5876 64.5526 10.7633 64.3211 10.9199L64.097 10.5885C64.3365 10.4266 64.5617 10.2735 64.7316 10.0998C64.8986 9.92926 64.9941 9.75689 65.0011 9.56015L65.4008 9.57437ZM66.3772 10.4301L65.1059 9.74322L65.296 9.3913L66.5673 10.0782L66.3772 10.4301Z" fill="#03224C"/>
<path d="M64.8297 16.2527C65.0397 16.6358 65.1558 18.1682 65.1876 18.7428L64.8297 18.9344L60.7257 16.8752C60.7018 16.7635 60.6398 16.3006 60.5825 15.3428C60.5252 14.3851 61.1472 14.3053 61.4654 14.3851C62.9209 14.9837 64.6197 15.8696 64.8297 16.2527Z" fill="#FE3945"/>
<path d="M66.885 10.1126C67.9223 9.48801 67.7667 7.42348 67.5592 6.46928C67.3367 5.99506 64.0841 7.19793 64.3435 7.97864C64.6028 8.75935 65.5883 10.8933 66.885 10.1126Z" fill="white"/>
<path d="M68.3158 7.97462C68.4919 7.48443 67.8764 7.23622 67.7956 6.96472C67.6538 6.48764 67.8289 6.15773 67.4601 6.00707C67.0912 5.85641 66.8906 6.06608 66.3193 5.95512C65.6314 5.82152 65.1096 6.21695 65.0245 6.69403C64.9394 7.1711 64.2017 7.146 63.9463 7.52265C63.691 7.89929 64.1733 7.97462 63.9463 8.4266C63.7194 8.87857 64.0882 9.17988 64.5138 9.25521C64.8543 9.31548 64.9016 9.84947 64.8826 10.1089C64.9299 10.0085 65.121 9.77247 65.5069 9.63186C65.9892 9.45609 66.3297 9.35565 66.4999 8.97901C66.6701 8.60236 68.0439 8.73132 68.3158 7.97462Z" fill="#03224C"/>
</svg>
