<svg width="1201" height="482" viewBox="0 0 1201 482" fill="none" xmlns="http://www.w3.org/2000/svg">
<g clip-path="url(#clip0)">
<path d="M302.242 372.818C308.744 372.581 357.029 372.976 407.916 372.818C409.791 372.812 435.875 372.815 460.923 372.818L507.752 372.818C445.437 381.714 539.505 382.036 534.908 382.283H872.124H1289.31L1478.94 481.849H-214.082L5.53925 387.945L52.1158 372.818L302.242 372.818Z" fill="url(#paint0_radial)"/>
<path d="M506.025 371.632H147.512L149.652 368.918H523.285L510.875 377.562L541.996 378.137L541.293 380.911C523.823 380.948 488.4 380.231 486.471 377.073C484.541 373.916 498.703 372.13 506.025 371.632Z" fill="white"/>
<path d="M431.93 181.777L399.881 138.826L354.639 154.603L198.825 324.262H564.33L505.938 272.636L453.075 188.055L431.93 181.777Z" fill="#DFDFDF"/>
<path d="M353.657 152.984L183.59 340.363L312.162 287.345L373.078 208.276L375.874 191.986L327.74 223.585L317.338 226.529L375.874 187.896L400.207 138.172L353.657 152.984Z" fill="#F1F1F1"/>
<path d="M533.43 285.307L508.917 261.572L457.664 322.814L514.576 324.814L571.367 309.626L556.581 288.225L533.43 285.307Z" fill="#DFDFDF"/>
<path d="M509.012 261.769L494.909 268.575L461.564 290.365L456.972 299.124L432.391 313.54L438.297 317.751L461.564 320.122L477.919 299.124L480.543 301.749L484.38 300.739L480.543 295.893L501.34 272.674L514.262 287.009V284.183L502.349 270.251L509.012 261.769Z" fill="#F1F1F1"/>
<path d="M652.869 265.68L595.743 301.082L500.801 364.645L652.869 373.04L1118.8 377.577L965.999 210.017L948.154 213.382L842.753 117.635L790.454 156.256L735.108 193.244L720.772 196.338L711.604 201.313L652.869 265.68Z" fill="#DFDFDF"/>
<path d="M806.55 129.136L711.226 201.287L704.96 216.935L712.175 211.998H717.207L702.776 222.157L698.694 231.936L715.961 224.284L769.948 201.287L783.197 171.006L736.664 201.287L740.379 195.734L785.543 165.662L789.96 156.786L842.362 117.813L806.55 129.136Z" fill="#F1F1F1"/>
<path d="M912.72 237.67L948.37 213.673L966.005 209.573L961.933 222.129L931.848 244.186V237.67L906.776 255.33L895.069 258.597L912.72 246.89L917.121 241.445L902.692 250.429L912.72 237.67Z" fill="#F1F1F1"/>
<path d="M306.255 277.904C228.423 276.93 178.157 338.305 162.753 369.113H734.504L711.017 355.556C675.819 333.32 615.266 285.809 522.725 314.387C440.029 339.926 403.545 279.12 306.255 277.904Z" fill="#FAFAFA"/>
<path d="M650.43 337.669V333.961M650.43 333.435V333.961M643.033 335.619V332.283M643.033 331.798V332.283M634.652 335.619V331.315M634.652 330.689V331.315M626.394 334.14V330.464M626.394 329.949V330.464M618.506 329.949V326.708M618.506 325.882V326.708M610.988 325.019V321.652M610.988 321.198V321.652M604.086 320.212V317.187M604.086 316.638V317.187M596.802 317.377V314.022M596.802 313.573V314.022M589.496 315.807V312.699M589.496 312.184V312.699M589.496 312.699L596.802 314.022M589.496 312.699L582.206 311.545M596.802 314.022L604.086 317.187M604.086 317.187L610.988 321.652M610.988 321.652L618.506 326.708M618.506 326.708L626.394 330.464M626.394 330.464L634.652 331.315M634.652 331.315L643.033 332.283M643.033 332.283L650.43 333.961M650.43 333.961L657.621 337.669M657.621 337.669V336.3V340.174V337.669ZM657.621 337.669L663.811 341.757V342.253V340.174" stroke="#03224C" stroke-width="0.644338" stroke-linecap="round" stroke-linejoin="round"/>
<rect width="1.7729" height="1.35572" rx="0.677859" transform="matrix(-1 0 0 1 633.002 332.134)" fill="#03224C"/>
<circle r="0.131549" transform="matrix(-1 0 0 1 632.557 332.647)" fill="white"/>
<circle r="0.131549" transform="matrix(-1 0 0 1 632.121 332.646)" fill="white"/>
<ellipse rx="0.131615" ry="0.131545" transform="matrix(-1 0 0 1 631.683 332.646)" fill="white"/>
<rect width="1.7729" height="1.35572" rx="0.677859" transform="matrix(-1 0 0 1 646.531 333.547)" fill="#03224C"/>
<circle r="0.131549" transform="matrix(-1 0 0 1 646.088 334.058)" fill="white"/>
<circle r="0.131549" transform="matrix(-1 0 0 1 645.653 334.057)" fill="white"/>
<circle r="0.131549" transform="matrix(-1 0 0 1 645.215 334.057)" fill="white"/>
<rect width="1.7729" height="1.35572" rx="0.677859" transform="matrix(-1 0 0 1 629.595 331.509)" fill="#03224C"/>
<circle r="0.131549" transform="matrix(-1 0 0 1 629.133 331.983)" fill="white"/>
<circle r="0.131549" transform="matrix(-1 0 0 1 628.697 331.983)" fill="white"/>
<circle r="0.131549" transform="matrix(-1 0 0 1 628.26 331.983)" fill="white"/>
<rect width="1.7729" height="1.35572" rx="0.677859" transform="matrix(-1 0 0 1 616.872 326.121)" fill="#03224C"/>
<circle r="0.131549" transform="matrix(-1 0 0 1 616.413 326.619)" fill="white"/>
<circle r="0.131549" transform="matrix(-1 0 0 1 615.978 326.616)" fill="white"/>
<circle r="0.131549" transform="matrix(-1 0 0 1 615.542 326.616)" fill="white"/>
<rect width="1.7729" height="1.35572" rx="0.677859" transform="matrix(-1 0 0 1 609.746 321.219)" fill="#03224C"/>
<circle r="0.131549" transform="matrix(-1 0 0 1 609.286 321.716)" fill="white"/>
<circle r="0.131549" transform="matrix(-1 0 0 1 608.85 321.715)" fill="white"/>
<circle r="0.131549" transform="matrix(-1 0 0 1 608.413 321.715)" fill="white"/>
<rect width="1.7729" height="1.35572" rx="0.677859" transform="matrix(-1 0 0 1 602.789 316.945)" fill="#03224C"/>
<circle r="0.131549" transform="matrix(-1 0 0 1 602.317 317.447)" fill="white"/>
<circle r="0.131549" transform="matrix(-1 0 0 1 601.881 317.447)" fill="white"/>
<circle r="0.131549" transform="matrix(-1 0 0 1 601.447 317.447)" fill="white"/>
<rect width="1.7729" height="1.35572" rx="0.677859" transform="matrix(-1 0 0 1 595.973 314.226)" fill="#03224C"/>
<circle r="0.131549" transform="matrix(-1 0 0 1 595.503 314.72)" fill="white"/>
<circle r="0.131549" transform="matrix(-1 0 0 1 595.069 314.718)" fill="white"/>
<circle r="0.131549" transform="matrix(-1 0 0 1 594.636 314.718)" fill="white"/>
<rect width="1.7729" height="1.35572" rx="0.677859" transform="matrix(-1 0 0 1 656.666 337.609)" fill="#03224C"/>
<circle r="0.131549" transform="matrix(-1 0 0 1 656.233 338.108)" fill="white"/>
<circle r="0.131549" transform="matrix(-1 0 0 1 655.797 338.106)" fill="white"/>
<circle r="0.131549" transform="matrix(-1 0 0 1 655.361 338.106)" fill="white"/>
<path d="M582.094 303.61L582.327 312.381L571.687 312.665L567.4 311.594L567.244 305.722L576.395 302.818L582.094 303.61Z" fill="#03224C" stroke="#03224C" stroke-width="0.644338" stroke-linecap="round" stroke-linejoin="round"/>
<path d="M575.974 313.772L566.962 314.012L564.99 314.065L558.216 312.004L578.875 311.453L587.461 313.466L584.947 313.533L575.974 313.772Z" fill="#03224C"/>
<path d="M584.992 315.235L584.947 313.533M576.037 316.131L575.974 313.772M566.98 314.67L566.962 314.012L587.461 313.466M587.461 313.466L564.99 314.065L558.216 312.004L578.875 311.453L587.461 313.466Z" stroke="#03224C" stroke-width="0.644338" stroke-linecap="round" stroke-linejoin="round"/>
<path d="M571.177 307.55L584.46 303.259L577.007 302.089L564.752 306.03L571.177 307.55Z" fill="#03224C"/>
<path d="M581.394 310.931L581.355 309.487C581.351 309.309 581.202 309.169 581.025 309.173L579.874 309.204C579.696 309.209 579.556 309.357 579.561 309.535L579.599 310.978C579.604 311.156 579.752 311.297 579.93 311.292L581.08 311.261C581.258 311.257 581.398 311.109 581.394 310.931Z" fill="white"/>
<path d="M580.458 309.167L580.515 311.331" stroke="#03224C" stroke-width="0.161084"/>
<path d="M575.457 311.09L575.418 309.646C575.414 309.468 575.266 309.328 575.088 309.332L573.937 309.363C573.76 309.368 573.619 309.516 573.624 309.694L573.662 311.138C573.667 311.315 573.815 311.456 573.993 311.451L575.143 311.42C575.321 311.416 575.462 311.268 575.457 311.09Z" fill="white"/>
<path d="M574.523 309.269L574.58 311.432" stroke="#03224C" stroke-width="0.161084"/>
<path d="M570.862 310.777L570.825 309.367C570.821 309.228 570.728 309.107 570.595 309.067L569.775 308.821C569.565 308.758 569.354 308.918 569.36 309.138L569.397 310.548C569.401 310.687 569.494 310.807 569.627 310.847L570.447 311.094C570.657 311.157 570.868 310.997 570.862 310.777Z" fill="white"/>
<path d="M570.048 308.87L570.105 311.034" stroke="#03224C" stroke-width="0.161084"/>
<path d="M568.927 310.058L568.889 308.648C568.886 308.509 568.793 308.388 568.66 308.348L567.839 308.102C567.629 308.039 567.419 308.199 567.425 308.419L567.462 309.829C567.466 309.968 567.558 310.088 567.691 310.128L568.512 310.375C568.722 310.438 568.933 310.278 568.927 310.058Z" fill="white"/>
<path d="M568.113 308.175L568.17 310.338" stroke="#03224C" stroke-width="0.161084"/>
<path d="M581.342 307.636L581.304 306.192C581.299 306.014 581.151 305.873 580.973 305.878L579.823 305.909C579.645 305.914 579.505 306.062 579.509 306.239L579.548 307.683C579.552 307.861 579.7 308.002 579.878 307.997L581.029 307.966C581.206 307.961 581.347 307.813 581.342 307.636Z" fill="white"/>
<path d="M580.392 305.891L580.45 308.055" stroke="#03224C" stroke-width="0.161084"/>
<path d="M578.461 312.344L578.388 309.6C578.383 309.422 578.235 309.281 578.057 309.286L576.907 309.317C576.729 309.322 576.589 309.47 576.593 309.647L576.667 312.392L578.461 312.344Z" fill="white"/>
<path d="M162.753 369.113C178.157 338.305 228.423 276.93 306.255 277.904C403.545 279.12 440.029 339.926 522.725 314.387C615.266 285.809 675.819 333.32 711.017 355.556L734.504 369.113" stroke="#03224C" stroke-width="0.460274"/>
<path d="M178.105 361.83L174.261 366.033L173.562 364.977H173.954L172.868 363.258H173.331L172.159 360.929L171.061 363.258H171.435L170.439 364.977H170.807L170.358 366.033L169.238 364.977H170.358L168.692 361.419H169.784L167.71 357.385H168.692L166.604 353.273L164.495 357.385H165.291L162.941 361.419H163.897L162.109 364.977H163.065L161.951 368.435L241.97 368.486L236.694 364.11L235.82 361.914H236.694L235.028 359.353H235.942L234.185 356.876L232.28 359.353H233.091L231.997 361.83L228.394 359.864L227.617 357.777H228.327L226.623 354.91L224.807 357.777H225.438L224.662 359.156L223.639 355.703H224.444L222.728 352.614L221.034 355.703H221.76L221.124 357.777L220.03 354.91L218.872 357.777L218.495 356.639H219.192L217.618 353.866H218.203L217.116 352.18L215.946 353.866H216.503L214.942 356.639H215.583L213.758 360.067H214.524L213.982 361.83L213.047 358.966H213.549L212.504 356.96L211.375 358.966H211.807L210.4 361.455H211.138L209.839 366.033L208.728 363.931H209.313L208.045 361.976L206.861 363.931H207.362L206.386 366.033L204.633 360.591H205.403L203.606 356.59H204.396L202.783 354.024L200.899 356.59H201.689L200.595 359.156L195.427 361.83L194.83 360.591H195.427L194.233 359.353H194.826L193.626 357.777L192.505 359.353H192.95L192.275 360.929L190.975 358.511H191.715L190.169 355.384H190.975L189.329 351.533L187.7 355.384H188.408L186.64 358.511H187.552L186.57 361.83L186.059 360.977H186.64L185.662 358.951H186.186L185.322 357.62L184.373 358.951H184.855L183.735 361.077H184.373L183.166 363.669H183.735L183.166 366.033L181.918 361.83H182.767L181.16 358.732H181.918L180.293 354.958L178.379 358.732H179.192L177.169 361.83H178.105Z" fill="#03224C"/>
<path d="M398.309 361.829L402.154 366.033L403.253 363.639H402.736L404.255 360.929L405.712 363.639H405.122L406.057 366.033L407.065 362.828H406.057L408.147 359.188H407.262L408.959 356.433H408.32L410.09 353.604L411.91 356.433H410.976L412.722 359.188H411.763L413.46 362.828H412.427L414.463 368.434L334.444 368.485L339.72 364.11L340.474 362.055H339.853L341.287 359.522H340.761L342.386 356.845L343.964 359.522H343.343L344.417 361.829L348.02 359.864L348.906 357.386H348.266L349.916 354.909L351.589 357.386H350.872L351.752 359.156L352.426 356.925H351.983L352.942 355.107H352.527L353.686 352.614L354.702 355.107H354.273L355.375 356.925H354.859L355.291 357.776L355.838 356.343H355.375L356.385 354.909L357.435 356.343H356.964L357.543 357.776L358.137 355.823H357.722L358.738 353.905H358.337L359.452 351.471L360.341 353.905H359.926L360.856 355.823H360.469L361.943 358.571H361.271L362.433 361.829L362.874 360.431H362.433L363.403 358.786H363.017L363.977 356.876L364.892 358.786H364.448L365.321 360.431H364.892L366.576 366.033L367.191 364.363H366.793L367.644 363.113H367.318L368.077 361.829L368.858 363.113H368.477L369.329 364.363H368.858L369.673 366.033L370.905 362.407H370.198L372.082 358.786H371.339L372.843 356.248H372.263L373.857 353.766L375.379 356.248H374.654L375.819 358.938L380.987 361.829L381.888 359.803H381.28L382.788 357.776L384.283 359.803H383.622L384.14 360.929L385.248 357.091H384.497L385.785 355.053H385.248L386.285 353.515H385.874L386.842 351.471L387.84 353.515H387.375L388.359 355.053H387.84L389.127 357.091H388.359L389.844 361.829L390.316 360.122H389.844L391.195 356.876L392.529 360.122H391.914L393.249 366.033L393.956 362.533H393.021L394.817 358.794H394.103L395.699 354.023L397.694 358.794H396.907L398.309 361.829Z" fill="#03224C"/>
<path d="M464.146 323.576L462.859 321.697L461.399 323.576H461.92L460.98 325.456L460.383 323.576H461.139L459.783 320.096H460.383L459.028 316.37L457.334 320.096H457.959L456.726 323.576H457.334L456.726 326.248H505.564V318.432L505.015 315.545H505.564L504.42 314.012H505.015L503.886 312.186L502.552 314.012H503.045L501.924 315.545H502.45L501.924 316.948L499.607 314.674L498.779 310.516H499.269L498.277 308.571H498.702L498.032 307.129H498.393L497.762 305.867L497.015 307.129H497.311L496.525 308.571H496.937L496.05 310.516H496.448L496.05 311.803L495.317 311.071H495.618L495.024 310.05L494.356 311.071H494.613L493.908 312.186H494.231L493.225 313.897H493.607L493.071 315.365L492.785 314.954H493.071L492.327 314.012L491.669 314.954H491.919L491.229 316.018H491.515L490.634 317.339H490.943L490.259 318.976L489.555 317.515H489.893L488.935 316.255L488.021 317.515H488.315L487.859 318.432L486.477 315.238H486.786L485.97 313.728H486.228L485.543 312.275L484.898 313.728H485.129L484.374 315.238H484.691L483.805 317.901L482.668 315.919H483.261L481.934 312.89H482.462L481.508 310.918H481.934L480.971 308.304L479.897 310.918H480.245L479.214 312.89H479.678L478.324 315.919H479.088L478.262 318.432L477.435 316.948L476.056 318.828H476.528L475.622 320.707L474.741 318.961H475.231L473.839 316.898H474.445L473.149 315.365L472.047 316.898H472.555L471.961 318.432L471.145 315.133H471.622L470.913 313.728H471.209L470.675 311.803L470.01 313.728H470.255L469.572 315.133H470.01L468.966 317.556H469.521L468.309 320.031H468.966L468.4 322.587L467.78 321.269H468.4L467.158 319.471H467.6L466.52 316.948L465.152 319.471H465.595L464.396 321.269H464.969L464.146 323.576Z" fill="#03224C"/>
<path d="M450.186 326.306C480.976 324.961 498.614 320.676 505.639 318.832L507.881 326.306H450.186Z" fill="#FAFAFA"/>
<path d="M433.044 329.059C434.424 329.529 436.19 329.255 436.9 329.059L436.201 326.242H436.699L435.791 323.199H436.201L435.33 321.336H435.791L434.976 319.952L434.199 321.336H434.576L433.691 323.199H434.065L433.044 326.242H433.531L433.044 329.059Z" fill="#03224C"/>
<path d="M440.703 331.564C441.533 331.846 442.595 331.682 443.022 331.564L442.643 329.954H443.022L442.294 328.573H442.584L442.061 327.487H442.362L441.79 326.489L441.209 327.487H441.47L441.018 328.573H441.264L440.703 329.954H441.018L440.703 331.564Z" fill="#03224C"/>
<path d="M444.599 328.815C445.909 329.14 447.586 328.95 448.261 328.815L447.713 327.032L448.261 326.966L447.089 324.911H447.598L446.365 322.905L445.198 324.911H445.576L444.599 326.966L445.067 327.032L444.599 328.815Z" fill="#03224C"/>
<path d="M525.406 332.832L522.716 331.408L522.327 329.777H522.716L522.099 328.2H522.425L521.746 326.643H522.002L521.521 325.429H521.746L521.186 323.866L520.662 325.429H520.867L520.369 326.643H520.662L519.934 328.2H520.292L519.815 330.248L519.181 328.349H519.551L518.655 326.82L517.789 328.349H518.101L517.547 329.879L516.486 325.033H516.869L516.027 323.041L516.422 323.105L515.324 320.104L514.226 323.041H514.558L513.639 324.855H514.022L513.434 326.82L513.091 325.633H513.434L512.748 324.447L512.068 325.633H512.353L511.957 326.82L511.502 324.104H511.957L511.357 322.702H511.744L510.946 321.227L510.052 322.702H510.39L509.553 324.104H510.052L509.553 325.986L509.109 322.702H509.761L508.746 320.016H509.278L508.456 317.36H508.94L507.997 313.543L506.885 317.36H507.272L506.281 320.016H506.74L505.794 322.702H506.45L505.794 325.986V334.836L535.479 339.688L533.021 334.414H533.28L532.618 333.036H532.839L532.384 332.313H532.54L532.1 331.373L531.581 332.313H531.754L531.213 333.036H531.438L530.996 333.887L530.761 333.623H530.996L530.378 332.727L529.776 333.623H529.994L529.467 334.414L528.971 333.336H529.257L528.579 332.163H528.873L528.309 331.305H528.519L528.098 330.794H528.309L527.872 330.177L527.428 330.794H527.632L527.199 331.305H527.428L527.199 331.777L527.099 331.136L527 330.494H527.199L526.789 329.557H526.962L526.631 328.816H526.729L526.355 327.769L526.05 328.816H526.156L525.806 329.557H525.977L525.562 330.494H525.765L525.293 331.667H525.562L525.406 332.832Z" fill="#03224C"/>
<path d="M540.065 341.793C528.415 333.996 511.981 327.934 505.22 325.877L503.374 336.634L540.065 341.793Z" fill="#FAFAFA"/>
<path d="M300.828 297.114L299.308 299.451L298.52 297.384H299.308L297.704 292.042L295.24 297.384H296.089L294.068 301.865H294.888L293.738 306.117L293.124 304.901H293.738L292.33 300.487L290.624 304.901H291.243L290.155 309.316L289.506 307.023H290.405L288.841 302.801H289.74L288.372 299.451H289.232L287.59 296.39L285.831 299.451H286.73L285.245 302.801H286.065L284.315 307.023H285.245L284.315 311.644H329.148L327.182 306.542L328.268 306.44L326.149 302.942H326.777L325.14 299.767H325.581L324.493 298.119L323.493 299.767H323.861L323.23 301.416L321.924 296.487H322.545L321.269 294.038H321.766L320.424 290.332L319.136 294.038H319.577L318.392 296.487H319.001L318.249 299.451L317.679 297.433H318.166L317.267 295.733L316.165 297.433H316.617L315.532 299.331H316.165L315.373 302.047L314.251 299.451L312.497 302.335H313.146L312.497 304.362L311.071 298.293H312.002L310.112 293.418L308.119 298.293H308.837L306.814 303.38H307.693L306.814 307.379L305.517 303.933H306.458L304.525 300.487L302.956 303.38L302.035 300.869H302.738L300.828 297.114Z" fill="#03224C"/>
<path d="M250.255 317.713H258.093L256.594 313.546H257.618L255.546 309.328H256.445L254.393 304.376L252.027 309.328H252.851L250.815 313.546H251.927L250.255 317.713Z" fill="#03224C"/>
<path d="M267.22 313.297H274.84L273.207 310.223H274.218L272.494 306.346H273.207L271.879 303.121H272.494L271.14 299.96L269.649 303.121H270.192L268.707 306.346H269.395L267.366 310.223H268.308L267.22 313.297Z" fill="#03224C"/>
<path d="M274.708 314.697H281.063L278.683 308.391H279.147L277.786 305.687L276.504 308.391H276.907L274.708 314.697Z" fill="#03224C"/>
<path d="M247.156 318.78C261.294 312.227 299.997 302.256 341.704 314.804L247.156 318.78Z" fill="#FAFAFA"/>
<path d="M318.575 314.569L316.271 312.436L315.592 310.238H316.02L315.132 308.731H315.592L314.656 307.145L313.673 308.731H314.069L313.244 310.238H313.673L313.029 312.436L312.547 310.777H313.029L312.005 308.17L310.976 310.777H311.325L310.332 312.708H310.754L310.214 314.569L309.988 313.798H310.332L309.645 312.436H309.988L309.314 311.408L308.653 312.436H308.946L308.337 313.798H308.653L308.337 315.166L307.662 312.708H308.441L307.164 309.614H307.813L306.35 304.867L304.417 309.614H304.958L303.659 312.708H304.417L303.54 317.112H322.158L320.604 313.458H320.937L320.239 312.436H320.604L319.769 311.241L319.018 312.436H319.335L318.717 313.458H319.018L318.575 314.569Z" fill="#03224C"/>
<path d="M330.86 317.554C313.591 315.029 306.288 315.336 301.595 315.336L301.083 319.176L330.86 317.554Z" fill="#FAFAFA"/>
<path d="M720.705 368.768H316.651M-0.166016 368.768H242.228" stroke="#03224C" stroke-width="1.15069" stroke-linecap="round"/>
<path d="M980.233 272.767L981.753 275.105L982.541 273.037H981.753L983.356 267.695L985.821 273.037H984.972L986.993 277.518H986.173L987.323 281.77L987.937 280.555H987.323L988.731 276.14L990.437 280.555H989.818L990.906 284.969L991.555 282.676H990.656L992.22 278.454H991.321L992.689 275.105H991.829L993.471 272.043L995.23 275.105H994.331L995.816 278.454H994.995L996.746 282.676H995.816L996.746 287.297H951.913L953.879 282.195L952.793 282.093L954.911 278.595H954.284L955.92 275.42H955.48L956.568 273.772L957.568 275.42H957.2L957.831 277.069L959.137 272.14H958.516L959.791 269.691H959.295L960.637 265.985L961.924 269.691H961.484L962.669 272.14H962.06L962.812 275.105L963.382 273.086H962.895L963.794 271.387L964.896 273.086H964.444L965.529 274.984H964.896L965.688 277.7L966.81 275.105L968.564 277.989H967.915L968.564 280.015L969.99 273.946H969.059L970.949 269.072L972.942 273.946H972.224L974.247 279.033H973.368L974.247 283.032L975.544 279.586H974.603L976.536 276.14L978.105 279.033L979.026 276.522H978.323L980.233 272.767Z" fill="#03224C"/>
<path d="M929.424 276.182H937.044L935.411 273.108H936.422L934.697 269.231H935.411L934.082 266.007H934.697L933.344 262.846L931.852 266.007H932.396L930.91 269.231H931.599L929.57 273.108H930.512L929.424 276.182Z" fill="#03224C"/>
<path d="M936.912 277.583H943.266L940.886 271.277H941.35L939.989 268.572L938.707 271.277H939.111L936.912 277.583Z" fill="#03224C"/>
<path d="M583.778 350.076C556.223 348.804 523.546 367.916 510.651 377.631H1154.23C1095.41 318.811 1023.48 285.651 919.594 272.954C850.242 264.478 748.05 286.487 694.529 323.051C641.008 359.614 618.222 351.665 583.778 350.076Z" fill="#FAFAFA"/>
<path d="M583.778 350.076L583.752 350.65L583.778 350.076ZM694.529 323.051L694.854 323.526L694.529 323.051ZM919.594 272.954L919.663 272.383L919.594 272.954ZM1154.23 377.631V378.206H1155.62L1154.64 377.224L1154.23 377.631ZM499.887 377.055C499.569 377.055 499.311 377.313 499.311 377.631C499.311 377.949 499.569 378.206 499.887 378.206V377.055ZM510.998 378.09C517.412 373.258 528.767 366.074 541.949 360.259C555.14 354.441 570.103 350.02 583.752 350.65L583.805 349.501C569.899 348.859 554.745 353.358 541.485 359.207C528.217 365.059 516.786 372.289 510.305 377.171L510.998 378.09ZM583.752 350.65C600.894 351.442 615.318 353.835 632.081 351.44C648.885 349.04 668.044 341.841 694.854 323.526L694.204 322.576C667.493 340.824 648.499 347.933 631.919 350.301C615.298 352.675 601.106 350.299 583.805 349.501L583.752 350.65ZM694.854 323.526C721.531 305.3 760.382 290.679 801.249 281.674C842.112 272.671 884.93 269.297 919.524 273.525L919.663 272.383C884.906 268.135 841.952 271.528 801.001 280.551C760.053 289.573 721.047 304.238 694.204 322.576L694.854 323.526ZM919.524 273.525C1023.31 286.21 1095.11 319.326 1153.82 378.038L1154.64 377.224C1095.71 318.297 1023.66 285.092 919.663 272.383L919.524 273.525ZM1154.23 377.055H510.651V378.206H1154.23V377.055ZM510.651 377.055H499.887V378.206H510.651V377.055Z" fill="#03224C"/>
<path d="M1201.27 377.631H818.215M651.439 377.631H743.791" stroke="#03224C" stroke-width="1.15069" stroke-linecap="round"/>
<path d="M795.239 298.043L796.758 300.381L797.546 298.313H796.758L798.362 292.971L800.826 298.313H799.977L801.998 302.795H801.178L802.328 307.047L802.942 305.831H802.328L803.736 301.416L805.442 305.831H804.823L805.911 310.245L806.561 307.952H805.662L807.225 303.731H806.326L807.694 300.381H806.834L808.476 297.32L810.235 300.381H809.336L810.822 303.731H810.001L811.751 307.952H810.822L811.751 312.573L765.502 317.177L768.884 307.472L767.798 307.369L769.917 303.872H769.289L770.926 300.697H770.486L771.573 299.048L772.573 300.697H772.205L772.836 302.345L774.142 297.416H773.521L774.797 294.967H774.3L775.642 291.261L776.93 294.967H776.49L777.675 297.416H777.065L777.817 300.381L778.387 298.362H777.9L778.799 296.663L779.901 298.362H779.449L780.534 300.26H779.901L780.693 302.977L781.816 300.381L783.569 303.265H782.921L783.569 305.292L784.995 299.222H784.064L785.955 294.348L787.947 299.222H787.229L789.252 304.309H788.373L789.252 308.308L790.55 304.862H789.608L791.541 301.416L793.11 304.309L794.031 301.799H793.328L795.239 298.043Z" fill="#03224C"/>
<path d="M848.134 312.354C832.61 300.205 765.842 310.4 744.086 324.762L848.134 312.354Z" fill="#FAFAFA"/>
<path d="M596.752 351.163C601.811 351.733 612.192 351.76 616.751 351.703L615.872 349.374H616.456L614.948 346.802H615.427L614.188 344.613H614.691L613.695 343.164L612.645 344.613H613.069L612.442 346.062L611.874 344.231H612.365L611.511 342.091H611.874L610.954 339.482L610.015 342.091H610.354L609.407 344.231H609.828L608.76 346.58H609.278L608.76 349.039L608.32 347.948H608.76L608.039 346.802H608.425L607.654 345.446L606.812 346.802H607.198L606.414 347.948H606.812L605.83 349.257H606.321L605.554 351.163L604.591 349.468H605.187L603.353 347.269L601.493 349.468H602.054L600.984 351.163L600.125 348.47H600.815L599.646 346.659H600.254L599.196 344.915H599.898L598.97 343.375H599.445L598.63 341.971L597.679 343.375H598.109L597.248 344.915H597.883L597.022 346.659H597.566L596.569 348.47H597.248L596.752 351.163Z" fill="#03224C"/>
<path d="M630.702 351.163L637.474 349.823L635.869 347.098H636.446L635.229 345.351L634.039 347.098H634.465L634.039 348.547L633.529 348.08H633.95L632.999 345.944H633.404L632.047 343.198L630.924 346.037H631.345L630.628 348.283H631.189L630.702 351.163Z" fill="#03224C"/>
<path d="M655.434 344.032L651.606 345.435L650.928 344.138H651.437L650.588 342.513H650.928L650.004 340.411L648.878 342.513H649.197L648.368 344.138H648.878L648.368 346.062L647.976 345.435H648.464L647.37 343.458L646.16 345.435L646.65 345.463L646.012 347.762L658.967 343.164L658.414 341.559H658.967L657.994 339.805H658.534L657.589 337.975H657.994L657.124 336.22L656.224 337.975H656.584L655.744 339.805H656.224L655.294 341.769H655.834L655.434 344.032Z" fill="#03224C"/>
<path d="M615.434 377.398H699.408L690.787 352.385H691.799L690.332 349.885H691.031L689.264 346.749L687.403 349.885H688.097L686.819 352.385H687.625L686.423 356.188L684.653 348.028H685.375L683.709 343.524H684.458L682.57 337.914L680.736 343.524H681.375L679.653 348.028H680.292L679.064 351.859L678.016 348.373H678.454L677.119 345.065L675.744 348.373H676.143L675.168 351.859L674.127 348.028H675.168L673.678 342.432H674.827L673.328 338.584H674.577L672.571 333.463L670.03 338.584H671.029L669.28 342.432H670.28L668.131 348.028H669.28L667.377 356.188L666.706 355.023H667.52L665.547 348.895L663.264 355.023H664.058L662.188 359.584H663.085L660.884 367.442L659.986 364.586H661.16L659.357 360.804H660.237L658.287 356.188L656.13 360.804H656.843L654.705 364.586H655.753L652.443 374.584L649.467 366.458H650.35L648.264 363.276L645.697 366.458H646.472L644.868 370.472L642.595 362.019H643.13L641.766 359.104H642.381L641.189 356.188L639.867 359.104H640.349L639.012 362.019H639.52L638.592 365.061L638.022 359.746H639.172L637.461 355.708H638.37L636.739 351.724H637.461L635.995 346.665L634.065 351.724H634.76L633.049 355.708H634.065L632.113 359.746H633.209L630.989 364.586H632.113L630.367 372.203L629.171 369.052H630.027L628.422 366.217H629.171L627.337 362.897L625.615 366.217H626.256L624.839 369.052H625.615L624.091 374.584L622.905 369.622H623.957L621.667 363.551H622.43L620.836 359.939H621.803L619.979 355.105L618.259 359.939H618.903L617.377 363.551H618.106L616.012 369.622H616.936L615.434 377.398Z" fill="#03224C"/>
<path d="M1168.71 377.631H1084.73L1093.35 352.618H1092.34L1093.81 350.118H1093.11L1094.88 346.982L1096.74 350.118H1096.04L1097.32 352.618H1096.51L1097.72 356.421L1099.49 348.261H1098.76L1100.43 343.757H1099.68L1101.57 338.147L1103.4 343.757H1102.76L1104.49 348.261H1103.85L1105.08 352.092L1106.12 348.606H1105.68L1107.02 345.298L1108.4 348.606H1108L1108.97 352.092L1110.01 348.261H1108.97L1110.46 342.665H1109.31L1110.81 338.817H1109.56L1111.57 333.696L1114.11 338.817H1113.11L1114.86 342.665H1113.86L1116.01 348.261H1114.86L1116.76 356.421L1117.43 355.256H1116.62L1118.59 349.129L1120.88 355.256H1120.08L1121.95 359.817H1121.05L1123.26 367.675L1124.15 364.819H1122.98L1124.78 361.037H1123.9L1125.85 356.421L1128.01 361.037H1127.3L1129.43 364.819H1128.39L1131.7 374.817L1134.67 366.691H1133.79L1135.88 363.509L1138.44 366.691H1137.67L1139.27 370.705L1141.54 362.252H1141.01L1142.37 359.337H1141.76L1142.95 356.421L1144.27 359.337H1143.79L1145.13 362.252H1144.62L1145.55 365.294L1146.12 359.979H1144.97L1146.68 355.941H1145.77L1147.4 351.957H1146.68L1148.14 346.898L1150.07 351.957H1149.38L1151.09 355.941H1150.07L1152.03 359.979H1150.93L1153.15 364.819H1152.03L1153.77 372.436L1154.97 369.285H1154.11L1155.72 366.45H1154.97L1156.8 363.13L1158.52 366.45H1157.88L1159.3 369.285H1158.52L1160.05 374.817L1161.23 369.855H1160.18L1162.47 363.784H1161.71L1163.3 360.172H1162.34L1164.16 355.338L1165.88 360.172H1165.24L1166.76 363.784H1166.03L1168.13 369.855H1167.2L1168.71 377.631Z" fill="#03224C"/>
<path d="M541.405 377.417H580.293L579.424 372.531H580.614L578.366 367.794H579.424L577.151 364.171H578.119L576.521 361.38H577.286L575.688 358.005L573.821 361.38H574.541L572.943 364.171H573.821L571.615 367.794H572.695L571.109 372.531L569.005 365.566H569.815L567.952 361.768L566.23 365.566H566.912L566.23 367.652L564.731 364.352H566.372L563.485 359.965H564.731L562.805 357.021H563.881L561.637 352.728L559.52 357.021H560.37L558.331 359.965H559.52L556.745 364.352H558.331L556.041 372.531L554.82 368.857H556.041L553.63 364.352L550.912 368.857H552.045L550.514 374.285L549.553 370.103H551.195L548.42 364.352H549.949L547.627 359.965H549.043L546.324 352.727L543.379 359.965H544.569L542.473 364.352H543.719L541.405 370.103H542.926L541.405 377.417Z" fill="#03224C"/>
<path d="M750.616 376.986H795.731L794.723 371.319H796.103L793.496 365.823H794.723L792.086 361.619H793.208L791.355 358.382H792.242L790.389 354.466L788.222 358.382H789.057L787.204 361.619H788.222L785.663 365.823H786.917L785.076 371.319L782.635 363.238H783.575L781.413 358.832L779.416 363.238H780.207L779.416 365.658L777.677 361.829H779.581L776.232 356.741H777.677L775.443 353.324H776.691L774.088 348.344L771.632 353.324H772.618L770.253 356.741H771.632L768.413 361.829H770.253L767.595 371.319L766.179 367.056H767.595L764.799 361.829L761.645 367.056H762.959L761.184 373.353L760.069 368.502H761.974L758.754 361.829H760.528L757.835 356.741H759.477L756.323 348.344L752.907 356.741H754.287L751.856 361.829H753.301L750.616 368.502H752.381L750.616 376.986Z" fill="#03224C"/>
<path opacity="0.3" d="M615.932 377.864H699.906L691.285 396.234H692.296L690.83 398.07H691.529L689.761 400.374L687.9 398.07H688.595L687.317 396.234H688.123L686.92 393.441L685.151 399.434H685.873L684.206 402.742H684.956L683.067 406.863L681.234 402.742H681.873L680.151 399.434H680.79L679.562 396.62L678.514 399.181H678.952L677.617 401.61L676.242 399.181H676.64L675.666 396.62L674.625 399.434H675.666L674.175 403.544H675.325L673.826 406.37H675.075L673.069 410.132L670.528 406.37H671.527L669.778 403.544H670.778L668.629 399.434H669.778L667.874 393.441L667.203 394.297H668.018L666.044 398.797L663.762 394.297H664.556L662.686 390.947H663.582L661.382 385.176L660.484 387.273H661.657L659.855 390.051H660.735L658.784 393.441L656.628 390.051H657.34L655.203 387.273H656.251L652.941 379.93L649.965 385.898H650.847L648.762 388.236L646.195 385.898H646.97L645.366 382.95L643.093 389.159H643.627L642.264 391.299H642.879L641.687 393.441L640.365 391.299H640.846L639.509 389.159H640.017L639.089 386.924L638.52 390.828H639.67L637.958 393.794H638.868L637.236 396.72H637.958L636.492 400.436L634.562 396.72H635.258L633.546 393.794H634.562L632.61 390.828H633.707L631.487 387.273H632.61L630.865 381.679L629.669 383.993H630.524L628.92 386.075H629.669L627.835 388.514L626.112 386.075H626.754L625.337 383.993H626.112L624.589 379.93L623.403 383.575H624.454L622.165 388.034H622.928L621.334 390.687H622.301L620.476 394.236L618.756 390.687H619.401L617.875 388.034H618.604L616.509 383.575H617.434L615.932 377.864Z" fill="#03224C"/>
<path opacity="0.3" d="M1169.19 377.631H1085.22L1093.84 396.001H1092.83L1094.29 397.837H1093.6L1095.36 400.141L1097.22 397.837H1096.53L1097.81 396.001H1097L1098.2 393.208L1099.97 399.201H1099.25L1100.92 402.509H1100.17L1102.06 406.63L1103.89 402.509H1103.25L1104.97 399.201H1104.33L1105.56 396.388L1106.61 398.948H1106.17L1107.51 401.377L1108.88 398.948H1108.48L1109.46 396.388L1110.5 399.201H1109.46L1110.95 403.312H1109.8L1111.3 406.137H1110.05L1112.06 409.899L1114.6 406.137H1113.6L1115.35 403.312H1114.35L1116.5 399.201H1115.35L1117.25 393.208L1117.92 394.064H1117.11L1119.08 398.564L1121.36 394.064H1120.57L1122.44 390.714H1121.54L1123.74 384.943L1124.64 387.04H1123.47L1125.27 389.818H1124.39L1126.34 393.208L1128.5 389.818H1127.78L1129.92 387.04H1128.87L1132.18 379.697L1135.16 385.666H1134.28L1136.36 388.003L1138.93 385.666H1138.15L1139.76 382.717L1142.03 388.926H1141.5L1142.86 391.067H1142.25L1143.44 393.208L1144.76 391.067H1144.28L1145.61 388.926H1145.11L1146.03 386.691L1146.6 390.595H1145.45L1147.17 393.561H1146.26L1147.89 396.487H1147.17L1148.63 400.203L1150.56 396.487H1149.87L1151.58 393.561H1150.56L1152.51 390.595H1151.42L1153.64 387.04H1152.51L1154.26 381.446L1155.46 383.76H1154.6L1156.2 385.842H1155.46L1157.29 388.281L1159.01 385.842H1158.37L1159.79 383.76H1159.01L1160.54 379.697L1161.72 383.342H1160.67L1162.96 387.801H1162.2L1163.79 390.454H1162.82L1164.65 394.003L1166.37 390.454H1165.72L1167.25 387.801H1166.52L1168.61 383.342H1167.69L1169.19 377.631Z" fill="#03224C"/>
<path opacity="0.3" d="M541.995 377.631H580.884L580.015 381.219H581.204L578.957 384.698H580.015L577.742 387.359H578.71L577.112 389.409H577.877L576.279 391.888L574.411 389.409H575.131L573.534 387.359H574.411L572.206 384.698H573.286L571.699 381.219L569.595 386.335H570.406L568.542 389.124L566.82 386.335H567.503L566.82 384.802L565.322 387.227H566.962L564.076 390.448H565.322L563.396 392.611H564.472L562.228 395.764L560.111 392.611H560.961L558.922 390.448H560.111L557.336 387.227H558.922L556.631 381.219L555.41 383.917H556.631L554.221 387.227L551.503 383.917H552.635L551.105 379.931L550.143 383.002H551.786L549.011 387.227H550.54L548.218 390.448H549.634L546.915 395.764L543.97 390.448H545.159L543.064 387.227H544.31L541.995 383.002H543.517L541.995 377.631Z" fill="#03224C"/>
<path opacity="0.3" d="M751.205 378.104H796.32L795.312 382.267H796.692L794.085 386.303H795.312L792.675 389.39H793.798L791.944 391.768H792.832L790.978 394.644L788.811 391.768H789.647L787.793 389.39H788.811L786.253 386.303H787.506L785.665 382.267L783.224 388.201H784.164L782.003 391.437L780.005 388.201H780.796L780.005 386.424L778.266 389.236H780.17L776.821 392.973H778.266L776.032 395.483H777.281L774.677 399.14L772.222 395.483H773.207L770.842 392.973H772.222L769.002 389.236H770.842L768.185 382.267L766.768 385.397H768.185L765.388 389.236L762.235 385.397H763.549L761.773 380.772L760.658 384.336H762.563L759.344 389.236H761.118L758.424 392.973H760.066L756.913 399.141L753.496 392.973H754.876L752.445 389.236H753.89L751.205 384.336H752.971L751.205 378.104Z" fill="#03224C"/>
<path d="M506.525 371.632H148.012L150.152 368.918H523.785L511.375 377.562L532.496 378.137L531.793 380.911C514.323 380.948 488.9 380.231 486.971 377.073C485.041 373.916 499.203 372.13 506.525 371.632Z" fill="white"/>
<path opacity="0.3" d="M178.215 373.804L174.37 370.968L173.672 371.681H174.063L172.977 372.84H173.44L172.268 374.411L171.171 372.84H171.545L170.548 371.681H170.916L170.467 370.968L169.348 371.681H170.467L168.802 374.081H169.893L167.819 376.802H168.802L166.714 379.576L164.604 376.802H165.4L163.051 374.081H164.007L162.219 371.681H163.175L162.061 369.348L242.079 369.314L236.804 372.265L235.929 373.747H236.804L235.138 375.475H236.051L234.294 377.146L232.389 375.475H233.2L232.107 373.804L228.504 375.13L227.726 376.538H228.436L226.733 378.472L224.916 376.538H225.548L224.772 375.607L223.748 377.937H224.553L222.837 380.021L221.144 377.937H221.87L221.233 376.538L220.139 378.472L218.981 376.538L218.605 377.305H219.301L217.727 379.176H218.312L217.225 380.313L216.055 379.176H216.612L215.052 377.305H215.693L213.867 374.993H214.634L214.091 373.804L213.157 375.736H213.658L212.613 377.089L211.485 375.736H211.917L210.51 374.057H211.247L209.948 370.968L208.838 372.386H209.423L208.155 373.706L206.97 372.386H207.471L206.495 370.968L204.742 374.639H205.513L203.715 377.339H204.505L202.893 379.07L201.009 377.339H201.798L200.704 375.607L195.537 373.804L194.94 374.639H195.537L194.343 375.475H194.935L193.735 376.538L192.615 375.475H193.06L192.384 374.411L191.084 376.043H191.825L190.278 378.152H191.084L189.439 380.75L187.809 378.152H188.517L186.749 376.043H187.661L186.68 373.804L186.168 374.379H186.749L185.772 375.746H186.296L185.432 376.644L184.482 375.746H184.964L183.845 374.312H184.482L183.275 372.563H183.845L183.275 370.968L182.028 373.804H182.876L181.269 375.894H182.028L180.403 378.439L178.489 375.894H179.301L177.279 373.804H178.215Z" fill="#03224C"/>
<path opacity="0.3" d="M398.202 375.066L402.046 371.342L403.145 373.462H402.629L404.148 375.864L405.605 373.462H405.015L405.949 371.342L406.958 374.181H405.949L408.04 377.407H407.154L408.852 379.848H408.212L409.983 382.354L411.803 379.848H410.868L412.615 377.407H411.655L413.353 374.181H412.32L414.356 369.214L334.337 369.169L339.613 373.045L340.367 374.866H339.745L341.18 377.111H340.654L342.279 379.483L343.857 377.111H343.235L344.31 375.066L347.913 376.808L348.798 379.003H348.159L349.808 381.198L351.481 379.003H350.764L351.645 377.435L352.319 379.412H351.875L352.834 381.022H352.419L353.579 383.232L354.594 381.022H354.165L355.267 379.412H354.752L355.183 378.657L355.73 379.928H355.267L356.277 381.198L357.328 379.928H356.856L357.435 378.657L358.029 380.388H357.614L358.63 382.087H358.23L359.345 384.244L360.233 382.087H359.818L360.748 380.388H360.362L361.836 377.953H361.163L362.325 375.066L362.766 376.305H362.325L363.296 377.763H362.909L363.869 379.456L364.784 377.763H364.341L365.214 376.305H364.784L366.468 371.342L367.084 372.821H366.685L367.537 373.928H367.21L367.969 375.066L368.75 373.928H368.37L369.221 372.821H368.75L369.565 371.342L370.797 374.554H370.091L371.975 377.763H371.232L372.736 380.012H372.156L373.75 382.211L375.272 380.012H374.547L375.712 377.628L380.88 375.066L381.78 376.862H381.172L382.681 378.657L384.176 376.862H383.514L384.032 375.864L385.141 379.265H384.39L385.677 381.071H385.141L386.178 382.433H385.766L386.734 384.244L387.733 382.433H387.268L388.251 381.071H387.733L389.02 379.265H388.251L389.737 375.066L390.208 376.579H389.737L391.088 379.456L392.422 376.579H391.807L393.141 371.342L393.848 374.443H392.914L394.709 377.756H393.996L395.591 381.983L397.587 377.756H396.8L398.202 375.066Z" fill="#03224C"/>
</g>
<g clip-path="url(#clip1)">
<path d="M241.5 8.0524C248.977 7.14053 277.544 8.43235 290.893 9.19225C294.743 8.8123 296.552 8.9083 298.644 9.73424C301.532 10.8741 296.845 11.8551 291.424 13.1469C261.941 22.2656 234.686 24.686 226.682 24.0862C218.952 23.507 218.323 19.0709 222.046 16.4872C225.77 13.9036 232.153 9.19225 241.5 8.0524Z" fill="white" stroke="#03224C"/>
<path d="M220.045 19.1622C220.285 19.372 220.944 19.8876 221.663 20.2713M223.822 20.8108C224.441 21.1105 226.495 21.704 229.756 21.68C233.017 21.656 242.365 20.7308 246.631 20.2713M268.452 17.0041L279.183 15.3856M281.79 14.6962L292.101 12.4781" stroke="#03224C" stroke-width="0.4" stroke-linecap="round"/>
<path d="M235.895 15.3638C227.1 16.7636 224.747 15.5729 224.67 14.8025C227.938 12.5245 235.598 9.55322 235.895 9.55322C237.321 11.5605 236.489 14.2633 235.895 15.3638Z" fill="#03224C"/>
<path d="M237.248 15.3638C238.199 12.9075 237.755 10.9948 237.414 10.3456L239.151 10.0484C239.647 9.96353 240.17 10.0565 240.534 10.4039C241.467 11.2935 242.087 12.5955 242.431 13.5996C242.606 14.1136 242.273 14.6319 241.738 14.7228C240.392 14.9512 238.328 15.2277 237.248 15.3638Z" fill="#03224C"/>
<path d="M238.055 2.43068C236.197 3.21684 237.281 6.89751 238.055 8.63957C241.629 7.74621 250.16 7.71643 255.163 7.74621C253.6 6.76351 240.378 1.44798 238.055 2.43068Z" fill="white" stroke="#03224C"/>
<path d="M239.091 8.19414C238.592 7.0184 237.542 4.43441 237.337 3.50433" stroke="#03224C" stroke-width="0.4"/>
<path d="M238.224 5.98717C239.492 5.32377 243.174 4.15067 247.761 4.76546" stroke="#03224C" stroke-width="0.4"/>
<path d="M301.399 17.5107C299.105 17.456 294.479 14.5284 292.453 13.0714C291.21 12.2251 295.669 11.626 298.053 11.4323C300.125 13.4812 303.694 17.5653 301.399 17.5107Z" fill="white" stroke="#03224C"/>
<path d="M297.446 -0.0813197C295.96 -0.126356 292.587 6.65453 291.086 10.0506C290.686 10.933 294.935 10.0055 297.109 9.43144C297.84 6.27929 298.932 -0.0362839 297.446 -0.0813197Z" fill="white" stroke="#03224C"/>
<path d="M287.829 5.26778C290.062 5.88076 291.426 6.99902 292.12 7.67592L291.321 9.04278H289.241C287.903 8.00265 285.84 4.72195 287.829 5.26778Z" fill="white" stroke="#03224C"/>
<circle cx="249.035" cy="12.0949" r="1.91293" fill="white" stroke="#03224C" stroke-width="0.4"/>
<circle cx="249.035" cy="12.0948" r="1.28925" fill="white" stroke="#03224C" stroke-width="0.4"/>
<circle cx="257.157" cy="11.7655" r="1.78088" fill="white" stroke="#03224C" stroke-width="0.4"/>
<circle cx="257.157" cy="11.7656" r="1.17032" fill="white" stroke="#03224C" stroke-width="0.4"/>
<circle cx="265.278" cy="11.7982" r="1.71486" fill="white" stroke="#03224C" stroke-width="0.4"/>
<circle cx="265.278" cy="11.7981" r="1.07746" fill="white" stroke="#03224C" stroke-width="0.4"/>
<circle cx="273.037" cy="11.7981" r="1.54978" fill="white" stroke="#03224C" stroke-width="0.4"/>
<circle cx="273.037" cy="11.7981" r="0.967893" fill="white" stroke="#03224C" stroke-width="0.4"/>
<circle cx="280.399" cy="11.8316" r="1.31858" fill="white" stroke="#03224C" stroke-width="0.4"/>
<circle cx="280.399" cy="11.8316" r="0.747654" fill="white" stroke="#03224C" stroke-width="0.4"/>
<path d="M265.15 16.1796C266.768 16.3361 267.65 16.8102 267.89 17.0276C273.435 19.9632 285.764 35.8153 278.98 36.1415C272.195 36.4676 242.252 24.4644 246.688 20.6808C251.124 16.8972 263.127 15.9839 265.15 16.1796Z" fill="white" stroke="#03224C"/>
<path d="M247.174 20.5015C248.084 21.5884 250.734 24.195 254.062 25.9252M256.99 27.4891C258.898 28.565 264.53 31.3424 271.797 33.8446" stroke="#03224C" stroke-width="0.4" stroke-linecap="round"/>
<path d="M251.549 24.2932C251.792 23.9186 252.567 23.0374 253.73 22.5086C254.894 21.9798 257.432 21.4731 258.555 21.2858M262.257 20.5918C264.702 20.1071 269.897 19.2237 271.113 19.5674M262.257 30.0103C262.411 29.7129 263.162 28.966 264.933 28.358C267.148 27.5979 275.674 25.582 277.525 26.8047" stroke="#03224C" stroke-width="0.4" stroke-linecap="round"/>
</g>
<path d="M304.471 60.9164C305.885 59.3024 308.124 55.0867 322.323 51.5013C323.733 51.1453 325.105 50.8872 326.431 50.7121C328.582 51.1907 329.639 52.5935 330.278 53.384C330.917 54.1745 341.28 55.1558 343.922 55.3199C346.036 55.4512 345.883 54.6408 345.542 54.2191C324.493 35.1054 301.674 50.7321 296.837 57.1013C292.437 62.8937 292.166 67.6228 293.163 67.497C294.159 67.3712 303.056 62.5304 304.471 60.9164Z" fill="#FE3945"/>
<path d="M345.542 54.2191C324.493 35.1054 301.674 50.7321 296.837 57.1013C292.437 62.8937 292.166 67.6228 293.163 67.497C294.159 67.3712 303.056 62.5304 304.471 60.9164C305.885 59.3024 308.123 55.0867 322.323 51.5013C323.733 51.1453 325.105 50.8872 326.431 50.7121M345.542 54.2191C345.883 54.6408 346.036 55.4512 343.922 55.3199C341.28 55.1558 330.917 54.1745 330.278 53.384C329.639 52.5935 328.582 51.1907 326.431 50.7121M345.542 54.2191C342.909 52.3788 335.791 49.4767 326.431 50.7121" stroke="#03224C" stroke-width="0.4"/>
<path d="M317.386 52.7203C311.908 49.1389 308.612 49.7643 306.502 49.7137C306.502 49.7137 307.855 48.9815 308.948 48.5001C310.041 48.0187 311.266 47.5371 311.266 47.5371C317.152 48.0424 320.194 50.3728 321.391 51.5425L317.386 52.7203Z" fill="white"/>
<path d="M327.305 50.4171C324.04 47.2384 319.762 45.9156 318.449 45.6278C318.866 45.5124 321.616 45.1479 323.092 45.1479C326.728 45.6278 330 48.5617 331.5 50.2005C329.91 50.2005 327.823 50.3441 327.305 50.4171Z" fill="white"/>
<path d="M294.015 67.3311L322.976 91.3953M322.976 91.3953L303.978 61.3362M322.976 91.3953L310.986 55.6793M338.09 51.0352L331.082 89.3688M331.082 89.3688L345.351 55.2568M331.082 89.3688V53.737" stroke="#03224C" stroke-width="0.4"/>
<path d="M326.104 97.5775L323.002 90.7257L331.033 88.9536L331.597 95.5582" stroke="#03224C" stroke-width="0.4"/>
<path d="M332.056 116.793C332.134 116.328 332.346 115.921 332.443 115.775C332.939 115.985 333.399 115.863 333.566 115.775C334.161 116.683 336.56 118.663 335.224 118.663C335.016 118.663 331.958 117.374 332.056 116.793Z" fill="#03224C"/>
<path d="M325.699 96.8213L325.908 97.5779C327.834 97.5779 328.559 96.7268 328.457 96.1721C328.056 96.1333 327.566 95.5701 327.362 95.3169C327.184 95.3816 326.387 95.5126 325.908 95.7064C325.431 95.8999 325.574 96.3929 325.698 96.8189L325.699 96.8213Z" fill="#03224C"/>
<path d="M329.593 94.7194C329.696 95.2234 329.529 95.6961 329.394 95.8792C329.55 95.9976 329.796 96.1915 330.261 96.3595C330.726 96.5276 331.562 96.1102 331.933 95.8194C331.933 95.8194 331.792 95.3871 331.675 95.044C331.499 94.5277 331.083 94.3492 330.867 94.333L329.593 94.7194Z" fill="#03224C"/>
<path d="M327.362 102.798L326.485 99.9121C327.281 100.409 327.909 101.839 328.077 102.266C328.245 102.692 328.134 103.201 328.145 103.422C327.835 103.499 327.426 102.998 327.362 102.798Z" fill="#03224C"/>
<path d="M331.809 99.274C331.809 98.9251 332.343 98.1404 332.596 97.9358C332.887 98.7597 333.261 99.8712 333.468 100.634C333.675 101.396 333.581 101.781 333.274 101.91L332.923 102.019C332.723 101.648 332.248 100.908 332.157 100.778C332.044 100.617 331.809 99.7102 331.809 99.274Z" fill="#03224C"/>
<path d="M329.359 95.7215C329.902 95.1966 329.388 93.5786 329.084 93.0285C328.929 92.7393 328.453 92.1861 327.793 92.2877C326.968 92.4147 326.068 93.1763 326.983 94.6548C327.315 95.1904 327.793 95.8185 328.422 95.9478M329.359 95.7215C329.09 95.9823 328.74 96.0458 328.422 95.9478M329.359 95.7215C329.359 95.9122 329.465 95.9868 330.056 96.3058C330.794 96.7046 332.369 95.5411 332.807 94.95C333.158 94.4771 332.076 93.472 331.491 93.0285L332.05 91.6797C332.595 92.0386 333.828 92.9716 334.402 93.8323C335.12 94.9083 333.326 97.1548 332.369 98.2994C331.412 99.444 332.116 100.543 332.959 101.966C333.662 103.15 336.233 105.391 336.711 106.787C337.094 107.903 337.353 112.018 337.194 113.918H335.559C335.346 112.217 335.021 109.169 334.83 108.499C334.591 107.661 331.491 104.518 331.491 104.837C331.491 105.156 333.814 107.92 334.013 109.315C334.173 110.432 333.897 113.413 333.764 114.716L332.249 114.94C332.209 113.331 331.906 110.338 331.81 109.763C331.691 109.045 329.754 107.196 329.084 106.25C328.422 105.315 328.148 103.554 328.126 102.729C328.105 101.904 327.117 99.7365 325.572 99.2921C324.027 98.8477 322.821 98.0647 322.588 97.049C322.402 96.2363 322.76 94.6922 323.155 93.7399L324.162 94.3826C324.014 95.2009 323.966 96.262 324 96.5667C324.042 96.9476 325.381 97.578 326.439 97.5992C327.497 97.6203 327.83 97.3241 328.126 97.049C328.363 96.8289 328.56 96.394 328.422 95.9478" stroke="#03224C" stroke-width="0.364956"/>
<path fill-rule="evenodd" clip-rule="evenodd" d="M328.159 97.0169L329.513 97.2683L330.097 96.3263C330.851 96.6621 332.377 95.5303 332.807 94.95C333.158 94.4771 332.076 93.472 331.491 93.0285L332.05 91.6797C332.595 92.0386 333.828 92.9716 334.402 93.8323C335.12 94.9083 333.326 97.1548 332.369 98.2994C331.441 99.4086 332.074 100.475 332.881 101.834C332.907 101.878 332.933 101.921 332.959 101.966C333.245 102.448 333.842 103.106 334.48 103.811C335.409 104.836 336.428 105.96 336.711 106.787C337.094 107.903 337.353 112.018 337.194 113.918H335.559C335.507 113.507 335.45 113.018 335.389 112.502C335.197 110.883 334.975 109.007 334.83 108.499C334.591 107.661 331.491 104.518 331.491 104.837C331.491 104.948 331.775 105.358 332.152 105.903C332.855 106.92 333.883 108.407 334.013 109.315C334.173 110.432 333.897 113.413 333.764 114.716L332.249 114.94C332.209 113.331 331.906 110.338 331.81 109.763C331.734 109.307 330.923 108.392 330.17 107.544C329.74 107.058 329.328 106.595 329.084 106.25C328.422 105.315 328.148 103.554 328.126 102.729C328.105 101.904 327.116 99.7365 325.572 99.2921C324.027 98.8477 322.821 98.0647 322.588 97.049C322.402 96.2363 322.756 94.7846 323.151 93.8323L324.246 94.3329C324.099 95.1512 323.966 96.262 324 96.5667C324.042 96.9476 325.381 97.578 326.439 97.5992C327.497 97.6203 327.83 97.3241 328.126 97.049C328.137 97.0387 328.148 97.0281 328.159 97.0169Z" fill="#03224C"/>
<path d="M323.862 92.6289C323.737 92.7058 323.477 93.412 323.363 93.7555L324.168 94.2011L324.369 93.9391C324.59 93.8779 325.036 93.7101 325.05 93.5285C325.068 93.3015 324.849 92.6899 324.762 92.6289C324.674 92.5678 324.019 92.5327 323.862 92.6289Z" fill="white"/>
<path d="M331.372 91.4049C331.532 91.4226 331.864 91.6873 331.967 91.8204L331.598 92.6911C331.493 92.6486 331.291 92.6077 331.267 92.6289C331.197 92.6911 331.021 92.8029 330.951 92.8071L331.317 93.0279C331.342 93.0392 331.361 93.0503 331.372 93.0614L331.317 93.0279C331.14 92.9488 330.66 92.8595 330.507 92.6911C330.374 92.5441 330.064 91.8263 330.374 91.6044C330.685 91.3826 331.172 91.3827 331.372 91.4049Z" fill="white"/>
<path d="M323.363 93.7555C323.477 93.412 323.737 92.7058 323.862 92.6289C324.019 92.5327 324.674 92.5678 324.762 92.6289C324.849 92.6899 325.068 93.3015 325.05 93.5285C325.036 93.7101 324.59 93.8779 324.369 93.9391L324.168 94.2011L323.363 93.7555ZM331.967 91.8204C331.864 91.6873 331.532 91.4226 331.372 91.4049C331.172 91.3827 330.685 91.3826 330.374 91.6044C330.064 91.8263 330.374 92.5441 330.507 92.6911C330.681 92.8835 331.283 92.9727 331.372 93.0614L330.951 92.8071C331.021 92.8029 331.197 92.6911 331.267 92.6289C331.291 92.6077 331.493 92.6486 331.598 92.6911L331.967 91.8204Z" stroke="#03224C" stroke-width="0.364956"/>
<path d="M328.328 93.2776C327.358 93.6241 327.028 94.4553 326.908 94.8513C326.652 94.7952 326.074 94.2594 326.073 93.639C326.072 92.8445 326.401 92.2774 327.084 91.9295C327.935 91.4957 328.938 91.8094 329.347 92.5155C329.675 93.0804 329.588 93.3981 329.467 93.5346C329.371 93.318 329.297 92.9311 328.328 93.2776Z" fill="#FE3945" stroke="#03224C" stroke-width="0.364956"/>
<path d="M332.557 115.856L332.516 115L333.559 114.812L333.445 115.856C333.088 116.039 332.704 115.932 332.557 115.856Z" stroke="#03224C" stroke-width="0.364956"/>
<path d="M335.39 116.012C335.468 115.547 335.68 115.14 335.776 114.995C336.273 115.204 336.732 115.082 336.9 114.995C337.495 115.902 339.894 117.882 338.558 117.882C338.35 117.882 335.292 116.593 335.39 116.012Z" fill="#03224C"/>
<path d="M335.891 115.075L335.891 114.032H336.893L336.778 115.075C336.421 115.258 336.038 115.151 335.891 115.075Z" stroke="#03224C" stroke-width="0.364956"/>
<defs>
<radialGradient id="paint0_radial" cx="0" cy="0" r="1" gradientUnits="userSpaceOnUse" gradientTransform="translate(574.07 381.706) rotate(89.2205) scale(106.196 752.606)">
<stop offset="0.0279285" stop-color="#E2EFF2"/>
<stop offset="1" stop-color="white" stop-opacity="0"/>
</radialGradient>
<clipPath id="clip0">
<rect width="1201" height="482" fill="white"/>
</clipPath>
<clipPath id="clip1">
<rect width="1201" height="482" fill="white"/>
</clipPath>
</defs>
</svg>
