<svg xmlns="http://www.w3.org/2000/svg" fill="none" viewBox="0 0 100 124"><ellipse fill="#5B5B5B" fill-opacity=".2" rx="42" ry="13.888" transform="matrix(-1 0 0 1 45.498 110.112)"/><path fill="#FAFAFA" stroke="#03224C" stroke-linejoin="round" stroke-width=".352" d="M33.049 24.92c-1.834-.874-2.244-3.192-2.244-4.575l-4.204.326c-.028.421.248 1.669 0 2.65-.563 2.233-5.288 3.903-6.645 5.165-1.358 1.263-4.497 12.035-5.345 13.718-.679 1.347-5.203 4.937-7.38 6.564l1.866 2.188c2.658-1.29 8.263-4.19 9.417-5.47 1.153-1.279 2.8-5.75 3.478-7.826.226 2.244 2.63 6.43 2.63 8.584s-5.365 11.1-4.665 31.273c5.973 4.175 20.433 1.74 23.403 0-.764-21.1-6.717-29.052-6.717-31.273 0-2.222 1.722-6.649 1.892-8.584.66 1.8 2.722 5.044 4.386 7.066.846 1.028 2.374 2.943 4.385 4.905l2.28-2.221c-2.143-3.042-3.03-4.966-4.019-6.863-.866-1.66-3.127-8.19-5.333-11.135-2.206-2.945-4.893-3.397-7.185-4.491z"/><path fill="#FAFAFA" stroke="#03224C" stroke-width=".352" d="M34.194 90.266c-.746-3.702-1.344-9.587-1.3-10.579.64 0 5.315-.468 6.848-.69-.266 4.85-.998 15.102-.998 17.165 0 2.063.513 5.08.78 5.808-1.116 2.266-3.98 1.158-4.98.607.134-.463.165-.877.4-3.043.185-1.69.183-4.64-.75-9.268z"/><path fill="#FAFAFA" stroke="#03224C" stroke-width=".316" d="M34.324 102.5c.479-.167.857.209.986.418 2.79 1.063 4.146-.442 4.475-1.328.282-1.782 1.507-1.423 1.507-.86 0 0-.016.768-.345 1.385.587.268 2.07 1.273 3.876 2.062 1.761.77 1.797 3.6 0 3.6h-9.9c-.447-.035-1.382-.378-1.55-1.468-.212-1.363.352-3.6.95-3.809z"/><path stroke="#03224C" stroke-linecap="round" stroke-linejoin="round" stroke-width=".088" d="M40.239 104.031l1.458-1.597-.337 2.189 1.72-1.372-.337 1.78 1.159-1"/><path fill="#fff" stroke="#03224C" stroke-width=".416" d="M26.825 20.596c-4.153-3.144-3.787-8.817-3.631-11.097h10.582c.192.874.452 3.603-.007 7.069-.575 4.333-3.59 6.566-6.944 4.028z"/><path fill="#03224C" d="M24.322 15.627c4.18-.864 5.133-4.128 5.653-5.484.35 2.075 2.612 3.047 3.7 3.274l-.218 9.322c.871-.864 2.903-6.982 2.758-10.042-.145-3.06-1.088-7.053-6.24-7.665-5.152-.612-9.252 1.871-9.144 7.306.088 4.348 1.609 8.938 2.359 10.69l1.132-7.4z"/><path fill="#03224C" d="M20.103 6.077c1.133 1.735 2.495 1.6 3.034 1.316l5.93-2.15c.344-.815.632-2.668-.964-3.56-1.596-.893-3.523.05-4.286.634-2.482-.863-5.13 1.593-3.714 3.76z"/><path fill="#fff" stroke="#03224C" stroke-width=".573" d="M1 53.175c0-.714 1.151-2.184 2.334-2.49.896-.233 3.168-1.07 3.996-1.394l1.421 1.76c-.206 2.164-2.911 3.064-4.18 3.133.034.816.02 2.45-.31 2.45-.41 0-3.261-2.744-3.261-3.459z"/><path stroke="#03224C" stroke-width=".416" d="M32.212 24.39c0 .624.046 1.427-1.523 2.163-2.703.668-4.126-1.264-4.514-2.312"/><path fill="#FE3945" d="M23.198 27.11c.95-.516 2.358-1.601 2.944-2.08.748 1.697 2.92 2.752 4.65 2.08 1.73-.67 1.951-1.92 1.951-1.92.6.286.752.204 3.357 1.537 2.606 1.334 3.04 2.052 4.131 3.467 1.091 1.416 2.711 5.533 3.287 6.88.245.575 1.673 4.124 2.977 6.349.584 1.007 1.889 3.2 2.437 3.906l-1.586 1.584c-2.076-1.993-2.716-2.895-3.81-4.267-1.29-1.615-2.28-2.845-3.305-4.553-1.024-1.708-.896-2.055-1.233-2.632-.338-.577-.838-.254-.896-.08-.058.173-.238.967-.372 1.798-.134.83-1.474 5.25-1.608 6.536-.134 1.286.088 1.547 1.124 3.894 1.037 2.346 2.644 5.913 4.147 13.676 1.202 6.211 1.525 11.908 1.473 14-9.907 3.35-19.293 2.082-22.413.037-.529-15.478 2.25-22.98 2.714-24.445.465-1.465 1.6-4.908 1.807-5.614.207-.707.155-.902.155-1.547 0-.646-.67-2.306-.919-3.033-.248-.727-1.446-3.821-1.621-4.57-.176-.747-.238-.85-.413-.9a.62.62 0 00-.661.276c-.155.266-1.312 3.534-1.59 4.251-.28.718-.662 1.64-1.612 3.187-.95 1.547-3.222 2.325-4.224 2.868-.801.435-3.577 1.848-4.864 2.5L8.006 48.84c1.46-1.175 4.468-3.608 4.823-3.944l.018-.017c.463-.438 1.897-1.794 2.213-2.39.32-.605.62-1.599.867-2.265.248-.666 2.748-7.868 3.181-9.005.434-1.138.992-2.1 1.291-2.449.3-.348 1.611-1.014 2.8-1.66z"/><path stroke="#03224C" stroke-linecap="round" stroke-linejoin="round" stroke-width=".4" d="M51.578 49.961c-.388-.236-1.554-1.725-2.088-2.44l-1.937 1.996c.559.53 1.729 1.804 1.937 2.662.26 1.072 2.088 5.214 2.796 4.88.567-.265-.062-1.638-.447-2.292.621 1.011 2.058 3.04 2.833 3.07.775.029-.77-2.034-1.64-3.07 1.168 1.159 3.414 3.24 3.056 2.293-.358-.947-1.59-2.194-2.162-2.7 1.38.814 4.732 1.642 3.274.528-1.81-1.383-3.945-2.487-3.497-2.487.447 0 2.832.887 1.938 0-.895-.887-3.578-2.144-4.063-2.44z"/><path fill="#FAFAFA" stroke="#03224C" stroke-width=".352" d="M23.074 91.163c-.758-5.189-1.158-10.424-1.253-12.491 2.11.677 5.406 1.125 6.986 1.234-.217 4.1-1.686 14.19-1.686 16.725 0 2.03.544 5.018.816 6.259-2.698 1.381-4.366.576-4.863 0l.512-1.726c-.17-.252-.512-.896-.512-1.457 0-.702.947-2.058 0-8.544z"/><path fill="#FAFAFA" d="M22.59 102.719c.217-.45.665-.651.96-.782l.302.943c.078-.331.502-.926.691-.943h1.939c.65 0 .768.684.86.878l.277-1.016c.402.106.95.157 1.028.92.099.953-.542 1.001.123 2.344.532 1.075.444 2.045 0 2.224-1.748 1.1-6.683 1.251-6.944-.781-.08-.63.764-1.833.764-2.2 0-.366-.271-1.026 0-1.587z"/><path fill="#03224C" d="M23.55 101.937l.168-.053a.174.174 0 00-.096-.107.175.175 0 00-.143-.001l.071.161zm-.96.782l.158.076-.158-.076zm-.764 3.787l.175-.023-.175.023zm6.944.781l-.066-.163-.014.006-.013.009.093.148zm0-2.224l.158-.078-.158.078zm-.123-2.344l.175-.018-.175.018zm-1.028-.92l.044-.17-.168-.044-.046.168.17.046zm-.277 1.016l-.159.076a.175.175 0 00.175.099.175.175 0 00.154-.129l-.17-.046zm-.86-.878v-.176.176zm-1.939 0v-.176h-.008l-.007.001.015.175zm-.691.943l-.168.053a.176.176 0 00.339-.013l-.171-.04zm-.373-1.104c-.29.128-.8.351-1.048.866l.317.153c.185-.384.572-.564.873-.697l-.142-.322zm-1.048.866c-.157.326-.153.672-.118.965.018.146.045.287.065.406.022.123.036.219.036.293h.352c0-.109-.02-.233-.041-.354-.022-.125-.046-.253-.062-.388-.033-.269-.029-.533.085-.769l-.317-.153zm-.017 1.664a.443.443 0 01-.027.119c-.02.061-.05.134-.088.219-.078.173-.177.369-.28.588a5.881 5.881 0 00-.275.661c-.07.214-.117.438-.092.635l.349-.045c-.015-.118.012-.28.078-.481.064-.196.158-.409.258-.62.097-.206.204-.419.283-.594.04-.09.075-.175.1-.253a.748.748 0 00.046-.229h-.352zm-.762 2.222c.075.589.49 1.001 1.047 1.27.555.269 1.277.408 2.032.449.757.04 1.56-.02 2.287-.159.723-.139 1.383-.361 1.846-.652l-.187-.297c-.412.258-1.024.468-1.726.603a9.28 9.28 0 01-2.201.153c-.73-.038-1.4-.173-1.898-.414-.497-.24-.797-.57-.851-.998l-.35.045zm7.184.923c.325-.132.464-.519.476-.935.012-.433-.108-.972-.384-1.531l-.315.156c.256.517.357 1 .347 1.366-.01.382-.137.569-.256.617l.132.327zm.092-2.466c-.32-.646-.314-.953-.26-1.203.056-.259.207-.568.154-1.081l-.35.036c.046.439-.074.631-.148.97-.075.348-.056.737.289 1.434l.315-.156zm-.106-2.284c-.044-.432-.228-.686-.476-.838-.226-.139-.505-.187-.683-.234l-.09.341c.225.059.421.089.589.193.147.09.276.242.31.574l.35-.036zm-1.373-.948l-.277 1.016.34.092.276-1.015-.34-.093zm.052.987c-.02-.04-.036-.098-.076-.206a1.77 1.77 0 00-.155-.324c-.144-.23-.386-.449-.788-.449v.352c.247 0 .39.124.49.284.052.083.09.174.123.261.028.075.061.175.088.233l.318-.151zm-1.02-.979h-1.938v.352h1.939v-.352zm-1.953.001a.373.373 0 00-.158.057.814.814 0 00-.124.098 1.915 1.915 0 00-.232.27c-.145.2-.286.453-.334.652l.343.081c.031-.132.141-.341.276-.526.065-.09.13-.167.188-.221a.576.576 0 01.068-.055c.02-.011.019-.007.003-.005l-.03-.351zm-.509 1.064l-.301-.942-.335.107.301.942.335-.107z"/><path stroke="#03224C" stroke-linecap="round" stroke-linejoin="round" stroke-width=".088" d="M24.27 104.044c.588-.131 1.966-.315 2.773 0-.771.091-1.785.214-2.773.753.626-.005 2.058.173 2.773.398-.827.018-2.54.136-2.773.463"/><path fill="#fff" stroke="#03224C" stroke-width=".4" d="M59.99 25.95c2.086-.994 2.552-3.627 2.552-5.197l4.78.37c.032.479-.282 1.896 0 3.011.64 2.535 6.013 4.432 7.556 5.866 1.544 1.434 5.113 13.669 6.078 15.58.772 1.53 5.916 5.608 8.392 7.456l-2.122 2.485c-3.022-1.465-9.396-4.76-10.708-6.213-1.312-1.453-3.183-6.532-3.955-8.89-.257 2.55-.772 8.26-.772 10.706v7.265c-6.791 4.741-15.242 1.975-18.618 0 .386-1.689 1.157-5.697 1.157-8.22 0-2.524-.385-7.552-.578-9.75-.386 2.007-4.37 7.894-7.193 8.878-2.468.86-7.186 1.318-9.084.872l-1.064-3.442c2.17-.47 6.981-2.064 8.37-3.058 1.737-1.243 4.53-9.272 7.039-12.618 2.508-3.345 5.563-3.858 8.17-5.1z"/><path fill="#71BFD6" d="M56.938 27.391l3.663-1.78 2.002 2.397 4.906-2.397 1.797 1.028 5.804 3.56 4.906 13.967 2.073 2.739 7.462 5.888-2.28 2.738-11.194-6.093-3.316-8.49-1.244 8.079.622 9.311-6.22 2.191h-6.84l-6.218-2.19 1.589-6.916-.553-10.475-3.524 5.135-3.939 3.355-8.706 1.095-1.382-3.629 9.121-3.491 7.394-13.693 4.077-2.329z"/><path fill="#FAFAFA" stroke="#03224C" stroke-width=".4" d="M32.646 46.173c1.06.223 2.756.419 3.472.49l1.022 3.091c-.741-.127-2.069-.286-2.165 0-.12.358-2.329 3.383-3.574 3.462-1.246.08-1.848-.676-.924-.955.924-.278 2.169-1.552 1.928-2.069-.242-.517-.924-.318-1.687 0-.763.319-2.209 2.07-2.972 2.07-.762 0 .442-4.378.763-4.498.321-.119 2.811-1.87 4.137-1.591z"/><path stroke="#03224C" stroke-linecap="round" stroke-linejoin="round" stroke-width=".4" d="M60.002 26.011c2.085-.994 2.551-3.626 2.551-5.197l4.78.37c.033.479-.281 1.896 0 3.011.641 2.535 6.014 4.432 7.557 5.866 1.543 1.434 5.113 13.669 6.078 15.58.771 1.53 5.916 5.608 8.392 7.456l-2.122 2.485c-3.023-1.465-9.396-4.76-10.708-6.213-1.312-1.453-3.183-6.531-3.955-8.89-.258 2.55-.772 8.26-.772 10.706v7.265c-6.791 4.741-15.242 1.975-18.618 0 .386-1.689 1.157-5.697 1.157-8.22 0-2.524-.386-7.552-.579-9.75-.386 2.007-4.58 7.981-7.428 8.89-2.698.86-6.962 1.306-8.86.86l-1.064-3.442c2.268-.627 6.993-2.064 8.382-3.058 1.736-1.243 4.53-9.272 7.038-12.618 2.509-3.345 5.564-3.858 8.171-5.1z"/><path fill="#FAFAFA" stroke="#03224C" stroke-linecap="round" stroke-linejoin="round" stroke-width=".4" d="M89.378 53.255h2.33c1.197 0 2.52-.748 3.78-.748 1.26 0 .561.278-.295.748-.857.47-1.744.863-1.285 1.106.459.242 3.181 0 4.038 0 .805 0 .078.883-2.033 1.015 1.368-.039 3.433.012 3.257.47-.182.474-2.386.425-3.695.327 1.176.107 3.083.41 3.083.946 0 .582-3.1.04-4.65-.303 1.09.253 3.273.873 3.273 1.334 0 .576-4.497-.151-6.791-1.576-1.836-1.14-2.458-1.627-2.54-1.728l1.528-1.591z"/><path fill="#fff" stroke="#03224C" stroke-width=".473" d="M68.73 20.929c3.393-2.565 2.655-9.842 2.478-12.432H59.175c-.218.993-.515 4.092.008 8.029.654 4.92 5.733 7.286 9.547 4.403z"/><path fill="#DFDFDF" stroke="#03224C" stroke-width=".4" d="M55.325 10.074c-.995-3.057 1.479-4.472 3.552-4.676 2.865 0 6.317-.18 8.144-.367 4.025-.413 6.765 3.39 5.923 6.923-.494 2.068-1.07 3.72-1.11 6.143-.042 1.602-1.796 4.491-4.582 5.181-3.482.863-6.57.963-8.375-.899-1.432-1.476-.703-3.697 0-4.806l1.388.908c1.938-2.106 6.23.977 6.987 0 .916-1.18 1.693-4.974 1.32-6.083-.374-1.11-1.493-2.096-3.98-1.479s-8.022 2.976-9.267-.845z"/><path stroke="#03224C" stroke-width=".473" d="M61.17 25.654c.264.412.938 1.43 1.514 2.21 1.005-.39 3.752-1.724 5.011-2.556"/><path fill="#03224C" stroke="#03224C" stroke-linejoin="round" stroke-width=".4" d="M50.202 82.197c-.443-4.696 2.189-17.715 3.545-23.462 6.864 3.923 14.784 2.223 18.234-.386 1.714 10.42-.715 35.16-2.143 46.228-2.287 1.532-4.573.638-5.43 0-.457-11.154-1.334-28.859-1.715-36.317-1.238 4.294-3.715 13.421-3.715 15.573v20.744c-2.743 1.192-4.65.497-5.26 0-.988-5.503-3.073-17.683-3.516-22.38z"/><path fill="#03224C" d="M45.585 110.356c2.402-2.976 7.137-4.811 7.74-5.357 2.407.714 5.103.297 6.15 0 2.396 1.934.907 3.869-2.397 5.357-3.303 1.488-14.495 3.72-11.493 0zM61.748 108.632c.605-1.118 2.132-2.888 2.82-3.632 2.256.521 4.192.217 4.879 0 .94.869 1.93 1.679 1.93 3.291 0 1.661-2.42 5.56-7.283 5-2.825-.325-3.104-3.261-2.346-4.659z"/></svg>