<svg xmlns="http://www.w3.org/2000/svg" fill="none" viewBox="0 0 75 121"><ellipse cx="27.663" cy="109.942" fill="#141414" opacity=".1" rx="27.663" ry="10.718"/><path fill="#fff" d="M36.5 8.538c.09 2.106.677 7.42-.842 9.803-1.52 2.383-3.692 2.845-4.72 2.665-.3 1.323-.723 4.205 0 5.144.906 1.173 3.962.071 6.613 2.356 2.779 2.395 2.41 5.71 4.067 9.59 1.14 2.668 4.652 3.879 7.868 3.06 3.2-.815 5.501-2.792 7.102-5.259h9.79c-.932 1.207-4.765 2.878-8.402 2.654-.51 1.02-1.545 2.052-2.21 3.44v.666c.043.278.088.56 0 .722-.513.942-1.094 1.785-1.77 2.343-.435.36-1.094-.319-1.558 0-2.73 1.88-6.106 2.237-8.996 2.022-2.236-.167-6.544-1.474-8.542-4.365.742 2.9 2.651 13.04 2.651 16.615H23.463l-1.55-5.506-2.757 5.506-6.345-1.953c.425-5.872 1.988-18.273 4.83-25.432 3.554-8.95 5.315-5.329 6.394-15.756L36.5 8.538z"/><path stroke="#03224C" stroke-linejoin="round" stroke-width=".656" d="M55.766 43.379c-.513.942-1.094 1.785-1.77 2.343-.435.36-1.094-.319-1.558 0-2.73 1.88-6.106 2.237-8.996 2.022-2.236-.167-6.544-1.474-8.542-4.365.742 2.9 2.651 13.04 2.651 16.615H23.463l-1.55-5.506-2.757 5.506-6.345-1.953c.425-5.872 1.988-18.273 4.83-25.432 3.554-8.95 5.315-5.329 6.394-15.756L36.5 8.538c.09 2.106.677 7.42-.842 9.803-1.52 2.383-3.692 2.845-4.72 2.665-.3 1.323-.723 4.205 0 5.144.906 1.173 3.962.071 6.613 2.356 2.779 2.395 2.41 5.71 4.067 9.59 1.14 2.668 4.652 3.879 7.868 3.06 3.2-.815 5.501-2.792 7.102-5.259h9.79c-.932 1.207-4.765 2.878-8.402 2.654-.51 1.02-1.545 2.052-2.21 3.44m0 1.388c.17-.31-.155-1.063 0-1.388m0 1.388V41.99"/><path stroke="#03224C" stroke-width=".656" d="M22.096 24.143c.727.624 3.38 1.792 8.18 1.47m-9.162.445c1.518 1.248 6.558 2.522 11.318.847"/><path fill="#03224C" stroke="#03224C" stroke-width="1.64" d="M36.375 8.73c3.483-4.116-1.147-6.709-3.897-7.49-1.24-.181-4.481-.434-7.527 0-3.807.542-2.896 3.248-4.808 6.136-1.911 2.888.1 6.137 1.912 7.852 1.45 1.371 2.054 3.399 2.174 4.241 1.69-.481 5.235-2.13 5.888-4.873.816-3.43 1.903-.722 6.258-5.867z"/><path fill="#03224C" d="M40.977 99.539c-9.131-23.29-5.438-25.864-15.912-28.984.267 4.748-1.498 10.516-3.51 12.81-2.01 2.293-9.995 14.112-12.786 18.62-3.239.144-4.673-.803-4.734-1.31 2.189-7.406 7.943-23.763 8.159-25.34.216-1.576-.254-11.704 1.176-17.044l6.13 1.474 2.451-5.646 1.43 5.646h13.281c9.938 12.746 9.315 28.992 8.615 38.725-.648 1.505-3.46 1.109-4.3 1.049z"/><path stroke="#03224C" stroke-linejoin="round" stroke-width=".656" d="M48.93 41.31l4.582 4.342.411.111 1.83-2.69-3.592-3.043-3.23 1.28z"/><path fill="#03224C" d="M1.695 106.16c.003-1.352 2.357-4.437 2.733-5.048l4.068.784c-.726 2.77 2.642 5.506 5.545 6.349 2.323.674 1.6 2.093 1.847 2.731h-9.2c-2.26-1.272-4.996-3.463-4.993-4.816zM40.805 102.147c-1.253-1.05-.522-3.06 0-3.935 2.857-3.581 10.264-8.889 11.866-7.134 2.628 2.876-2.388 6.805-3.788 8.035-1.4 1.23-6.512 4.347-8.078 3.034z"/><path stroke="#03224C" stroke-width=".656" d="M31.887 13.226c-.133.708.161 2.991.84 3.384.62.357.94-.255 1.027-.404"/><ellipse cx="53.348" cy="43.33" fill="#03224C" rx=".479" ry=".477"/><path stroke="#03224C" stroke-linecap="round" stroke-width=".656" d="M46.489 35.45H74.35"/><path fill="#FE3945" d="M51.61 24.931c-.752-.167-1.683.154-2.054.335h-.103l.837 2.563 2.847.854 2.135-.854 1.172-1.647-.481-.916c-1.235.751-3.412-.125-4.353-.335z"/><path stroke="#03224C" stroke-linecap="round" stroke-width=".656" d="M50.167 34.561h3m3 0h-3m0 0v-5.687m0 0c-4.39 0-3.817-4.348-2.889-6.162m2.89 6.162c3.477 0 4.216-3.11 2.397-6.288"/><path fill="#FE3945" stroke="#03224C" stroke-width=".656" d="M55.873 22.712c0 .295-.23.64-.779.93-.533.282-1.292.466-2.148.466-.856 0-1.615-.184-2.148-.467-.548-.29-.78-.634-.78-.93 0-.294.232-.64.78-.93.533-.282 1.292-.466 2.148-.466.856 0 1.615.184 2.148.467.548.29.78.634.78.93z"/><path stroke="#03224C" stroke-linecap="round" stroke-width=".656" d="M62.221 34.563h3m3.001 0h-3m0 0v-5.687m0 0c-4.39 0-3.817-4.348-2.89-6.162m2.89 6.162c3.477 0 4.217-3.11 2.398-6.288"/><path fill="#FE3945" stroke="#03224C" stroke-width=".656" d="M67.925 22.712c0 .296-.232.64-.78.93-.532.283-1.291.467-2.148.467-.856 0-1.615-.184-2.148-.467-.548-.29-.78-.634-.78-.93 0-.295.232-.64.78-.93.533-.282 1.292-.466 2.148-.466.857 0 1.616.184 2.149.467.547.29.779.634.779.93z"/></svg>