<svg width="21" height="21" viewBox="0 0 21 21" fill="none" xmlns="http://www.w3.org/2000/svg">
<g clip-path="url(#clip0)">
<path d="M20.5118 5.91464C20.4647 4.84572 20.2919 4.11084 20.0442 3.47405C19.7888 2.79813 19.3958 2.19297 18.8809 1.6899C18.3778 1.179 17.7687 0.782008 17.1006 0.530549C16.4601 0.282929 15.7291 0.110071 14.6601 0.0629413C13.5832 0.0118207 13.2414 0 10.51 0C7.77866 0 7.43678 0.0118207 6.36386 0.0589499C5.29493 0.106079 4.56005 0.279091 3.92343 0.526558C3.24734 0.782008 2.64219 1.17501 2.13912 1.6899C1.62822 2.19297 1.23138 2.80212 0.979768 3.47022C0.732148 4.11084 0.559289 4.84172 0.51216 5.91065C0.461039 6.98756 0.449219 7.32944 0.449219 10.0608C0.449219 12.7921 0.461039 13.134 0.508169 14.2069C0.555298 15.2759 0.72831 16.0107 0.97593 16.6475C1.23138 17.3235 1.62822 17.9286 2.13912 18.4317C2.64219 18.9426 3.25134 19.3396 3.91943 19.591C4.56005 19.8386 5.29094 20.0115 6.36002 20.0586C7.43279 20.1059 7.77482 20.1176 10.5062 20.1176C13.2375 20.1176 13.5794 20.1059 14.6523 20.0586C15.7212 20.0115 16.4561 19.8386 17.0927 19.591C18.4448 19.0683 19.5137 17.9994 20.0364 16.6475C20.2839 16.0069 20.4569 15.2759 20.504 14.2069C20.5511 13.134 20.563 12.7921 20.563 10.0608C20.563 7.32944 20.559 6.98756 20.5118 5.91464ZM18.7002 14.1283C18.6569 15.1108 18.4919 15.6414 18.3543 15.9951C18.0163 16.8715 17.3207 17.5671 16.4443 17.9051C16.0906 18.0427 15.5562 18.2077 14.5775 18.2508C13.5165 18.2981 13.1982 18.3098 10.514 18.3098C7.82978 18.3098 7.50755 18.2981 6.45029 18.2508C5.46779 18.2077 4.93724 18.0427 4.58354 17.9051C4.14741 17.7439 3.75041 17.4885 3.42819 17.1544C3.09414 16.8282 2.83869 16.4352 2.6775 15.9991C2.53995 15.6454 2.37492 15.1108 2.33178 14.1323C2.2845 13.0712 2.27283 12.7528 2.27283 10.0686C2.27283 7.3844 2.2845 7.06217 2.33178 6.00506C2.37492 5.02257 2.53995 4.49202 2.6775 4.13832C2.83869 3.70203 3.09414 3.30519 3.43218 2.98281C3.75824 2.64876 4.15124 2.39331 4.58753 2.23227C4.94123 2.09472 5.47577 1.92969 6.45428 1.8864C7.51538 1.83927 7.83377 1.82745 10.5178 1.82745C13.206 1.82745 13.5243 1.83927 14.5815 1.8864C15.564 1.92969 16.0946 2.09472 16.4483 2.23227C16.8844 2.39331 17.2814 2.64876 17.6036 2.98281C17.9377 3.30903 18.1931 3.70203 18.3543 4.13832C18.4919 4.49202 18.6569 5.0264 18.7002 6.00506C18.7473 7.06616 18.7592 7.3844 18.7592 10.0686C18.7592 12.7528 18.7473 13.0672 18.7002 14.1283Z" fill="#141414"/>
<path d="M10.5117 4.89258C7.65861 4.89258 5.34375 7.20728 5.34375 10.0605C5.34375 12.9138 7.65861 15.2285 10.5117 15.2285C13.3649 15.2285 15.6796 12.9138 15.6796 10.0605C15.6796 7.20728 13.3649 4.89258 10.5117 4.89258ZM10.5117 13.4128C8.66076 13.4128 7.15938 11.9116 7.15938 10.0605C7.15938 8.20943 8.66076 6.70821 10.5117 6.70821C12.3628 6.70821 13.864 8.20943 13.864 10.0605C13.864 11.9116 12.3628 13.4128 10.5117 13.4128Z" fill="#141414"/>
<path d="M17.0889 4.6889C17.0889 5.35516 16.5487 5.89538 15.8823 5.89538C15.216 5.89538 14.6758 5.35516 14.6758 4.6889C14.6758 4.02249 15.216 3.48242 15.8823 3.48242C16.5487 3.48242 17.0889 4.02249 17.0889 4.6889Z" fill="#141414"/>
</g>
<defs>
<clipPath id="clip0">
<rect width="20.1176" height="20.1176" fill="white" transform="translate(0.414062)"/>
</clipPath>
</defs>
</svg>
