<svg width="21" height="21" viewBox="0 0 21 21" fill="none" xmlns="http://www.w3.org/2000/svg">
<g clip-path="url(#clip0)">
<path d="M19.0073 20.1176C19.6204 20.1176 20.1175 19.6205 20.1175 19.0073V1.1103C20.1175 0.496958 19.6203 0 19.0073 0H1.1103C0.496958 0 0 0.497034 0 1.1103V19.0073C0 19.6205 0.496958 20.1176 1.1103 20.1176H19.0073V20.1176Z" fill="#141414"/>
<path d="M13.8821 20.1173V12.3267H16.4971L16.8886 9.2905H13.882V7.35204C13.882 6.473 14.1261 5.87398 15.3867 5.87398L16.9944 5.87323V3.15771C16.7164 3.12077 15.7619 3.03809 14.6517 3.03809C12.3337 3.03809 10.7467 4.45298 10.7467 7.05144V9.2905H8.125V12.3267H10.7467V20.1172H13.8821V20.1173Z" fill="#FAFAFA"/>
</g>
<defs>
<clipPath id="clip0">
<rect width="20.1176" height="20.1176" fill="white"/>
</clipPath>
</defs>
</svg>
