<svg width="21" height="20" viewBox="0 0 21 20" fill="none" xmlns="http://www.w3.org/2000/svg">
<path d="M4.68397 19.2292V6.25452H0.371385V19.2292H4.68442H4.68397ZM2.52858 4.48336C4.03215 4.48336 4.96822 3.48706 4.96822 2.24196C4.94008 0.968495 4.03215 0 2.55717 0C1.08118 0 0.117188 0.968495 0.117188 2.24185C0.117188 3.48694 1.05292 4.48325 2.50032 4.48325H2.52824L2.52858 4.48336ZM7.07104 19.2292H11.3833V11.9843C11.3833 11.5971 11.4114 11.2088 11.5254 10.9322C11.837 10.1571 12.5465 9.35477 13.7382 9.35477C15.2982 9.35477 15.9227 10.5445 15.9227 12.2888V19.2292H20.2348V11.7899C20.2348 7.80482 18.1076 5.95034 15.2703 5.95034C12.9442 5.95034 11.9225 7.25049 11.3549 8.13601H11.3836V6.25497H7.07126C7.12755 7.47215 7.07093 19.2296 7.07093 19.2296L7.07104 19.2292Z" fill="#141414"/>
</svg>
