<svg width="18" height="18" viewBox="0 0 18 18" fill="none" xmlns="http://www.w3.org/2000/svg">
<path d="M17.4688 8.98271C17.4688 13.4082 13.877 17 9.45155 17C9.44461 17 9.4446 17 9.4446 17L9.43766 16.9931C4.99133 16.9166 1.43427 13.2693 1.469 8.82292V8.81598C1.469 4.56417 4.86628 1.09743 9.11113 1.00711C9.22229 1.00016 9.34039 1.00016 9.4585 1.00016H9.45155C13.8354 0.972373 17.4133 4.50859 17.4341 8.89934C17.4341 8.91324 17.4341 8.93408 17.4341 8.95492L17.4688 8.98271Z" stroke="white" stroke-linecap="round" stroke-linejoin="round"/>
<path d="M9.13414 1.03516C4.9657 5.55096 4.9657 11.4423 9.13414 17.0003" stroke="white" stroke-linecap="round" stroke-linejoin="round"/>
<path d="M9.82812 1.03516C13.9966 5.55096 13.9966 11.4403 9.82812 16.9982" stroke="white" stroke-linecap="round" stroke-linejoin="round"/>
<path d="M2.80078 4.49414H16.0911" stroke="white" stroke-linecap="round" stroke-linejoin="round"/>
<path d="M1.48828 8.66309H17.4673" stroke="white" stroke-linecap="round" stroke-linejoin="round"/>
<path d="M2.52344 12.8311H16.4807" stroke="white" stroke-linecap="round" stroke-linejoin="round"/>
</svg>
