<?xml version="1.0" standalone="no"?>
<!DOCTYPE svg PUBLIC "-//W3C//DTD SVG 20010904//EN"
 "http://www.w3.org/TR/2001/REC-SVG-20010904/DTD/svg10.dtd">
<svg version="1.0" xmlns="http://www.w3.org/2000/svg"
 width="1200.000000pt" height="1200.000000pt" viewBox="0 0 1200.000000 1200.000000"
 preserveAspectRatio="xMidYMid meet">
<metadata>
Created by potrace 1.11, written by Peter Selinger 2001-2013
</metadata>
<g transform="translate(0.000000,1200.000000) scale(0.100000,-0.100000)"
fill="#000000" stroke="none">
<path d="M2990 7724 c-14 -2 -59 -9 -100 -15 -262 -39 -546 -180 -748 -373
-214 -205 -356 -466 -424 -780 -30 -139 -33 -476 -4 -605 62 -285 186 -513
390 -716 173 -173 346 -279 575 -355 167 -55 285 -73 476 -72 257 1 485 51
684 151 44 23 83 41 86 41 13 0 4 -325 -11 -393 -47 -210 -195 -365 -395 -412
-83 -19 -282 -19 -374 0 -218 46 -360 186 -403 397 l-17 78 -482 0 -483 0 6
-57 c35 -346 149 -599 369 -818 418 -418 1192 -563 1846 -345 215 71 387 176
539 329 146 147 240 299 305 494 77 234 85 320 85 1010 l0 567 -488 0 c-488 0
-489 0 -508 -22 -42 -48 -169 -140 -237 -172 -111 -53 -193 -70 -337 -70 -143
0 -214 15 -324 71 -183 91 -313 250 -362 443 -20 78 -14 241 11 335 64 235
237 406 475 471 99 27 310 25 413 -4 128 -36 254 -110 342 -201 l39 -41 488 0
488 0 0 535 0 535 -490 0 -490 0 0 -91 c0 -50 -3 -89 -7 -87 -250 128 -414
167 -723 173 -102 2 -196 2 -210 -1z"/>
<path d="M6685 7705 c-563 -91 -992 -418 -1183 -900 -61 -153 -62 -140 9 -153
83 -15 144 -47 208 -106 165 -156 169 -403 10 -571 -60 -64 -137 -103 -227
-117 l-70 -11 19 -68 c67 -244 197 -465 375 -643 316 -317 785 -479 1267 -438
405 34 720 174 982 437 218 217 353 477 411 790 29 152 26 472 -5 615 -64 298
-193 541 -391 740 -209 208 -463 342 -778 411 -129 28 -490 36 -627 14z m475
-843 c108 -38 164 -74 246 -156 65 -64 90 -98 122 -166 61 -126 75 -199 69
-355 -7 -208 -64 -347 -194 -478 -103 -104 -211 -157 -361 -178 -131 -18 -250
1 -377 61 -147 71 -259 200 -319 369 -26 75 -30 103 -34 222 -5 161 14 257 75
379 69 137 211 254 368 303 77 24 91 26 225 22 93 -2 139 -8 180 -23z"/>
<path d="M9575 6004 c-11 -2 -45 -9 -75 -15 -174 -35 -351 -173 -436 -340 -61
-122 -82 -315 -49 -457 78 -329 410 -548 740 -489 107 19 215 66 297 127 203
153 301 429 238 674 -75 293 -310 484 -615 501 -44 2 -89 2 -100 -1z"/>
</g>
</svg>
