<svg xmlns="http://www.w3.org/2000/svg" fill="none" viewBox="0 0 1280 1031"><path fill="#fff" stroke="#03224C" d="M412.706 219.176c7.478-.911 36.045.38 49.393 1.14 3.851-.38 5.66-.284 7.752.542 2.887 1.14-1.799 2.121-7.22 3.413-29.484 9.119-56.739 11.539-64.743 10.939-7.729-.579-8.359-5.015-4.635-7.599 3.723-2.583 10.107-7.295 19.453-8.435z"/><path stroke="#03224C" stroke-linecap="round" stroke-width=".4" d="M391.251 230.286c.24.21.9.725 1.619 1.109m2.158.54c.62.299 2.674.893 5.935.869 3.261-.024 12.609-.949 16.875-1.409m21.821-3.267l10.73-1.619m2.608-.689l10.311-2.218"/><path fill="#03224C" d="M407.101 226.488c-8.795 1.4-11.148.209-11.225-.561 3.269-2.278 10.928-5.25 11.225-5.25 1.427 2.008.595 4.71 0 5.811zM408.455 226.488c.951-2.457.506-4.369.165-5.018l1.737-.298c.497-.084 1.019.009 1.384.356.933.89 1.553 2.192 1.896 3.196.176.514-.157 1.032-.693 1.123-1.346.228-3.409.505-4.489.641z"/><path fill="#fff" stroke="#03224C" d="M409.262 213.555c-1.858.786-.774 4.467 0 6.209 3.573-.894 12.105-.924 17.108-.894-1.564-.982-14.785-6.298-17.108-5.315z"/><path stroke="#03224C" stroke-width=".4" d="M410.298 219.318c-.499-1.176-1.549-3.76-1.754-4.69M409.431 217.111c1.267-.663 4.95-1.836 9.537-1.221"/><path fill="#fff" stroke="#03224C" d="M472.607 228.635c-2.295-.055-6.921-2.983-8.947-4.44-1.242-.846 3.216-1.445 5.601-1.639 2.071 2.049 5.641 6.133 3.346 6.079zM468.654 211.043c-1.486-.045-4.86 6.736-6.361 10.132-.399.882 3.849-.045 6.023-.62.732-3.152 1.824-9.467.338-9.512zM459.036 216.392c2.233.613 3.598 1.731 4.291 2.408l-.799 1.367h-2.08c-1.337-1.04-3.4-4.321-1.412-3.775z"/><circle cx="420.241" cy="223.219" r="1.913" fill="#fff" stroke="#03224C" stroke-width=".4"/><circle cx="420.241" cy="223.219" r="1.289" fill="#fff" stroke="#03224C" stroke-width=".4"/><circle cx="428.363" cy="222.89" r="1.781" fill="#fff" stroke="#03224C" stroke-width=".4"/><circle cx="428.363" cy="222.889" r="1.17" fill="#fff" stroke="#03224C" stroke-width=".4"/><circle cx="436.485" cy="222.922" r="1.715" fill="#fff" stroke="#03224C" stroke-width=".4"/><circle cx="436.484" cy="222.922" r="1.077" fill="#fff" stroke="#03224C" stroke-width=".4"/><circle cx="444.243" cy="222.922" r="1.55" fill="#fff" stroke="#03224C" stroke-width=".4"/><circle cx="444.243" cy="222.922" r=".968" fill="#fff" stroke="#03224C" stroke-width=".4"/><circle cx="451.605" cy="222.956" r="1.319" fill="#fff" stroke="#03224C" stroke-width=".4"/><circle cx="451.605" cy="222.955" r=".748" fill="#fff" stroke="#03224C" stroke-width=".4"/><path fill="#fff" stroke="#03224C" d="M436.356 227.304c1.618.156 2.501.63 2.74.848 5.545 2.935 17.874 18.787 11.09 19.113-6.784.327-36.727-11.677-32.291-15.46 4.436-3.784 16.439-4.697 18.461-4.501z"/><path stroke="#03224C" stroke-linecap="round" stroke-width=".4" d="M418.381 231.625c.909 1.087 3.56 3.694 6.888 5.424m2.928 1.564c1.908 1.076 7.54 3.853 14.807 6.356"/><path stroke="#03224C" stroke-linecap="round" stroke-width=".4" d="M422.756 235.417c.242-.375 1.018-1.256 2.181-1.785 1.163-.528 3.701-1.035 4.825-1.222m3.701-.694c2.446-.485 7.641-1.368 8.857-1.025m-8.857 10.443c.154-.297.906-1.044 2.677-1.652 2.214-.76 10.74-2.776 12.591-1.553"/></svg>