<svg xmlns="http://www.w3.org/2000/svg" fill="none" viewBox="0 0 1281 1032"><g clip-path="url(#clip0)"><path fill="url(#paint0_linear)" d="M595.14 722.913c-12.907 4.638-1.162 26.415-35.948 44.363L418.108 826.2c-5.923-1.877-29.702-17.541-39.006-15.768l-71.372 8.299-43.338 7.469-94.41 16.439-237.204-111.797V411.789l40.477-13.146h217.371c5.651-.206 47.613.138 91.836 0 1.629-.005 24.298-.002 46.066 0h40.696c-54.155 7.731 27.595 8.011 23.6 8.226H685.88L871.381 611.03 595.14 722.913z"/><path fill="#fff" d="M367.724 398.613H56.159l1.86-2.359h324.704l-10.784 7.512 27.044.5-.61 2.411c-15.182.032-45.966-.591-47.643-3.335-1.677-2.744 10.63-4.296 16.994-4.729z"/><path fill="#DFDFDF" d="M303.333 233.62l-27.852-37.327-39.318 13.712-135.41 147.441h317.641l-50.745-44.866-45.94-73.504-18.376-5.456z"/><path fill="#F1F1F1" d="M235.308 208.597L87.512 371.438l111.735-46.075 52.939-68.714 2.43-14.157-41.83 27.461-9.04 2.558 50.87-33.573 21.147-43.213-40.455 12.872z"/><path fill="#DFDFDF" d="M391.541 323.593l-21.304-20.627-44.541 53.222 49.46 1.738 49.353-13.199-12.849-18.598-20.119-2.536z"/><path fill="#F1F1F1" d="M370.32 303.138l-12.256 5.915-28.978 18.936-3.991 7.612-21.363 12.528 5.134 3.66 20.22 2.06 14.212-18.248 2.281 2.281 3.334-.877-3.334-4.212 18.074-20.178 11.229 12.458v-2.457l-10.352-12.107 5.79-7.371z"/><path fill="#DFDFDF" d="M495.339 306.536l-49.645 30.765-82.509 55.24h97.892l440.671-6.313-134.284-128.067-15.509 2.925-91.598-83.209-45.45 33.564-48.099 32.144-12.459 2.689-7.967 4.323-51.043 55.939z"/><path fill="#F1F1F1" d="M628.895 187.872l-82.841 62.703-5.446 13.599 6.271-4.29h4.373l-12.541 8.828-3.548 8.498 15.006-6.65 46.917-19.985 11.515-26.316-40.44 26.316 3.229-4.826 39.249-26.134 3.839-7.714 45.54-33.869-31.123 9.84zM721.161 282.193l30.981-20.855 15.326-3.563-3.539 10.912-26.145 19.169v-5.663l-21.789 15.347-10.174 2.839 15.34-10.173 3.825-4.732-12.54 7.807 8.715-11.088z"/><path fill="#FAFAFA" d="M194.113 317.158c-67.639-.846-111.323 52.491-124.71 79.266h496.879l-20.412-11.783c-30.589-19.324-83.212-60.613-163.634-35.777-71.867 22.194-103.573-30.649-188.123-31.706z"/><path stroke="#03224C" stroke-linecap="round" stroke-linejoin="round" stroke-width=".56" d="M493.219 369.097v-3.223m0-.457v.457m-6.429 1.441v-2.899m0-.422v.422m-7.284 2.899v-3.74m0-.545v.545m-7.176 2.454v-3.194m0-.447v.447m-6.855-.447v-2.817m0-.718v.718m-6.534-1.468v-2.926m0-.394v.394m-5.998-1.251v-2.629m0-.477v.477m-6.329.165v-2.916m0-.39v.39m-6.35 1.551v-2.701m0-.447v.447m0 0l6.35 1.15m-6.35-1.15l-6.335-1.002m12.685 2.152l6.329 2.751m0 0l5.998 3.88m0 0l6.534 4.394m0 0l6.855 3.264m0 0l7.176.74m0 0l7.284.841m0 0l6.429 1.458m0 0l6.249 3.223m0 0v-1.19 3.367-2.177zm0 0l5.379 3.552v.431-1.806"/><rect width="1.541" height="1.178" fill="#03224C" rx=".589" transform="matrix(-1 0 0 1 478.074 364.287)"/><circle r=".114" fill="#fff" transform="matrix(-1 0 0 1 477.686 364.733)"/><circle r=".114" fill="#fff" transform="matrix(-1 0 0 1 477.307 364.732)"/><ellipse fill="#fff" rx=".114" ry=".114" transform="matrix(-1 0 0 1 476.929 364.732)"/><rect width="1.541" height="1.178" fill="#03224C" rx=".589" transform="matrix(-1 0 0 1 489.83 365.515)"/><circle r=".114" fill="#fff" transform="matrix(-1 0 0 1 489.446 365.959)"/><circle r=".114" fill="#fff" transform="matrix(-1 0 0 1 489.068 365.958)"/><circle r=".114" fill="#fff" transform="matrix(-1 0 0 1 488.688 365.958)"/><rect width="1.541" height="1.178" fill="#03224C" rx=".589" transform="matrix(-1 0 0 1 475.113 363.744)"/><circle r=".114" fill="#fff" transform="matrix(-1 0 0 1 474.711 364.156)"/><circle r=".114" fill="#fff" transform="matrix(-1 0 0 1 474.333 364.155)"/><circle r=".114" fill="#fff" transform="matrix(-1 0 0 1 473.954 364.155)"/><rect width="1.541" height="1.178" fill="#03224C" rx=".589" transform="matrix(-1 0 0 1 464.057 359.061)"/><circle r=".114" fill="#fff" transform="matrix(-1 0 0 1 463.656 359.494)"/><circle r=".114" fill="#fff" transform="matrix(-1 0 0 1 463.278 359.491)"/><circle r=".114" fill="#fff" transform="matrix(-1 0 0 1 462.899 359.491)"/><rect width="1.541" height="1.178" fill="#03224C" rx=".589" transform="matrix(-1 0 0 1 457.863 354.801)"/><circle r=".114" fill="#fff" transform="matrix(-1 0 0 1 457.464 355.233)"/><circle r=".114" fill="#fff" transform="matrix(-1 0 0 1 457.085 355.232)"/><circle r=".114" fill="#fff" transform="matrix(-1 0 0 1 456.706 355.232)"/><rect width="1.541" height="1.178" fill="#03224C" rx=".589" transform="matrix(-1 0 0 1 451.816 351.087)"/><circle r=".114" fill="#fff" transform="matrix(-1 0 0 1 451.407 351.524)"/><circle r=".114" fill="#fff" transform="matrix(-1 0 0 1 451.028 351.523)"/><circle r=".114" fill="#fff" transform="matrix(-1 0 0 1 450.65 351.523)"/><rect width="1.541" height="1.178" fill="#03224C" rx=".589" transform="matrix(-1 0 0 1 445.892 348.724)"/><circle r=".114" fill="#fff" transform="matrix(-1 0 0 1 445.485 349.154)"/><circle r=".114" fill="#fff" transform="matrix(-1 0 0 1 445.108 349.152)"/><circle r=".114" fill="#fff" transform="matrix(-1 0 0 1 444.73 349.152)"/><rect width="1.541" height="1.178" fill="#03224C" rx=".589" transform="matrix(-1 0 0 1 498.638 369.045)"/><circle r=".114" fill="#fff" transform="matrix(-1 0 0 1 498.262 369.479)"/><circle r=".114" fill="#fff" transform="matrix(-1 0 0 1 497.883 369.477)"/><circle r=".114" fill="#fff" transform="matrix(-1 0 0 1 497.505 369.477)"/><path fill="#03224C" stroke="#03224C" stroke-linecap="round" stroke-linejoin="round" stroke-width=".56" d="M433.831 339.499l.203 7.622-9.247.247-3.726-.931-.136-5.103 7.953-2.523 4.953.688z"/><path fill="#03224C" d="M428.513 348.33l-7.831.209-1.715.045-5.886-1.791 17.953-.478 7.462 1.749-2.185.058-7.798.208z"/><path stroke="#03224C" stroke-linecap="round" stroke-linejoin="round" stroke-width=".56" d="M436.35 349.601l-.039-1.479m-7.743 2.258l-.055-2.05m-7.816.78l-.015-.571 17.814-.475m0 0l-19.529.52-5.886-1.791 17.953-.478 7.462 1.749z"/><path fill="#03224C" d="M424.342 342.923l11.544-3.73-6.477-1.016-10.65 3.425 5.583 1.321z"/><path fill="#fff" d="M433.223 345.861l-.033-1.255a.28.28 0 00-.287-.272l-1 .026a.28.28 0 00-.272.288l.033 1.254a.28.28 0 00.287.273l1-.027a.279.279 0 00.272-.287z"/><path stroke="#03224C" stroke-width=".14" d="M432.411 344.328l.05 1.88"/><path fill="#fff" d="M428.064 345.999l-.034-1.255a.28.28 0 00-.287-.272l-1 .026a.281.281 0 00-.272.288l.033 1.255a.281.281 0 00.288.272l.999-.027a.28.28 0 00.273-.287z"/><path stroke="#03224C" stroke-width=".14" d="M427.251 344.416l.05 1.88"/><path fill="#fff" d="M424.069 345.727l-.032-1.225a.28.28 0 00-.2-.26l-.713-.215a.28.28 0 00-.36.276l.032 1.225a.28.28 0 00.2.26l.713.215a.28.28 0 00.36-.276z"/><path stroke="#03224C" stroke-width=".14" d="M423.362 344.069l.05 1.881"/><path fill="#fff" d="M422.389 345.102l-.033-1.225a.279.279 0 00-.199-.26l-.713-.215a.28.28 0 00-.361.276l.033 1.225a.277.277 0 00.199.26l.713.215a.28.28 0 00.361-.276z"/><path stroke="#03224C" stroke-width=".14" d="M421.681 343.465l.05 1.881"/><path fill="#fff" d="M433.176 342.997l-.033-1.255a.28.28 0 00-.288-.272l-.999.026a.281.281 0 00-.273.288l.034 1.255a.28.28 0 00.287.272l1-.027a.28.28 0 00.272-.287z"/><path stroke="#03224C" stroke-width=".14" d="M432.353 341.481l.05 1.881"/><path fill="#fff" d="M430.674 347.089l-.064-2.385a.28.28 0 00-.287-.273l-1 .027a.279.279 0 00-.272.287l.063 2.386 1.56-.042z"/><path stroke="#03224C" stroke-width=".4" d="M69.403 396.424c13.387-26.775 57.071-80.112 124.71-79.266 84.55 1.057 116.256 53.9 188.123 31.706 80.422-24.836 133.045 16.453 163.634 35.777l20.412 11.783"/><path fill="#03224C" d="M82.747 390.094l-3.341 3.652-.608-.917h.34l-.943-1.494h.403l-1.019-2.024-.954 2.024h.325l-.866 1.494h.32l-.39.917-.973-.917h.973l-1.447-3.093h.948l-1.802-3.505h.854l-1.815-3.574-1.833 3.574h.691l-2.041 3.505h.83l-1.554 3.093h.831l-.968 3.005 69.54.044-4.585-3.802-.76-1.909h.76l-1.448-2.226h.794l-1.527-2.153-1.655 2.153h.705l-.951 2.153-3.131-1.709-.676-1.814h.618l-1.481-2.491-1.578 2.491h.548l-.674 1.199-.89-3.001h.7l-1.491-2.685-1.472 2.685h.631l-.553 1.802-.951-2.491-1.006 2.491-.327-.988h.605l-1.368-2.41h.508l-.944-1.465-1.017 1.465h.484l-1.356 2.41h.557l-1.586 2.978h.666l-.472 1.533-.812-2.489h.436l-.908-1.744-.981 1.744h.375l-1.223 2.162h.642l-1.129 3.979-.966-1.826h.509l-1.102-1.7-1.029 1.7h.435l-.848 1.826-1.523-4.729h.669l-1.562-3.477h.686l-1.401-2.23-1.637 2.23h.686l-.951 2.23-4.49 2.324-.52-1.077h.52l-1.038-1.076h.515l-1.043-1.37-.974 1.37h.387l-.587 1.37-1.13-2.102h.644l-1.345-2.717h.701l-1.43-3.346-1.416 3.346h.615l-1.536 2.717h.792l-.853 2.885-.444-.741h.505l-.85-1.761h.456l-.751-1.157-.825 1.157h.418l-.972 1.847h.554l-1.05 2.253h.495l-.495 2.054-1.084-3.652h.738l-1.397-2.693h.66l-1.413-3.279-1.663 3.279h.706l-1.758 2.693h.814zM274.114 390.094l3.341 3.652.955-2.08h-.448l1.32-2.355 1.266 2.355h-.513l.812 2.08.877-2.785h-.877l1.817-3.163h-.769l1.474-2.394h-.555l1.539-2.458 1.581 2.458h-.812l1.518 2.394h-.834l1.475 3.163h-.898l1.77 4.872-69.54.045 4.585-3.803.655-1.785h-.54l1.246-2.202h-.457l1.413-2.327 1.371 2.327h-.54l.934 2.006 3.131-1.709.769-2.153h-.555l1.433-2.152 1.454 2.152h-.623l.765 1.538.586-1.939h-.386l.834-1.579h-.361l1.008-2.168.882 2.168h-.373l.958 1.579h-.448l.375.74.476-1.246h-.403l.878-1.245.913 1.245h-.41l.503 1.246.516-1.697h-.36l.883-1.667h-.349l.97-2.115.772 2.115h-.361l.808 1.667h-.335l1.281 2.388h-.585l1.01 2.832.383-1.216h-.383l.843-1.43h-.336l.835-1.66.795 1.66h-.386l.759 1.43h-.373l1.463 4.868.535-1.45h-.346l.74-1.087h-.284l.66-1.115.678 1.115h-.33l.74 1.087h-.41l.709 1.45 1.07-3.151h-.614l1.638-3.147h-.646l1.307-2.205h-.504l1.385-2.157 1.323 2.157h-.63l1.013 2.338 4.49 2.513.783-1.762h-.528l1.311-1.761 1.299 1.761h-.575l.45.979.964-3.336h-.653l1.119-1.771h-.466l.901-1.336h-.358l.841-1.776.868 1.776h-.404l.855 1.336h-.451l1.119 1.771h-.668l1.291 4.119.409-1.484h-.409l1.174-2.822 1.159 2.822h-.534l1.159 5.136.615-3.041h-.812l1.56-3.249h-.62l1.386-4.146 1.735 4.146h-.684l1.218 2.638zM331.328 356.85l-1.118-1.634-1.269 1.634h.452l-.817 1.634-.518-1.634h.657l-1.178-3.024h.521l-1.178-3.239-1.472 3.239h.544l-1.073 3.024h.529l-.529 2.321h42.443v-6.792l-.477-2.509h.477l-.994-1.331h.517l-.981-1.587-1.159 1.587h.428l-.974 1.331h.457l-.457 1.22-2.013-1.976-.72-3.614h.425l-.862-1.69h.37l-.582-1.254h.313l-.548-1.096-.649 1.096h.257l-.683 1.254h.358l-.771 1.69h.346l-.346 1.119-.637-.637h.262l-.517-.887-.58.887h.223l-.612.97h.28l-.873 1.486h.331l-.465 1.276-.249-.358h.249l-.647-.817-.572.817h.217l-.6.925h.249l-.765 1.149h.268l-.595 1.423-.611-1.27h.294l-.833-1.095-.794 1.095h.255l-.396.796-1.202-2.775h.269l-.709-1.313h.224l-.595-1.262-.56 1.262h.2l-.656 1.313h.276l-.77 2.314-.988-1.722h.515l-1.154-2.633h.46l-.829-1.714h.369l-.836-2.271-.934 2.271h.303l-.896 1.714h.403l-1.176 2.633h.663l-.717 2.183-.719-1.289-1.199 1.633h.411l-.788 1.634-.765-1.518h.425l-1.21-1.792h.527l-1.126-1.333-.958 1.333h.442l-.516 1.332-.71-2.867h.415l-.616-1.221h.257l-.464-1.672-.577 1.672h.212l-.593 1.221h.381l-.908 2.106h.482l-1.053 2.151h.571l-.492 2.221-.538-1.145h.538l-1.079-1.563h.384l-.939-2.192-1.189 2.192h.385l-1.042 1.563h.499l-.716 2.005z"/><path fill="#FAFAFA" d="M319.197 359.222c26.759-1.169 42.086-4.893 48.191-6.495l1.949 6.495h-50.14z"/><path fill="#03224C" d="M304.299 361.615c1.2.408 2.734.17 3.352 0l-.608-2.449h.433l-.789-2.644h.356l-.757-1.619h.401l-.708-1.203-.676 1.203h.328l-.769 1.619h.325l-.888 2.644h.424l-.424 2.449zM310.955 363.792c.721.245 1.644.102 2.016 0l-.33-1.399h.33l-.633-1.201h.252l-.454-.944h.261l-.497-.867-.505.867h.227l-.393.944h.214l-.488 1.201h.274l-.274 1.399zM314.339 361.402c1.139.283 2.596.118 3.183 0l-.476-1.55.476-.057-1.019-1.785h.443l-1.072-1.743-1.014 1.743h.329l-.85 1.785.407.057-.407 1.55zM384.568 364.894l-2.338-1.238-.337-1.417h.337l-.535-1.37h.283l-.591-1.354h.223l-.418-1.055h.195l-.486-1.358-.455 1.358h.177l-.433 1.055h.256l-.633 1.354h.311l-.414 1.779-.552-1.65h.322l-.779-1.329-.752 1.329h.271l-.481 1.329-.922-4.211h.333l-.733-1.731.344.055-.954-2.608-.955 2.553h.289l-.799 1.576h.333l-.511 1.708-.298-1.032h.298l-.596-1.031-.591 1.031h.247l-.343 1.032-.396-2.36h.396l-.522-1.219h.336l-.693-1.281-.778 1.281h.295l-.728 1.219h.433l-.433 1.635-.386-2.854h.567l-.882-2.334h.462l-.714-2.308h.42l-.819-3.318-.966 3.318h.336l-.862 2.308h.399l-.822 2.334h.57l-.57 2.854v7.691l25.798 4.217-2.136-4.583h.225l-.575-1.198h.192l-.395-.628h.135l-.382-.817-.451.817h.15l-.471.628h.197l-.385.739-.204-.229h.204l-.537-.779-.523.779h.189l-.458.688-.431-.937h.249l-.589-1.02h.255l-.49-.745h.183l-.366-.445h.183l-.379-.536-.386.536h.176l-.376.445h.2l-.2.41-.086-.558-.087-.557h.173l-.356-.814h.15l-.287-.644h.085l-.325-.91-.265.91h.092l-.304.644h.148l-.361.814h.177l-.41 1.019h.233l-.135 1.013z"/><path fill="#FAFAFA" d="M397.305 372.681c-10.124-6.776-24.406-12.045-30.281-13.832l-1.605 9.348 31.886 4.484z"/><path fill="#03224C" d="M189.397 333.853l-1.32 2.031-.685-1.797h.685l-1.394-4.642-2.142 4.642h.738l-1.756 3.895h.713l-1 3.695-.533-1.056h.533l-1.223-3.837-1.483 3.837h.537l-.945 3.836-.564-1.993h.781l-1.359-3.669h.782l-1.189-2.911h.747l-1.427-2.66-1.529 2.66h.782l-1.291 2.911h.713l-1.521 3.669h.808l-.808 4.016h38.962l-1.709-4.433.944-.089-1.841-3.04h.545l-1.422-2.759h.383l-.946-1.433-.869 1.433h.321l-.549 1.432-1.135-4.283h.539l-1.108-2.128h.432l-1.167-3.221-1.119 3.221h.383l-1.03 2.128h.53l-.654 2.576-.495-1.754h.423l-.781-1.477-.958 1.477h.393l-.943 1.65h.55l-.688 2.36-.976-2.256-1.524 2.507h.564l-.564 1.761-1.239-5.274h.809l-1.643-4.237-1.731 4.237h.624l-1.758 4.421h.764l-.764 3.475-1.128-2.995h.818l-1.68-2.995-1.363 2.515-.8-2.182h.61l-1.66-3.264zM145.448 351.754h6.812l-1.302-3.62h.889l-1.8-3.666h.78l-1.782-4.304-2.056 4.304h.715l-1.769 3.666h.967l-1.454 3.62zM160.193 347.917h6.623l-1.42-2.672h.879l-1.499-3.369h.62l-1.154-2.802h.534l-1.176-2.747-1.296 2.747h.472l-1.291 2.802h.599l-1.764 3.369h.819l-.946 2.672zM166.7 349.134h5.523l-2.069-5.48h.403l-1.182-2.351-1.115 2.351h.351l-1.911 5.48z"/><path fill="#FAFAFA" d="M142.755 352.682c12.286-5.695 45.921-14.36 82.166-3.456l-82.166 3.456z"/><path fill="#03224C" d="M204.82 349.022l-2.002-1.854-.59-1.91h.372l-.772-1.309h.4l-.814-1.379-.854 1.379h.344l-.716 1.309h.372l-.559 1.91-.42-1.441h.42l-.89-2.266-.894 2.266h.303l-.864 1.678h.368l-.47 1.617-.196-.67h.298l-.596-1.184h.298l-.586-.893-.574.893h.254l-.529 1.184h.275l-.275 1.189-.587-2.136h.677l-1.109-2.689h.564l-1.272-4.126-1.68 4.126h.47l-1.128 2.689h.658l-.762 3.827h16.18l-1.35-3.176h.289l-.606-.888h.317l-.726-1.038-.653 1.038h.276l-.538.888h.262l-.385.966z"/><path fill="#FAFAFA" d="M215.497 351.617c-15.007-2.195-21.354-1.928-25.432-1.928l-.445 3.337 25.877-1.409z"/><path stroke="#03224C" stroke-linecap="round" d="M554.292 396.124H203.15m-144.936 0h80.259"/><path fill="#FAFAFA" d="M435.296 379.882c-23.947-1.105-52.345 15.504-63.551 23.947h460.514c-51.117-51.117-107.76-79.668-149.207-84.734-41.446-5.066-104.997 5.526-151.509 37.302-46.511 31.775-66.314 24.867-96.247 23.485z"/><path fill="#03224C" d="M435.296 379.882l.023-.499-.023.499zm247.756-60.787l.061-.496-.061.496zm149.207 84.734v.5h1.207l-.854-.853-.353.353zm-469.869-.5a.5.5 0 000 1v-1zm9.656.9c5.574-4.2 15.442-10.443 26.899-15.496 11.463-5.056 24.466-8.899 36.328-8.351l.046-.999c-12.085-.558-25.254 3.352-36.778 8.435-11.531 5.086-21.465 11.369-27.097 15.612l.602.799zm63.227-23.847c14.898.688 27.432 2.768 42.001.686 14.603-2.086 31.253-8.342 54.551-24.258l-.564-.826c-23.213 15.859-39.72 22.036-54.129 24.095-14.444 2.063-26.777-.002-41.813-.696l-.046.999zm96.552-23.572c46.401-31.7 109.827-42.271 151.167-37.219l.121-.992c-41.552-5.079-105.228 5.533-151.852 37.385l.564.826zm151.167-37.219c41.303 5.048 97.849 33.527 148.913 84.592l.707-.707c-51.169-51.17-107.91-79.794-149.499-84.877l-.121.992zm149.267 83.738H371.745v1h460.514v-1zm-460.514 0h-9.355v1h9.355v-1z"/><path fill="#03224C" d="M619.065 334.664l1.32 2.031.685-1.796h-.685l1.394-4.643 2.142 4.643h-.738l1.756 3.894h-.713l1 3.695.533-1.056h-.533l1.223-3.837 1.483 3.837h-.538l.946 3.836.564-1.993h-.781l1.359-3.669h-.782l1.189-2.911h-.747l1.427-2.66 1.529 2.66h-.782l1.291 2.911h-.713l1.521 3.669h-.808l.808 4.016-40.193 4.001 2.94-8.434-.944-.089 1.841-3.04h-.545l1.422-2.759h-.383l.946-1.433.869 1.433h-.321l.549 1.433 1.135-4.284h-.539l1.108-2.128h-.432l1.167-3.221 1.119 3.221h-.383l1.03 2.128h-.53l.654 2.576.495-1.754h-.423l.781-1.477.958 1.477h-.393l.943 1.65h-.55l.688 2.36.976-2.256 1.524 2.507h-.564l.564 1.761 1.239-5.274h-.809l1.643-4.237 1.731 4.237h-.624l1.758 4.421h-.764l.764 3.475 1.128-2.995h-.818l1.68-2.995 1.363 2.515.8-2.182h-.611l1.661-3.264z"/><path fill="#FAFAFA" d="M665.035 347.1c-13.491-10.558-71.516-1.698-90.423 10.783l90.423-10.783z"/><path fill="#03224C" d="M446.57 380.828c4.396.496 13.418.519 17.379.469l-.764-2.024h.508l-1.31-2.234h.416l-1.077-1.903h.437l-.865-1.26-.913 1.26h.369l-.545 1.259-.494-1.591h.427l-.742-1.86h.315l-.8-2.268-.815 2.268h.294l-.823 1.86h.366l-.928 2.041h.451l-.451 2.137-.382-.948h.382l-.626-.995h.335l-.67-1.179-.732 1.179h.335l-.68.995h.345l-.853 1.138h.426l-.666 1.656-.837-1.473h.518l-1.593-1.911-1.617 1.911h.487l-.93 1.473-.746-2.34h.6l-1.016-1.575h.528l-.919-1.515h.61l-.807-1.338h.413l-.708-1.22-.827 1.22h.374l-.748 1.338h.551l-.748 1.515h.473l-.866 1.575h.59l-.431 2.34zM476.074 380.828l5.885-1.165-1.395-2.368h.501l-1.057-1.518-1.034 1.518h.37l-.37 1.26-.444-.406h.366l-.826-1.857h.352l-1.179-2.386-.976 2.467h.366l-.624 1.952h.488l-.423 2.503zM497.567 374.631l-3.326 1.22-.59-1.128h.443l-.739-1.412h.296l-.803-1.827-.978 1.827h.277l-.721 1.412h.444l-.444 1.672-.341-.544h.425l-.951-1.719-1.052 1.719.426.023-.554 1.998 11.258-3.996-.48-1.394h.48l-.845-1.525h.469l-.821-1.59h.352l-.756-1.525-.782 1.525h.313l-.73 1.59h.417l-.808 1.708h.469l-.348 1.966z"/><path fill="#03224C" d="M462.806 403.626h72.978l-7.492-21.737h.879l-1.275-2.172h.608l-1.536-2.726-1.617 2.726h.603l-1.11 2.172h.7l-1.045 3.305-1.538-7.091h.627l-1.448-3.914h.652l-1.642-4.876-1.593 4.876h.555l-1.496 3.914h.555l-1.067 3.329-.911-3.029h.381l-1.16-2.875-1.195 2.875h.346l-.847 3.029-.904-3.329h.904l-1.295-4.864h.999l-1.303-3.343h1.085l-1.743-4.451-2.208 4.451h.868l-1.52 3.343h.869l-1.867 4.864h.998l-1.654 7.091-.583-1.012h.708l-1.715-5.325-1.984 5.325h.69l-1.625 3.963h.779l-1.913 6.829-.78-2.482h1.02l-1.566-3.286h.765l-1.696-4.012-1.874 4.012h.619l-1.857 3.286h.91l-2.876 8.689-2.586-7.062h.767l-1.813-2.765-2.231 2.765h.674l-1.394 3.489-1.976-7.347h.465l-1.185-2.533h.535l-1.037-2.534-1.148 2.534h.418l-1.162 2.533h.442l-.807 2.645-.494-4.62h.999l-1.487-3.509h.79l-1.418-3.463h.628l-1.275-4.396-1.677 4.396h.604l-1.487 3.463h.883l-1.696 3.509h.953l-1.929 4.206h.976l-1.517 6.62-1.04-2.739h.744l-1.394-2.463h.65l-1.593-2.886-1.497 2.886h.557l-1.231 2.463h.674l-1.324 4.808-1.031-4.312h.914l-1.99-5.276h.663l-1.385-3.139h.84l-1.585-4.201-1.495 4.201h.56l-1.326 3.139h.633l-1.82 5.276h.804l-1.306 6.757z"/><path fill="#03224C" d="M463.164 404.285h72.978l-7.492 9.852h.879l-1.275.985h.608l-1.536 1.235-1.618-1.235h.604l-1.11-.985h.7l-1.045-1.498-1.538 3.214h.627l-1.448 1.774h.652l-1.642 2.211-1.593-2.211h.555l-1.496-1.774h.555l-1.067-1.509-.911 1.374h.381l-1.161 1.303-1.194-1.303h.346l-.847-1.374-.904 1.509h.904l-1.295 2.205h.999l-1.303 1.515h1.085l-1.743 2.018-2.208-2.018h.868l-1.52-1.515h.869l-1.867-2.205h.998l-1.654-3.214-.583.459h.708l-1.715 2.414-1.984-2.414h.69l-1.626-1.796h.78l-1.913-3.096-.78 1.125h1.02l-1.566 1.49h.765l-1.696 1.818-1.874-1.818h.619l-1.857-1.49h.91l-2.876-3.938-2.586 3.201h.767l-1.813 1.253-2.231-1.253h.674l-1.394-1.581-1.976 3.33h.465l-1.185 1.148h.534l-1.036 1.148-1.148-1.148h.418l-1.162-1.148h.442l-.807-1.199-.495 2.094h1l-1.488 1.59h.791l-1.418 1.57h.627l-1.274 1.993-1.677-1.993h.604l-1.487-1.57h.883l-1.696-1.59h.952l-1.928-1.907h.976l-1.517-3-1.04 1.241h.744l-1.394 1.117h.65l-1.593 1.308-1.497-1.308h.557l-1.231-1.117h.674l-1.325-2.179-1.03 1.955h.914l-1.99 2.391h.663l-1.385 1.423h.84l-1.585 1.904-1.495-1.904h.56l-1.326-1.423h.633l-1.82-2.391h.804l-1.306-3.063z" opacity=".3"/><path fill="#03224C" d="M398.472 403.643h33.796l-.755-4.246h1.034l-1.953-4.117h.919l-1.975-3.149h.841l-1.389-2.425h.665l-1.389-2.933-1.623 2.933h.626l-1.389 2.425h.763l-1.916 3.149h.938l-1.379 4.117-1.828-6.053h.704l-1.619-3.3-1.497 3.3h.593l-.593 1.813-1.302-2.868h1.426l-2.509-3.812h1.083l-1.674-2.559h.936l-1.951-3.731-1.839 3.731h.738l-1.772 2.559h1.034l-2.412 3.812h1.378l-1.991 7.108-1.061-3.193h1.061l-2.094-3.915-2.363 3.915h.985l-1.33 4.718-.836-3.635h1.427l-2.411-4.998h1.329l-2.018-3.812h1.23l-2.362-6.29-2.56 6.29h1.034l-1.821 3.812h1.083l-2.012 4.998h1.323l-1.323 6.356z"/><path fill="#03224C" d="M398.278 403.829h33.796l-.755 2.58h1.034l-1.953 2.503h.919l-1.975 1.913h.841l-1.389 1.474h.665l-1.388 1.783-1.624-1.783h.626l-1.388-1.474h.762l-1.916-1.913h.938l-1.378-2.503-1.829 3.679h.704l-1.619 2.006-1.497-2.006h.593l-.593-1.101-1.302 1.743h1.426l-2.509 2.317h1.083l-1.673 1.555h.935l-1.951 2.267-1.839-2.267h.738l-1.772-1.555h1.034l-2.412-2.317h1.378l-1.99-4.321-1.061 1.941h1.061l-2.095 2.38-2.362-2.38h.984l-1.33-2.867-.836 2.209h1.428l-2.412 3.038h1.329l-2.018 2.317h1.23l-2.362 3.823-2.56-3.823h1.034l-1.821-2.317h1.083l-2.012-3.038h1.323l-1.323-3.863z" opacity=".3"/><path fill="#03224C" d="M580.287 403.269h39.207l-.876-4.926h1.199l-2.266-4.776h1.067l-2.292-3.653h.976l-1.611-2.813h.771l-1.611-3.403-1.883 3.403h.726l-1.61 2.813h.884l-2.223 3.653h1.089l-1.6 4.776-2.121-7.022h.817l-1.879-3.829-1.736 3.829h.688l-.688 2.103-1.511-3.328h1.655l-2.911-4.422h1.256l-1.941-2.969h1.085l-2.263-4.328-2.134 4.328h.857l-2.056 2.969h1.199l-2.798 4.422h1.599l-2.309 8.247-1.231-3.704h1.231l-2.43-4.543-2.741 4.543h1.142l-1.543 5.473-.969-4.217h1.656l-2.798-5.799h1.541l-2.341-4.422h1.428l-2.741-7.297-2.969 7.297h1.199l-2.113 4.422h1.257l-2.334 5.799h1.534l-1.534 7.374z"/><path fill="#03224C" d="M580.287 403.269h39.207l-.876 2.909h1.199l-2.266 2.82h1.067l-2.292 2.158h.976l-1.611 1.661h.771l-1.611 2.01-1.883-2.01h.726l-1.61-1.661h.884l-2.223-2.158h1.089l-1.6-2.82-2.121 4.147h.817l-1.879 2.261-1.736-2.261h.688l-.688-1.242-1.511 1.965h1.655l-2.911 2.612h1.256l-1.941 1.753h1.085l-2.263 2.556-2.134-2.556h.857l-2.056-1.753h1.199l-2.798-2.612h1.599l-2.309-4.87-1.231 2.187h1.231l-2.43 2.683-2.741-2.683h1.142l-1.543-3.232-.969 2.491h1.656l-2.798 3.424h1.541l-2.341 2.612h1.428l-2.741 4.309-2.969-4.309h1.199l-2.113-2.612h1.257l-2.334-3.424h1.534l-1.534-4.355zM82.841 400.501l-3.341-2.465-.607.619h.34l-.944 1.008h.403l-1.019 1.366-.954-1.366h.325l-.866-1.008h.32l-.39-.619-.973.619h.973l-1.447 2.087h.948l-1.802 2.364h.854l-1.815 2.411-1.833-2.411h.691l-2.041-2.364h.83l-1.553-2.087h.83l-.968-2.026 69.54-.03-4.585 2.565-.759 1.287h.759l-1.447 1.502h.793l-1.526 1.452-1.656-1.452h.705l-.95-1.452-3.132 1.152-.675 1.224h.617l-1.481 1.68-1.578-1.68h.549l-.675-.809-.889 2.024h.699l-1.491 1.811-1.472-1.811h.631l-.553-1.215-.951 1.68-1.006-1.68-.327.667h.605l-1.368 1.625h.509l-.945.988-1.017-.988h.484l-1.356-1.625h.557l-1.586-2.01h.666l-.472-1.033-.812 1.678h.436l-.908 1.177-.981-1.177h.376l-1.223-1.458h.641l-1.129-2.685-.965 1.233h.508l-1.102 1.146-1.029-1.146h.435l-.848-1.233-1.523 3.191h.669l-1.562 2.345h.687l-1.402 1.505-1.637-1.505h.686l-.95-1.504-4.491-1.567-.52.726h.52l-1.038.726h.515l-1.043.924-.974-.924h.387l-.587-.924-1.13 1.417h.644l-1.345 1.833h.701l-1.43 2.258-1.416-2.258h.615l-1.536-1.833h.792l-.852-1.945-.445.499h.505l-.85 1.188h.456l-.751.781-.825-.781h.418l-.972-1.246h.554l-1.05-1.52h.496l-.495-1.386-1.085 2.465h.738l-1.396 1.816h.659l-1.413 2.212-1.663-2.212h.706l-1.757-1.816h.813zM274.019 401.598l3.342-3.237.955 1.843h-.449l1.32 2.087 1.266-2.087h-.513l.812-1.843.877 2.468h-.877l1.817 2.803h-.769l1.475 2.121h-.556l1.539 2.178 1.582-2.178h-.813l1.518-2.121h-.834l1.475-2.803h-.898l1.77-4.317-69.54-.04 4.585 3.369.655 1.583h-.54l1.246 1.951h-.457l1.413 2.061 1.371-2.061h-.54l.934-1.777 3.131 1.513.77 1.908h-.556l1.433 1.907 1.454-1.907h-.623l.765-1.363.586 1.718h-.385l.833 1.4h-.361l1.008 1.92.883-1.92h-.373l.957-1.4h-.448l.376-.655.475 1.103h-.403l.878 1.104.913-1.104h-.41l.504-1.103.516 1.504h-.361l.883 1.476h-.348l.969 1.875.772-1.875h-.361l.809-1.476h-.336l1.281-2.116h-.585l1.01-2.509.383 1.076h-.383l.844 1.268h-.336l.834 1.47.795-1.47h-.386l.759-1.268h-.373l1.464-4.313.534 1.285h-.346l.74.963h-.283l.659.989.679-.989h-.331l.74-.963h-.409l.708-1.285 1.071 2.792h-.614l1.637 2.789h-.646l1.307 1.954h-.504l1.386 1.911 1.322-1.911h-.63l1.013-2.072 4.491-2.226.782 1.56h-.528l1.311 1.561 1.299-1.561h-.575l.45-.867.964 2.956h-.653l1.119 1.569h-.466l.901 1.184h-.357l.841 1.574.867-1.574h-.403l.854-1.184h-.451l1.119-1.569h-.668l1.291-3.649.41 1.314h-.41l1.174 2.5 1.159-2.5h-.534l1.16-4.551.614 2.695h-.812l1.56 2.879h-.62l1.387 3.674 1.734-3.674h-.684l1.218-2.337z" opacity=".3"/></g><defs><linearGradient id="paint0_linear" x1="249.51" x2="-88.672" y1="512.087" y2="607.72" gradientUnits="userSpaceOnUse"><stop stop-color="#E2EFF2"/><stop offset="1" stop-color="#fff" stop-opacity="0"/></linearGradient><clipPath id="clip0"><path fill="#fff" d="M0 0h1280v1031H0z" transform="translate(.92 .028)"/></clipPath></defs></svg>