<svg xmlns="http://www.w3.org/2000/svg" fill="none" viewBox="0 0 432 285"><g filter="url(#filter0_d)"><rect width="215" height="195" x="24" y="23" fill="#fff" rx="30"/></g><g filter="url(#filter1_d)"><rect width="215" height="158" x="193" y="102" fill="#fff" rx="30"/></g><path fill="#5B5B5B" d="M80.728 171.104c1.032 0 1.632-.68 1.632-1.632v-3.4h-.576v3.376c0 .664-.344 1.152-1.056 1.152-.736 0-1.088-.416-1.088-1.128h-.568c0 1.072.648 1.632 1.656 1.632zm5.9-3.768v1.2h-.032c-.128-.92-.544-1.296-1.328-1.296-.92 0-1.744.68-1.744 1.928 0 1.24.704 1.936 1.728 1.936.744 0 1.208-.392 1.336-1.312h.04V171h.576v-3.664h-.576zm-1.216 3.264c-.776 0-1.312-.544-1.312-1.432 0-.888.544-1.424 1.312-1.424.72 0 1.232.52 1.232 1.432 0 .904-.512 1.424-1.232 1.424zm4.842-3.36c-.768 0-1.232.448-1.336 1.216l-.008.032h-.04v-1.152h-.576V171h.576v-2.096c0-.768.624-1.144 1.2-1.144.584 0 .88.376.88 1.08V171h.576v-2.224c0-1.016-.424-1.536-1.272-1.536zm4.737.096l-.848 2.208-.296.8-.312-.8-.896-2.208h-.6L93.503 171h.648l1.424-3.664h-.584zM126.816 171h.576v-2.136h1.992v-.512h-1.992v-1.736H130v-.544h-3.184V171zm5.354-.4c-.848 0-1.32-.552-1.32-1.408v-.024h3.104c0-1.216-.672-1.928-1.808-1.928-1.08 0-1.872.744-1.872 1.936 0 1.208.736 1.928 1.896 1.928 1.04 0 1.688-.592 1.768-1.464h-.576c-.096.648-.56.96-1.192.96zm-.024-2.864c.76 0 1.16.472 1.232 1.096h-2.504c.112-.68.608-1.096 1.272-1.096zm5.04-.4l-.848 2.208-.296.8-.312-.8-.896-2.208h-.6l1.464 3.664h.648l1.424-3.664h-.584zM170.792 166.072l-1.08 2.192c-.16.336-.32.664-.456.992-.136-.328-.296-.656-.448-.976l-1.096-2.208h-.896V171h.568v-3.512c0-.296-.008-.696-.04-1.032.08.288.2.608.312.824l1.288 2.48h.648l1.272-2.48c.12-.232.24-.544.336-.808-.04.32-.064.664-.064 1.088V171h.56v-4.928h-.904zm5.179 1.264v1.2h-.032c-.128-.92-.544-1.296-1.328-1.296-.92 0-1.744.68-1.744 1.928 0 1.24.704 1.936 1.728 1.936.744 0 1.208-.392 1.336-1.312h.04V171h.576v-3.664h-.576zm-1.216 3.264c-.776 0-1.312-.544-1.312-1.432 0-.888.544-1.424 1.312-1.424.72 0 1.232.52 1.232 1.432 0 .904-.512 1.424-1.232 1.424zm3.459-2.176v-1.088h-.576V171h.576v-2.016c0-.728.424-1.112 1.088-1.112h.184v-.632c-.712 0-1.208.416-1.272 1.184zm3.389-1.184c-.952 0-1.576.448-1.576 1.128 0 .648.424.92 1.624 1.08.832.104 1.088.232 1.088.528 0 .4-.416.672-1.016.672-.712 0-1.216-.328-1.224-.816h-.576c0 .784.68 1.272 1.792 1.272.944 0 1.6-.48 1.6-1.16 0-.632-.416-.896-1.6-1.048-.848-.104-1.12-.216-1.12-.544 0-.408.392-.664 1.008-.664.592 0 1.008.296 1.016.728h.568c0-.728-.616-1.176-1.584-1.176z"/><path fill="#71BFD6" d="M73 99h31v58H73zM159 125h31v32h-31z"/><path fill="#03224C" d="M118 55h31v102h-31z"/><path fill="#141414" d="M75.079 195l-1.956-3.108c.96-.312 1.5-1.056 1.5-2.064 0-1.332-.864-2.22-2.568-2.22H69.27V195h.864v-2.952h2.064L74.07 195h1.008zm-4.944-6.576h1.92c1.068 0 1.68.456 1.68 1.404s-.612 1.404-1.68 1.404h-1.92v-2.808zm8.432 5.976c-1.272 0-1.98-.828-1.98-2.112v-.036h4.656c0-1.824-1.008-2.892-2.712-2.892-1.62 0-2.808 1.116-2.808 2.904 0 1.812 1.104 2.892 2.844 2.892 1.56 0 2.532-.888 2.652-2.196h-.864c-.144.972-.84 1.44-1.788 1.44zm-.036-4.296c1.14 0 1.74.708 1.848 1.644h-3.756c.168-1.02.912-1.644 1.908-1.644zm7.561-.6l-1.272 3.312-.444 1.2-.468-1.2-1.344-3.312h-.9L83.86 195h.972l2.136-5.496h-.876zm4.124 4.896c-1.272 0-1.98-.828-1.98-2.112v-.036h4.655c0-1.824-1.008-2.892-2.712-2.892-1.62 0-2.808 1.116-2.808 2.904 0 1.812 1.105 2.892 2.845 2.892 1.56 0 2.532-.888 2.652-2.196h-.864c-.145.972-.84 1.44-1.788 1.44zm-.036-4.296c1.14 0 1.74.708 1.847 1.644h-3.755c.167-1.02.911-1.644 1.907-1.644zm6.888-.744c-1.151 0-1.847.672-2.004 1.824l-.011.048h-.06v-1.728h-.864V195h.864v-3.144c0-1.152.936-1.716 1.8-1.716.875 0 1.32.564 1.32 1.62V195h.864v-3.336c0-1.524-.636-2.304-1.909-2.304zm7.262.144v3.168c0 1.068-.912 1.692-1.764 1.692-.708 0-1.188-.408-1.188-1.56v-3.3h-.864v3.408c0 1.572.732 2.244 1.848 2.244 1.08 0 1.68-.684 1.908-1.824l.012-.06h.048V195h.864v-5.496h-.864zm4.77-.144c-1.428 0-2.364.672-2.364 1.692 0 .972.636 1.38 2.436 1.62 1.248.156 1.632.348 1.632.792 0 .6-.624 1.008-1.524 1.008-1.068 0-1.824-.492-1.836-1.224h-.864c0 1.176 1.02 1.908 2.688 1.908 1.416 0 2.4-.72 2.4-1.74 0-.948-.624-1.344-2.4-1.572-1.272-.156-1.68-.324-1.68-.816 0-.612.588-.996 1.512-.996.888 0 1.512.444 1.524 1.092h.852c0-1.092-.924-1.764-2.376-1.764zm10.541 0c-1.032 0-1.944.672-2.112 2.076h-.072v-1.932h-.864v7.86h.864v-4.284h.072c.156 1.452 1.152 2.076 2.148 2.076 1.32 0 2.448-.984 2.448-2.88s-1.056-2.916-2.484-2.916zm-.228.78c1.08 0 1.836.792 1.836 2.112 0 1.308-.744 2.124-1.788 2.124-.972 0-2.028-.732-2.028-2.124 0-1.38.984-2.112 1.98-2.112zm8.404-.636v1.8h-.048c-.192-1.38-.816-1.944-1.992-1.944-1.38 0-2.616 1.02-2.616 2.892 0 1.86 1.056 2.904 2.592 2.904 1.116 0 1.812-.588 2.004-1.968h.06V195h.864v-5.496h-.864zm-1.824 4.896c-1.164 0-1.968-.816-1.968-2.148 0-1.332.816-2.136 1.968-2.136 1.08 0 1.848.78 1.848 2.148 0 1.356-.768 2.136-1.848 2.136zm5.187-3.264v-1.632h-.864V195h.864v-3.024c0-1.092.636-1.668 1.632-1.668h.276v-.948c-1.068 0-1.812.624-1.908 1.776zm9.414-1.776c-1.032 0-1.944.672-2.112 2.076h-.072v-1.932h-.864v7.86h.864v-4.284h.072c.156 1.452 1.152 2.076 2.148 2.076 1.32 0 2.448-.984 2.448-2.88s-1.056-2.916-2.484-2.916zm-.228.78c1.08 0 1.836.792 1.836 2.112 0 1.308-.744 2.124-1.788 2.124-.972 0-2.028-.732-2.028-2.124 0-1.38.984-2.112 1.98-2.112zm4.048-3.036V195h.864v-7.896h-.864zm6.852 2.4v1.8h-.048c-.192-1.38-.816-1.944-1.992-1.944-1.38 0-2.616 1.02-2.616 2.892 0 1.86 1.056 2.904 2.592 2.904 1.116 0 1.812-.588 2.004-1.968h.06V195h.864v-5.496h-.864zm-1.824 4.896c-1.164 0-1.968-.816-1.968-2.148 0-1.332.816-2.136 1.968-2.136 1.08 0 1.848.78 1.848 2.148 0 1.356-.768 2.136-1.848 2.136zm7.359-4.152v-.744h-1.8v-1.896h-.864v1.896h-1.14v.744h1.14v3.108c0 1.32.588 1.8 1.644 1.8.396 0 .756-.108.96-.24v-.78a1.477 1.477 0 01-.756.192c-.66 0-.984-.3-.984-1.104v-2.976h1.8zm3.223 4.152c-1.272 0-1.98-.828-1.98-2.112v-.036h4.656c0-1.824-1.008-2.892-2.712-2.892-1.62 0-2.808 1.116-2.808 2.904 0 1.812 1.104 2.892 2.844 2.892 1.56 0 2.532-.888 2.652-2.196h-.864c-.144.972-.84 1.44-1.788 1.44zm-.036-4.296c1.14 0 1.74.708 1.848 1.644h-3.756c.168-1.02.912-1.644 1.908-1.644zm6.001-2.388c.288 0 .588.084.816.192v-.804a3.25 3.25 0 00-.984-.156c-.84 0-1.512.444-1.512 1.788v.768h-1.08v.732h1.08V195h.864v-4.764h1.308v-.732h-1.308v-.708c0-.78.276-1.08.816-1.08zm4.301 1.644c-1.608 0-2.856 1.116-2.856 2.892 0 1.788 1.248 2.904 2.856 2.904 1.632 0 2.88-1.116 2.88-2.904 0-1.776-1.26-2.892-2.88-2.892zm0 .816c1.164 0 2.004.804 2.004 2.076 0 1.284-.84 2.076-2.004 2.076-1.164 0-1.992-.792-1.992-2.076 0-1.272.828-2.076 1.992-2.076zm5.081.96v-1.632h-.864V195h.864v-3.024c0-1.092.636-1.668 1.632-1.668h.276v-.948c-1.068 0-1.812.624-1.908 1.776zm9.548-1.776c-1.104 0-1.728.684-1.956 1.824l-.012.048h-.072c-.108-1.236-.72-1.872-1.764-1.872-1.14 0-1.764.684-1.992 1.824l-.012.048h-.06v-1.728h-.864V195h.864v-3.144c0-1.152.936-1.716 1.752-1.716.792 0 1.236.54 1.236 1.62V195h.864v-3.144c0-1.152.852-1.716 1.692-1.716s1.272.54 1.272 1.62V195h.864v-3.336c0-1.524-.624-2.304-1.812-2.304zm5.937 5.04c-1.272 0-1.98-.828-1.98-2.112v-.036h4.656c0-1.824-1.008-2.892-2.712-2.892-1.62 0-2.808 1.116-2.808 2.904 0 1.812 1.104 2.892 2.844 2.892 1.56 0 2.532-.888 2.652-2.196h-.864c-.144.972-.84 1.44-1.788 1.44zm-.036-4.296c1.14 0 1.74.708 1.848 1.644h-3.756c.168-1.02.912-1.644 1.908-1.644zM248.588 232.608v4.764c0 .42 0 .9.036 1.356a15.403 15.403 0 00-.804-1.32l-3.504-4.8h-1.092V240h.852v-5.148c0-.408-.024-.9-.072-1.368.24.468.54.984.852 1.392l3.708 5.124h.864v-7.392h-.84zm5.444 1.752c-1.608 0-2.856 1.116-2.856 2.892 0 1.788 1.248 2.904 2.856 2.904 1.632 0 2.88-1.116 2.88-2.904 0-1.776-1.26-2.892-2.88-2.892zm0 .816c1.164 0 2.004.804 2.004 2.076 0 1.284-.84 2.076-2.004 2.076-1.164 0-1.992-.792-1.992-2.076 0-1.272.828-2.076 1.992-2.076zm10.95-.816c-1.104 0-1.728.684-1.956 1.824l-.012.048h-.072c-.108-1.236-.72-1.872-1.764-1.872-1.14 0-1.764.684-1.992 1.824l-.012.048h-.06v-1.728h-.864V240h.864v-3.144c0-1.152.936-1.716 1.752-1.716.792 0 1.236.54 1.236 1.62V240h.864v-3.144c0-1.152.852-1.716 1.692-1.716s1.272.54 1.272 1.62V240h.864v-3.336c0-1.524-.624-2.304-1.812-2.304zm6.441 0c-1.032 0-1.944.672-2.112 2.076h-.072v-4.332h-.864V240h.864v-1.92h.072c.156 1.452 1.152 2.076 2.148 2.076 1.32 0 2.448-.984 2.448-2.88s-1.056-2.916-2.484-2.916zm-.228.78c1.08 0 1.836.792 1.836 2.112 0 1.308-.744 2.124-1.788 2.124-.972 0-2.028-.732-2.028-2.124 0-1.38.984-2.112 1.98-2.112zm4.911.996v-1.632h-.864V240h.864v-3.024c0-1.092.636-1.668 1.632-1.668h.276v-.948c-1.068 0-1.812.624-1.908 1.776zm5.254 3.264c-1.272 0-1.98-.828-1.98-2.112v-.036h4.656c0-1.824-1.008-2.892-2.712-2.892-1.62 0-2.808 1.116-2.808 2.904 0 1.812 1.104 2.892 2.844 2.892 1.56 0 2.532-.888 2.652-2.196h-.864c-.144.972-.84 1.44-1.788 1.44zm-.036-4.296c1.14 0 1.74.708 1.848 1.644h-3.756c.168-1.02.912-1.644 1.908-1.644zm11.856-3v4.2h-.048c-.192-1.38-.816-1.944-1.992-1.944-1.38 0-2.616 1.02-2.616 2.892 0 1.86 1.056 2.904 2.592 2.904 1.116 0 1.812-.588 2.004-1.968h.06V240h.864v-7.896h-.864zm-1.824 7.296c-1.164 0-1.968-.816-1.968-2.148 0-1.332.816-2.136 1.968-2.136 1.08 0 1.848.78 1.848 2.148 0 1.356-.768 2.136-1.848 2.136zm6.867 0c-1.272 0-1.98-.828-1.98-2.112v-.036h4.656c0-1.824-1.008-2.892-2.712-2.892-1.62 0-2.808 1.116-2.808 2.904 0 1.812 1.104 2.892 2.844 2.892 1.56 0 2.532-.888 2.652-2.196h-.864c-.144.972-.84 1.44-1.788 1.44zm-.036-4.296c1.14 0 1.74.708 1.848 1.644h-3.756c.168-1.02.912-1.644 1.908-1.644zm11.112-.6l-1.272 3.312-.444 1.2-.468-1.2-1.344-3.312h-.9l2.196 5.496h.972l2.136-5.496h-.876zm4.136-.144c-1.609 0-2.856 1.116-2.856 2.892 0 1.788 1.247 2.904 2.856 2.904 1.632 0 2.88-1.116 2.88-2.904 0-1.776-1.26-2.892-2.88-2.892zm0 .816c1.164 0 2.004.804 2.004 2.076 0 1.284-.84 2.076-2.004 2.076-1.164 0-1.992-.792-1.992-2.076 0-1.272.828-2.076 1.992-2.076zm7.76-.672l-1.08 2.772a20.17 20.17 0 00-.672 2.088c-.18-.66-.42-1.464-.684-2.088l-1.128-2.772h-.912l2.28 5.676-.876 2.184h.876l3.06-7.86h-.864zm5.934 0v1.8h-.048c-.192-1.38-.816-1.944-1.992-1.944-1.38 0-2.616 1.02-2.616 2.892 0 1.86 1.056 2.904 2.592 2.904 1.116 0 1.812-.588 2.004-1.968h.06V240h.864v-5.496h-.864zm-1.824 4.896c-1.164 0-1.968-.816-1.968-2.148 0-1.332.816-2.136 1.968-2.136 1.08 0 1.848.78 1.848 2.148 0 1.356-.768 2.136-1.848 2.136zm7.792-.348h-1.776c-.804 0-1.152-.168-1.152-.492 0-.336.42-.612 1.236-.612h.66c1.548-.012 2.484-.636 2.484-1.764 0-.78-.456-1.356-1.272-1.644.108-.576.576-1.26 1.5-1.26l-.012-.816c-.996 0-1.644.864-1.704 2.016a3.87 3.87 0 00-1.032-.12c-1.536 0-2.52.696-2.52 1.824 0 .9.588 1.476 1.608 1.68v.024c-1.224 0-1.776.396-1.776.972 0 .504.384.852 1.212.888v.024c-.708.024-1.416.3-1.416 1.092 0 .984 1.008 1.644 2.904 1.644 2.052 0 3.144-.768 3.144-1.932 0-.996-.768-1.524-2.088-1.524zm-2.701-2.844c0-.708.649-1.14 1.633-1.14 1.02 0 1.632.432 1.632 1.14 0 .696-.612 1.176-1.632 1.176s-1.633-.48-1.633-1.176zm1.645 5.592c-1.392 0-2.136-.396-2.136-1.176 0-.516.348-.876 1.2-.876h1.872c.876 0 1.332.264 1.332.864 0 .84-.852 1.188-2.268 1.188zm6.694-2.4c-1.272 0-1.98-.828-1.98-2.112v-.036h4.656c0-1.824-1.008-2.892-2.712-2.892-1.62 0-2.808 1.116-2.808 2.904 0 1.812 1.104 2.892 2.844 2.892 1.56 0 2.532-.888 2.652-2.196h-.864c-.144.972-.84 1.44-1.788 1.44zm-.036-4.296c1.14 0 1.74.708 1.848 1.644h-3.756c.168-1.02.912-1.644 1.908-1.644zm7.717-.6v3.168c0 1.068-.912 1.692-1.764 1.692-.708 0-1.188-.408-1.188-1.56v-3.3h-.864v3.408c0 1.572.732 2.244 1.848 2.244 1.08 0 1.68-.684 1.908-1.824l.012-.06h.048V240h.864v-5.496h-.864zm3.366 1.632v-1.632h-.864V240h.864v-3.024c0-1.092.636-1.668 1.632-1.668h.276v-.948c-1.068 0-1.812.624-1.908 1.776zm5.083-1.776c-1.428 0-2.364.672-2.364 1.692 0 .972.636 1.38 2.436 1.62 1.248.156 1.632.348 1.632.792 0 .6-.624 1.008-1.524 1.008-1.068 0-1.824-.492-1.836-1.224h-.864c0 1.176 1.02 1.908 2.688 1.908 1.416 0 2.4-.72 2.4-1.74 0-.948-.624-1.344-2.4-1.572-1.272-.156-1.68-.324-1.68-.816 0-.612.588-.996 1.512-.996.888 0 1.512.444 1.524 1.092h.852c0-1.092-.924-1.764-2.376-1.764z"/><defs><filter id="filter0_d" width="263" height="243" x="0" y="0" color-interpolation-filters="sRGB" filterUnits="userSpaceOnUse"><feFlood flood-opacity="0" result="BackgroundImageFix"/><feColorMatrix in="SourceAlpha" values="0 0 0 0 0 0 0 0 0 0 0 0 0 0 0 0 0 0 127 0"/><feOffset dy="1"/><feGaussianBlur stdDeviation="12"/><feColorMatrix values="0 0 0 0 0 0 0 0 0 0 0 0 0 0 0 0 0 0 0.1 0"/><feBlend in2="BackgroundImageFix" result="effect1_dropShadow"/><feBlend in="SourceGraphic" in2="effect1_dropShadow" result="shape"/></filter><filter id="filter1_d" width="263" height="206" x="169" y="79" color-interpolation-filters="sRGB" filterUnits="userSpaceOnUse"><feFlood flood-opacity="0" result="BackgroundImageFix"/><feColorMatrix in="SourceAlpha" values="0 0 0 0 0 0 0 0 0 0 0 0 0 0 0 0 0 0 127 0"/><feOffset dy="1"/><feGaussianBlur stdDeviation="12"/><feColorMatrix values="0 0 0 0 0 0 0 0 0 0 0 0 0 0 0 0 0 0 0.1 0"/><feBlend in2="BackgroundImageFix" result="effect1_dropShadow"/><feBlend in="SourceGraphic" in2="effect1_dropShadow" result="shape"/></filter></defs></svg>