<svg width="81" height="23" viewBox="0 0 81 23" fill="none" xmlns="http://www.w3.org/2000/svg">
<g clip-path="url(#clip0)">
<path d="M17.4628 0H12.8439L8.71903 7.45166L4.61886 0H0L6.64424 11.9579V17.3696H10.8432V11.9579L17.4628 0Z" fill="white"/>
<path d="M23.8967 4.65815V5.5636C23.0075 4.98458 21.9454 4.63214 20.6116 4.63214C17.3759 4.63214 14.6589 7.35099 14.6589 11.0013C14.6589 14.6265 17.3759 17.3705 20.6116 17.3705C21.9454 17.3705 23.0075 17.018 23.8967 16.439V17.3696H27.898V4.65815H23.8967ZM21.4267 14.0223C19.7965 14.0223 18.5862 12.688 18.5862 11.0013C18.5862 9.31462 19.7965 7.95518 21.4267 7.95518C22.2912 7.95518 23.131 8.2321 23.8967 9.08805V12.8894C23.131 13.7705 22.2912 14.0223 21.4267 14.0223Z" fill="white"/>
<path d="M39.0767 4.65815V5.5636C38.1875 4.98458 37.1254 4.63214 35.7916 4.63214C32.556 4.63214 29.839 7.35099 29.839 11.0013C29.839 14.6265 32.556 17.3705 35.7916 17.3705C37.1254 17.3705 38.1875 17.018 39.0767 16.439V17.3696H43.0781V4.65815H39.0767ZM36.6067 14.0223C34.9765 14.0223 33.7663 12.688 33.7663 11.0013C33.7663 9.31462 34.9765 7.95518 36.6067 7.95518C37.4712 7.95518 38.311 8.2321 39.0767 9.08805V12.8894C38.311 13.7705 37.4712 14.0223 36.6067 14.0223Z" fill="white"/>
<path fill-rule="evenodd" clip-rule="evenodd" d="M54.2603 5.43833V4.65875H58.2616V9.13955H54.26C53.5191 8.25866 52.6547 8.00697 51.7903 8.00697C50.1601 8.00697 48.9498 9.19015 48.9498 10.9524C48.9498 12.2866 50.1601 13.646 51.7903 13.646C52.6547 13.646 53.5191 13.3692 54.26 12.5134H58.2616V16.9179C58.2667 20.761 55.6238 22.9763 51.8695 22.9763C48.2139 22.9763 45.571 20.8617 45.3734 17.6897L45.3573 17.4555H49.3123C49.3123 17.4555 49.3504 17.692 49.3506 17.6932C49.5247 18.8241 50.3643 19.5274 51.8447 19.5274C53.228 19.5274 54.2653 18.6715 54.2603 16.9934V16.0376C53.3711 16.5663 52.309 16.8936 50.9999 16.8936C47.7395 16.8936 45.0472 14.2502 45.0472 10.9524C45.0472 7.22656 47.7395 4.65875 50.9999 4.65875C52.309 4.65875 53.3711 4.88449 54.2603 5.43833Z" fill="white"/>
<path fill-rule="evenodd" clip-rule="evenodd" d="M60.485 9.13877C61.388 9.15257 62.1157 9.90337 62.1149 10.827C62.1141 11.7581 61.3733 12.5125 60.4598 12.5125H60.4105C61.0519 15.3769 63.4711 17.3639 66.6702 17.3639C70.3952 17.3639 73.0491 14.6342 73.0491 10.9615C73.0491 7.33853 70.3952 4.68329 66.6702 4.68329C63.584 4.68329 61.2236 6.4821 60.485 9.13877ZM66.6701 13.8897C65.0388 13.8897 63.9919 12.5994 63.9919 10.9864C63.9919 9.42305 65.0388 8.15743 66.6701 8.15743C68.2527 8.15743 69.3239 9.42305 69.3239 10.9864C69.3239 12.5994 68.2527 13.8897 66.6701 13.8897Z" fill="white"/>
<path d="M77.6997 17.3717C79.1876 17.3717 80.4374 16.1731 80.4374 14.596C80.4374 13.0504 79.1876 11.8517 77.6997 11.8517C76.2415 11.8517 75.0215 13.0504 75.0215 14.596C75.0215 16.1731 76.2415 17.3717 77.6997 17.3717Z" fill="#FE3945"/>
</g>
<defs>
<clipPath id="clip0">
<rect width="80.5" height="23" fill="white"/>
</clipPath>
</defs>
</svg>
