<svg viewBox="0 0 36 36" fill="none" xmlns="http://www.w3.org/2000/svg">
	<g id="content">
		<path fill="none" d="M12.0664 17.4614H21.8846" stroke-linecap="round" stroke-linejoin="round"/>
		<path fill="none" d="M18.4844 14.0615L21.883 17.4601L18.4844 20.8587" stroke-linecap="round" stroke-linejoin="round"/>
		<path stroke="none" d="M17.0234 33.4614C8.18688 33.4614 1.02344 26.298 1.02344 17.4614H-0.976562C-0.976562 27.4026 7.08231 35.4614 17.0234 35.4614V33.4614ZM33.0234 17.4614C33.0234 26.298 25.86 33.4614 17.0234 33.4614V35.4614C26.9646 35.4614 35.0234 27.4026 35.0234 17.4614H33.0234ZM17.0234 1.46143C25.86 1.46143 33.0234 8.62487 33.0234 17.4614H35.0234C35.0234 7.5203 26.9646 -0.538574 17.0234 -0.538574V1.46143ZM17.0234 -0.538574C7.08231 -0.538574 -0.976562 7.5203 -0.976562 17.4614H1.02344C1.02344 8.62487 8.18688 1.46143 17.0234 1.46143V-0.538574Z"/>
	</g>

</svg>
