<svg width="162" height="10" viewBox="0 0 162 10" fill="none" xmlns="http://www.w3.org/2000/svg">
<path d="M161.551 5.81607C160.297 5.75875 158.991 5.75875 157.684 5.75875C156.43 5.75875 155.228 5.70142 153.974 5.6441C148.279 5.35747 142.687 4.78422 137.044 4.78422H132.393C124.869 5.07085 117.396 5.81607 109.924 6.21734C107.782 6.27467 106.318 6.38932 104.751 6.44664C103.601 6.50397 102.399 6.50397 100.884 6.50397H99.5776C94.8225 6.50397 90.0151 6.21734 85.2599 5.6441C80.0868 5.07085 74.9658 4.38295 69.8449 4.38295H68.225C67.5457 4.44027 66.8664 4.44027 66.1871 4.4976C65.142 4.61225 64.0447 4.66957 62.9996 4.7269C57.4607 5.35747 51.9739 6.38932 46.3827 7.07722C44.6583 7.24919 42.934 7.42117 41.1573 7.47849C40.6348 7.47849 40.1645 7.53582 39.6419 7.53582C37.2382 7.53582 34.7823 7.24919 32.4308 6.38932C31.1767 5.87339 30.9155 5.81607 29.7659 5.07085C28.3027 4.15365 26.9964 2.83518 25.481 1.97531C24.4882 1.45938 24.1747 1.23009 23.1296 1.00079C22.5548 0.828811 21.98 0.771484 21.3529 0.771484H20.8304C19.4195 0.828809 17.9564 1.17276 16.5978 1.57403C12.9922 2.77785 9.43894 4.2683 5.93791 5.70142C4.26577 6.38932 4.78831 6.16002 3.22068 6.84792C2.48912 7.07722 1.70531 7.36384 0.869239 7.53582C0.451205 7.87976 0.242188 8.28104 0.242188 8.68231C0.294442 9.25556 0.712476 9.77148 1.33953 9.77148C1.54854 9.77148 1.80982 9.65683 2.01883 9.48486C3.74323 8.68231 5.31086 7.82244 6.98299 7.01989C9.85698 5.70142 12.731 4.38295 15.7617 3.40843C16.3365 3.23645 16.9113 3.1218 17.4861 2.8925C18.7925 2.66321 19.2105 2.49123 20.4646 2.37658C20.6736 2.37658 20.8826 2.4339 21.0917 2.49123C22.0845 2.54855 22.5025 2.60588 23.3908 2.94983C23.7044 3.06448 24.0179 3.23645 24.3837 3.40843C25.8468 4.21098 27.1009 5.4148 28.564 6.27467C29.8181 7.13454 29.9749 7.07722 31.438 7.76511C32.0651 7.87976 32.6399 8.16639 33.2669 8.22371C34.939 8.62499 36.7157 8.73964 38.4401 8.73964H39.6942C42.1501 8.62499 44.5538 8.33836 46.9053 8.05174C52.4442 7.19187 57.8787 6.16002 63.4176 5.6441C64.515 5.52945 65.5601 5.52945 66.6574 5.4148H67.1277C67.8593 5.4148 68.5386 5.35747 69.2701 5.35747C74.4956 5.35747 79.6687 6.04537 84.8942 6.61862C88.761 6.90524 92.6278 7.07722 96.5469 7.07722C97.9055 7.07722 99.3164 7.07722 100.675 7.01989H102.556C105.117 6.90524 107.259 6.73327 110.081 6.56129C115.567 6.21734 121.159 5.75875 126.698 5.58677L128.317 5.52944C130.355 5.47212 131.453 5.4148 132.655 5.4148C133.543 5.4148 134.484 5.47212 135.947 5.47212C141.904 5.52945 147.704 6.27467 153.609 6.44664C154.863 6.50397 156.117 6.50397 157.371 6.50397H161.29C161.394 6.50397 161.447 6.56129 161.499 6.56129C161.708 6.50397 161.812 6.38932 161.812 6.16002C161.812 6.04537 161.708 5.8734 161.551 5.81607Z" fill="#FE3945"/>
</svg>
