<svg xmlns="http://www.w3.org/2000/svg" fill="none" viewBox="0 0 1280 764"><g clip-path="url(#clip0)"><path fill="#F4D8CD" stroke="#03224C" d="M676.533 87.647L343.412 102.62v114.203l333.121 34.261V87.646z"/><path fill="#F1F1F1" d="M358.321 168.965h.5v-.001l-.5.001zm0-.013l.021-.5-.522-.021.001.522.5-.001zm2.98.124l.495.072.08-.548-.554-.023-.021.499zm4.131.172l.021-.499-.553-.023.033.553.499-.031zm2.807.117h.5v-.479l-.479-.02-.021.499zm0 4.52v.5h.5v-.5h-.5zm0 4.157h.5v-.5h-.5v.5zm0 2.571v.5l.5-.001v-.499h-.5zm0 4.156h.5v-.5h-.5v.5zm0 2.571v.5l.5-.001v-.499h-.5zm0 4.156h.5v-.5h-.5v.5zm0 2.571v.5h.5v-.5h-.5zm0 4.156h.5v-.499l-.5-.001v.5zm0 4.903l-.041.498.541.044v-.542h-.5zm-3.385-.278l-.48-.142-.175.59.614.051.041-.499zm-4.055-.332l-.041.498.613.051-.076-.611-.496.062zm-2.908-.238l-.486-.119-.139.569.584.048.041-.498zm-4.091-.336l-.041.499.584.048-.044-.585-.499.038zm-2.884-.236h-.5v.461l.459.037.041-.498zm0-2.002v-.5h-.5v.5h.5zm0-4.157h-.5v.5h.5v-.5zm0-2.981v-.5h-.5v.5h.5zm0-4.157h-.5v.5h.5v-.5zm0-2.981v-.5h-.5v.5h.5zm0-4.157h-.5v.5h.5v-.5zm0-2.981v-.5h-.5v.5h.5zm0-4.157h-.5v.5h.5v-.5zm0-5.49l.02-.499-.52-.022v.521h.5zm3.257.136l.498.044.047-.522-.524-.022-.021.5zm3.648.186c0 .872-.706 1.578-1.578 1.578v1a2.578 2.578 0 002.578-2.578h-1zm0-.012v.014l1-.003v-.014l-1 .003zm3.501-.376l-2.98-.125-.041.999 2.98.125.041-.999zm.458.799a1.7 1.7 0 01.016-.228l-.989-.143a2.522 2.522 0 00-.027.371h1zm1.578 1.579a1.579 1.579 0 01-1.578-1.579h-1a2.579 2.579 0 002.578 2.579v-1zm1.578-1.579c0 .872-.706 1.579-1.578 1.579v1a2.579 2.579 0 002.578-2.579h-1zm-.003-.097c.002.032.003.064.003.097h1c0-.053-.001-.106-.004-.158l-.999.061zm3.327-.413l-2.807-.117-.041.999 2.806.117.042-.999zm.479 5.019v-4.52h-1v4.52h1zm-2.077 2.078c0-.871.706-1.577 1.577-1.578v-1a2.579 2.579 0 00-2.577 2.578h1zm1.577 1.579a1.579 1.579 0 01-1.577-1.579h-1a2.579 2.579 0 002.577 2.579v-1zm.5 3.071v-2.571h-1v2.571h1zm-2.077 2.078c0-.872.706-1.578 1.577-1.578v-1a2.578 2.578 0 00-2.577 2.578h1zm1.577 1.578a1.578 1.578 0 01-1.577-1.578h-1a2.579 2.579 0 002.577 2.578v-1zm.5 3.071v-2.571h-1v2.571h1zm-2.077 2.078c0-.871.706-1.578 1.577-1.578v-1a2.579 2.579 0 00-2.577 2.578h1zm1.577 1.578a1.578 1.578 0 01-1.577-1.578h-1a2.579 2.579 0 002.577 2.578v-1zm.5 3.071v-2.571h-1v2.571h1zm-2.077 2.078c0-.871.706-1.578 1.577-1.578v-1a2.579 2.579 0 00-2.577 2.578h1zm1.577 1.578a1.578 1.578 0 01-1.577-1.578h-1a2.579 2.579 0 002.577 2.578v-1zm.5 5.403v-4.903h-1v4.903h1zm-3.926.221l3.385.277.082-.997-3.386-.277-.081.997zm-.374-1.091c0 .157-.023.308-.065.45l.959.284c.069-.233.106-.48.106-.734h-1zm-1.578-1.578c.872 0 1.578.707 1.578 1.578h1a2.578 2.578 0 00-2.578-2.578v1zm-1.578 1.578c0-.871.706-1.578 1.578-1.578v-1a2.578 2.578 0 00-2.578 2.578h1zm.012.198a1.62 1.62 0 01-.012-.198h-1c0 .109.006.216.02.322l.992-.124zm-3.445.322l2.908.238.082-.996-2.908-.239-.082.997zm-.4-.994c0 .13-.015.256-.045.377l.971.238c.049-.198.074-.404.074-.615h-1zm-1.578-1.579c.872 0 1.578.707 1.578 1.579h1a2.579 2.579 0 00-2.578-2.579v1zm-1.578 1.579c0-.872.707-1.579 1.578-1.579v-1a2.579 2.579 0 00-2.578 2.579h1zm.005.122a1.636 1.636 0 01-.005-.122h-1c0 .066.003.133.008.199l.997-.077zm-3.424.3l2.884.237.082-.997-2.885-.236-.081.996zm-.459-2.5v2.002h1v-2.002h-1zm.5-.5v1-1zm1.578-1.579c0 .872-.707 1.579-1.578 1.579v1a2.579 2.579 0 002.578-2.579h-1zm-1.578-1.578c.871 0 1.578.707 1.578 1.578h1a2.578 2.578 0 00-2.578-2.578v1zm0 0v-1 1zm-.5-3.481v2.981h1v-2.981h-1zm.5-.5v1-1zm1.578-1.579c0 .872-.707 1.579-1.578 1.579v1a2.579 2.579 0 002.578-2.579h-1zm-1.578-1.578c.871 0 1.578.707 1.578 1.578h1a2.578 2.578 0 00-2.578-2.578v1zm0 0v-1 1zm-.5-3.481v2.981h1v-2.981h-1zm.5-.5v1-1zm1.578-1.579c0 .872-.707 1.579-1.578 1.579v1a2.579 2.579 0 002.578-2.579h-1zm-1.578-1.578c.871 0 1.578.707 1.578 1.578h1a2.578 2.578 0 00-2.578-2.578v1zm0 0v-1 1zm-.5-3.481v2.981h1v-2.981h-1zm.5-.5v1-1zm1.578-1.579c0 .872-.707 1.579-1.578 1.579v1a2.579 2.579 0 002.578-2.579h-1zm-1.578-1.578c.871 0 1.578.707 1.578 1.578h1a2.578 2.578 0 00-2.578-2.578v1zm0 0v-1 1zm-.5-5.99v5.49h1v-5.49h-1zm3.778-.364l-3.258-.135-.041.999 3.257.135.042-.999zm.471.686c0-.048.002-.095.006-.142l-.996-.088c-.007.076-.01.153-.01.23h1zm1.578 1.578a1.578 1.578 0 01-1.578-1.578h-1a2.578 2.578 0 002.578 2.578v-1zM358.264 113.585l-.011-.5-.62.014.145.603.486-.117zm3.109-.07l.478.149.206-.664-.695.016.011.499zm3.94-.088l-.011-.5-.696.016.237.654.47-.17zm3.027-.068h.5v-.511l-.511.011.011.5zm0 4.928v.5h.5v-.5h-.5zm0 4.156h.5v-.5h-.5v.5zm0 2.571v.5h.5v-.5h-.5zm0 4.156h.5v-.5h-.5v.5zm0 2.571v.5h.5v-.5h-.5zm0 4.156h.5v-.5h-.5v.5zm0 2.571v.5h.5v-.5h-.5zm0 4.157h.5v-.5h-.5v.5zm0 4.494l-.009.5.509.009v-.509h-.5zm-3.402-.06l-.5.014.014.478.477.008.009-.5zm-4.151-.072l-.009.499.478.009.03-.477-.499-.031zm-2.837-.05l-.5-.012-.011.503.502.009.009-.5zm-4.156-.073l-.009.5.503.009.006-.503-.5-.006zm-2.878-.051h-.5v.492l.491.008.009-.5zm0-3.403v-.5h-.5v.5h.5zm0-4.156h-.5v.5h.5v-.5zm0-2.982v-.5h-.5v.5h.5zm0-4.156h-.5v.5h.5v-.5zm0-2.982v-.5h-.5v.5h.5zm0-4.156h-.5v.5h.5v-.5zm0-2.981v-.5h-.5v.5h.5zm0-4.157h-.5v.5h.5v-.5zm0-4.09l-.012-.5-.488.011v.489h.5zm3.287-.074l.491.095.117-.608-.619.014.011.499zm3.618.397c0 .871-.706 1.578-1.578 1.578v1a2.578 2.578 0 002.578-2.578h-1zm-.043-.371c.028.118.043.242.043.371h1c0-.208-.024-.41-.071-.605l-.972.234zm3.584-.686l-3.109.069.022 1 3.109-.07-.022-.999zm.418 1.117c0-.164.025-.321.071-.469l-.955-.297a2.56 2.56 0 00-.116.766h1zm1.578 1.578a1.577 1.577 0 01-1.578-1.578h-1a2.578 2.578 0 002.578 2.578v-1zm1.578-1.578c0 .872-.706 1.578-1.578 1.578v1a2.578 2.578 0 002.578-2.578h-1zm-.093-.536c.06.167.093.347.093.536h1c0-.306-.054-.602-.153-.876l-.94.34zm3.486-.738l-3.027.068.022 1 3.027-.068-.022-1zm.511 5.428v-4.928h-1v4.928h1zm-2.078 2.078c0-.872.706-1.578 1.578-1.578v-1a2.578 2.578 0 00-2.578 2.578h1zm1.578 1.578a1.578 1.578 0 01-1.578-1.578h-1a2.578 2.578 0 002.578 2.578v-1zm.5 3.071v-2.571h-1v2.571h1zm-2.078 2.078c0-.872.706-1.578 1.578-1.578v-1a2.578 2.578 0 00-2.578 2.578h1zm1.578 1.578a1.578 1.578 0 01-1.578-1.578h-1a2.578 2.578 0 002.578 2.578v-1zm.5 3.071v-2.571h-1v2.571h1zm-2.078 2.078c0-.872.706-1.578 1.578-1.578v-1a2.578 2.578 0 00-2.578 2.578h1zm1.578 1.578a1.577 1.577 0 01-1.578-1.578h-1a2.578 2.578 0 002.578 2.578v-1zm.5 3.071v-2.571h-1v2.571h1zm-2.078 2.078c0-.871.706-1.578 1.578-1.578v-1a2.578 2.578 0 00-2.578 2.578h1zm1.578 1.579a1.578 1.578 0 01-1.578-1.579h-1a2.579 2.579 0 002.578 2.579v-1zm.5 4.994v-4.494h-1v4.494h1zm-3.911.44l3.402.06.018-1-3.402-.06-.018 1zm-2.068-2.018c.856 0 1.553.682 1.577 1.532l1-.028a2.578 2.578 0 00-2.577-2.504v1zm-1.575 1.477a1.578 1.578 0 011.575-1.477v-1a2.578 2.578 0 00-2.573 2.414l.998.063zm-3.345.419l2.837.049.018-.999-2.837-.05-.018 1zm-.491-.548v.036l1 .023v-.059h-1zm-1.578-1.578c.872 0 1.578.706 1.578 1.578h1a2.578 2.578 0 00-2.578-2.578v1zm-1.578 1.559a1.578 1.578 0 011.578-1.559v-1a2.578 2.578 0 00-2.578 2.547l1 .012zm-3.387.443l2.878.051.018-1-2.879-.051-.017 1zm-.491-3.903v3.403h1v-3.403h-1zm2.078-2.078c0 .872-.707 1.578-1.578 1.578v1a2.578 2.578 0 002.578-2.578h-1zm-1.578-1.578c.871 0 1.578.706 1.578 1.578h1a2.578 2.578 0 00-2.578-2.578v1zm-.5-3.482v2.982h1v-2.982h-1zm2.078-2.078c0 .872-.707 1.578-1.578 1.578v1a2.578 2.578 0 002.578-2.578h-1zm-1.578-1.578c.871 0 1.578.707 1.578 1.578h1a2.578 2.578 0 00-2.578-2.578v1zm-.5-3.482v2.982h1v-2.982h-1zm2.078-2.078c0 .872-.707 1.578-1.578 1.578v1a2.578 2.578 0 002.578-2.578h-1zm-1.578-1.578c.871 0 1.578.706 1.578 1.578h1a2.578 2.578 0 00-2.578-2.578v1zm-.5-3.481v2.981h1v-2.981h-1zm2.078-2.079c0 .872-.707 1.579-1.578 1.579v1a2.58 2.58 0 002.578-2.579h-1zm-1.578-1.578c.871 0 1.578.707 1.578 1.578h1a2.578 2.578 0 00-2.578-2.578v1zm-.5-4.59v4.09h1v-4.09h-1zm3.776-.573l-3.288.073.023 1 3.287-.074-.022-.999zm.473.896c0-.104.01-.205.029-.302l-.982-.189a2.563 2.563 0 00-.047.491h1zm1.578 1.578a1.579 1.579 0 01-1.578-1.578h-1a2.578 2.578 0 002.578 2.578v-1zM417.791 113.011l-.011-.5-.62.014.145.602.486-.116zm3.11-.07l.477.148.206-.664-.695.016.012.5zm3.939-.089l-.011-.5-.695.016.236.654.47-.17zm3.027-.068h.5v-.511l-.511.011.011.5zm0 4.928v.5h.5v-.5h-.5zm0 4.156h.5v-.5h-.5v.5zm0 2.571v.5h.5v-.5h-.5zm0 4.156h.5v-.5h-.5v.5zm0 2.571v.5h.5v-.5h-.5zm0 4.156h.5v-.5h-.5v.5zm0 2.572v.5h.5v-.5h-.5zm0 4.156h.5v-.5h-.5v.5zm0 4.494l-.009.5.509.009v-.509h-.5zm-3.401-.059l-.5.014.013.477.478.009.009-.5zm-4.152-.073l-.009.5.478.008.03-.477-.499-.031zm-2.837-.05l-.5-.011-.011.502.502.009.009-.5zm-4.156-.073l-.008.5.502.009.006-.503-.5-.006zm-2.878-.05h-.5v.491l.491.009.009-.5zm0-3.404v-.5h-.5v.5h.5zm0-4.156h-.5v.5h.5v-.5zm0-2.981v-.5h-.5v.5h.5zm0-4.157h-.5v.5h.5v-.5zm0-2.981v-.5h-.5v.5h.5zm0-4.157h-.5v.5h.5v-.5zm0-2.981v-.5h-.5v.5h.5zm0-4.157h-.5v.5h.5v-.5zm0-4.089l-.011-.5-.489.011v.489h.5zm3.287-.074l.491.095.117-.609-.619.014.011.5zm3.619.396c0 .871-.707 1.578-1.578 1.578v1a2.578 2.578 0 002.578-2.578h-1zm-.044-.371c.029.119.044.243.044.371h1c0-.208-.025-.41-.072-.604l-.972.233zm3.584-.686l-3.109.07.023.999 3.109-.069-.023-1zm.418 1.118c0-.165.025-.322.071-.47l-.955-.297a2.6 2.6 0 00-.116.767h1zm1.578 1.578a1.579 1.579 0 01-1.578-1.578h-1a2.578 2.578 0 002.578 2.578v-1zm1.578-1.578c0 .871-.706 1.578-1.578 1.578v1a2.578 2.578 0 002.578-2.578h-1zm-.093-.537c.06.167.093.347.093.537h1c0-.307-.053-.603-.152-.877l-.941.34zm3.486-.738l-3.027.068.023 1 3.026-.068-.022-1zm.511 5.428v-4.928h-1v4.928h1zm-2.078 2.078c0-.872.707-1.578 1.578-1.578v-1a2.578 2.578 0 00-2.578 2.578h1zm1.578 1.578a1.578 1.578 0 01-1.578-1.578h-1a2.578 2.578 0 002.578 2.578v-1zm.5 3.071v-2.571h-1v2.571h1zm-2.078 2.078c0-.871.707-1.578 1.578-1.578v-1a2.578 2.578 0 00-2.578 2.578h1zm1.578 1.578a1.578 1.578 0 01-1.578-1.578h-1a2.578 2.578 0 002.578 2.578v-1zm.5 3.071v-2.571h-1v2.571h1zm-2.078 2.078c0-.871.707-1.578 1.578-1.578v-1a2.578 2.578 0 00-2.578 2.578h1zm1.578 1.578a1.578 1.578 0 01-1.578-1.578h-1a2.578 2.578 0 002.578 2.578v-1zm.5 3.072v-2.572h-1v2.572h1zm-2.078 2.078c0-.872.707-1.578 1.578-1.578v-1a2.578 2.578 0 00-2.578 2.578h1zm1.578 1.578a1.579 1.579 0 01-1.578-1.578h-1a2.578 2.578 0 002.578 2.578v-1zm.5 4.994v-4.494h-1v4.494h1zm-3.91.441l3.401.059.018-1-3.402-.059-.017 1zm-2.069-2.019c.857 0 1.554.682 1.578 1.533l.999-.028a2.579 2.579 0 00-2.577-2.505v1zm-1.575 1.477a1.579 1.579 0 011.575-1.477v-1a2.579 2.579 0 00-2.573 2.414l.998.063zm-3.345.419l2.837.05.018-1-2.837-.05-.018 1zm-.49-.548l-.001.037 1 .022.001-.059h-1zm-1.579-1.578c.872 0 1.579.707 1.579 1.578h1a2.579 2.579 0 00-2.579-2.578v1zm-1.578 1.559a1.579 1.579 0 011.578-1.559v-1a2.579 2.579 0 00-2.578 2.547l1 .012zm-3.387.444l2.879.05.017-1-2.878-.05-.018 1zm-.491-3.904v3.404h1v-3.404h-1zm2.078-2.078c0 .872-.707 1.578-1.578 1.578v1a2.578 2.578 0 002.578-2.578h-1zm-1.578-1.578c.871 0 1.578.707 1.578 1.578h1a2.578 2.578 0 00-2.578-2.578v1zm-.5-3.481v2.981h1v-2.981h-1zm2.078-2.078c0 .871-.707 1.578-1.578 1.578v1a2.578 2.578 0 002.578-2.578h-1zm-1.578-1.579c.871 0 1.578.707 1.578 1.579h1a2.579 2.579 0 00-2.578-2.579v1zm-.5-3.481v2.981h1v-2.981h-1zm2.078-2.079c0 .872-.707 1.579-1.578 1.579v1a2.579 2.579 0 002.578-2.579h-1zm-1.578-1.578c.871 0 1.578.707 1.578 1.578h1a2.578 2.578 0 00-2.578-2.578v1zm-.5-3.481v2.981h1v-2.981h-1zm2.078-2.078c0 .871-.707 1.578-1.578 1.578v1a2.578 2.578 0 002.578-2.578h-1zm-1.578-1.579c.871 0 1.578.707 1.578 1.579h1a2.579 2.579 0 00-2.578-2.579v1zm-.5-4.589v4.089h1v-4.089h-1zm3.776-.574l-3.287.074.022 1 3.287-.074-.022-1zm.473.896c0-.104.01-.204.029-.301l-.982-.19a2.563 2.563 0 00-.047.491h1zm1.579 1.578a1.579 1.579 0 01-1.579-1.578h-1a2.579 2.579 0 002.579 2.578v-1zM487.21 110.757l-.011-.5-.62.014.145.603.486-.117zm3.613-.081l.477.148.207-.664-.696.016.012.5zm4.577-.103l-.011-.5-.695.016.236.654.47-.17zm3.517-.079h.5v-.511l-.511.011.011.5zm0 5.725v.5h.5v-.5h-.5zm0 4.829h.5v-.5h-.5v.5zm0 2.987v.5h.5v-.5h-.5zm0 4.829h.5v-.5h-.5v.5zm0 2.987v.5h.5v-.5h-.5zm0 4.829h.5v-.5h-.5v.5zm0 2.987v.5h.5v-.5h-.5zm0 4.83h.5v-.5h-.5v.5zm0 5.222l-.009.5.509.008v-.508h-.5zm-3.952-.07l-.5.014.013.478.478.008.009-.5zm-4.824-.084l-.008.5.478.008.029-.477-.499-.031zm-3.296-.058l-.5-.012-.011.503.502.009.009-.5zm-4.828-.085l-.009.5.503.009.006-.503-.5-.006zm-3.345-.059h-.5v.492l.492.008.008-.5zm0-3.954v-.5h-.5v.5h.5zm0-4.829h-.5v.5h.5v-.5zm0-3.464v-.5h-.5v.5h.5zm0-4.829h-.5v.5h.5v-.5zm0-3.464v-.5h-.5v.5h.5zm0-4.829h-.5v.5h.5v-.5zm0-3.464v-.5h-.5v.5h.5zm0-4.829h-.5v.5h.5v-.5zm0-4.752l-.011-.5-.489.011v.489h.5zm3.82-.086l.491.095.117-.609-.62.014.012.5zm4.285.46a1.914 1.914 0 01-1.915 1.914v1a2.915 2.915 0 002.915-2.914h-1zm-.053-.449c.035.143.053.294.053.449h1c0-.235-.028-.463-.08-.683l-.973.234zm4.087-.698l-3.612.081.023 1 3.612-.081-.023-1zm.403 1.218c0-.199.03-.39.086-.57l-.955-.296a2.92 2.92 0 00-.131.866h1zm1.915 1.914a1.914 1.914 0 01-1.915-1.914h-1a2.915 2.915 0 002.915 2.914v-1zm1.914-1.914a1.914 1.914 0 01-1.914 1.914v1a2.914 2.914 0 002.914-2.914h-1zm-.113-.651c.073.203.113.421.113.651h1c0-.347-.061-.681-.172-.991l-.941.34zm3.976-.749l-3.517.079.022 1 3.517-.079-.022-1zm.511 6.225v-5.725h-1v5.725h1zm-2.415 2.415c0-1.058.858-1.915 1.915-1.915v-1a2.915 2.915 0 00-2.915 2.915h1zm1.915 1.914a1.915 1.915 0 01-1.915-1.914h-1a2.915 2.915 0 002.915 2.914v-1zm.5 3.487v-2.987h-1v2.987h1zm-2.415 2.415c0-1.058.858-1.915 1.915-1.915v-1a2.915 2.915 0 00-2.915 2.915h1zm1.915 1.914a1.915 1.915 0 01-1.915-1.914h-1a2.915 2.915 0 002.915 2.914v-1zm.5 3.487v-2.987h-1v2.987h1zm-2.415 2.415c0-1.058.858-1.915 1.915-1.915v-1a2.915 2.915 0 00-2.915 2.915h1zm1.915 1.914a1.915 1.915 0 01-1.915-1.914h-1a2.915 2.915 0 002.915 2.914v-1zm.5 3.487v-2.987h-1v2.987h1zm-2.415 2.415c0-1.057.858-1.915 1.915-1.915v-1a2.916 2.916 0 00-2.915 2.915h1zm1.915 1.915a1.916 1.916 0 01-1.915-1.915h-1a2.916 2.916 0 002.915 2.915v-1zm.5 5.722v-5.222h-1v5.222h1zm-4.461.43l3.952.07.018-1-3.952-.07-.018 1zm-2.405-2.345c1.039 0 1.885.828 1.914 1.859l1-.028a2.915 2.915 0 00-2.914-2.831v1zm-1.911 1.792c.063-1 .895-1.792 1.911-1.792v-1a2.916 2.916 0 00-2.909 2.729l.998.063zm-3.804.411l3.297.058.017-1-3.296-.058-.018 1zm-.49-.556l-.001.044 1 .023.001-.067h-1zm-1.915-1.915c1.058 0 1.915.857 1.915 1.915h1a2.915 2.915 0 00-2.915-2.915v1zm-1.914 1.892a1.915 1.915 0 011.914-1.892v-1a2.914 2.914 0 00-2.914 2.88l1 .012zm-3.853.435l3.344.059.018-1-3.345-.058-.017.999zm-.492-4.454v3.954h1v-3.954h-1zm.5-.5v1-1zm1.915-1.914a1.914 1.914 0 01-1.915 1.914v1a2.915 2.915 0 002.915-2.914h-1zm-1.915-1.915c1.058 0 1.915.857 1.915 1.915h1a2.915 2.915 0 00-2.915-2.915v1zm0 0v-1 1zm-.5-3.964v3.464h1v-3.464h-1zm.5-.5v1-1zm1.915-1.914a1.914 1.914 0 01-1.915 1.914v1a2.915 2.915 0 002.915-2.914h-1zm-1.915-1.915c1.058 0 1.915.857 1.915 1.915h1a2.915 2.915 0 00-2.915-2.915v1zm0 0v-1 1zm-.5-3.964v3.464h1v-3.464h-1zm.5-.5v1-1zm1.915-1.915a1.915 1.915 0 01-1.915 1.915v1a2.915 2.915 0 002.915-2.915h-1zm-1.915-1.914c1.058 0 1.915.857 1.915 1.914h1a2.915 2.915 0 00-2.915-2.914v1zm0 0v-1 1zm-.5-3.964v3.464h1v-3.464h-1zm.5-.5v1-1zm1.915-1.915a1.915 1.915 0 01-1.915 1.915v1a2.915 2.915 0 002.915-2.915h-1zm-1.915-1.914c1.058 0 1.915.857 1.915 1.914h1a2.915 2.915 0 00-2.915-2.914v1zm0 0v-1 1zm-.5-5.252v4.752h1v-4.752h-1zm4.308-.586l-3.819.086.023 1 3.819-.086-.023-1zm.468.96c0-.125.012-.247.035-.365l-.982-.189a2.89 2.89 0 00-.053.554h1zm1.914 1.914a1.914 1.914 0 01-1.914-1.914h-1a2.914 2.914 0 002.914 2.914v-1zM417.944 172.912l.022-.5-.8-.034.32.734.458-.2zm3.411.147l.434.248.408-.712-.82-.036-.022.5zm3.692.159l.022-.499-.82-.036.345.745.453-.21zm3.12.135h.5v-.479l-.478-.021-.022.5zm0 4.703v.5h.5v-.5h-.5zm0 4.156h.5v-.5h-.5v.5zm0 2.57v.5h.5v-.5h-.5zm0 4.156h.5v-.5h-.5v.5zm0 2.572v.5h.5v-.5h-.5zm0 4.156h.5v-.5h-.5v.5zm0 2.571v.5h.5v-.5h-.5zm0 4.157h.5v-.5h-.5v.5zm0 5.038l-.05.497.55.056v-.553h-.5zm-3.493-.351l-.453-.211-.297.638.7.071.05-.498zm-3.906-.392l-.05.498.699.07-.163-.684-.486.116zm-2.984-.299l-.477-.15-.183.586.61.061.05-.497zm-4.051-.407l-.05.498.61.061-.062-.61-.498.051zm-2.889-.29h-.5v.453l.45.045.05-.498zm0-3.318v-.5h-.5v.5h.5zm0-4.157h-.5v.5h.5v-.5zm0-2.982v-.5h-.5v.5h.5zm0-4.156h-.5v.5h.5v-.5zm0-2.982v-.5h-.5v.5h.5zm0-4.156h-.5v.5h.5v-.5zm0-2.981v-.5h-.5v.5h.5zm0-4.157h-.5v.5h.5v-.5zm0-4.198l.021-.5-.521-.022v.522h.5zm3.367.145l.439.239.382-.704-.8-.034-.021.499zm3.405.991c0 .871-.706 1.578-1.578 1.578v1a2.578 2.578 0 002.578-2.578h-1zm-.13-.63c.084.192.13.405.13.63h1a2.57 2.57 0 00-.214-1.03l-.916.4zm3.891-.553l-3.411-.147-.043.999 3.411.147.043-.999zm.205 1.53c0-.285.075-.552.207-.782l-.868-.496a2.564 2.564 0 00-.339 1.278h1zm1.578 1.579a1.579 1.579 0 01-1.578-1.579h-1a2.579 2.579 0 002.578 2.579v-1zm1.578-1.579c0 .872-.706 1.579-1.578 1.579v1a2.579 2.579 0 002.578-2.579h-1zm-.144-.661c.092.2.144.424.144.661h1c0-.385-.084-.751-.237-1.081l-.907.42zm3.595-.575l-3.12-.134-.043.999 3.12.134.043-.999zm.478 5.203v-4.703h-1v4.703h1zm-2.078 2.078c0-.872.707-1.578 1.578-1.578v-1a2.578 2.578 0 00-2.578 2.578h1zm1.578 1.578a1.579 1.579 0 01-1.578-1.578h-1a2.578 2.578 0 002.578 2.578v-1zm.5 3.07v-2.57h-1v2.57h1zm-2.078 2.078c0-.871.707-1.578 1.578-1.578v-1a2.578 2.578 0 00-2.578 2.578h1zm1.578 1.578a1.578 1.578 0 01-1.578-1.578h-1a2.578 2.578 0 002.578 2.578v-1zm.5 3.072v-2.572h-1v2.572h1zm-2.078 2.078c0-.872.707-1.578 1.578-1.578v-1a2.578 2.578 0 00-2.578 2.578h1zm1.578 1.578a1.579 1.579 0 01-1.578-1.578h-1a2.578 2.578 0 002.578 2.578v-1zm.5 3.071v-2.571h-1v2.571h1zm-2.078 2.078c0-.871.707-1.578 1.578-1.578v-1a2.578 2.578 0 00-2.578 2.578h1zm1.578 1.579a1.579 1.579 0 01-1.578-1.579h-1a2.579 2.579 0 002.578 2.579v-1zm.5 5.538v-5.038h-1v5.038h1zm-4.043.147l3.493.35.1-.995-3.493-.35-.1.995zm-.257-1.374c0 .239-.052.464-.146.665l.906.422c.154-.331.24-.7.24-1.087h-1zm-1.578-1.578c.872 0 1.578.706 1.578 1.578h1a2.578 2.578 0 00-2.578-2.578v1zm-1.578 1.578c0-.872.707-1.578 1.578-1.578v-1a2.578 2.578 0 00-2.578 2.578h1zm.043.368a1.585 1.585 0 01-.043-.368h-1c0 .206.024.407.07.6l.973-.232zm-3.52.314l2.984.3.1-.995-2.984-.3-.1.995zm-.355-1.118c0 .165-.026.323-.072.471l.954.299c.077-.244.118-.503.118-.77h-1zm-1.579-1.579a1.58 1.58 0 011.579 1.579h1a2.58 2.58 0 00-2.579-2.579v1zm-1.578 1.579c0-.872.707-1.579 1.578-1.579v-1a2.579 2.579 0 00-2.578 2.579h1zm.009.163a1.457 1.457 0 01-.009-.163h-1c0 .089.005.178.014.265l.995-.102zm-3.437.259l2.889.29.1-.995-2.889-.29-.1.995zm-.45-3.816v3.318h1v-3.318h-1zm2.078-2.078c0 .871-.707 1.578-1.578 1.578v1a2.578 2.578 0 002.578-2.578h-1zm-1.578-1.579c.871 0 1.578.707 1.578 1.579h1a2.579 2.579 0 00-2.578-2.579v1zm-.5-3.482v2.982h1v-2.982h-1zm2.078-2.078c0 .871-.707 1.578-1.578 1.578v1a2.578 2.578 0 002.578-2.578h-1zm-1.578-1.578c.871 0 1.578.706 1.578 1.578h1a2.578 2.578 0 00-2.578-2.578v1zm-.5-3.482v2.982h1v-2.982h-1zm2.078-2.078c0 .872-.707 1.578-1.578 1.578v1a2.578 2.578 0 002.578-2.578h-1zm-1.578-1.578c.871 0 1.578.707 1.578 1.578h1a2.578 2.578 0 00-2.578-2.578v1zm-.5-3.481v2.981h1v-2.981h-1zm2.078-2.079c0 .872-.707 1.579-1.578 1.579v1a2.579 2.579 0 002.578-2.579h-1zm-1.578-1.578c.871 0 1.578.707 1.578 1.578h1a2.578 2.578 0 00-2.578-2.578v1zm-.5-4.698v4.198h1v-4.198h-1zm3.888-.354l-3.367-.146-.043.999 3.367.146.043-.999zm.228 1.49c0-.274.069-.529.19-.752l-.879-.478a2.58 2.58 0 00-.311 1.23h1zm1.578 1.578a1.579 1.579 0 01-1.578-1.578h-1a2.578 2.578 0 002.578 2.578v-1zM650.523 182.74l.017-.5-.549-.019.033.549.499-.03zm3.698.126l.49.102.121-.581-.594-.021-.017.5zm5.254.179l.017-.499-.594-.021.082.589.495-.069zm3.786.13h.5v-.484l-.483-.016-.017.5zm0 5.803v.5l.5-.001v-.499h-.5zm0 5.336h.5v-.5h-.5v.5zm0 3.3v.5h.5v-.5h-.5zm0 5.336h.5v-.499l-.5-.001v.5zm0 3.301v.5h.5v-.5h-.5zm0 5.336h.5v-.5h-.5v.5zm0 3.301v.5l.5-.001v-.499h-.5zm0 5.336h.5v-.5h-.5v.5zm0 7.12l-.049.497.549.054v-.551h-.5zm-4.48-.437l-.455-.209-.294.639.7.068.049-.498zm-5.019-.489l-.049.498.699.068-.164-.682-.486.116zm-3.872-.377l-.46-.195-.267.627.678.066.049-.498zm-5.069-.493l-.048.497.677.066-.139-.665-.49.102zm-3.801-.37h-.5v.453l.452.044.048-.497zm0-6.054v-.5h-.5v.5h.5zm0-5.336h-.5v.5h.5v-.5zm0-3.828v-.5h-.5v.5h.5zm0-5.336h-.5v.5h.5v-.5zm0-3.828v-.5h-.5v.5h.5zm0-5.336h-.5v.5h.5v-.5zm0-3.828v-.5h-.5v.5h.5zm0-5.336h-.5v.5h.5v-.5zm0-3.881l.017-.5-.517-.017v.517h.5zm4.194.143l.496.064.07-.545-.549-.018-.017.499zm4.814.346a2.168 2.168 0 01-2.168 2.168v1a3.168 3.168 0 003.168-3.168h-1zm-.004-.134c.003.044.004.089.004.134h1c0-.066-.002-.13-.006-.195l-.998.061zm4.214-.404l-3.698-.126-.034.999 3.698.127.034-1zm.427 1.049c0-.154.015-.303.046-.447l-.979-.204c-.044.21-.067.428-.067.651h1zm2.168 2.168a2.167 2.167 0 01-2.168-2.168h-1a3.168 3.168 0 003.168 3.168v-1zm2.168-2.168a2.168 2.168 0 01-2.168 2.168v1a3.168 3.168 0 003.168-3.168h-1zm-.021-.301c.014.098.021.199.021.301h1c0-.148-.011-.295-.03-.438l-.991.137zm4.298-.439l-3.786-.129-.034.999 3.786.129.034-.999zm.483 6.303v-5.803h-1v5.803h1zm-2.667 2.668c0-1.197.97-2.168 2.167-2.168l-.001-1a3.168 3.168 0 00-3.166 3.168h1zm2.167 2.168a2.168 2.168 0 01-2.167-2.168h-1a3.168 3.168 0 003.166 3.168l.001-1zm.5 3.8v-3.3h-1v3.3h1zm-2.667 2.668c0-1.197.97-2.167 2.167-2.168l-.001-1a3.168 3.168 0 00-3.166 3.168h1zm2.167 2.168a2.168 2.168 0 01-2.167-2.168h-1a3.168 3.168 0 003.166 3.168l.001-1zm.5 3.801v-3.301h-1v3.301h1zm-2.667 2.668c0-1.197.97-2.167 2.167-2.168l-.001-1a3.168 3.168 0 00-3.166 3.168h1zm2.167 2.168a2.168 2.168 0 01-2.167-2.168h-1a3.168 3.168 0 003.166 3.168l.001-1zm.5 3.801v-3.301h-1v3.301h1zm-2.667 2.668c0-1.197.97-2.168 2.167-2.168l-.001-1a3.168 3.168 0 00-3.166 3.168h1zm2.167 2.168a2.168 2.168 0 01-2.167-2.168h-1a3.168 3.168 0 003.166 3.168l.001-1zm.5 7.62v-7.12h-1v7.12h1zm-5.029.061l4.48.436.097-.995-4.48-.436-.097.995zm-.208-1.613c0 .325-.071.631-.198.906l.909.418c.186-.403.289-.852.289-1.324h-1zm-2.168-2.168c1.197 0 2.168.971 2.168 2.168h1a3.168 3.168 0 00-3.168-3.168v1zm-2.168 2.168c0-1.197.971-2.168 2.168-2.168v-1a3.168 3.168 0 00-3.168 3.168h1zm.06.51a2.191 2.191 0 01-.06-.51h-1c0 .256.03.505.088.743l.972-.233zm-4.407.237l3.872.377.097-.995-3.872-.377-.097.995zm-.24-1.539c0 .301-.061.587-.171.846l.92.391c.162-.381.251-.799.251-1.237h-1zm-2.168-2.169c1.197 0 2.168.971 2.168 2.169h1a3.168 3.168 0 00-3.168-3.169v1zM645.265 225c0-1.198.971-2.169 2.168-2.169v-1a3.168 3.168 0 00-3.168 3.169h1zm.046.446a2.184 2.184 0 01-.046-.446h-1c0 .222.023.44.067.65l.979-.204zm-4.339.229l3.801.37.097-.995-3.802-.37-.096.995zm-.452-6.551v6.054h1v-6.054h-1zm.5-.5v1-1zm2.168-2.168c0 1.198-.97 2.168-2.168 2.168v1a3.168 3.168 0 003.168-3.168h-1zm-2.168-2.168c1.198 0 2.168.971 2.168 2.168h1a3.168 3.168 0 00-3.168-3.168v1zm0 0v-1 1zm-.5-4.328v3.828h1v-3.828h-1zm.5-.5v1-1zm2.168-2.168c0 1.197-.97 2.168-2.168 2.168v1a3.168 3.168 0 003.168-3.168h-1zm-2.168-2.168c1.198 0 2.168.971 2.168 2.168h1a3.168 3.168 0 00-3.168-3.168v1zm0 0v-1 1zm-.5-4.328v3.828h1v-3.828h-1zm.5-.5v1-1zm2.168-2.168c0 1.197-.97 2.168-2.168 2.168v1a3.168 3.168 0 003.168-3.168h-1zm-2.168-2.168c1.198 0 2.168.971 2.168 2.168h1a3.168 3.168 0 00-3.168-3.168v1zm0 0v-1 1zm-.5-4.328v3.828h1v-3.828h-1zm.5-.5v1-1zm2.168-2.168c0 1.197-.97 2.168-2.168 2.168v1a3.168 3.168 0 003.168-3.168h-1zm-2.168-2.168c1.198 0 2.168.971 2.168 2.168h1a3.168 3.168 0 00-3.168-3.168v1zm0 0v-1 1zm-.5-4.381v3.881h1v-3.881h-1zm4.711-.356l-4.194-.144-.034 1 4.194.143.034-.999zm.461.845c0-.096.006-.19.018-.282l-.992-.128a3.258 3.258 0 00-.026.41h1zm2.168 2.168a2.168 2.168 0 01-2.168-2.168h-1a3.168 3.168 0 003.168 3.168v-1zM573.001 179.211l.017-.5-.549-.019.033.549.499-.03zm3.698.126l.49.103.121-.582-.594-.021-.017.5zm5.254.18l.017-.5-.594-.02.082.588.495-.068zm3.786.129h.5v-.483l-.483-.017-.017.5zm0 5.803v.5l.5-.001v-.499h-.5zm0 5.336h.5v-.5h-.5v.5zm0 3.3v.5h.5v-.5h-.5zm0 5.337h.5v-.5h-.5v.5zm0 3.3v.5h.5v-.5h-.5zm0 5.336h.5v-.499l-.5-.001v.5zm0 3.301v.5h.5v-.5h-.5zm0 5.336h.5v-.5h-.5v.5zm0 7.12l-.067.495.567.077v-.572h-.5zm-4.413-.596l-.467-.179-.227.59.627.085.067-.496zm-5.147-.694l-.067.496.626.084-.062-.628-.497.048zm-3.758-.507l-.479-.141-.165.559.577.078.067-.496zm-5.227-.705l-.067.496.577.078-.01-.583-.5.009zm-3.696-.498h-.5v.437l.433.058.067-.495zm0-5.22v-.5h-.5v.5h.5zm0-5.336h-.5v.5h.5v-.5zm0-3.828v-.5h-.5v.5h.5zm0-5.336h-.5v.5h.5v-.5zm0-3.828v-.5h-.5v.5h.5zm0-5.336h-.5v.5h.5v-.5zm0-3.828v-.5h-.5v.5h.5zm0-5.336h-.5v.5h.5v-.5zm0-3.881l.017-.499-.517-.018v.517h.5zm4.194.143l.496.065.07-.545-.549-.019-.017.499zm4.814.346a2.168 2.168 0 01-2.168 2.168v1a3.168 3.168 0 003.168-3.168h-1zm-.004-.134c.003.044.004.089.004.134h1c0-.065-.002-.13-.006-.194l-.998.06zm4.214-.404l-3.698-.126-.034 1 3.698.126.034-1zm.427 1.049c0-.153.015-.303.046-.446l-.979-.205c-.044.21-.067.428-.067.651h1zm2.168 2.168a2.167 2.167 0 01-2.168-2.168h-1a3.168 3.168 0 003.168 3.168v-1zm2.168-2.168a2.168 2.168 0 01-2.168 2.168v1a3.168 3.168 0 003.168-3.168h-1zm-.021-.301c.014.098.021.199.021.301h1c0-.148-.011-.295-.03-.438l-.991.137zm4.298-.439l-3.786-.129-.034.999 3.786.13.034-1zm.483 6.303v-5.803h-1v5.803h1zm-2.667 2.668c0-1.197.97-2.168 2.167-2.168l-.001-1a3.168 3.168 0 00-3.166 3.168h1zm2.167 2.168a2.168 2.168 0 01-2.167-2.168h-1a3.168 3.168 0 003.166 3.168l.001-1zm.5 3.8v-3.3h-1v3.3h1zm-2.667 2.669a2.17 2.17 0 012.167-2.169l-.001-1a3.169 3.169 0 00-3.166 3.169h1zm2.167 2.168a2.169 2.169 0 01-2.167-2.168h-1a3.168 3.168 0 003.166 3.168l.001-1zm.5 3.8v-3.3h-1v3.3h1zm-2.667 2.668c0-1.197.97-2.167 2.167-2.168l-.001-1a3.168 3.168 0 00-3.166 3.168h1zm2.167 2.168a2.168 2.168 0 01-2.167-2.168h-1a3.168 3.168 0 003.166 3.168l.001-1zm.5 3.801v-3.301h-1v3.301h1zm-2.667 2.668c0-1.197.97-2.167 2.167-2.168l-.001-1a3.168 3.168 0 00-3.166 3.168h1zm2.167 2.168a2.168 2.168 0 01-2.167-2.168h-1a3.168 3.168 0 003.166 3.168l.001-1zm.5 7.62v-7.12h-1v7.12h1zm-4.98-.1l4.413.595.134-.991-4.413-.595-.134.991zm-.257-1.452c0 .275-.051.537-.143.777l.933.359c.136-.353.21-.737.21-1.136h-1zm-2.168-2.168c1.197 0 2.168.971 2.168 2.168h1a3.168 3.168 0 00-3.168-3.168v1zm-2.168 2.168c0-1.197.971-2.168 2.168-2.168v-1a3.168 3.168 0 00-3.168 3.168h1zm.01.214a2.514 2.514 0 01-.01-.214h-1c0 .105.005.208.015.311l.995-.097zm-4.322.037l3.758.507.134-.991-3.758-.507-.134.991zm-.325-1.251c0 .214-.03.42-.087.614l.959.283c.084-.285.128-.586.128-.897h-1zm-2.168-2.168c1.198 0 2.168.971 2.168 2.168h1a3.168 3.168 0 00-3.168-3.168v1zm-2.168 2.168c0-1.197.971-2.168 2.168-2.168v-1a3.169 3.169 0 00-3.168 3.168h1zm.001.041l-.001-.041h-1l.001.059 1-.018zm-4.263.006l3.696.499.134-.991-3.696-.499-.134.991zm-.433-5.715v5.22h1v-5.22h-1zm.5-.5v1-1zm2.168-2.168c0 1.198-.97 2.168-2.168 2.168v1a3.168 3.168 0 003.168-3.168h-1zm-2.168-2.168c1.198 0 2.168.971 2.168 2.168h1a3.168 3.168 0 00-3.168-3.168v1zm0 0v-1 1zm-.5-4.328v3.828h1v-3.828h-1zm.5-.5v1-1zm2.168-2.168c0 1.198-.97 2.168-2.168 2.168v1a3.168 3.168 0 003.168-3.168h-1zm-2.168-2.168c1.198 0 2.168.971 2.168 2.168h1a3.168 3.168 0 00-3.168-3.168v1zm0 0v-1 1zm-.5-4.328v3.828h1v-3.828h-1zm.5-.5v1-1zm2.168-2.168c0 1.198-.97 2.168-2.168 2.168v1a3.168 3.168 0 003.168-3.168h-1zm-2.168-2.168c1.198 0 2.168.971 2.168 2.168h1a3.168 3.168 0 00-3.168-3.168v1zm0 0v-1 1zm-.5-4.328v3.828h1v-3.828h-1zm.5-.5v1-1zm2.168-2.168c0 1.198-.97 2.168-2.168 2.168v1a3.168 3.168 0 003.168-3.168h-1zm-2.168-2.168c1.198 0 2.168.971 2.168 2.168h1a3.168 3.168 0 00-3.168-3.168v1zm0 0v-1 1zm-.5-4.381v3.881h1v-3.881h-1zm4.711-.356l-4.194-.143-.034.999 4.194.143.034-.999zm.461.845c0-.096.006-.19.018-.281l-.992-.129a3.27 3.27 0 00-.026.41h1zm2.168 2.168a2.168 2.168 0 01-2.168-2.168h-1a3.168 3.168 0 003.168 3.168v-1zM487.623 174.463l.017-.5-.549-.019.033.549.499-.03zm3.366.115l.49.102.121-.582-.594-.02-.017.5zm4.783.163l.017-.499-.594-.021.081.589.496-.069zm3.445.118h.5v-.483l-.483-.017-.017.5zm0 5.282v.5h.5v-.5h-.5zm0 4.857h.5v-.5h-.5v.5zm0 3.004v.5h.5v-.5h-.5zm0 4.857h.5v-.499l-.5-.001v.5zm0 3.005v.5l.5-.001v-.499h-.5zm0 4.857h.5v-.5h-.5v.5zm0 3.004v.5h.5v-.5h-.5zm0 4.857h.5v-.5h-.5v.5zm0 6.48l-.05.498.55.056v-.554h-.5zm-4.071-.411l-.456-.207-.286.634.692.07.05-.497zm-4.583-.464l-.05.497.691.07-.153-.677-.488.11zm-3.25-.329l-.473-.162-.205.596.627.064.051-.498zm-4.707-.476l-.051.497.627.064-.08-.624-.496.063zm-3.633-.368h-.5v.452l.45.046.05-.498zm0-5.433v-.5h-.5v.5h.5zm0-4.857h-.5v.5h.5v-.5zm0-3.484v-.5h-.5v.5h.5zm0-4.857h-.5v.5h.5v-.5zm0-3.485v-.5h-.5v.5h.5zm0-4.857h-.5v.5h.5v-.5zm0-3.484v-.5h-.5v.5h.5zm0-4.857h-.5v.5h.5v-.5zm0-3.533l.017-.499-.517-.018v.517h.5zm3.818.131l.495.064.071-.545-.549-.019-.017.5zm4.337.314a1.93 1.93 0 01-1.929 1.929v1a2.93 2.93 0 002.929-2.929h-1zm-.004-.119c.002.039.004.079.004.119h1c0-.06-.002-.12-.006-.179l-.998.06zm3.882-.415l-3.366-.115-.034 1 3.366.115.034-1zm.432 1c0-.137.014-.27.041-.398l-.979-.205a2.93 2.93 0 00-.062.603h1zm1.928 1.928a1.928 1.928 0 01-1.928-1.928h-1a2.928 2.928 0 002.928 2.928v-1zm1.929-1.928a1.929 1.929 0 01-1.929 1.928v1a2.928 2.928 0 002.929-2.928h-1zm-.019-.268c.012.087.019.177.019.268h1c0-.137-.01-.273-.028-.405l-.991.137zm3.958-.451l-3.445-.117-.035.999 3.446.118.034-1zm.483 5.782v-5.282h-1v5.282h1zm-2.427 2.428c0-1.064.863-1.928 1.927-1.928v-1a2.929 2.929 0 00-2.927 2.928h1zm1.927 1.929a1.929 1.929 0 01-1.927-1.929h-1a2.929 2.929 0 002.927 2.929v-1zm.5 3.504v-3.004h-1v3.004h1zm-2.427 2.429c0-1.065.863-1.928 1.927-1.929v-1a2.929 2.929 0 00-2.927 2.929h1zm1.927 1.928a1.928 1.928 0 01-1.927-1.928h-1a2.928 2.928 0 002.927 2.928v-1zm.5 3.505v-3.005h-1v3.005h1zm-2.427 2.428c0-1.065.863-1.928 1.927-1.928v-1a2.927 2.927 0 00-2.927 2.928h1zm1.927 1.929a1.929 1.929 0 01-1.927-1.929h-1a2.929 2.929 0 002.927 2.929v-1zm.5 3.504v-3.004h-1v3.004h1zm-2.427 2.428c0-1.064.863-1.928 1.927-1.928v-1a2.929 2.929 0 00-2.927 2.928h1zm1.927 1.929a1.929 1.929 0 01-1.927-1.929h-1a2.929 2.929 0 002.927 2.929v-1zm.5 6.98v-6.48h-1v6.48h1zm-4.621.086l4.071.412.101-.995-4.072-.412-.1.995zm-.235-1.498c0 .284-.061.553-.171.794l.912.413c.166-.369.259-.778.259-1.207h-1zm-1.929-1.928c1.065 0 1.929.863 1.929 1.928h1a2.928 2.928 0 00-2.929-2.928v1zm-1.928 1.928c0-1.065.863-1.928 1.928-1.928v-1a2.928 2.928 0 00-2.928 2.928h1zm.047.427a1.934 1.934 0 01-.047-.427h-1c0 .222.025.439.072.647l.975-.22zm-3.789.279l3.251.328.101-.994-3.251-.329-.101.995zm-.319-1.285c0 .219-.036.43-.103.625l.946.324c.102-.298.157-.618.157-.949h-1zm-1.928-1.929c1.065 0 1.928.864 1.928 1.929h1a2.928 2.928 0 00-2.928-2.929v1zm-1.929 1.929c0-1.065.863-1.929 1.929-1.929v-1a2.929 2.929 0 00-2.929 2.929h1zm.016.248a1.845 1.845 0 01-.016-.248h-1c0 .126.008.252.024.374l.992-.126zm-4.179.193l3.632.367.101-.995-3.633-.367-.1.995zm-.45-5.931v5.433h1v-5.433h-1zm.5-.5v1-1zm1.929-1.928a1.929 1.929 0 01-1.929 1.928v1a2.928 2.928 0 002.929-2.928h-1zm-1.929-1.929c1.065 0 1.929.863 1.929 1.929h1a2.929 2.929 0 00-2.929-2.929v1zm0 0v-1 1zm-.5-3.984v3.484h1v-3.484h-1zm.5-.5v1-1zm1.929-1.929a1.93 1.93 0 01-1.929 1.929v1a2.929 2.929 0 002.929-2.929h-1zm-1.929-1.928c1.065 0 1.929.863 1.929 1.928h1a2.928 2.928 0 00-2.929-2.928v1zm0 0v-1 1zm-.5-3.985v3.485h1v-3.485h-1zm.5-.5v1-1zm1.929-1.928a1.929 1.929 0 01-1.929 1.928v1a2.928 2.928 0 002.929-2.928h-1zm-1.929-1.929a1.93 1.93 0 011.929 1.929h1a2.929 2.929 0 00-2.929-2.929v1zm0 0v-1 1zm-.5-3.984v3.484h1v-3.484h-1zm.5-.5v1-1zm1.929-1.929a1.929 1.929 0 01-1.929 1.929v1a2.929 2.929 0 002.929-2.929h-1zm-1.929-1.928c1.065 0 1.929.863 1.929 1.928h1a2.928 2.928 0 00-2.929-2.928v1zm0 0v-1 1zm-.5-4.033v3.533h1v-3.533h-1zm4.335-.369l-3.818-.13-.034.999 3.818.131.034-1zm.462.814c0-.085.006-.168.016-.25l-.991-.128a2.95 2.95 0 00-.025.378h1zm1.929 1.929a1.93 1.93 0 01-1.929-1.929h-1a2.93 2.93 0 002.929 2.929v-1zM572.976 109.885l-.028-.5-.7.039.265.65.463-.189zm3.937-.22l.48.138.195-.676-.703.039.028.499zm5.031-.28l-.028-.5-.704.04.27.651.462-.191zm3.961-.221h.5v-.529l-.528.029.028.5zm0 5.803l.001.5.499-.001v-.499h-.5zm0 5.336h.5v-.5h-.499l-.001.5zm0 3.3l.001.5h.499v-.5h-.5zm0 5.336h.5v-.499l-.499-.001-.001.5zm0 3.301l.001.5h.499v-.5h-.5zm0 5.336h.5v-.5h-.499l-.001.5zm0 3.301l.001.5.499-.001v-.499h-.5zm0 5.336h.5v-.5h-.499l-.001.5zm0 4.471v.5h.5v-.5h-.5zm-4.238 0l-.5.018.017.482h.483v-.5zm-5.333 0v.5h.483l.017-.482-.5-.018zm-3.64 0l-.499.018.017.482h.482v-.5zm-5.332 0v.5h.482l.017-.482-.499-.018zm-3.697 0h-.5v.5h.5v-.5zm0-2.571v-.5h-.5v.5h.5zm0-5.336h-.5v.5h.5v-.5zm0-3.828v-.5h-.5v.5h.5zm0-5.336h-.5v.5h.5v-.5zm0-3.828v-.5h-.5v.5h.5zm0-5.336h-.5v.5h.5v-.5zm0-3.828v-.5h-.5v.5h.5zm0-5.336h-.5v.5h.5v-.5zm0-4.881l-.028-.499-.472.026v.473h.5zm4.272-.238l.481.136.19-.675-.699.039.028.5zm4.736.726a2.168 2.168 0 01-2.169 2.168v1a3.168 3.168 0 003.169-3.168h-1zm-.16-.818c.103.252.16.528.16.818h1c0-.422-.083-.826-.234-1.196l-.926.378zm4.372-.908l-3.937.219.056.999 3.936-.22-.055-.998zm.424 1.238c0-.209.03-.411.084-.601l-.961-.276c-.08.279-.123.573-.123.877h1zm2.168 2.168a2.168 2.168 0 01-2.168-2.168h-1a3.168 3.168 0 003.168 3.168v-1zm2.168-2.168c0 1.197-.97 2.168-2.168 2.168v1a3.168 3.168 0 003.168-3.168h-1zm-.163-.828c.105.254.163.533.163.828h1c0-.428-.085-.837-.239-1.211l-.924.383zm4.395-.912l-3.961.221.055.999 3.962-.221-.056-.999zm.528 6.303v-5.803h-1v5.803h1zm-2.666 2.668c0-1.197.97-2.168 2.167-2.168l-.001-1a3.168 3.168 0 00-3.166 3.168h1zm2.167 2.168a2.168 2.168 0 01-2.167-2.168h-1a3.168 3.168 0 003.166 3.168l.001-1zm.499 3.8v-3.3h-1v3.3h1zm-2.666 2.668c0-1.197.97-2.167 2.167-2.168l-.001-1a3.168 3.168 0 00-3.166 3.168h1zm2.167 2.168a2.168 2.168 0 01-2.167-2.168h-1a3.168 3.168 0 003.166 3.168l.001-1zm.499 3.801v-3.301h-1v3.301h1zm-2.666 2.668c0-1.197.97-2.167 2.167-2.168l-.001-1a3.168 3.168 0 00-3.166 3.168h1zm2.167 2.168a2.168 2.168 0 01-2.167-2.168h-1a3.168 3.168 0 003.166 3.168l.001-1zm.499 3.801v-3.301h-1v3.301h1zm-2.666 2.668c0-1.197.97-2.168 2.167-2.168l-.001-1a3.168 3.168 0 00-3.166 3.168h1zm2.167 2.168a2.168 2.168 0 01-2.167-2.168h-1a3.168 3.168 0 003.166 3.168l.001-1zm.499 4.971v-4.471h-1v4.471h1zm-4.738.5h4.238v-1h-4.238v1zm-2.666-2.571c1.17 0 2.125.928 2.166 2.089l1-.036a3.169 3.169 0 00-3.166-3.053v1zm-2.167 2.089a2.168 2.168 0 012.167-2.089v-1a3.167 3.167 0 00-3.166 3.053l.999.036zm-4.14.482h3.64v-1h-3.64v1zm-2.666-2.571c1.171 0 2.125.928 2.167 2.089l.999-.036a3.169 3.169 0 00-3.166-3.053v1zm-2.167 2.089a2.168 2.168 0 012.167-2.089v-1a3.169 3.169 0 00-3.166 3.053l.999.036zm-4.196.482h3.697v-1h-3.697v1zm-.5-3.071v2.571h1v-2.571h-1zm.5-.5v1-1zm2.168-2.168a2.168 2.168 0 01-2.168 2.168v1a3.168 3.168 0 003.168-3.168h-1zm-2.168-2.168c1.197 0 2.168.971 2.168 2.168h1a3.168 3.168 0 00-3.168-3.168v1zm0 0v-1 1zm-.5-4.328v3.828h1v-3.828h-1zm.5-.5v1-1zm2.168-2.168a2.168 2.168 0 01-2.168 2.168v1a3.168 3.168 0 003.168-3.168h-1zm-2.168-2.168c1.197 0 2.168.971 2.168 2.168h1a3.168 3.168 0 00-3.168-3.168v1zm0 0v-1 1zm-.5-4.328v3.828h1v-3.828h-1zm.5-.5v1-1zm2.168-2.168a2.168 2.168 0 01-2.168 2.168v1a3.168 3.168 0 003.168-3.168h-1zm-2.168-2.168c1.197 0 2.168.971 2.168 2.168h1a3.168 3.168 0 00-3.168-3.168v1zm0 0v-1 1zm-.5-4.328v3.828h1v-3.828h-1zm.5-.5v1-1zm2.168-2.168a2.168 2.168 0 01-2.168 2.168v1a3.168 3.168 0 003.168-3.168h-1zm-2.168-2.168c1.197 0 2.168.971 2.168 2.168h1a3.168 3.168 0 00-3.168-3.168v1zm0 0v-1 1zm-.5-5.381v4.881h1v-4.881h-1zm4.744-.738l-4.272.239.055.998 4.272-.238-.055-.999zm.427 1.226c0-.205.029-.403.082-.59l-.963-.272a3.193 3.193 0 00-.119.862h1zm2.168 2.168a2.168 2.168 0 01-2.168-2.168h-1a3.168 3.168 0 003.168 3.168v-1zM650.331 107.794l-.028-.499-.7.039.265.649.463-.189zm3.937-.22l.481.138.194-.676-.703.039.028.499zm5.031-.28l-.028-.5-.703.04.269.651.462-.191zm3.962-.221h.5v-.529l-.528.03.028.499zm0 5.803v.5l.5-.001v-.499h-.5zm0 5.336h.5v-.5h-.5v.5zm0 3.3v.5h.5v-.5h-.5zm0 5.337h.5v-.5h-.5v.5zm0 3.3v.5h.5v-.5h-.5zm0 5.336h.5v-.499l-.5-.001v.5zm0 3.301v.5h.5v-.5h-.5zm0 5.336h.5v-.5h-.5v.5zm0 4.471v.5h.5v-.5h-.5zm-4.239 0l-.499.018.017.482h.482v-.5zm-5.332 0v.5h.482l.017-.482-.499-.018zm-3.64 0l-.5.018.017.482h.483v-.5zm-5.333 0v.5h.483l.017-.482-.5-.018zm-3.697 0h-.5v.5h.5v-.5zm0-2.571v-.5h-.5v.5h.5zm0-5.336h-.5v.5h.5v-.5zm0-3.828v-.5h-.5v.5h.5zm0-5.336h-.5v.5h.5v-.5zm0-3.828v-.5h-.5v.5h.5zm0-5.336h-.5v.5h.5v-.5zm0-3.828v-.5h-.5v.5h.5zm0-5.336h-.5v.5h.5v-.5zm0-4.881l-.028-.499-.472.026v.473h.5zm4.272-.238l.481.136.191-.674-.7.039.028.499zm4.736.727a2.168 2.168 0 01-2.168 2.168v1a3.168 3.168 0 003.168-3.168h-1zm-.16-.819c.103.252.16.528.16.819h1a3.16 3.16 0 00-.234-1.197l-.926.378zm4.372-.908l-3.937.22.056.998 3.937-.22-.056-.998zm.425 1.238c0-.209.029-.41.084-.601l-.961-.276a3.14 3.14 0 00-.123.877h1zm2.168 2.168a2.168 2.168 0 01-2.168-2.168h-1a3.168 3.168 0 003.168 3.168v-1zm2.168-2.168a2.168 2.168 0 01-2.168 2.168v1a3.168 3.168 0 003.168-3.168h-1zm-.164-.828c.105.254.164.534.164.828h1c0-.428-.085-.837-.24-1.21l-.924.382zm4.396-.911l-3.962.22.056.999 3.962-.221-.056-.998zm.528 6.302v-5.803h-1v5.803h1zm-2.667 2.668c0-1.197.97-2.168 2.167-2.168l-.001-1a3.168 3.168 0 00-3.166 3.168h1zm2.167 2.168a2.168 2.168 0 01-2.167-2.168h-1a3.168 3.168 0 003.166 3.168l.001-1zm.5 3.8v-3.3h-1v3.3h1zm-2.667 2.668c0-1.196.97-2.167 2.167-2.168l-.001-1a3.168 3.168 0 00-3.166 3.168h1zm2.167 2.169a2.17 2.17 0 01-2.167-2.169h-1a3.169 3.169 0 003.166 3.169l.001-1zm.5 3.8v-3.3h-1v3.3h1zm-2.667 2.668c0-1.197.97-2.167 2.167-2.168l-.001-1a3.168 3.168 0 00-3.166 3.168h1zm2.167 2.168a2.168 2.168 0 01-2.167-2.168h-1a3.168 3.168 0 003.166 3.168l.001-1zm.5 3.801v-3.301h-1v3.301h1zm-2.667 2.668c0-1.197.97-2.167 2.167-2.168l-.001-1a3.168 3.168 0 00-3.166 3.168h1zm2.167 2.168a2.168 2.168 0 01-2.167-2.168h-1a3.168 3.168 0 003.166 3.168l.001-1zm.5 4.971v-4.471h-1v4.471h1zm-4.739.5h4.239v-1h-4.239v1zm-2.666-2.571a2.17 2.17 0 012.167 2.089l.999-.036a3.169 3.169 0 00-3.166-3.053v1zm-2.167 2.089a2.17 2.17 0 012.167-2.089v-1a3.169 3.169 0 00-3.166 3.053l.999.036zm-4.139.482h3.64v-1h-3.64v1zm-2.667-2.571c1.171 0 2.126.929 2.167 2.089l.999-.036a3.167 3.167 0 00-3.166-3.053v1zm-2.166 2.089a2.168 2.168 0 012.166-2.089v-1a3.169 3.169 0 00-3.166 3.053l1 .036zm-4.197.482h3.697v-1h-3.697v1zm-.5-3.071v2.571h1v-2.571h-1zm.5-.5v1-1zm2.168-2.168c0 1.198-.97 2.168-2.168 2.168v1a3.168 3.168 0 003.168-3.168h-1zm-2.168-2.168c1.198 0 2.168.971 2.168 2.168h1a3.168 3.168 0 00-3.168-3.168v1zm0 0v-1 1zm-.5-4.328v3.828h1v-3.828h-1zm.5-.5v1-1zm2.168-2.168c0 1.198-.97 2.168-2.168 2.168v1a3.168 3.168 0 003.168-3.168h-1zm-2.168-2.168c1.198 0 2.168.971 2.168 2.168h1a3.168 3.168 0 00-3.168-3.168v1zm0 0v-1 1zm-.5-4.328v3.828h1v-3.828h-1zm.5-.5v1-1zm2.168-2.168c0 1.198-.97 2.168-2.168 2.168v1a3.168 3.168 0 003.168-3.168h-1zm-2.168-2.168c1.198 0 2.168.971 2.168 2.168h1a3.168 3.168 0 00-3.168-3.168v1zm0 0v-1 1zm-.5-4.328v3.828h1v-3.828h-1zm.5-.5v1-1zm2.168-2.168c0 1.198-.97 2.168-2.168 2.168v1a3.168 3.168 0 003.168-3.168h-1zm-2.168-2.168c1.198 0 2.168.971 2.168 2.168h1a3.168 3.168 0 00-3.168-3.168v1zm0 0v-1 1zm-.5-5.381v4.881h1v-4.881h-1zm4.744-.737l-4.272.238.056.998 4.272-.238-.056-.998zm.428 1.226c0-.206.028-.404.081-.591l-.962-.272a3.155 3.155 0 00-.119.863h1zm2.168 2.168a2.168 2.168 0 01-2.168-2.168h-1a3.168 3.168 0 003.168 3.168v-1zM521.659 220.474v-43.31l19.408-.447v45.45l-19.408-1.693z"/><path fill="#fff" stroke="#03224C" d="M524.063 187.422a6.877 6.877 0 017.193-6.87 7.548 7.548 0 017.202 7.54V218.2a.5.5 0 01-.548.498l-13.395-1.283a.5.5 0 01-.452-.497v-29.496z"/><path stroke="#03224C" d="M531.26 181.066v36.735"/><path fill="#F1F1F1" d="M519.494 173.521l2.066 3.659 19.289.426 2.543-3.372-23.898-.713z"/><path fill="#03224C" d="M518.121 172.655a.5.5 0 00-.037.999l.037-.999zm26.269 1.994a.501.501 0 00.038-1l-.038 1zm-26.306-.995l26.306.995.038-1-26.307-.994-.037.999zM518.443 219.903a.5.5 0 00-.102.995l.102-.995zm24.352 3.499a.5.5 0 00.102-.995l-.102.995zm-24.454-2.504l24.454 2.504.102-.995-24.454-2.504-.102.995zM520.758 176.209a.5.5 0 10-.049.998l.049-.998zm20.799 2.015a.5.5 0 10.049-.999l-.049.999zm-20.848-1.017l20.848 1.017.049-.999-20.848-1.016-.049.998z"/><path fill="#F1F1F1" d="M606.942 227.845v-45.484l19.408-.446v47.624l-19.408-1.694z"/><path fill="#fff" stroke="#03224C" d="M609.346 192.955a7.197 7.197 0 1114.394-.001v32.444a.5.5 0 01-.547.498l-13.395-1.283a.5.5 0 01-.452-.498v-31.16z"/><path stroke="#03224C" d="M616.543 186.264v38.735"/><path fill="#F1F1F1" d="M604.777 178.719l2.065 3.659 19.289.426 2.544-3.373-23.898-.712z"/><path fill="#03224C" d="M603.404 177.852a.5.5 0 00-.038 1l.038-1zm26.269 1.994a.499.499 0 10.038-.999l-.038.999zm-26.307-.994l26.307.994.038-.999-26.307-.995-.038 1zM603.726 227.1a.501.501 0 00-.102.995l.102-.995zm24.352 3.499a.501.501 0 00.102-.995l-.102.995zm-24.454-2.504l24.454 2.504.102-.995-24.454-2.504-.102.995zM606.04 181.406a.5.5 0 00-.048.999l.048-.999zm20.8 2.016a.5.5 0 00.049-.999l-.049.999zm-20.848-1.017l20.848 1.017.049-.999-20.849-1.017-.048.999z"/><path fill="#F1F1F1" d="M443.924 213.969v-40.548l17.079 1.117v40.524l-17.079-1.093z"/><path fill="#fff" stroke="#03224C" d="M446.099 183.201a5.726 5.726 0 015.914-5.723 6.857 6.857 0 016.633 6.854v26.171a.5.5 0 01-.541.498l-11.548-.965a.5.5 0 01-.458-.499v-26.336z"/><path stroke="#03224C" d="M452.374 177.895v32.496"/><path fill="#F1F1F1" d="M441.651 170.526l2.159 3.066 17.207.814 2.222-2.847-21.588-1.033z"/><path fill="#03224C" d="M440.518 169.554a.5.5 0 10-.038.999l.038-.999zm23.678 1.9a.5.5 0 00.038-.999l-.038.999zm-23.716-.901l23.716.901.038-.999-23.716-.901-.038.999zM441.63 213.243a.5.5 0 00-.083.996l.083-.996zm21.035 2.754a.5.5 0 00.083-.997l-.083.997zm-21.118-1.758l21.118 1.758.083-.997-21.118-1.757-.083.996zM442.714 173.165a.498.498 0 00-.52.477.501.501 0 00.479.522l.041-.999zm18.692 1.829a.498.498 0 00.52-.478.502.502 0 00-.479-.521l-.041.999zm-18.733-.83l18.733.83.041-.999-18.733-.83-.041.999z"/><path fill="#F1F1F1" d="M379.937 207.232v-36.197l16.175.503v37.457l-16.175-1.763z"/><path fill="#fff" stroke="#03224C" d="M382.643 180.177a5.165 5.165 0 015.536-5.152 6.196 6.196 0 015.75 6.179v23.914a.5.5 0 01-.542.498l-10.286-.855a.5.5 0 01-.458-.498v-24.086z"/><path stroke="#03224C" d="M388.286 175.441v29.565"/><path fill="#F1F1F1" d="M378.443 166.926l1.725 3.929 15.886.629 1.651-3.464-19.262-1.094z"/><path fill="#03224C" d="M377.223 166.235a.5.5 0 10-.051.999l.051-.999zm21.601 2.107a.5.5 0 10.051-.999l-.051.999zm-21.652-1.108l21.652 1.108.051-.999-21.652-1.108-.051.999zM377.595 207.094a.5.5 0 10-.092.996l.092-.996zm20.076 2.864a.5.5 0 10.093-.996l-.093.996zm-20.168-1.868l20.168 1.868.093-.996-20.169-1.868-.092.996zM379.304 170.277a.5.5 0 00-.049.999l.049-.999zm17.353 1.859a.5.5 0 00.049-.999l-.049.999zm-17.402-.86l17.402.86.049-.999-17.402-.86-.049.999z"/><path fill="#F1F1F1" d="M379.937 148.758V114.31l16.174.464v34.536l-16.174-.552z"/><path fill="#fff" stroke="#03224C" d="M382.642 122.442a5.643 5.643 0 0111.286 0v23.277a.5.5 0 01-.509.5l-10.286-.182a.5.5 0 01-.491-.5v-23.095z"/><path stroke="#03224C" d="M388.286 116.89v28.742"/><path fill="#F1F1F1" d="M378.663 110.919l1.642 3.805h15.749l1.706-4.101-19.097.296z"/><path fill="#03224C" d="M377.29 110.396a.5.5 0 00.024 1l-.024-1zm21.664.49a.5.5 0 10-.023-1l.023 1zm-21.64.51l21.64-.51-.023-1-21.641.51.024 1zM377.965 148.658a.5.5 0 00-.022 1l.022-1zm19.785 1.423a.499.499 0 10.021-.999l-.021.999zm-19.807-.423l19.807.423.021-.999-19.806-.424-.022 1zM379.322 113.865a.496.496 0 00-.488.509.504.504 0 00.512.491l-.024-1zm17.504.687a.496.496 0 00.488-.509.504.504 0 00-.512-.491l.024 1zm-17.48.313l17.48-.313-.024-1-17.48.313.024 1z"/><path fill="#F1F1F1" d="M445.263 149.618V113.3l16.175.489V150.2l-16.175-.582z"/><path fill="#fff" stroke="#03224C" d="M447.968 121.54a5.643 5.643 0 0111.287 0v24.929a.5.5 0 01-.51.499l-10.286-.191a.5.5 0 01-.491-.5V121.54z"/><path stroke="#03224C" d="M453.612 116.02v30.302"/><path fill="#F1F1F1" d="M443.989 109.725l1.643 4.011h15.748l1.706-4.323-19.097.312z"/><path fill="#03224C" d="M442.616 109.201a.5.5 0 10.024 1l-.024-1zm21.665.462a.499.499 0 10-.025-.999l.025.999zm-21.641.538l21.641-.538-.025-.999-21.64.537.024 1zM443.292 149.54a.5.5 0 10-.023.999l.023-.999zm19.784 1.446a.5.5 0 10.022-.999l-.022.999zm-19.807-.447l19.807.447.022-.999-19.806-.447-.023.999zM444.65 112.859a.498.498 0 00-.49.509.502.502 0 00.511.49l-.021-.999zm17.501.669a.498.498 0 00.489-.509.502.502 0 00-.51-.491l.021 1zm-17.48.33l17.48-.33-.021-1-17.48.331.021.999z"/><path fill="#F1F1F1" d="M522.083 152.43v-40.719l18.135.548v40.825l-18.135-.654z"/><path fill="#fff" stroke="#03224C" d="M525.055 120.949a6.388 6.388 0 1112.776 0v28.074a.5.5 0 01-.51.5l-11.775-.22a.5.5 0 01-.491-.5v-27.854z"/><path stroke="#03224C" d="M531.444 114.76v33.976"/><path fill="#F1F1F1" d="M520.655 107.702l1.841 4.498h17.658l1.912-4.848-21.411.35z"/><path fill="#03224C" d="M519.116 107.176a.499.499 0 10.025.999l-.025-.999zm24.289.397a.5.5 0 00-.025-1l.025 1zm-24.264.602l24.264-.602-.025-1-24.264.603.025.999zM519.871 152.403a.5.5 0 00-.022 1l.022-1zm22.185 1.501a.5.5 0 10.023-1l-.023 1zm-22.207-.501l22.207.501.023-1-22.208-.501-.022 1zM521.396 111.276a.498.498 0 00-.489.509.502.502 0 00.51.491l-.021-1zm19.62.63a.5.5 0 00-.021-1l.021 1zm-19.599.37l19.599-.37-.021-1-19.599.37.021 1z"/><path fill="#F1F1F1" d="M606.674 153.212v-45.335l20.192.611v45.451l-20.192-.727z"/><path fill="#fff" stroke="#03224C" d="M609.927 118.163a7.169 7.169 0 1114.337 0v31.371a.5.5 0 01-.509.5l-13.338-.249a.5.5 0 01-.49-.5v-31.122z"/><path stroke="#03224C" d="M617.097 111.272v37.827"/><path fill="#F1F1F1" d="M605.084 103.413l2.051 5.008h19.659l2.129-5.397-23.839.389z"/><path fill="#03224C" d="M603.373 102.884a.501.501 0 00.025 1l-.025-1zm27.039.329a.5.5 0 00-.025-1l.025 1zm-27.014.671l27.014-.671-.025-1-27.014.671.025 1zM604.211 153.238a.5.5 0 00-.023 1l.023-1zm24.702 1.558a.5.5 0 00.023-1l-.023 1zm-24.725-.558l24.725.558.023-1-24.725-.558-.023 1zM605.911 107.449a.498.498 0 00-.489.509.502.502 0 00.51.491l-.021-1zm21.842.587a.498.498 0 00.489-.509.5.5 0 00-.51-.49l.021.999zm-21.821.413l21.821-.413-.021-.999-21.821.412.021 1z"/><path fill="#F1F1F1" d="M343.994 154.051l332.026 11.385v6.018l-332.026-12.929v-4.474zM675.943 94.046V87.06l-332.059 13.97v5.15l332.059-12.135zM343.94 211.43v4.981l332.003 34.214v-5.697L343.94 211.43z"/><path fill="#fff" d="M676.831 251.474V87.537h71.994v163.937h-71.994z"/><path fill="#F4D8CD" d="M749.185 251.031h-72.359v-5.892h72.359v5.892zM749.185 171.334h-72.359v-5.893h72.359v5.893zM748.893 93.908h-72.359v-5.892h72.359v5.892zM698.786 184.554h26.891v48.9h-26.891z"/><path fill="#F4D8CD" d="M696.681 181.842l2.394 3.237h26.112l2.606-3.237h-31.112z"/><path stroke="#03224C" stroke-linecap="round" d="M692.407 181.303h39.653M692.407 233.145h39.653M696.122 185.88h32.277"/><path fill="#fff" stroke="#03224C" d="M702.423 199.342a9.723 9.723 0 019.724-9.724c5.37 0 9.724 4.353 9.724 9.724v29.34a.5.5 0 01-.5.5h-18.448a.5.5 0 01-.5-.5v-29.34z"/><path stroke="#fff" stroke-linecap="round" stroke-width=".4" d="M704.802 223.113c.152.545.84 1.736 2.379 2.139M705.997 222.666c.082.296.456.942 1.291 1.161"/><path stroke="#03224C" d="M712.071 189.73v39.34"/><path fill="#F4D8CD" d="M699.787 105.929h26.891v48.367h-26.891z"/><path fill="#F4D8CD" d="M697.681 103.245l2.395 3.202h26.111l2.606-3.202h-31.112z"/><path stroke="#03224C" stroke-linecap="round" d="M693.408 102.713h39.652M693.408 153.991h39.652M697.123 107.24h32.276"/><path fill="#fff" stroke="#03224C" d="M703.423 120.667c0-5.37 4.354-9.724 9.724-9.724 5.371 0 9.724 4.354 9.724 9.724v28.899a.5.5 0 01-.5.5h-18.448a.5.5 0 01-.5-.5v-28.899z"/><path stroke="#fff" stroke-linecap="round" stroke-width=".4" d="M705.802 144.066c.152.54.84 1.718 2.379 2.116M706.998 143.626c.082.293.456.932 1.291 1.149"/><path stroke="#03224C" d="M713.072 111.049v38.911"/><path stroke="#03224C" stroke-linecap="round" stroke-linejoin="round" d="M676.719 237.079v14.092h72.551V77.536h-72.551v154.335"/><path fill="#fff" d="M749.187 250.723V88.016l111.695 33.654v97.738l-111.695 31.315z"/><path stroke="#03224C" stroke-linecap="round" stroke-linejoin="round" d="M860.714 219.732l-111.239 31.44V77.892l111.239 43.856v97.984z"/><path fill="#F4D8CD" d="M749.968 171.334v-5.981l110.253-.388v2.999l-110.253 3.37zM749.98 94.118v-5.47l110.243 33.437v3.084L749.98 94.118zM860.154 216.574l-110.166 28.564v5.312l110.166-30.413v-3.463zM704.247 59.77c0-4.615 3.896-8.27 8.501-7.975l.462.03a7.991 7.991 0 11-1.021 15.949l-.462-.03a7.99 7.99 0 01-7.48-7.974z"/><path fill="#FFF3EE" stroke="#03224C" d="M706.844 59.773a5.452 5.452 0 015.8-5.44l.344.022a5.45 5.45 0 11-.697 10.88l-.344-.022a5.452 5.452 0 01-5.103-5.44z"/><path fill="#F4D8CD" d="M608.32 66.126c0-4.615 3.897-8.27 8.501-7.975l.463.03a7.99 7.99 0 017.48 7.974c0 4.614-3.897 8.27-8.502 7.975l-.462-.03a7.991 7.991 0 01-7.48-7.974z"/><path fill="#FFF3EE" stroke="#03224C" d="M610.917 66.13a5.452 5.452 0 015.8-5.44l.344.021a5.451 5.451 0 01-.696 10.88l-.345-.021a5.452 5.452 0 01-5.103-5.44z"/><path fill="#F4D8CD" d="M783.716 82.414c0-4.615 3.897-8.27 8.502-7.975l.462.03a7.991 7.991 0 017.48 7.974c0 4.614-3.897 8.27-8.501 7.975l-.463-.03a7.991 7.991 0 01-7.48-7.974z"/><path fill="#FFF3EE" stroke="#03224C" d="M786.314 82.417a5.451 5.451 0 015.8-5.44l.344.022a5.452 5.452 0 01-.697 10.88l-.344-.021a5.451 5.451 0 01-5.103-5.44z"/><path fill="#F4D8CD" d="M823.518 97.422a6.06 6.06 0 016.446-6.047l.351.022a6.06 6.06 0 01-.775 12.095l-.35-.023a6.059 6.059 0 01-5.672-6.047z"/><path fill="#FFF3EE" stroke="#03224C" d="M825.608 97.425a4.013 4.013 0 014.269-4.005l.261.017a4.013 4.013 0 11-.513 8.009l-.261-.016a4.014 4.014 0 01-3.756-4.005z"/><path fill="#F4D8CD" d="M525.623 72.481c0-4.614 3.896-8.269 8.501-7.974l.462.03a7.99 7.99 0 017.48 7.974c0 4.614-3.896 8.27-8.501 7.975l-.462-.03a7.99 7.99 0 01-7.48-7.975z"/><path fill="#FFF3EE" stroke="#03224C" d="M528.22 72.485a5.452 5.452 0 015.8-5.44l.344.022a5.451 5.451 0 11-.697 10.88l-.344-.022a5.452 5.452 0 01-5.103-5.44z"/><path fill="#F4D8CD" d="M447.825 78.513c0-4.615 3.897-8.27 8.501-7.975l.463.03a7.991 7.991 0 017.48 7.974c0 4.614-3.897 8.27-8.502 7.975l-.462-.03a7.991 7.991 0 01-7.48-7.974z"/><path fill="#FFF3EE" stroke="#03224C" d="M450.422 78.516a5.452 5.452 0 015.8-5.44l.344.022a5.451 5.451 0 11-.697 10.88l-.344-.021a5.452 5.452 0 01-5.103-5.44z"/><path fill="#F4D8CD" d="M380.37 82.694c0-4.614 3.897-8.27 8.502-7.975l.462.03a7.991 7.991 0 017.48 7.974c0 4.615-3.897 8.27-8.502 7.975l-.462-.03a7.991 7.991 0 01-7.48-7.974z"/><path fill="#FFF3EE" stroke="#03224C" d="M382.968 82.698a5.45 5.45 0 015.799-5.44l.345.022a5.452 5.452 0 01-.697 10.88l-.344-.022a5.451 5.451 0 01-5.103-5.44z"/><path fill="#fff" d="M859.841 121.527l-.148.478.626.194.021-.655-.499-.017zM741.567 40.085l.232-.443a.665.665 0 00-.027-.013l-.205.456zM678.07 33.46l.057.497-.057-.497zM380.7 67.543l-.056-.497.056.497zm-36.122 33.146l-.5-.007-.008.527.527-.021-.019-.499zM678.07 87.443v-.5h-.02l.02.5zm71.638 0l.147-.478-.072-.022h-.075v.5zm110.632 34.101c.071-2.171-.646-6.603-2.666-11.591-2.024-5-5.373-10.604-10.606-15.09l-.651.76c5.082 4.356 8.35 9.813 10.33 14.705 1.985 4.903 2.659 9.193 2.594 11.183l.999.033zm-13.272-26.68c-2.626-2.25-8.55-5.785-16.396-10.06-7.864-4.286-17.711-9.343-28.225-14.643-21.037-10.604-44.739-22.177-60.648-30.519l-.465.886c15.918 8.346 39.646 19.932 60.663 30.526 10.512 5.299 20.347 10.35 28.197 14.627 7.869 4.288 13.692 7.773 16.223 9.942l.651-.76zM741.772 39.629c-4.948-2.231-8.286-4.087-11.384-5.582-3.085-1.49-5.865-2.583-9.571-3.214-7.371-1.255-18.373-.667-42.804 2.13l.114.993c24.47-2.801 35.319-3.363 42.522-2.137 3.582.61 6.269 1.663 9.305 3.128 3.023 1.46 6.458 3.362 11.407 5.594l.411-.912zm-63.759-6.666c-75.08 8.594-197.398 22.794-297.369 34.083l.112.993C480.728 56.751 603.05 42.55 678.127 33.956l-.114-.994zM380.644 67.046c-10.435 1.178-19.535 7.26-26.03 14.165-3.25 3.456-5.861 7.132-7.669 10.529-1.803 3.384-2.833 6.538-2.867 8.942l1 .014c.031-2.173.978-5.16 2.749-8.486 1.765-3.314 4.322-6.918 7.516-10.314 6.394-6.799 15.29-12.714 25.413-13.857l-.112-.993zm-36.047 34.142L678.09 87.943l-.04-1-333.492 13.246.039.999zM678.07 87.943h71.638v-1H678.07v1zm71.49-.022l110.133 34.084.295-.955-110.133-34.085-.295.956z"/><path fill="#DFDFDF" d="M732.76 25.82l-3.922 1.267-.356-2.24-29.407-8.2 2.121-.635v-4.737l31.564 9.316v5.229z"/><path fill="#DFDFDF" d="M728.339 24.982v7.554l-13.485-2.47h-14.686V17.073l28.171 7.908z"/><path fill="#03224C" d="M728.396 33.337V25.06l-28.379-8.177-14.43 4.33v11.231l14.43-1.37c17.63-1.443 24.658.93 28.379 2.263z"/><path stroke="#fff" d="M700.017 16.883l28.379 8.177v8.277c-3.721-1.333-10.749-3.706-28.379-2.262m0-14.192v14.192m0-14.192l-14.43 4.33v11.231l14.43-1.37"/><path fill="#FAFAFA" stroke="#03224C" d="M728.232 9.182V19.38l-7.251-2.063V7.885c.59-.452 2.24-1.25 4.127-.825 1.886.424 2.869 1.591 3.124 2.122z"/><path fill="#E2EFF2" d="M725.021 17.956V9.539l2.706.572v8.595l-2.706-.75z"/><path fill="#FAFAFA" stroke="#03224C" d="M720.968 5.897c3.594-.905 6.687.39 8.073 1.406a.889.889 0 01.347.726v1.028c0 .808-.946 1.328-1.703 1.044-2.075-.78-4.582-.921-6.348-.887a1.036 1.036 0 01-1.065-1.023V6.824c0-.433.277-.821.696-.927z"/><path fill="#fff" d="M718.805 6.628v9.74l-7.252-2.063V5.331c.59-.452 2.241-1.25 4.127-.825 1.887.424 2.869 1.592 3.125 2.122z"/><path stroke="#03224C" d="M718.874 6.293v10.374l-7.251-2.009V4.996c.589-.452 2.24-1.25 4.126-.826 1.887.425 2.87 1.592 3.125 2.123z"/><path fill="#FAFAFA" stroke="#03224C" d="M711.546 3.083c3.594-.905 6.687.39 8.073 1.406a.889.889 0 01.347.726v1.028c0 .808-.945 1.328-1.702 1.044-2.076-.78-4.583-.921-6.349-.887a1.036 1.036 0 01-1.065-1.023V4.01c0-.433.277-.821.696-.927z"/><path fill="#fff" stroke="#03224C" d="M709.515 3.5V13.96l-7.251-2.323V2.204c.589-.452 2.24-1.25 4.127-.826 1.886.425 2.869 1.592 3.124 2.123z"/><path fill="#FAFAFA" stroke="#03224C" d="M702.247.207c3.594-.905 6.687.39 8.073 1.406a.889.889 0 01.347.726v1.028c0 .808-.946 1.328-1.703 1.044-2.075-.78-4.582-.921-6.348-.887a1.036 1.036 0 01-1.065-1.023V1.134c0-.433.277-.821.696-.927z"/><path fill="#fff" stroke="#03224C" d="M685.834 6.032v10.2l7.251-2.064V4.735c-.589-.452-2.24-1.25-4.126-.825-1.887.425-2.87 1.592-3.125 2.122z"/><path fill="#FAFAFA" stroke="#03224C" d="M692.831 2.019c-3.593-.905-6.687.389-8.073 1.406a.888.888 0 00-.346.726v1.027c0 .809.945 1.329 1.702 1.045 2.075-.78 4.582-.922 6.348-.888.578.012 1.066-.445 1.066-1.023V2.945a.943.943 0 00-.697-.926z"/><path fill="#FAFAFA" stroke="#03224C" d="M693.098 3.438v10.536l7.251-2.063V2.14c-.589-.452-2.24-1.25-4.127-.826-1.886.425-2.869 1.592-3.124 2.123z"/><path fill="#FAFAFA" stroke="#03224C" d="M700.228.085c-3.593-.905-6.687.39-8.073 1.406a.888.888 0 00-.346.726v1.028c0 .808.945 1.328 1.702 1.044 2.075-.78 4.582-.921 6.348-.887.578.011 1.066-.445 1.066-1.023V1.012a.943.943 0 00-.697-.927z"/><path fill="#E2EFF2" d="M728.303 7.41c-.488-.321-1.474-.7-1.906-.85-.044.249-.155.86-.248 1.313-.093.455-.725.905-1.03 1.073.303.04.632.108.758.137.836.285 1.777.472 2.004.562.226.09.465.07.75-.125a.64.64 0 00.262-.539c-.002-.238-.003-.76 0-.941.004-.227-.164-.325-.239-.395a3.023 3.023 0 00-.351-.234zM715.671 15.448V7.135s.885.154 1.378.287c.492.133 1.327.411 1.327.411v8.417l-2.705-.802zM718.892 4.587c-.488-.321-1.474-.7-1.906-.85-.044.249-.156.859-.249 1.313-.092.454-.725.904-1.029 1.073.303.04.632.108.758.136.836.285 1.777.473 2.004.563.226.09.465.07.75-.125a.64.64 0 00.262-.54c-.002-.238-.004-.76 0-.94.003-.227-.165-.325-.239-.395a3.023 3.023 0 00-.351-.235zM706.349 12.685V4.267s.885.154 1.377.287c.492.133 1.328.411 1.328.411v8.522l-2.705-.802zM709.569 1.72c-.487-.323-1.473-.702-1.905-.85-.044.247-.156.858-.249 1.312-.093.454-.725.904-1.029 1.072.303.041.631.109.758.137.835.285 1.777.473 2.003.563.227.09.465.07.751-.125a.635.635 0 00.261-.54c-.001-.238-.003-.76 0-.94.004-.227-.164-.325-.238-.395a2.958 2.958 0 00-.352-.235z"/><path fill="#03224C" stroke="#fff" d="M733.037 26.091l-4.667 1.486v-2.391l-28.503-8.113-14.482 4.29v2.413l-3.656-.975v-5.728l19.377-5.85 31.931 9.384v5.484z"/><path stroke="#fff" stroke-linecap="round" stroke-linejoin="round" d="M704.156 31.034c-6.923 2.485-27.514 10.65-27.514 46.151m47.267-45.238c10.208 3.266 25.332 16.127 25.332 49.149m18.457-27.522c4.317 3.454 7.366 9.93 9.118 14.132m4.245 13.39c.73 1.928 2.19 7.08 2.19 12.26m15.53-24.24c3.696 3.053 12.765 19.981 13.641 37.471m19.577-20.408c2.053 1.507 7.598 8.634 9.558 15.556m2.602 9.527c.319.936 1.013 3.273 1.232 5.129m-224.09-76.278c-6.396 3.072-25.357 20.678-25.357 50.231m-35.527-43.143c-8.156 2.667-16.351 11.494-19.188 19.374m-38.157-13.052c-4.626 2.395-24.174 16.555-23.149 41.609M457.52 59.013c-8.479 3.282-24.205 19.01-26.667 38.018m-4.786-34.736c-14.907 3.009-31.591 20.514-31.591 36.924m-7.658-32.137c-5.197 1.367-25.574 11.487-28.445 33.192m231.051-56.538c-6.115 3.563-24.15 22.595-24.15 47.816m-45.933-27.748c-7.405 7.912-12.044 18.765-12.044 31.328M652.695 36.49c-4.531 2.923-20.768 21.01-20.768 52.636"/><path fill="#F4D8CD" d="M762.267 179.994l-.031-.499-.646.04.202.615.475-.156zm2.976-.186l.49.098.128-.638-.649.041.031.499zm3.866-.242l-.032-.499-.606.038.154.588.484-.127zm3.166-.198h.5v-.532l-.531.033.031.499zm0 5.53v.5h.5v-.5h-.5zm0 6.289h.5v-.5h-.5v.5zm0 3.89v.5h.5v-.5h-.5zm0 6.288h.5v-.5h-.5v.5zm0 3.89v.5h.5v-.5h-.5zm0 6.289h.5v-.5h-.5v.5zm0 3.89v.5l.5-.001v-.499h-.5zm0 6.288h.5v-.5h-.5v.5zm0 7.159l.121.485.379-.095v-.39h-.5zm-2.062.514l-.499-.034-.045.685.665-.166-.121-.485zm-3.909.975l.121.485.507-.127-.148-.501-.48.143zm-2.595.647l-.498-.041-.058.695.677-.169-.121-.485zm-3.882.968l.121.485.516-.129-.16-.507-.477.151zm-4.65 1.159h-.5v.64l.621-.154-.121-.486zm0-6.541v-.5h-.5v.5h.5zm0-6.289h-.5v.5h.5v-.5zm0-4.149v-.5h-.5v.5h.5zm0-6.289h-.5v.5h.5v-.5zm0-4.511v-.5h-.5v.5h.5zm0-6.289h-.5v.5h.5v-.5zm0-4.511v-.5h-.5v.5h.5zm0-6.289h-.5v.5h.5v-.5zm0-7.839l-.031-.499-.469.029v.47h.5zm3.357-.21l.483.128.178-.67-.693.043.032.499zm3.452 1.182c0 .786-.208 1.474-.519 1.951-.314.481-.69.694-1.032.694v1c.791 0 1.441-.491 1.869-1.148.432-.661.682-1.546.682-2.497h-1zm-.194-1.259c.123.373.194.801.194 1.259h1c0-.56-.086-1.094-.244-1.572l-.95.313zm3.42-.841l-2.976.186.062.998 2.976-.186-.062-.998zm.44 1.426c0-.29.029-.569.081-.829l-.98-.197c-.066.326-.101.67-.101 1.026h1zm1.552 2.644c-.343 0-.718-.213-1.032-.694-.311-.477-.52-1.165-.52-1.95h-1c0 .951.251 1.835.682 2.496.429.657 1.079 1.148 1.87 1.148v-1zm1.551-2.644c0 .785-.209 1.473-.52 1.95-.314.481-.689.694-1.031.694v1c.79 0 1.44-.491 1.869-1.148.431-.661.682-1.545.682-2.496h-1zm-.13-1.042c.083.318.13.67.13 1.042h1c0-.455-.057-.892-.163-1.295l-.967.253zm3.619-.824l-3.167.198.063.998 3.166-.198-.062-.998zm.531 6.029v-5.53h-1v5.53h1zm-2.051 3.145c0-.786.209-1.474.52-1.951.314-.481.689-.694 1.031-.694v-1c-.791 0-1.44.491-1.869 1.148-.431.662-.682 1.546-.682 2.497h1zm1.551 2.644c-.342 0-.717-.213-1.031-.694-.311-.477-.52-1.165-.52-1.95h-1c0 .951.251 1.835.682 2.496.429.657 1.078 1.148 1.869 1.148v-1zm.5 4.39v-3.89h-1v3.89h1zm-2.051 3.144c0-.785.209-1.473.52-1.95.314-.481.689-.694 1.031-.694v-1c-.791 0-1.44.491-1.869 1.148-.431.661-.682 1.545-.682 2.496h1zm1.551 2.644c-.342 0-.717-.213-1.031-.694-.311-.476-.52-1.165-.52-1.95h-1c0 .951.251 1.835.682 2.497.429.656 1.078 1.147 1.869 1.147v-1zm.5 4.39v-3.89h-1v3.89h1zm-2.051 3.144c0-.785.209-1.473.52-1.95.314-.481.689-.694 1.031-.694v-1c-.791 0-1.44.491-1.869 1.148-.431.661-.682 1.545-.682 2.496h1zm1.551 2.645c-.342 0-.717-.213-1.031-.694-.311-.477-.52-1.165-.52-1.951h-1c0 .951.251 1.836.682 2.497.429.657 1.078 1.148 1.869 1.148v-1zm.5 4.39v-3.89h-1v3.89h1zm-2.051 3.144c0-.786.209-1.474.52-1.95.314-.481.689-.694 1.031-.694v-1c-.791 0-1.44.49-1.869 1.147-.431.662-.682 1.546-.682 2.497h1zm1.551 2.644c-.342 0-.717-.213-1.031-.694-.311-.477-.52-1.165-.52-1.95h-1c0 .951.251 1.835.682 2.496.429.657 1.078 1.148 1.869 1.148v-1zm.5 7.659v-7.159h-1v7.159h1zm-2.441.999l2.062-.514-.242-.971-2.062.515.242.97zm-.61-.81c0 .099-.003.196-.01.291l.998.067c.008-.118.012-.237.012-.358h-1zm-1.551-2.644c.342 0 .718.213 1.032.694.31.476.519 1.165.519 1.95h1c0-.951-.25-1.835-.682-2.497-.428-.656-1.078-1.147-1.869-1.147v1zm-1.551 2.644c0-.785.208-1.474.519-1.95.314-.481.69-.694 1.032-.694v-1c-.791 0-1.441.491-1.869 1.147-.432.662-.682 1.546-.682 2.497h1zm.162 1.157a4.058 4.058 0 01-.162-1.157h-1c0 .51.071.998.203 1.442l.959-.285zm-2.954 1.275l2.595-.647-.242-.971-2.595.648.242.97zm-.604-.885c0 .122-.005.241-.015.359l.996.082c.012-.145.019-.292.019-.441h-1zm-1.552-2.644c.342 0 .718.213 1.032.694.311.477.52 1.165.52 1.95h1c0-.951-.251-1.835-.682-2.496-.429-.657-1.079-1.148-1.87-1.148v1zm-1.551 2.644c0-.785.209-1.473.52-1.95.314-.481.689-.694 1.031-.694v-1c-.79 0-1.44.491-1.869 1.148-.431.661-.682 1.545-.682 2.496h1zm.181 1.217a4.048 4.048 0 01-.181-1.217h-1c0 .54.08 1.054.227 1.518l.954-.301zm-5.006 1.796l4.65-1.16-.242-.97-4.65 1.159.242.971zm-.621-7.027v6.541h1v-6.541h-1zm2.05-3.144c0 .785-.208 1.473-.519 1.95-.314.481-.689.694-1.031.694v1c.791 0 1.44-.491 1.869-1.148.431-.661.681-1.545.681-2.496h-1zm-1.55-2.645c.342.001.717.214 1.031.695.311.476.519 1.164.519 1.95h1c0-.951-.25-1.835-.681-2.497-.429-.656-1.078-1.147-1.869-1.148v1zm-.5-4.649v4.149h1v-4.149h-1zm2.05-3.145c0 .786-.208 1.474-.519 1.95-.314.481-.689.694-1.031.695v1c.791-.001 1.44-.492 1.869-1.149.431-.661.681-1.545.681-2.496h-1zm-1.55-2.644c.342 0 .717.213 1.031.694.311.477.519 1.165.519 1.95h1c0-.951-.25-1.835-.681-2.496-.429-.657-1.078-1.148-1.869-1.148v1zm-.5-5.011v4.511h1v-4.511h-1zm2.05-3.145c0 .786-.208 1.474-.519 1.95-.314.481-.689.695-1.031.695v1c.791-.001 1.44-.492 1.869-1.148.431-.662.681-1.546.681-2.497h-1zm-1.55-2.644c.342 0 .717.213 1.031.694.311.477.519 1.165.519 1.95h1c0-.951-.25-1.835-.681-2.496-.429-.657-1.078-1.148-1.869-1.148v1zm-.5-5.011v4.511h1v-4.511h-1zm2.05-3.145c0 .786-.208 1.474-.519 1.95-.314.482-.689.695-1.031.695v1c.791-.001 1.44-.491 1.869-1.148.431-.662.681-1.546.681-2.497h-1zm-1.55-2.644c.342 0 .717.213 1.031.694.311.477.519 1.165.519 1.95h1c0-.95-.25-1.834-.681-2.496-.429-.657-1.078-1.148-1.869-1.148v1zm-.5-8.339v7.839h1v-7.839h-1zm3.825-.709l-3.356.21.062.998 3.357-.21-.063-.998zm.382 1.681c0-.376.048-.732.133-1.054l-.967-.256c-.108.408-.166.85-.166 1.31h1zm1.551 2.645c-.342 0-.718-.213-1.032-.694-.311-.477-.519-1.165-.519-1.951h-1c0 .951.25 1.836.682 2.497.428.657 1.078 1.148 1.869 1.148v-1zM812.124 178.126h.5v-.001l-.5.001zm0-.004l-.04-.498-.46.037v.461h.5zm2.209-.178l.499-.037-.037-.502-.502.04.04.499zm3.377-.267h.5-.5zm0-.006l-.041-.499-.46.038.001.461h.5zm2.493-.202h.5v-.542l-.54.044.04.498zm0 2.926v.5h.5v-.5h-.5zm0 4.967h.5v-.5h-.5v.5zm0 3.071v.5h.5v-.5h-.5zm0 4.967h.5v-.5h-.5v.5zm0 3.071v.5l.5-.001v-.499h-.5zm0 4.966h.5v-.5h-.5v.5zm0 3.073v.5h.5v-.5h-.5zm0 4.966h.5v-.5h-.5v.5zm0 5.456l.13.482.37-.099v-.383h-.5zm-1.915.517l-.498.043.051.595.577-.156-.13-.482zm-3.326.897l.13.483.436-.118-.073-.445-.493.08zm-2.207.596l-.498.047.056.59.572-.154-.13-.483zm-3.328.898l.13.483.433-.117-.069-.443-.494.077zm-3.336.9h-.5v.653l.631-.17-.131-.483zm0-5.41v-.5l-.5.001v.499h.5zm0-4.966h-.5v.5h.5v-.5zm0-3.277v-.5h-.5v.5h.5zm0-4.966h-.5v.5h.5v-.5zm0-3.564v-.5h-.5v.5h.5zm0-4.966h-.5v.5h.5v-.5zm0-3.562v-.5h-.5v.5h.5zm0-4.967h-.5v.5h.5v-.5zm0-4.452l-.04-.499-.46.038v.461h.5zm2.657-.215l.499-.037-.037-.502-.502.041.04.498zm2.876-.269c0 .598-.166 1.118-.409 1.474-.244.358-.53.509-.784.509v1c.682 0 1.242-.406 1.61-.946.37-.543.583-1.265.583-2.037h-1zm0-.004v.004l1-.001v-.003h-1zm2.669-.677l-2.209.179.08.997 2.21-.179-.081-.997zm1.724 2.215c-.238 0-.502-.131-.736-.442-.234-.31-.41-.769-.449-1.311l-.997.073c.051.704.281 1.354.647 1.84s.899.84 1.535.84v-1zm1.193-1.983c0 .599-.167 1.118-.409 1.474-.245.359-.531.509-.784.509v1c.681 0 1.242-.405 1.61-.945.37-.543.583-1.265.583-2.038h-1zm0-.006v.007l1-.001v-.007l-1 .001zm2.953-.7l-2.494.201.081.997 2.493-.201-.08-.997zm.54 3.424v-2.926h-1v2.926h1zm-1.693 2.483c0-.598.166-1.118.409-1.474.245-.358.53-.509.784-.509v-1c-.682 0-1.242.406-1.61.946-.37.543-.583 1.265-.583 2.037h1zm1.193 1.984c-.254 0-.539-.151-.784-.509-.243-.356-.409-.876-.409-1.475h-1c0 .773.213 1.495.583 2.038.368.54.928.945 1.61.946v-1zm.5 3.571v-3.071h-1v3.071h1zm-1.693 2.484c0-.599.166-1.119.409-1.475.245-.358.53-.509.784-.509v-1c-.682.001-1.242.406-1.61.946-.37.543-.583 1.265-.583 2.038h1zm1.193 1.983c-.254 0-.539-.151-.784-.509-.243-.356-.409-.876-.409-1.474h-1c0 .772.213 1.494.583 2.037.368.54.928.946 1.61.946v-1zm.5 3.571V193.4h-1v3.071h1zm-1.693 2.483c0-.599.166-1.118.409-1.474.245-.359.53-.509.784-.509v-1c-.682 0-1.242.405-1.61.945-.37.543-.583 1.265-.583 2.038h1zm1.193 1.983c-.254 0-.539-.151-.784-.509-.243-.356-.409-.876-.409-1.474h-1c0 .773.213 1.494.583 2.037.368.54.928.946 1.61.946v-1zm.5 3.573v-3.073h-1v3.073h1zm-1.693 2.483c0-.599.166-1.118.409-1.474.245-.359.53-.509.784-.509v-1c-.682 0-1.242.405-1.61.945-.37.543-.583 1.265-.583 2.038h1zm1.193 1.983c-.254 0-.539-.151-.784-.509-.243-.356-.409-.876-.409-1.474h-1c0 .773.213 1.494.583 2.037.368.54.928.946 1.61.946v-1zm.5 5.956v-5.456h-1v5.456h1zm-2.285.999l1.915-.517-.26-.965-1.916.517.261.965zm-1.809-2.147c.234 0 .494.127.726.429.232.302.408.749.455 1.279l.996-.087c-.061-.69-.293-1.326-.659-1.801-.365-.475-.892-.82-1.518-.82v1zm-1.193 1.983c0-.598.166-1.118.409-1.474.244-.359.53-.509.784-.509v-1c-.682 0-1.242.406-1.611.946-.37.542-.582 1.264-.582 2.037h1zm.039.499a3.096 3.096 0 01-.039-.499h-1c0 .226.018.447.052.66l.987-.161zm-2.57 1.159l2.207-.596-.26-.965-2.208.595.261.966zm-1.807-2.12c.233 0 .49.125.721.422.231.298.408.738.458 1.262l.996-.094c-.065-.684-.299-1.312-.664-1.781-.365-.47-.889-.809-1.511-.809v1zm-1.193 1.983c0-.599.166-1.118.409-1.474.245-.359.531-.509.784-.509v-1c-.681 0-1.242.405-1.61.945-.37.543-.583 1.265-.583 2.038h1zm.036.475a3.176 3.176 0 01-.036-.475h-1c0 .215.017.425.048.628l.988-.153zm-3.699 1.46l3.335-.9-.26-.966-3.336.901.261.965zm-.631-5.893v5.41h1v-5.41h-1zm1.693-2.483c0 .599-.167 1.118-.409 1.474-.245.359-.531.509-.784.509v1c.682 0 1.242-.405 1.61-.946.37-.542.583-1.264.583-2.037h-1zm-1.193-1.983c.253 0 .539.151.784.509.242.356.409.876.409 1.474h1c0-.773-.213-1.494-.583-2.037-.368-.54-.928-.946-1.61-.946v1zm-.5-3.777v3.277h1v-3.277h-1zm1.693-2.483c0 .598-.167 1.118-.409 1.474-.245.359-.531.509-.784.509v1c.682 0 1.242-.406 1.61-.946.37-.542.583-1.264.583-2.037h-1zm-1.193-1.983c.253 0 .539.15.784.509.242.356.409.876.409 1.474h1c0-.773-.213-1.495-.583-2.037-.368-.54-.928-.946-1.61-.946v1zm-.5-4.064v3.564h1v-3.564h-1zm1.693-2.483c0 .598-.167 1.118-.409 1.474-.245.358-.531.509-.784.509v1c.681 0 1.242-.406 1.61-.946.37-.543.583-1.264.583-2.037h-1zm-1.193-1.983c.253 0 .539.15.784.509.242.356.409.875.409 1.474h1c0-.773-.213-1.495-.583-2.038-.368-.54-.929-.945-1.61-.945v1zm-.5-4.062v3.562h1v-3.562h-1zm1.693-2.484c0 .599-.167 1.119-.409 1.475-.245.358-.531.509-.784.509v1c.681-.001 1.242-.406 1.61-.946.37-.543.583-1.265.583-2.038h-1zm-1.193-1.983c.253 0 .539.151.784.509.242.356.409.876.409 1.474h1c0-.772-.213-1.494-.583-2.037-.368-.54-.929-.946-1.61-.946v1zm-.5-4.952v4.452h1v-4.452h-1zm3.117-.713l-2.657.214.08.997 2.657-.215-.08-.996zm1.723 2.212c-.237 0-.501-.131-.735-.442-.234-.31-.409-.768-.449-1.309l-.998.074c.052.703.282 1.352.648 1.838.367.485.899.839 1.534.839v-1zM851.088 175.792h.5-.5zm0-.003l-.042-.498-.458.038v.461l.5-.001zm1.749-.145l.499-.036-.036-.505-.504.042.041.499zm2.674-.219h.5-.5zm0-.004l-.041-.498-.459.038v.46h.5zm1.975-.165h.5v-.543l-.542.045.042.498zm0 2.39v.5l.5-.001v-.499h-.5zm0 4.055h.5v-.5h-.5v.5zm0 2.507v.5h.5v-.5h-.5zm0 4.055h.5v-.5h-.5v.5zm0 2.508v.5l.5-.001v-.499h-.5zm0 4.054h.5v-.499l-.5-.001v.5zm0 2.51v.5h.5v-.5h-.5zm0 4.055h.5v-.5h-.5v.5zm0 4.454l.134.482.366-.102v-.38h-.5zm-1.517.422l-.498.042.051.602.581-.162-.134-.482zm-2.634.733l.134.482.43-.12-.07-.44-.494.078zm-1.748.486l-.497.046.055.597.576-.161-.134-.482zm-2.635.734l.134.481.426-.118-.065-.437-.495.074zm-2.642.735h-.5v.658l.634-.176-.134-.482zm0-4.418v-.5h-.5v.5h.5zm0-4.055h-.5v.5h.5v-.5zm0-2.674v-.5h-.5v.5h.5zm0-4.055h-.5v.5h.5v-.5zm0-2.911v-.5l-.5.001v.5l.5-.001zm0-4.054h-.5v.499l.5.001v-.5zm0-2.91v-.5h-.5v.5h.5zm0-4.055h-.5v.5h.5v-.5zm0-3.634l-.042-.499-.458.039v.46h.5zm2.104-.176l.499-.035-.036-.505-.504.042.041.498zm2.174-.22c0 .476-.129.884-.31 1.158-.184.278-.382.369-.531.369v1c.591 0 1.064-.362 1.365-.818.304-.459.476-1.065.476-1.709h-1zm0-.002v.002h1v-.003l-1 .001zm2.208-.645l-1.75.146.083.997 1.75-.146-.083-.997zm1.374 1.808c-.14 0-.32-.079-.495-.318-.174-.238-.309-.596-.339-1.027l-.997.071c.041.587.227 1.133.529 1.546.301.411.751.728 1.302.728v-1zm.841-1.528c0 .476-.128.884-.31 1.158-.184.278-.382.37-.531.37v1c.592 0 1.064-.362 1.365-.818.304-.46.476-1.066.476-1.71h-1zm0-.004v.005l1-.001v-.004h-1zm2.433-.663l-1.974.165.083.996 1.974-.164-.083-.997zm.542 2.888v-2.39h-1v2.39h1zm-1.34 2.027c0-.475.128-.883.309-1.157.184-.279.382-.37.531-.37v-1c-.592 0-1.064.362-1.365.818-.304.46-.475 1.065-.475 1.709h1zm.84 1.528c-.149 0-.347-.092-.531-.37-.181-.274-.309-.682-.309-1.158h-1c0 .644.171 1.25.475 1.709.301.456.773.818 1.365.819v-1zm.5 3.007v-2.507h-1v2.507h1zm-1.34 2.028c0-.476.128-.884.309-1.158.184-.278.382-.37.531-.37v-1c-.592 0-1.064.363-1.365.818-.304.46-.475 1.066-.475 1.71h1zm.84 1.527c-.149 0-.347-.092-.531-.37-.181-.274-.309-.682-.309-1.157h-1c0 .643.171 1.249.475 1.709.301.455.773.818 1.365.818v-1zm.5 3.008v-2.508h-1v2.508h1zm-1.34 2.027c0-.476.128-.883.309-1.158.184-.278.382-.369.531-.369v-1c-.592 0-1.064.362-1.365.818-.304.459-.475 1.065-.475 1.709h1zm.84 1.527c-.149 0-.347-.091-.531-.369-.181-.275-.309-.682-.309-1.158h-1c0 .644.171 1.25.475 1.709.301.456.773.818 1.365.818v-1zm.5 3.01v-2.51h-1v2.51h1zm-1.34 2.027c0-.475.128-.883.309-1.157.184-.278.382-.37.531-.37v-1c-.592 0-1.064.363-1.365.818-.304.46-.475 1.066-.475 1.709h1zm.84 1.528c-.149 0-.347-.092-.531-.37-.181-.274-.309-.682-.309-1.158h-1c0 .644.171 1.25.475 1.71.301.455.773.818 1.365.818v-1zm.5 4.954v-4.454h-1v4.454h1zm-1.883.904l1.517-.422-.268-.963-1.517.422.268.963zm-1.464-1.75c.138 0 .316.078.488.309.173.231.308.58.344 1.001l.996-.084c-.049-.576-.237-1.111-.538-1.514-.3-.403-.746-.712-1.29-.712v1zm-.841 1.528c0-.476.129-.884.31-1.158.184-.278.382-.37.531-.37v-1c-.591 0-1.064.363-1.365.818-.304.46-.476 1.066-.476 1.71h1zm.031.395a2.519 2.519 0 01-.031-.395h-1c0 .189.015.373.043.551l.988-.156zm-2.108 1.046l1.748-.486-.268-.964-1.748.487.268.963zm-1.461-1.726c.137 0 .312.076.484.303.171.227.307.571.346.987l.995-.092c-.052-.569-.242-1.098-.542-1.497-.301-.398-.744-.701-1.283-.701v1zm-.841 1.527c0-.475.128-.883.31-1.158.184-.278.382-.369.531-.369v-1c-.592 0-1.064.362-1.365.818-.304.459-.476 1.065-.476 1.709h1zm.028.377a2.562 2.562 0 01-.028-.377h-1c0 .18.013.355.039.525l.989-.148zm-3.003 1.291l2.642-.736-.268-.963-2.642.735.268.964zm-.634-4.9v4.418h1v-4.418h-1zm1.34-2.027c0 .475-.128.883-.309 1.157-.184.278-.382.37-.531.37v1c.591 0 1.063-.362 1.365-.818.304-.46.475-1.065.475-1.709h-1zm-.84-1.528c.149 0 .347.092.531.37.181.274.309.682.309 1.158h1c0-.644-.171-1.25-.475-1.71-.302-.455-.774-.818-1.365-.818v1zm-.5-3.174v2.674h1v-2.674h-1zm1.34-2.028c0 .476-.128.884-.309 1.158-.184.278-.382.37-.531.37v1c.591-.001 1.063-.363 1.365-.819.304-.459.475-1.065.475-1.709h-1zm-.84-1.527c.149 0 .347.091.531.369.181.275.309.683.309 1.158h1c0-.644-.171-1.249-.475-1.709-.302-.456-.774-.818-1.365-.818v1zm-.5-3.41v2.91h1v-2.911l-1 .001zm1.34-2.028c0 .476-.128.884-.309 1.158-.184.278-.382.369-.531.369v1c.591 0 1.063-.362 1.365-.818.304-.459.475-1.065.475-1.709h-1zm-.84-1.527c.149 0 .347.091.531.369.181.274.309.682.309 1.158h1c0-.644-.171-1.25-.475-1.709-.302-.456-.774-.818-1.365-.818v1zm-.5-3.41v2.91h1v-2.91h-1zm1.34-2.027c0 .476-.128.883-.309 1.158-.184.278-.382.369-.531.369v1c.591 0 1.063-.362 1.365-.818.304-.459.475-1.065.475-1.709h-1zm-.84-1.528c.149 0 .347.092.53.37.182.274.31.682.31 1.158h1c0-.644-.171-1.25-.475-1.709-.302-.456-.774-.818-1.365-.819v1zm-.5-4.134v3.634h1v-3.634h-1zm2.563-.674l-2.105.175.083.997 2.105-.175-.083-.997zm1.374 1.805c-.14 0-.32-.079-.495-.317-.174-.238-.308-.596-.339-1.025l-.998.071c.042.586.228 1.132.53 1.544.301.411.751.727 1.302.727v-1zM805.266 115.854l.119-.485-.619-.151v.636h.5zm2.667.651l.49.1.095-.471-.467-.114-.118.485zm-2.667 4.937h-.5v.5h.5v-.5zm0 5.155v-.5h-.5v.5h.5zm0 3.698h-.5v.5h.5v-.5zm0 5.155v-.5l-.5.001v.499h.5zm0 3.698h-.5v.5h.5v-.5zm0 5.156v-.5h-.5v.5h.5zm0 3.401h-.5v.5h.5v-.5zm0 5.155v-.5h-.5v.5h.5zm.001 4.651h-.5v.5h.5v-.5zm2.318 0v.5h.559l-.062-.557-.497.057zm3.262 0l-.497-.057-.063.557h.56v-.5zm2.535 0v.5h.5v-.5h-.5zm3.312 0h-.5v.5h.5v-.5zm2.378 0v.5h.5v-.5h-.5zm0-5.386h.5v-.5h-.5v.5zm0-5.155v.5l.5-.001v-.499h-.5zm0-3.189h.5v-.499l-.5-.001v.5zm0-5.155v.5h.5v-.5h-.5zm0-3.188h.5v-.5h-.5v.5zm0-5.155v.5l.5-.001v-.499h-.5zm0-3.189h.5v-.5h-.5v.5zm0-5.155v.5l.5-.001v-.499h-.5zm0-2.714h.5v-.393l-.382-.093-.118.486zm-2.341-.572l.119-.485-.585-.143-.033.601.499.027zm-3.264-.797l.494.073.066-.451-.442-.107-.118.485zm-2.299-.561l.119-.485-.617-.151-.002.635.5.001zm-6.02-.955l2.666.651.237-.971-2.666-.651-.237.971zm.618 5.102v-5.588h-1v5.588h1zm1.656 2.578c0-.793-.205-1.535-.564-2.093-.356-.553-.907-.985-1.592-.985v1c.229 0 .506.146.75.526.241.374.406.921.406 1.552h1zm-2.156 3.077c.685 0 1.236-.431 1.592-.984.359-.559.564-1.3.564-2.093h-1c0 .63-.165 1.178-.406 1.552-.244.38-.52.525-.75.525v1zm.5 3.198v-3.698h-1v3.698h1zm1.656 2.578c0-.793-.205-1.534-.564-2.093-.355-.553-.906-.984-1.592-.985v1c.23 0 .506.146.75.526.241.374.406.922.406 1.552h1zm-2.156 3.077c.686 0 1.237-.431 1.592-.984.359-.559.564-1.3.564-2.093h-1c0 .63-.165 1.178-.406 1.552-.243.38-.52.525-.75.525v1zm.5 3.198v-3.698h-1v3.698h1zm1.656 2.578c0-.793-.205-1.534-.564-2.093-.355-.553-.906-.984-1.592-.985v1c.23.001.507.146.751.526.24.374.405.922.405 1.552h1zm-2.155 3.078c.685-.001 1.236-.432 1.591-.985.359-.559.564-1.3.564-2.093h-1c0 .63-.165 1.178-.405 1.552-.244.38-.521.525-.751.526l.001 1zm.499 2.901v-3.401h-1v3.401h1zm1.656 2.577c0-.793-.205-1.534-.564-2.092-.355-.553-.906-.985-1.591-.985l-.001 1c.23 0 .507.145.751.525.24.375.405.922.405 1.552h1zm-2.155 3.078c.685 0 1.236-.432 1.591-.985.359-.559.564-1.3.564-2.093h-1c0 .631-.165 1.178-.405 1.552-.244.38-.521.526-.751.526l.001 1zm.5 4.151l-.001-4.651h-1l.001 4.651h1zm1.818-.5h-2.318v1h2.318v-1zm-.525.05c0 .172.009.341.028.506l.994-.113a3.35 3.35 0 01-.022-.393h-1zm2.156-3.078c-.686 0-1.237.432-1.592.985-.359.558-.564 1.3-.564 2.093h1c0-.631.165-1.178.405-1.553.244-.379.521-.525.751-.525v-1zm2.156 3.078c0-.793-.206-1.535-.565-2.093-.355-.553-.906-.985-1.591-.985v1c.229 0 .506.146.75.525.241.375.406.922.406 1.553h1zm-.028.506c.018-.165.028-.334.028-.506h-1c0 .135-.008.266-.022.393l.994.113zm2.038-.556h-2.535v1h2.535v-1zm.5.5h-1 1zm0 0c0-.631.165-1.178.406-1.553.244-.379.521-.525.75-.525v-1c-.685 0-1.236.432-1.592.985-.359.558-.564 1.3-.564 2.093h1zm1.156-2.078c.229 0 .506.146.75.525.241.375.406.922.406 1.553h1c0-.793-.205-1.535-.564-2.093-.356-.553-.907-.985-1.592-.985v1zm1.156 2.078h1-1zm2.878-.5h-2.378v1h2.378v-1zm-.5-4.886v5.386h1v-5.386h-1zm-1.655-2.578c0 .793.205 1.534.563 2.093.356.553.906.984 1.591.985l.001-1c-.229 0-.506-.146-.75-.526-.24-.374-.405-.921-.405-1.552h-1zm2.154-3.077c-.685 0-1.235.432-1.591.985-.358.559-.563 1.3-.563 2.092h1c0-.63.165-1.177.405-1.552.244-.379.521-.525.75-.525l-.001-1zm-.499-2.689v3.189h1v-3.189h-1zm-1.655-2.577c0 .792.205 1.533.563 2.092.356.553.906.985 1.591.985l.001-1c-.229 0-.506-.146-.75-.525-.24-.375-.405-.922-.405-1.552h-1zm2.154-3.078c-.685.001-1.235.432-1.591.985-.358.559-.563 1.3-.563 2.093h1c0-.631.165-1.178.405-1.552.244-.38.521-.526.75-.526l-.001-1zm-.499-2.688v3.188h1v-3.188h-1zm-1.655-2.578c0 .793.205 1.534.563 2.092.356.553.906.985 1.591.986l.001-1c-.229-.001-.506-.146-.75-.526-.24-.375-.405-.922-.405-1.552h-1zm2.154-3.077c-.685 0-1.235.432-1.591.985-.358.558-.563 1.299-.563 2.092h1c0-.63.165-1.177.405-1.552.244-.38.521-.525.75-.525l-.001-1zm-.499-2.689v3.189h1v-3.189h-1zm-1.655-2.578c0 .793.205 1.534.563 2.093.356.553.906.984 1.591.985l.001-1c-.229 0-.506-.146-.75-.526-.24-.374-.405-.921-.405-1.552h-1zm2.154-3.077c-.685.001-1.235.432-1.591.985-.358.559-.563 1.3-.563 2.092h1c0-.63.165-1.177.405-1.551.244-.38.521-.526.75-.526l-.001-1zm-.499-2.214v2.714h1v-2.714h-1zm-1.959-.086l2.34.571.237-.971-2.34-.571-.237.971zm-1.532 2.371c.649 0 1.179-.389 1.534-.898.356-.512.575-1.195.616-1.931l-.999-.055c-.032.583-.204 1.079-.438 1.415-.236.339-.495.469-.713.469v1zm-2.156-3.078c0 .793.206 1.534.565 2.093.355.553.906.985 1.591.985v-1c-.229 0-.506-.146-.75-.526-.241-.374-.406-.922-.406-1.552h-1zm.047-.648a4.422 4.422 0 00-.047.648h1c0-.174.013-.342.036-.503l-.989-.145zm-1.922-.003l2.298.561.237-.971-2.298-.561-.237.971zm-1.538 2.58c.683 0 1.233-.429 1.589-.98.359-.556.565-1.294.567-2.084l-1-.003c-.002.628-.167 1.172-.407 1.545-.244.377-.52.522-.749.522v1zm-2.156-3.078c0 .793.206 1.535.564 2.093.356.553.907.985 1.592.985v-1c-.229 0-.506-.146-.75-.525-.241-.375-.406-.922-.406-1.553h-1zm.087-.877a4.384 4.384 0 00-.087.877h1c0-.238.024-.466.067-.678l-.98-.199zM756.2 105.88l.113-.487-.613-.143v.63h.5zm3.268.759l.493.082.077-.463-.457-.106-.113.487zm-3.268 7.729h-.5v.5h.5v-.5zm0 6.126v-.5h-.5v.5h.5zm0 4.395h-.5v.5h.5v-.5zm0 6.127v-.5h-.5v.5h.5zm0 4.395h-.5v.5h.5v-.5zm0 6.127v-.5h-.5v.5h.5zm0 4.043h-.5v.5h.5v-.5zm0 6.127v-.5h-.5v.5h.5zm0 5.191h-.5v.482l.482.018.018-.5zm3.699.132l-.017.5.541.019-.024-.54-.5.021zm4.085.147l-.498-.038-.039.519.52.018.017-.499zm2.322.083l-.017.499.569.021-.054-.567-.498.047zm4.047.144l-.496-.063-.07.543.548.02.018-.5zm2.946.106l-.018.499.518.019v-.518h-.5zm0-5.96h.5v-.5h-.5v.5zm0-6.127v.5h.5v-.5h-.5zm0-3.79h.5v-.5h-.5v.5zm0-6.127v.5h.5v-.5h-.5zm0-3.789h.5v-.5h-.5v.5zm0-6.127v.5h.5v-.5h-.5zm0-3.789h.5v-.5h-.5v.5zm0-6.127v.5h.5v-.5h-.5zm0-5.824h.5v-.397l-.387-.09-.113.487zm-2.925-.679l.113-.487-.57-.132-.042.583.499.036zm-4.05-.941l.495.067.061-.451-.443-.103-.113.487zm-2.818-.654l.113-.487-.587-.137-.026.602.5.022zm-7.419-1.21l3.267.759.227-.974-3.268-.759-.226.974zm.613 8.001v-8.488h-1v8.488h1zm2.051 3.063c0-.931-.251-1.797-.685-2.444-.431-.644-1.081-1.119-1.866-1.119v1c.348 0 .724.21 1.035.675.309.461.516 1.127.516 1.888h1zm-2.551 3.563c.785 0 1.435-.475 1.866-1.119.434-.647.685-1.513.685-2.444h-1c0 .76-.207 1.426-.516 1.888-.311.465-.687.675-1.035.675v1zm.5 3.895v-4.395h-1v4.395h1zm2.051 3.064c0-.931-.251-1.797-.685-2.444-.431-.645-1.081-1.12-1.866-1.12v1c.348 0 .724.211 1.035.676.309.461.516 1.127.516 1.888h1zm-2.551 3.563c.785 0 1.435-.475 1.866-1.119.434-.647.685-1.513.685-2.444h-1c0 .76-.207 1.426-.516 1.888-.311.464-.687.675-1.035.675v1zm.5 3.895v-4.395h-1v4.395h1zm2.051 3.064c0-.931-.251-1.797-.685-2.444-.431-.645-1.081-1.12-1.866-1.12v1c.348 0 .724.211 1.035.676.309.461.516 1.127.516 1.888h1zm-2.551 3.563c.785 0 1.435-.475 1.866-1.119.434-.647.685-1.513.685-2.444h-1c0 .76-.207 1.426-.516 1.888-.311.464-.687.675-1.035.675v1zm.5 3.543v-4.043h-1v4.043h1zm2.051 3.063c0-.931-.251-1.797-.685-2.444-.431-.644-1.081-1.119-1.866-1.119v1c.348 0 .724.211 1.035.675.309.462.516 1.128.516 1.888h1zm-2.551 3.564c.785 0 1.435-.475 1.866-1.119.434-.648.685-1.513.685-2.445h-1c0 .761-.207 1.427-.516 1.888-.311.465-.687.676-1.035.676v1zm.5 4.691v-5.191h-1v5.191h1zm3.217-.367l-3.699-.133-.036 1 3.7.132.035-.999zm-.522.297c0 .075.002.15.005.224l.999-.043a3.617 3.617 0 01-.004-.181h-1zm2.551-3.563c-.784 0-1.434.475-1.866 1.119-.433.647-.685 1.513-.685 2.444h1c0-.76.207-1.426.516-1.888.312-.464.687-.675 1.035-.675v-1zm2.552 3.563c0-.931-.252-1.797-.686-2.444-.431-.644-1.081-1.119-1.866-1.119v1c.349 0 .724.211 1.035.675.309.462.517 1.128.517 1.888h1zm-.015.386c.01-.127.015-.255.015-.386h-1c0 .106-.004.209-.012.311l.997.075zm1.841-.454l-2.322-.083-.035.999 2.322.083.035-.999zm.48.453a4.054 4.054 0 01-.018-.385h-1c0 .162.008.322.023.479l.995-.094zm-.018-.385c0-.76.208-1.426.517-1.888.311-.464.686-.675 1.035-.675v-1c-.785 0-1.435.475-1.866 1.119-.434.647-.686 1.513-.686 2.444h1zm1.552-2.563c.348 0 .723.211 1.035.675.308.462.516 1.128.516 1.888h1c0-.931-.252-1.797-.686-2.444-.431-.644-1.081-1.119-1.865-1.119v1zm1.551 2.563c0 .176-.011.348-.032.513l.992.127c.026-.208.04-.422.04-.64h-1zm3.428.182l-2.947-.105-.035.999 2.946.105.036-.999zm-.518-5.46v5.96h1v-5.96h-1zm-2.052-3.063c0 .931.252 1.797.686 2.444.431.644 1.081 1.119 1.866 1.119v-1c-.349 0-.724-.211-1.035-.676-.309-.461-.517-1.127-.517-1.887h-1zm2.552-3.564c-.785 0-1.435.475-1.866 1.119-.434.648-.686 1.513-.686 2.445h1c0-.761.208-1.427.517-1.888.311-.465.686-.676 1.035-.676v-1zm-.5-3.29v3.79h1v-3.79h-1zm-2.052-3.063c0 .931.252 1.797.686 2.444.431.644 1.081 1.119 1.866 1.119v-1c-.349 0-.724-.211-1.035-.675-.309-.462-.517-1.128-.517-1.888h-1zm2.552-3.564c-.785 0-1.435.475-1.866 1.119-.434.648-.686 1.513-.686 2.445h1c0-.761.208-1.427.517-1.888.311-.465.686-.676 1.035-.676v-1zm-.5-3.289v3.789h1v-3.789h-1zm-2.052-3.063c0 .931.252 1.797.686 2.444.431.644 1.081 1.119 1.866 1.119v-1c-.349 0-.724-.211-1.035-.676-.309-.461-.517-1.127-.517-1.887h-1zm2.552-3.564c-.785 0-1.435.475-1.866 1.119-.434.648-.686 1.513-.686 2.445h1c0-.761.208-1.427.517-1.888.311-.465.686-.676 1.035-.676v-1zm-.5-3.289v3.789h1v-3.789h-1zm-2.052-3.063c0 .931.252 1.797.686 2.444.431.644 1.081 1.119 1.866 1.119v-1c-.349 0-.724-.211-1.035-.676-.309-.461-.517-1.127-.517-1.887h-1zm2.552-3.564c-.785 0-1.435.475-1.866 1.119-.434.648-.686 1.513-.686 2.445h1c0-.761.208-1.427.517-1.888.311-.465.686-.676 1.035-.676v-1zm-.5-5.324v5.824h1v-5.824h-1zm-2.538-.192l2.925.68.226-.975-2.925-.679-.226.974zm-1.927 2.746c.732 0 1.349-.415 1.777-.993.429-.578.701-1.356.762-2.204l-.998-.072c-.049.689-.268 1.278-.567 1.681-.3.405-.648.588-.974.588v1zm-2.551-3.563c0 .931.252 1.797.685 2.444.432.644 1.082 1.119 1.866 1.119v-1c-.348 0-.723-.211-1.035-.675-.309-.462-.516-1.128-.516-1.888h-1zm.045-.678c-.029.22-.045.446-.045.678h1c0-.187.013-.369.036-.544l-.991-.134zm-2.436-.1l2.819.654.226-.974-2.818-.654-.227.974zm-1.934 2.878c.754 0 1.384-.438 1.814-1.043.431-.606.695-1.419.733-2.301l-.999-.043c-.031.718-.246 1.338-.549 1.765-.305.428-.663.622-.999.622v1zm-2.551-3.563c0 .931.252 1.797.686 2.444.431.644 1.081 1.119 1.865 1.119v-1c-.348 0-.723-.21-1.035-.675-.308-.461-.516-1.127-.516-1.888h-1zm.067-.822a5.01 5.01 0 00-.067.822h1c0-.228.019-.449.054-.658l-.987-.164zM845.598 125.93l.125-.484-.625-.161v.645h.5zm1.987.511l.491.095.089-.462-.455-.117-.125.484zm-1.987 3.875h-.5v.5h.5v-.5zm0 4.047v-.5h-.5v.5h.5zm0 2.903h-.5v.499l.5.001v-.5zm0 4.046v-.5h-.5v.5h.5zm0 2.903h-.5v.5h.5v-.5zm0 4.047v-.5h-.5v.5h.5zm0 2.67h-.5v.5h.5v-.5zm0 4.046v-.5l-.5.001v.499h.5zm0 3.651h-.5v.5h.5v-.5zm1.727 0v.5h.557l-.059-.553-.498.053zm2.43 0l-.497-.053-.059.553h.556v-.5zm1.889 0v.5h.5v-.5h-.5zm2.468 0h-.5v.5h.5v-.5zm1.771 0v.5h.5v-.5h-.5zm0-4.227h.5v-.5h-.5v.5zm0-4.047v.5l.5-.001v-.499h-.5zm0-2.503h.5v-.499l-.5-.001v.5zm0-4.047v.5h.5v-.5h-.5zm0-2.503h.5v-.499l-.5-.001v.5zm0-4.046v.5l.5-.001v-.499h-.5zm0-2.503h.5v-.5h-.5v.5zm0-4.047v.5h.5v-.5h-.5zm0-2.13h.5v-.388l-.376-.097-.124.485zm-1.743-.449l.124-.484-.592-.152-.032.61.5.026zm-2.433-.625l.496.068.061-.441-.432-.112-.125.485zm-1.712-.441l.125-.484-.623-.16-.002.643.5.001zm-4.521-.647l1.986.511.25-.968-1.987-.511-.249.968zm.624 3.902v-4.386h-1v4.386h1zm1.234 2.024c0-.635-.156-1.234-.435-1.691-.273-.448-.717-.832-1.299-.833v1c.1 0 .272.069.446.353.168.276.288.689.288 1.171h1zm-1.734 2.523c.582 0 1.026-.384 1.299-.832.279-.457.435-1.056.435-1.691h-1c0 .482-.12.894-.288 1.17-.174.284-.346.353-.446.353v1zm.5 2.403v-2.903h-1v2.903h1zm1.234 2.023c0-.635-.156-1.234-.435-1.691-.273-.448-.717-.832-1.299-.832v1c.1 0 .272.068.446.353.168.275.288.688.288 1.17h1zm-1.734 2.523c.582 0 1.026-.384 1.299-.832.279-.457.435-1.056.435-1.691h-1c0 .482-.12.895-.288 1.17-.174.285-.346.353-.446.353v1zm.5 2.403v-2.903h-1v2.903h1zm1.234 2.024c0-.635-.156-1.234-.435-1.691-.273-.448-.717-.832-1.299-.833v1c.1 0 .272.069.446.353.168.276.288.688.288 1.171h1zm-1.733 2.523c.581 0 1.025-.385 1.298-.833.279-.456.435-1.055.435-1.69h-1c0 .482-.12.894-.288 1.17-.174.284-.346.353-.446.353l.001 1zm.499 2.17v-2.67h-1v2.67h1zm1.234 2.023c0-.635-.156-1.234-.435-1.691-.273-.448-.717-.832-1.298-.832l-.001 1c.1 0 .272.069.446.353.168.275.288.688.288 1.17h1zm-1.733 2.523c.581 0 1.025-.384 1.298-.832.279-.457.435-1.056.435-1.691h-1c0 .482-.12.895-.288 1.17-.174.285-.346.353-.446.353l.001 1zm.499 3.151v-3.651h-1v3.651h1zm1.227-.5h-1.727v1h1.727v-1zm-.518.147c0 .138.007.274.021.407l.995-.107a2.663 2.663 0 01-.016-.3h-1zm1.733-2.523c-.581 0-1.026.384-1.299.832-.278.457-.434 1.056-.434 1.691h1c0-.482.12-.895.288-1.17.173-.285.345-.353.445-.353v-1zm1.734 2.523c0-.635-.156-1.234-.434-1.691-.273-.448-.718-.832-1.3-.832v1c.1 0 .273.068.446.353.168.275.288.688.288 1.17h1zm-.021.407a3.89 3.89 0 00.021-.407h-1c0 .103-.005.203-.016.3l.995.107zm1.391-.554h-1.889v1h1.889v-1zm.5.5h-1 1zm0 0c0-.483.12-.895.288-1.171.174-.284.346-.353.446-.353v-1c-.582 0-1.026.385-1.299.833-.279.456-.435 1.055-.435 1.691h1zm.734-1.524c.1 0 .272.069.445.353.168.276.289.688.289 1.171h1c0-.636-.156-1.235-.435-1.691-.273-.448-.718-.833-1.299-.833v1zm.734 1.524h1-1zm2.271-.5h-1.771v1h1.771v-1zm-.5-3.727v4.227h1v-4.227h-1zm-1.233-2.024c0 .635.156 1.234.434 1.691.273.448.717.832 1.298.833l.001-1c-.1-.001-.272-.069-.445-.354-.168-.275-.288-.688-.288-1.17h-1zm1.732-2.523c-.581.001-1.025.385-1.298.833-.278.457-.434 1.055-.434 1.69h1c0-.482.12-.894.288-1.17.173-.284.345-.353.445-.353l-.001-1zm-.499-2.003v2.503h1v-2.503h-1zm-1.233-2.023c0 .635.156 1.233.434 1.69.273.448.717.832 1.298.833l.001-1c-.1 0-.272-.069-.445-.353-.168-.276-.288-.688-.288-1.17h-1zm1.732-2.524c-.581.001-1.025.385-1.298.833-.278.457-.434 1.056-.434 1.691h1c0-.482.12-.895.288-1.17.173-.285.345-.354.445-.354l-.001-1zm-.499-2.003v2.503h1v-2.503h-1zm-1.233-2.023c0 .635.156 1.234.434 1.69.273.448.717.833 1.298.833l.001-1c-.1 0-.272-.069-.445-.353-.168-.276-.288-.688-.288-1.17h-1zm1.732-2.523c-.581 0-1.025.385-1.298.833-.278.456-.434 1.055-.434 1.69h1c0-.482.12-.894.288-1.17.173-.284.345-.353.445-.353l-.001-1zm-.499-2.003v2.503h1v-2.503h-1zm-1.233-2.024c0 .635.156 1.234.434 1.691.273.448.717.832 1.298.833l.001-1c-.1 0-.272-.069-.445-.354-.168-.275-.288-.688-.288-1.17h-1zm1.732-2.523c-.581.001-1.025.385-1.298.833-.278.457-.434 1.056-.434 1.69h1c0-.482.12-.894.288-1.17.173-.284.345-.353.445-.353l-.001-1zm-.499-1.63v2.13h1v-2.13h-1zm-1.368.035l1.743.449.249-.969-1.743-.448-.249.968zm-1.105 1.866c.551 0 .98-.346 1.254-.761.278-.42.444-.973.475-1.563l-.999-.052c-.023.446-.148.818-.31 1.064-.166.251-.324.312-.42.312v1zm-1.733-2.524c0 .635.156 1.235.434 1.691.273.448.718.833 1.299.833v-1c-.1 0-.272-.069-.445-.353-.168-.276-.288-.688-.288-1.171h-1zm.035-.52a3.837 3.837 0 00-.035.52h1c0-.132.009-.26.026-.383l-.991-.137zm-1.341.112l1.712.441.249-.969-1.712-.44-.249.968zm-1.109 2.03c.579 0 1.023-.382 1.296-.828.279-.455.436-1.052.437-1.684l-1-.003c-.001.48-.122.89-.289 1.164-.173.283-.345.351-.444.351v1zm-1.734-2.523c0 .635.156 1.234.434 1.691.273.448.718.832 1.3.832v-1c-.1 0-.273-.069-.446-.353-.168-.276-.288-.688-.288-1.17h-1zm.066-.705a3.748 3.748 0 00-.066.705h1c0-.182.017-.355.048-.516l-.982-.189zM781.747 226.658v-43.369l16.824-1.986v41.174l-16.824 4.181zM779.542 178.608l1.892 4.2 16.958-1.663 1.241-4.022-20.091 1.485z"/><path fill="#03224C" d="M777.805 178.286a.5.5 0 00.066.998l-.066-.998zm23.156-.515a.5.5 0 10-.065-.997l.065.997zm-23.09 1.513l23.09-1.513-.065-.997-23.091 1.512.066.998zM780.488 182.459a.5.5 0 00.089.996l-.089-.996zm18.948-.693a.5.5 0 00-.089-.996l.089.996zm-18.859 1.689l18.859-1.689-.089-.996-18.859 1.689.089.996zM778.119 227.097a.5.5 0 10.242.97l-.242-.97zm23.324-4.79a.5.5 0 10-.242-.97l.242.97zm-23.082 5.76l23.082-5.76-.242-.97-23.082 5.76.242.97z"/><path fill="#fff" stroke="#03224C" d="M784.061 194.109a7.901 7.901 0 017.097-7.861 5.277 5.277 0 015.813 5.249v26.629a.5.5 0 01-.39.488l-11.91 2.687a.5.5 0 01-.61-.488v-26.704z"/><path stroke="#03224C" d="M790.516 186.157v33.613"/><path fill="#F4D8CD" d="M781.353 159.564v-43.326l16.824 2.554v40.772h-16.824zM779.214 111.049l2.089 4.731 16.369 2.685 1.637-3.732-20.095-3.684z"/><path fill="#03224C" d="M777.536 109.855a.5.5 0 00-.193.981l.193-.981zm22.528 5.434a.5.5 0 00.193-.982l-.193.982zm-22.721-4.453l22.721 4.453.193-.982-22.721-4.452-.193.981zM780.151 115.026a.5.5 0 10-.171.986l.171-.986zm18.287 4.193a.5.5 0 10.171-.985l-.171.985zm-18.458-3.207l18.458 3.207.171-.985-18.458-3.208-.171.986zM777.847 159.008a.5.5 0 000 1v-1zm22.927 1a.5.5 0 100-1v1zm-22.927 0h22.927v-1h-22.927v1z"/><path fill="#fff" stroke="#03224C" d="M783.667 125.79c0-3.556 3.147-6.289 6.668-5.791a7.26 7.26 0 016.242 7.188v27.802a.5.5 0 01-.5.5h-11.91a.5.5 0 01-.5-.5V125.79z"/><path stroke="#03224C" d="M790.122 120.083v35.182"/><path fill="#F4D8CD" d="M826.275 159.507v-34.079l13.234 2.009v32.07h-13.234zM824.594 121.347l1.643 3.721 12.876 2.112 1.287-2.936-15.806-2.897z"/><path fill="#03224C" d="M823.306 120.306a.5.5 0 10-.218.975l.218-.975zm17.607 4.961a.5.5 0 10.219-.976l-.219.976zm-17.825-3.986l17.825 3.986.219-.976-17.826-3.985-.218.975zM825.362 124.373a.499.499 0 10-.198.98l.198-.98zm14.243 3.894a.501.501 0 00.197-.981l-.197.981zm-14.441-2.914l14.441 2.914.197-.981-14.44-2.913-.198.98zM823.518 158.964a.5.5 0 000 1v-1zm18.035 1a.5.5 0 000-1v1zm-18.035 0h18.035v-1h-18.035v1z"/><path fill="#fff" stroke="#03224C" d="M828.202 132.942a4.493 4.493 0 015.123-4.449 5.603 5.603 0 014.819 5.548v21.656a.5.5 0 01-.5.5h-8.942a.5.5 0 01-.5-.5v-22.755z"/><path stroke="#03224C" d="M833.173 128.453v27.674"/><path fill="#F4D8CD" d="M826.584 216.371v-37.248l14.45-1.706v35.363l-14.45 3.591zM824.69 175.102l1.626 3.608 14.565-1.429 1.066-3.454-17.257 1.275z"/><path fill="#03224C" d="M823.201 174.757a.5.5 0 10.053.998l-.053-.998zm19.818-.055a.499.499 0 10-.054-.998l.054.998zm-19.765 1.053l19.765-1.053-.054-.998-19.764 1.053.053.998zM825.508 178.339a.5.5 0 00.068.998l-.068-.998zm16.194-.107a.5.5 0 10-.068-.997l.068.997zm-16.126 1.105l16.126-1.105-.068-.997-16.126 1.104.068.998zM823.459 216.678a.5.5 0 10.228.974l-.228-.974zm19.739-3.592a.499.499 0 10-.227-.973l.227.973zm-19.511 4.566l19.511-4.566-.227-.973-19.512 4.565.228.974z"/><path fill="#fff" stroke="#03224C" d="M828.642 188.415a6.715 6.715 0 016.033-6.68 4.46 4.46 0 014.914 4.437v22.758a.5.5 0 01-.39.488l-9.947 2.244a.5.5 0 01-.61-.487v-22.76z"/><path stroke="#03224C" d="M834.116 181.586v28.87"/></g><defs><clipPath id="clip0"><path fill="#fff" d="M0 0h1280v764H0z"/></clipPath></defs></svg>