<svg width="113" height="61" viewBox="0 0 113 61" fill="none" xmlns="http://www.w3.org/2000/svg">
<path d="M43.4948 49.6815C40.8909 47.1654 39.0345 42.746 38.4317 40.8509L56.0319 48.5928L61.9387 45.0847C66.5196 38.1896 68.5689 36.9799 79.0567 33.5929C87.4468 30.8832 100.153 25.5284 105.457 23.1897C104.685 25.7058 102.564 29.5606 101.599 31.1735H98.465C97.9024 33.109 95.837 37.2218 92.0759 38.1896C88.3148 39.1573 83.517 37.7864 81.5882 36.9799C80.3023 38.7138 76.6939 43.0041 72.547 46.2944C68.4001 49.5847 60.6931 49.9234 57.3579 49.6815C54.9469 52.1008 51.2099 53.1089 49.6427 53.3105C48.6784 53.1492 46.0986 52.1976 43.4948 49.6815Z" fill="#03224C"/>
<path d="M68.9826 42.9103C68.9885 42.9069 68.999 42.9048 69.0082 42.9073C69.4586 43.0269 70.0668 43.3135 70.5479 43.0366C70.7914 42.8965 70.9661 42.6359 70.9939 42.3504C70.9935 42.3428 70.9931 42.3352 70.9897 42.3294C70.9847 42.3206 70.9721 42.3122 70.9587 42.316C70.4451 42.4202 68.6287 42.2978 68.2441 41.6248C68.1215 41.4103 68.2254 41.2373 68.4395 41.114C69.3988 40.562 71.117 40.4715 71.4798 41.1062C71.5805 41.2826 71.5404 41.4853 71.517 41.4988C71.5023 41.5072 71.4792 41.501 71.4708 41.4863C71.4658 41.4775 71.4654 41.4699 71.4679 41.4606C71.4917 41.3454 71.4761 41.2294 71.4207 41.1324C71.0898 40.5535 69.4132 40.628 68.4861 41.1614C68.3013 41.2678 68.1953 41.403 68.3028 41.591C68.5043 41.9437 69.4929 42.3706 70.7825 42.2533C70.8593 42.2443 70.9133 42.2366 70.9511 42.2345L70.9569 42.2311C70.9687 42.2243 70.9754 42.2088 70.9703 42.1999C70.9687 42.197 70.967 42.1941 70.9624 42.1928C70.1271 41.6113 69.4509 41.2467 69.4509 41.2467C69.4409 41.229 69.4518 41.2071 69.4664 41.1987C69.4752 41.1936 69.4857 41.1915 69.4983 41.1999C70.8221 41.9338 71.8244 42.7394 71.8311 42.7512C71.8395 42.7659 71.8299 42.7831 71.8152 42.7916C71.8035 42.7983 71.7884 42.7992 71.7758 42.7908C71.5493 42.6127 71.3248 42.445 71.1042 42.2909C71.0962 42.2837 71.0886 42.2842 71.0828 42.2875C71.0769 42.2909 71.0698 42.2989 71.0702 42.3065C71.0519 42.4381 70.9981 42.8557 70.5844 43.0937C70.0711 43.3891 69.4348 43.0875 68.989 42.9691C68.9797 42.9666 68.9734 42.9624 68.9701 42.9566C68.9617 42.9419 68.968 42.9187 68.9826 42.9103ZM68.3178 43.3319C68.3094 43.3172 68.3157 43.2941 68.3303 43.2856C68.3362 43.2823 68.3467 43.2801 68.3559 43.2826C68.5383 43.3222 68.9153 43.3747 69.0767 43.2818C69.15 43.2396 69.1525 43.1757 69.1155 43.1111C69.0702 43.0317 68.9657 42.9513 68.8684 42.9174C68.8592 42.9149 68.8529 42.9107 68.8479 42.9019C68.8395 42.8872 68.8457 42.8641 68.8604 42.8557C68.8663 42.8523 68.8738 42.8518 68.883 42.8543C69.0051 42.8974 69.1221 42.9862 69.1759 43.0803C69.2296 43.1743 69.2217 43.2765 69.1073 43.3423C68.9313 43.4436 68.5346 43.3907 68.3367 43.3445C68.3274 43.342 68.3212 43.3378 68.3178 43.3319ZM68.727 42.7177C68.732 42.7265 68.7329 42.7416 68.7274 42.7526C68.7232 42.7589 68.7203 42.7606 68.7144 42.7639C68.7056 42.769 68.6905 42.7699 68.6796 42.7644C68.6347 42.7473 68.5911 42.7255 68.5462 42.7084C68.54 42.7042 68.5353 42.703 68.532 42.6971C68.5269 42.6883 68.5261 42.6731 68.5315 42.6622C68.5357 42.6559 68.5387 42.6542 68.5445 42.6508C68.5533 42.6458 68.5655 42.6466 68.5793 42.6503C68.6213 42.6691 68.6678 42.6892 68.7127 42.7063C68.719 42.7105 68.7236 42.7118 68.727 42.7177ZM67.782 43.32C67.7199 43.2113 67.6724 43.0941 67.6384 42.9731C67.6346 42.9597 67.6413 42.9441 67.653 42.9373C67.6677 42.9289 67.6891 42.9322 67.6992 42.9498C67.6992 42.9498 67.745 43.1187 67.8407 43.2862C67.9734 43.5184 68.21 43.7415 68.3186 43.679C68.3861 43.6402 68.3482 43.5058 68.3259 43.4327C68.2482 43.1806 68.1655 43.1384 68.2213 43.1063C68.236 43.0978 68.2527 43.0999 68.2628 43.1175C68.3518 43.2733 68.5119 43.642 68.3564 43.7315C68.2126 43.8142 67.9601 43.6315 67.782 43.32ZM66.6721 44.2789C66.6637 44.2642 66.667 44.2428 66.6817 44.2344C66.6846 44.2327 67.1479 44.2316 67.3034 44.1421C67.3826 44.0966 67.3838 44.01 67.3402 43.9335C67.3099 43.8806 67.2575 43.8366 67.2088 43.8061C67.2025 43.8019 67.1962 43.7977 67.1946 43.7947C67.1895 43.7859 67.1891 43.7784 67.1916 43.7691C67.1941 43.7598 67.2012 43.7518 67.2071 43.7485C67.2218 43.74 67.231 43.7425 67.2448 43.7463C67.249 43.74 67.2939 43.7024 67.3525 43.6687C67.596 43.5286 67.8758 43.6019 67.9496 43.7312C67.9832 43.79 67.9543 43.8418 67.9045 43.8705C67.7901 43.9363 67.5158 43.8793 67.3732 43.8481L67.3703 43.8498C67.3673 43.8515 67.3661 43.8561 67.3678 43.8591C67.3791 43.8721 67.3875 43.8868 67.3959 43.9015C67.4614 44.0161 67.438 44.1389 67.3383 44.1963C67.174 44.2908 66.6906 44.3113 66.6721 44.2789ZM67.8755 43.8129C67.899 43.7994 67.9073 43.7868 67.8905 43.7574C67.8452 43.6781 67.6045 43.5979 67.3844 43.7245C67.3668 43.7347 67.3522 43.7431 67.3392 43.7545C67.3333 43.7578 67.3337 43.7654 67.3354 43.7684C67.3371 43.7713 67.3388 43.7742 67.3417 43.7725C67.509 43.8129 67.7904 43.8619 67.8755 43.8129Z" fill="white"/>
<path d="M69.0082 42.9073L68.9788 43.018L68.9782 43.0179L69.0082 42.9073ZM70.9939 42.3504L71.108 42.3438L71.1085 42.3526L71.1076 42.3614L70.9939 42.3504ZM70.9587 42.316L70.9898 42.4265L70.9812 42.4282L70.9587 42.316ZM71.4679 41.4606L71.58 41.4837L71.5781 41.4905L71.4679 41.4606ZM70.7825 42.2533L70.7957 42.3671L70.7927 42.3674L70.7825 42.2533ZM70.9511 42.2345L71.0078 42.3338L70.9844 42.3472L70.9575 42.3488L70.9511 42.2345ZM70.9624 42.1928L70.9324 42.3034L70.9133 42.2982L70.8971 42.2869L70.9624 42.1928ZM69.4509 41.2467L69.3967 41.3476L69.368 41.3321L69.3518 41.3037L69.4509 41.2467ZM69.4983 41.1999L69.4427 41.3005L69.435 41.2953L69.4983 41.1999ZM71.7758 42.7908L71.7123 42.8866L71.7052 42.881L71.7758 42.7908ZM71.1042 42.2909L71.0383 42.3855L71.0281 42.3764L71.1042 42.2909ZM71.0702 42.3065L71.1843 42.2999L71.1849 42.3111L71.1834 42.3222L71.0702 42.3065ZM68.989 42.9691L68.9596 43.0799L68.959 43.0797L68.989 42.9691ZM68.9259 42.811C68.9563 42.7935 68.9978 42.7858 69.0382 42.7967L68.9782 43.0179C68.9914 43.0214 69.0024 43.0211 69.01 43.02C69.0172 43.019 69.0275 43.0165 69.0394 43.0096L68.9259 42.811ZM69.0376 42.7966C69.1531 42.8272 69.2801 42.869 69.4048 42.9074C69.5318 42.9465 69.6603 42.9834 69.7884 43.0082C70.0457 43.058 70.2854 43.0557 70.4912 42.9373L70.6047 43.1359C70.3294 43.2943 70.0244 43.2872 69.7447 43.2331C69.6043 43.2059 69.4662 43.166 69.3375 43.1264C69.2065 43.0861 69.0885 43.0472 68.9788 43.018L69.0376 42.7966ZM70.4912 42.9373C70.7037 42.815 70.8561 42.5867 70.8802 42.3394L71.1076 42.3614C71.076 42.6851 70.8792 42.978 70.6047 43.1359L70.4912 42.9373ZM70.8799 42.357C70.8798 42.356 70.8798 42.3554 70.8798 42.3549C70.8797 42.3544 70.8797 42.3542 70.8797 42.3542C70.8797 42.3543 70.8797 42.3546 70.8798 42.3552C70.8799 42.3557 70.88 42.3566 70.8802 42.3578C70.8808 42.3617 70.883 42.3731 70.8906 42.3864L71.0889 42.2723C71.1082 42.3062 71.108 42.3436 71.108 42.3438L70.8799 42.357ZM70.8906 42.3864C70.8996 42.4022 70.9123 42.4135 70.9263 42.4205C70.9418 42.4282 70.9646 42.4333 70.9897 42.4262L70.9277 42.2058C71.0048 42.1839 71.0653 42.2311 71.0889 42.2723L70.8906 42.3864ZM70.9812 42.4282C70.7048 42.4843 70.1064 42.4776 69.5327 42.3746C69.2441 42.3228 68.9552 42.2455 68.7114 42.1359C68.4701 42.0274 68.2586 41.8808 68.145 41.6819L68.3433 41.5678C68.4219 41.7053 68.5817 41.8264 68.8052 41.9268C69.0262 42.0262 69.2956 42.0992 69.5733 42.1491C70.1324 42.2495 70.6991 42.2518 70.9362 42.2037L70.9812 42.4282ZM68.145 41.6819C68.0686 41.5482 68.0568 41.413 68.1109 41.2893C68.1622 41.1723 68.265 41.0825 68.3828 41.0147L68.4963 41.2134C68.3998 41.2689 68.3437 41.3272 68.3201 41.3811C68.2995 41.4283 68.2971 41.4869 68.3433 41.5678L68.145 41.6819ZM68.3828 41.0147C68.8822 40.7273 69.5712 40.5632 70.1812 40.5506C70.4868 40.5443 70.7788 40.5758 71.0213 40.6528C71.262 40.7293 71.4682 40.8555 71.5789 41.0492L71.3806 41.1633C71.3099 41.0396 71.1654 40.9391 70.9519 40.8712C70.7403 40.804 70.4747 40.7736 70.1855 40.7796C69.6059 40.7916 68.9562 40.9487 68.4963 41.2134L68.3828 41.0147ZM71.5789 41.0492C71.6417 41.159 71.6596 41.2749 71.6592 41.3639C71.659 41.4087 71.6541 41.4494 71.6465 41.4823C71.6428 41.4985 71.6377 41.5155 71.6308 41.5312C71.6274 41.539 71.6225 41.5489 71.6156 41.5589C71.6098 41.5674 71.5966 41.5849 71.5737 41.5981L71.4602 41.3995C71.4403 41.4109 71.4301 41.4253 71.4275 41.4292C71.4237 41.4348 71.4219 41.4387 71.4217 41.4393C71.4211 41.4407 71.4222 41.4383 71.424 41.4308C71.4273 41.4164 71.4306 41.3929 71.4307 41.3632C71.431 41.3034 71.4186 41.2298 71.3806 41.1633L71.5789 41.0492ZM71.5737 41.5981C71.5341 41.6209 71.4921 41.62 71.4616 41.6118C71.431 41.6035 71.3943 41.583 71.3717 41.5433L71.57 41.4292C71.5557 41.4043 71.5348 41.3942 71.5215 41.3906C71.5083 41.387 71.4851 41.3851 71.4602 41.3995L71.5737 41.5981ZM71.3717 41.5433C71.3625 41.5273 71.3552 41.508 71.3529 41.4854C71.3506 41.4634 71.3539 41.4446 71.3576 41.4308L71.5781 41.4905C71.5794 41.4859 71.5816 41.4755 71.5802 41.4618C71.5787 41.4476 71.5741 41.4364 71.57 41.4292L71.3717 41.5433ZM71.356 41.4376C71.3747 41.3469 71.3617 41.2599 71.3215 41.1895L71.5198 41.0754C71.5904 41.199 71.6086 41.3439 71.5797 41.4837L71.356 41.4376ZM71.3215 41.1895C71.2598 41.0814 71.1257 40.9898 70.9197 40.9274C70.7165 40.8658 70.4597 40.838 70.1793 40.8443C69.6174 40.8569 68.9862 41.0056 68.5429 41.2607L68.4293 41.0621C68.9131 40.7838 69.5837 40.6285 70.1746 40.6153C70.4707 40.6086 70.753 40.6374 70.9861 40.7081C71.2166 40.7779 71.4161 40.894 71.5198 41.0754L71.3215 41.1895ZM68.5429 41.2607C68.4569 41.3102 68.4074 41.3569 68.3864 41.3978C68.3705 41.4288 68.3644 41.4684 68.4019 41.534L68.2036 41.6481C68.1337 41.5257 68.1268 41.4036 68.1832 41.2934C68.2346 41.1931 68.3305 41.119 68.4293 41.0621L68.5429 41.2607ZM68.4019 41.534C68.4389 41.5988 68.5206 41.6794 68.6542 41.7624C68.7857 41.8442 68.9594 41.9233 69.1689 41.9891C69.5878 42.1207 70.1422 42.1966 70.7724 42.1393L70.7927 42.3674C70.1333 42.4274 69.5486 42.3485 69.1003 42.2077C68.8763 42.1374 68.6844 42.0509 68.5336 41.9572C68.3849 41.8647 68.2674 41.7597 68.2036 41.6481L68.4019 41.534ZM70.7694 42.1396C70.8411 42.1312 70.9025 42.1226 70.9447 42.1201L70.9575 42.3488C70.9242 42.3507 70.8774 42.3575 70.7957 42.3671L70.7694 42.1396ZM70.8943 42.1351L70.9002 42.1318L71.0137 42.3304L71.0078 42.3338L70.8943 42.1351ZM70.9002 42.1318C70.8826 42.1419 70.8714 42.1564 70.865 42.1711C70.8602 42.1824 70.8487 42.2177 70.8712 42.257L71.0695 42.1429C71.097 42.191 71.0847 42.2385 71.0748 42.2615C71.0635 42.2879 71.0431 42.3135 71.0137 42.3304L70.9002 42.1318ZM70.8712 42.257C70.8693 42.2537 70.8749 42.2647 70.885 42.2752C70.8979 42.2886 70.9143 42.2985 70.9324 42.3034L70.9923 42.0822C71.0454 42.0966 71.067 42.1385 71.0695 42.1429L70.8712 42.257ZM70.8971 42.2869C70.4821 41.9979 70.1065 41.7628 69.8347 41.6C69.6989 41.5186 69.5891 41.4553 69.5134 41.4125C69.4755 41.3911 69.4462 41.3747 69.4264 41.3638C69.4165 41.3584 69.409 41.3543 69.404 41.3515C69.4015 41.3502 69.3997 41.3492 69.3984 41.3485C69.3978 41.3482 69.3974 41.3479 69.3971 41.3478C69.3969 41.3477 69.3968 41.3476 69.3968 41.3476C69.3968 41.3476 69.3967 41.3476 69.3967 41.3476C69.3967 41.3476 69.3967 41.3476 69.3967 41.3475C69.3967 41.3476 69.3967 41.3476 69.4509 41.2467C69.5052 41.1458 69.5052 41.1458 69.5052 41.1458C69.5052 41.1458 69.5052 41.1458 69.5052 41.1458C69.5053 41.1458 69.5053 41.1458 69.5054 41.1459C69.5055 41.1459 69.5056 41.146 69.5058 41.1461C69.5062 41.1463 69.5067 41.1466 69.5074 41.147C69.5088 41.1477 69.5108 41.1488 69.5135 41.1503C69.5188 41.1532 69.5266 41.1575 69.5368 41.1631C69.5573 41.1744 69.5873 41.1911 69.6259 41.213C69.7031 41.2566 69.8145 41.3209 69.9522 41.4033C70.2273 41.5682 70.6074 41.8061 71.0276 42.0987L70.8971 42.2869ZM69.3518 41.3037C69.3264 41.2592 69.3299 41.2125 69.3426 41.1788C69.3546 41.1468 69.3779 41.1177 69.4097 41.0994L69.5232 41.298C69.5403 41.2882 69.5508 41.2742 69.5562 41.2596C69.5624 41.2434 69.5654 41.2165 69.5501 41.1896L69.3518 41.3037ZM69.4097 41.0994C69.4248 41.0907 69.4484 41.0804 69.4786 41.0797C69.5102 41.079 69.5385 41.0891 69.5616 41.1044L69.435 41.2953C69.4455 41.3023 69.4623 41.3092 69.4833 41.3088C69.5029 41.3083 69.5169 41.3016 69.5232 41.298L69.4097 41.0994ZM69.5537 41.0996C70.2202 41.4691 70.8053 41.8564 71.2245 42.1527C71.4343 42.3009 71.6027 42.4265 71.7195 42.516C71.7778 42.5608 71.8233 42.5966 71.8548 42.6218C71.8704 42.6343 71.8828 42.6445 71.8917 42.6519C71.896 42.6556 71.9001 42.659 71.9034 42.6619C71.9049 42.6633 71.9071 42.6653 71.9094 42.6675C71.9105 42.6685 71.9125 42.6705 71.9147 42.6729C71.9148 42.673 71.9231 42.6816 71.9303 42.6941L71.732 42.8082C71.7364 42.8159 71.7407 42.8213 71.7422 42.8231C71.7442 42.8256 71.7459 42.8275 71.7469 42.8286C71.7488 42.8307 71.7503 42.8321 71.7508 42.8326C71.7519 42.8337 71.7525 42.8341 71.7519 42.8336C71.7509 42.8328 71.7488 42.8309 71.7451 42.8278C71.7379 42.8218 71.7268 42.8127 71.7118 42.8007C71.6819 42.7767 71.6377 42.7419 71.5805 42.698C71.466 42.6103 71.2999 42.4864 71.0927 42.34C70.6782 42.047 70.1003 41.6646 69.4429 41.3001L69.5537 41.0996ZM71.9303 42.6941C71.9557 42.7385 71.9515 42.7857 71.9362 42.8201C71.922 42.8522 71.8977 42.8761 71.872 42.8909L71.7585 42.6922C71.7474 42.6986 71.7353 42.7096 71.7274 42.7274C71.7186 42.7473 71.715 42.7785 71.732 42.8082L71.9303 42.6941ZM71.872 42.8909C71.8282 42.9161 71.7661 42.9219 71.7125 42.8863L71.8391 42.6954C71.8107 42.6764 71.7788 42.6806 71.7585 42.6922L71.872 42.8909ZM71.7052 42.881C71.4801 42.704 71.2574 42.5376 71.0387 42.3849L71.1696 42.1969C71.3923 42.3525 71.6184 42.5214 71.8464 42.7006L71.7052 42.881ZM71.0281 42.3764C71.0387 42.3859 71.0566 42.3968 71.0812 42.3992C71.1055 42.4016 71.1258 42.3948 71.1395 42.3869L71.026 42.1882C71.0456 42.1769 71.0726 42.1681 71.1041 42.1713C71.136 42.1744 71.1617 42.1887 71.1803 42.2053L71.0281 42.3764ZM71.1395 42.3869C71.151 42.3803 71.1596 42.3721 71.1663 42.363C71.172 42.3552 71.1861 42.333 71.1843 42.2999L70.9562 42.3131C70.9539 42.2724 70.9714 42.2424 70.982 42.2279C70.9936 42.212 71.0087 42.1982 71.026 42.1882L71.1395 42.3869ZM71.1834 42.3222C71.1649 42.4548 71.1064 42.9253 70.6412 43.193L70.5277 42.9944C70.8898 42.786 70.9389 42.4214 70.9571 42.2908L71.1834 42.3222ZM70.6412 43.193C70.3502 43.3604 70.0306 43.3546 69.7398 43.2991C69.594 43.2712 69.4517 43.2301 69.3203 43.1895C69.1865 43.1482 69.0681 43.1087 68.9596 43.0798L69.0184 42.8584C69.1328 42.8888 69.261 42.9314 69.388 42.9706C69.5173 43.0106 69.6498 43.0486 69.7829 43.0741C70.0501 43.1251 70.3053 43.1224 70.5277 42.9944L70.6412 43.193ZM68.959 43.0797C68.9328 43.0726 68.8947 43.0551 68.8709 43.0136L69.0692 42.8995C69.0522 42.8698 69.0267 42.8607 69.0189 42.8586L68.959 43.0797ZM68.8709 43.0136C68.8483 42.974 68.8492 42.9318 68.8575 42.9012C68.8658 42.8706 68.8863 42.8337 68.9259 42.811L69.0394 43.0096C69.0643 42.9953 69.0744 42.9742 69.078 42.961C69.0815 42.9477 69.0835 42.9245 69.0692 42.8995L68.8709 43.0136ZM68.3559 43.2826L68.3316 43.3947L68.3259 43.3932L68.3559 43.2826ZM68.8684 42.9174L68.8985 42.8066L68.906 42.8092L68.8684 42.9174ZM68.883 42.8543L68.9131 42.7435L68.9211 42.7463L68.883 42.8543ZM68.3367 43.3445L68.3106 43.4561L68.3067 43.4551L68.3367 43.3445ZM68.7274 42.7526L68.8296 42.8035L68.8265 42.8099L68.8225 42.8159L68.7274 42.7526ZM68.6796 42.7644L68.7206 42.6569L68.7306 42.6619L68.6796 42.7644ZM68.5462 42.7084L68.5055 42.8155L68.4936 42.8109L68.483 42.8039L68.5462 42.7084ZM68.5315 42.6622L68.4293 42.6112L68.4325 42.6048L68.4364 42.5989L68.5315 42.6622ZM68.5793 42.6503L68.6093 42.5398L68.6179 42.5421L68.6261 42.5458L68.5793 42.6503ZM68.7127 42.7063L68.7535 42.5993L68.7654 42.6038L68.776 42.6109L68.7127 42.7063ZM68.2187 43.389C68.196 43.3493 68.1969 43.3072 68.2052 43.2766C68.2135 43.2459 68.234 43.2091 68.2736 43.1863L68.3871 43.385C68.412 43.3706 68.4221 43.3496 68.4257 43.3363C68.4293 43.3231 68.4312 43.2998 68.4169 43.2749L68.2187 43.389ZM68.2736 43.1863C68.304 43.1688 68.3455 43.1611 68.3859 43.1721L68.3259 43.3932C68.3391 43.3968 68.3501 43.3964 68.3577 43.3953C68.3649 43.3943 68.3752 43.3918 68.3871 43.385L68.2736 43.1863ZM68.3802 43.1707C68.467 43.1895 68.6004 43.2114 68.7297 43.2175C68.7944 43.2205 68.8554 43.2195 68.9078 43.213C68.9617 43.2064 68.9984 43.1949 69.0199 43.1825L69.1334 43.3812C69.0742 43.4152 69.0033 43.432 68.9354 43.4404C68.8661 43.4489 68.7912 43.4497 68.7187 43.4463C68.5736 43.4395 68.4273 43.4153 68.3316 43.3946L68.3802 43.1707ZM69.0199 43.1825C69.0278 43.178 69.0293 43.1754 69.0285 43.1765C69.0273 43.178 69.0256 43.1812 69.025 43.1851C69.0244 43.1885 69.0251 43.1893 69.0244 43.1863C69.0236 43.1831 69.0215 43.177 69.0164 43.1681L69.2147 43.054C69.2406 43.0995 69.2615 43.1593 69.25 43.2246C69.2376 43.2946 69.1926 43.3471 69.1334 43.3812L69.0199 43.1825ZM69.0164 43.1681C68.9871 43.1169 68.9071 43.0522 68.8308 43.0257L68.906 42.8092C69.0243 42.8504 69.1532 42.9465 69.2147 43.054L69.0164 43.1681ZM68.8384 43.028C68.8246 43.0243 68.8068 43.0176 68.789 43.0045C68.7708 42.9911 68.7579 42.975 68.7487 42.959L68.947 42.8449C68.9429 42.8377 68.9356 42.828 68.9241 42.8196C68.913 42.8115 68.903 42.8081 68.8984 42.8069L68.8384 43.028ZM68.7487 42.959C68.7261 42.9193 68.7269 42.8772 68.7352 42.8466C68.7435 42.8159 68.7641 42.7791 68.8036 42.7563L68.9172 42.955C68.9421 42.9406 68.9521 42.9196 68.9557 42.9063C68.9593 42.8931 68.9613 42.8698 68.947 42.8449L68.7487 42.959ZM68.8036 42.7563C68.8451 42.7325 68.8868 42.7367 68.913 42.7438L68.8531 42.9649C68.8608 42.967 68.8875 42.9721 68.9172 42.955L68.8036 42.7563ZM68.9211 42.7463C69.0624 42.7961 69.2046 42.8999 69.275 43.0232L69.0767 43.1373C69.0397 43.0725 68.9478 42.9986 68.845 42.9624L68.9211 42.7463ZM69.275 43.0232C69.3113 43.0867 69.3334 43.1645 69.3165 43.2453C69.2989 43.329 69.2436 43.3959 69.1641 43.4416L69.0506 43.243C69.0855 43.2229 69.0913 43.2057 69.0929 43.1984C69.095 43.1882 69.0942 43.1679 69.0767 43.1373L69.275 43.0232ZM69.1641 43.4416C69.1019 43.4774 69.0275 43.4959 68.9552 43.5054C68.8816 43.5151 68.8023 43.5165 68.7251 43.5131C68.5709 43.5064 68.4152 43.4804 68.3106 43.456L68.3627 43.2329C68.4561 43.2547 68.5977 43.2783 68.7353 43.2843C68.8041 43.2873 68.8693 43.2857 68.9258 43.2783C68.9835 43.2707 69.0248 43.2578 69.0506 43.243L69.1641 43.4416ZM68.3067 43.4551C68.2805 43.4479 68.2424 43.4305 68.2187 43.389L68.4169 43.2749C68.3999 43.2451 68.3744 43.236 68.3666 43.2339L68.3067 43.4551ZM68.8261 42.6606C68.8401 42.6852 68.8448 42.7108 68.8453 42.7312C68.8459 42.7522 68.8423 42.778 68.8296 42.8035L68.6252 42.7016C68.6179 42.7161 68.6167 42.729 68.6169 42.7375C68.6171 42.7454 68.6188 42.759 68.6278 42.7747L68.8261 42.6606ZM68.8225 42.8159C68.8158 42.826 68.8067 42.8373 68.7938 42.8479C68.7831 42.8567 68.7722 42.8627 68.7712 42.8632L68.6577 42.6646C68.6596 42.6635 68.6589 42.6639 68.6578 42.6646C68.6563 42.6655 68.6531 42.6676 68.6493 42.6708C68.6403 42.6781 68.6348 42.6855 68.6323 42.6892L68.8225 42.8159ZM68.7712 42.8632C68.7467 42.8774 68.7211 42.8821 68.7008 42.8826C68.6798 42.8832 68.654 42.8797 68.6286 42.867L68.7306 42.6619C68.7161 42.6546 68.7033 42.6534 68.6948 42.6536C68.687 42.6538 68.6734 42.6556 68.6577 42.6646L68.7712 42.8632ZM68.6388 42.8715C68.6133 42.8617 68.5886 42.8509 68.5669 42.8413C68.5444 42.8314 68.5248 42.8228 68.5055 42.8155L68.587 42.6014C68.6125 42.6111 68.6372 42.622 68.6589 42.6315C68.6815 42.6414 68.701 42.65 68.7204 42.6574L68.6388 42.8715ZM68.483 42.8039C68.4844 42.8048 68.4855 42.8054 68.4843 42.8047C68.4841 42.8046 68.4794 42.8019 68.4747 42.7988C68.4693 42.7952 68.4617 42.7896 68.4538 42.7817C68.4456 42.7735 68.4386 42.7642 68.4328 42.7541L68.6311 42.64C68.627 42.6329 68.6219 42.626 68.6157 42.6198C68.6098 42.6139 68.6044 42.61 68.6013 42.6079C68.599 42.6064 68.5969 42.6052 68.5994 42.6066C68.6009 42.6075 68.6049 42.6099 68.6095 42.613L68.483 42.8039ZM68.4328 42.7541C68.4188 42.7296 68.4142 42.704 68.4136 42.6836C68.4131 42.6626 68.4166 42.6367 68.4293 42.6112L68.6338 42.7132C68.641 42.6986 68.6423 42.6858 68.642 42.6773C68.6418 42.6694 68.6401 42.6558 68.6311 42.64L68.4328 42.7541ZM68.4364 42.5989C68.4431 42.5888 68.4522 42.5774 68.4651 42.5668C68.4758 42.558 68.4868 42.5521 68.4878 42.5515L68.6013 42.7501C68.5993 42.7513 68.6001 42.7509 68.6011 42.7502C68.6026 42.7492 68.6058 42.7472 68.6097 42.744C68.6186 42.7367 68.6241 42.7293 68.6266 42.7255L68.4364 42.5989ZM68.4878 42.5515C68.539 42.522 68.5912 42.5348 68.6093 42.5398L68.5494 42.7609C68.5477 42.7605 68.5516 42.7617 68.5591 42.7618C68.5669 42.7619 68.5832 42.7605 68.6013 42.7501L68.4878 42.5515ZM68.6261 42.5458C68.6672 42.5642 68.7115 42.5833 68.7535 42.5993L68.6719 42.8134C68.6241 42.7952 68.5754 42.7741 68.5325 42.7549L68.6261 42.5458ZM68.776 42.6109C68.7745 42.6099 68.7734 42.6093 68.7746 42.61C68.7749 42.6102 68.7796 42.6128 68.7842 42.6159C68.7897 42.6195 68.7973 42.6251 68.8052 42.6331C68.8133 42.6413 68.8203 42.6505 68.8261 42.6606L68.6278 42.7747C68.6319 42.7819 68.6371 42.7887 68.6432 42.7949C68.6492 42.8009 68.6546 42.8048 68.6576 42.8068C68.6599 42.8083 68.6621 42.8096 68.6596 42.8081C68.6581 42.8072 68.654 42.8049 68.6494 42.8018L68.776 42.6109ZM67.6384 42.9731L67.5284 43.0044L67.5284 43.0044L67.6384 42.9731ZM67.6992 42.9498L67.7983 42.8928L67.8056 42.9055L67.8094 42.9196L67.6992 42.9498ZM68.3259 43.4327L68.4351 43.3987L68.4352 43.399L68.3259 43.4327ZM67.6829 43.377C67.6157 43.2594 67.5648 43.1334 67.5284 43.0044L67.7483 42.9418C67.7801 43.0547 67.8241 43.1631 67.8812 43.2629L67.6829 43.377ZM67.5284 43.0044C67.51 42.939 67.5403 42.8703 67.5963 42.838L67.7098 43.0366C67.7283 43.026 67.7395 43.0108 67.7453 42.9966C67.7512 42.9824 67.7543 42.9631 67.7483 42.9418L67.5284 43.0044ZM67.5963 42.838C67.6591 42.8018 67.7533 42.814 67.7983 42.8928L67.6 43.0069C67.6249 43.0505 67.6762 43.0559 67.7098 43.0366L67.5963 42.838ZM67.6992 42.9498C67.8094 42.9196 67.8094 42.9196 67.8094 42.9196C67.8094 42.9196 67.8094 42.9196 67.8094 42.9196C67.8094 42.9195 67.8094 42.9195 67.8094 42.9195C67.8094 42.9195 67.8094 42.9195 67.8094 42.9195C67.8094 42.9195 67.8094 42.9195 67.8094 42.9196C67.8094 42.9198 67.8095 42.9201 67.8097 42.9206C67.8099 42.9215 67.8104 42.9231 67.811 42.9252C67.8122 42.9294 67.8141 42.9359 67.8168 42.9443C67.8221 42.9612 67.8302 42.9856 67.8411 43.0152C67.8632 43.0746 67.8961 43.1525 67.9399 43.2292L67.7416 43.3433C67.6897 43.2524 67.6518 43.1622 67.627 43.0953C67.6145 43.0616 67.6051 43.0334 67.5988 43.0134C67.5957 43.0034 67.5933 42.9953 67.5916 42.9897C67.5908 42.9868 67.5902 42.9846 67.5897 42.983C67.5895 42.9822 67.5893 42.9815 67.5892 42.981C67.5891 42.9808 67.5891 42.9806 67.589 42.9804C67.589 42.9803 67.589 42.9803 67.589 42.9802C67.589 42.9802 67.5889 42.9802 67.5889 42.9801C67.5889 42.9801 67.5889 42.9801 67.5889 42.9801C67.5889 42.9801 67.5889 42.9801 67.6992 42.9498ZM67.9399 43.2292C68.0005 43.3352 68.0848 43.4386 68.1633 43.5062C68.2029 43.5404 68.2359 43.5609 68.2591 43.5702C68.2846 43.5803 68.2787 43.57 68.2618 43.5797L68.3753 43.7783C68.3042 43.8193 68.228 43.8045 68.1744 43.7831C68.1187 43.7609 68.0639 43.7229 68.0141 43.68C67.914 43.5937 67.8136 43.4694 67.7416 43.3433L67.9399 43.2292ZM68.2618 43.5797C68.2469 43.5883 68.2421 43.6009 68.2417 43.6025C68.2416 43.6028 68.2421 43.6009 68.2424 43.5963C68.2427 43.5918 68.2427 43.5858 68.242 43.578C68.2394 43.5443 68.228 43.5034 68.2167 43.4663L68.4352 43.399C68.4462 43.435 68.4649 43.4979 68.4698 43.5594C68.4738 43.6094 68.4738 43.7217 68.3753 43.7783L68.2618 43.5797ZM68.2168 43.4667C68.1811 43.351 68.1451 43.2851 68.1217 43.2391C68.1159 43.2275 68.1092 43.2141 68.1038 43.201C68.0987 43.1886 68.0915 43.169 68.0894 43.1459C68.087 43.1196 68.0912 43.0884 68.1096 43.0588C68.1263 43.0319 68.1487 43.0161 68.1645 43.007L68.278 43.2056C68.2799 43.2045 68.2928 43.197 68.3036 43.1795C68.3161 43.1594 68.3182 43.1387 68.317 43.1248C68.316 43.1141 68.3132 43.1088 68.315 43.1134C68.3166 43.1172 68.3195 43.1234 68.3254 43.1349C68.3488 43.181 68.393 43.2623 68.4351 43.3987L68.2168 43.4667ZM68.1645 43.007C68.1911 42.9917 68.2283 42.9811 68.2693 42.9905C68.3123 43.0003 68.3436 43.0284 68.362 43.0605L68.1637 43.1746C68.1719 43.189 68.1898 43.2073 68.2182 43.2138C68.2447 43.2199 68.2661 43.2125 68.278 43.2056L68.1645 43.007ZM68.362 43.0605C68.4096 43.1438 68.4768 43.2846 68.5119 43.4205C68.5292 43.4878 68.5411 43.5626 68.5334 43.6321C68.5255 43.7034 68.4946 43.7839 68.4131 43.8308L68.2996 43.6322C68.3 43.6319 68.2999 43.632 68.2997 43.6322C68.2995 43.6324 68.2998 43.6321 68.3004 43.631C68.3018 43.6284 68.3048 43.6213 68.3063 43.6073C68.3096 43.5776 68.305 43.5337 68.2907 43.4782C68.2623 43.3684 68.205 43.247 68.1637 43.1746L68.362 43.0605ZM68.4131 43.8308C68.2796 43.9076 68.1273 43.8471 68.0154 43.7667C67.8956 43.6806 67.7779 43.5433 67.6829 43.377L67.8812 43.2629C67.9642 43.4082 68.0618 43.518 68.1487 43.5804C68.2435 43.6486 68.2894 43.638 68.2996 43.6322L68.4131 43.8308ZM67.2088 43.8061L67.148 43.9032L67.1455 43.9015L67.2088 43.8061ZM67.1916 43.7691L67.3018 43.799L67.3018 43.799L67.1916 43.7691ZM67.2448 43.7463L67.3399 43.8096L67.2943 43.8784L67.2149 43.8569L67.2448 43.7463ZM67.3732 43.8481L67.3165 43.7488L67.3547 43.7268L67.3977 43.7362L67.3732 43.8481ZM67.3678 43.8591L67.2817 43.9345L67.2742 43.926L67.2686 43.9161L67.3678 43.8591ZM67.3392 43.7545L67.4143 43.8407L67.4058 43.8481L67.3959 43.8538L67.3392 43.7545ZM67.3417 43.7725L67.285 43.6732L67.3244 43.6505L67.3686 43.6612L67.3417 43.7725ZM66.5729 44.336C66.5541 44.3031 66.5496 44.2657 66.5561 44.2324C66.5628 44.1986 66.5831 44.1591 66.6249 44.135L66.7384 44.3337C66.7656 44.3181 66.7769 44.2935 66.7803 44.2762C66.7836 44.2594 66.7816 44.2401 66.7712 44.2219L66.5729 44.336ZM66.6249 44.135C66.6389 44.127 66.6512 44.124 66.6534 44.1234C66.6578 44.1223 66.6614 44.1216 66.6632 44.1213C66.667 44.1207 66.67 44.1204 66.6711 44.1203C66.6738 44.12 66.6761 44.1199 66.6771 44.1198C66.6794 44.1197 66.6818 44.1196 66.6837 44.1196C66.6878 44.1194 66.6935 44.1193 66.6999 44.1191C66.7131 44.1187 66.7316 44.1182 66.7541 44.1174C66.7993 44.1157 66.8604 44.1127 66.9258 44.107C66.9915 44.1014 67.0596 44.0933 67.1195 44.0816C67.1822 44.0694 67.2248 44.0554 67.2467 44.0428L67.3602 44.2414C67.3043 44.2736 67.2307 44.2933 67.1627 44.3065C67.0918 44.3203 67.0149 44.3293 66.9449 44.3353C66.8747 44.3413 66.8097 44.3445 66.7623 44.3463C66.7386 44.3472 66.7192 44.3477 66.7058 44.3481C66.699 44.3483 66.6943 44.3484 66.6912 44.3485C66.6895 44.3486 66.6891 44.3486 66.6895 44.3486C66.6895 44.3486 66.691 44.3485 66.6932 44.3483C66.6941 44.3482 66.6969 44.3479 66.7005 44.3473C66.7022 44.347 66.7057 44.3464 66.7101 44.3452C66.7122 44.3447 66.7245 44.3417 66.7384 44.3337L66.6249 44.135ZM67.2467 44.0428C67.2498 44.041 67.2517 44.0395 67.2526 44.0386C67.2536 44.0377 67.254 44.0372 67.254 44.0371C67.2541 44.0371 67.2541 44.037 67.2542 44.0369C67.2542 44.0367 67.2544 44.0361 67.2546 44.0349C67.2553 44.0295 67.2543 44.0138 67.241 43.9906L67.4393 43.8765C67.4697 43.9297 67.49 43.9955 67.4812 44.0639C67.4718 44.137 67.4302 44.2011 67.3602 44.2414L67.2467 44.0428ZM67.241 43.9906C67.2239 43.9607 67.189 43.9289 67.1481 43.9031L67.2696 43.709C67.3259 43.7444 67.3959 43.8006 67.4393 43.8765L67.241 43.9906ZM67.1455 43.9015C67.1432 43.8999 67.137 43.8959 67.1312 43.8915C67.1282 43.8892 67.1234 43.8855 67.1183 43.8807C67.1142 43.8768 67.1041 43.867 67.0954 43.8518L67.2937 43.7377C67.2894 43.7301 67.285 43.7246 67.2822 43.7213C67.2793 43.7179 67.2767 43.7153 67.2749 43.7137C67.2717 43.7106 67.2692 43.7087 67.2687 43.7084C67.2681 43.7079 67.2682 43.708 67.2721 43.7106L67.1455 43.9015ZM67.0954 43.8518C67.0863 43.8358 67.0789 43.8164 67.0766 43.7939C67.0744 43.7719 67.0776 43.7531 67.0814 43.7392L67.3018 43.799C67.3031 43.7944 67.3053 43.784 67.3039 43.7703C67.3025 43.756 67.2978 43.7449 67.2937 43.7377L67.0954 43.8518ZM67.0814 43.7392C67.0923 43.6987 67.12 43.6666 67.1503 43.6492L67.2639 43.8478C67.2758 43.8409 67.2831 43.8333 67.2876 43.8276C67.2924 43.8215 67.2983 43.8121 67.3018 43.799L67.0814 43.7392ZM67.1503 43.6492C67.1725 43.6364 67.1982 43.6281 67.2272 43.6283C67.2506 43.6284 67.2713 43.6347 67.2748 43.6357L67.2149 43.8569C67.2106 43.8557 67.2109 43.8558 67.2119 43.856C67.2134 43.8563 67.2184 43.8573 67.2253 43.8573C67.2328 43.8574 67.2406 43.8564 67.2483 43.8542C67.2556 43.8521 67.2609 43.8495 67.2639 43.8478L67.1503 43.6492ZM67.1497 43.683C67.1578 43.6708 67.1673 43.6618 67.1687 43.6604C67.1726 43.6566 67.1768 43.6529 67.1807 43.6495C67.1887 43.6426 67.1985 43.6347 67.2096 43.6263C67.2319 43.6095 67.2617 43.589 67.2958 43.5694L67.4093 43.768C67.3847 43.7822 67.3627 43.7973 67.3469 43.8092C67.3389 43.8152 67.3331 43.82 67.3297 43.823C67.3279 43.8245 67.3274 43.825 67.3278 43.8246C67.328 43.8244 67.329 43.8234 67.3305 43.8218C67.3313 43.821 67.3354 43.8164 67.3399 43.8096L67.1497 43.683ZM67.2958 43.5694C67.4415 43.4855 67.5988 43.465 67.7323 43.4857C67.8602 43.5055 67.9879 43.5676 68.0488 43.6742L67.8505 43.7883C67.8375 43.7655 67.7884 43.7263 67.6971 43.7121C67.6113 43.6988 67.507 43.7118 67.4093 43.768L67.2958 43.5694ZM68.0488 43.6742C68.0813 43.7311 68.0876 43.7948 68.0648 43.8535C68.0437 43.9081 68.0022 43.9462 67.9612 43.9698L67.8477 43.7711C67.8516 43.7689 67.8535 43.7671 67.8541 43.7665C67.8546 43.7659 67.8533 43.7672 67.8519 43.7708C67.8504 43.7747 67.8496 43.7795 67.85 43.7843C67.8504 43.7889 67.8517 43.7904 67.8505 43.7883L68.0488 43.6742ZM67.9612 43.9698C67.9114 43.9985 67.8533 44.0093 67.8019 44.0133C67.7488 44.0175 67.6921 44.015 67.6381 44.0097C67.53 43.999 67.42 43.9756 67.3487 43.96L67.3977 43.7362C67.469 43.7518 67.5674 43.7725 67.6607 43.7817C67.7074 43.7863 67.7496 43.7877 67.7846 43.7849C67.8213 43.7821 67.8404 43.7754 67.8477 43.7711L67.9612 43.9698ZM67.43 43.9475L67.427 43.9491L67.3135 43.7505L67.3165 43.7488L67.43 43.9475ZM67.427 43.9491C67.4578 43.9314 67.4721 43.9041 67.4775 43.8839C67.483 43.8637 67.4845 43.8329 67.4669 43.802L67.2686 43.9161C67.2493 43.8824 67.2506 43.8478 67.2571 43.8241C67.2635 43.8004 67.2798 43.7699 67.3135 43.7505L67.427 43.9491ZM67.4539 43.7837C67.4738 43.8066 67.4875 43.8313 67.495 43.8444L67.2968 43.9585C67.2875 43.9423 67.2844 43.9376 67.2817 43.9345L67.4539 43.7837ZM67.495 43.8444C67.5838 43.9997 67.5627 44.1991 67.395 44.2956L67.2815 44.097C67.3133 44.0787 67.339 44.0325 67.2968 43.9585L67.495 43.8444ZM67.395 44.2956C67.3382 44.3283 67.2631 44.3502 67.1912 44.3656C67.1168 44.3815 67.0356 44.3925 66.9605 44.3993C66.8855 44.406 66.8138 44.4087 66.7581 44.4075C66.7307 44.4068 66.7041 44.4052 66.6818 44.4018C66.6711 44.4001 66.6571 44.3974 66.6431 44.3926C66.6361 44.3901 66.6259 44.386 66.6149 44.3792C66.605 44.3731 66.5866 44.3598 66.5729 44.336L66.7712 44.2219C66.7588 44.2001 66.7424 44.1888 66.7354 44.1844C66.7274 44.1794 66.7209 44.177 66.7185 44.1762C66.7137 44.1745 66.7122 44.1746 66.7167 44.1753C66.725 44.1766 66.7405 44.1779 66.7636 44.1784C66.8089 44.1795 66.8718 44.1773 66.9405 44.1711C67.009 44.165 67.0807 44.1551 67.1438 44.1416C67.2093 44.1276 67.2562 44.1115 67.2815 44.097L67.395 44.2956ZM67.8187 43.7136C67.8213 43.7121 67.8179 43.7138 67.8126 43.7186C67.8067 43.7241 67.7964 43.7356 67.7901 43.754C67.7766 43.7934 67.7949 43.8206 67.7914 43.8145L67.9897 43.7004C68.003 43.7236 68.0255 43.7718 68.0061 43.8283C67.9883 43.88 67.9457 43.9045 67.9323 43.9123L67.8187 43.7136ZM67.7914 43.8145C67.7956 43.8218 67.7939 43.8147 67.7709 43.8029C67.7507 43.7924 67.7215 43.7824 67.6858 43.777C67.6145 43.7662 67.526 43.775 67.4412 43.8238L67.3277 43.6252C67.4629 43.5474 67.6048 43.533 67.7202 43.5505C67.7778 43.5592 67.8311 43.5762 67.8756 43.5991C67.9174 43.6207 67.9628 43.6534 67.9897 43.7004L67.7914 43.8145ZM67.4412 43.8238C67.4216 43.8351 67.4172 43.8381 67.4143 43.8407L67.2641 43.6683C67.2871 43.6481 67.3121 43.6342 67.3277 43.6252L67.4412 43.8238ZM67.3959 43.8538C67.4299 43.8343 67.4437 43.8023 67.4473 43.7791C67.4502 43.7605 67.4487 43.736 67.4346 43.7113L67.2363 43.8254C67.2205 43.7978 67.2179 43.7681 67.2216 43.7441C67.226 43.7155 67.2426 43.6781 67.2824 43.6552L67.3959 43.8538ZM67.4346 43.7113C67.4354 43.7127 67.4339 43.71 67.4318 43.707C67.43 43.7041 67.4242 43.6956 67.4142 43.6867C67.4037 43.6773 67.3842 43.6636 67.3558 43.6596C67.3262 43.6554 67.3014 43.6638 67.285 43.6732L67.3985 43.8719C67.3806 43.8821 67.3545 43.8908 67.3237 43.8864C67.2941 43.8823 67.2735 43.868 67.262 43.8577C67.251 43.8479 67.2443 43.8382 67.2415 43.834C67.2386 43.8296 67.2363 43.8254 67.2363 43.8254L67.4346 43.7113ZM67.3686 43.6612C67.4492 43.6806 67.5564 43.7019 67.652 43.7124C67.7 43.7176 67.7422 43.7199 67.7753 43.7185C67.8128 43.717 67.8227 43.7113 67.8187 43.7136L67.9323 43.9123C67.8857 43.939 67.8286 43.9456 67.7842 43.9474C67.7354 43.9494 67.6808 43.946 67.6269 43.9401C67.5187 43.9282 67.4015 43.9048 67.3148 43.8839L67.3686 43.6612Z" fill="white"/>
<path d="M87.0913 37.8208C93.0612 35.4639 100.752 30.0461 103.851 27.6318L102.506 30.6942L99.681 30.9545L98.7586 31.8511C94.8156 38.2837 89.3375 38.5112 87.0913 37.8208Z" fill="white"/>
<path d="M79.5454 39.9797C76.9504 41.5099 69.5773 45.4885 60.8451 49.161C64.9116 49.3758 74.3446 47.8402 79.5454 39.9797Z" fill="white"/>
<path d="M106.006 22.5317C105.351 23.9027 105.408 24.8452 102.078 31.1M106.788 29.3031C105.581 30.1905 102.277 31.7923 98.7117 31.1C98.1238 32.9542 95.9267 36.9419 91.842 38.0598C87.7573 39.1777 83.5797 37.4698 82.0015 36.4762C80.052 39.923 74.4076 47.1147 67.4265 48.3071C60.4453 49.4995 58.0192 49.3629 57.6788 49.1455C57.1218 50.4807 53.9097 53.2444 45.5175 53.617M43.547 34.4315C41.9874 35.4522 37.7278 37.2903 33.1661 36.4762C32.4838 37.5552 30.0957 39.8307 26.0018 40.3002C21.9079 40.7697 18.2526 39.0022 16.9367 38.0598C15.2797 41.1961 9.77245 47.6364 0.999841 48.3071" stroke="#03224C" stroke-linecap="round"/>
<path d="M35.9623 44.0378C37.5689 45.8032 39.2193 46.0392 40.4938 45.7194C41.1052 47.8685 46.3315 52.5146 48.5288 52.9246C43.2793 54.6806 37.8123 55.7357 34.5297 54.8403C33.3058 57.2197 28.8841 57.4431 27.7686 56.9953C22.0415 62.2634 10.0307 61.8643 6.84899 58.5119C13.3714 59.5495 23.8511 55.5191 25.0621 51.1377C28.8101 54.7452 33.8906 47.9076 35.9623 44.0378Z" fill="white"/>
<path d="M38.5583 40.9077C39.1932 44.0262 42.2475 50.8267 49.3853 53.08" stroke="#03224C"/>
<path d="M42.981 35.7743L37.3382 38.6569V40.3199L56.1134 49.0653L61.9565 45.2392C62.7735 43.8955 65.0749 40.6979 67.7438 38.6569C71.0801 36.1058 78.9781 33.556 87.8975 30.4131C96.8168 27.2702 105.872 23.7858 108.951 20.028C111.413 17.0218 112.079 12.4389 112.104 10.5232C112.277 6.81937 110.495 3.60761 108.951 1.90283C93.0482 -1.49461 75.9145 5.40322 72.3236 10.8597C68.7327 16.3162 58.1653 22.0816 52.4199 24.6554C47.8236 26.7144 44.2122 32.9259 42.981 35.7743Z" fill="white"/>
<path d="M60.8328 44.4223C61.1748 43.1525 63.3772 39.6453 69.4509 35.7743C77.043 30.9355 97.2546 28.0528 107.206 19.5077C110.674 16.5307 111.971 13.3805 112.104 10.5232M60.8328 44.4223L56.1134 47.6138L37.3382 38.6569M60.8328 44.4223L54.1946 41.2765M37.3382 38.6569L42.981 35.7743M37.3382 38.6569V40.3199L56.1134 49.0653L61.9565 45.2392C62.7735 43.8955 65.0749 40.6979 67.7438 38.6569C71.0801 36.1058 78.9781 33.556 87.8975 30.4131C96.8168 27.2702 105.872 23.7858 108.951 20.028C111.413 17.0218 112.079 12.4389 112.104 10.5232M42.981 35.7743C44.2122 32.9259 47.8236 26.7144 52.4199 24.6554C58.1653 22.0816 68.7327 16.3162 72.3236 10.8597C75.9145 5.40322 93.0482 -1.49461 108.951 1.90283C110.495 3.60761 112.277 6.81937 112.104 10.5232M42.981 35.7743L50.6541 39.5684" stroke="#03224C" stroke-linecap="round" stroke-linejoin="round"/>
<path d="M111.298 11.7827L101.995 18.6683M111.826 7.74404L107.405 10.8558M104.964 12.7097L100.741 15.9538M110.572 4.63228L99.8175 12.7097M108.725 2.11639L98.432 9.99515M104.964 1.52052L96.3866 7.74404M101.203 1.18945L93.5495 6.35368M95.9248 1.18945L90.7784 5.29433M90.7784 2.11639L88.0073 3.90396M67.7991 33.0808C66.8402 33.4879 64.7674 34.4131 64.1478 34.8572C63.5282 35.3014 61.9718 37.1889 61.271 38.0771M59.722 40.4087L57.9517 42.7404M55.4068 26.419C54.3372 26.8261 51.9104 27.9734 50.7597 29.3058C49.609 30.6381 46.8871 34.8202 45.67 36.7448" stroke="#03224C" stroke-width="0.4" stroke-linecap="round"/>
<path d="M100.608 20.2509C99.5228 21.1581 97.0418 22.5945 95.9368 23.1993C96.3663 22.8357 98.8687 21.0822 100.066 20.2509C93.0173 13.2805 81.7198 10.4924 76.9521 9.96964C76.47 10.3325 74.3405 11.8848 73.336 12.6156C73.7579 8.624 77.2283 4.703 78.9109 3.24146C89.8195 3.90672 97.0166 9.46566 99.2516 12.162C100.276 15.9116 100.583 19.117 100.608 20.2509Z" fill="#E2EFF2"/>
<path d="M99.2084 11.9779C97.9428 14.8809 96.5214 20.6465 95.969 23.1664C97.2949 22.6826 99.5851 20.9992 100.564 20.2181C100.444 16.7103 99.6102 13.2631 99.2084 11.9779ZM99.2084 11.9779C97.6515 9.65959 91.4488 4.67518 79.0937 3.28418M79.0937 3.28418C78.5914 4.44335 77.4815 7.42694 77.0596 10.088C76.1053 10.6676 74.0612 11.993 73.5188 12.6583C72.8408 13.4899 74.7242 6.45928 79.0937 3.28418Z" stroke="#03224C" stroke-width="0.4"/>
<path d="M85.8595 26.9884C93.9642 25.405 98.6262 21.7104 100.563 20.3669C92.5871 12.1908 81.6278 10.4107 77.1092 9.93091C74.5272 11.4855 69.7695 15.6647 68.2155 17.9198L85.8595 26.9884Z" fill="#03224C"/>
<path d="M65.4183 19.8631L80.9823 28.0679C79.0314 28.9316 72.3755 31.4986 69.2914 32.6742L55.4488 25.333C57.8587 24.3542 63.0993 21.2785 65.4183 19.8631Z" fill="#03224C"/>
<path d="M89.336 15.183C89.7 14.7238 90.74 13.9182 91.988 14.369C93.8738 15.0502 94.0524 17.1234 93.5842 18.2097C93.116 19.296 92.1129 19.6602 91.6449 19.8481" stroke="#5B5B5B" stroke-width="0.4"/>
<path d="M94.1584 18.678C93.9709 18.8096 93.4552 19.048 93.2208 19.1507C93.0503 18.8145 92.8492 18.5503 92.77 18.4603C92.9309 18.3548 92.9823 18.0615 93.0402 17.8397C93.0866 17.6623 93.3773 17.6781 93.5231 17.661C93.518 17.7851 93.4657 17.9483 93.4339 18.0615C94.0646 17.9464 93.9383 17.5667 93.9879 17.1777C94.1513 17.2599 94.478 17.4614 94.478 17.6093C94.478 17.7943 94.3928 18.5136 94.1584 18.678Z" fill="white"/>
<path d="M66.0447 30.4619C64.7326 30.8879 61.9695 31.8444 61.4138 32.2626C60.8581 32.6808 56.8987 38.4005 54.9885 41.208M60.6613 27.4995C59.3685 28.0029 56.6903 29.0562 56.3199 29.2421C55.8568 29.4745 51.4575 34.6442 49.0841 38.4199" stroke="#03224C" stroke-linecap="round"/>
<path d="M95.8042 23.0452C96.7503 19.6976 98.4045 14.4174 99.1721 12.523C99.845 14.0477 100.24 18.3538 100.374 20.1543C98.0341 21.953 97.0463 22.494 95.8042 23.0452Z" fill="#FFF3EE"/>
<path fill-rule="evenodd" clip-rule="evenodd" d="M88.5242 14.0972C88.4511 14.3173 88.3926 14.9072 88.7436 15.506C88.8953 15.7648 89.1677 15.9657 89.4628 16.1834C90.021 16.5951 90.6605 17.0667 90.7179 18.1035C90.742 18.5388 90.8079 18.9315 90.8758 19.2893L92.2675 18.3998C92.8158 18.4915 93.2541 19.0845 93.0236 19.7785C92.5972 20.1912 90.9862 21.4386 90.4658 21.7507L90.466 21.743C90.0027 22.0208 89.3879 21.8846 89.0945 21.1854V24.0911C88.3487 24.59 86.4182 25.2886 84.6633 24.0911C82.9083 22.8936 82.8791 21.655 83.0838 21.1854C83.2358 21.0583 83.3287 20.6525 83.4408 20.1627C83.523 19.8038 83.6155 19.3998 83.749 19.0274C83.9495 18.4688 84.0302 17.8607 84.1069 17.2821C84.1814 16.7208 84.2522 16.1874 84.425 15.7538C84.5733 15.3819 85.0145 15.0836 85.478 14.7702C86.112 14.3415 86.7878 13.8847 86.8131 13.1726L88.5242 14.0972Z" fill="#03224C"/>
<path d="M88.7436 15.506L88.571 15.6071L88.7436 15.506ZM88.5242 14.0972L88.6193 13.9212C88.7046 13.9673 88.7446 14.0681 88.714 14.1602L88.5242 14.0972ZM89.4628 16.1834L89.3441 16.3444L89.4628 16.1834ZM90.7179 18.1035L90.9176 18.0925L90.7179 18.1035ZM90.8758 19.2893L90.9835 19.4578C90.9276 19.4936 90.8575 19.4993 90.7966 19.473C90.7356 19.4467 90.6917 19.3918 90.6793 19.3266L90.8758 19.2893ZM92.2675 18.3998L92.1598 18.2313C92.2015 18.2046 92.2517 18.1944 92.3005 18.2026L92.2675 18.3998ZM93.0236 19.7785L93.2134 19.8415C93.2033 19.8721 93.1859 19.8998 93.1627 19.9222L93.0236 19.7785ZM90.4658 21.7507L90.5687 21.9222C90.5062 21.9597 90.4282 21.9602 90.3652 21.9235C90.3022 21.8868 90.2641 21.8187 90.2659 21.7459L90.4658 21.7507ZM90.466 21.743L90.3632 21.5715C90.4257 21.534 90.5037 21.5335 90.5667 21.5702C90.6297 21.6069 90.6677 21.675 90.666 21.7478L90.466 21.743ZM89.0945 21.1854H88.8945C88.8945 21.0901 88.9617 21.0081 89.0551 20.9893C89.1484 20.9705 89.2421 21.0202 89.279 21.108L89.0945 21.1854ZM89.0945 24.0911H89.2945C89.2945 24.1578 89.2612 24.2202 89.2057 24.2573L89.0945 24.0911ZM84.6633 24.0911L84.5506 24.2563L84.6633 24.0911ZM83.0838 21.1854L82.9005 21.1054C82.9129 21.077 82.9317 21.0518 82.9555 21.0319L83.0838 21.1854ZM83.4408 20.1627L83.6358 20.2073L83.4408 20.1627ZM83.749 19.0274L83.9373 19.095L83.749 19.0274ZM84.1069 17.2821L84.3052 17.3084V17.3084L84.1069 17.2821ZM84.425 15.7538L84.2392 15.6797V15.6797L84.425 15.7538ZM85.478 14.7702L85.5901 14.9359L85.478 14.7702ZM86.8131 13.1726L86.6132 13.1655C86.6157 13.0964 86.6537 13.0334 86.7137 12.999C86.7738 12.9647 86.8473 12.9638 86.9082 12.9967L86.8131 13.1726ZM88.571 15.6071C88.1874 14.9527 88.2454 14.3019 88.3344 14.0341L88.714 14.1602C88.6567 14.3327 88.5978 14.8618 88.9161 15.4049L88.571 15.6071ZM89.3441 16.3444C89.0588 16.1339 88.7477 15.9086 88.571 15.6071L88.9161 15.4049C89.0429 15.6211 89.2767 15.7976 89.5815 16.0224L89.3441 16.3444ZM90.5182 18.1146C90.4664 17.1789 89.9032 16.7567 89.3441 16.3444L89.5815 16.0224C90.1389 16.4335 90.8546 16.9545 90.9176 18.0925L90.5182 18.1146ZM90.6793 19.3266C90.6109 18.966 90.543 18.5631 90.5182 18.1146L90.9176 18.0925C90.9409 18.5145 91.005 18.897 91.0723 19.252L90.6793 19.3266ZM90.7681 19.1208L92.1598 18.2313L92.3752 18.5684L90.9835 19.4578L90.7681 19.1208ZM92.3005 18.2026C92.9689 18.3144 93.4829 19.0301 93.2134 19.8415L92.8338 19.7155C93.0253 19.139 92.6627 18.6687 92.2345 18.5971L92.3005 18.2026ZM93.1627 19.9222C92.9403 20.1374 92.4224 20.5588 91.9022 20.9606C91.3823 21.3622 90.8405 21.7592 90.5687 21.9222L90.363 21.5791C90.6116 21.4301 91.1354 21.0474 91.6577 20.644C92.1797 20.2409 92.6805 19.8322 92.8846 19.6348L93.1627 19.9222ZM90.2659 21.7459L90.2661 21.7382L90.666 21.7478L90.6658 21.7555L90.2659 21.7459ZM89.279 21.108C89.4076 21.4147 89.5966 21.5768 89.7825 21.6417C89.9698 21.7072 90.1778 21.6826 90.3632 21.5715L90.5688 21.9146C90.2909 22.0812 89.9598 22.1274 89.6506 22.0193C89.3399 21.9108 89.0748 21.6552 88.9101 21.2627L89.279 21.108ZM88.8945 24.0911V21.1854H89.2945V24.0911H88.8945ZM84.776 23.9259C86.4358 25.0585 88.2723 24.4005 88.9833 23.9248L89.2057 24.2573C88.425 24.7796 86.4006 25.5187 84.5506 24.2563L84.776 23.9259ZM83.2672 21.2653C83.1126 21.6199 83.0734 22.7641 84.776 23.9259L84.5506 24.2563C82.7433 23.0231 82.6456 21.69 82.9005 21.1054L83.2672 21.2653ZM83.6358 20.2073C83.5803 20.4496 83.5272 20.6823 83.468 20.8701C83.4383 20.9645 83.4052 21.0536 83.3668 21.1304C83.3293 21.2052 83.2802 21.2819 83.2121 21.3388L82.9555 21.0319C82.9635 21.0253 82.9829 21.0036 83.0091 20.9513C83.0343 20.901 83.06 20.8342 83.0865 20.75C83.1398 20.5807 83.1892 20.3656 83.2458 20.1181L83.6358 20.2073ZM83.9373 19.095C83.8084 19.4542 83.7184 19.8464 83.6358 20.2073L83.2458 20.1181C83.3275 19.7612 83.4225 19.3454 83.5608 18.9599L83.9373 19.095ZM84.3052 17.3084C84.2289 17.8831 84.1462 18.5128 83.9373 19.095L83.5608 18.9599C83.7528 18.4247 83.8314 17.8382 83.9087 17.2558L84.3052 17.3084ZM84.6108 15.8278C84.4491 16.2336 84.3806 16.74 84.3052 17.3084L83.9087 17.2558C83.9822 16.7017 84.0553 16.1411 84.2392 15.6797L84.6108 15.8278ZM85.5901 14.9359C85.3559 15.0942 85.1399 15.2405 84.9635 15.3918C84.7863 15.5439 84.6673 15.686 84.6108 15.8278L84.2392 15.6797C84.331 15.4496 84.5067 15.2567 84.7031 15.0882C84.9002 14.9191 85.1366 14.7596 85.366 14.6045L85.5901 14.9359ZM87.013 13.1797C86.9979 13.6035 86.7879 13.9405 86.5167 14.2176C86.2486 14.4915 85.9031 14.7242 85.5901 14.9359L85.366 14.6045C85.6869 14.3875 85.9963 14.1774 86.2309 13.9378C86.4624 13.7012 86.603 13.4537 86.6132 13.1655L87.013 13.1797ZM88.4291 14.2731L86.718 13.3486L86.9082 12.9967L88.6193 13.9212L88.4291 14.2731Z" fill="#03224C"/>
<path d="M86.3142 22.1702C86.5968 22.6858 86.7531 24.7482 86.7959 25.5217L86.3142 25.7795L80.7904 23.008C80.7583 22.8576 80.6748 22.2346 80.5977 20.9455C80.5207 19.6565 81.3578 19.5491 81.786 19.6565C83.745 20.4622 86.0316 21.6545 86.3142 22.1702Z" fill="#FE3945"/>
<path d="M89.0805 13.9064C90.4767 13.0658 90.2673 10.2871 89.9881 9.0028C89.6885 8.36453 85.3108 9.98351 85.6598 11.0343C86.0089 12.0851 87.3353 14.9572 89.0805 13.9064Z" fill="white"/>
<path d="M91.0052 11.0286C91.2422 10.3689 90.4138 10.0348 90.3051 9.66938C90.1142 9.02726 90.3499 8.58322 89.8535 8.38045C89.3571 8.17767 89.087 8.45987 88.318 8.31052C87.3922 8.13072 86.6899 8.66293 86.5754 9.30504C86.4608 9.94716 85.4679 9.91337 85.1242 10.4203C84.7805 10.9272 85.4297 11.0286 85.1242 11.637C84.8187 12.2453 85.3152 12.6508 85.888 12.7522C86.3462 12.8333 86.4099 13.5521 86.3844 13.9013C86.4481 13.7661 86.7052 13.4484 87.2246 13.2592C87.8738 13.0226 88.332 12.8874 88.5612 12.3805C88.7903 11.8735 90.6392 12.0471 91.0052 11.0286Z" fill="#03224C"/>
</svg>
