<svg width="26" height="6" viewBox="0 0 26 6" fill="none" xmlns="http://www.w3.org/2000/svg">
<path d="M25.1786 4.59891C25.6943 4.94229 25.3935 5.29407 25.1786 5.42704C24.4125 6.25516 19.2299 3.1884 18.2487 2.60584C17.2676 2.02328 14.784 1.31808 13.4963 1.31808C12.2085 1.31808 9.54928 2.10402 6.19892 4.1389C2.84856 6.17378 2.15078 5.7946 1.47624 5.15071C0.801695 4.50683 -0.0554053 1.31808 0.998314 1.31808C1.79485 1.31808 1.07776 1.99262 2.67214 3.67898C4.26652 5.36534 6.10709 3.49261 7.81521 2.60584C9.6417 1.65762 11.0432 0.886291 12.0902 0.654223C14.3859 0.145361 16.3781 0.367714 19.5669 1.80879C22.7557 3.24986 24.534 4.16969 25.1786 4.59891Z" fill="#FE3945"/>
</svg>
