<svg xmlns="http://www.w3.org/2000/svg" fill="none" viewBox="0 0 314 10"><path fill="#FE3945" d="M313.492 5.834c-2.437-.058-4.976-.058-7.515-.058-2.437 0-4.773-.057-7.21-.114-11.069-.287-21.935-.86-32.903-.86h-9.038c-14.624.286-29.146 1.032-43.668 1.433-4.163.057-7.007.172-10.053.23-2.234.057-4.57.057-7.515.057h-2.539c-9.241 0-18.584-.287-27.825-.86C155.172 5.088 145.22 4.4 135.268 4.4h-3.148c-1.321.057-2.641.057-3.961.114-2.031.115-4.164.172-6.195.23-10.764.63-21.427 1.662-32.293 2.35-3.352.172-6.703.344-10.156.401-1.015 0-1.929.057-2.945.057-4.67 0-9.444-.286-14.014-1.146-2.437-.516-2.945-.573-5.179-1.319-2.843-.917-5.382-2.235-8.327-3.095-1.93-.516-2.539-.745-4.57-.975C43.363.846 42.246.79 41.027.79h-1.015c-2.742.057-5.586.401-8.226.803-7.007 1.203-13.913 2.694-20.717 4.127-3.25.688-2.234.459-5.28 1.146-1.422.23-2.946.516-4.57.688C.406 7.897 0 8.3 0 8.7c.102.573.914 1.09 2.133 1.09a3.65 3.65 0 001.32-.288C6.804 8.7 9.85 7.84 13.1 7.037c5.586-1.318 11.171-2.636 17.061-3.611 1.117-.172 2.234-.287 3.351-.516 2.54-.23 3.352-.401 5.789-.516.406 0 .812.057 1.218.115 1.93.057 2.742.114 4.469.458.609.115 1.218.287 1.93.459 2.843.803 5.28 2.006 8.123 2.866 2.438.86 2.742.803 5.586 1.49 1.218.115 2.335.402 3.554.46 3.25.4 6.703.515 10.054.515h2.437c4.773-.114 9.444-.401 14.014-.688 10.765-.86 21.326-1.891 32.091-2.407 2.132-.115 4.163-.115 6.296-.23h.914c1.422 0 2.742-.057 4.164-.057 10.155 0 20.209.688 30.364 1.261 7.515.287 15.03.459 22.646.459 2.64 0 5.382 0 8.023-.058h3.656c4.976-.114 9.139-.286 14.623-.458 10.663-.344 21.529-.803 32.294-.975l3.148-.057c3.96-.057 6.093-.115 8.429-.115 1.726 0 3.554.058 6.398.058 11.577.057 22.849.802 34.324.974 2.438.058 4.875.058 7.312.058h7.616c.204 0 .305.057.407.057.406-.057.609-.172.609-.401 0-.115-.203-.287-.508-.344z"/></svg>