<svg xmlns="http://www.w3.org/2000/svg" fill="none" viewBox="0 0 206 8"><path fill="#FE3945" d="M187.506 5.193c-1.644.608-3.39 1.17-5.034 1.778-.308.14-.411.28-.514.42 0 .282.514.562 1.233.609.308 0 .822-.047 1.13-.234l5.343-1.637c5.137-1.31 4.315-1.217 9.349-2.2.103 0 5.857-1.028 6.062-1.31.617-.514.925-.888.925-1.169v-.093c0-.515-1.027-.608-2.363-.796-1.233-.046-2.569-.093-3.802-.14a67.69 67.69 0 00-3.082-.047h-19.007L127.915.047C121.237.047 116.716 0 110.141 0c-5.651.047-11.2.047-16.748.047h-7.808c-2.363.047-4.623.093-6.884.093C67.4.28 56.098.561 44.796.89c-7.603.28-15.206.515-22.809.982-4.932.328-9.863.562-14.692.89-1.85.093-3.699.186-5.548.373C.617 3.462.103 3.884 0 4.304v.094c0 .608 1.027 1.216 2.569 1.31.719 0 1.54-.094 2.363-.328 1.644-.28 3.287-.374 5.034-.608 4.623-.421 9.35-.795 14.179-1.123 7.294-.468 14.795-.889 22.192-1.31 11.096-.561 22.295-.795 33.392-1.123 2.26-.046 4.52-.093 6.78-.187 2.57-.047 5.035-.14 7.604-.187 11.404-.234 22.809-.28 34.213-.28h3.185c15.72 0 31.234.327 46.954.748 3.801.094 7.706.234 11.507.421l4.726.234c1.028 0 1.952.093 2.98.14-1.85.562-3.288.936-5.343 1.59-1.541.516-3.288 1.03-4.829 1.498z"/></svg>