<svg xmlns="http://www.w3.org/2000/svg" fill="none" viewBox="0 0 278 8"><path fill="#FE3945" d="M276.646 4.39c-5.784.492-11.014.923-16.859 1.23-11.199.616-22.521 1.108-33.843 1.355-3.507.061-7.076.061-10.645.061-9.106 0-18.398-.185-26.828-.8-5.845-.43-6.953-.492-12.614-.984-6.645-.554-14.829-1.416-21.72-1.662-4.369-.123-6.83-.246-10.891-.246h-2.031c-9.045.062-19.444.677-28.797 1.23-9.845.555-19.628 1.108-29.473 1.108-3.877 0-7.753-.061-11.63-.307-3.569-.308-6.276-.431-10.091-.985-4.246-.615-9.291-1.846-13.598-2.892-2.093-.43-3.63-.8-5.846-1.046-1.538-.184-3.138-.246-4.738-.246-2.769 0-5.6.246-8.368.677-2.954.492-6.646 1.169-9.353 1.723-2.4.492-3.323.738-5.6 1.169-.615.123-1.538.308-2.4.43-1.599.247-3.26.493-4.922.493-.677 0-1.353 0-2.03-.123-.739-.246-1.108-.739-1.477-1.354-.492-.738-1.108-1.107-1.661-1.107C.554 2.114 0 2.667 0 3.652c0 .184 0 .369.062.554.43.615.861 1.23 1.538 1.722.184.185.43.308.677.431.307.123.615.246.923.308.861.184 1.723.246 2.584.246.923-.062 1.784-.062 2.707-.185 1.108-.184 3.077-.553 4-.8 3.63-.8 7.384-1.784 10.768-2.46 2.769-.555 3.753-.74 6.522-1.17 2.03-.308 4.37-.43 6.646-.43 1.477 0 3.015.06 4.368.184 2.093.246 3.692.554 5.661.923.923.185 1.97.43 2.892.677.985.184 2.093.492 3.077.677 2.4.492 5.846 1.046 7.938 1.292 3.753.43 6.768.554 10.337.8 2.83.061 5.6.123 8.368.123 3.63 0 7.2-.062 10.891-.246 7.446-.308 15.199-.862 22.705-1.292 8.923-.493 18.583-.923 27.197-.923h1.785c5.107.061 7.199.246 11.875.43 1.662.123 3.631.246 5.415.37 1.723.123 3.508.307 5.23.43 7.753.615 15.691 1.23 23.444 1.723 8.738.615 17.66.8 26.459.8 4.122 0 8.245-.062 12.306-.123 11.506-.246 22.705-.554 34.027-.985 5.907-.246 11.199-.615 17.044-1.046.431-.246.554-.553.554-.8 0-.307-.369-.553-.861-.553-.124 0-.308 0-.493.061z"/></svg>