<svg xmlns="http://www.w3.org/2000/svg" fill="none" viewBox="0 0 109 6"><path fill="#FE3945" d="M.672 5.04c.504.085 1.05.127 1.596.169l1.554.084c1.596.084 3.15.126 4.746.126 1.596 0 3.192-.042 4.746-.084 5.502-.084 11.004-.336 16.464-.504 8.022-.294 16.002-.672 23.982-.924 8.526-.294 17.01-.672 25.494-1.008 5.67-.21 11.34-.462 17.052-.63.21-.084.294-.252.294-.378 0-.21-.126-.462-.378-.462-.084 0-.21 0-.294.084-5.628.378-11.214.756-16.8 1.134-8.484.462-16.926.924-25.41 1.176-8.064.21-16.086.378-24.15.378-1.512.042-2.982.042-4.494.042-4.074 0-8.19-.084-12.264-.21-1.722-.084-3.402-.126-5.082-.252a35.681 35.681 0 01-2.982-.252c-.924-.126-1.806-.252-2.73-.462-.294-.21-.546-.294-.798-.294h-.084c-.63 0-1.092.504-1.134 1.05v.126c0 .378.21.798.672 1.092zm102.984-2.645c.882-.084 1.806-.168 2.73-.168.168-.042.336-.042.462-.042h.462c.504-.21.756-.588.756-.924v-.084c0-.462-.336-.882-.882-.924-.168 0-.378.042-.588.126-.168-.042-.336-.042-.462-.042h-.504c-1.008 0-1.974-.084-2.982-.126-.588.252-.882.672-.882 1.092v.084c0 .588.462 1.134 1.092 1.176h.126c.21 0 .42-.084.672-.168z"/></svg>