<svg width="21" height="21" viewBox="0 0 21 21" fill="none" xmlns="http://www.w3.org/2000/svg">
<path d="M15.75 6.32471L9.91667 14.2414L5.75 10.908" stroke="#FE3945" stroke-linecap="round" stroke-linejoin="round"/>
<path d="M10.7513 0.908203C9.4928 0.908203 8.24662 1.15608 7.08392 1.63769C5.92122 2.1193 4.86476 2.8252 3.97486 3.7151C3.08497 4.60499 2.37906 5.66145 1.89746 6.82415C1.41585 7.98686 1.16797 9.23304 1.16797 10.4915C1.16797 11.75 1.41585 12.9962 1.89746 14.1589C2.37906 15.3216 3.08497 16.3781 3.97486 17.268C4.86476 18.1579 5.92122 18.8638 7.08392 19.3454C8.24662 19.827 9.4928 20.0749 10.7513 20.0749C12.0098 20.0749 13.256 19.827 14.4187 19.3454C15.5814 18.8638 16.6378 18.1579 17.5277 17.268C18.4176 16.3781 19.1235 15.3216 19.6051 14.1589C20.0868 12.9962 20.3346 11.75 20.3346 10.4915C20.3346 9.23304 20.0868 7.98686 19.6051 6.82415C19.1235 5.66145 18.4176 4.60499 17.5277 3.7151C16.6378 2.8252 15.5814 2.1193 14.4187 1.63769C13.256 1.15608 12.0098 0.908203 10.7513 0.908203V0.908203Z" stroke="#FE3945" stroke-linecap="round" stroke-linejoin="round"/>
</svg>
