<svg xmlns="http://www.w3.org/2000/svg" fill="none" viewBox="0 0 109 121"><path fill="#fff" stroke="#03224C" stroke-width=".594" d="M60.78 42.154c.983.597 2.225.888 2.722.959l.375 3.143c-.552-.124-2.659-.298-6.673 0-4.015.298-5.374-3.57-5.552-5.54 1.537.724 3.594 1.26 4.43 1.438l-.222-1.684c2.402-.639 3.692.938 4.92 1.684z"/><path fill="#fff" stroke="#000" stroke-width=".594" d="M52.46 40.056c-1.096.776-2.4.78-2.914.684v2.852c.129-.015.396.417 1.423 1.458 2.922 2.963 5.656 2.582 6.584 2.112.927-.47 2.371-1.5 1.02-2.112-1.082-.489-2.951-.076-3.464.41-2.312-.452-1.898-2.761-1.689-4.078.69.128 1.605.446 2.565.857 1.2.513 1.768-.06.968-.858s-3.122-2.294-4.492-1.325z"/><ellipse fill="#141414" opacity=".1" rx="28.113" ry="10.916" transform="rotate(2.916 -2119.861 617.3) skewX(-.013)"/><path fill="#051730" d="M16.037 107.957c.02-2.514 1.402-3.778 2.091-4.096l-.048 1.225c1.552 1.686 3.436.71 4.183.011l.268-.708c4.456 3.234 9.787 7.199 8.703 8.335-1.355 1.42-15.222-1.624-15.197-4.767zM30.477 107.587c-.311-2.494.823-3.912 1.43-4.309l.115 1.22c1.682 1.486 3.057.417 3.669-.365l.383-.855c4.618 2.674 10.2 5.966 9.33 7.222-1.089 1.569-14.538.205-14.927-2.913z"/><path fill="#fff" stroke="#03224C" stroke-width=".544" d="M17.948 104.929l.277-3.203c2.088 1.518 4.286.774 5.124.213l-1.281 3.361c-1.358 1.31-3.451.884-4.12-.371zM28.48 18.244c2.848.118 3.254-6.39 2.176-10.401-1.68-6.253-7.543-6.74-9.805-1.53-1.322 3.043-.578 3.511.477 10.899 1.054 7.387-.75 4.317-4.455 10.295-2.07 3.339-2.436 19.772-1.656 25.017 6.199 2.979 14.782 1.75 17.55.73.096-1.22.438-7.877.434-10.38-.005-2.502-.134-2.3 1.948-.668 4.082 3.2 10.689 3.054 14.288 3.204l.247-5.894c-5.732-.762-11.775-.453-13.96-5.549-2.733-6.369-5.627-12.744-8.591-11.526-1.668.686-1.589-3.558-1.488-5.827.284.536 1.517 1.575 2.834 1.63z"/><path fill="#051730" d="M24.034 8.323c.418-2.226 3.23-2.646 4.088-2.073 1.414.942 2.302.4 2.302.4.363-5.363-4.374-6.534-5.772-5.34-1.398 1.194-4.318-.087-6.322 2.287-2.005 2.374.637 4.756-.267 6.388-.905 1.632-.482 3.736 1.117 4.405 1.278.536 2.09 2.978 2.336 4.132.732-.82 2.035-2.883 1.4-4.579-.635-1.696.37-1.824.953-1.676 1.384-.87-.253-1.719.165-3.944z"/><path fill="#051730" stroke="#03224C" stroke-width=".544" d="M15.43 65.413c-1.503-5.776-1.18-10.69-.31-12.922 8.617 3.204 15.164 1.816 17.361.722 2.685 6.09 8.067 19.336 8.12 23.607.052 4.271-1.7 17.161-2.934 22.494-.592 2.554-5.038 2.369-6.407.417.485-5.845 1.322-17.8.823-19.694-.499-1.894-4.494-11.252-5.803-15.67-1.74-2.529 1.636 9.33 2.916 15.55-1.243 6.708-3.93 20.385-4.744 21.426-3.181 2.478-6.063.836-7.106-.296.753-4.192 2.29-13.343 2.418-16.409.16-3.833-3.035-14.233-4.334-19.225z"/><path fill="#fff" stroke="#000" stroke-width=".544" d="M16.114 31.099c1.1-4.529 4.384-4.825 5.888-4.407 5.096.145 3.834 13.396 5.688 17.28 1.482 3.108 6.119 7.16 8.252 8.797l-3.354 4.286c-2.343-1.689-7.533-5.557-9.545-7.52-2.516-2.455-8.305-12.775-6.93-18.436z"/><path fill="#03224C" stroke="#03224C" stroke-width=".594" d="M37.119 53.273l-.477.985-1.897 3.707a1.291 1.291 0 00.46 1.68l1.17.74c.646.409 1.504.17 1.845-.513l2.403-4.803c.31-.62.075-1.373-.531-1.708l-1.186-.655a1.291 1.291 0 00-1.787.567z"/><path fill="#fff" d="M37.119 53.759l-.363.748-1.636 3.198a1.291 1.291 0 00.46 1.68l.809.511c.646.41 1.504.171 1.846-.512l2.017-4.034c.31-.62.075-1.373-.531-1.708l-.815-.45a1.291 1.291 0 00-1.787.567z"/><path fill="#fff" stroke="#000" stroke-width=".594" d="M39.216 54.524c-1.226-.233-3.074-.68-3.845-.873l-2.186 2.668c.062.516.247.801.332.88.754.718 1.497.35 1.774.075 1.57.02 2.753 1.35 3.148 2.01l-.52 1.24c.68-.148 2.105-.752 2.375-1.986.338-1.54.454-3.723-1.078-4.014z"/><path stroke="#03224C" stroke-width=".544" d="M32.003 104.529l.17-4.067c2.098.987 4.005.354 4.696-.085l-1.306 4.3c-1.59 1.245-3.068.419-3.56-.148z"/><path stroke="#000" stroke-width=".544" d="M20.71 23.185c1.905 1.38 5.696 3.145 5.61-.843"/><ellipse fill="#141414" opacity=".1" rx="28.113" ry="10.916" transform="rotate(2.916 -2083.868 1627.292) skewX(-.013)"/><path fill="#051730" d="M90.218 107.411c-.137-2.378-1.503-3.51-2.17-3.778l.103 1.157c-1.39 1.667-3.217.83-3.957.204l-.286-.658c-4.065 3.266-8.924 7.264-7.845 8.289 1.348 1.281 14.325-2.243 14.155-5.214zM75.795 105.387c.396-2.348-.62-3.736-1.178-4.137l-.159 1.151c-1.652 1.338-2.91.271-3.457-.494l-.001-.905c-4.48 2.344-10.221 5.314-9.449 6.537.966 1.53 13.749.782 14.244-2.152z"/><path fill="#fff" stroke="#03224C" stroke-width=".544" d="M81.531 22.291c-2.7 0-2.827-6.174-1.648-9.929 1.837-5.85 7.405-6.081 9.34-1.062 1.13 2.933.407 3.347-.883 10.296-1.29 6.95.539 4.116 3.81 9.92 1.826 3.24 1.522 18.807.576 23.74-5.984 2.575-14.058 1.073-16.637 0-.043-1.158 3.148-9.928 3.25-12.297.104-2.367-1.956 1.73-2.838 2.971-2.794 3.928-5.465 6.799-9.084 9.326l-2.555-3.937c2.98-2.91 6.922-9.696 9.192-14.432 2.837-5.92 5.829-11.84 8.585-10.57 1.551.714 1.645-3.305 1.639-5.457-.29.497-1.498 1.431-2.747 1.431z"/><path fill="#fff" d="M62.173 54.156c.62-.45 2.278-1.708 3.03-2.28l1.54 2.37c-.174-.096-.586.097-.646 1.333-.06 1.237-.794 1.847-1.177 2.08-.081.27-.189.532-.31.774-.197.515-.423 1.177-.493 1.705-.12.897-.18.878-.346.986-.14.837-.525.764-.7.623-.025.232-.145.733-.424.872-.28.14-.683-.34-.85-.598-.375 1.022-1.048.523-1.123.424-.075-.1-.575-2.667-.55-3.515.025-.847 1.274-4.212 2.049-4.774z"/><path fill="#03224C" d="M65.202 51.875l.25-.162-.175-.268-.255.194.18.236zm-3.029 2.281l.174.24-.174-.24zm-2.049 4.774l.297.009-.297-.009zm.55 3.515l-.237.178.237-.178zm1.123-.424l.25-.161-.323-.5-.205.559.278.102zm1.274-.274l.187-.231-.424-.343-.058.542.295.032zm.7-.623l-.162-.25-.11.072-.021.129.293.049zm.346-.986l-.295-.04.295.04zm.803-2.479l-.154-.254-.086.053-.037.093.277.108zm-.532-1.111a.297.297 0 10-.543-.241l.543.241zm-1.05 2.382l.289.072-.288-.072zm2.759-3.35l.297.014-.297-.015zm.646-1.335l-.142.261.391-.423-.249.162zm-1.72-2.606c-.753.574-2.408 1.83-3.024 2.277l.348.48c.624-.452 2.285-1.712 3.035-2.285l-.36-.472zm-3.024 2.277c-.253.183-.503.553-.729.96-.234.421-.469.933-.678 1.449-.209.516-.395 1.042-.53 1.496-.133.443-.227.845-.234 1.1l.593.018c.005-.169.077-.504.21-.948.13-.434.309-.942.512-1.443.203-.502.428-.99.646-1.384.227-.409.424-.67.558-.767L62 53.916zm-2.171 5.006c-.014.458.111 1.342.241 2.096.066.384.136.744.194 1.017.029.135.055.251.077.338a2.174 2.174 0 00.05.166c.005.01.02.047.047.084l.475-.357a.255.255 0 01.024.04l.006.011-.003-.009a8.448 8.448 0 01-.095-.397 27.18 27.18 0 01-.19-.994c-.132-.766-.244-1.59-.233-1.978l-.593-.017zm.609 3.701c.052.07.147.144.246.2.106.06.255.12.428.127a.805.805 0 00.55-.188c.172-.14.31-.352.415-.639l-.557-.204c-.083.223-.17.332-.233.383a.212.212 0 01-.15.055.372.372 0 01-.162-.051c-.06-.034-.077-.06-.062-.04l-.475.357zm1.111-.44c.093.143.253.352.438.511.092.08.204.159.33.205.13.048.298.069.463-.014l-.265-.532c.026-.012.038 0 .008-.01a.541.541 0 01-.149-.1 1.935 1.935 0 01-.326-.383l-.499.322zm1.231.702c.242-.12.377-.37.452-.558.08-.2.12-.41.136-.548l-.591-.064c-.01.095-.041.251-.098.393-.061.156-.126.227-.164.245l.265.532zm.106-.907c.135.11.402.232.684.09.267-.136.42-.453.495-.895l-.586-.098c-.066.395-.174.46-.178.462h-.002a.104.104 0 01-.04-.021l-.373.462zm1.047-.605c.017-.011.09-.053.143-.1a.616.616 0 00.16-.231c.069-.164.117-.425.176-.865l-.589-.079c-.06.457-.102.636-.135.714-.01.026-.013.023-.006.016l-.014.01-.024.015-.034.021.323.499zm.48-1.196c.065-.49.278-1.124.475-1.638l-.555-.212c-.197.517-.434 1.206-.51 1.771l.59.079zm.475-1.638c.143-.375.25-.621.31-.772l-.554-.216c-.037.096-.178.428-.31.776l.554.212zm-.77-2.111l-.272-.12-.001.003-.004.008a2.343 2.343 0 00-.06.149c-.041.104-.1.26-.171.468-.144.419-.34 1.052-.559 1.922l.577.145c.214-.854.406-1.472.544-1.874a11.031 11.031 0 01.217-.58v-.001l-.271-.12zm-1.067 2.43a2.726 2.726 0 00-.084.506.88.88 0 00.056.4.45.45 0 00.347.274.606.606 0 00.37-.077c.196-.104.4-.3.586-.531.191-.237.384-.534.55-.864l-.53-.267a4.32 4.32 0 01-.482.758c-.168.208-.312.331-.401.378-.047.025-.043.01-.004.016.064.01.1.056.108.073 0 .002-.013-.03-.007-.129.005-.092.025-.221.068-.393l-.577-.144zm1.825-.292c.129-.255.243-.533.33-.822l-.57-.17a4.483 4.483 0 01-.29.725l.53.267zm.199-.653c.434-.264 1.253-.951 1.32-2.32l-.594-.028c-.053 1.104-.702 1.639-1.034 1.84l.308.508zm1.32-2.32c.028-.595.141-.887.227-1.01.087-.126.08-.022-.02-.077l.284-.522c-.275-.15-.574.003-.752.26-.179.258-.302.68-.333 1.321l.594.029zm.598-1.51l-1.54-2.37-.499.324 1.541 2.37.498-.324z"/><path fill="#051730" d="M86.481 16.136c-2.402-1.75-3.978-4.78-4.465-6.075-.555 1.941-1.919 3.552-2.613 4.112-1.032 6.613 1.297 8.742 2.936 8.106-1.514 2.232-5.194 1.85-5.68 1.471 3.409-2.43 1.136-10.773 3.49-14.661 1.884-3.11 5.007-2.592 6.332-1.945 7.339.39 6.955 9.829 5.845 14.5-2.467 3.888-6.548 3.618-8.28 2.997 2.013-2.462 2.462-6.696 2.435-8.505z"/><path stroke="#000" stroke-width=".544" d="M80.077 32.935c-.85 1.078-2.409 3.83-1.849 6.217.7 2.985 1.674 2.315.829 5.457"/><path fill="#71BFD6" stroke="#03224C" stroke-width=".544" d="M92.019 67.444c1.651-5.407 1.54-10.07.804-12.217-8.281 2.693-14.423 1.122-16.459 0-2.781 5.657-5.537 18.751-5.755 22.792-.22 4.04-.575 15.847-.575 23.647 0 2.155 5.02 1.47 5.02.777-.228-5.55 2.025-18.864 2.572-20.636.547-1.773 2.753-11.651 4.165-15.78 1.748-2.325 0 5.104 0 14.517.91 6.397 1.56 23.118 2.288 24.135 1.51 2.109 3.98 1.095 4.64-.222.296-5.738.606-18.247.606-21.154 0-3.634 1.267-11.186 2.694-15.859z"/><path fill="#fff" stroke="#000" stroke-width=".544" d="M91.55 35.5c1.34-3.823.349-4.38-1.063-4.821-4.502-.722-11.077 7.446-14.554 9.582-2.782 1.71-9.908 1.473-12.449 1.68l.456 5.13c2.734-.14 10.206.528 12.819 0 3.266-.66 12.965-6.364 14.791-11.572z"/><path stroke="#000" stroke-width=".544" d="M88.69 27.272c-1.858 1.231-5.515 2.752-5.276-1.02"/></svg>