<svg xmlns="http://www.w3.org/2000/svg" fill="none" viewBox="0 0 129 252"><ellipse fill="#5B5B5B" fill-opacity=".2" rx="63.548" ry="20.895" transform="matrix(-1 0 0 1 63.548 222.483)"/><path fill="#FAFAFA" stroke="#03224C" stroke-linejoin="round" d="M77.275 51.696c-3.774-1.816-4.617-6.624-4.617-9.493l-8.65.677c-.06.873.509 3.462 0 5.499-1.16 4.63-10.882 8.094-13.676 10.713-2.793 2.619-9.252 24.964-10.998 28.456-1.397 2.793-10.707 10.242-15.188 13.617l3.84 4.539c5.47-2.677 17.004-8.694 19.379-11.347 2.374-2.654 5.76-11.93 7.157-16.236.466 4.655 5.414 13.338 5.414 17.807 0 4.469-11.042 23.026-9.601 64.874 12.29 8.659 42.048 3.608 48.158 0-1.571-43.77-13.822-60.265-13.822-64.874 0-4.61 3.545-13.792 3.894-17.807 1.36 3.736 5.601 10.463 9.026 14.658 1.741 2.133 4.885 6.105 9.023 10.176l4.69-4.608c-4.408-6.31-6.232-10.302-8.268-14.237-1.782-3.442-6.436-16.988-10.975-23.098-4.539-6.11-10.068-7.047-14.786-9.316z"/><path fill="#FAFAFA" stroke="#03224C" d="M79.632 187.248c-1.535-7.679-2.766-19.887-2.675-21.945 1.316 0 10.937-.972 14.092-1.43-.548 10.059-2.054 31.325-2.054 35.605 0 4.28 1.056 10.539 1.604 12.048-2.295 4.702-8.187 2.402-10.245 1.259.274-.96.338-1.819.823-6.311.38-3.507.375-9.627-1.545-19.226z"/><path fill="#FAFAFA" stroke="#03224C" d="M79.898 212.626c.986-.347 1.764.434 2.03.868 5.742 2.203 8.53-.919 9.208-2.755.58-3.698 3.102-2.953 3.102-1.784 0 0-.033 1.592-.71 2.872 1.209.556 4.261 2.64 7.975 4.278 3.625 1.598 3.698 7.467 0 7.467H81.131c-.919-.073-2.843-.783-3.19-3.045-.436-2.827.724-7.467 1.957-7.901z"/><path stroke="#03224C" stroke-linecap="round" stroke-linejoin="round" d="M92.07 215.801l3.001-3.311-.692 4.539 3.537-2.845-.692 3.691 2.384-2.074"/><path fill="#fff" stroke="#03224C" d="M64.468 42.723c-8.547-6.52-7.793-18.288-7.473-23.019h21.777c.394 1.813.93 7.474-.016 14.665-1.183 8.987-7.387 13.62-14.288 8.354z"/><path fill="#03224C" d="M59.316 32.417c8.601-1.792 10.563-8.565 11.633-11.376.719 4.304 5.375 6.32 7.614 6.791l-.448 19.337c1.792-1.791 5.973-14.484 5.674-20.83-.298-6.347-2.238-14.632-12.84-15.902-10.601-1.269-19.04 3.883-18.815 15.157.179 9.019 3.31 18.54 4.853 22.174l2.33-15.35z"/><path fill="#03224C" d="M50.635 12.607c2.332 3.597 5.135 3.318 6.245 2.729l12.202-4.462c.707-1.69 1.3-5.532-1.984-7.384-3.285-1.851-7.25.106-8.821 1.316-5.106-1.79-10.558 3.304-7.642 7.8z"/><path fill="#F4D8CD" stroke="#03224C" d="M28.098 201.794l14.651-4.454a.27.27 0 00.025-.509l-26.96-11.175a.893.893 0 00-.604-.031l-14.2 4.238a.27.27 0 00-.03.508l26.5 11.388a.908.908 0 00.618.035z"/><path stroke="#03224C" stroke-linecap="round" d="M28.284 112.473v83.838M14.882 107.042v83.838"/><path fill="#03224C" d="M35.172 114.735a.5.5 0 01-.397.918l.397-.918zM8.604 104.352a.5.5 0 01.397-.918l-.397.918zm26.171 11.301l-26.17-11.301.396-.918 26.17 11.301-.396.918z"/><ellipse fill="#03224C" rx="5.079" ry="5.021" transform="matrix(-1 0 0 1 30.025 246.697)"/><ellipse fill="#03224C" rx="5.079" ry="5.021" transform="matrix(-1 0 0 1 9.804 236.663)"/><path fill="#F4D8CD" stroke="#03224C" stroke-linejoin="round" d="M40.334 241.471v-44.442l-12.876 4.48-23.74-10.229v42.622l25.794 12.799c1.793-1.046 7.962-3.922 10.822-5.23z"/><path stroke="#03224C" stroke-linecap="round" d="M21.31 205.799v28.497m-9.951-32.703v27.539"/><path fill="#fff" stroke="#03224C" d="M11.324 110.306c0-1.482 2.369-4.53 4.802-5.166 1.845-.482 6.52-2.218 8.224-2.89l2.924 3.649c-.423 4.489-5.991 6.358-8.603 6.499.07 1.694.043 5.082-.635 5.082-.847 0-6.712-5.692-6.712-7.174z"/><path stroke="#03224C" d="M75.554 50.595c0 1.294.093 2.959-3.135 4.486-5.562 1.387-8.491-2.622-9.29-4.795"/><path fill="#FE3945" stroke="#FE3945" d="M57.004 56.238c1.955-1.071 4.853-3.322 6.057-4.314 1.54 3.52 6.01 5.707 9.57 4.314 3.56-1.393 4.015-3.986 4.015-3.986 1.234.596 1.546.425 6.908 3.191s6.255 4.256 8.5 7.192c2.246 2.936 5.58 11.477 6.764 14.273.505 1.191 3.443 8.552 6.125 13.168 1.202 2.09 3.888 6.637 5.016 8.103l-3.264 3.286c-4.271-4.135-5.589-6.005-7.842-8.851-2.651-3.351-4.691-5.9-6.798-9.445-2.107-3.543-1.844-4.262-2.538-5.459-.695-1.197-1.724-.527-1.844-.168-.12.36-.489 2.007-.765 3.73-.275 1.724-3.033 10.893-3.309 13.56-.276 2.667.18 3.21 2.313 8.076 2.133 4.868 5.44 12.266 8.533 28.371 2.474 12.884 3.138 24.702 3.031 29.039-20.387 6.952-39.7 4.321-46.12.078-1.089-32.107 4.628-47.669 5.584-50.708.957-3.039 3.294-10.18 3.72-11.647.424-1.466.318-1.87.318-3.209s-1.381-4.781-1.891-6.29c-.51-1.51-2.976-7.927-3.337-9.479-.361-1.551-.489-1.764-.85-1.87-.361-.106-1.041.021-1.36.574-.319.552-2.7 7.332-3.273 8.82-.574 1.487-1.36 3.4-3.315 6.609-1.956 3.209-6.631 4.824-8.693 5.95-1.649.902-7.36 3.833-10.01 5.186l-2.507-3.018c3.003-2.437 9.194-7.485 9.925-8.182l.035-.034c.955-.91 3.905-3.722 4.555-4.96.659-1.254 1.275-3.316 1.785-4.697.51-1.381 5.654-16.322 6.546-18.68.893-2.36 2.04-4.357 2.657-5.08.616-.723 3.315-2.104 5.759-3.443z"/><path fill="#fff" stroke="#03224C" stroke-linecap="round" stroke-linejoin="round" d="M115.403 103.639c-.798-.491-3.196-3.58-4.295-5.063l-3.987 4.142c1.15 1.099 3.558 3.743 3.987 5.522.535 2.224 4.295 10.815 5.753 10.124 1.167-.552-.127-3.4-.92-4.755 1.278 2.097 4.234 6.305 5.829 6.366 1.595.062-1.585-4.218-3.375-6.366 2.404 2.403 7.026 6.719 6.29 4.755-.737-1.963-3.273-4.55-4.449-5.599 2.838 1.688 9.738 3.406 6.737 1.094-3.725-2.869-8.117-5.159-7.197-5.159.92 0 5.829 1.841 3.988 0-1.841-1.84-7.363-4.448-8.361-5.061z"/><path fill="#FAFAFA" stroke="#03224C" d="M56.748 189.108c-1.559-10.764-2.383-21.622-2.579-25.911 4.342 1.405 11.125 2.333 14.377 2.56-.448 8.506-3.47 29.435-3.47 34.695 0 4.208 1.12 10.409 1.68 12.983-5.552 2.865-8.985 1.194-10.008 0l1.054-3.581c-.351-.523-1.054-1.858-1.054-3.022 0-1.455 1.949-4.27 0-17.724z"/><path fill="#FAFAFA" d="M55.752 213.079c.446-.931 1.368-1.349 1.976-1.62l.62 1.954c.163-.686 1.035-1.921 1.423-1.954h3.99c1.337 0 1.58 1.417 1.77 1.821l.57-2.107c.827.219 1.954.324 2.116 1.906.203 1.978-1.115 2.077.253 4.864 1.095 2.23.912 4.242 0 4.614-3.597 2.28-13.754 2.594-14.29-1.622-.166-1.307 1.572-3.802 1.572-4.563 0-.76-.558-2.128 0-3.293z"/><path fill="#03224C" d="M57.728 211.459l.476-.152a.5.5 0 00-.68-.305l.204.457zm-1.976 1.62l.45.216-.45-.216zm-1.571 7.856l-.496.063.496-.063zm14.29 1.622l-.19-.463-.04.017-.038.024.267.422zm0-4.614l-.45.221.45-.221zm-.254-4.864l.497-.051-.497.051zm-2.117-1.906l.128-.484-.48-.127-.13.48.482.131zm-.569 2.107l-.453.213a.501.501 0 00.936-.083l-.483-.13zm-1.77-1.821v-.5.5zm-3.99 0v-.5h-.021l-.022.002.043.498zm-1.423 1.954l-.476.151a.5.5 0 00.963-.036l-.487-.115zm-.824-2.411c-.591.264-1.688.743-2.223 1.861l.902.432c.357-.745 1.104-1.102 1.728-1.38l-.407-.913zm-2.223 1.861c-.34.711-.329 1.458-.255 2.074.037.308.093.605.135.849.044.258.07.445.07.586h1c0-.239-.042-.507-.085-.756-.045-.263-.094-.523-.127-.798-.066-.549-.054-1.068.164-1.523l-.902-.432zm-.05 3.509v.017a1.442 1.442 0 01-.048.188c-.04.121-.1.268-.177.443-.159.357-.36.757-.575 1.217-.209.445-.421.926-.57 1.386-.147.45-.252.937-.196 1.375l.992-.126c-.028-.215.022-.53.155-.94.13-.399.32-.834.525-1.271.198-.422.42-.871.583-1.236.083-.187.158-.369.212-.536.052-.158.1-.341.1-.517h-1zm-1.566 4.626c.163 1.283 1.06 2.169 2.23 2.739 1.166.568 2.672.861 4.236.944 1.57.084 3.234-.04 4.74-.332 1.497-.29 2.874-.753 3.847-1.37l-.535-.844c-.826.523-2.068.954-3.503 1.233a18.97 18.97 0 01-4.496.315c-1.492-.08-2.85-.357-3.852-.845-.997-.486-1.57-1.14-1.675-1.966l-.992.126zm14.974 2.022c.748-.305 1.04-1.185 1.064-2.059.025-.924-.228-2.065-.804-3.238l-.898.441c.52 1.056.722 2.037.702 2.769-.022.783-.278 1.094-.441 1.161l.377.926zm.26-5.297c-.649-1.321-.627-1.927-.524-2.41.11-.508.431-1.191.32-2.285l-.996.102c.091.884-.144 1.239-.301 1.973-.163.758-.116 1.595.603 3.061l.898-.441zm-.205-4.695c-.095-.931-.494-1.497-1.042-1.838-.489-.303-1.096-.408-1.444-.501l-.256.967c.48.127.85.184 1.173.384.262.163.508.439.575 1.09l.994-.102zm-3.096-1.986l-.57 2.107.966.261.569-2.107-.965-.261zm.365 2.025c-.036-.077-.064-.18-.152-.416a3.847 3.847 0 00-.33-.697c-.313-.504-.849-.995-1.74-.995v1c.446 0 .7.217.89.523.1.16.177.339.243.517.053.143.126.369.184.494l.905-.426zm-2.222-2.108h-3.99v1h3.99v-1zm-4.033.002a.887.887 0 00-.388.139 1.87 1.87 0 00-.275.218 4.16 4.16 0 00-.496.581c-.302.42-.604.963-.707 1.399l.973.23c.059-.249.274-.667.546-1.045.132-.183.261-.335.37-.438a.859.859 0 01.12-.097c.03-.019.008.003-.056.009l-.087-.996zm-.903 2.301l-.62-1.955-.954.303.62 1.954.954-.302z"/><path stroke="#03224C" stroke-linecap="round" stroke-linejoin="round" d="M59.209 215.828c1.21-.272 4.047-.653 5.708 0-1.589.189-3.675.445-5.708 1.563 1.29-.012 4.236.358 5.708.825-1.704.038-5.23.282-5.708.962"/></svg>