<svg width="58" height="80" viewBox="0 0 58 80" fill="none" xmlns="http://www.w3.org/2000/svg">
<path d="M15.8399 21.8632C17.254 20.2492 19.4929 16.0335 33.6928 12.4481C35.1026 12.0921 36.4739 11.834 37.8001 11.6589C39.9516 12.1375 41.008 13.5403 41.6472 14.3308C42.2863 15.1212 52.649 16.1026 55.2916 16.2667C57.4057 16.398 57.2526 15.5875 56.9118 15.1659C35.8626 -3.94784 13.0436 11.6789 8.20589 18.0481C3.80626 23.8405 3.53578 28.5696 4.53215 28.4438C5.52851 28.318 14.4258 23.4772 15.8399 21.8632Z" fill="#FE3945"/>
<path d="M56.9118 15.1659C35.8626 -3.94784 13.0436 11.6789 8.20589 18.0481C3.80626 23.8405 3.53578 28.5696 4.53214 28.4438C5.52851 28.318 14.4258 23.4772 15.8399 21.8632C17.254 20.2492 19.4929 16.0335 33.6928 12.4481C35.1026 12.0921 36.4739 11.834 37.8001 11.6589M56.9118 15.1659C57.2526 15.5875 57.4057 16.398 55.2916 16.2667C52.649 16.1026 42.2863 15.1213 41.6472 14.3308C41.008 13.5403 39.9516 12.1375 37.8001 11.6589M56.9118 15.1659C54.2786 13.3256 47.16 10.4235 37.8001 11.6589" stroke="white" stroke-width="0.4"/>
<path d="M28.7556 13.667C23.2777 10.0857 19.9814 10.7111 17.8711 10.6605C17.8711 10.6605 19.2243 9.92832 20.3175 9.44688C21.4108 8.96544 22.6353 8.48389 22.6353 8.48389C28.5214 8.98913 31.563 11.3196 32.76 12.4893L28.7556 13.667Z" fill="white"/>
<path d="M38.6726 11.3639C35.4077 8.18519 31.1292 6.86239 29.8164 6.57454C30.2334 6.45922 32.9838 6.09473 34.4599 6.09473C38.0955 6.57454 41.3674 9.50845 42.8678 11.1473C41.2779 11.1473 39.19 11.2909 38.6726 11.3639Z" fill="white"/>
<path d="M5.38281 28.2779L34.3434 52.3421M34.3434 52.3421L15.3454 22.283M34.3434 52.3421L22.3535 16.6261M49.4574 11.9819L42.4492 50.3156M42.4492 50.3156L56.7188 16.2036M42.4492 50.3156V14.6838" stroke="white" stroke-width="0.4"/>
<path d="M37.4734 58.5243L34.3711 51.6724L42.4025 49.9004L42.9659 56.505" stroke="white" stroke-width="0.4"/>
<path d="M43.4242 77.7397C43.5024 77.2746 43.7146 76.8676 43.8109 76.7222C44.3073 76.9315 44.7668 76.8094 44.9345 76.7222C45.529 77.6298 47.9288 79.6098 46.592 79.6098C46.3846 79.6098 43.3264 78.321 43.4242 77.7397Z" fill="white"/>
<path d="M37.0668 57.768L37.2766 58.5247C39.2025 58.5247 39.9274 57.6736 39.8249 57.1189C39.4243 57.0801 38.9345 56.5168 38.7298 56.2637C38.5524 56.3283 37.7548 56.4594 37.2766 56.6532C36.7993 56.8467 36.9424 57.3397 37.0661 57.7657L37.0668 57.768Z" fill="white"/>
<path d="M40.9613 55.6662C41.0647 56.1702 40.8968 56.6429 40.7622 56.826C40.9183 56.9444 41.1638 57.1383 41.6291 57.3063C42.0944 57.4743 42.9302 57.057 43.3018 56.7662C43.3018 56.7662 43.1606 56.3338 43.0433 55.9907C42.8669 55.4745 42.4509 55.2959 42.2355 55.2798L40.9613 55.6662Z" fill="white"/>
<path d="M38.7298 63.7453L37.8533 60.8588C38.6491 61.3554 39.277 62.7858 39.445 63.2123C39.613 63.6388 39.5022 64.1478 39.513 64.3686C39.2028 64.4462 38.7945 63.9445 38.7298 63.7453Z" fill="white"/>
<path d="M43.1775 60.2208C43.1775 59.8718 43.7111 59.0872 43.9642 58.8825C44.2549 59.7064 44.6297 60.8179 44.8365 61.5805C45.0433 62.343 44.9496 62.7275 44.6427 62.8567L44.2909 62.9659C44.0917 62.5943 43.616 61.8544 43.5255 61.7251C43.4124 61.5636 43.1775 60.657 43.1775 60.2208Z" fill="white"/>
<path d="M40.7282 56.6683C41.2703 56.1434 40.7569 54.5254 40.4532 53.9753C40.2979 53.686 39.8223 53.1329 39.162 53.2345C38.3367 53.3615 37.437 54.1231 38.3522 55.6015C38.6838 56.1371 39.162 56.7653 39.7907 56.8946M40.7282 56.6683C40.4589 56.929 40.1083 56.9926 39.7907 56.8946M40.7282 56.6683C40.7282 56.859 40.8342 56.9336 41.4245 57.2526C42.1625 57.6514 43.7375 56.4879 44.1761 55.8968C44.527 55.4239 43.445 54.4188 42.8601 53.9753L43.4184 52.6265C43.9634 52.9854 45.197 53.9184 45.7712 54.7791C46.489 55.8551 44.6945 58.1015 43.7375 59.2462C42.7804 60.3908 43.4852 61.4897 44.3282 62.9123C45.0304 64.0972 47.6014 66.3377 48.0799 67.7334C48.4628 68.85 48.7222 72.9643 48.5627 74.8651H46.9277C46.715 73.1637 46.3901 70.1155 46.1987 69.4456C45.9594 68.6081 42.8601 65.4648 42.8601 65.7838C42.8601 66.1028 45.1826 68.8665 45.382 70.2622C45.5415 71.3788 45.2661 74.36 45.1332 75.6627L43.6176 75.8865C43.5777 74.2781 43.2749 71.2843 43.1792 70.7101C43.0596 69.9923 41.1232 68.1431 40.4532 67.1972C39.7907 66.2618 39.5164 64.5011 39.4952 63.6758C39.474 62.8505 38.4853 60.6833 36.9407 60.2389C35.396 59.7945 34.1898 59.0115 33.957 57.9957C33.7708 57.1831 34.1288 55.6389 34.524 54.6867L35.5309 55.3294C35.383 56.1476 35.335 57.2087 35.3689 57.5135C35.4112 57.8944 36.7495 58.5248 37.8076 58.5459C38.8657 58.5671 39.1989 58.2708 39.4952 57.9957C39.7322 57.7756 39.9291 57.3407 39.7907 56.8946" stroke="white" stroke-width="0.364956"/>
<path fill-rule="evenodd" clip-rule="evenodd" d="M39.5282 57.9637L40.8819 58.2151L41.4663 57.273C42.2202 57.6088 43.7458 56.4771 44.1764 55.8968C44.5273 55.4239 43.4453 54.4188 42.8604 53.9753L43.4187 52.6265C43.9637 52.9854 45.1973 53.9184 45.7715 54.7791C46.4893 55.8551 44.6948 58.1015 43.7377 59.2462C42.8103 60.3553 43.4434 61.4216 44.2506 62.7809C44.2764 62.8244 44.3024 62.8682 44.3285 62.9123C44.6146 63.395 45.2109 64.053 45.8494 64.7576C46.7783 65.7826 47.7967 66.9063 48.0802 67.7334C48.4631 68.85 48.7225 72.9643 48.563 74.8651H46.928C46.8766 74.4542 46.8187 73.9648 46.7577 73.4492C46.5661 71.8301 46.3441 69.9537 46.1989 69.4456C45.9597 68.6081 42.8604 65.4648 42.8604 65.7838C42.8604 65.8952 43.1437 66.3048 43.521 66.8503C44.2238 67.8665 45.2525 69.354 45.3823 70.2622C45.5418 71.3788 45.2664 74.36 45.1335 75.6627L43.6179 75.8865C43.578 74.2781 43.2752 71.2843 43.1795 70.7101C43.1034 70.2535 42.2922 69.3391 41.5395 68.4907C41.1088 68.0053 40.6973 67.5414 40.4535 67.1972C39.791 66.2618 39.5167 64.5011 39.4955 63.6758C39.4743 62.8505 38.4856 60.6833 36.941 60.2389C35.3963 59.7945 34.1901 59.0115 33.9573 57.9957C33.7711 57.1831 34.1251 55.7314 34.5203 54.7791L35.6156 55.2797C35.4677 56.098 35.3353 57.2087 35.3692 57.5135C35.4115 57.8944 36.7498 58.5248 37.8079 58.5459C38.8659 58.5671 39.1992 58.2708 39.4955 57.9957C39.5065 57.9855 39.5174 57.9748 39.5282 57.9637Z" fill="white"/>
<path d="M35.2333 53.5756C35.1077 53.6526 34.8483 54.3588 34.7344 54.7023L35.5389 55.1479L35.7398 54.8859C35.9611 54.8247 36.4072 54.6569 36.4211 54.4753C36.4386 54.2483 36.2202 53.6367 36.1329 53.5756C36.0455 53.5146 35.3904 53.4795 35.2333 53.5756Z" fill="white"/>
<path d="M42.7432 52.3517C42.9029 52.3694 43.235 52.6341 43.3385 52.7671L42.9693 53.6379C42.8642 53.5954 42.662 53.5545 42.6382 53.5756C42.5682 53.6379 42.3923 53.7497 42.3218 53.7539L42.6877 53.9747C42.713 53.986 42.7321 53.9971 42.7432 54.0082L42.6877 53.9747C42.5106 53.8956 42.0308 53.8062 41.8783 53.6379C41.7451 53.4908 41.4347 52.7731 41.7452 52.5512C42.0557 52.3293 42.5436 52.3295 42.7432 52.3517Z" fill="white"/>
<path d="M35.2333 53.5756C35.1077 53.6526 34.8483 54.3588 34.7344 54.7023L35.5389 55.1479L35.7398 54.8859C35.9611 54.8247 36.4072 54.6569 36.4211 54.4753C36.4386 54.2483 36.2202 53.6367 36.1329 53.5756C36.0455 53.5146 35.3904 53.4795 35.2333 53.5756Z" stroke="white" stroke-width="0.364956"/>
<path d="M42.7432 52.3517C42.9029 52.3694 43.235 52.6341 43.3385 52.7671L42.9693 53.6379C42.8642 53.5954 42.662 53.5545 42.6382 53.5756C42.5682 53.6379 42.3923 53.7497 42.3218 53.7539L42.6877 53.9747C42.713 53.986 42.7321 53.9971 42.7432 54.0082L42.6877 53.9747C42.5106 53.8956 42.0308 53.8062 41.8783 53.6379C41.7451 53.4908 41.4347 52.7731 41.7452 52.5512C42.0557 52.3293 42.5436 52.3295 42.7432 52.3517Z" stroke="white" stroke-width="0.364956"/>
<path d="M39.696 54.2244C38.7265 54.5709 38.3958 55.4021 38.2759 55.7981C38.0198 55.7419 37.4419 55.2062 37.4414 54.5858C37.4407 53.7913 37.7697 53.2242 38.4521 52.8763C39.3029 52.4425 40.3064 52.7561 40.7156 53.4623C41.043 54.0272 40.956 54.3449 40.8357 54.4813C40.7395 54.2648 40.6655 53.8779 39.696 54.2244Z" fill="#FE3945" stroke="white" stroke-width="0.364956"/>
<path d="M43.9277 76.8026L43.8867 75.9464L44.9294 75.7593L44.8148 76.8026C44.4577 76.9859 44.0746 76.879 43.9277 76.8026Z" stroke="white" stroke-width="0.364956"/>
<path d="M46.7601 76.9589C46.8383 76.4939 47.0505 76.0868 47.1468 75.9414C47.6433 76.1507 48.1028 76.0286 48.2705 75.9414C48.865 76.8491 51.2647 78.8291 49.928 78.8291C49.7206 78.8291 46.6623 77.5403 46.7601 76.9589Z" fill="white"/>
<path d="M47.2617 76.0219L47.2617 74.9785H48.2635L48.1489 76.0219C47.7918 76.2051 47.4086 76.0982 47.2617 76.0219Z" stroke="white" stroke-width="0.364956"/>
</svg>
