<svg width="24" height="24" viewBox="0 0 24 24" fill="none" xmlns="http://www.w3.org/2000/svg">
<path d="M18 6.99023L11 16.4902L6 12.4902" stroke="white" stroke-linecap="round" stroke-linejoin="round"/>
<path d="M12 0.490234C10.4898 0.490234 8.99438 0.787691 7.59914 1.36562C6.2039 1.94355 4.93615 2.79063 3.86827 3.85851C2.8004 4.92638 1.95331 6.19413 1.37539 7.58938C0.797456 8.98462 0.5 10.48 0.5 11.9902C0.5 13.5004 0.797456 14.9958 1.37539 16.3911C1.95331 17.7863 2.8004 19.0541 3.86827 20.122C4.93615 21.1898 6.2039 22.0369 7.59914 22.6148C8.99438 23.1928 10.4898 23.4902 12 23.4902C13.5102 23.4902 15.0056 23.1928 16.4009 22.6148C17.7961 22.0369 19.0639 21.1898 20.1317 20.122C21.1996 19.0541 22.0467 17.7863 22.6246 16.3911C23.2025 14.9958 23.5 13.5004 23.5 11.9902C23.5 10.48 23.2025 8.98462 22.6246 7.58938C22.0467 6.19413 21.1996 4.92638 20.1317 3.85851C19.0639 2.79063 17.7961 1.94355 16.4009 1.36562C15.0056 0.787691 13.5102 0.490234 12 0.490234V0.490234Z" stroke="white" stroke-linecap="round" stroke-linejoin="round"/>
</svg>
