<svg width="191" height="167" viewBox="0 0 191 167" fill="none" xmlns="http://www.w3.org/2000/svg">
<path d="M76.8458 139.747C54.5099 120.903 46.3121 90.5955 45.0052 77.7976C43.0946 59.1093 87.9694 52.3936 116.834 52.6495C150.547 52.9444 193.024 62.5966 189.83 77.7976C182.502 112.692 166.128 133.637 158.858 139.747C126.054 152.66 90.5148 145.128 76.8458 139.747Z" fill="#F4D8CD" stroke="#03224C" stroke-linecap="round" stroke-linejoin="round"/>
<path d="M45.7964 79.7446C46.7032 82.4118 49.8292 87.6181 55.0782 87.106C56.0384 89.4529 59.463 93.7945 65.4802 92.3862C67.1338 94.4132 72.1055 97.8592 78.7628 95.4268C80.8432 97.5072 86.4443 100.74 92.2054 97.0271C94.8192 98.8941 101.167 101.732 105.648 98.1473C108.281 100.511 114.849 103.82 120.051 98.1473C122.451 99.3209 128.404 100.74 133.013 97.0271C134.987 98.574 140.215 100.74 145.336 97.0271C148.429 98.0406 155.193 98.8834 157.498 94.1465C160.539 95.4268 167.228 96.579 169.66 90.9459C172.167 91.4793 177.598 91.33 179.262 86.465C181.716 86.6784 186.944 85.7929 188.224 80.5439" stroke="#03224C" stroke-linejoin="round"/>
<path d="M46.2602 89.7011C47.1671 92.3683 50.293 97.5746 55.542 97.0625C56.5022 99.4094 59.9268 103.751 65.944 102.343C67.5977 104.37 72.5693 107.816 79.2266 105.383C81.307 107.464 86.9081 110.696 92.6692 106.984C95.283 108.851 101.631 111.688 106.112 108.104C108.745 110.467 115.313 113.777 120.515 108.104C122.915 109.277 128.868 110.696 133.477 106.984C135.451 108.531 140.678 110.696 145.799 106.984C148.893 107.997 155.657 108.84 157.962 104.103C161.002 105.383 167.692 106.536 170.124 100.902C172.631 101.436 178.062 101.286 179.726 96.4216C182.18 96.6349 187.407 95.7494 188.688 90.5004" stroke="#03224C" stroke-linejoin="round"/>
<path d="M55.5442 107.828C56.5044 110.175 59.929 114.516 65.9462 113.108C67.5999 115.135 72.5715 118.581 79.2288 116.148C81.3092 118.229 86.9103 121.462 92.6714 117.749C95.2852 119.616 101.633 122.454 106.114 118.869C108.748 121.233 115.315 124.542 120.517 118.869C122.917 120.043 128.87 121.462 133.479 117.749C135.453 119.296 140.681 121.462 145.802 117.749C148.896 118.762 155.66 119.605 157.964 114.868C161.005 116.148 167.694 117.301 170.126 111.668C172.633 112.201 178.064 112.052 179.728 107.187" stroke="#03224C" stroke-linejoin="round"/>
<path d="M63.4135 123.438C65.1242 125.465 70.2674 128.911 77.1544 126.479C79.3066 128.559 85.1009 131.792 91.0608 128.079C93.7648 129.946 100.332 132.784 104.967 129.199C107.692 131.563 114.486 134.872 119.867 129.199C122.35 130.373 128.509 131.792 133.277 128.079C135.319 129.626 140.727 131.792 146.024 128.079C149.225 129.092 156.222 129.935 158.606 125.198C161.752 126.479 168.672 127.631 171.188 121.998" stroke="#03224C" stroke-linejoin="round"/>
<path d="M76.5471 136.559C78.6275 138.64 86.9077 141.869 92.6687 138.156C95.2826 140.023 101.63 142.861 106.111 139.277C108.745 141.64 115.312 144.949 120.514 139.277C122.915 140.45 128.868 141.869 133.477 138.156C135.45 139.703 140.678 141.869 145.799 138.156C148.893 139.17 159.146 140.046 161.451 135.309" stroke="#03224C" stroke-linejoin="round"/>
<path d="M45.0557 75.4302C44.8834 53.7645 57.8967 1.25226 117.921 1.25226C175.325 1.25226 189.48 48.7871 188.955 73.0766" stroke="#03224C"/>
<ellipse cx="116.819" cy="74.9595" rx="63.2611" ry="15.5144" fill="#5B5B5B"/>
<path d="M108.18 74.6305L108.175 74.545L108.143 74.4659L103.765 63.7721L103.765 63.7721L103.764 63.7686C102.672 61.1593 101.093 57.1114 99.9037 53.451C99.3086 51.6195 98.815 49.8968 98.5278 48.5049C98.384 47.8083 98.2945 47.2068 98.2674 46.7226C98.2394 46.2217 98.2828 45.91 98.3513 45.7501C98.9096 44.4475 99.9464 42.7754 100.991 41.428C101.512 40.7552 102.024 40.1786 102.466 39.7755C102.688 39.5735 102.881 39.4252 103.04 39.3303C103.119 39.2832 103.182 39.2535 103.231 39.2363C103.254 39.2278 103.272 39.2232 103.285 39.2207C103.297 39.2183 103.302 39.2182 103.302 39.2182H103.302C103.571 39.2182 104.479 39.1272 105.72 38.9897C106.982 38.8499 108.633 38.6564 110.425 38.4415C113.904 38.0243 117.916 37.526 120.641 37.1828C122.199 38.707 124.447 41.0155 126.342 43.1941C127.325 44.3251 128.206 45.4122 128.844 46.3315C129.164 46.7915 129.416 47.2002 129.59 47.5449C129.769 47.9016 129.84 48.143 129.847 48.2815C129.865 48.6138 129.892 49.1164 129.925 49.7408C130.139 53.7432 130.619 62.7489 130.619 63.9615C130.619 64.1963 130.697 64.471 130.793 64.7338C130.893 65.0114 131.035 65.3335 131.205 65.6832C131.544 66.3834 132.01 67.2262 132.523 68.1018C133.548 69.8546 134.777 71.7691 135.596 72.9976L135.624 73.0388L135.659 73.0738C136.172 73.5872 137.573 75.671 138.487 79.5312C139.321 83.0515 140.762 86.8222 141.589 88.7707C134.475 89.447 119.159 90.4834 108.931 89.7578L108.18 74.6305Z" fill="white" stroke="#03224C"/>
<path d="M101.701 28.4007C102.216 29.1222 103.593 31.5546 104.979 35.5125M109.779 38.539C114.684 37.925 119.804 37.3104 120.561 37.3104C126.484 26.623 132.793 23.7986 120.561 23.5411C108.328 23.2835 113.221 27.919 105.753 27.5327C98.2846 27.1464 104.72 24.8226 100.342 24.6939C95.9643 24.5651 90.8138 22.5049 91.2009 26.5014C91.5107 29.6985 99.3127 36.4192 103.175 39.3799C104.945 39.1505 107.335 38.8448 109.779 38.539ZM109.779 38.539C109.997 36.0421 110.84 30.3452 112.462 27.5327M127.86 59.2596C127.365 61.589 126.203 66.829 125.51 69.1543C124.817 71.4795 120.315 75.895 118.151 77.8121" stroke="white" stroke-linecap="round" stroke-linejoin="round"/>
<mask id="mask0" mask-type="alpha" maskUnits="userSpaceOnUse" x="82" y="64" width="34" height="27">
<path d="M91.0758 66.6079C81.3919 71.8594 79.3353 83.2157 86.0553 88.4593C93.0433 89.5106 106.834 90.8711 113.534 90.3663C116.65 86.9871 116.037 80.84 115.395 78.9332C112.114 66.7914 102.385 60.4748 91.0758 66.6079Z" fill="#F13E2F"/>
</mask>
<g mask="url(#mask0)">
<path d="M91.0758 66.603C81.3919 71.8546 79.3353 83.2109 86.0553 88.4544C93.0433 89.5057 106.834 90.8663 113.534 90.3615C116.65 86.9822 116.037 80.8352 115.395 78.9283C112.114 66.7866 102.385 60.4699 91.0758 66.603Z" fill="#FE3945"/>
</g>
<path d="M114.913 79.0685L114.917 79.0831L114.921 79.0975C115.218 79.9778 115.527 81.9236 115.375 84.0671C115.228 86.1469 114.651 88.325 113.297 89.887C106.626 90.3431 93.2144 89.0267 86.2609 87.9894C83.154 85.5001 82.0607 81.5986 82.9031 77.6457C83.7552 73.6474 86.5919 69.6132 91.3142 67.0523C96.8426 64.0542 101.92 64.1241 106.006 66.3609C110.11 68.6082 113.296 73.089 114.913 79.0685Z" stroke="#03224C"/>
<ellipse cx="98.2706" cy="71.0804" rx="1.16119" ry="0.658572" fill="#141414"/>
<path d="M97.883 70.8857C95.4617 69.9873 90.6342 66.6114 90.6939 60.2953C92.7545 60.3179 97.0771 62.4675 97.883 70.8857Z" fill="#E2EFF2"/>
<path d="M68.3455 60.7954C57.854 64.1545 53.7213 74.9302 59.3489 81.332C64.1624 84.2483 79.1899 88.3161 85.994 88.3161C89.6841 85.5752 90.2244 79.4213 89.9486 77.4284C88.9822 64.8882 80.5982 56.8725 68.3455 60.7954Z" fill="#FE3945"/>
<path d="M89.4491 77.4914L89.4503 77.5065L89.4524 77.5215C89.5797 78.4416 89.5221 80.411 88.9741 82.4888C88.4396 84.5152 87.4613 86.5586 85.8247 87.8403C76.6943 87.799 66.0149 84.4103 59.6659 80.9605C57.051 77.9333 56.6942 73.8812 58.2627 70.1406C59.8435 66.3706 63.3809 62.9342 68.497 61.2962C74.4866 59.3786 79.4628 60.3915 83.0609 63.3491C86.6759 66.3205 88.9732 71.3157 89.4491 77.4914Z" stroke="#03224C"/>
<ellipse cx="82.9954" cy="73.0495" rx="1.16119" ry="0.658572" transform="rotate(70.7257 82.9954 73.0495)" fill="#141414"/>
<path d="M83.1836 73.0193C85.0466 71.8291 88.5608 66.672 87.7135 55.5645C83.8898 56.8543 77.6306 62.1508 83.1836 73.0193Z" fill="#E2EFF2"/>
<path d="M87.9646 78.6379C84.6263 76.3389 83.4249 73.9798 83.2415 73.0876C87.2243 72.4465 88.8946 74.6553 91.3962 75.6745C93.3975 76.4898 98.0363 77.126 100.106 77.3422C97.4495 78.732 91.3029 80.9369 87.9646 78.6379Z" fill="#E2EFF2"/>
<path d="M151.46 87.4448C145.498 88.3593 139.344 89.0799 136.462 89.1815L141.348 67.2234L167.649 73.0679L165.204 84.5362C164.858 84.7002 164.311 84.8909 163.573 85.0993C162.698 85.3467 161.597 85.6078 160.335 85.8738C157.813 86.4055 154.672 86.9521 151.46 87.4448Z" fill="#F1F1F1" stroke="#03224C"/>
<path d="M137.569 69.6051C137.519 69.2588 139.567 66.5542 140.66 65.6472C140.783 64.699 140.66 63.3571 141.649 62.8025C143.268 61.8954 164.592 67.2453 167.808 68.9248C168.097 68.9867 168.983 69.6051 168.983 70.6564C168.983 71.4753 168.592 72.0375 168.365 72.4498C169.305 74.7255 169.499 77.9743 169.478 79.3142C166.757 78.5721 167.252 77.1497 165.025 77.2734C162.799 77.3971 161.377 77.5208 159.707 75.7892C158.037 74.0577 157.172 75.2326 155.378 75.4182C153.585 75.6037 154.079 73.3774 150.864 73.7485C147.648 74.1195 146.72 73.8721 144.865 72.4498C143.01 71.0274 141.835 71.7077 140.289 71.8314C138.743 71.9551 137.63 70.038 137.569 69.6051Z" fill="white"/>
<path d="M140.66 65.6472C139.567 66.5542 137.519 69.2588 137.569 69.6051C137.63 70.038 138.743 71.9551 140.289 71.8314C141.835 71.7077 143.01 71.0274 144.865 72.4498C146.72 73.8721 147.648 74.1195 150.864 73.7485C154.079 73.3774 153.585 75.6037 155.378 75.4182C157.172 75.2326 158.037 74.0577 159.707 75.7892C161.377 77.5208 162.799 77.3971 165.025 77.2734C167.252 77.1497 166.757 78.5721 169.478 79.3142C169.499 77.9743 169.305 74.7255 168.365 72.4498M140.66 65.6472C151.297 70.5945 163.604 72.5116 168.365 72.4498M140.66 65.6472C140.783 64.699 140.66 63.3571 141.649 62.8025C143.268 61.8954 164.592 67.2453 167.808 68.9248C168.097 68.9867 168.983 69.6051 168.983 70.6564C168.983 71.4753 168.592 72.0375 168.365 72.4498" stroke="#03224C"/>
<path d="M162.444 78.6312L160.957 85.7352L148.718 87.895C145.917 87.883 142.908 86.7052 141.476 85.9197L144.106 74.256C146.393 75.2194 149.902 76.1895 153.355 76.9776C156.807 77.7653 160.251 78.3817 162.444 78.6312Z" fill="white" stroke="#03224C"/>
<path d="M151.438 83.4544C151.438 83.4543 151.296 83.5535 151.237 83.5439C151.215 83.5403 151.204 83.527 151.208 83.501C151.221 83.4233 151.368 83.2733 151.438 83.2846C151.445 83.2858 151.449 83.2884 151.448 83.2951C151.441 83.3375 151.291 83.4498 151.291 83.4501C151.29 83.4517 151.292 83.4536 151.293 83.4538C151.294 83.4539 151.295 83.4538 151.296 83.4532C151.334 83.4271 151.448 83.3337 151.454 83.2968C151.456 83.2859 151.45 83.2803 151.439 83.2785C151.365 83.2665 151.216 83.4191 151.202 83.5006C151.198 83.5292 151.211 83.5459 151.236 83.55C151.296 83.5598 151.441 83.4613 151.441 83.4581C151.441 83.4565 151.44 83.4547 151.438 83.4544ZM151.559 83.4773C151.559 83.4757 151.558 83.4739 151.557 83.4736C151.556 83.4736 151.515 83.4892 151.498 83.4864C151.489 83.485 151.486 83.4773 151.487 83.4689C151.488 83.4632 151.491 83.4574 151.495 83.453C151.495 83.4524 151.496 83.4518 151.496 83.4515C151.496 83.4506 151.496 83.4499 151.495 83.4491C151.495 83.4484 151.494 83.4479 151.493 83.4478C151.491 83.4475 151.491 83.4481 151.49 83.4489C151.489 83.4485 151.484 83.4466 151.477 83.4456C151.451 83.4412 151.428 83.4573 151.426 83.4714C151.425 83.4778 151.429 83.4815 151.434 83.4824C151.447 83.4844 151.47 83.47 151.481 83.4624L151.482 83.4624C151.482 83.4625 151.482 83.4629 151.482 83.4632C151.482 83.4647 151.481 83.4663 151.481 83.4679C151.479 83.4805 151.485 83.4907 151.496 83.4925C151.514 83.4954 151.559 83.4809 151.559 83.4773ZM151.435 83.4762C151.432 83.4758 151.431 83.475 151.432 83.4718C151.433 83.4631 151.452 83.4477 151.476 83.4517C151.478 83.452 151.48 83.4522 151.481 83.4528C151.482 83.4529 151.482 83.4536 151.482 83.4539C151.482 83.4543 151.482 83.4546 151.482 83.4545C151.468 83.4638 151.444 83.4778 151.435 83.4762ZM151.64 83.4906C151.641 83.489 151.639 83.4871 151.638 83.4868C151.637 83.4867 151.636 83.4869 151.635 83.4874C151.629 83.4919 151.616 83.4977 151.607 83.4964C151.598 83.4948 151.588 83.4857 151.589 83.4756C151.589 83.4733 151.588 83.4721 151.586 83.4718C151.581 83.471 151.55 83.5035 151.546 83.5072C151.546 83.5075 151.546 83.5074 151.546 83.5074C151.545 83.5074 151.545 83.507 151.545 83.5067C151.559 83.478 151.572 83.4604 151.572 83.4604C151.573 83.4585 151.571 83.4566 151.57 83.4563C151.562 83.455 151.528 83.5276 151.528 83.5289C151.527 83.5311 151.529 83.5324 151.531 83.5327C151.532 83.5328 151.533 83.5324 151.534 83.5315C151.548 83.5128 151.565 83.4958 151.583 83.4806C151.585 83.4921 151.595 83.5007 151.606 83.5024C151.62 83.5047 151.64 83.4935 151.64 83.4906ZM151.758 83.5097C151.758 83.5081 151.757 83.5063 151.755 83.506C151.755 83.506 151.713 83.5216 151.696 83.5188C151.688 83.5174 151.685 83.5096 151.686 83.5013C151.687 83.4955 151.69 83.4898 151.694 83.4854C151.694 83.4848 151.694 83.4842 151.695 83.4839C151.695 83.4829 151.694 83.4822 151.694 83.4815C151.693 83.4807 151.692 83.4803 151.692 83.4802C151.69 83.4799 151.689 83.4804 151.688 83.4812C151.688 83.4808 151.682 83.479 151.676 83.4779C151.649 83.4736 151.627 83.4897 151.624 83.5038C151.623 83.5102 151.628 83.5139 151.633 83.5148C151.646 83.5168 151.668 83.5024 151.68 83.4947L151.681 83.4948C151.681 83.4949 151.681 83.4952 151.681 83.4955C151.68 83.4971 151.68 83.4987 151.68 83.5003C151.678 83.5128 151.684 83.5231 151.695 83.5248C151.713 83.5278 151.757 83.5132 151.758 83.5097ZM151.634 83.5086C151.631 83.5082 151.63 83.5073 151.631 83.5041C151.632 83.4955 151.651 83.4801 151.675 83.484C151.677 83.4843 151.679 83.4846 151.68 83.4852C151.681 83.4853 151.681 83.486 151.681 83.4863C151.681 83.4866 151.681 83.4869 151.681 83.4869C151.667 83.4962 151.643 83.5101 151.634 83.5086ZM151.928 83.5374C151.928 83.5358 151.927 83.5339 151.925 83.5337C151.925 83.5336 151.924 83.5335 151.924 83.5337C151.913 83.5382 151.896 83.5441 151.884 83.5421C151.863 83.5387 151.865 83.5222 151.855 83.5206C151.848 83.5194 151.824 83.5323 151.817 83.5312C151.813 83.5305 151.812 83.5248 151.813 83.5206C151.814 83.5145 151.817 83.5055 151.818 83.5004C151.819 83.4972 151.819 83.4933 151.816 83.4928C151.813 83.4922 151.776 83.5154 151.746 83.5454C151.746 83.5457 151.746 83.5456 151.746 83.5456C151.745 83.5455 151.745 83.5452 151.745 83.5448L151.745 83.5445C151.759 83.5033 151.777 83.4824 151.777 83.4824C151.777 83.4805 151.775 83.4789 151.774 83.4787C151.769 83.4779 151.748 83.5114 151.734 83.5582C151.734 83.5585 151.733 83.5588 151.733 83.5594C151.733 83.5594 151.733 83.5597 151.734 83.5598C151.733 83.5614 151.734 83.5626 151.736 83.5628L151.736 83.5629C151.737 83.563 151.738 83.5629 151.739 83.5617C151.76 83.5393 151.783 83.5198 151.809 83.5035C151.809 83.5033 151.81 83.5033 151.81 83.5034C151.811 83.5035 151.811 83.5038 151.811 83.5045C151.81 83.5086 151.808 83.5139 151.807 83.5193C151.805 83.5309 151.81 83.5366 151.816 83.5376C151.826 83.5392 151.847 83.5255 151.854 83.5267C151.857 83.5271 151.864 83.5454 151.883 83.5486C151.897 83.5508 151.927 83.5409 151.928 83.5374ZM152.008 83.5504C152.008 83.5488 152.007 83.547 152.005 83.5467C152.003 83.5463 151.952 83.5788 151.927 83.5748C151.917 83.5732 151.911 83.5676 151.913 83.5583C151.913 83.557 151.913 83.5555 151.914 83.5545C151.914 83.5533 151.916 83.5525 151.917 83.5524C151.937 83.554 151.955 83.5431 151.956 83.536C151.956 83.5335 151.954 83.5298 151.948 83.5289C151.93 83.5259 151.91 83.5387 151.907 83.5567C151.905 83.5682 151.911 83.5788 151.925 83.5811C151.951 83.5854 152.008 83.5533 152.008 83.5504ZM151.948 83.5376C151.943 83.5418 151.932 83.5463 151.92 83.5463C151.92 83.5463 151.919 83.5459 151.919 83.5455C151.919 83.5452 151.919 83.5452 151.92 83.5449C151.928 83.536 151.937 83.5346 151.947 83.5355C151.948 83.5356 151.948 83.5364 151.948 83.537C151.948 83.537 151.948 83.5374 151.948 83.5376ZM152.085 83.5633C152.085 83.5617 152.084 83.5598 152.082 83.5595C152.08 83.5592 152.015 83.6069 152 83.6044C151.995 83.6036 151.996 83.5936 151.997 83.5888C152.002 83.557 152.041 83.4813 152.078 83.4475C152.079 83.4469 152.079 83.4463 152.079 83.4457C152.08 83.4438 152.078 83.4419 152.077 83.4416C152.068 83.4402 151.999 83.5319 151.99 83.5874C151.989 83.5974 151.989 83.609 151.999 83.6105C152.016 83.6133 152.084 83.5662 152.085 83.5633Z" fill="#03224C"/>
<path d="M151.296 83.4532L150.728 82.6301L150.72 82.6358L150.711 82.6417L151.296 83.4532ZM151.599 82.4674C151.403 82.455 151.144 82.4987 151.081 82.5205C151.051 82.5325 151.005 82.5534 150.988 82.5618C150.959 82.5764 150.937 82.5893 150.931 82.5927C150.915 82.6021 150.903 82.6099 150.9 82.6115C150.892 82.6166 150.886 82.6208 150.885 82.6214C150.883 82.6228 150.881 82.6239 150.881 82.6244C150.88 82.6249 150.879 82.6254 150.879 82.6256C150.877 82.6266 150.878 82.6265 150.877 82.6267C150.877 82.6267 150.877 82.627 150.876 82.6274C150.874 82.629 150.874 82.6287 150.878 82.6264C150.88 82.6251 150.887 82.6218 150.896 82.6172C150.905 82.6129 150.923 82.6048 150.948 82.5956C150.971 82.5871 151.016 82.5717 151.077 82.5602C151.109 82.5542 151.152 82.548 151.202 82.5456C151.253 82.5432 151.32 82.5442 151.398 82.5569L151.077 84.5309C151.162 84.5448 151.237 84.5461 151.296 84.5434C151.356 84.5406 151.407 84.5332 151.448 84.5254C151.529 84.5103 151.595 84.4887 151.639 84.4723C151.727 84.44 151.799 84.4024 151.842 84.379C151.889 84.3532 151.928 84.3287 151.954 84.312C151.968 84.3033 151.979 84.2959 151.987 84.2906C151.991 84.288 151.994 84.2859 151.995 84.2854C151.996 84.2845 151.994 84.2861 151.991 84.2879C151.99 84.2883 151.984 84.2924 151.976 84.2974C151.974 84.299 151.962 84.3068 151.946 84.3161C151.94 84.3195 151.918 84.3324 151.889 84.347C151.872 84.3554 151.826 84.3763 151.796 84.3883C151.733 84.41 151.474 84.4538 151.278 84.4414L151.599 82.4674ZM151.398 82.5569C151.543 82.5805 151.825 82.6652 152.028 82.952C152.23 83.2359 152.218 83.5256 152.195 83.6617L150.221 83.3402C150.195 83.5023 150.186 83.8117 150.398 84.1097C150.611 84.4105 150.91 84.5037 151.077 84.5309L151.398 82.5569ZM152.195 83.6617C152.164 83.8543 152.081 83.9734 152.07 83.9908C152.043 84.0303 152.019 84.0572 151.999 84.0766C151.981 84.0935 151.941 84.1307 151.873 84.1698C151.838 84.1896 151.777 84.2215 151.692 84.2465C151.612 84.2702 151.463 84.3019 151.277 84.2716L151.599 82.2976C151.228 82.2372 150.948 82.3943 150.876 82.4357C150.761 82.5021 150.67 82.5795 150.605 82.6422C150.538 82.7074 150.47 82.7857 150.41 82.8748C150.365 82.9418 150.259 83.1088 150.221 83.3402L152.195 83.6617ZM151.277 84.2716C151.236 84.265 150.982 84.2275 150.754 84.0101C150.624 83.8849 150.528 83.7245 150.481 83.5448C150.436 83.3764 150.445 83.2309 150.461 83.1344L152.435 83.4558C152.471 83.2317 152.445 82.8593 152.138 82.5655C151.907 82.3447 151.647 82.3054 151.599 82.2976L151.277 84.2716ZM150.461 83.1344C150.48 83.0179 150.516 82.9296 150.54 82.8784C150.565 82.8243 150.591 82.7832 150.608 82.7574C150.642 82.7074 150.672 82.6743 150.682 82.6624C150.705 82.6376 150.719 82.6267 150.711 82.6332C150.708 82.6364 150.701 82.6414 150.694 82.647C150.691 82.6494 150.689 82.6514 150.687 82.6529C150.685 82.6541 150.685 82.654 150.683 82.6559C150.683 82.6561 150.68 82.6583 150.676 82.6609C150.675 82.6616 150.67 82.666 150.663 82.6716C150.661 82.6734 150.65 82.682 150.637 82.6933C150.632 82.6974 150.614 82.713 150.592 82.7343C150.58 82.7469 150.546 82.7823 150.526 82.8056C150.486 82.8567 150.357 83.0924 150.304 83.2894L152.278 83.6108C152.224 83.8077 152.096 84.0434 152.055 84.0945C152.035 84.1179 152.002 84.1533 151.989 84.1658C151.967 84.1872 151.949 84.2028 151.944 84.2068C151.931 84.2181 151.921 84.2266 151.919 84.2283C151.912 84.2338 151.906 84.2381 151.906 84.2386C151.903 84.2407 151.901 84.2423 151.902 84.2416C151.902 84.2412 151.902 84.2414 151.903 84.2403C151.904 84.2395 151.906 84.2384 151.907 84.2372C151.914 84.2324 151.923 84.2252 151.934 84.2164C151.955 84.1995 151.987 84.1738 152.022 84.1435C152.053 84.1167 152.106 84.0698 152.159 84.0119C152.184 83.9836 152.227 83.9348 152.27 83.8705C152.292 83.8375 152.322 83.7897 152.35 83.7293C152.377 83.6718 152.415 83.5776 152.435 83.4558L150.461 83.1344ZM150.304 83.2894C150.251 83.6112 150.363 83.8749 150.48 84.0367C150.596 84.1985 150.811 84.3884 151.133 84.4408L151.454 82.4668C151.774 82.519 151.987 82.7078 152.103 82.8682C152.218 83.0286 152.33 83.2906 152.278 83.6108L150.304 83.2894ZM151.133 84.4408C151.377 84.4807 151.65 84.4304 151.88 84.2648L150.711 82.6417C150.842 82.5479 150.973 82.5009 151.077 82.4777C151.177 82.4554 151.307 82.4428 151.454 82.4668L151.133 84.4408ZM151.864 84.2763C151.925 84.2338 151.999 84.1745 152.061 84.1173C152.093 84.0881 152.144 84.0403 152.194 83.9806C152.219 83.951 152.259 83.9021 152.298 83.8381C152.329 83.7892 152.41 83.6523 152.441 83.4575L150.467 83.1361C150.484 83.0346 150.513 82.9557 150.535 82.9062C150.557 82.8548 150.58 82.8147 150.596 82.788C150.628 82.7363 150.657 82.7009 150.67 82.6857C150.685 82.6681 150.697 82.6562 150.702 82.6509C150.708 82.645 150.711 82.6416 150.712 82.6409C150.714 82.6397 150.712 82.6412 150.709 82.6436C150.704 82.648 150.71 82.6424 150.728 82.6301L151.864 84.2763ZM152.441 83.4575C152.477 83.2385 152.452 82.9051 152.2 82.621C151.981 82.3742 151.716 82.3105 151.6 82.2915L151.278 84.2655C151.173 84.2484 150.916 84.1883 150.703 83.9474C150.457 83.6694 150.433 83.3442 150.467 83.1361L152.441 83.4575ZM151.6 82.2915C151.237 82.2324 150.962 82.3803 150.882 82.4256C150.763 82.4928 150.669 82.5718 150.602 82.6364C150.533 82.7034 150.463 82.7837 150.403 82.875C150.355 82.946 150.252 83.1118 150.215 83.3399L152.189 83.6613C152.159 83.8486 152.08 83.9648 152.066 83.9846C152.04 84.0247 152.015 84.0524 151.994 84.0726C151.976 84.0904 151.934 84.1284 151.864 84.1678C151.828 84.1879 151.766 84.2191 151.682 84.2432C151.601 84.2662 151.457 84.2946 151.278 84.2655L151.6 82.2915ZM150.215 83.3399C150.183 83.5365 150.194 83.8391 150.398 84.121C150.601 84.4008 150.882 84.5055 151.076 84.537L151.397 82.563C151.566 82.5905 151.827 82.6847 152.018 82.9479C152.21 83.2133 152.217 83.4933 152.189 83.6613L150.215 83.3399ZM151.076 84.537C151.357 84.5829 151.584 84.4987 151.632 84.4812C151.721 84.4492 151.795 84.4116 151.84 84.3869C151.889 84.36 151.932 84.3333 151.966 84.3115C151.982 84.3008 152.001 84.2877 152.022 84.273C152.03 84.2669 152.049 84.2533 152.071 84.2354C152.08 84.2282 152.105 84.2072 152.135 84.178C152.149 84.165 152.182 84.1326 152.219 84.0868C152.237 84.064 152.27 84.022 152.303 83.9649C152.329 83.9208 152.399 83.7964 152.428 83.6189L150.454 83.2974C150.483 83.1199 150.553 82.9956 150.579 82.9515C150.613 82.8945 150.645 82.8526 150.663 82.8299C150.7 82.7843 150.733 82.7522 150.746 82.7394C150.776 82.7107 150.8 82.6905 150.808 82.6842C150.828 82.6681 150.843 82.6569 150.848 82.6538C150.86 82.6451 150.867 82.6401 150.869 82.6389C150.873 82.6361 150.877 82.634 150.882 82.631C150.884 82.6301 150.91 82.6154 150.955 82.5993C150.978 82.591 151.023 82.5761 151.083 82.5651C151.138 82.5553 151.252 82.5394 151.397 82.563L151.076 84.537ZM152.428 83.6189C152.507 83.1374 152.209 82.5667 151.599 82.4674L151.278 84.4414C150.672 84.3427 150.376 83.7757 150.454 83.2974L152.428 83.6189ZM151.495 83.453L152.29 84.0593L152.298 84.0489L152.306 84.0382L151.495 83.453ZM151.495 83.4491L150.684 84.0334L150.684 84.0334L151.495 83.4491ZM151.49 83.4489L150.904 84.2598L151.489 84.6816L152.074 84.2604L151.49 83.4489ZM151.481 83.4624L151.642 82.4754L151.261 82.4134L150.938 82.6231L151.481 83.4624ZM151.482 83.4632L152.419 83.8144L152.453 83.7216L152.469 83.6239L151.482 83.4632ZM151.481 83.4528L151.13 84.3891L151.223 84.4239L151.321 84.4398L151.481 83.4528ZM151.482 83.4545L151.642 82.4675L151.25 82.4035L150.92 82.627L151.482 83.4545ZM152.546 83.6381C152.588 83.3833 152.527 83.1408 152.41 82.95C152.29 82.756 152.061 82.5426 151.717 82.4867L151.396 84.4606C151.054 84.4049 150.826 84.1926 150.707 83.9999C150.591 83.8105 150.531 83.5697 150.572 83.3166L152.546 83.6381ZM151.717 82.4867C151.664 82.4794 151.575 82.4738 151.539 82.4738C151.513 82.4746 151.468 82.4776 151.449 82.4794C151.435 82.4811 151.409 82.4847 151.397 82.4865C151.388 82.488 151.371 82.4911 151.363 82.4926C151.345 82.4961 151.331 82.4994 151.322 82.5016C151.312 82.504 151.304 82.5061 151.298 82.5078C151.286 82.5109 151.277 82.5136 151.271 82.5153C151.265 82.517 151.26 82.5185 151.257 82.5196C151.251 82.5216 151.245 82.5233 151.243 82.5242C151.24 82.5252 151.237 82.526 151.236 82.5265C151.233 82.5275 151.231 82.5283 151.23 82.5285C151.229 82.5288 151.228 82.5291 151.228 82.5291C151.228 82.5293 151.23 82.5285 151.233 82.5276C151.238 82.526 151.248 82.5225 151.262 82.5185C151.27 82.5164 151.28 82.5136 151.293 82.5106C151.305 82.5076 151.324 82.5036 151.346 82.4997C151.368 82.4961 151.403 82.4909 151.447 82.4884C151.469 82.4871 151.498 82.4862 151.532 82.4872C151.565 82.4882 151.608 82.4912 151.658 82.4994L151.337 84.4734C151.389 84.482 151.435 84.4852 151.471 84.4863C151.507 84.4874 151.538 84.4865 151.563 84.485C151.613 84.4821 151.654 84.4762 151.682 84.4715C151.711 84.4665 151.735 84.4611 151.754 84.4566C151.774 84.452 151.791 84.4475 151.804 84.4436C151.831 84.436 151.854 84.4289 151.867 84.4244C151.874 84.4221 151.879 84.4202 151.881 84.4195C151.884 84.4187 151.88 84.4199 151.877 84.4211C151.875 84.4216 151.873 84.4223 151.87 84.4233C151.868 84.4241 151.862 84.4258 151.856 84.4278C151.853 84.4288 151.848 84.4303 151.842 84.4321C151.837 84.4337 151.827 84.4364 151.816 84.4396C151.81 84.4412 151.801 84.4433 151.792 84.4457C151.782 84.4479 151.768 84.4512 151.75 84.4547C151.743 84.4562 151.726 84.4593 151.716 84.4608C151.705 84.4626 151.679 84.4662 151.664 84.4679C151.645 84.4697 151.601 84.4727 151.575 84.4735C151.539 84.4735 151.449 84.4679 151.396 84.4606L151.717 82.4867ZM151.658 82.4994C151.957 82.5481 152.225 82.7338 152.373 83.0126C152.5 83.2539 152.498 83.4848 152.474 83.6297L150.5 83.3082C150.475 83.4614 150.474 83.7004 150.605 83.9479C150.756 84.2331 151.029 84.4234 151.337 84.4734L151.658 82.4994ZM152.474 83.6297C152.455 83.7506 152.416 83.8446 152.385 83.9061C152.354 83.9695 152.32 84.0205 152.29 84.0593L150.7 82.8467C150.648 82.9143 150.539 83.0735 150.5 83.3082L152.474 83.6297ZM152.306 84.0382C152.306 84.0382 152.306 84.0381 152.306 84.038C152.306 84.0379 152.306 84.0377 152.306 84.0374C152.307 84.037 152.307 84.0363 152.308 84.0354C152.309 84.0337 152.311 84.0308 152.314 84.0272C152.318 84.0208 152.328 84.0069 152.339 83.9887C152.35 83.9725 152.371 83.9384 152.393 83.8929C152.41 83.8591 152.459 83.7557 152.483 83.6123L150.509 83.2908C150.522 83.2122 150.541 83.1498 150.556 83.1096C150.571 83.0678 150.587 83.0341 150.598 83.0107C150.62 82.9654 150.641 82.9316 150.652 82.9156C150.67 82.8861 150.689 82.8608 150.684 82.8679L152.306 84.0382ZM152.483 83.6123C152.502 83.4966 152.504 83.3528 152.463 83.1963C152.423 83.0443 152.356 82.933 152.307 82.8649L150.684 84.0334C150.635 83.966 150.568 83.8554 150.529 83.7042C150.488 83.5485 150.49 83.4055 150.509 83.2908L152.483 83.6123ZM152.307 82.8649C152.141 82.6348 151.899 82.5007 151.654 82.4608L151.332 84.4348C151.185 84.4108 151.066 84.3577 150.978 84.3049C150.887 84.2497 150.777 84.1636 150.684 84.0334L152.307 82.8649ZM151.654 82.4608C151.505 82.4366 151.322 82.4416 151.133 82.5144C151.052 82.5455 150.991 82.5809 150.956 82.6031C150.938 82.6142 150.925 82.6236 150.917 82.6289C150.913 82.6316 150.91 82.6339 150.908 82.6352C150.907 82.6359 150.907 82.6364 150.906 82.6368C150.906 82.6369 150.906 82.6371 150.906 82.6372C150.905 82.6372 150.905 82.6373 150.905 82.6373L152.074 84.2604C152.099 84.2422 151.992 84.3266 151.85 84.3815C151.661 84.4538 151.479 84.4587 151.332 84.4348L151.654 82.4608ZM152.075 82.638C152.013 82.5936 151.96 82.5664 151.944 82.5583C151.921 82.5463 151.901 82.5374 151.889 82.5322C151.865 82.5216 151.845 82.514 151.833 82.5096C151.808 82.5003 151.785 82.4933 151.768 82.488C151.732 82.4775 151.688 82.4667 151.638 82.4586L151.317 84.4326C151.273 84.4255 151.235 84.4161 151.204 84.4069C151.188 84.4023 151.168 84.3958 151.144 84.387C151.132 84.3829 151.113 84.3755 151.089 84.3651C151.077 84.36 151.058 84.3512 151.034 84.3392C151.019 84.3312 150.966 84.3041 150.904 84.2598L152.075 82.638ZM151.638 82.4586C151.386 82.4175 151.145 82.4713 150.951 82.5804C150.801 82.6652 150.508 82.8873 150.439 83.3107L152.413 83.6321C152.346 84.0414 152.065 84.2484 151.933 84.3227C151.758 84.4213 151.542 84.4693 151.317 84.4326L151.638 82.4586ZM150.439 83.3107C150.394 83.5874 150.463 83.9006 150.682 84.1454C150.875 84.3617 151.111 84.4429 151.274 84.4694L151.595 82.4954C151.752 82.521 151.983 82.5999 152.173 82.8125C152.389 83.0537 152.457 83.3619 152.413 83.6321L150.439 83.3107ZM151.274 84.4694C151.489 84.5044 151.658 84.4607 151.724 84.4416C151.805 84.4182 151.867 84.3896 151.9 84.373C151.967 84.3402 152.019 84.3056 152.025 84.3017L150.938 82.6231C150.932 82.6268 150.967 82.6032 151.016 82.579C151.041 82.5667 151.094 82.5418 151.167 82.5208C151.224 82.5041 151.386 82.4614 151.595 82.4954L151.274 84.4694ZM151.321 84.4494L151.321 84.4494L151.643 82.4754L151.642 82.4754L151.321 84.4494ZM151.321 84.4494C151 84.3972 150.786 84.2079 150.671 84.047C150.555 83.886 150.443 83.6233 150.495 83.3025L152.469 83.6239C152.522 83.3027 152.41 83.0397 152.294 82.8784C152.178 82.7172 151.964 82.5277 151.643 82.4754L151.321 84.4494ZM150.546 83.112C150.523 83.1723 150.511 83.2233 150.504 83.2557C150.5 83.2721 150.498 83.2854 150.497 83.2937C150.496 83.2979 150.495 83.3014 150.495 83.3035C150.495 83.3046 150.494 83.3056 150.494 83.3061C150.494 83.3067 150.494 83.3072 150.494 83.3072L152.468 83.6287C152.469 83.6238 152.465 83.6477 152.459 83.6754C152.453 83.7062 152.441 83.7557 152.419 83.8144L150.546 83.112ZM150.494 83.3072C150.426 83.7235 150.648 84.3676 151.336 84.4795L151.657 82.5055C151.941 82.5517 152.188 82.7198 152.336 82.961C152.477 83.1911 152.5 83.4354 152.468 83.6287L150.494 83.3072ZM151.336 84.4795C151.497 84.5058 151.628 84.4859 151.663 84.4807C151.719 84.4721 151.767 84.4605 151.802 84.4509C151.835 84.4415 151.878 84.4281 151.925 84.4092C151.944 84.4014 151.991 84.3821 152.047 84.3509C152.071 84.3372 152.131 84.3025 152.199 84.2464C152.232 84.2182 152.291 84.1659 152.351 84.0886C152.404 84.0191 152.509 83.8652 152.546 83.6381L150.572 83.3166C150.609 83.0897 150.714 82.9361 150.767 82.8668C150.827 82.7898 150.885 82.7377 150.918 82.7098C150.985 82.6543 151.044 82.6203 151.067 82.6073C151.12 82.5776 151.163 82.56 151.178 82.554C151.216 82.5388 151.246 82.5294 151.267 82.5238C151.288 82.5179 151.321 82.5095 151.365 82.503C151.386 82.4998 151.505 82.4806 151.657 82.5055L151.336 84.4795ZM151.596 82.4892C151.612 82.4919 151.95 82.5314 152.203 82.8381C152.485 83.1786 152.432 83.549 152.419 83.6325L150.445 83.311C150.431 83.3977 150.379 83.7702 150.661 84.112C150.916 84.42 151.256 84.4602 151.274 84.4632L151.596 82.4892ZM152.419 83.6325C152.375 83.9002 152.237 84.0699 152.177 84.1359C152.099 84.222 152.014 84.2849 151.934 84.3298C151.771 84.4209 151.555 84.4776 151.316 84.4387L151.637 82.4647C151.374 82.4218 151.136 82.4842 150.958 82.5842C150.869 82.6335 150.778 82.7016 150.695 82.793C150.63 82.8641 150.489 83.039 150.445 83.311L152.419 83.6325ZM151.316 84.4387C151.322 84.4397 151.298 84.436 151.271 84.4304C151.24 84.4237 151.19 84.4115 151.13 84.3891L151.833 82.5165C151.771 82.4935 151.719 82.4809 151.686 82.4739C151.67 82.4705 151.657 82.4681 151.649 82.4668C151.646 82.4661 151.642 82.4655 151.64 82.4652C151.639 82.465 151.639 82.4649 151.638 82.4648C151.638 82.4647 151.637 82.4647 151.637 82.4647L151.316 84.4387ZM151.321 84.4398C150.954 84.3801 150.723 84.1433 150.611 83.9444C150.519 83.7808 150.453 83.5529 150.495 83.2932L152.469 83.6147C152.512 83.3547 152.446 83.1263 152.353 82.9622C152.241 82.7628 152.009 82.5256 151.642 82.4658L151.321 84.4398ZM150.495 83.2932C150.494 83.3003 150.499 83.2664 150.508 83.2281C150.516 83.1923 150.54 83.0984 150.597 82.9898C150.656 82.8756 150.778 82.6995 151.003 82.5767C151.237 82.4487 151.472 82.4397 151.642 82.4675L151.321 84.4415C151.492 84.4693 151.726 84.4603 151.961 84.3323C152.186 84.2095 152.308 84.0332 152.368 83.919C152.425 83.8102 152.448 83.7162 152.456 83.6802C152.461 83.658 152.465 83.6402 152.466 83.6304C152.467 83.6252 152.468 83.6211 152.469 83.6186C152.469 83.6173 152.469 83.6163 152.469 83.6156C152.469 83.6153 152.469 83.6151 152.469 83.6149C152.469 83.6148 152.469 83.6148 152.469 83.6147C152.469 83.6147 152.469 83.6147 152.469 83.6147C152.469 83.6147 152.469 83.6147 152.469 83.6147C152.469 83.6147 152.469 83.6147 152.469 83.6147L150.495 83.2932ZM150.92 82.627C150.936 82.6163 150.964 82.5978 151.005 82.5774C151.024 82.5678 151.069 82.5458 151.13 82.5254C151.162 82.515 151.213 82.4997 151.279 82.4891C151.339 82.4794 151.453 82.4661 151.596 82.4892L151.274 84.4632C151.528 84.5045 151.726 84.4348 151.758 84.4242C151.828 84.4013 151.881 84.3755 151.909 84.3615C151.967 84.3321 152.014 84.3021 152.043 84.282L150.92 82.627ZM151.635 83.4874L152.196 84.3154L152.208 84.3073L152.22 84.299L151.635 83.4874ZM151.589 83.4756L152.587 83.5405L152.588 83.5179L152.589 83.4952L151.589 83.4756ZM151.546 83.5072L150.826 82.8132L150.609 83.0381L150.559 83.3464L151.546 83.5072ZM151.545 83.5067L150.649 83.0621L150.582 83.1972L150.558 83.346L151.545 83.5067ZM151.572 83.4604L152.376 84.0562L152.52 83.861L152.559 83.6211L151.572 83.4604ZM151.534 83.5315L152.266 84.2127L152.291 84.185L152.315 84.1555L151.534 83.5315ZM151.583 83.4806L152.567 83.3036L152.261 81.5974L150.937 82.7172L151.583 83.4806ZM152.627 83.6513C152.68 83.3295 152.568 83.0657 152.451 82.9039C152.335 82.7422 152.12 82.5522 151.798 82.4998L151.477 84.4738C151.157 84.4217 150.944 84.2328 150.828 84.0725C150.713 83.9121 150.601 83.65 150.653 83.3298L152.627 83.6513ZM151.798 82.4998C151.554 82.46 151.281 82.5102 151.051 82.6759L152.22 84.299C152.089 84.3927 151.958 84.4397 151.854 84.463C151.754 84.4852 151.624 84.4978 151.477 84.4738L151.798 82.4998ZM151.074 82.6595C151.145 82.6119 151.216 82.5771 151.286 82.552C151.325 82.5384 151.38 82.5215 151.449 82.5099C151.512 82.4993 151.627 82.4864 151.768 82.5094L151.446 84.4834C151.705 84.5254 151.906 84.4545 151.957 84.4362C152.038 84.4074 152.119 84.3675 152.196 84.3154L151.074 82.6595ZM151.768 82.5094C152.004 82.5478 152.198 82.6668 152.334 82.8161C152.472 82.9681 152.608 83.2194 152.587 83.5405L150.591 83.4107C150.57 83.7419 150.71 84.0029 150.855 84.1623C150.997 84.319 151.201 84.4434 151.446 84.4834L151.768 82.5094ZM152.589 83.4952C152.593 83.268 152.52 83.0154 152.335 82.8083C152.161 82.6122 151.941 82.5164 151.747 82.4848L151.425 84.4588C151.233 84.4275 151.014 84.3325 150.841 84.1376C150.658 83.9318 150.585 83.681 150.589 83.4561L152.589 83.4952ZM151.747 82.4848C151.497 82.4442 151.305 82.5099 151.246 82.5313C151.165 82.5605 151.105 82.5939 151.075 82.6114C151.014 82.6474 150.97 82.6822 150.954 82.6954C150.915 82.7262 150.886 82.7543 150.875 82.7647C150.848 82.7901 150.824 82.8149 150.826 82.8132L152.266 84.2011C152.271 84.1958 152.265 84.2024 152.256 84.2109C152.254 84.2128 152.234 84.2327 152.202 84.2575C152.19 84.2677 152.149 84.3002 152.091 84.3345C152.062 84.3512 152.004 84.384 151.924 84.4128C151.866 84.4338 151.674 84.4993 151.425 84.4588L151.747 82.4848ZM150.559 83.3464C150.587 83.1738 150.665 82.9862 150.814 82.8261C150.958 82.6716 151.122 82.5922 151.248 82.5528C151.371 82.5146 151.476 82.5077 151.542 82.5075C151.578 82.5073 151.609 82.5091 151.636 82.5115C151.649 82.5127 151.662 82.5141 151.673 82.5156C151.679 82.5164 151.685 82.5172 151.69 82.518C151.693 82.5184 151.696 82.5188 151.699 82.5192C151.7 82.5194 151.701 82.5196 151.703 82.5198C151.703 82.5199 151.704 82.52 151.704 82.5201C151.705 82.5202 151.705 82.5203 151.705 82.5203C151.706 82.5204 151.706 82.5204 151.546 83.5074C151.385 84.4944 151.385 84.4945 151.386 84.4946C151.386 84.4946 151.387 84.4947 151.387 84.4948C151.388 84.4949 151.388 84.495 151.389 84.4951C151.39 84.4953 151.391 84.4955 151.393 84.4957C151.395 84.4961 151.398 84.4965 151.401 84.4969C151.406 84.4977 151.412 84.4985 151.418 84.4992C151.43 84.5008 151.442 84.5022 151.456 84.5034C151.482 84.5058 151.514 84.5076 151.549 84.5074C151.616 84.5072 151.721 84.5003 151.844 84.4621C151.97 84.4226 152.134 84.3432 152.278 84.1886C152.427 84.0284 152.505 83.8407 152.533 83.6679L150.559 83.3464ZM151.706 82.5204C152.027 82.5727 152.241 82.762 152.357 82.9229C152.473 83.0838 152.584 83.3466 152.532 83.6674L150.558 83.346C150.506 83.6671 150.618 83.9302 150.734 84.0914C150.85 84.2527 151.064 84.4421 151.385 84.4944L151.706 82.5204ZM152.441 83.9512C152.43 83.9725 152.42 83.991 152.41 84.0069C152.404 84.0151 152.399 84.0232 152.393 84.0313C152.391 84.0353 152.388 84.0394 152.385 84.0436C152.383 84.0457 152.382 84.0477 152.38 84.0498C152.38 84.0509 152.379 84.052 152.378 84.053C152.378 84.0536 152.377 84.0541 152.377 84.0546C152.377 84.0549 152.376 84.0552 152.376 84.0554C152.376 84.0556 152.376 84.0557 152.376 84.0558C152.376 84.0559 152.376 84.056 152.376 84.056C152.376 84.0561 152.376 84.0562 151.572 83.4604C150.769 82.8646 150.769 82.8647 150.769 82.8648C150.769 82.8648 150.769 82.8649 150.769 82.865C150.769 82.8651 150.769 82.8652 150.769 82.8654C150.769 82.8656 150.768 82.8659 150.768 82.8662C150.768 82.8667 150.767 82.8673 150.767 82.8679C150.766 82.869 150.765 82.8702 150.764 82.8714C150.763 82.8737 150.761 82.8762 150.759 82.8788C150.755 82.8841 150.751 82.8898 150.747 82.8959C150.739 82.9082 150.729 82.9225 150.719 82.9387C150.699 82.9706 150.674 83.0122 150.649 83.0621L152.441 83.9512ZM152.559 83.6211C152.614 83.2853 152.491 83.0126 152.365 82.8491C152.247 82.6949 152.037 82.5193 151.73 82.4693L151.409 84.4433C151.104 84.3936 150.895 84.219 150.778 84.0663C150.654 83.9044 150.531 83.6336 150.585 83.2997L152.559 83.6211ZM151.73 82.4693C151.338 82.4054 151.062 82.5911 151 82.6336C150.906 82.6988 150.844 82.7658 150.819 82.7935C150.765 82.8545 150.729 82.9094 150.718 82.927C150.689 82.972 150.668 83.0127 150.659 83.0293C150.648 83.0512 150.638 83.0712 150.631 83.0858C150.627 83.0931 150.624 83.1013 150.62 83.1097C150.618 83.1133 150.615 83.1205 150.611 83.1292C150.61 83.1327 150.605 83.1424 150.6 83.1548C150.598 83.1603 150.593 83.1737 150.586 83.1911C150.583 83.1996 150.578 83.2156 150.572 83.236C150.568 83.2473 150.552 83.2995 150.541 83.3682L152.515 83.6896C152.504 83.7583 152.487 83.8104 152.484 83.8217C152.478 83.8421 152.472 83.858 152.469 83.8665C152.463 83.8837 152.457 83.897 152.455 83.9024C152.45 83.9144 152.446 83.9236 152.445 83.9266C152.442 83.934 152.439 83.9395 152.439 83.941C152.437 83.9452 152.436 83.9475 152.436 83.9479C152.435 83.9485 152.434 83.9502 152.432 83.954C152.431 83.9561 152.429 83.961 152.425 83.968C152.422 83.9739 152.413 83.9881 152.401 84.0069C152.394 84.0178 152.363 84.0673 152.312 84.1245C152.289 84.1503 152.229 84.2158 152.135 84.2802C152.075 84.3217 151.8 84.507 151.409 84.4433L151.73 82.4693ZM150.541 83.3682C150.488 83.6907 150.597 84.0013 150.801 84.2179C150.978 84.4048 151.192 84.4906 151.37 84.5197L151.691 82.5457C151.868 82.5745 152.08 82.6595 152.256 82.8451C152.459 83.0605 152.567 83.3694 152.515 83.6896L150.541 83.3682ZM151.37 84.5197C151.805 84.5906 152.12 84.3692 152.266 84.2127L150.801 82.8503C150.945 82.6955 151.258 82.4751 151.691 82.5457L151.37 84.5197ZM152.315 84.1555C152.289 84.1877 152.26 84.2173 152.229 84.244L150.937 82.7172C150.87 82.7742 150.808 82.838 150.752 82.9075L152.315 84.1555ZM150.599 83.6575C150.685 84.1363 151.068 84.4281 151.445 84.4894L151.767 82.5154C152.122 82.5733 152.485 82.848 152.567 83.3036L150.599 83.6575ZM151.445 84.4894C151.731 84.536 151.952 84.4474 152.018 84.4192C152.069 84.3977 152.127 84.3683 152.188 84.3284C152.216 84.3101 152.267 84.2746 152.323 84.2216C152.351 84.1956 152.399 84.1481 152.448 84.0805C152.486 84.0287 152.591 83.8777 152.627 83.6513L150.653 83.3298C150.69 83.1038 150.795 82.9532 150.832 82.9019C150.881 82.8348 150.928 82.7879 150.955 82.7624C151.011 82.7106 151.06 82.6764 151.086 82.6595C151.142 82.6225 151.194 82.5963 151.238 82.5776C151.291 82.5553 151.495 82.4711 151.767 82.5154L151.445 84.4894ZM151.694 83.4854L152.489 84.0917L152.497 84.0812L152.505 84.0706L151.694 83.4854ZM151.694 83.4815L150.882 84.0657L150.882 84.0658L151.694 83.4815ZM151.688 83.4812L151.103 84.2922L151.688 84.7139L152.273 84.2928L151.688 83.4812ZM151.68 83.4947L151.841 82.5077L151.46 82.4458L151.137 82.6555L151.68 83.4947ZM151.681 83.4955L152.617 83.8467L152.652 83.754L152.668 83.6563L151.681 83.4955ZM151.68 83.4852L151.329 84.4215L151.422 84.4563L151.519 84.4722L151.68 83.4852ZM151.681 83.4869L151.841 82.4999L151.448 82.4359L151.119 82.6594L151.681 83.4869ZM152.745 83.6704C152.786 83.4157 152.726 83.1732 152.609 82.9824C152.489 82.7884 152.26 82.575 151.916 82.519L151.595 84.493C151.253 84.4373 151.025 84.2249 150.906 84.0323C150.789 83.8429 150.73 83.6021 150.771 83.349L152.745 83.6704ZM151.916 82.519C151.863 82.5118 151.773 82.5062 151.737 82.5062C151.712 82.507 151.667 82.5099 151.648 82.5118C151.633 82.5135 151.607 82.5171 151.596 82.5188C151.586 82.5204 151.57 82.5235 151.562 82.5249C151.544 82.5284 151.53 82.5318 151.521 82.534C151.511 82.5364 151.503 82.5385 151.497 82.5401C151.485 82.5433 151.475 82.546 151.47 82.5476C151.464 82.5494 151.459 82.5509 151.456 82.5519C151.449 82.554 151.444 82.5557 151.442 82.5566C151.439 82.5575 151.436 82.5584 151.435 82.5589C151.432 82.5598 151.43 82.5606 151.429 82.5609C151.428 82.5611 151.427 82.5614 151.427 82.5614C151.427 82.5616 151.429 82.5609 151.431 82.56C151.436 82.5584 151.447 82.5549 151.461 82.5509C151.469 82.5488 151.479 82.546 151.492 82.5429C151.504 82.54 151.522 82.536 151.545 82.5321C151.567 82.5284 151.602 82.5233 151.646 82.5207C151.668 82.5194 151.697 82.5186 151.73 82.5196C151.763 82.5206 151.807 82.5236 151.857 82.5318L151.536 84.5058C151.588 84.5144 151.634 84.5176 151.669 84.5186C151.705 84.5197 151.737 84.5188 151.762 84.5173C151.812 84.5145 151.852 84.5086 151.88 84.5038C151.909 84.4989 151.934 84.4935 151.953 84.489C151.973 84.4844 151.989 84.4799 152.003 84.476C152.03 84.4684 152.052 84.4612 152.066 84.4568C152.073 84.4544 152.078 84.4525 152.08 84.4519C152.082 84.451 152.079 84.4523 152.075 84.4535C152.074 84.4539 152.072 84.4547 152.069 84.4556C152.066 84.4565 152.061 84.4581 152.055 84.4602C152.051 84.4612 152.047 84.4627 152.041 84.4644C152.035 84.4661 152.026 84.4688 152.014 84.4719C152.008 84.4735 152 84.4757 151.99 84.478C151.981 84.4803 151.967 84.4836 151.949 84.4871C151.941 84.4886 151.924 84.4916 151.915 84.4932C151.904 84.495 151.878 84.4985 151.863 84.5002C151.844 84.5021 151.799 84.5051 151.774 84.5059C151.738 84.5059 151.648 84.5002 151.595 84.493L151.916 82.519ZM151.857 82.5318C152.156 82.5805 152.424 82.7661 152.571 83.045C152.699 83.2863 152.697 83.5172 152.673 83.662L150.699 83.3406C150.674 83.4938 150.673 83.7327 150.804 83.9803C150.954 84.2655 151.228 84.4557 151.536 84.5058L151.857 82.5318ZM152.673 83.662C152.653 83.7829 152.615 83.877 152.584 83.9385C152.553 84.0019 152.518 84.0529 152.489 84.0917L150.898 82.8791C150.847 82.9467 150.737 83.1059 150.699 83.3406L152.673 83.662ZM152.505 84.0706C152.505 84.0705 152.505 84.0705 152.505 84.0703C152.505 84.0702 152.505 84.07 152.505 84.0698C152.505 84.0694 152.506 84.0686 152.507 84.0678C152.508 84.0661 152.51 84.0632 152.512 84.0595C152.517 84.0532 152.527 84.0392 152.538 84.0211C152.548 84.0049 152.569 83.9708 152.592 83.9253C152.609 83.8914 152.658 83.788 152.682 83.6446L150.708 83.3232C150.72 83.2446 150.74 83.1822 150.755 83.142C150.77 83.1002 150.785 83.0665 150.797 83.043C150.819 82.9978 150.84 82.964 150.85 82.948C150.869 82.9184 150.888 82.8931 150.883 82.9002L152.505 84.0706ZM152.682 83.6446C152.7 83.529 152.703 83.3851 152.662 83.2286C152.622 83.0767 152.555 82.9654 152.505 82.8972L150.882 84.0658C150.834 83.9984 150.767 83.8877 150.727 83.7366C150.686 83.5809 150.689 83.4379 150.708 83.3232L152.682 83.6446ZM152.505 82.8972C152.34 82.6672 152.097 82.533 151.853 82.4932L151.531 84.4672C151.384 84.4432 151.265 84.3901 151.177 84.3373C151.085 84.2821 150.976 84.1959 150.882 84.0657L152.505 82.8972ZM151.853 82.4932C151.704 82.469 151.521 82.474 151.331 82.5468C151.25 82.5778 151.19 82.6132 151.155 82.6355C151.137 82.6465 151.124 82.656 151.116 82.6612C151.112 82.664 151.109 82.6662 151.107 82.6676C151.106 82.6682 151.105 82.6688 151.105 82.6691C151.105 82.6693 151.104 82.6694 151.104 82.6695C151.104 82.6696 151.104 82.6697 151.104 82.6697L152.273 84.2928C152.298 84.2746 152.191 84.359 152.048 84.4138C151.86 84.4862 151.678 84.4911 151.531 84.4672L151.853 82.4932ZM152.274 82.6703C152.212 82.6259 152.159 82.5988 152.143 82.5907C152.12 82.5786 152.1 82.5698 152.088 82.5646C152.064 82.554 152.044 82.5464 152.032 82.542C152.007 82.5327 151.984 82.5256 151.966 82.5204C151.93 82.5098 151.887 82.4991 151.837 82.4909L151.515 84.4649C151.472 84.4578 151.434 84.4485 151.402 84.4393C151.387 84.4346 151.366 84.4282 151.342 84.4194C151.331 84.4153 151.312 84.4079 151.288 84.3975C151.276 84.3923 151.257 84.3836 151.233 84.3716C151.217 84.3636 151.165 84.3365 151.103 84.2922L152.274 82.6703ZM151.837 82.4909C151.584 82.4498 151.344 82.5037 151.15 82.6128C151 82.6976 150.706 82.9197 150.637 83.3431L152.611 83.6645C152.545 84.0737 152.264 84.2807 152.132 84.355C151.957 84.4537 151.741 84.5017 151.515 84.4649L151.837 82.4909ZM150.637 83.3431C150.592 83.6197 150.662 83.9329 150.881 84.1778C151.074 84.3941 151.31 84.4752 151.472 84.5018L151.794 82.5278C151.951 82.5534 152.182 82.6323 152.372 82.8449C152.587 83.0861 152.655 83.3942 152.611 83.6645L150.637 83.3431ZM151.472 84.5018C151.687 84.5368 151.857 84.493 151.923 84.4739C152.003 84.4506 152.065 84.422 152.099 84.4054C152.166 84.3725 152.218 84.3379 152.224 84.334L151.137 82.6555C151.131 82.6592 151.166 82.6356 151.215 82.6114C151.24 82.5991 151.293 82.5742 151.365 82.5532C151.423 82.5365 151.585 82.4938 151.794 82.5278L151.472 84.5018ZM151.519 84.4817L151.52 84.4818L151.841 82.5078L151.841 82.5077L151.519 84.4817ZM151.52 84.4818C151.199 84.4296 150.985 84.2403 150.869 84.0793C150.754 83.9184 150.642 83.6557 150.694 83.3348L152.668 83.6563C152.72 83.3351 152.609 83.072 152.493 82.9108C152.376 82.7496 152.162 82.5601 151.841 82.5078L151.52 84.4818ZM150.745 83.1444C150.722 83.2046 150.71 83.2557 150.703 83.2881C150.699 83.3044 150.697 83.3178 150.695 83.3261C150.695 83.3303 150.694 83.3337 150.694 83.3359C150.693 83.337 150.693 83.3379 150.693 83.3385C150.693 83.3391 150.693 83.3395 150.693 83.3396L152.667 83.661C152.668 83.6561 152.664 83.68 152.658 83.7077C152.652 83.7386 152.639 83.788 152.617 83.8467L150.745 83.1444ZM150.693 83.3396C150.625 83.7559 150.847 84.3999 151.534 84.5118L151.856 82.5378C152.14 82.5841 152.387 82.7522 152.535 82.9934C152.676 83.2235 152.698 83.4678 152.667 83.661L150.693 83.3396ZM151.534 84.5118C151.696 84.5381 151.827 84.5183 151.861 84.513C151.918 84.5045 151.966 84.4929 152 84.4833C152.034 84.4739 152.077 84.4604 152.124 84.4416C152.143 84.4338 152.19 84.4144 152.246 84.3833C152.27 84.3695 152.33 84.3349 152.397 84.2788C152.431 84.2506 152.49 84.1983 152.549 84.121C152.603 84.0514 152.708 83.8975 152.745 83.6704L150.771 83.349C150.808 83.1221 150.913 82.9684 150.966 82.8992C151.025 82.8221 151.084 82.7701 151.117 82.7422C151.184 82.6867 151.243 82.6527 151.266 82.6397C151.319 82.61 151.362 82.5923 151.377 82.5863C151.415 82.5711 151.445 82.5618 151.466 82.5561C151.487 82.5502 151.52 82.5419 151.563 82.5354C151.585 82.5321 151.703 82.513 151.856 82.5378L151.534 84.5118ZM151.795 82.5216C151.811 82.5242 152.149 82.5638 152.402 82.8705C152.683 83.211 152.631 83.5814 152.618 83.6649L150.644 83.3434C150.629 83.4301 150.578 83.8025 150.86 84.1444C151.115 84.4524 151.454 84.4926 151.473 84.4956L151.795 82.5216ZM152.618 83.6649C152.574 83.9325 152.436 84.1023 152.376 84.1682C152.298 84.2544 152.213 84.3172 152.132 84.3622C151.969 84.4532 151.753 84.5099 151.514 84.471L151.836 82.497C151.573 82.4542 151.335 82.5166 151.156 82.6165C151.068 82.6659 150.976 82.734 150.894 82.8253C150.829 82.8965 150.688 83.0714 150.644 83.3434L152.618 83.6649ZM151.514 84.471C151.521 84.472 151.497 84.4684 151.47 84.4627C151.439 84.4561 151.389 84.4439 151.329 84.4215L152.031 82.5489C151.97 82.5259 151.918 82.5133 151.885 82.5063C151.869 82.5028 151.856 82.5004 151.848 82.4991C151.844 82.4984 151.841 82.4979 151.839 82.4976C151.838 82.4974 151.837 82.4973 151.837 82.4972C151.836 82.4971 151.836 82.497 151.836 82.497L151.514 84.471ZM151.519 84.4722C151.153 84.4125 150.922 84.1756 150.81 83.9767C150.717 83.8131 150.652 83.5852 150.694 83.3256L152.668 83.647C152.71 83.387 152.644 83.1586 152.552 82.9946C152.44 82.7952 152.208 82.558 151.841 82.4982L151.519 84.4722ZM150.694 83.3256C150.693 83.3327 150.698 83.2988 150.707 83.2605C150.715 83.2247 150.738 83.1308 150.795 83.0221C150.855 82.908 150.977 82.7318 151.202 82.6091C151.436 82.4811 151.671 82.4721 151.841 82.4999L151.52 84.4739C151.691 84.5017 151.925 84.4927 152.16 84.3646C152.385 84.2418 152.506 84.0656 152.566 83.9513C152.623 83.8425 152.647 83.7485 152.655 83.7126C152.66 83.6904 152.663 83.6726 152.665 83.6628C152.666 83.6576 152.667 83.6534 152.667 83.6509C152.668 83.6497 152.668 83.6486 152.668 83.648C152.668 83.6477 152.668 83.6474 152.668 83.6473C152.668 83.6472 152.668 83.6471 152.668 83.6471C152.668 83.6471 152.668 83.647 152.668 83.647C152.668 83.647 152.668 83.647 152.668 83.647C152.668 83.647 152.668 83.647 152.668 83.647L150.694 83.3256ZM151.119 82.6594C151.135 82.6486 151.163 82.6302 151.204 82.6097C151.223 82.6002 151.267 82.5782 151.329 82.5578C151.361 82.5473 151.412 82.5321 151.478 82.5214C151.537 82.5117 151.652 82.4984 151.795 82.5216L151.473 84.4956C151.727 84.5369 151.925 84.4672 151.957 84.4565C152.026 84.4337 152.08 84.4079 152.107 84.3939C152.165 84.3645 152.212 84.3344 152.242 84.3144L151.119 82.6594ZM151.924 83.5337L151.626 82.5791L151.585 82.5919L151.545 82.6082L151.924 83.5337ZM151.746 83.5454L151.042 82.8352L150.811 83.064L150.759 83.3846L151.746 83.5454ZM151.745 83.5445L150.798 83.2237L150.771 83.3021L150.758 83.3838L151.745 83.5445ZM151.777 83.4824L152.542 84.1265L152.719 83.9154L152.764 83.6431L151.777 83.4824ZM151.734 83.5582L150.777 83.2676L150.758 83.3315L150.747 83.3975L151.734 83.5582ZM151.734 83.5598L152.721 83.7205L152.881 82.7335L151.894 82.5728L151.734 83.5598ZM151.739 83.5617L151.001 82.887L150.962 82.9297L150.928 82.9765L151.739 83.5617ZM151.809 83.5035L152.343 84.349L152.369 84.3328L152.393 84.3151L151.809 83.5035ZM151.811 83.5045L152.762 83.8134L152.786 83.7407L152.798 83.6652L151.811 83.5045ZM152.915 83.6981C152.956 83.4434 152.896 83.2009 152.778 83.0101C152.659 82.8161 152.43 82.6027 152.086 82.5467L151.765 84.5207C151.422 84.465 151.195 84.2526 151.076 84.06C150.959 83.8705 150.9 83.6298 150.941 83.3766L152.915 83.6981ZM152.086 82.5467C152.086 82.5467 152.086 82.5467 152.086 82.5467C152.086 82.5467 152.086 82.5467 152.086 82.5467C152.086 82.5466 152.086 82.5466 152.086 82.5466C152.085 82.5465 152.085 82.5464 152.084 82.5463C152.083 82.5461 152.08 82.5457 152.077 82.5453C152.072 82.5444 152.061 82.5428 152.048 82.5412C152.02 82.5378 151.976 82.5334 151.921 82.5336C151.797 82.5341 151.696 82.5573 151.626 82.5791L152.221 84.4884C152.152 84.5099 152.052 84.5331 151.928 84.5336C151.83 84.5339 151.745 84.5175 151.765 84.5207L152.086 82.5467ZM151.545 82.6082C151.56 82.6023 151.602 82.5854 151.66 82.5707C151.69 82.5631 151.736 82.5531 151.793 82.5473C151.848 82.5418 151.937 82.5376 152.045 82.5551L151.723 84.5291C151.931 84.563 152.097 84.5232 152.149 84.51C152.221 84.4918 152.277 84.4697 152.302 84.4592L151.545 82.6082ZM152.045 82.5551C152.107 82.5653 152.175 82.5827 152.246 82.6109C152.282 82.6249 152.317 82.6412 152.351 82.6598C152.385 82.6784 152.418 82.6988 152.449 82.7207C152.512 82.7649 152.562 82.8115 152.602 82.8544C152.641 82.8962 152.668 82.933 152.683 82.9545C152.69 82.9651 152.696 82.9734 152.698 82.9764C152.699 82.9778 152.7 82.9791 152.699 82.9784C152.699 82.9782 152.698 82.9761 152.696 82.9736C152.693 82.9689 152.685 82.9571 152.675 82.9424C152.664 82.9275 152.648 82.9057 152.626 82.8805C152.605 82.8551 152.576 82.8237 152.54 82.7902C152.504 82.7563 152.459 82.7197 152.405 82.6845C152.351 82.649 152.29 82.6166 152.222 82.5901C152.154 82.5635 152.085 82.5449 152.016 82.5336L151.695 84.5076C151.627 84.4966 151.559 84.4782 151.492 84.4521C151.425 84.426 151.365 84.3941 151.312 84.3592C151.259 84.3246 151.215 84.2887 151.179 84.2557C151.144 84.2229 151.116 84.1924 151.096 84.1679C151.075 84.1436 151.06 84.1228 151.05 84.1089C151.04 84.0952 151.033 84.0844 151.031 84.0809C151.029 84.0789 151.028 84.0774 151.029 84.0778C151.029 84.0778 151.029 84.0778 151.029 84.0779C151.029 84.0779 151.029 84.078 151.029 84.0781C151.029 84.0783 151.029 84.0785 151.029 84.0788C151.03 84.0794 151.03 84.0803 151.031 84.0814C151.034 84.0856 151.04 84.0951 151.048 84.1069C151.065 84.1308 151.094 84.17 151.135 84.2141C151.177 84.2593 151.23 84.3082 151.295 84.3544C151.328 84.3773 151.362 84.3987 151.398 84.4182C151.434 84.4377 151.471 84.4549 151.508 84.4697C151.583 84.4994 151.656 84.5181 151.723 84.5291L152.045 82.5551ZM152.016 82.5336C151.973 82.5265 151.933 82.5231 151.9 82.5216C151.866 82.5201 151.836 82.5204 151.811 82.5215C151.785 82.5226 151.761 82.5246 151.741 82.5268C151.721 82.5291 151.703 82.5317 151.687 82.5344C151.656 82.5396 151.63 82.5454 151.61 82.5503C151.59 82.5553 151.573 82.5602 151.559 82.5642C151.546 82.5683 151.534 82.5721 151.525 82.5752C151.516 82.5783 151.508 82.581 151.502 82.5832C151.491 82.5872 151.482 82.5907 151.48 82.5913C151.478 82.592 151.479 82.5918 151.479 82.5916C151.48 82.5913 151.483 82.5904 151.486 82.5892C151.489 82.588 151.494 82.5861 151.501 82.5839C151.507 82.5816 151.516 82.5786 151.527 82.5752C151.538 82.5718 151.553 82.5674 151.571 82.5628C151.588 82.5582 151.612 82.5524 151.642 82.5471C151.657 82.5444 151.674 82.5416 151.694 82.5391C151.713 82.5366 151.736 82.5343 151.763 82.5328C151.788 82.5314 151.819 82.5307 151.854 82.5319C151.889 82.5332 151.931 82.5366 151.978 82.5442L151.656 84.5182C151.704 84.5259 151.746 84.5293 151.781 84.5306C151.817 84.5319 151.848 84.5312 151.875 84.5297C151.901 84.5282 151.925 84.5258 151.945 84.5233C151.965 84.5207 151.983 84.5178 151.999 84.5149C152.03 84.5094 152.055 84.5032 152.074 84.4983C152.094 84.4933 152.11 84.4884 152.123 84.4845C152.135 84.4806 152.146 84.477 152.154 84.4741C152.162 84.4713 152.169 84.4687 152.175 84.4669C152.18 84.465 152.184 84.4633 152.187 84.4623C152.189 84.4614 152.192 84.4605 152.192 84.4604C152.194 84.4595 152.189 84.4616 152.181 84.4643C152.177 84.4657 152.171 84.4679 152.164 84.4703C152.157 84.4728 152.147 84.476 152.135 84.4796C152.123 84.4831 152.108 84.4875 152.089 84.4921C152.071 84.4967 152.046 84.5022 152.016 84.5072C152.001 84.5097 151.984 84.5122 151.964 84.5144C151.945 84.5166 151.922 84.5185 151.897 84.5196C151.872 84.5207 151.842 84.521 151.809 84.5195C151.776 84.518 151.738 84.5146 151.695 84.5076L152.016 82.5336ZM151.978 82.5442C152.193 82.5792 152.392 82.684 152.542 82.8443C152.682 82.992 152.745 83.1491 152.775 83.2543C152.83 83.4486 152.812 83.609 152.8 83.6813L150.826 83.3599C150.813 83.4364 150.795 83.6018 150.851 83.8001C150.917 84.0333 151.144 84.4348 151.656 84.5182L151.978 82.5442ZM152.8 83.6813C152.796 83.7058 152.792 83.7258 152.788 83.7398C152.785 83.7541 152.782 83.7657 152.78 83.7735C152.778 83.7814 152.776 83.7876 152.775 83.7909C152.774 83.7941 152.774 83.7965 152.774 83.7959C152.774 83.7957 152.774 83.7957 152.774 83.7953C152.774 83.795 152.774 83.7946 152.774 83.794C152.775 83.793 152.775 83.7913 152.776 83.7893C152.777 83.7854 152.779 83.7783 152.781 83.7695C152.784 83.7609 152.787 83.7475 152.791 83.7312C152.793 83.7229 152.795 83.7129 152.798 83.7015C152.8 83.6903 152.803 83.6766 152.805 83.6611L150.831 83.3397C150.834 83.3248 150.836 83.3118 150.838 83.3013C150.84 83.2906 150.842 83.2813 150.844 83.2737C150.848 83.2589 150.851 83.2472 150.853 83.2402C150.855 83.2331 150.856 83.2277 150.857 83.2256C150.857 83.2245 150.857 83.2236 150.857 83.2235C150.858 83.2235 150.858 83.2234 150.857 83.2236C150.857 83.2237 150.857 83.2241 150.857 83.2244C150.857 83.2256 150.856 83.2298 150.854 83.2349C150.853 83.24 150.85 83.248 150.848 83.2577C150.845 83.2673 150.842 83.2807 150.838 83.2966C150.835 83.3123 150.83 83.334 150.826 83.3599L152.8 83.6813ZM152.805 83.6611C152.805 83.6611 152.805 83.6605 152.805 83.6599C152.805 83.6592 152.806 83.6581 152.806 83.6567C152.806 83.6541 152.807 83.65 152.808 83.6449C152.809 83.6351 152.811 83.6184 152.813 83.5975C152.817 83.5632 152.824 83.4783 152.811 83.3713C152.798 83.2667 152.756 83.0674 152.601 82.8724C152.428 82.6538 152.193 82.541 151.977 82.5058L151.655 84.4798C151.441 84.4449 151.207 84.3327 151.034 84.1151C150.88 83.9211 150.839 83.723 150.826 83.6199C150.805 83.4486 150.839 83.2937 150.831 83.3397L152.805 83.6611ZM151.977 82.5058C151.726 82.4649 151.527 82.5352 151.517 82.5383C151.46 82.5563 151.416 82.5757 151.396 82.5851C151.351 82.6054 151.317 82.6249 151.301 82.6344C151.265 82.656 151.233 82.6772 151.21 82.694C151.163 82.7277 151.103 82.775 151.042 82.8352L152.45 84.2555C152.42 84.2857 152.393 84.3064 152.373 84.3212C152.362 84.3286 152.343 84.3423 152.315 84.3587C152.303 84.3656 152.272 84.3832 152.231 84.4022C152.212 84.411 152.169 84.43 152.113 84.4477C152.084 84.4566 152.036 84.4702 151.975 84.4801C151.923 84.4884 151.804 84.5041 151.655 84.4798L151.977 82.5058ZM150.759 83.3846C150.787 83.212 150.865 83.0244 151.014 82.8643C151.158 82.7097 151.322 82.6304 151.448 82.5909C151.571 82.5528 151.676 82.5459 151.742 82.5456C151.778 82.5455 151.809 82.5473 151.836 82.5497C151.849 82.5509 151.862 82.5523 151.874 82.5538C151.879 82.5546 151.885 82.5554 151.891 82.5562C151.893 82.5566 151.896 82.557 151.899 82.5574C151.9 82.5576 151.901 82.5578 151.903 82.558C151.903 82.5581 151.904 82.5582 151.905 82.5583C151.905 82.5584 151.905 82.5584 151.906 82.5585C151.906 82.5586 151.907 82.5586 151.746 83.5456C151.585 84.5326 151.586 84.5327 151.586 84.5328C151.586 84.5328 151.587 84.5329 151.587 84.5329C151.588 84.533 151.588 84.5332 151.589 84.5333C151.59 84.5335 151.592 84.5337 151.593 84.5339C151.596 84.5343 151.598 84.5347 151.601 84.5351C151.607 84.5359 151.612 84.5367 151.618 84.5374C151.63 84.5389 151.642 84.5404 151.656 84.5416C151.682 84.544 151.714 84.5458 151.75 84.5456C151.816 84.5454 151.921 84.5385 152.044 84.5003C152.17 84.4608 152.334 84.3814 152.478 84.2268C152.627 84.0666 152.705 83.8789 152.733 83.7061L150.759 83.3846ZM151.907 82.5586C152.064 82.5843 152.281 82.6601 152.466 82.8521C152.656 83.0499 152.789 83.3574 152.732 83.7056L150.758 83.3841C150.629 84.174 151.321 84.4897 151.585 84.5326L151.907 82.5586ZM152.732 83.7056L152.732 83.7052L150.758 83.3838L150.758 83.3841L152.732 83.7056ZM152.692 83.8653C152.675 83.917 152.652 83.9643 152.627 84.0073C152.614 84.0289 152.6 84.0494 152.586 84.0692C152.579 84.0791 152.572 84.0888 152.564 84.0983C152.561 84.1031 152.557 84.1078 152.553 84.1125C152.551 84.1148 152.549 84.1172 152.547 84.1195C152.546 84.1207 152.545 84.1218 152.544 84.123C152.544 84.1236 152.543 84.1242 152.543 84.1247C152.543 84.125 152.542 84.1253 152.542 84.1256C152.542 84.1258 152.542 84.126 152.542 84.1261C152.542 84.1263 152.542 84.1265 151.777 83.4824C151.012 82.8384 151.011 82.8386 151.011 82.8388C151.011 82.8389 151.011 82.8391 151.011 82.8392C151.011 82.8395 151.01 82.8398 151.01 82.8401C151.01 82.8407 151.009 82.8413 151.009 82.8419C151.008 82.8431 151.007 82.8442 151.006 82.8455C151.004 82.8479 151.002 82.8503 151 82.8528C150.996 82.8579 150.991 82.8631 150.987 82.8685C150.979 82.8793 150.97 82.891 150.961 82.9035C150.943 82.9284 150.924 82.9568 150.905 82.9887C150.868 83.0524 150.829 83.1308 150.798 83.2237L152.692 83.8653ZM152.764 83.6431C152.863 83.0331 152.416 82.5701 151.935 82.4917L151.613 84.4657C151.135 84.3878 150.691 83.9279 150.79 83.3217L152.764 83.6431ZM151.935 82.4917C151.651 82.4455 151.433 82.5324 151.337 82.5787C151.232 82.6298 151.158 82.6884 151.12 82.7208C151.044 82.7865 150.994 82.8494 150.973 82.8763C150.926 82.9383 150.894 82.9948 150.876 83.0282C150.836 83.1023 150.803 83.1834 150.777 83.2676L152.691 83.8488C152.679 83.8861 152.663 83.9272 152.639 83.973C152.628 83.9923 152.603 84.0376 152.561 84.0921C152.544 84.1152 152.497 84.1753 152.422 84.2391C152.386 84.2705 152.313 84.3285 152.208 84.3792C152.113 84.425 151.896 84.5117 151.613 84.4657L151.935 82.4917ZM150.747 83.3975C150.76 83.3149 150.782 83.246 150.803 83.1934C150.813 83.1671 150.823 83.1443 150.832 83.1255C150.841 83.1067 150.85 83.0908 150.857 83.0784C150.863 83.066 150.869 83.0559 150.873 83.049C150.877 83.0422 150.881 83.0369 150.882 83.0347C150.883 83.0335 150.883 83.0326 150.883 83.0325C150.884 83.032 150.883 83.0327 150.883 83.0332C150.882 83.0345 150.88 83.0381 150.877 83.0429C150.865 83.0625 150.838 83.1091 150.811 83.1724C150.798 83.2043 150.785 83.2397 150.774 83.2783C150.762 83.317 150.753 83.3572 150.746 83.3987L152.72 83.7201C152.714 83.7615 152.704 83.8015 152.693 83.8401C152.682 83.8786 152.669 83.9138 152.656 83.9456C152.629 84.0087 152.602 84.055 152.59 84.0745C152.588 84.0792 152.585 84.0828 152.585 84.084C152.584 84.0845 152.584 84.0852 152.584 84.0847C152.584 84.0845 152.585 84.0836 152.586 84.0824C152.587 84.0801 152.59 84.0748 152.594 84.0679C152.598 84.061 152.604 84.0509 152.611 84.0385C152.618 84.0261 152.626 84.0101 152.635 83.9912C152.644 83.9723 152.655 83.9495 152.665 83.9232C152.686 83.8706 152.707 83.8016 152.721 83.7189L150.747 83.3975ZM151.733 83.5594C150.746 83.3987 150.746 83.3992 150.746 83.3997C150.746 83.3998 150.746 83.4003 150.746 83.4006C150.746 83.4013 150.746 83.4019 150.746 83.4026C150.746 83.4039 150.745 83.4052 150.745 83.4065C150.745 83.4092 150.744 83.4119 150.744 83.4146C150.743 83.4201 150.742 83.4258 150.742 83.4317C150.74 83.4434 150.739 83.456 150.737 83.4694C150.735 83.496 150.733 83.5276 150.733 83.5632C150.734 83.6296 150.741 83.7347 150.779 83.8572C150.818 83.9839 150.898 84.1479 151.052 84.2918C151.212 84.4408 151.4 84.5187 151.573 84.5468L151.894 82.5728C152.067 82.6009 152.255 82.6787 152.415 82.8276C152.569 82.9715 152.649 83.1354 152.688 83.2619C152.726 83.3843 152.733 83.4894 152.733 83.5557C152.733 83.5913 152.732 83.6229 152.729 83.6494C152.728 83.6629 152.727 83.6755 152.725 83.6872C152.724 83.693 152.724 83.6987 152.723 83.7042C152.722 83.707 152.722 83.7097 152.722 83.7123C152.721 83.7136 152.721 83.715 152.721 83.7163C152.721 83.7169 152.721 83.7176 152.721 83.7182C152.721 83.7185 152.721 83.719 152.721 83.7192C152.72 83.7197 152.72 83.7201 151.733 83.5594ZM150.747 83.3991C150.645 84.0249 151.111 84.4743 151.575 84.5498L151.897 82.5758C152.358 82.6509 152.822 83.0979 152.721 83.7205L150.747 83.3991ZM151.575 84.5498L151.576 84.5499L151.897 82.5759L151.897 82.5758L151.575 84.5498ZM151.576 84.5499C151.683 84.5673 151.863 84.5787 152.069 84.5062C152.287 84.4298 152.446 84.2906 152.55 84.1469L150.928 82.9765C151.031 82.8339 151.19 82.6955 151.406 82.6193C151.612 82.5472 151.791 82.5586 151.897 82.5759L151.576 84.5499ZM152.477 84.2364C152.435 84.2825 152.39 84.3196 152.343 84.349L151.275 82.6581C151.177 82.7199 151.084 82.7962 151.001 82.887L152.477 84.2364ZM152.393 84.3151C152.243 84.4231 152.07 84.485 151.893 84.4998C151.751 84.5117 151.631 84.4874 151.649 84.4904L151.971 82.5164C151.956 82.5139 151.582 82.4348 151.225 82.692L152.393 84.3151ZM151.649 84.4904C151.497 84.4656 151.209 84.379 150.999 84.088C150.79 83.797 150.799 83.4956 150.824 83.3438L152.798 83.6652C152.823 83.5127 152.832 83.2108 152.622 82.9195C152.413 82.6281 152.123 82.5412 151.971 82.5164L151.649 84.4904ZM150.86 83.1955C150.864 83.1828 150.855 83.2089 150.849 83.2295C150.842 83.2544 150.829 83.3003 150.82 83.3586L152.794 83.68C152.785 83.7329 152.774 83.7734 152.768 83.7933C152.765 83.804 152.762 83.8121 152.761 83.8155C152.761 83.8171 152.76 83.8183 152.76 83.8179C152.76 83.8178 152.76 83.8178 152.761 83.8177C152.761 83.8177 152.761 83.8176 152.761 83.8175C152.761 83.8173 152.761 83.817 152.761 83.8166C152.761 83.8159 152.761 83.8148 152.762 83.8134L150.86 83.1955ZM150.82 83.3586C150.793 83.5209 150.793 83.7798 150.947 84.0408C151.11 84.3167 151.38 84.4797 151.655 84.5246L151.977 82.5506C152.246 82.5945 152.51 82.7542 152.67 83.024C152.82 83.279 152.818 83.5293 152.794 83.68L150.82 83.3586ZM151.655 84.5246C151.726 84.5362 151.788 84.5385 151.838 84.5375C151.887 84.5366 151.93 84.5321 151.964 84.5271C151.998 84.5222 152.028 84.5161 152.051 84.5105C152.075 84.5049 152.096 84.4992 152.112 84.4942C152.129 84.4892 152.144 84.4844 152.156 84.4803C152.167 84.4762 152.177 84.4724 152.185 84.4694C152.201 84.4636 152.213 84.4586 152.216 84.4571C152.218 84.4567 152.219 84.4563 152.219 84.4561C152.22 84.4558 152.22 84.4559 152.219 84.4559C152.219 84.4559 152.217 84.4569 152.214 84.4581C152.211 84.4594 152.205 84.4616 152.198 84.4643C152.191 84.4669 152.181 84.4705 152.169 84.4747C152.157 84.4787 152.141 84.4841 152.121 84.4897C152.102 84.4952 152.075 84.5021 152.043 84.5084C152.026 84.5116 152.007 84.5149 151.986 84.5178C151.965 84.5206 151.94 84.5233 151.912 84.5249C151.885 84.5265 151.853 84.5273 151.817 84.526C151.781 84.5247 151.74 84.5212 151.694 84.5137L152.015 82.5397C151.969 82.5322 151.927 82.5287 151.89 82.5273C151.854 82.526 151.821 82.5268 151.793 82.5284C151.765 82.5301 151.74 82.5328 151.718 82.5358C151.696 82.5387 151.677 82.5421 151.659 82.5454C151.626 82.552 151.598 82.5593 151.577 82.5652C151.555 82.5712 151.537 82.577 151.524 82.5816C151.51 82.5863 151.499 82.5906 151.49 82.5938C151.481 82.5971 151.474 82.6 151.469 82.602C151.464 82.604 151.46 82.6056 151.458 82.6064C151.457 82.6068 151.456 82.6072 151.456 82.6074C151.455 82.6076 151.455 82.6076 151.456 82.6075C151.456 82.6074 151.458 82.6065 151.461 82.6052C151.464 82.604 151.469 82.602 151.475 82.5997C151.482 82.5974 151.49 82.5943 151.5 82.5908C151.51 82.5874 151.523 82.5831 151.538 82.5786C151.553 82.5741 151.571 82.5689 151.594 82.5636C151.616 82.5585 151.643 82.5527 151.676 82.548C151.708 82.5433 151.75 82.5389 151.798 82.5379C151.846 82.537 151.907 82.5393 151.977 82.5506L151.655 84.5246ZM151.694 84.5137C151.618 84.5013 151.551 84.4815 151.497 84.4606C151.442 84.4398 151.396 84.4167 151.359 84.3955C151.322 84.3743 151.291 84.3533 151.265 84.3348C151.24 84.3163 151.218 84.2988 151.201 84.2836C151.183 84.2683 151.168 84.2542 151.156 84.2419C151.143 84.2297 151.132 84.2184 151.123 84.2087C151.105 84.1896 151.091 84.173 151.082 84.1614C151.072 84.1494 151.064 84.1393 151.059 84.1323C151.053 84.1251 151.049 84.1192 151.046 84.1154C151.044 84.1115 151.041 84.1085 151.04 84.107C151.039 84.1056 151.039 84.1045 151.039 84.1049C151.039 84.1049 151.039 84.1053 151.039 84.1057C151.04 84.1061 151.04 84.1067 151.041 84.1075C151.042 84.109 151.043 84.1113 151.045 84.1139C151.049 84.1193 151.055 84.1268 151.061 84.1356C151.075 84.1533 151.094 84.1772 151.118 84.2041C151.166 84.2575 151.239 84.3281 151.341 84.3922C151.393 84.4244 151.451 84.4545 151.516 84.4796C151.582 84.5048 151.651 84.5239 151.723 84.5356L152.044 82.5616C152.111 82.5725 152.176 82.5903 152.237 82.6139C152.298 82.6374 152.352 82.6655 152.4 82.6956C152.496 82.7552 152.563 82.8207 152.607 82.8691C152.629 82.8935 152.646 82.9149 152.657 82.9303C152.668 82.9446 152.677 82.9568 152.675 82.9548C152.675 82.9548 152.674 82.9532 152.673 82.9514C152.671 82.9495 152.669 82.9461 152.666 82.9418C152.663 82.9377 152.658 82.9314 152.653 82.9239C152.647 82.9165 152.639 82.9061 152.629 82.8939C152.619 82.882 152.605 82.8652 152.587 82.8459C152.578 82.836 152.567 82.8247 152.554 82.8123C152.542 82.8 152.526 82.7857 152.509 82.7704C152.491 82.7552 152.469 82.7375 152.444 82.719C152.419 82.7005 152.387 82.6794 152.35 82.6581C152.313 82.6369 152.267 82.6138 152.212 82.5929C152.157 82.5719 152.091 82.5521 152.015 82.5397L151.694 84.5137ZM151.723 84.5356C151.872 84.5599 151.992 84.5446 152.036 84.5385C152.095 84.5301 152.145 84.518 152.185 84.5068C152.222 84.4963 152.274 84.4795 152.332 84.4532C152.357 84.4419 152.416 84.4146 152.484 84.3689C152.517 84.3471 152.581 84.3011 152.65 84.2288C152.701 84.1761 152.866 83.9954 152.915 83.6981L150.941 83.3766C150.989 83.0798 151.154 82.8995 151.204 82.8473C151.273 82.7756 151.337 82.7302 151.368 82.709C151.435 82.6645 151.491 82.6386 151.513 82.6287C151.565 82.6051 151.609 82.5913 151.636 82.5835C151.666 82.5749 151.707 82.5651 151.756 82.5581C151.79 82.5533 151.902 82.5384 152.044 82.5616L151.723 84.5356ZM151.914 83.5545L152.799 84.0191L152.875 83.8754L152.901 83.7153L151.914 83.5545ZM151.917 83.5524L151.996 82.5556L151.915 82.5491L151.833 82.5559L151.917 83.5524ZM151.948 83.5376L151.363 82.7261L151.334 82.7469L151.307 82.7698L151.948 83.5376ZM151.92 83.5463L151.759 84.5333L151.839 84.5463L151.919 84.5463L151.92 83.5463ZM151.92 83.5449L152.504 84.3565L152.59 84.2942L152.662 84.2151L151.92 83.5449ZM151.947 83.5355L152.108 82.5485L152.075 82.5432L152.042 82.54L151.947 83.5355ZM152.995 83.7112C153.094 83.1054 152.652 82.6388 152.166 82.5597L151.844 84.5337C151.569 84.4889 151.353 84.3376 151.215 84.1582C151.083 83.9864 150.968 83.7147 151.021 83.3897L152.995 83.7112ZM152.166 82.5597C152.114 82.5511 152.068 82.5479 152.03 82.547C151.993 82.546 151.96 82.5473 151.933 82.5493C151.88 82.5531 151.837 82.5604 151.808 82.5663C151.778 82.5724 151.752 82.5789 151.733 82.5842C151.714 82.5896 151.698 82.5949 151.685 82.5992C151.66 82.6077 151.64 82.6156 151.627 82.6208C151.613 82.6264 151.602 82.6313 151.594 82.635C151.578 82.642 151.566 82.6481 151.559 82.6515C151.552 82.6552 151.546 82.6583 151.542 82.6603C151.535 82.664 151.529 82.6672 151.527 82.668C151.526 82.6687 151.525 82.6693 151.524 82.6695C151.524 82.6698 151.523 82.67 151.523 82.67C151.522 82.6709 151.534 82.6642 151.552 82.6559C151.561 82.6516 151.575 82.6454 151.592 82.6384C151.609 82.6317 151.635 82.6223 151.667 82.6128C151.697 82.6038 151.746 82.5912 151.808 82.5831C151.839 82.579 151.879 82.5755 151.924 82.5751C151.969 82.5748 152.024 82.5775 152.087 82.5878L151.766 84.5618C151.832 84.5725 151.891 84.5755 151.94 84.5751C151.988 84.5747 152.031 84.5709 152.067 84.5663C152.136 84.5572 152.193 84.5427 152.232 84.5313C152.272 84.5194 152.306 84.5069 152.332 84.4967C152.358 84.4864 152.38 84.4764 152.397 84.4683C152.431 84.4525 152.458 84.438 152.468 84.4329C152.469 84.4323 152.47 84.4317 152.471 84.4314C152.472 84.4309 152.472 84.4309 152.472 84.4309C152.472 84.431 152.471 84.4314 152.469 84.4321C152.468 84.4327 152.466 84.434 152.463 84.4356C152.46 84.4372 152.454 84.4399 152.448 84.4433C152.441 84.4463 152.43 84.4521 152.414 84.459C152.406 84.4625 152.395 84.4674 152.382 84.4728C152.369 84.478 152.349 84.4858 152.324 84.4942C152.312 84.4986 152.295 84.5038 152.276 84.5091C152.258 84.5144 152.232 84.521 152.202 84.5271C152.173 84.5329 152.13 84.5403 152.077 84.5441C152.05 84.546 152.017 84.5473 151.98 84.5463C151.943 84.5454 151.897 84.5422 151.844 84.5337L152.166 82.5597ZM152.087 82.5878C152.226 82.6103 152.455 82.6802 152.65 82.8904C152.873 83.1322 152.944 83.4455 152.9 83.719L150.926 83.3976C150.88 83.6804 150.953 84.0011 151.181 84.2485C151.381 84.4643 151.618 84.5377 151.766 84.5618L152.087 82.5878ZM152.9 83.719C152.888 83.7926 152.87 83.8505 152.857 83.8861C152.844 83.9223 152.826 83.9682 152.799 84.0191L151.028 83.0899C150.987 83.1688 150.946 83.2726 150.926 83.3976L152.9 83.719ZM152.901 83.7153C152.844 84.0672 152.624 84.2838 152.463 84.3892C152.306 84.4923 152.142 84.537 152 84.5489L151.833 82.5559C151.69 82.5679 151.525 82.6131 151.366 82.7168C151.205 82.823 150.984 83.0406 150.927 83.3938L152.901 83.7153ZM151.837 84.5492C152.044 84.5657 152.228 84.5194 152.371 84.4513C152.444 84.417 152.535 84.3636 152.626 84.2812C152.686 84.2261 152.888 84.0324 152.943 83.6968L150.969 83.3753C151.023 83.0432 151.223 82.8535 151.279 82.8024C151.365 82.7239 151.45 82.6745 151.516 82.6436C151.645 82.5824 151.81 82.5407 151.996 82.5556L151.837 84.5492ZM152.943 83.6968C153.064 82.955 152.443 82.5963 152.109 82.5419L151.788 84.5159C151.466 84.4634 150.849 84.112 150.969 83.3753L152.943 83.6968ZM152.109 82.5419C151.824 82.4955 151.566 82.5733 151.376 82.6971C151.186 82.821 150.976 83.0521 150.92 83.3959L152.894 83.7174C152.841 84.0432 152.642 84.2589 152.468 84.3727C152.293 84.4864 152.054 84.5592 151.788 84.5159L152.109 82.5419ZM150.92 83.3959C150.883 83.6215 150.917 83.9023 151.095 84.1523C151.277 84.4083 151.538 84.5312 151.765 84.5681L152.086 82.5941C152.298 82.6287 152.549 82.7452 152.725 82.9924C152.896 83.2336 152.928 83.5033 152.894 83.7174L150.92 83.3959ZM151.765 84.5681C151.987 84.6043 152.164 84.5566 152.214 84.5429C152.289 84.5222 152.35 84.497 152.387 84.4801C152.427 84.4621 152.466 84.4423 152.501 84.4216C152.517 84.4123 152.546 84.3953 152.579 84.3721C152.593 84.3625 152.628 84.3374 152.669 84.3011C152.688 84.2843 152.73 84.2463 152.776 84.1913C152.789 84.175 152.949 83.9967 152.995 83.7112L151.021 83.3897C151.048 83.2247 151.11 83.1059 151.143 83.049C151.18 82.9852 151.217 82.9381 151.24 82.9103C151.286 82.8556 151.327 82.8179 151.346 82.8015C151.386 82.766 151.42 82.7419 151.432 82.7334C151.462 82.7125 151.486 82.6985 151.496 82.6925C151.52 82.6785 151.543 82.667 151.565 82.6569C151.585 82.6478 151.627 82.6299 151.685 82.6141C151.717 82.6053 151.877 82.5601 152.086 82.5941L151.765 84.5681ZM151.307 82.7698C151.413 82.681 151.52 82.63 151.604 82.6003C151.696 82.568 151.803 82.5463 151.921 82.5463L151.919 84.5463C152.153 84.5465 152.394 84.4676 152.588 84.3055L151.307 82.7698ZM152.081 82.5593C152.225 82.5828 152.331 82.6325 152.384 82.6607C152.448 82.694 152.509 82.7346 152.565 82.7824C152.617 82.8264 152.698 82.904 152.77 83.0208C152.836 83.1266 152.96 83.3749 152.906 83.7063L150.932 83.3848C150.878 83.7163 151.003 83.9648 151.068 84.0707C151.14 84.1878 151.222 84.2655 151.274 84.3097C151.353 84.3766 151.517 84.4938 151.759 84.5333L152.081 82.5593ZM152.906 83.7063C152.909 83.6879 152.901 83.7445 152.885 83.8035C152.863 83.8891 152.818 84.0082 152.73 84.1304C152.653 84.2371 152.573 84.3028 152.546 84.3248C152.52 84.3451 152.495 84.3628 152.504 84.3565L151.335 82.7334C151.335 82.7334 151.335 82.7334 151.335 82.7334C151.335 82.7334 151.335 82.7334 151.335 82.7335C151.335 82.7335 151.335 82.7336 151.335 82.7337C151.335 82.7339 151.334 82.7343 151.334 82.7347C151.332 82.7356 151.33 82.7373 151.327 82.7394C151.322 82.743 151.309 82.7525 151.293 82.7654C151.266 82.7875 151.186 82.8533 151.108 82.9601C151.02 83.0824 150.976 83.2015 150.953 83.2872C150.944 83.3235 150.938 83.3525 150.936 83.365C150.934 83.372 150.933 83.3776 150.933 83.3804C150.933 83.3819 150.933 83.3831 150.932 83.3838C150.932 83.3841 150.932 83.3844 150.932 83.3845C150.932 83.3846 150.932 83.3847 150.932 83.3847C150.932 83.3848 150.932 83.3848 150.932 83.3848C150.932 83.3848 150.932 83.3848 150.932 83.3848C150.932 83.3848 150.932 83.3848 150.932 83.3848L152.906 83.7063ZM152.662 84.2151C152.544 84.3453 152.391 84.444 152.216 84.4957C152.055 84.5431 151.921 84.5376 151.852 84.531L152.042 82.54C151.852 82.522 151.474 82.5463 151.177 82.8748L152.662 84.2151ZM151.786 84.5225C151.466 84.4703 151.252 84.2811 151.136 84.1203C151.02 83.9596 150.909 83.697 150.961 83.3763L152.935 83.6978C152.987 83.3764 152.875 83.1132 152.759 82.9518C152.643 82.7905 152.429 82.6009 152.108 82.5485L151.786 84.5225ZM151.948 83.537C150.961 83.3763 150.961 83.3758 150.961 83.3753C150.961 83.3752 150.961 83.3747 150.961 83.3744C150.961 83.3737 150.962 83.3731 150.962 83.3724C150.962 83.3711 150.962 83.3698 150.962 83.3685C150.963 83.3659 150.963 83.3633 150.964 83.3607C150.965 83.3554 150.966 83.35 150.967 83.3446C150.969 83.3337 150.971 83.3225 150.974 83.311C150.979 83.2881 150.986 83.2638 150.994 83.2384C151.009 83.1878 151.032 83.1315 151.062 83.0726C151.126 82.9517 151.223 82.8269 151.363 82.7261L152.532 84.3492C152.672 84.2481 152.77 84.123 152.833 84.0018C152.864 83.9428 152.886 83.8865 152.902 83.8358C152.91 83.8104 152.917 83.786 152.922 83.7631C152.925 83.7516 152.927 83.7404 152.929 83.7295C152.93 83.7241 152.931 83.7187 152.932 83.7134C152.933 83.7108 152.933 83.7081 152.934 83.7055C152.934 83.7042 152.934 83.7029 152.934 83.7016C152.934 83.701 152.935 83.7003 152.935 83.6997C152.935 83.6994 152.935 83.6989 152.935 83.6987C152.935 83.6982 152.935 83.6978 151.948 83.537ZM152.078 83.4475L152.748 84.1903L152.827 84.119L152.889 84.0327L152.078 83.4475ZM153.072 83.724C153.17 83.1182 152.729 82.6516 152.243 82.5725L151.921 84.5465C151.646 84.5017 151.43 84.3504 151.292 84.171C151.16 83.9992 151.045 83.7276 151.098 83.4025L153.072 83.724ZM152.243 82.5725C152.168 82.5604 152.105 82.5586 152.057 82.5598C152.008 82.561 151.967 82.5656 151.935 82.5703C151.873 82.5795 151.824 82.5928 151.794 82.6018C151.762 82.6114 151.736 82.6209 151.718 82.628C151.699 82.6354 151.683 82.6422 151.671 82.6476C151.648 82.6581 151.629 82.6676 151.618 82.6736C151.606 82.6799 151.595 82.6855 151.588 82.6896C151.574 82.6975 151.563 82.7042 151.557 82.7079C151.55 82.7121 151.545 82.7156 151.541 82.718C151.534 82.7226 151.528 82.7266 151.525 82.7285C151.522 82.7306 151.519 82.7327 151.517 82.7338C151.508 82.7396 151.51 82.7384 151.513 82.7365C151.515 82.7351 151.52 82.7317 151.528 82.7271C151.536 82.7229 151.551 82.7142 151.572 82.7038C151.583 82.6984 151.598 82.6912 151.616 82.6832C151.634 82.6755 151.66 82.6648 151.693 82.6539C151.71 82.6483 151.73 82.6421 151.754 82.6359C151.777 82.6298 151.807 82.6232 151.841 82.6175C151.875 82.612 151.918 82.6067 151.969 82.605C152.019 82.6034 152.085 82.6051 152.16 82.6174L151.839 84.5914C151.915 84.6039 151.982 84.6057 152.033 84.604C152.085 84.6023 152.13 84.5969 152.165 84.5911C152.201 84.5853 152.231 84.5783 152.256 84.5718C152.281 84.5653 152.303 84.5586 152.322 84.5525C152.358 84.5405 152.388 84.5284 152.409 84.5191C152.432 84.5095 152.451 84.5005 152.465 84.493C152.495 84.4785 152.519 84.4648 152.535 84.4553C152.552 84.4453 152.567 84.4362 152.578 84.4291C152.6 84.4155 152.619 84.4026 152.624 84.3997C152.625 84.3986 152.625 84.3986 152.625 84.3989C152.624 84.3991 152.621 84.4015 152.616 84.4049C152.613 84.4066 152.608 84.4096 152.602 84.4132C152.597 84.4165 152.586 84.4228 152.573 84.4303C152.566 84.4342 152.556 84.4397 152.544 84.4459C152.533 84.4518 152.515 84.4611 152.492 84.4716C152.48 84.4769 152.464 84.4837 152.445 84.491C152.427 84.4981 152.401 84.5077 152.369 84.5172C152.34 84.5262 152.29 84.5395 152.228 84.5487C152.196 84.5534 152.155 84.558 152.107 84.5592C152.059 84.5604 151.995 84.5585 151.921 84.5465L152.243 82.5725ZM152.16 82.6174C152.56 82.6825 152.789 82.9541 152.889 83.1494C152.973 83.3163 152.988 83.4639 152.993 83.5177C153.002 83.637 152.987 83.7288 152.984 83.7495L151.01 83.4281C151.005 83.4536 150.989 83.5528 150.999 83.6785C151.004 83.7355 151.02 83.8861 151.105 84.0552C151.206 84.2528 151.437 84.5259 151.839 84.5914L152.16 82.6174ZM152.984 83.7495C152.967 83.8516 152.938 83.9223 152.931 83.9382C152.92 83.9666 152.908 83.9885 152.899 84.005C152.89 84.0217 152.877 84.0434 152.858 84.0689C152.842 84.0907 152.806 84.1376 152.748 84.1903L151.409 82.7048C151.271 82.8286 151.189 82.9653 151.151 83.0328C151.122 83.085 151.041 83.2357 151.01 83.4281L152.984 83.7495ZM152.889 84.0327C152.889 84.0327 152.889 84.0326 152.889 84.0326C152.889 84.0325 152.889 84.0324 152.889 84.0323C152.89 84.0321 152.89 84.0317 152.89 84.0313C152.891 84.0304 152.892 84.0291 152.893 84.0274C152.895 84.024 152.899 84.0185 152.904 84.0115C152.913 83.9982 152.929 83.9745 152.947 83.9437C152.98 83.8858 153.04 83.7684 153.066 83.6064L151.092 83.285C151.118 83.1236 151.178 83.0068 151.211 82.9496C151.242 82.8962 151.274 82.8535 151.267 82.8624L152.889 84.0327ZM153.066 83.6064C153.145 83.1204 152.843 82.5533 152.237 82.4546L151.916 84.4286C151.591 84.3757 151.37 84.1808 151.249 84.0008C151.122 83.8129 151.047 83.56 151.092 83.285L153.066 83.6064ZM152.237 82.4546C152.01 82.4176 151.83 82.4683 151.747 82.4973C151.654 82.5295 151.586 82.5687 151.548 82.5921C151.472 82.6389 151.42 82.6856 151.398 82.7057C151.348 82.7507 151.312 82.7922 151.296 82.812C151.257 82.8582 151.223 82.9051 151.196 82.9465C151.168 82.9898 151.044 83.1769 151.003 83.4267L152.977 83.7481C152.957 83.8694 152.918 83.9515 152.908 83.9728C152.893 84.005 152.879 84.0271 152.871 84.0398C152.863 84.0516 152.849 84.0723 152.826 84.1C152.817 84.1106 152.788 84.1447 152.744 84.1848C152.725 84.2024 152.674 84.2472 152.601 84.2927C152.564 84.3156 152.496 84.3543 152.404 84.3863C152.322 84.415 152.143 84.4656 151.916 84.4286L152.237 82.4546ZM151.003 83.4267C150.995 83.4764 150.969 83.6444 151.021 83.849C151.05 83.9622 151.114 84.1321 151.262 84.2905C151.423 84.4618 151.629 84.5634 151.838 84.5975L152.159 82.6235C152.364 82.6568 152.566 82.7564 152.724 82.9248C152.869 83.0803 152.932 83.2463 152.959 83.3553C153.009 83.5511 152.984 83.7084 152.977 83.7481L151.003 83.4267ZM151.838 84.5975C152.069 84.6352 152.251 84.58 152.289 84.5689C152.357 84.5489 152.41 84.5257 152.438 84.5128C152.496 84.4858 152.543 84.4581 152.569 84.4427C152.597 84.4251 152.625 84.4067 152.651 84.3889C152.662 84.3809 152.682 84.3664 152.705 84.3478C152.715 84.3403 152.74 84.3197 152.771 84.2912C152.784 84.2785 152.817 84.2468 152.854 84.202C152.873 84.1799 152.906 84.1382 152.94 84.0812C152.966 84.0389 153.042 83.9099 153.072 83.724L151.098 83.4025C151.128 83.2167 151.204 83.0878 151.229 83.0457C151.264 82.9888 151.297 82.9473 151.315 82.9253C151.352 82.8808 151.384 82.8496 151.397 82.8374C151.426 82.8099 151.45 82.7906 151.458 82.7846C151.477 82.7692 151.492 82.7589 151.496 82.7557C151.508 82.7474 151.518 82.7411 151.527 82.7353C151.533 82.7317 151.56 82.7154 151.6 82.6967C151.62 82.6878 151.664 82.6679 151.725 82.6499C151.756 82.6409 151.932 82.5865 152.159 82.6235L151.838 84.5975Z" fill="#03224C"/>
<path fill-rule="evenodd" clip-rule="evenodd" d="M26.9657 132.334V76.3054C26.9657 68.5033 25.3346 65.5519 20.4828 58.5081C16.7057 53.0247 16.9064 41.5186 17.3128 36.5596C17.7666 36.5996 18.6895 36.2042 18.7509 34.3022C18.8122 32.4001 17.8177 31.8222 17.3128 31.771H13.7657V31.771H10.653C10.148 31.8222 9.1535 32.4001 9.21486 34.3022C9.27621 36.2042 10.1992 36.5996 10.653 36.5596C11.0594 41.5186 11.26 53.0247 7.48295 58.5081C2.63107 65.5519 1 68.5033 1 76.3054V132.334L13.7657 132.334L14.2 132.334L26.9657 132.334Z" fill="#E2EFF2"/>
<path d="M26.9657 132.334V132.834H27.4657V132.334H26.9657ZM20.4828 58.5081L20.8945 58.2245L20.4828 58.5081ZM17.3128 36.5596L17.3567 36.0615L16.8555 36.0173L16.8144 36.5188L17.3128 36.5596ZM18.7509 34.3022L19.2506 34.3183L18.7509 34.3022ZM17.3128 31.771L17.3632 31.2735L17.3381 31.271H17.3128V31.771ZM13.7657 31.771V31.271H13.2657V31.771H13.7657ZM13.7657 31.771V32.271H14.2657V31.771H13.7657ZM10.653 31.771V31.271H10.6277L10.6025 31.2736L10.653 31.771ZM9.21486 34.3022L8.71512 34.3183V34.3183L9.21486 34.3022ZM10.653 36.5596L11.1513 36.5188L11.1102 36.0173L10.609 36.0615L10.653 36.5596ZM7.48295 58.5081L7.07118 58.2245L7.48295 58.5081ZM1 132.334H0.5V132.834H1L1 132.334ZM13.7657 132.334L13.7657 131.834H13.7657V132.334ZM14.2 132.334L14.2 132.834H14.2V132.334ZM26.4657 76.3054V132.334H27.4657V76.3054H26.4657ZM20.071 58.7918C22.5001 62.3183 24.0878 64.7724 25.078 67.3045C26.0621 69.8208 26.4657 72.4419 26.4657 76.3054H27.4657C27.4657 72.3667 27.0538 69.6112 26.0094 66.9403C24.9711 64.2853 23.3173 61.7418 20.8945 58.2245L20.071 58.7918ZM16.8144 36.5188C16.6096 39.0176 16.4566 43.1636 16.8309 47.3814C17.2034 51.5777 18.1046 55.937 20.071 58.7918L20.8945 58.2245C19.0838 55.5958 18.1969 51.4604 17.827 47.293C17.459 43.1472 17.6095 39.0606 17.8111 36.6004L16.8144 36.5188ZM18.2511 34.286C18.2229 35.1622 17.9988 35.6095 17.8055 35.8267C17.6123 36.0438 17.4214 36.0672 17.3567 36.0615L17.2688 37.0577C17.658 37.092 18.1554 36.9377 18.5525 36.4916C18.9494 36.0455 19.2175 35.3441 19.2506 34.3183L18.2511 34.286ZM17.2623 32.2684C17.4575 32.2882 18.3057 32.5953 18.2511 34.286L19.2506 34.3183C19.3188 32.205 18.1778 31.3562 17.3632 31.2735L17.2623 32.2684ZM13.7657 32.271H17.3128V31.271H13.7657V32.271ZM14.2657 31.771V31.771H13.2657V31.771H14.2657ZM13.7657 31.271H10.653V32.271H13.7657V31.271ZM10.6025 31.2736C9.78787 31.3562 8.64694 32.205 8.71512 34.3183L9.71459 34.286C9.66005 32.5953 10.5082 32.2883 10.7034 32.2685L10.6025 31.2736ZM8.71512 34.3183C8.74821 35.3442 9.01628 36.0455 9.41324 36.4916C9.8103 36.9377 10.3078 37.092 10.6969 37.0577L10.609 36.0615C10.5443 36.0672 10.3534 36.0438 10.1602 35.8267C9.96694 35.6096 9.74286 35.1622 9.71459 34.286L8.71512 34.3183ZM10.1546 36.6004C10.3562 39.0606 10.5067 43.1472 10.1387 47.293C9.76883 51.4604 8.88188 55.5958 7.07118 58.2245L7.89471 58.7918C9.86108 55.9371 10.7623 51.5777 11.1348 47.3814C11.5092 43.1636 11.3561 39.0176 11.1513 36.5188L10.1546 36.6004ZM7.07118 58.2245C4.64842 61.7418 2.99464 64.2853 1.95636 66.9403C0.911882 69.6112 0.5 72.3667 0.5 76.3054H1.5C1.5 72.4419 1.90365 69.8208 2.88768 67.3045C3.8779 64.7724 5.4656 62.3183 7.89471 58.7918L7.07118 58.2245ZM0.5 76.3054V132.334H1.5V76.3054H0.5ZM1 132.834L13.7657 132.834V131.834L1 131.834L1 132.834ZM13.7657 132.834L14.2 132.834L14.2 131.834L13.7657 131.834L13.7657 132.834ZM26.9657 131.834L14.2 131.834V132.834L26.9657 132.834V131.834Z" fill="#03224C"/>
<ellipse cx="13.979" cy="131.773" rx="12.1519" ry="3.6069" fill="white"/>
<rect x="9.86655" y="31.771" width="8.16308" height="4.85456" rx="1" fill="#FE3945"/>
<path d="M23.0809 92.1187C17.5425 94.2133 8.2828 92.995 4.1954 92.0929C4.13283 92.0791 4.07663 92.1273 4.07663 92.1914V107.581C4.07663 107.621 4.10076 107.658 4.13786 107.673C11.081 110.572 19.6557 108.895 23.1522 107.67C23.1921 107.656 23.2166 107.619 23.2166 107.577V92.2131C23.2166 92.1426 23.1469 92.0938 23.0809 92.1187Z" fill="white"/>
<path d="M14.9566 129.218L4.07663 162.63L63.1005 166.132L73.0654 132.666L14.9566 129.218Z" fill="#FAFAFA" stroke="#03224C"/>
<path d="M29.9953 137.135C29.9089 137.135 29.8226 137.205 29.8226 137.311C29.8226 137.311 30.0989 138.72 30.0989 140.498C30.0989 146.38 27.6636 150.413 26.7137 150.413C25.7464 150.413 25.6601 148.758 25.6601 147.772C25.6601 146.116 26.0573 143.598 26.0573 143.598C26.0573 143.492 25.971 143.404 25.8846 143.404C25.8846 143.404 20.1331 154.094 18.0605 154.094C17.456 154.094 17.3869 153.249 17.3869 152.65C17.3869 152.086 17.4905 151.488 17.5769 150.959C18.4578 146.152 20.8067 141.802 21.5494 141.802C21.8258 141.802 22.3094 142.929 22.3094 144.073C22.3094 144.197 22.2921 144.32 22.2921 144.32C22.2921 144.426 22.3785 144.478 22.4648 144.478C22.5512 144.478 22.6375 144.426 22.6375 144.32V144.073C22.6375 143.07 22.223 141.467 21.5494 141.467C20.0122 141.467 17.0587 149.445 17.0587 152.65C17.0587 153.495 17.2142 154.429 18.0605 154.429C19.9777 154.429 23.812 147.772 25.4701 144.743C25.4701 144.725 25.4874 144.707 25.5046 144.707C25.5392 144.707 25.5565 144.725 25.5565 144.76V144.778C25.4183 145.799 25.3147 146.821 25.3147 147.86C25.3147 149.022 25.5046 150.748 26.6619 150.748C28.2336 150.748 30.4444 145.588 30.4444 140.498C30.4444 140.129 30.3407 137.135 29.9953 137.135Z" fill="#03224C"/>
<path d="M35.4153 146.944C35.4153 146.856 35.3289 146.768 35.2253 146.768C35.1216 146.768 32.7036 148.952 31.3564 148.952C30.8555 148.952 30.4755 148.705 30.4755 148.194C30.4755 148.124 30.4928 148.036 30.5101 147.983C30.5101 147.913 30.5792 147.86 30.6483 147.842C31.7018 147.754 32.5654 147.014 32.5654 146.627C32.5654 146.486 32.4273 146.31 32.0991 146.31C31.1146 146.31 30.1474 147.173 30.1474 148.159C30.1474 148.793 30.5619 149.304 31.3391 149.304C32.7381 149.304 35.4153 147.103 35.4153 146.944ZM32.1336 146.786C31.9091 147.05 31.4082 147.384 30.7692 147.49C30.7519 147.49 30.7173 147.472 30.7173 147.455C30.7173 147.437 30.7173 147.437 30.7346 147.42C31.0801 146.874 31.5637 146.715 32.0818 146.68C32.1164 146.68 32.1509 146.715 32.1509 146.75C32.1509 146.75 32.1509 146.768 32.1336 146.786Z" fill="#03224C"/>
<path d="M39.5436 146.962C39.5436 146.874 39.4573 146.786 39.3536 146.786C39.25 146.786 36.2447 149.903 35.4329 149.903C35.1739 149.903 35.1393 149.357 35.1393 149.093C35.1393 147.349 36.5383 142.964 38.2137 140.833C38.231 140.798 38.2482 140.763 38.2482 140.727C38.2482 140.622 38.1619 140.534 38.0755 140.534C37.6092 140.534 34.7939 146.028 34.7939 149.075C34.7939 149.621 34.9148 150.237 35.4329 150.237C36.3483 150.237 39.5436 147.12 39.5436 146.962Z" fill="#03224C"/>
<path d="M44.2625 146.944C44.2625 146.856 44.1761 146.768 44.0897 146.768C44.0552 146.768 44.0034 146.786 43.9688 146.821C43.4507 147.279 41.9999 148.335 40.7563 148.335C39.8754 148.335 39.4955 147.842 39.4955 147.384C39.4955 146.786 40.0654 146.398 40.6354 146.398C40.739 146.398 40.8427 146.416 40.929 146.433C40.8945 146.486 40.8772 146.539 40.8772 146.574C40.8772 146.662 40.9636 146.75 41.0499 146.75C41.1708 146.75 41.2744 146.539 41.2744 146.398C41.2744 146.134 40.9808 146.046 40.7218 146.046C39.9272 146.046 39.1673 146.574 39.1673 147.384C39.1673 148.054 39.72 148.688 40.7563 148.688C42.2589 148.688 44.2625 147.173 44.2625 146.944Z" fill="#03224C"/>
<path d="M45.8253 146.715C45.8253 146.134 45.3935 145.923 45.0999 145.923C44.8408 145.923 44.599 146.099 44.599 146.24C44.599 146.328 44.6854 146.416 44.7717 146.416C44.8926 146.416 44.8926 146.257 45.0999 146.257C45.238 146.257 45.4799 146.363 45.4799 146.715C45.4799 147.367 44.7199 148.423 44.1327 148.423C43.9254 148.423 43.8563 148.247 43.8563 148.054C43.8563 147.754 43.9772 147.349 44.2708 146.962C44.2881 146.926 44.3054 146.891 44.3054 146.856C44.3054 146.75 44.219 146.662 44.1327 146.662C43.9772 146.662 43.5109 147.455 43.5109 148.001C43.5109 148.423 43.7009 148.758 44.1327 148.758C44.9962 148.758 45.8253 147.49 45.8253 146.715Z" fill="#03224C"/>
<path d="M55.9706 146.944C55.9706 146.856 55.9015 146.768 55.8151 146.768C55.7806 146.768 55.7633 146.768 55.7288 146.786C55.1933 147.12 54.3643 147.578 53.7252 147.578C52.6026 147.578 52.568 146.68 52.0326 146.68C51.6181 146.68 50.4954 147.578 50.1154 147.578C49.8736 147.578 49.8045 147.279 49.8045 147.05C49.8045 146.715 49.9082 146.204 49.9082 145.923C49.9082 145.746 49.9082 145.535 49.7355 145.535C49.5455 145.535 47.8528 147.085 46.5229 148.952C46.5229 148.969 46.5056 148.969 46.5056 148.969C46.4711 148.969 46.4538 148.952 46.4538 148.934V148.916C46.8338 146.592 47.5765 145.324 47.5765 145.324C47.5765 145.218 47.4901 145.148 47.4038 145.148C47.1274 145.148 46.3329 147.12 45.9875 149.744C45.9875 149.762 45.9702 149.779 45.9702 149.815C45.9702 149.815 45.9702 149.832 45.9875 149.832C45.9875 149.92 46.0566 149.973 46.1257 149.973H46.1602C46.212 149.973 46.2638 149.956 46.2984 149.885C47.1792 148.511 48.2501 147.261 49.4591 146.169C49.4764 146.152 49.4936 146.152 49.5109 146.152C49.5455 146.152 49.5627 146.169 49.5627 146.204C49.5282 146.433 49.4764 146.733 49.4764 147.032C49.4764 147.666 49.7873 147.93 50.1154 147.93C50.6336 147.93 51.6353 147.014 52.0326 147.014C52.1535 147.014 52.6717 147.93 53.7425 147.93C54.4852 147.93 55.9706 147.138 55.9706 146.944Z" fill="#03224C"/>
<path d="M60.294 146.944C60.294 146.856 60.2077 146.768 60.104 146.768C60.0004 146.768 57.5824 148.952 56.2352 148.952C55.7343 148.952 55.3543 148.705 55.3543 148.194C55.3543 148.124 55.3716 148.036 55.3889 147.983C55.3889 147.913 55.4579 147.86 55.527 147.842C56.5806 147.754 57.4442 147.014 57.4442 146.627C57.4442 146.486 57.306 146.31 56.9779 146.31C55.9934 146.31 55.0261 147.173 55.0261 148.159C55.0261 148.793 55.4407 149.304 56.2179 149.304C57.6169 149.304 60.294 147.103 60.294 146.944ZM57.0124 146.786C56.7879 147.05 56.287 147.384 55.6479 147.49C55.6307 147.49 55.5961 147.472 55.5961 147.455C55.5961 147.437 55.5961 147.437 55.6134 147.42C55.9588 146.874 56.4424 146.715 56.9606 146.68C56.9951 146.68 57.0297 146.715 57.0297 146.75C57.0297 146.75 57.0297 146.768 57.0124 146.786Z" fill="#03224C"/>
<path d="M29.9953 137.135C29.9089 137.135 29.8226 137.205 29.8226 137.311C29.8226 137.311 30.0989 138.72 30.0989 140.498C30.0989 146.38 27.6636 150.413 26.7137 150.413C25.7464 150.413 25.6601 148.758 25.6601 147.772C25.6601 146.116 26.0573 143.598 26.0573 143.598C26.0573 143.492 25.971 143.404 25.8846 143.404C25.8846 143.404 20.1331 154.094 18.0605 154.094C17.456 154.094 17.3869 153.249 17.3869 152.65C17.3869 152.086 17.4905 151.488 17.5769 150.959C18.4578 146.152 20.8067 141.802 21.5494 141.802C21.8258 141.802 22.3094 142.929 22.3094 144.073C22.3094 144.197 22.2921 144.32 22.2921 144.32C22.2921 144.426 22.3785 144.478 22.4648 144.478C22.5512 144.478 22.6375 144.426 22.6375 144.32V144.073C22.6375 143.07 22.223 141.467 21.5494 141.467C20.0122 141.467 17.0587 149.445 17.0587 152.65C17.0587 153.495 17.2142 154.429 18.0605 154.429C19.9777 154.429 23.812 147.772 25.4701 144.743C25.4701 144.725 25.4874 144.707 25.5046 144.707C25.5392 144.707 25.5565 144.725 25.5565 144.76V144.778C25.4183 145.799 25.3147 146.821 25.3147 147.86C25.3147 149.022 25.5046 150.748 26.6619 150.748C28.2336 150.748 30.4444 145.588 30.4444 140.498C30.4444 140.129 30.3407 137.135 29.9953 137.135Z" stroke="#03224C" stroke-width="0.6"/>
<path d="M35.4153 146.944C35.4153 146.856 35.3289 146.768 35.2253 146.768C35.1216 146.768 32.7036 148.952 31.3564 148.952C30.8555 148.952 30.4755 148.705 30.4755 148.194C30.4755 148.124 30.4928 148.036 30.5101 147.983C30.5101 147.913 30.5792 147.86 30.6483 147.842C31.7018 147.754 32.5654 147.014 32.5654 146.627C32.5654 146.486 32.4273 146.31 32.0991 146.31C31.1146 146.31 30.1474 147.173 30.1474 148.159C30.1474 148.793 30.5619 149.304 31.3391 149.304C32.7381 149.304 35.4153 147.103 35.4153 146.944ZM32.1336 146.786C31.9091 147.05 31.4082 147.384 30.7692 147.49C30.7519 147.49 30.7173 147.472 30.7173 147.455C30.7173 147.437 30.7173 147.437 30.7346 147.42C31.0801 146.874 31.5637 146.715 32.0818 146.68C32.1164 146.68 32.1509 146.715 32.1509 146.75C32.1509 146.75 32.1509 146.768 32.1336 146.786Z" stroke="#03224C" stroke-width="0.6"/>
<path d="M39.5436 146.962C39.5436 146.874 39.4573 146.786 39.3536 146.786C39.25 146.786 36.2447 149.903 35.4329 149.903C35.1739 149.903 35.1393 149.357 35.1393 149.093C35.1393 147.349 36.5383 142.964 38.2137 140.833C38.231 140.798 38.2482 140.763 38.2482 140.727C38.2482 140.622 38.1619 140.534 38.0755 140.534C37.6092 140.534 34.7939 146.028 34.7939 149.075C34.7939 149.621 34.9148 150.237 35.4329 150.237C36.3483 150.237 39.5436 147.12 39.5436 146.962Z" stroke="#03224C" stroke-width="0.6"/>
<path d="M44.2625 146.944C44.2625 146.856 44.1761 146.768 44.0897 146.768C44.0552 146.768 44.0034 146.786 43.9688 146.821C43.4507 147.279 41.9999 148.335 40.7563 148.335C39.8754 148.335 39.4955 147.842 39.4955 147.384C39.4955 146.786 40.0654 146.398 40.6354 146.398C40.739 146.398 40.8427 146.416 40.929 146.433C40.8945 146.486 40.8772 146.539 40.8772 146.574C40.8772 146.662 40.9636 146.75 41.0499 146.75C41.1708 146.75 41.2744 146.539 41.2744 146.398C41.2744 146.134 40.9808 146.046 40.7218 146.046C39.9272 146.046 39.1673 146.574 39.1673 147.384C39.1673 148.054 39.72 148.688 40.7563 148.688C42.2589 148.688 44.2625 147.173 44.2625 146.944Z" stroke="#03224C" stroke-width="0.6"/>
<path d="M45.8253 146.715C45.8253 146.134 45.3935 145.923 45.0999 145.923C44.8408 145.923 44.599 146.099 44.599 146.24C44.599 146.328 44.6854 146.416 44.7717 146.416C44.8926 146.416 44.8926 146.257 45.0999 146.257C45.238 146.257 45.4799 146.363 45.4799 146.715C45.4799 147.367 44.7199 148.423 44.1327 148.423C43.9254 148.423 43.8563 148.247 43.8563 148.054C43.8563 147.754 43.9772 147.349 44.2708 146.962C44.2881 146.926 44.3054 146.891 44.3054 146.856C44.3054 146.75 44.219 146.662 44.1327 146.662C43.9772 146.662 43.5109 147.455 43.5109 148.001C43.5109 148.423 43.7009 148.758 44.1327 148.758C44.9962 148.758 45.8253 147.49 45.8253 146.715Z" stroke="#03224C" stroke-width="0.6"/>
<path d="M55.9706 146.944C55.9706 146.856 55.9015 146.768 55.8151 146.768C55.7806 146.768 55.7633 146.768 55.7288 146.786C55.1933 147.12 54.3643 147.578 53.7252 147.578C52.6026 147.578 52.568 146.68 52.0326 146.68C51.6181 146.68 50.4954 147.578 50.1154 147.578C49.8736 147.578 49.8045 147.279 49.8045 147.05C49.8045 146.715 49.9082 146.204 49.9082 145.923C49.9082 145.746 49.9082 145.535 49.7355 145.535C49.5455 145.535 47.8528 147.085 46.5229 148.952C46.5229 148.969 46.5056 148.969 46.5056 148.969C46.4711 148.969 46.4538 148.952 46.4538 148.934V148.916C46.8338 146.592 47.5765 145.324 47.5765 145.324C47.5765 145.218 47.4901 145.148 47.4038 145.148C47.1274 145.148 46.3329 147.12 45.9875 149.744C45.9875 149.762 45.9702 149.779 45.9702 149.815C45.9702 149.815 45.9702 149.832 45.9875 149.832C45.9875 149.92 46.0566 149.973 46.1257 149.973H46.1602C46.212 149.973 46.2638 149.956 46.2984 149.885C47.1792 148.511 48.2501 147.261 49.4591 146.169C49.4764 146.152 49.4936 146.152 49.5109 146.152C49.5455 146.152 49.5627 146.169 49.5627 146.204C49.5282 146.433 49.4764 146.733 49.4764 147.032C49.4764 147.666 49.7873 147.93 50.1154 147.93C50.6336 147.93 51.6353 147.014 52.0326 147.014C52.1535 147.014 52.6717 147.93 53.7425 147.93C54.4852 147.93 55.9706 147.138 55.9706 146.944Z" stroke="#03224C" stroke-width="0.6"/>
<path d="M60.294 146.944C60.294 146.856 60.2077 146.768 60.104 146.768C60.0004 146.768 57.5824 148.952 56.2352 148.952C55.7343 148.952 55.3543 148.705 55.3543 148.194C55.3543 148.124 55.3716 148.036 55.3889 147.983C55.3889 147.913 55.4579 147.86 55.527 147.842C56.5806 147.754 57.4442 147.014 57.4442 146.627C57.4442 146.486 57.306 146.31 56.9779 146.31C55.9934 146.31 55.0261 147.173 55.0261 148.159C55.0261 148.793 55.4407 149.304 56.2179 149.304C57.6169 149.304 60.294 147.103 60.294 146.944ZM57.0124 146.786C56.7879 147.05 56.287 147.384 55.6479 147.49C55.6307 147.49 55.5961 147.472 55.5961 147.455C55.5961 147.437 55.5961 147.437 55.6134 147.42C55.9588 146.874 56.4424 146.715 56.9606 146.68C56.9951 146.68 57.0297 146.715 57.0297 146.75C57.0297 146.75 57.0297 146.768 57.0124 146.786Z" stroke="#03224C" stroke-width="0.6"/>
<path d="M64.3383 162.065L81.6235 163.091L73.0832 132.662L64.3383 162.065Z" fill="#DFDFDF" stroke="#03224C"/>
</svg>
