<svg width="135" height="37" viewBox="0 0 135 37" fill="none" xmlns="http://www.w3.org/2000/svg">
<path d="M29.3081 0H21.5562L14.6333 12.0001L7.75194 0H0L11.1512 19.2569V27.9719H18.1984V19.2569L29.3081 0Z" fill="#141414"/>
<path d="M40.1054 7.50185V8.95998C38.6131 8.02753 36.8306 7.45996 34.592 7.45996C29.1615 7.45996 24.6016 11.8384 24.6016 17.7168C24.6016 23.5547 29.1615 27.9737 34.592 27.9737C36.8306 27.9737 38.6131 27.4061 40.1054 26.4737V27.9723H46.821V7.50185H40.1054ZM35.96 22.5817C33.224 22.5817 31.1928 20.4331 31.1928 17.7168C31.1928 15.0006 33.224 12.8114 35.96 12.8114C37.4109 12.8114 38.8204 13.2573 40.1054 14.6357V20.7574C38.8204 22.1763 37.4109 22.5817 35.96 22.5817Z" fill="#141414"/>
<path d="M65.582 7.50185V8.95998C64.0896 8.02753 62.3071 7.45996 60.0686 7.45996C54.6381 7.45996 50.0781 11.8384 50.0781 17.7168C50.0781 23.5547 54.6381 27.9737 60.0686 27.9737C62.3071 27.9737 64.0896 27.4061 65.582 26.4737V27.9723H72.2976V7.50185H65.582ZM61.4366 22.5817C58.7006 22.5817 56.6693 20.4331 56.6693 17.7168C56.6693 15.0006 58.7006 12.8114 61.4366 12.8114C62.8875 12.8114 64.2969 13.2573 65.582 14.6357V20.7574C64.2969 22.1763 62.8875 22.5817 61.4366 22.5817Z" fill="#141414"/>
<path fill-rule="evenodd" clip-rule="evenodd" d="M91.0679 8.7564V7.50098H97.7835V14.7169H91.0675C89.824 13.2983 88.3732 12.8929 86.9225 12.8929C84.1865 12.8929 82.1552 14.7983 82.1552 17.6362C82.1552 19.7849 84.1865 21.9741 86.9225 21.9741C88.3732 21.9741 89.824 21.5282 91.0676 20.1501H97.7835V27.2431C97.792 33.4319 93.3564 36.9995 87.0553 36.9995C80.9201 36.9995 76.4845 33.5941 76.1529 28.486L76.1259 28.1088H82.7635L82.8279 28.4916C83.1201 30.3126 84.5292 31.4454 87.0139 31.4454C89.3353 31.4454 91.0764 30.067 91.0679 27.3647V25.8255C89.5756 26.6768 87.793 27.2039 85.5959 27.2039C80.124 27.2039 75.6055 22.9471 75.6055 17.6362C75.6055 11.6361 80.124 7.50098 85.5959 7.50098C87.793 7.50098 89.5756 7.8645 91.0679 8.7564Z" fill="#141414"/>
<path fill-rule="evenodd" clip-rule="evenodd" d="M101.512 14.7178H101.531C103.032 14.7178 104.249 15.9355 104.247 17.4368C104.246 18.9363 103.03 20.1511 101.531 20.1511H101.387C102.463 24.7639 106.523 27.9637 111.892 27.9637C118.144 27.9637 122.598 23.5679 122.598 17.6534C122.598 11.8189 118.144 7.54297 111.892 7.54297C106.713 7.54297 102.752 10.4396 101.512 14.7178ZM111.892 22.369C109.154 22.369 107.397 20.291 107.397 17.6934C107.397 15.1758 109.154 13.1377 111.892 13.1377C114.548 13.1377 116.346 15.1758 116.346 17.6934C116.346 20.291 114.548 22.369 111.892 22.369Z" fill="#141414"/>
<path d="M130.405 27.9743C132.902 27.9743 135 26.0441 135 23.5043C135 21.0152 132.902 19.085 130.405 19.085C127.958 19.085 125.91 21.0152 125.91 23.5043C125.91 26.0441 127.958 27.9743 130.405 27.9743Z" fill="#FE3945"/>
</svg>
