<svg width="95" height="213" viewBox="0 0 95 213" fill="none" xmlns="http://www.w3.org/2000/svg">
<ellipse opacity="0.1" cx="50.0732" cy="195.195" rx="44.5084" ry="17.3194" fill="#141414"/>
<path d="M25.3644 49.6827C23.0566 44.0747 25.6381 34.1687 27.5612 29.3584C29.3028 26.8138 34.329 22.8266 40.5011 27.234C48.2163 32.7434 49.0263 36.2434 45.9888 46.166C43.5588 54.104 43.8199 59.4032 44.2543 61.0605C45.5758 56.9267 49.239 56.3188 54.467 53.0362C59.6949 49.7535 60.4993 45.3767 62.2 41.9724C63.5606 39.249 63.5946 29.1887 63.4415 24.499C62.9842 24.1993 62.5693 23.7317 62.2 23.1645C61.6656 24.8501 58.9654 23.1275 58.9654 21.4789C58.9654 20.16 59.988 19.1916 60.4993 18.8722C60.1766 17.5089 60.062 16.3222 60.1812 15.8516C60.546 14.4116 63.3423 11.4489 68.2055 14.7409C73.0687 18.0329 68.8424 18.9884 70.2413 32.7434C71.6401 46.4984 71.5596 54.3988 64.1797 61.0605C60.0144 64.8204 54.467 70.3837 56.6615 78.1771C57.8241 82.3059 60.4993 93.1699 66.9365 99.1306C54.467 99.1306 50.2389 106.577 42.0999 108.072C32.364 109.86 25.3644 107.056 21.2333 102.33C22.2307 95.1568 21.2333 85.6276 21.2333 79.6587C21.2333 74.8837 16.0974 67.859 14.8481 65.6843C10.9614 62.4454 2.7439 54.2741 0.967132 47.5002C-1.25382 39.0328 2.63215 31.2595 4.71429 27.234C6.38001 24.0136 9.47053 17.9625 10.8076 15.3395C10.1315 14.4602 9.85025 12.6765 9.85025 11.4489C9.85025 10.6147 10.7951 8.44443 15.6495 8.6933C16.3174 7.97071 14.6537 0.56049 16.1889 0.934064C17.1036 0.701337 17.2931 9.14855 18.1389 8.6933C18.9672 8.24749 18.661 3.17558 19.3422 2.17968C21.0467 -0.312545 20.0384 9.81631 19.5669 11.4489C20.7359 12.3602 20.878 13.898 19.5669 14.7409C18.0123 15.7403 14.8298 19.6493 13.4329 21.4789C10.2629 28.3067 7.33746 41.7185 8.80056 44.4009C10.2637 47.0832 17.5792 53.911 25.3644 54.3988C33.1495 54.8865 32.2096 59.3618 35.1358 58.1425C37.4767 57.1671 36.9247 52.9498 37.0872 50.2399C34.161 53.327 28.249 56.6927 25.3644 49.6827Z" fill="white"/>
<path d="M19.5669 11.4489C20.7359 12.3602 20.878 13.898 19.5669 14.7409C18.0123 15.7403 14.8298 19.6493 13.4329 21.4789C10.2629 28.3067 7.33746 41.7185 8.80056 44.4009C10.2637 47.0832 17.5792 53.9111 25.3644 54.3988C33.1495 54.8865 32.2096 59.3618 35.1358 58.1425C37.4767 57.1671 36.9247 52.9498 37.0872 50.2399C34.161 53.327 28.249 56.6927 25.3644 49.6827C23.0566 44.0747 25.6381 34.1687 27.5612 29.3584C29.3028 26.8138 34.329 22.8266 40.5011 27.234C48.2163 32.7434 49.0263 36.2434 45.9888 46.166C43.5588 54.104 43.8199 59.4032 44.2543 61.0605C45.5758 56.9267 49.239 56.3188 54.467 53.0362C59.6949 49.7535 60.4993 45.3767 62.2 41.9724C63.5606 39.249 63.5946 29.1887 63.4415 24.499M19.5669 11.4489C19.0032 11.0094 18.2007 10.7155 17.2072 10.7155C14.1533 10.7155 10.4319 12.6588 11.9324 13.2141C13.1328 13.6583 15.1162 13.3991 15.9579 13.2141C15.1162 14.0007 13.1328 15.6295 11.9324 15.8516C11.4754 15.9362 11.1036 15.7246 10.8076 15.3395M19.5669 11.4489C20.0384 9.81631 21.0467 -0.312545 19.3422 2.17968C18.661 3.17558 18.9672 8.24749 18.1389 8.6933C17.2931 9.14855 17.1036 0.701337 16.1889 0.934064C14.6537 0.56049 16.3174 7.97071 15.6495 8.6933C10.7951 8.44443 9.85025 10.6147 9.85025 11.4489C9.85025 12.6765 10.1315 14.4602 10.8076 15.3395M10.8076 15.3395C9.47053 17.9625 6.38001 24.0136 4.71429 27.234C2.63215 31.2595 -1.25382 39.0328 0.967132 47.5002C2.7439 54.2741 10.9614 62.4454 14.8481 65.6843C16.0974 67.859 21.2333 74.8837 21.2333 79.6587C21.2333 85.6276 22.2307 95.1568 21.2333 102.33C25.3644 107.056 32.364 109.86 42.0999 108.072C50.2389 106.577 54.467 99.1306 66.9365 99.1306C60.4993 93.1699 57.8241 82.3059 56.6615 78.1771C54.467 70.3837 60.0144 64.8204 64.1797 61.0605C71.5596 54.3988 71.6401 46.4984 70.2413 32.7434C68.8424 18.9884 73.0687 18.0329 68.2055 14.7409C63.3423 11.4489 60.546 14.4116 60.1812 15.8516C60.062 16.3222 60.1766 17.5089 60.4993 18.8722M69.4213 18.8722C69.016 20.6554 67.549 24.3433 64.9229 24.8296C64.3895 24.9284 63.8947 24.7961 63.4415 24.499M60.4993 18.8722C59.988 19.1916 58.9654 20.16 58.9654 21.4789C58.9654 23.1275 61.6656 24.8501 62.2 23.1645M60.4993 18.8722C60.8418 20.319 61.4189 21.9647 62.2 23.1645M62.2 23.1645C62.5693 23.7317 62.9842 24.1993 63.4415 24.499" stroke="#03224C" stroke-width="0.546575"/>
<path d="M11.8762 133.021C14.6755 119.024 22.1784 108.722 25.58 105.32L61.7378 100.071C64.9454 105.028 71.5937 118.908 72.5268 134.771C73.46 150.633 64.751 169.373 60.2798 176.76L48.0328 170.345C49.8796 166.652 53.8064 156.465 54.7395 145.268C55.6726 134.071 47.9356 121.552 43.9505 116.692C40.8402 119.024 33.8032 125.906 30.5382 134.771C27.2732 143.635 36.3697 156.349 41.3261 161.597C39.2267 167.663 33.2594 167.818 30.5382 167.138C23.1511 161.597 9.07677 147.018 11.8762 133.021Z" fill="#03224C" stroke="#03224C" stroke-width="0.546575"/>
<path d="M25.363 49.6808C23.0553 44.0728 25.6368 34.1668 27.5599 29.3565C29.3014 26.8119 34.3276 22.8247 40.4998 27.2321C48.215 32.7415 49.025 36.2415 45.9875 46.1641C43.5574 54.1021 43.6492 61.3269 44.2638 60.5232C45.5853 56.3895 49.2377 56.317 54.4656 53.0343C59.6936 49.7516 60.498 45.3748 62.1987 41.9705C63.5593 39.2471 63.5933 29.1869 63.4402 24.4971C62.9829 24.1974 62.568 23.7298 62.1987 23.1626C61.6643 24.8482 58.9641 23.1256 58.9641 21.477C58.9641 20.1582 59.9867 19.1897 60.498 18.8703C60.1752 17.507 60.0607 16.3203 60.1799 15.8497C60.5446 14.4097 63.341 11.447 68.2042 14.739C73.0674 18.031 68.8411 18.9865 70.2399 32.7415C71.6387 46.4965 71.5583 54.3969 64.1784 61.0586C60.0131 64.8185 54.4656 70.3818 56.6602 78.1753C57.8228 82.3041 60.498 93.168 66.9352 99.1288C54.4656 99.1288 50.2376 106.575 42.0986 108.07C32.3626 109.858 25.363 107.054 21.232 102.328C22.2293 95.1549 21.232 85.6257 21.232 79.6569C21.232 74.8818 16.096 67.8571 14.8467 65.6824C10.9601 62.4435 2.74255 54.2722 0.96579 47.4983C-1.25516 39.0309 2.63081 31.2576 4.71295 27.2321C6.37867 24.0118 9.46918 17.9606 10.8062 15.3376C10.1302 14.4583 9.84891 12.6746 9.84891 11.447C9.84891 9.68177 13.4316 6.54932 17.2058 6.54932C20.2252 6.54932 20.0371 9.81442 19.5656 11.447C20.7346 12.3584 20.8767 13.8961 19.5656 14.739C18.0109 15.7384 14.8285 19.6474 13.4316 21.477C10.2615 28.3048 7.33611 41.7166 8.79922 44.399C10.2623 47.0813 17.5778 53.9092 25.363 54.3969C33.1482 54.8846 32.2082 59.3599 35.1344 58.1406C37.4754 57.1652 36.9233 52.9479 37.0859 50.238C34.1597 53.3251 28.2477 56.6908 25.363 49.6808Z" fill="white"/>
<path d="M19.5656 11.447C20.7346 12.3584 20.8767 13.8961 19.5656 14.739C18.0109 15.7384 14.8285 19.6474 13.4316 21.477C10.2615 28.3048 7.33611 41.7166 8.79922 44.399C10.2623 47.0813 17.5778 53.9092 25.363 54.3969C33.1482 54.8846 32.2082 59.3599 35.1344 58.1406C37.4754 57.1652 36.9233 52.9479 37.0859 50.238C34.1597 53.3251 28.2477 56.6908 25.363 49.6808C23.0553 44.0728 25.6368 34.1668 27.5599 29.3565C29.3014 26.8119 34.3276 22.8247 40.4998 27.2321C48.215 32.7415 49.025 36.2415 45.9875 46.1641C43.5574 54.1021 43.6492 61.3269 44.2638 60.5232C45.5853 56.3895 49.2377 56.317 54.4656 53.0343C59.6936 49.7516 60.498 45.3748 62.1987 41.9705C63.5593 39.2471 63.5933 29.1869 63.4402 24.4971M19.5656 11.447C19.0019 11.0075 18.1993 10.7137 17.2058 10.7137C14.152 10.7137 10.4305 12.6569 11.9311 13.2122C13.1315 13.6564 15.1149 13.3973 15.9565 13.2122C15.1149 13.9988 13.1315 15.6277 11.9311 15.8497C11.4741 15.9343 11.1023 15.7227 10.8062 15.3376M19.5656 11.447C20.0371 9.81442 20.2252 6.54932 17.2058 6.54932C13.4316 6.54932 9.84891 9.68177 9.84891 11.447C9.84891 12.6746 10.1302 14.4583 10.8062 15.3376M10.8062 15.3376C9.46918 17.9606 6.37867 24.0118 4.71295 27.2321C2.63081 31.2576 -1.25516 39.031 0.96579 47.4983C2.74255 54.2722 10.9601 62.4435 14.8467 65.6824C16.096 67.8571 21.232 74.8818 21.232 79.6569C21.232 85.6257 22.2293 95.1549 21.232 102.328C25.363 107.054 32.3626 109.858 42.0986 108.07C50.2376 106.575 54.4656 99.1288 66.9352 99.1288C60.498 93.168 57.8228 82.3041 56.6602 78.1753C54.4656 70.3818 60.0131 64.8185 64.1784 61.0586C71.5583 54.3969 71.6387 46.4965 70.2399 32.7415C68.8411 18.9865 73.0674 18.031 68.2042 14.739C63.341 11.447 60.5446 14.4097 60.1799 15.8497C60.0607 16.3203 60.1752 17.507 60.498 18.8703M69.42 18.8703C69.0147 20.6535 67.5476 24.3414 64.9215 24.8278C64.3882 24.9265 63.8934 24.7942 63.4402 24.4971M60.498 18.8703C59.9867 19.1897 58.9641 20.1582 58.9641 21.477C58.9641 23.1256 61.6643 24.8482 62.1987 23.1626M60.498 18.8703C60.8405 20.3171 61.4175 21.9628 62.1987 23.1626M62.1987 23.1626C62.568 23.7298 62.9829 24.1974 63.4402 24.4971" stroke="#03224C" stroke-width="0.546575" stroke-linecap="round" stroke-linejoin="round"/>
<path fill-rule="evenodd" clip-rule="evenodd" d="M12.3864 23.984C9.66431 31.1638 7.50018 42.0161 8.80007 44.3992C10.2632 47.0816 17.5787 53.9094 25.3639 54.3971C29.7956 54.6747 31.3999 56.2445 32.4996 57.3205C33.1895 57.9955 33.6808 58.4762 34.5469 58.3214C35.873 61.6442 39.0108 65.0976 43.9209 59.5681C43.9715 60.3738 44.0991 60.7399 44.2647 60.5234C45.1602 57.7221 47.1261 56.7859 49.9274 55.4518C51.2599 54.8172 52.7813 54.0926 54.4665 53.0345C58.5925 50.4437 59.9632 47.1714 61.1938 44.2335C61.5224 43.449 61.8411 42.6882 62.1995 41.9707C63.1058 40.1568 63.4235 35.0879 63.4894 30.519L70.0205 29.9614C70.0684 30.8255 70.14 31.7503 70.2408 32.7417C71.6396 46.4967 71.5591 54.3971 64.1792 61.0588C60.0139 64.8188 54.4665 70.382 56.661 78.1755C56.735 78.4383 56.8152 78.7284 56.902 79.0428C58.1794 83.6674 60.9086 93.5476 66.936 99.129C59.4728 99.129 54.9619 101.796 50.7977 104.259C48.0044 105.911 45.3671 107.47 42.0994 108.07C32.3635 109.858 25.3639 107.054 21.2328 102.328C21.9229 97.365 21.658 91.2738 21.4293 86.0145C21.3275 83.6728 21.2328 81.496 21.2328 79.6571C21.2328 75.7225 17.7457 70.2604 15.8193 67.2429C15.4078 66.5984 15.0675 66.0654 14.8476 65.6826C10.9609 62.4437 2.74341 54.2725 0.966644 47.4986C-1.25431 39.0312 2.63166 31.2578 4.71381 27.2324C5.42604 25.8554 6.39876 23.9609 7.38352 22.0381L12.3864 23.984Z" fill="white"/>
<path d="M12.3864 23.984L12.642 24.0809L12.738 23.8275L12.4855 23.7293L12.3864 23.984ZM8.80007 44.3992L8.56015 44.5301L8.56015 44.5301L8.80007 44.3992ZM25.3639 54.3971L25.3809 54.1243L25.3809 54.1243L25.3639 54.3971ZM32.4996 57.3205L32.6907 57.1251L32.6907 57.1251L32.4996 57.3205ZM34.5469 58.3214L34.8007 58.2201L34.7182 58.0132L34.4989 58.0524L34.5469 58.3214ZM43.9209 59.5681L44.1936 59.5509L44.1525 58.8956L43.7165 59.3866L43.9209 59.5681ZM44.2647 60.5234L44.4817 60.6894L44.5105 60.6518L44.525 60.6066L44.2647 60.5234ZM49.9274 55.4518L50.0449 55.6985L50.0449 55.6985L49.9274 55.4518ZM54.4665 53.0345L54.6118 53.266L54.6118 53.266L54.4665 53.0345ZM61.1938 44.2335L61.4459 44.3391L61.4459 44.3391L61.1938 44.2335ZM62.1995 41.9707L62.444 42.0929L62.444 42.0929L62.1995 41.9707ZM63.4894 30.519L63.4661 30.2468L63.2197 30.2678L63.2161 30.5151L63.4894 30.519ZM70.0205 29.9614L70.2933 29.9463L70.2778 29.6652L69.9972 29.6891L70.0205 29.9614ZM70.2408 32.7417L69.9689 32.7693L69.9689 32.7693L70.2408 32.7417ZM64.1792 61.0588L63.9961 60.8559L63.9961 60.8559L64.1792 61.0588ZM56.661 78.1755L56.9241 78.1014L56.9241 78.1014L56.661 78.1755ZM56.902 79.0428L57.1654 78.97L57.1654 78.97L56.902 79.0428ZM66.936 99.129V99.4023H67.6334L67.1217 98.9285L66.936 99.129ZM50.7977 104.259L50.6586 104.024L50.6586 104.024L50.7977 104.259ZM42.0994 108.07L42.1488 108.339L42.1488 108.339L42.0994 108.07ZM21.2328 102.328L20.9622 102.291L20.945 102.414L21.0271 102.508L21.2328 102.328ZM21.4293 86.0145L21.1563 86.0263L21.1563 86.0263L21.4293 86.0145ZM15.8193 67.2429L15.5889 67.39L15.5889 67.39L15.8193 67.2429ZM14.8476 65.6826L15.0846 65.5465L15.0602 65.504L15.0226 65.4727L14.8476 65.6826ZM0.966644 47.4986L0.702299 47.5679L0.702299 47.5679L0.966644 47.4986ZM4.71381 27.2324L4.95654 27.3579L4.95654 27.3579L4.71381 27.2324ZM7.38352 22.0381L7.48258 21.7834L7.25271 21.694L7.14028 21.9135L7.38352 22.0381ZM12.1309 23.8871C10.7634 27.494 9.53768 32.0181 8.81622 35.9409C8.4555 37.9023 8.21957 39.7201 8.15621 41.2019C8.12454 41.9427 8.13573 42.6051 8.1977 43.1624C8.25913 43.7149 8.37266 44.1863 8.56015 44.5301L9.03999 44.2683C8.90251 44.0163 8.79932 43.6272 8.74093 43.102C8.68307 42.5817 8.67134 41.9492 8.70229 41.2253C8.76418 39.7777 8.99568 37.9869 9.35378 36.0398C10.0699 32.1458 11.2873 27.6538 12.642 24.0809L12.1309 23.8871ZM8.56015 44.5301C9.31996 45.923 11.5521 48.3295 14.5538 50.4445C17.5609 52.5634 21.3846 54.4216 25.3468 54.6698L25.3809 54.1243C21.5579 53.8848 17.8313 52.0853 14.8686 49.9977C11.9004 47.9063 9.74329 45.5577 9.03999 44.2683L8.56015 44.5301ZM25.3468 54.6698C27.5318 54.8067 29.0028 55.2609 30.0563 55.8024C31.1096 56.344 31.7609 56.98 32.3085 57.5158L32.6907 57.1251C32.1387 56.585 31.4379 55.8981 30.3062 55.3163C29.1746 54.7346 27.6277 54.2651 25.3809 54.1243L25.3468 54.6698ZM32.3085 57.5158C32.6462 57.8462 32.9669 58.1624 33.3194 58.3681C33.6889 58.5838 34.0937 58.68 34.595 58.5904L34.4989 58.0524C34.134 58.1176 33.8601 58.0509 33.5949 57.8961C33.3128 57.7314 33.0429 57.4697 32.6907 57.1251L32.3085 57.5158ZM43.7165 59.3866C41.2923 62.1167 39.393 62.5371 37.986 62.0085C36.5343 61.4632 35.4566 59.8634 34.8007 58.2201L34.2931 58.4227C34.9634 60.1022 36.1176 61.8905 37.7938 62.5202C39.5148 63.1667 41.6394 62.549 44.1252 59.7495L43.7165 59.3866ZM43.6481 59.5852C43.6736 59.9901 43.7194 60.3166 43.7923 60.5209C43.8112 60.574 43.8355 60.6292 43.8681 60.6788C43.8989 60.7257 43.9512 60.7892 44.0346 60.8273C44.1311 60.8714 44.2341 60.8656 44.3207 60.8249C44.3957 60.7896 44.4478 60.7338 44.4817 60.6894L44.0476 60.3574C44.0401 60.3671 44.052 60.3472 44.0882 60.3302C44.1359 60.3078 44.2014 60.3026 44.2618 60.3302C44.2865 60.3415 44.3029 60.355 44.3119 60.3637C44.3208 60.3723 44.3247 60.3784 44.3249 60.3787C44.3252 60.3791 44.3233 60.3763 44.3198 60.3688C44.3163 60.3615 44.312 60.3512 44.3071 60.3372C44.2621 60.2112 44.2188 59.9517 44.1936 59.5509L43.6481 59.5852ZM44.525 60.6066C45.38 57.9321 47.2313 57.0385 50.0449 55.6985L49.8099 55.2051C47.021 56.5333 44.9404 57.5122 44.0043 60.4402L44.525 60.6066ZM50.0449 55.6985C51.3772 55.064 52.9117 54.3335 54.6118 53.266L54.3212 52.8031C52.6509 53.8518 51.1425 54.5704 49.8099 55.2051L50.0449 55.6985ZM54.6118 53.266C58.8155 50.6265 60.2131 47.2823 61.4459 44.3391L60.9417 44.1279C59.7134 47.0605 58.3696 50.261 54.3212 52.8031L54.6118 53.266ZM61.4459 44.3391C61.7752 43.5529 62.0903 42.8008 62.444 42.0929L61.9551 41.8486C61.5918 42.5757 61.2697 43.345 60.9417 44.1279L61.4459 44.3391ZM62.444 42.0929C62.6871 41.6063 62.8825 40.9208 63.0422 40.1116C63.2028 39.2981 63.3306 38.3421 63.4316 37.3045C63.6335 35.2289 63.7296 32.8112 63.7626 30.523L63.2161 30.5151C63.1832 32.7958 63.0875 35.1969 62.8876 37.2515C62.7876 38.2789 62.6619 39.2158 62.506 40.0057C62.3492 40.7999 62.1651 41.4282 61.9551 41.8486L62.444 42.0929ZM69.9972 29.6891L63.4661 30.2468L63.5126 30.7913L70.0437 30.2337L69.9972 29.6891ZM69.7476 29.9765C69.7957 30.8449 69.8677 31.7739 69.9689 32.7693L70.5127 32.714C70.4123 31.7268 70.341 30.8061 70.2933 29.9463L69.7476 29.9765ZM69.9689 32.7693C70.6685 39.6491 70.9933 45.0285 70.2326 49.5145C69.4747 53.9836 67.6386 57.5679 63.9961 60.8559L64.3624 61.2616C68.0998 57.8879 69.9938 54.1912 70.7715 49.6059C71.5462 45.0376 71.2118 39.5892 70.5127 32.714L69.9689 32.7693ZM63.9961 60.8559C59.8448 64.6033 54.1529 70.2766 56.398 78.2495L56.9241 78.1014C54.7801 70.4874 60.1831 65.0342 64.3624 61.2616L63.9961 60.8559ZM56.398 78.2495C56.4717 78.5116 56.5517 78.801 56.6386 79.1155L57.1654 78.97C57.0786 78.6558 56.9983 78.365 56.9241 78.1014L56.398 78.2495ZM56.6386 79.1155C57.2772 81.4277 58.283 85.0698 59.8863 88.8342C61.4885 92.5958 63.6961 96.5013 66.7504 99.3295L67.1217 98.9285C64.1485 96.1753 61.9778 92.35 60.3892 88.62C58.8017 84.8928 57.8042 81.2825 57.1654 78.97L56.6386 79.1155ZM66.936 98.8557C59.3945 98.8557 54.8291 101.557 50.6586 104.024L50.9368 104.494C55.0946 102.035 59.5511 99.4023 66.936 99.4023V98.8557ZM50.6586 104.024C47.8596 105.679 45.2626 107.211 42.0501 107.801L42.1488 108.339C45.4716 107.729 48.1491 106.142 50.9368 104.494L50.6586 104.024ZM42.0501 107.801C32.3928 109.575 25.4961 106.79 21.4386 102.148L21.0271 102.508C25.2316 107.318 32.3342 110.142 42.1488 108.339L42.0501 107.801ZM21.5035 102.366C22.1977 97.3731 21.9308 91.2549 21.7024 86.0026L21.1563 86.0263C21.3853 91.2926 21.6481 97.357 20.9622 102.291L21.5035 102.366ZM21.7024 86.0026C21.6005 83.659 21.5061 81.4888 21.5061 79.6571H20.9596C20.9596 81.5032 21.0546 83.6865 21.1563 86.0263L21.7024 86.0026ZM21.5061 79.6571C21.5061 77.6228 20.609 75.2255 19.4931 72.9843C18.3731 70.7349 17.0121 68.6034 16.0496 67.0958L15.5889 67.39C16.5529 68.8999 17.8986 71.0082 19.0038 73.2279C20.1131 75.4557 20.9596 77.7568 20.9596 79.6571H21.5061ZM16.0496 67.0958C15.6365 66.4488 15.3005 65.9223 15.0846 65.5465L14.6106 65.8187C14.8345 66.2084 15.179 66.7479 15.5889 67.39L16.0496 67.0958ZM15.0226 65.4727C13.0903 63.8624 10.0761 61.0212 7.32532 57.7406C4.56913 54.4535 2.10345 50.7555 1.23099 47.4292L0.702299 47.5679C1.6066 51.0155 4.13807 54.7901 6.9065 58.0918C9.68039 61.4 12.7183 64.2639 14.6726 65.8926L15.0226 65.4727ZM1.23099 47.4292C-0.960588 39.0738 2.87209 31.3879 4.95654 27.3579L4.47107 27.1068C2.39123 31.1278 -1.54803 38.9885 0.702299 47.5679L1.23099 47.4292ZM4.95654 27.3579C5.66904 25.9804 6.64197 24.0855 7.62676 22.1627L7.14028 21.9135C6.15555 23.8362 5.18303 25.7303 4.47107 27.1068L4.95654 27.3579ZM12.4855 23.7293L7.48258 21.7834L7.28445 22.2928L12.2874 24.2387L12.4855 23.7293Z" fill="#03224C"/>
<path d="M25.2838 36.421C25.4387 35.6497 25.4152 33.6444 24.0817 31.7934C22.4148 29.4797 21.6748 25.6854 25.2838 24.0197C28.8928 22.3539 31.1134 24.5744 34.445 21.613C37.7765 18.6516 40.923 20.8726 42.0335 23.1862C43.144 25.4997 46.2904 27.2583 48.8817 27.1657C51.4729 27.0732 54.8969 30.9619 50.4549 36.421C46.0128 41.88 49.5294 42.6204 48.3264 45.7668C47.1324 48.8895 44.7536 48.2751 44.4463 53.2408C44.4441 53.2796 44.4419 53.3178 44.4396 53.3554C44.4417 53.3168 44.4439 53.2786 44.4463 53.2408C44.5889 50.6698 44.4121 45.5315 42.5887 44.6563C40.2752 43.5458 43.4216 38.456 40.0901 38.7336C36.7585 39.0112 38.2392 34.5692 33.2419 33.4586C29.244 32.5702 26.2707 35.0633 25.2838 36.421Z" fill="#03224C"/>
<path d="M46.4058 179.576L48.8147 173.928C50.7418 177.051 55.8181 177.776 58.1154 177.748L54.4613 182.648C49.4785 183.578 47.0148 180.987 46.4058 179.576Z" fill="white" stroke="black" stroke-width="0.546575"/>
<path d="M43.02 181.937C44.3408 178.46 46.3765 178.18 47.2293 178.474L46.7741 179.605C47.0895 180.566 48.9438 181.56 49.8314 181.937C49.5976 181.228 49.5007 179.77 50.9842 179.605C52.8387 179.399 56.2252 180.58 55.8951 181.259C55.5649 181.938 55.3998 184.654 55.3998 187.989C55.3998 191.325 56.7208 199.591 53.0892 200.814C49.4576 202.036 41.369 186.283 43.02 181.937Z" fill="#03224C"/>
<path d="M38.5691 172.84L33.9792 168.472C35.3796 168.387 38.9008 167.361 41.7831 163.937L44.2126 168.472C43.3056 171.84 39.9188 172.894 38.5691 172.84Z" fill="white" stroke="#03224C" stroke-width="0.546575"/>
<path d="M36.8934 174.662C35.8433 173.062 36.4559 172.167 36.8934 171.92C37.1764 171.671 38.165 171.055 39.8555 170.572C41.5461 170.089 41.8665 171.269 41.8154 171.92C43.1533 170.992 43.8986 169.252 44.104 168.497L43.2237 166.748C45.8293 166.081 47.3022 167.636 47.713 168.497L47.0968 169.747C47.3081 171.546 48.3585 173.107 48.8573 173.662L47.713 176.591C41.3961 189.269 32.1181 188.993 30.7313 186.158C29.3454 183.324 38.2061 176.661 36.8934 174.662Z" fill="#03224C"/>
<path d="M40.4862 160.415C39.6427 166.12 32.4089 166.737 28.8973 166.332L31.1669 169.411C38.2339 171.032 42.3779 166.088 43.5665 163.414L40.4862 160.415Z" fill="#FE3945" stroke="#03224C" stroke-width="0.523576"/>
<path d="M60.2024 178.204C50.3077 179.451 47.5561 174.012 47.4171 171.137L48.8732 167.707C52.116 174.941 59.3708 174.879 62.5929 173.943L60.2024 178.204Z" fill="#FE3945" stroke="#03224C" stroke-width="0.505403"/>
</svg>
