<svg width="153" height="140" viewBox="0 0 153 140" fill="none" xmlns="http://www.w3.org/2000/svg">
<g clip-path="url(#clip0)">
<path d="M121.832 84.0293C120.912 84.5269 119.095 86.2124 119.186 88.973C119.276 91.7336 119.223 104.153 119.186 110.018" stroke="#03224C" stroke-width="0.504071" stroke-linecap="round"/>
<path d="M145.626 55.6018C144.111 62.9269 138.025 67.7709 132.107 66.5469C126.189 65.3228 122.524 58.462 124.039 51.137C125.555 43.8119 131.64 38.9679 137.558 40.1919C143.476 41.416 147.141 48.2768 145.626 55.6018Z" fill="white" stroke="#03224C" stroke-width="0.504071" stroke-linecap="round"/>
<path d="M140.57 83.4001C140.57 84.1635 140.156 84.9214 139.339 85.641C138.523 86.3603 137.327 87.0196 135.828 87.5784C132.832 88.6951 128.675 89.391 124.072 89.391C119.469 89.391 115.312 88.6951 112.316 87.5784C110.817 87.0196 109.621 86.3603 108.805 85.641C107.988 84.9214 107.574 84.1635 107.574 83.4001C107.574 82.6367 107.988 81.8788 108.805 81.1592C109.621 80.4399 110.817 79.7806 112.316 79.2219C115.312 78.1051 119.469 77.4093 124.072 77.4093C128.675 77.4093 132.832 78.1051 135.828 79.2219C137.327 79.7806 138.523 80.4399 139.339 81.1592C140.156 81.8788 140.57 82.6367 140.57 83.4001Z" fill="white" stroke="#03224C" stroke-width="0.504071" stroke-linecap="round"/>
<path d="M131.732 66.6499L128.906 78.3158" stroke="#03224C" stroke-width="0.504071" stroke-linecap="round"/>
<path d="M108.647 85.5933C107.728 86.0909 105.911 87.7764 106.001 90.5369C106.091 93.2975 106.039 108.814 106.001 114.679" stroke="#03224C" stroke-width="0.504071" stroke-linecap="round"/>
<path d="M127.572 88.6406C128.959 89.3658 131.176 91.2932 131.176 94.4197C131.176 96.2912 131.178 110.8 131.176 117.82" stroke="#03224C" stroke-width="0.504071" stroke-linecap="round"/>
<path d="M139.497 84.9077C140.883 85.6329 143.1 87.5603 143.1 90.6868C143.1 92.5583 143.102 106.264 143.1 113.284" stroke="#03224C" stroke-width="0.504071" stroke-linecap="round"/>
<path d="M109.646 34.288C111.944 32.1941 111.681 29.0948 111.263 27.8069C113.263 28.804 115.664 27.3915 116.615 26.5605C115.368 34.9112 122.473 34.288 126.71 37.5286C130.948 40.7692 127.707 47.6242 127.707 50.7401C127.707 53.856 126.71 57.2212 131.322 69.6849C135.011 79.6559 131.862 87.2172 129.826 89.7515C129.743 88.7128 128.455 85.7382 123.968 82.1486C119.481 78.5591 112.55 78.1602 109.646 78.4095V72.4269L104.525 69.6849C104.65 65.198 102.406 65.4473 100.412 61.085C98.8165 57.5951 99.7471 52.7343 100.412 50.7401C100.163 51.4048 98.8423 54.0555 95.5519 59.3401C91.4389 65.9458 85.4662 64.9487 87.9589 57.2212C90.4516 49.4937 94.4337 40.5199 98.9207 37.5286C103.408 34.5373 106.773 36.9054 109.646 34.288Z" fill="white" stroke="#03224C" stroke-width="0.504071"/>
<path d="M111.74 31.8057C112.447 32.1849 114.545 32.7159 117.278 31.8057" stroke="#03224C" stroke-width="0.504071"/>
<path d="M110.211 11.1642C112.151 8.56786 114.959 7.27045 116.12 6.94629C118.999 10.5969 120.517 13.0682 121.502 13.0682C122.488 13.0682 123.918 13.8255 123.676 16.3565C123.433 18.8876 122.336 19.304 121.502 19.1959C120.491 22.7112 115.654 29.338 110.968 27.3893C106.282 25.4406 105.082 18.9254 105.21 16.3565C106.877 15.6264 107.787 14.4096 110.211 11.1642Z" fill="white" stroke="#03224C" stroke-width="0.504071"/>
<ellipse opacity="0.1" cx="91.6218" cy="135.389" rx="66.4302" ry="14.1247" fill="white"/>
<path d="M107.967 127.272C107.876 126.271 107.052 121.208 106.652 118.802L115.075 112.627C114.58 115.162 113.512 120.694 113.208 122.536C112.828 124.84 113.233 125.213 113.282 126.563C113.331 127.913 112.784 127.979 112.573 128.76C112.361 129.54 113.532 132.547 112.977 133.015C112.422 133.482 110.881 134.622 108.94 134.622C106.185 134.622 105.193 132.077 105.477 131.198C105.761 130.32 108.08 128.522 107.967 127.272Z" fill="white" stroke="#03224C" stroke-width="0.504071"/>
<path d="M103.061 133.042C103.508 131.657 105.523 129.43 106.927 128.394L105.151 131.661L107.575 134.948L112.749 133.043L112.823 129.493C114.144 130.754 116.22 133.808 113.959 135.937C111.132 138.599 109.044 138.941 107.591 138.582C104.919 137.923 102.446 134.949 103.061 133.042Z" fill="#03224C"/>
<path d="M129.642 126.273C129.653 125.273 129.54 110.864 129.749 108.442L119.666 110.533C120.36 113.01 123.598 120.196 124.046 122C124.607 124.256 124.233 124.66 124.29 126.004C124.348 127.349 124.898 127.369 125.171 128.127C125.443 128.884 124.513 131.966 125.103 132.385C125.693 132.803 127.137 134.048 129.252 133.65C131.955 133.141 132.784 130.817 132.432 129.968C132.079 129.119 129.627 127.523 129.642 126.273Z" fill="white" stroke="#03224C" stroke-width="0.504071"/>
<path d="M135.43 132.369C134.983 130.985 132.968 128.758 131.564 127.721L133.34 130.989L130.233 133.804L125.742 132.371L125.668 128.821C124.347 130.081 122.517 132.902 124.532 135.265C126.599 137.687 129.596 138.048 131.199 137.687C133.885 137.083 136.045 134.276 135.43 132.369Z" fill="#03224C"/>
<path d="M95.7301 87.2889C93.3908 81.6595 96.7049 74.9144 98.6543 72.2455L115.63 67.1498C129.211 65.791 136.171 74.8335 137.953 79.5245C140.671 91.3655 144.726 114.623 152.087 120.447C151.601 121.255 152.431 126.075 145.717 123.909C137.131 121.139 142.036 116.473 137.953 119.561C133.669 122.801 128.537 118.689 126.549 116.892C123.283 113.938 116.224 117.776 113.312 121.416C110.983 124.328 102.372 130.417 91.4381 123.909C92.6513 113.96 98.6543 94.3258 95.7301 87.2889Z" fill="#FE3945" stroke="#03224C" stroke-width="0.504071"/>
<path d="M116.764 79.825C116.764 80.8282 115.913 81.9722 113.883 83.1441C111.899 84.2892 108.986 85.3417 105.331 86.2338C98.0328 88.0155 87.9169 89.124 76.7204 89.124C65.5238 89.124 55.408 88.0155 48.1093 86.2338C44.455 85.3417 41.5422 84.2892 39.5582 83.1441C37.5276 81.9722 36.677 80.8282 36.677 79.825C36.677 78.8218 37.5276 77.6779 39.5582 76.5059C41.5422 75.3608 44.455 74.3083 48.1093 73.4163C55.408 71.6345 65.5238 70.5261 76.7204 70.5261C87.9169 70.5261 98.0328 71.6345 105.331 73.4163C108.986 74.3083 111.899 75.3608 113.883 76.5059C115.913 77.6779 116.764 78.8218 116.764 79.825Z" fill="#DFDFDF" stroke="#03224C" stroke-width="1.26018"/>
<path d="M116.764 75.6439C116.764 76.6471 115.914 77.791 113.883 78.963C111.899 80.1081 108.986 81.1606 105.332 82.0527C98.0334 83.8344 87.9175 84.9428 76.721 84.9428C65.5244 84.9428 55.4086 83.8344 48.1099 82.0527C44.4556 81.1606 41.5428 80.1081 39.5588 78.963C37.5282 77.791 36.6776 76.6471 36.6776 75.6439C36.6776 74.6407 37.5282 73.4967 39.5588 72.3248C41.5428 71.1797 44.4556 70.1272 48.1099 69.2351C55.4086 67.4534 65.5244 66.3449 76.721 66.3449C87.9175 66.3449 98.0334 67.4534 105.332 69.2351C108.986 70.1272 111.899 71.1797 113.883 72.3248C115.914 73.4967 116.764 74.6407 116.764 75.6439Z" fill="white" stroke="#03224C" stroke-width="1.26018"/>
<path d="M94.2931 127.106C94.2931 127.373 94.0534 127.816 93.1277 128.35C92.2485 128.857 90.9344 129.336 89.2556 129.746C85.908 130.563 81.2505 131.075 76.0831 131.075C70.9156 131.075 66.2581 130.563 62.9105 129.746C61.2318 129.336 59.9176 128.857 59.0384 128.35C58.1127 127.816 57.873 127.373 57.873 127.106C57.873 126.838 58.1127 126.395 59.0384 125.861C59.9176 125.354 61.2318 124.875 62.9105 124.466C66.2581 123.648 70.9156 123.136 76.0831 123.136C81.2505 123.136 85.908 123.648 89.2556 124.466C90.9344 124.875 92.2485 125.354 93.1277 125.861C94.0534 126.395 94.2931 126.838 94.2931 127.106Z" fill="#DFDFDF" stroke="#03224C" stroke-width="1.26018"/>
<path d="M36.0673 79.6264V75.9038L39.5826 77.8961L36.0673 79.6264Z" fill="#03224C"/>
<path d="M117.408 75.6668L117.408 79.8286L113.893 77.6013L117.408 75.6668Z" fill="#03224C"/>
<path d="M75.4452 125.448C75.4452 125.796 75.7273 126.078 76.0753 126.078C76.4233 126.078 76.7054 125.796 76.7054 125.448H75.4452ZM75.4452 88.1895V125.448H76.7054V88.1895H75.4452Z" fill="#03224C"/>
<path d="M100.458 68.2837L107.336 65.9477L120.536 62.917L117.031 67.2385C113.091 70.3703 105.217 72.8709 101.85 73.2071L100.458 68.2837Z" fill="white"/>
<path d="M128.251 47.3768C125.782 57.9823 122.975 61.9662 119.18 65.4065C114.65 69.512 107.257 72.6885 101.978 72.9763L100.692 68.095C105.722 66.5289 110.285 64.6501 112.862 61.9662C114.919 59.8236 116.632 51.8555 117.807 47.0664" stroke="#03224C" stroke-width="0.504071" stroke-linecap="round"/>
<path d="M97.9266 69.0015C97.9266 69.5021 97.6958 69.9988 97.2378 70.4726C96.7786 70.9476 96.1019 71.3869 95.2462 71.7613C93.5356 72.5097 91.1547 72.979 88.5116 72.979C85.8685 72.979 83.4877 72.5097 81.777 71.7613C80.9213 71.3869 80.2447 70.9476 79.7855 70.4726C79.3275 69.9988 79.0966 69.5021 79.0966 69.0015C79.0966 68.5009 79.3275 68.0041 79.7855 67.5303C80.2447 67.0553 80.9213 66.6161 81.777 66.2417C83.4877 65.4932 85.8685 65.024 88.5116 65.024C91.1547 65.024 93.5356 65.4932 95.2462 66.2417C96.1019 66.6161 96.7786 67.0553 97.2378 67.5303C97.6958 68.0041 97.9266 68.5009 97.9266 69.0015Z" fill="white" stroke="#03224C" stroke-width="0.504071"/>
<path d="M94.5427 68.5874C94.5427 68.8366 94.416 69.1003 94.1302 69.3672C93.8441 69.6346 93.4163 69.887 92.8667 70.1042C91.769 70.5381 90.2352 70.8119 88.5283 70.8119C86.8214 70.8119 85.2876 70.5381 84.1899 70.1042C83.6403 69.887 83.2125 69.6346 82.9264 69.3672C82.6406 69.1003 82.5139 68.8366 82.5139 68.5874C82.5139 68.3383 82.6406 68.0746 82.9264 67.8076C83.2125 67.5402 83.6403 67.2878 84.1899 67.0706C85.2876 66.6368 86.8214 66.3629 88.5283 66.3629C90.2352 66.3629 91.769 66.6368 92.8667 67.0706C93.4163 67.2878 93.8441 67.5402 94.1302 67.8076C94.416 68.0746 94.5427 68.3383 94.5427 68.5874Z" fill="white" stroke="#03224C" stroke-width="0.504071"/>
<path d="M88.2674 67.9237C83.062 67.7741 81.4896 63.0872 81.6515 60.8608L95.2223 61.1641C94.9674 63.6183 93.5297 68.0749 88.2674 67.9237Z" fill="white" stroke="#03224C" stroke-width="0.504071"/>
<path d="M95.9089 60.3655C95.9089 60.6918 95.7426 61.0289 95.3854 61.3627C95.0278 61.6969 94.4966 62.0094 93.8191 62.2771C92.4657 62.812 90.5787 63.1484 88.4817 63.1484C86.3846 63.1484 84.4977 62.812 83.1442 62.2771C82.4668 62.0094 81.9356 61.6969 81.5779 61.3627C81.2207 61.0289 81.0544 60.6918 81.0544 60.3655C81.0544 60.0393 81.2207 59.7021 81.5779 59.3683C81.9356 59.0342 82.4668 58.7216 83.1442 58.4539C84.4977 57.919 86.3846 57.5826 88.4817 57.5826C90.5787 57.5826 92.4657 57.919 93.8191 58.4539C94.4966 58.7216 95.0278 59.0342 95.3854 59.3683C95.7426 59.7021 95.9089 60.0393 95.9089 60.3655Z" fill="white" stroke="#03224C" stroke-width="0.504071"/>
<path fill-rule="evenodd" clip-rule="evenodd" d="M81.9343 61.9592C82.8271 60.7371 85.4353 59.8525 88.5139 59.8525C91.5593 59.8525 94.1444 60.7182 95.064 61.9199C93.723 62.8059 91.2712 63.3992 88.4688 63.3992C85.7082 63.3992 83.2878 62.8234 81.9343 61.9592Z" fill="#03224C"/>
<path d="M81.1541 61.4189C80.4889 61.4796 79.339 61.8922 79.3409 63.1532C79.3434 64.7294 81.2888 66.4318 84.0901 66.3073" stroke="#03224C" stroke-width="0.504071"/>
<path d="M78.1347 59.6637C79.1791 59.4177 80.7962 59.6348 81.4927 59.8398C80.5595 60.6064 80.4735 61.0744 80.4389 61.4721C81.8882 62.434 84.7405 64.4886 84.5558 65.0119C84.3249 65.666 81.7856 66.3585 80.9006 66.8972C80.0157 67.4359 77.7072 66.8972 77.13 66.3585C76.5529 65.8199 76.3674 65.0889 76.3674 64.3578C76.3674 63.6268 75.9057 62.6649 76.3674 62.0493C76.8291 61.4337 76.8291 59.9712 78.1347 59.6637Z" fill="white" stroke="#03224C" stroke-width="0.504071"/>
<path d="M95.6406 70.0817C96.8048 69.7123 99.4147 69.0497 100.574 68.7646L101.829 72.4532C100.139 72.6727 96.5354 73.1249 95.6406 73.1776C94.5222 73.2434 94.586 74.4287 93.3349 74.7579C92.0837 75.0872 90.57 73.9677 88.8579 74.7579C87.1458 75.5481 82.8553 76.1408 82.9212 75.2847C82.987 74.4287 88.0614 70.8728 89.576 70.0817C91.0905 69.2906 94.1854 70.5436 95.6406 70.0817Z" fill="white" stroke="#03224C" stroke-width="0.504071"/>
<path d="M84.8779 55.7937C84.124 55.1233 82.9508 52.7098 84.2898 48.418" stroke="#03224C" stroke-width="0.504071" stroke-linecap="round"/>
<path d="M87.024 53.1661C86.5927 52.2541 86.4583 49.5739 89.371 46.1491" stroke="#03224C" stroke-width="0.504071" stroke-linecap="round"/>
<path d="M110.174 10.9856C111.789 8.16217 114.691 6.88913 115.941 6.60554L120.437 12.8164L122.856 13.2086L124.032 15.6271L123.444 18.4377L121.352 19.2875L120.437 22.0328L116.777 26.5429V30.4648L119.261 33.9291L125.339 36.0861C127.823 33.2755 124.62 27.6532 124.032 23.4708C123.444 19.2884 128.346 14.7764 127.104 10.0057C126.111 6.18919 121.897 4.36214 119.914 3.92569C116.45 -1.49956 106.746 1.40244 104.528 5.83941C102.91 9.07623 102.647 9.79248 99.9841 14.7764C97.5646 19.3045 101.155 22.5548 103.05 27.6532C104.567 31.7319 101.638 35.5405 99.9841 36.9349C98.9804 38.4819 97.3783 42.0726 98.9993 44.0597C101.026 46.5435 104.37 45.6284 104.435 42.4909C104.5 39.3534 107.442 36.1506 109.01 35.0394C110.579 33.9282 111.364 31.2482 111.364 29.8102C111.364 28.6598 110.972 27.8929 110.776 27.6532C105.913 25.3001 104.78 19.2648 104.822 16.5412C105.933 15.8658 108.559 13.8091 110.174 10.9856Z" fill="#03224C"/>
<path d="M24.8616 89.9717C25.7814 90.4693 27.5984 92.1548 27.508 94.9154C27.4176 97.6759 27.4703 110.096 27.508 115.961" stroke="#03224C" stroke-width="0.504071" stroke-linecap="round"/>
<path d="M1.06747 61.5442C2.58253 68.8693 8.66832 73.7133 14.5864 72.4893C20.5045 71.2652 24.1693 64.4044 22.6543 57.0794C21.1392 49.7543 15.0534 44.9102 9.13534 46.1343C3.21725 47.3583 -0.447593 54.2191 1.06747 61.5442Z" fill="white" stroke="#03224C" stroke-width="0.504071" stroke-linecap="round"/>
<path d="M6.12351 89.3425C6.12351 90.1059 6.53773 90.8638 7.35441 91.5834C8.1707 92.3027 9.36635 92.962 10.8655 93.5207C13.8619 94.6375 18.0183 95.3334 22.6216 95.3334C27.225 95.3334 31.3814 94.6375 34.3778 93.5207C35.8769 92.962 37.0726 92.3027 37.8889 91.5834C38.7056 90.8638 39.1198 90.1059 39.1198 89.3425C39.1198 88.5791 38.7056 87.8212 37.8889 87.1016C37.0726 86.3823 35.8769 85.723 34.3778 85.1643C31.3814 84.0475 27.225 83.3516 22.6216 83.3516C18.0183 83.3516 13.8619 84.0475 10.8655 85.1643C9.36635 85.723 8.1707 86.3823 7.35441 87.1016C6.53773 87.8212 6.12351 88.5791 6.12351 89.3425Z" fill="white" stroke="#03224C" stroke-width="0.504071" stroke-linecap="round"/>
<path d="M14.9592 72.5923L17.7853 84.2582" stroke="#03224C" stroke-width="0.504071" stroke-linecap="round"/>
<path d="M38.0443 91.5356C38.9641 92.0333 40.7811 93.7187 40.6907 96.4793C40.6003 99.2399 40.6531 114.757 40.6907 120.621" stroke="#03224C" stroke-width="0.504071" stroke-linecap="round"/>
<path d="M19.1217 94.583C17.7351 95.3082 15.5179 97.2356 15.5179 100.362C15.5179 102.234 15.516 116.742 15.5179 123.762" stroke="#03224C" stroke-width="0.504071" stroke-linecap="round"/>
<path d="M7.19702 90.8501C5.81044 91.5753 3.59326 93.5027 3.59326 96.6292C3.59326 98.5007 3.59129 112.206 3.59326 119.226" stroke="#03224C" stroke-width="0.504071" stroke-linecap="round"/>
</g>
<defs>
<clipPath id="clip0">
<rect width="153" height="140" fill="white"/>
</clipPath>
</defs>
</svg>
