<svg width="229" height="207" viewBox="0 0 229 207" fill="none" xmlns="http://www.w3.org/2000/svg">
<g clip-path="url(#clip0)">
<path d="M23.1263 160.521C23.1263 161.113 23.4067 161.721 24.0024 162.319C24.6002 162.92 25.4902 163.484 26.6297 163.969C28.9068 164.937 32.0874 165.548 35.6268 165.548C39.1661 165.548 42.3467 164.937 44.6238 163.969C45.7633 163.484 46.6533 162.92 47.2511 162.319C47.8468 161.721 48.1272 161.113 48.1272 160.521C48.1272 159.928 47.8468 159.321 47.2511 158.722C46.6533 158.121 45.7633 157.557 44.6238 157.072C42.3467 156.104 39.1661 155.493 35.6268 155.493C32.0874 155.493 28.9068 156.104 26.6297 157.072C25.4902 157.557 24.6002 158.121 24.0024 158.722C23.4067 159.321 23.1263 159.928 23.1263 160.521Z" fill="#F1F1F1" stroke="#03224C"/>
<path d="M35.6797 158.687V46.6064" stroke="#03224C" stroke-linecap="round"/>
<path d="M36.837 53.8963L43.9263 49.6792L34.8405 46.6525L27.5623 50.8598L36.837 53.8963Z" fill="#F1F1F1" stroke="#03224C" stroke-linejoin="round"/>
<path d="M37.4285 51.4409L48.3384 44.9511L34.356 40.2933L23.1554 46.7679L37.4285 51.4409Z" fill="#F1F1F1" stroke="#03224C" stroke-linejoin="round"/>
<path d="M33.0164 8.06885L33.9309 39.7676" stroke="#03224C"/>
<path d="M56.553 18.6758L47.9695 44.6268L37.5103 50.6957L40.8588 26.8379L56.553 18.6758Z" fill="white" stroke="#03224C"/>
<path d="M40.0276 27.4652L36.673 50.2758L23.5859 45.8774L15.1022 19.6206L40.0276 27.4652Z" fill="#F4D8CD" stroke="#03224C"/>
<path d="M38.7464 26.5455L58.7349 15.8483L33.4163 7.23081L12.7368 18.03L38.7464 26.5455Z" fill="#F1F1F1" stroke="#03224C" stroke-linejoin="round"/>
<path d="M37.7926 18.6756L51.4028 11.3919L34.1633 5.52416L20.0825 12.8774L37.7926 18.6756Z" fill="#F1F1F1" stroke="#03224C" stroke-linejoin="round"/>
<path d="M35.7439 10.634V0.414062" stroke="#03224C" stroke-linecap="round"/>
<ellipse opacity="0.1" cx="178.772" cy="172.632" rx="50.3915" ry="19.6087" fill="#141414"/>
<path d="M138.751 143.682C142.715 137.128 149.927 138.538 153.038 140.062C154.298 140.679 155.972 141.653 159.256 147.307C164.41 156.18 173.04 141.075 179.072 137.962C183.897 135.472 188.476 135.887 190.163 136.406C195.805 126.482 190.163 110.332 193.665 117.531C196.467 123.291 194.832 133.551 193.665 137.962C195.092 139.259 198.023 143.286 198.335 149.016C198.646 154.747 203.035 156.647 206.862 157.689C203.943 159.574 202.031 157.419 200.475 161.894C198.918 166.369 195.416 171.234 190.163 171.234C184.909 171.234 177.126 167.342 173.04 175.32C168.954 183.297 165.257 183.297 160.004 182.13L159.854 182.096C154.731 180.958 153.693 180.727 146.528 183.067C139.821 185.257 137.911 180.452 135.511 177.728C138.751 176.36 140.96 173.798 142.751 171.234C147.486 164.451 142.751 159.304 141.672 159.304C140.593 159.304 136.928 161.403 134.263 160.57C132.131 159.905 133.375 156.879 134.263 155.449C125.995 154.962 124.648 147.828 126.176 149.016C127.891 150.35 133.797 151.874 138.751 143.682Z" fill="#FFF3EE"/>
<path d="M135.511 155.472C136.171 155.458 136.869 155.404 137.608 155.304C138.75 155.05 141.379 154.313 142.751 153.398C141.354 155.558 137.95 159.762 135.511 159.304C133.072 158.847 134.495 156.559 135.511 155.472ZM135.511 155.472C135.079 155.481 134.663 155.473 134.263 155.449M134.263 155.449C125.995 154.962 124.648 147.828 126.176 149.016C127.891 150.35 133.797 151.874 138.751 143.682C142.715 137.128 149.927 138.538 153.038 140.062C154.298 140.679 155.972 141.653 159.256 147.307C164.41 156.18 173.04 141.075 179.072 137.962C183.897 135.472 188.476 135.887 190.163 136.406C195.805 126.482 190.163 110.332 193.665 117.531C196.467 123.291 194.832 133.551 193.665 137.962C195.092 139.259 198.023 143.286 198.335 149.016C198.646 154.747 203.035 156.647 206.862 157.689C203.943 159.574 202.031 157.419 200.475 161.894C198.918 166.369 195.416 171.234 190.163 171.234C184.909 171.234 177.126 167.342 173.04 175.32C168.954 183.297 165.257 183.297 160.004 182.13C154.751 180.962 153.762 180.704 146.528 183.067C139.821 185.257 137.911 180.452 135.511 177.728C138.751 176.36 140.96 173.798 142.751 171.234C147.486 164.451 142.751 159.304 141.672 159.304C140.593 159.304 136.928 161.403 134.263 160.57C132.131 159.905 133.375 156.879 134.263 155.449Z" stroke="black" stroke-width="0.68655"/>
<path d="M151.174 157.959C148.503 160.064 145.004 161.197 143.589 161.5L144.296 163.827C149.233 162.774 152.288 160.286 153.198 159.173C152.065 159.173 151.377 158.364 151.174 157.959Z" fill="#03224C"/>
<path d="M160.752 149.208C160.364 149.7 159.36 150.908 158.906 151.45C159.257 152.47 159.317 153.955 159.303 154.57C160.955 153.093 162.54 151.025 163.126 150.175C162.318 150.175 161.206 149.53 160.752 149.208Z" fill="#03224C"/>
<path d="M129.785 160.934C129.211 158.74 132.721 156.544 134.549 155.721C135.698 155.721 137.726 155.301 138.596 155.091C132.528 157.384 130.504 163.677 129.785 160.934Z" fill="#FE3945" stroke="black" stroke-width="0.68655"/>
<path d="M128.474 150.141C128.349 151.375 127.394 151.785 126.931 151.836C125.829 151.027 125.708 149.528 125.785 148.88L128.474 150.141Z" fill="#03224C"/>
<path d="M146.542 145.049C147.287 145.364 148.845 146.51 149.119 148.57C149.462 151.146 149.118 159.906 154.7 159.219C160.282 158.532 159.766 152.95 157.963 149.686C156.52 147.076 155.186 144.992 154.7 144.276" stroke="black" stroke-width="0.68655" stroke-linecap="round" stroke-linejoin="round"/>
<ellipse opacity="0.1" cx="50.6703" cy="184.832" rx="50.3915" ry="19.6087" fill="#141414"/>
<path d="M68.4192 172.34C68.5566 173.214 69.2178 175.127 70.7633 175.788C72.6952 176.615 80.6943 179.236 77.3843 181.029C74.0743 182.822 68.006 182.132 65.7993 181.029C63.5927 179.925 62.0746 175.788 60.1437 174.685C58.7917 173.912 58.2584 173.75 58.1163 173.767C58.1035 173.772 58.0907 173.778 58.0781 173.784C58.0837 173.775 58.096 173.769 58.1163 173.767C60.1471 172.874 64.9866 171.364 68.4192 172.34Z" fill="#03224C"/>
<path d="M52.2279 183.003C49.9326 182.121 46.4186 177.488 44.9485 175.282C51.4493 176.919 55.831 175.351 57.2093 174.363C57.6817 175.405 58.8913 177.577 59.9502 177.929C61.2738 178.371 68.9949 183.003 67.2301 184.327C65.4652 185.65 55.0969 184.106 52.2279 183.003Z" fill="#03224C"/>
<path d="M100.758 128.625C98.0893 123.618 94.0825 119.307 92.4128 117.777L73.3269 119.202L66.8655 131.575L85.9766 141.165C88.191 140.736 90.3036 138.36 90.6011 137.318C95.4229 140.89 105.602 142.855 114.353 142.855C120.951 142.855 125.891 140.629 130.981 141.165C136.07 141.701 136.107 141.165 139.177 145.623C141.899 149.576 142.476 147.589 140.15 141.581C139.181 137.704 143.833 143.713 148.872 144.294C153.912 144.876 147.278 137.318 144.575 135.717C142.953 134.757 137.711 132.643 135.583 132.643C132.198 132.643 129.961 134.466 122.451 135.717C114.942 136.969 104.095 134.883 100.758 128.625Z" fill="white" stroke="#03224C" stroke-width="0.593645"/>
<path fill-rule="evenodd" clip-rule="evenodd" d="M71.5861 133.948L85.9736 141.167C88.1881 140.739 90.3006 138.363 90.5981 137.321C92.8611 138.997 96.3042 140.319 100.226 141.251C102.272 137.474 102.96 134.014 103.048 131.455C102.103 130.629 101.321 129.688 100.755 128.627C98.0863 123.621 94.0796 119.309 92.4098 117.78L73.3239 119.205L68.3606 128.709L71.5861 133.948Z" fill="#FE3945"/>
<path d="M71.5861 133.948L71.3334 134.104L71.3776 134.176L71.453 134.213L71.5861 133.948ZM85.9736 141.167L85.8405 141.433L85.9308 141.478L86.03 141.459L85.9736 141.167ZM90.5981 137.321L90.7748 137.082L90.4304 136.827L90.3127 137.239L90.5981 137.321ZM100.226 141.251L100.157 141.54L100.379 141.592L100.487 141.392L100.226 141.251ZM103.048 131.455L103.344 131.465L103.349 131.324L103.243 131.231L103.048 131.455ZM100.755 128.627L101.017 128.487L101.017 128.487L100.755 128.627ZM92.4098 117.78L92.6103 117.561L92.5157 117.474L92.3877 117.484L92.4098 117.78ZM73.3239 119.205L73.3018 118.909L73.1372 118.921L73.0608 119.067L73.3239 119.205ZM68.3606 128.709L68.0975 128.572L68.0194 128.721L68.1078 128.865L68.3606 128.709ZM71.453 134.213L85.8405 141.433L86.1067 140.902L71.7192 133.683L71.453 134.213ZM86.03 141.459C87.2127 141.23 88.343 140.489 89.2061 139.692C89.6404 139.291 90.0146 138.869 90.3012 138.476C90.5839 138.089 90.7951 137.712 90.8835 137.402L90.3127 137.239C90.2524 137.451 90.088 137.761 89.8217 138.126C89.5593 138.485 89.2112 138.879 88.8033 139.256C87.9822 140.014 86.9489 140.676 85.9172 140.876L86.03 141.459ZM90.4214 137.559C92.7317 139.271 96.2202 140.605 100.157 141.54L100.294 140.962C96.3882 140.034 92.9905 138.724 90.7748 137.082L90.4214 137.559ZM100.487 141.392C102.556 137.573 103.256 134.067 103.344 131.465L102.751 131.445C102.665 133.96 101.988 137.375 99.9649 141.109L100.487 141.392ZM103.243 131.231C102.321 130.426 101.564 129.512 101.017 128.487L100.493 128.767C101.079 129.864 101.885 130.833 102.852 131.678L103.243 131.231ZM101.017 128.487C98.3281 123.443 94.2972 119.106 92.6103 117.561L92.2093 117.999C93.8619 119.513 97.8445 123.798 100.493 128.767L101.017 128.487ZM92.3877 117.484L73.3018 118.909L73.346 119.501L92.4319 118.076L92.3877 117.484ZM73.0608 119.067L68.0975 128.572L68.6237 128.847L73.587 119.342L73.0608 119.067ZM68.1078 128.865L71.3334 134.104L71.8389 133.792L68.6134 128.554L68.1078 128.865Z" fill="#03224C"/>
<path d="M93.4159 111.045C93.1508 120.341 87.7531 134.102 77.8716 125.815C75.1416 123.525 73.364 121.539 72.1411 119.524C73.1243 124.21 72.6952 127.624 71.3404 130.055C77.4312 131.626 82.2674 134.899 83.6647 137.021C87.4602 142.783 88.8592 147.987 92.1299 153.566C94.8005 158.122 87.7732 158.301 84.4164 151.38C84.9748 152.826 85.6738 154.109 86.5662 154.968C92.5342 160.717 95.6077 163.606 97.9164 166.172C97.3392 166.684 87.4489 172.305 80.2686 174.152C71.2932 176.461 68.2735 168.188 57.692 174.152C49.2268 178.923 40.8978 173.597 37.7915 170.338C37.7044 170.328 37.6173 170.317 37.5301 170.306C19.3073 168.446 5.61413 155.641 19.706 135.747C35.962 112.797 59.577 109.716 69.3524 111.045C68.3241 105.137 69.9212 99.6797 74.2917 96.3025C83.0571 89.5292 93.4159 98.2953 93.4159 111.045Z" fill="white"/>
<path d="M69.3524 111.045C70.3865 116.985 71.6784 120.621 77.8716 125.815C87.7531 134.102 93.1508 120.341 93.4159 111.045C93.4159 98.2953 83.0571 89.5292 74.2917 96.3025C69.9212 99.6797 68.3241 105.137 69.3524 111.045ZM69.3524 111.045C59.577 109.716 35.962 112.797 19.706 135.747C5.61413 155.641 19.3073 168.446 37.5301 170.306M69.3524 111.045C80.7377 137.757 60.1662 137.184 48.4573 133.558C53.0746 131.198 57.0104 129.298 67.1795 129.298M37.5301 170.306C45.5838 171.129 54.5223 169.813 62.3379 166.028C58.7908 168.016 48.9508 171.637 37.7915 170.338M37.5301 170.306C37.6173 170.317 37.7044 170.328 37.7915 170.338M37.7915 170.338C40.8978 173.597 49.2268 178.923 57.692 174.152C68.2735 168.188 71.2932 176.461 80.2686 174.152C87.4489 172.305 97.3392 166.684 97.9164 166.172C95.6077 163.606 92.5342 160.717 86.5662 154.968C84.5402 153.017 83.511 148.884 82.8614 145.609M67.1795 129.298C68.5903 127.367 73.6638 119.013 68.123 116.088C61.197 112.433 37.7915 130.48 37.7915 137.021C37.7915 140.992 42.9087 140.945 46.341 140.484C50.6377 139.907 61.6937 138.406 71.5441 137.021C79.126 135.955 81.8204 140.359 82.8614 145.609M67.1795 129.298C75.147 130.136 81.9613 134.435 83.6647 137.021C87.4602 142.783 88.8592 147.987 92.1299 153.566C95.4005 159.146 84.1261 158.16 82.8614 145.609" stroke="#03224C" stroke-width="0.593645"/>
<path d="M93.4159 111.234C93.1507 120.53 87.958 134.306 78.0766 126.018C71.8834 120.825 70.3865 117.174 69.3524 111.234C59.5769 109.905 35.962 112.986 19.706 135.936C5.61413 155.83 19.3073 168.635 37.5301 170.495C45.5838 171.318 54.5223 170.002 62.3379 166.217C58.7908 168.205 48.9508 171.826 37.7915 170.527C40.8978 173.786 49.2268 179.112 57.692 174.341C68.2734 168.377 71.2932 176.65 80.2686 174.341C87.4489 172.494 97.4483 166.729 98.0255 166.217C95.7168 163.651 94.3751 162.511 87.6086 156.224C85.0633 153.859 84.0965 151.564 83.5556 149.352C83.2339 148.289 82.9932 147.106 82.8614 145.798C81.8203 140.548 79.1259 136.144 71.5441 137.21C61.6937 138.595 50.6377 140.096 46.341 140.673C42.622 141.172 37.7915 140.673 37.7915 137.21C37.7915 130.668 61.1969 112.622 68.123 116.277C73.6638 119.202 68.5903 127.556 67.1795 129.487C75.147 130.325 81.9613 134.624 83.6647 137.21C87.4602 142.972 88.8592 148.176 92.1298 153.755C95.0595 158.753 86.319 158.483 83.5556 149.352C84.0965 151.564 85.0633 153.859 87.6086 156.224C94.3751 162.511 95.7168 163.651 98.0255 166.217C97.4483 166.729 87.4489 172.494 80.2686 174.341C71.2932 176.65 68.2734 168.377 57.692 174.341C49.2268 179.112 40.8978 173.786 37.7915 170.527C37.7044 170.517 37.6173 170.506 37.5301 170.495C19.3073 168.635 5.61413 155.83 19.706 135.936C35.962 112.986 59.5769 109.905 69.3524 111.234C68.3241 105.326 69.9212 99.8687 74.2916 96.4915C83.0571 89.7182 93.4159 98.4843 93.4159 111.234Z" fill="white"/>
<path d="M69.3524 111.234C70.3865 117.174 71.8834 120.825 78.0766 126.018C87.958 134.306 93.1507 120.53 93.4159 111.234C93.4159 98.4843 83.0571 89.7182 74.2917 96.4915C69.9212 99.8687 68.3241 105.326 69.3524 111.234ZM69.3524 111.234C59.5769 109.905 35.962 112.986 19.706 135.936C5.61413 155.83 19.3073 168.635 37.5301 170.495M37.5301 170.495C45.5838 171.318 54.5223 170.002 62.3379 166.217C58.7908 168.205 48.9508 171.826 37.7915 170.527M37.5301 170.495C37.6173 170.506 37.7044 170.517 37.7915 170.527M37.7915 170.527C40.8978 173.786 49.2268 179.112 57.692 174.341C68.2734 168.377 71.2932 176.65 80.2686 174.341C87.4489 172.494 97.4483 166.729 98.0255 166.217C95.7168 163.651 94.3751 162.511 87.6086 156.224C83.6703 152.564 83.511 149.073 82.8614 145.798M67.1795 129.487C68.5903 127.556 73.6638 119.202 68.123 116.277C61.1969 112.622 37.7915 130.668 37.7915 137.21C37.7915 140.673 42.622 141.172 46.341 140.673C50.6377 140.096 61.6937 138.595 71.5441 137.21C79.1259 136.144 81.8203 140.548 82.8614 145.798M67.1795 129.487C57.0104 129.487 53.0746 131.387 48.4572 133.747M67.1795 129.487C75.147 130.325 81.9613 134.624 83.6647 137.21C87.4602 142.972 88.8592 148.176 92.1298 153.755C95.4005 159.335 84.1261 158.349 82.8614 145.798" stroke="#03224C" stroke-width="0.593645"/>
<path d="M37.826 138.1C27.6986 139.204 23.245 134.799 22.2842 132.459C24.3455 130.002 29.3423 125.17 31.583 123.062C32.0448 122.6 33.78 121.419 37.026 120.39C41.0834 119.103 41.9741 120.984 49.7922 119.302C57.6102 117.619 61.0739 112.769 68.0827 116.134C73.6898 118.826 70.419 126.143 68.0827 129.466C64.9819 129.443 61.1588 129.697 59.6349 129.827C57.9303 128.524 50.4853 126.444 46.9759 125.566C38.5533 132.184 37.3666 136.68 37.826 138.1Z" fill="#FE3945" stroke="#03224C" stroke-width="0.593645"/>
<path d="M80.0264 107.625C81.211 103.638 85.6401 102.192 87.7065 101.967C95.3867 109.241 90.5347 120.019 91.8819 123.656C93.229 127.294 92.9596 133.221 91.8819 140.361C90.8041 147.501 94.1721 149.926 96.4622 147.232C98.7524 144.537 98.483 136.455 95.6539 130.392C92.8249 124.33 97.2705 118.537 98.483 113.148C99.6954 107.76 92.8249 105.335 92.9596 100.755C93.0943 96.1744 87.7065 93.3457 82.7212 92.268C77.7358 91.1903 76.2548 94.0188 69.1148 95.366C61.9749 96.7131 58.607 102.641 55.9126 106.817C53.2183 110.993 47.964 110.319 38.6686 113.148C29.3732 115.978 27.8923 122.309 31.5296 122.713C35.1669 123.117 36.3459 120.4 41.4651 120.804C46.5844 121.209 51.9313 118.769 58.7092 116.573C68.0907 113.532 70.036 116.49 70.8416 119.604C71.5404 122.305 68.5682 127.859 67.8051 129.116C67.8051 129.116 69.2445 129.303 71.0291 129.682C72.8136 130.062 74.2347 130.783 74.2347 130.783C74.6837 129.302 75.3124 124.761 74.2347 120.019C72.8875 114.092 78.5456 112.61 80.0264 107.625Z" fill="#141414"/>
</g>
<defs>
<clipPath id="clip0">
<rect width="229" height="207" fill="white"/>
</clipPath>
</defs>
</svg>
