<svg width="129" height="207" viewBox="0 0 129 207" fill="none" xmlns="http://www.w3.org/2000/svg">
<ellipse opacity="0.1" cx="47.8326" cy="188.053" rx="47.2531" ry="18.3874" fill="#141414"/>
<path d="M62.9267 14.0825C63.0796 17.695 64.084 26.8129 61.4884 30.9005C58.8927 34.9881 55.1829 35.7817 53.4281 35.472C52.9129 37.7429 52.1915 42.6873 53.4281 44.2976C54.9739 46.3104 60.1942 44.4194 64.7229 48.3397C69.4691 52.4483 68.8378 58.1368 71.6703 64.7933C73.6175 69.3692 79.6162 71.447 85.1093 70.0418C90.5753 68.6435 94.5062 65.2519 97.2416 61.0198H113.964C112.372 63.09 105.825 65.9575 99.6123 65.5722C98.741 67.3238 96.9721 69.0937 95.8374 71.4753V72.6171C95.9095 73.0951 95.9879 73.5781 95.8374 73.8553C94.9601 75.4714 93.9678 76.9179 92.8137 77.8767C92.0711 78.4935 90.9443 77.3293 90.1524 77.8767C85.4894 81.1003 79.7213 81.7145 74.7858 81.3443C70.9665 81.0579 63.6063 78.8156 60.1942 73.8553C61.4625 78.8314 64.7229 96.2281 64.7229 102.361H40.6586L38.0098 92.915L33.3008 102.361L22.4623 99.0102C23.1895 88.9355 25.8579 67.6611 30.7135 55.3784C36.783 40.0249 39.7914 46.2362 41.635 28.3472L62.9267 14.0825Z" fill="white"/>
<path d="M95.8374 73.8553C94.9601 75.4714 93.9678 76.9179 92.8137 77.8767C92.0711 78.4935 90.9443 77.3293 90.1524 77.8767C85.4894 81.1003 79.7213 81.7145 74.7858 81.3443C70.9665 81.0579 63.6063 78.8156 60.1942 73.8553C61.4625 78.8314 64.7229 96.2281 64.7229 102.361C59.6713 102.361 45.0457 102.361 40.6586 102.361L38.0098 92.915L33.3009 102.361L22.4623 99.0102C23.1895 88.9355 25.8579 67.6611 30.7135 55.3784C36.783 40.0249 39.7914 46.2362 41.635 28.3472L62.9267 14.0825C63.0796 17.695 64.084 26.8129 61.4884 30.9005C58.8927 34.9881 55.1829 35.7817 53.4281 35.472C52.9129 37.7429 52.1915 42.6873 53.4281 44.2976C54.9739 46.3104 60.1942 44.4194 64.7229 48.3397C69.4691 52.4483 68.8378 58.1368 71.6703 64.7933C73.6175 69.3692 79.6162 71.447 85.1093 70.0418C90.5753 68.6435 94.5062 65.2519 97.2416 61.0198H113.964C112.372 63.09 105.825 65.9575 99.6123 65.5722C98.741 67.3238 96.9721 69.0937 95.8374 71.4753M95.8374 73.8553C96.1263 73.3231 95.5717 72.0329 95.8374 71.4753M95.8374 73.8553V71.4753" stroke="#03224C" stroke-width="0.656194" stroke-linejoin="round"/>
<path d="M38.3233 40.855C39.5646 41.9255 44.0968 43.9287 52.2951 43.3777M36.646 44.1408C39.238 46.2805 47.8472 48.466 55.9781 45.5927" stroke="#03224C" stroke-width="0.656194"/>
<path d="M62.7133 14.4108C68.6635 7.35017 60.7551 2.9022 56.0571 1.56078C53.9391 1.25072 48.4026 0.816637 43.2001 1.56078C36.697 2.49097 38.2532 7.13368 34.988 12.0884C31.7227 17.0431 35.1565 22.6172 38.2532 25.5591C40.7306 27.9125 41.7615 31.3912 41.9672 32.8363C44.855 32.0105 50.9092 29.1822 52.024 24.4752C53.4175 18.5915 55.2756 23.2365 62.7133 14.4108Z" fill="#03224C" stroke="#03224C" stroke-width="1.64049"/>
<path d="M70.5746 170.206C54.9773 130.249 61.2863 125.833 43.3938 120.48C43.8514 128.626 40.8354 138.523 37.4 142.457C33.9646 146.391 20.3259 166.668 15.5586 174.403C10.0259 174.649 7.57578 173.026 7.47144 172.155C11.2111 159.45 21.0398 131.386 21.4086 128.682C21.7775 125.977 20.9744 108.601 23.4175 99.4391L33.8878 101.969L38.0759 92.2827L40.5189 101.969H63.2046C80.1801 123.836 79.115 151.708 77.9201 168.407C76.8135 170.989 72.0115 170.309 70.5746 170.206Z" fill="#03224C"/>
<path d="M84.1617 70.3058L91.9876 77.7555L92.6894 77.9469L95.8155 73.3321L89.68 68.1113L84.1617 70.3058Z" stroke="#03224C" stroke-width="0.656194" stroke-linejoin="round"/>
<path d="M3.4744 181.565C3.47948 179.245 7.50093 173.952 8.14388 172.904L15.0924 174.249C13.8526 179.002 19.6044 183.695 24.5639 185.141C28.5314 186.299 27.2982 188.733 27.7184 189.827H12.0044C8.14388 187.645 3.46932 183.886 3.4744 181.565Z" fill="#03224C"/>
<path d="M70.2813 174.681C68.1414 172.879 69.3897 169.429 70.2813 167.929C75.1621 161.786 87.8131 152.679 90.551 155.689C95.0394 160.624 86.4712 167.365 84.0795 169.475C81.6879 171.585 72.9561 176.933 70.2813 174.681Z" fill="#03224C"/>
<path d="M55.0485 22.126C54.8205 23.3407 55.3236 27.2573 56.484 27.9301C57.5418 28.5434 58.0889 27.4939 58.2376 27.2371" stroke="#03224C" stroke-width="0.656194"/>
<circle cx="91.7066" cy="73.773" r="0.818395" fill="#03224C"/>
<path d="M79.99 60.2529H127.583" stroke="#03224C" stroke-width="0.656194" stroke-linecap="round"/>
<path d="M88.7381 42.2073C87.4527 41.9204 85.8632 42.4705 85.2292 42.7815H85.0529L86.4831 47.178L91.346 48.644L94.9932 47.178L96.9956 44.3532L96.1732 42.7815C94.0635 44.0703 90.3449 42.566 88.7381 42.2073Z" fill="#FE3945"/>
<path d="M86.273 58.7289H91.3981M96.5232 58.7289H91.3981M91.3981 58.7289V48.9716M91.3981 48.9716C83.8989 48.9716 84.8777 41.5122 86.4628 38.3999M91.3981 48.9716C97.3377 48.9716 98.6011 43.6367 95.4942 38.1846" stroke="#03224C" stroke-width="0.656194" stroke-linecap="round"/>
<path d="M96.253 38.3989C96.253 39.0356 95.7626 39.6886 94.7982 40.2019C93.8481 40.7075 92.5128 41.0302 91.02 41.0302C89.5272 41.0302 88.192 40.7075 87.2419 40.2019C86.2775 39.6886 85.7871 39.0356 85.7871 38.3989C85.7871 37.7622 86.2775 37.1091 87.2419 36.5959C88.192 36.0903 89.5272 35.7676 91.02 35.7676C92.5128 35.7676 93.8481 36.0903 94.7982 36.5959C95.7626 37.1091 96.253 37.7622 96.253 38.3989Z" fill="#FE3945" stroke="#03224C" stroke-width="0.656194"/>
<path d="M106.864 58.7313H111.989M117.114 58.7313H111.989M111.989 58.7313V48.9741M111.989 48.9741C104.49 48.9741 105.469 41.5147 107.054 38.4023M111.989 48.9741C117.929 48.9741 119.192 43.6391 116.085 38.187" stroke="#03224C" stroke-width="0.656194" stroke-linecap="round"/>
<path d="M116.839 38.4003C116.839 39.037 116.349 39.6901 115.384 40.2033C114.434 40.709 113.099 41.0317 111.606 41.0317C110.113 41.0317 108.778 40.709 107.828 40.2033C106.863 39.6901 106.373 39.037 106.373 38.4003C106.373 37.7636 106.863 37.1106 107.828 36.5973C108.778 36.0917 110.113 35.769 111.606 35.769C113.099 35.769 114.434 36.0917 115.384 36.5973C116.349 37.1106 116.839 37.7636 116.839 38.4003Z" fill="#FE3945" stroke="#03224C" stroke-width="0.656194"/>
</svg>
