<svg width="153" height="182" viewBox="0 0 153 182" fill="none" xmlns="http://www.w3.org/2000/svg">
<g clip-path="url(#clip0)">
<path d="M30.2921 99.6631C31.4171 100.272 33.6394 102.333 33.5289 105.71C33.4183 109.086 33.4828 124.276 33.5289 131.449" stroke="#03224C" stroke-width="0.616511" stroke-linecap="round"/>
<path d="M7.37154 98.8923C7.37154 99.826 7.87816 100.753 8.87702 101.633C9.8754 102.513 11.3377 103.319 13.1713 104.003C16.8361 105.368 21.9196 106.22 27.5498 106.22C33.18 106.22 38.2635 105.368 41.9284 104.003C43.7619 103.319 45.2243 102.513 46.2226 101.633C47.2215 100.753 47.7281 99.826 47.7281 98.8923C47.7281 97.9586 47.2215 97.0317 46.2226 96.1515C45.2243 95.2718 43.7619 94.4654 41.9284 93.7821C38.2635 92.4162 33.18 91.5651 27.5498 91.5651C21.9196 91.5651 16.8361 92.4162 13.1713 93.7821C11.3377 94.4654 9.8754 95.2718 8.87702 96.1515C7.87816 97.0317 7.37154 97.9586 7.37154 98.8923Z" fill="#03224C" stroke="#03224C" stroke-width="0.616511" stroke-linecap="round"/>
<path d="M46.4156 101.577C47.5406 102.186 49.7629 104.247 49.6524 107.624C49.5419 111 49.6063 129.978 49.6524 137.151" stroke="#03224C" stroke-width="0.616511" stroke-linecap="round"/>
<path d="M23.2731 105.303C21.5772 106.19 18.8654 108.548 18.8654 112.371C18.8654 114.66 18.863 132.405 18.8654 140.991" stroke="#03224C" stroke-width="0.616511" stroke-linecap="round"/>
<path d="M8.68689 100.737C6.99101 101.624 4.27926 103.982 4.27926 107.806C4.27926 110.094 4.27685 126.857 4.27926 135.443" stroke="#03224C" stroke-width="0.616511" stroke-linecap="round"/>
<ellipse cx="93.5473" cy="144.925" rx="44.3955" ry="17.2754" fill="#F1F1F1"/>
<path d="M70.4624 90.8236C67.2203 87.5814 54.5441 82.2371 48.6113 79.9702C26.2681 78.2335 20.1975 90.6312 19.9551 97.0472C26.6121 102.257 42.8206 105.586 47.7411 110.94C51.6774 115.224 64.7278 134.993 68.2011 142.325C68.2011 139.313 72.2332 136.867 74.4834 138.139C72.3126 129.938 61.3446 108.133 59.0291 105.586C56.7136 103.039 45.9087 92.9468 40.7956 88.2193C48.2728 93.5739 63.8638 104.746 66.4108 106.599C68.9579 108.451 81.5581 125.219 87.5398 133.372C88.466 130.709 91.206 129.271 92.4602 128.885C86.4785 117.549 73.7046 94.0658 70.4624 90.8236Z" fill="white" stroke="#03224C" stroke-width="0.618035"/>
<path d="M150.606 86.1307C150.606 87.3577 149.565 88.7568 147.082 90.1901C144.655 91.5907 141.093 92.878 136.623 93.969C127.697 96.1482 115.324 97.5039 101.63 97.5039C87.936 97.5039 75.5637 96.1482 66.6369 93.969C62.1675 92.878 58.6049 91.5907 56.1783 90.1901C53.6948 88.7568 52.6544 87.3577 52.6544 86.1307C52.6544 84.9037 53.6948 83.5046 56.1783 82.0712C58.6049 80.6707 62.1675 79.3834 66.6369 78.2923C75.5637 76.1132 87.936 74.7575 101.63 74.7575C115.324 74.7575 127.697 76.1132 136.623 78.2923C141.093 79.3834 144.655 80.6707 147.082 82.0712C149.565 83.5046 150.606 84.9037 150.606 86.1307Z" fill="#DFDFDF" stroke="#03224C" stroke-width="1.54128"/>
<path d="M150.48 81.3284C150.48 82.5554 149.44 83.9545 146.956 85.3879C144.53 86.7884 140.967 88.0757 136.498 89.1668C127.571 91.3459 115.199 92.7016 101.504 92.7016C87.8104 92.7016 75.438 91.3459 66.5113 89.1668C62.0419 88.0757 58.4793 86.7884 56.0527 85.3879C53.5692 83.9545 52.5288 82.5554 52.5288 81.3284C52.5288 80.1014 53.5692 78.7023 56.0527 77.2689C58.4793 75.8684 62.0419 74.5811 66.5113 73.4901C75.438 71.3109 87.8104 69.9552 101.504 69.9552C115.199 69.9552 127.571 71.3109 136.498 73.4901C140.967 74.5811 144.53 75.8684 146.956 77.2689C149.44 78.7023 150.48 80.1014 150.48 81.3284Z" fill="#03224C" stroke="#03224C" stroke-width="1.54128"/>
<path d="M123.121 145.663C123.121 145.99 122.828 146.532 121.695 147.185C120.62 147.806 119.013 148.391 116.96 148.892C112.865 149.892 107.169 150.518 100.849 150.518C94.5285 150.518 88.8321 149.892 84.7377 148.892C82.6845 148.391 81.0773 147.806 80.0019 147.185C78.8697 146.532 78.5765 145.99 78.5765 145.663C78.5765 145.336 78.8697 144.795 80.0019 144.141C81.0773 143.52 82.6845 142.936 84.7377 142.434C88.8321 141.435 94.5285 140.809 100.849 140.809C107.169 140.809 112.865 141.435 116.96 142.434C119.013 142.936 120.62 143.52 121.695 144.141C122.828 144.795 123.121 145.336 123.121 145.663Z" fill="#DFDFDF" stroke="#03224C" stroke-width="1.54128"/>
<path d="M91.505 138.259L87.6056 133.296C88.2431 130.672 90.9441 129.366 92.2149 129.042L96.6463 136.043C97.0008 139.659 93.3665 139.027 91.505 138.259Z" fill="white" stroke="#03224C" stroke-width="0.618035"/>
<path d="M91.177 142.13C89.2454 140.026 89.8036 137.655 90.3241 136.732L91.4865 138.241C95.4103 139.751 96.2192 138.294 96.6454 137.371C96.9864 136.632 96.5033 135.642 96.2192 135.24C101.784 137.536 117.654 143.347 111.971 144.427C106.288 145.508 93.6865 143.03 91.177 142.13Z" fill="#03224C"/>
<path d="M71.9021 147.86C69.9705 145.756 70.5287 143.385 71.0492 142.462L72.2116 143.971C76.1354 145.481 76.9443 144.024 77.3705 143.101C77.7115 142.362 77.2284 141.372 76.9443 140.97C82.5087 143.266 98.6927 149.998 93.0099 151.078C87.3271 152.158 74.4116 148.76 71.9021 147.86Z" fill="#03224C"/>
<path d="M51.9069 85.8815V81.3286L56.2063 83.7653L51.9069 85.8815Z" fill="#03224C"/>
<path d="M151.387 81.0402L151.387 86.1304L147.087 83.4062L151.387 81.0402Z" fill="#03224C"/>
<path d="M100.078 144.926C100.078 145.351 100.423 145.696 100.849 145.696C101.274 145.696 101.619 145.351 101.619 144.925L100.078 144.926ZM100.068 97.2555L100.078 144.926L101.619 144.925L101.61 97.2552L100.068 97.2555Z" fill="#03224C"/>
<path d="M1.19531 64.8961C3.04832 73.8551 10.4916 79.7797 17.7298 78.2826C24.968 76.7855 29.4504 68.3943 27.5974 59.4353C25.7444 50.4763 18.301 44.5517 11.0628 46.0488C3.82463 47.5459 -0.657708 55.9371 1.19531 64.8961Z" fill="#03224C" stroke="#03224C" stroke-width="0.616511" stroke-linecap="round"/>
<path d="M16.8418 78.4087L20.2983 92.6769" stroke="#03224C" stroke-width="0.616511" stroke-linecap="round"/>
<path d="M30.1451 27.5714C32.7264 24.3313 31.7114 17.4111 30.1451 11.145C28.7775 2.07935 16.8701 2.51553 12.8488 8.87524C8.70767 15.4244 14.4049 21.7436 15.1814 25.5181C15.958 29.2925 17.1797 36.5468 15.1814 39.1854C13.1832 41.824 6.89776 42.6829 7.00878 51.5639C7.11979 60.4449 11.8497 72.6001 12.8488 83.2573C13.6481 91.783 18.807 96.5788 21.2865 97.9109C20.0432 94.8026 21.3034 91.2121 22.089 89.8055C30.3239 79.2432 43.4972 79.572 49.1647 80.2746C48.4188 80.0508 46.1672 79.467 44.019 77.4978C41.8707 75.5286 41.0353 69.5164 40.8861 66.7565C41.4829 67.3533 43.4819 68.7258 46.7043 69.4419C49.9267 70.1579 63.8605 70.9337 70.4246 71.2321C69.3504 68.1887 70.8721 65.4885 71.7672 64.5188C64.1588 63.6237 48.4945 60.9831 46.7043 57.5817C44.4665 53.33 37.7533 35.4279 30.1451 36.5468C24.0585 37.4419 22.2383 30.2065 22.089 26.4769C22.1636 27.7449 27.2178 31.2458 30.1451 27.5714Z" fill="white"/>
<path d="M30.1451 11.145L29.8395 11.1911L29.8417 11.2056L29.8453 11.2199L30.1451 11.145ZM30.1451 27.5714L29.9034 27.3788L29.9034 27.3788L30.1451 27.5714ZM22.089 26.4769L22.3974 26.4587L21.7802 26.4892L22.089 26.4769ZM30.1451 36.5468L30.1001 36.2411L30.1001 36.2411L30.1451 36.5468ZM46.7043 57.5817L46.4308 57.7256L46.4308 57.7256L46.7043 57.5817ZM71.7672 64.5188L71.9943 64.7284L72.4056 64.2827L71.8033 64.2119L71.7672 64.5188ZM70.4246 71.2321L70.4105 71.5408L70.8686 71.5616L70.716 71.1292L70.4246 71.2321ZM46.7043 69.4419L46.6373 69.7435L46.6373 69.7435L46.7043 69.4419ZM40.8861 66.7565L41.1046 66.538L40.534 65.9674L40.5776 66.7732L40.8861 66.7565ZM49.1647 80.2746L49.1267 80.5813C49.2861 80.601 49.434 80.4954 49.4671 80.3382C49.5002 80.1811 49.4073 80.0248 49.2535 79.9786L49.1647 80.2746ZM22.089 89.8055L21.8453 89.6155L21.8307 89.6341L21.8192 89.6548L22.089 89.8055ZM21.2865 97.9109L21.1402 98.1832L21.8891 98.5855L21.5734 97.7962L21.2865 97.9109ZM12.8488 83.2573L13.1564 83.2284L12.8488 83.2573ZM7.00878 51.5639L6.69978 51.5677L7.00878 51.5639ZM15.1814 39.1854L15.4278 39.372L15.4278 39.372L15.1814 39.1854ZM15.1814 25.5181L15.4841 25.4558L15.4841 25.4558L15.1814 25.5181ZM12.8488 8.87524L12.5876 8.71009L12.5876 8.71009L12.8488 8.87524ZM29.8453 11.2199C30.6266 14.3457 31.2662 17.6188 31.3917 20.5064C31.5179 23.4083 31.121 25.8505 29.9034 27.3788L30.3868 27.7639C31.7505 26.0522 32.1367 23.4142 32.0092 20.4795C31.881 17.5304 31.2299 14.2104 30.4449 11.07L29.8453 11.2199ZM29.9034 27.3788C28.5488 29.0791 26.7111 29.1333 25.1495 28.5859C24.3669 28.3116 23.6695 27.8893 23.1673 27.4638C22.9162 27.251 22.7201 27.0427 22.5873 26.8582C22.449 26.666 22.4017 26.5305 22.3974 26.4587L21.7805 26.495C21.7949 26.7402 21.9218 26.9916 22.0857 27.2192C22.255 27.4545 22.4889 27.699 22.7678 27.9353C23.3258 28.4081 24.0889 28.8691 24.945 29.1692C26.661 29.7706 28.814 29.7381 30.3868 27.7639L29.9034 27.3788ZM21.7802 26.4892C21.856 28.3839 22.3549 31.1788 23.6222 33.3993C24.2575 34.5124 25.0941 35.4956 26.1818 36.1412C27.2747 36.7899 28.6018 37.0861 30.19 36.8525L30.1001 36.2411C28.6451 36.4551 27.4622 36.1825 26.4973 35.6097C25.5272 35.0339 24.7582 34.1429 24.1589 33.0929C22.9571 30.9871 22.4712 28.2995 22.3977 26.4645L21.7802 26.4892ZM30.19 36.8525C31.9579 36.5925 33.7137 37.4308 35.4188 38.9915C37.1205 40.5491 38.7247 42.7851 40.1733 45.2088C41.6201 47.6293 42.9017 50.22 43.9632 52.4755C45.0193 54.7199 45.8674 56.655 46.4308 57.7256L46.9778 57.4378C46.4223 56.3825 45.5921 54.4856 44.5224 52.2124C43.4579 49.9505 42.1662 47.3383 40.7038 44.8917C39.2434 42.4483 37.6029 40.1529 35.8361 38.5356C34.0727 36.9215 32.1364 35.9416 30.1001 36.2411L30.19 36.8525ZM46.4308 57.7256C46.6907 58.2193 47.1825 58.6678 47.8147 59.0787C48.4521 59.4931 49.2605 59.8874 50.1904 60.2614C52.0505 61.0097 54.4314 61.6908 56.9832 62.2909C62.089 63.4916 67.9194 64.3772 71.7311 64.8257L71.8033 64.2119C68.0066 63.7652 62.2007 62.883 57.1247 61.6893C54.5856 61.0922 52.2392 60.4195 50.421 59.688C49.5117 59.3222 48.7432 58.9452 48.1516 58.5606C47.5547 58.1726 47.1655 57.7945 46.9778 57.4378L46.4308 57.7256ZM71.5401 64.3092C70.5997 65.328 69.0073 68.1449 70.1332 71.3349L70.716 71.1292C69.6936 68.2325 71.1445 65.649 71.9943 64.7284L71.5401 64.3092ZM70.4386 70.9234C67.1582 70.7743 62.0361 70.5058 57.3323 70.1853C52.6149 69.8638 48.3542 69.4919 46.7713 69.1402L46.6373 69.7435C48.2768 70.1079 52.5941 70.4819 57.2903 70.8019C62 71.1228 67.1268 71.3915 70.4105 71.5408L70.4386 70.9234ZM46.7713 69.1402C43.5962 68.4346 41.653 67.0864 41.1046 66.538L40.6676 66.9751C41.3127 67.6201 43.3676 69.0169 46.6373 69.7435L46.7713 69.1402ZM40.5776 66.7732C40.6529 68.1677 40.9011 70.3794 41.4022 72.4949C41.6528 73.5528 41.9683 74.5939 42.3606 75.4996C42.7511 76.4013 43.2273 77.1912 43.8102 77.7256L44.2278 77.27C43.7366 76.8197 43.3027 76.1197 42.9277 75.254C42.5545 74.3924 42.2491 73.3887 42.0036 72.3524C41.5126 70.2796 41.2685 68.1053 41.1947 66.7399L40.5776 66.7732ZM43.8102 77.7256C46.0153 79.747 48.329 80.3465 49.0759 80.5706L49.2535 79.9786C48.5085 79.7551 46.3191 79.1871 44.2278 77.27L43.8102 77.7256ZM49.2027 79.9679C43.5175 79.2632 30.1885 78.9144 21.8453 89.6155L22.3327 89.9955C30.4594 79.5721 43.4769 79.8809 49.1267 80.5813L49.2027 79.9679ZM21.8192 89.6548C21.4101 90.3874 20.8866 91.6693 20.6226 93.1664C20.3585 94.6635 20.3496 96.4009 20.9996 98.0257L21.5734 97.7962C20.98 96.3126 20.9796 94.7006 21.2312 93.2737C21.4829 91.8468 21.9823 90.6302 22.3588 89.9561L21.8192 89.6548ZM21.4327 97.6387C19.0341 96.35 13.945 91.64 13.1564 83.2284L12.5411 83.2861C13.3511 91.9261 18.5798 96.8076 21.1402 98.1832L21.4327 97.6387ZM13.1564 83.2284C12.6544 77.8728 11.2155 72.1452 9.89615 66.6721C8.57307 61.1834 7.37276 55.9593 7.31777 51.56L6.69978 51.5677C6.7558 56.0494 7.97593 61.3435 9.29532 66.8169C10.6185 72.306 12.0441 77.9846 12.5411 83.2861L13.1564 83.2284ZM7.31777 51.56C7.2634 47.2107 8.76809 44.8591 10.5128 43.2617C11.3962 42.4528 12.3441 41.8344 13.2196 41.2394C14.0816 40.6534 14.8927 40.0785 15.4278 39.372L14.9351 38.9988C14.4711 39.6116 13.7472 40.1335 12.8721 40.7282C12.0106 41.3139 11.0193 41.96 10.0955 42.8058C8.22567 44.5177 6.64314 47.036 6.69978 51.5677L7.31777 51.56ZM15.4278 39.372C15.9737 38.651 16.2824 37.642 16.4397 36.51C16.5979 35.3725 16.6075 34.0784 16.5305 32.7596C16.3764 30.1219 15.8733 27.3474 15.4841 25.4558L14.8788 25.5803C15.2661 27.4632 15.7621 30.203 15.9135 32.7957C15.9892 34.0922 15.9781 35.3423 15.8276 36.4249C15.6763 37.5132 15.3883 38.4004 14.9351 38.9988L15.4278 39.372ZM15.4841 25.4558C15.2811 24.4691 14.7613 23.3318 14.1865 22.1143C13.6053 20.8835 12.958 19.5516 12.4627 18.1352C11.4751 15.3111 11.1099 12.2035 13.11 9.04039L12.5876 8.71009C10.4465 12.0962 10.8594 15.4227 11.8793 18.3392C12.3877 19.793 13.0515 21.1579 13.6276 22.3782C14.21 23.6117 14.6935 24.6798 14.8788 25.5803L15.4841 25.4558ZM13.11 9.04039C15.0513 5.97011 18.9171 4.31078 22.4727 4.53402C24.2447 4.64527 25.9214 5.22356 27.2341 6.30953C28.5432 7.39251 29.5082 8.99482 29.8395 11.1911L30.4506 11.0989C30.0982 8.76231 29.0619 7.01953 27.6281 5.83333C26.1978 4.65013 24.3899 4.03514 22.5114 3.9172C18.7661 3.68204 14.6675 5.42066 12.5876 8.71009L13.11 9.04039Z" fill="#03224C"/>
<path fill-rule="evenodd" clip-rule="evenodd" d="M27.3775 36.2734C27.1214 38.3632 26.5263 39.7384 26.1901 40.2431C22.8887 39.9956 18.666 38.8652 15.8875 37.9899C15.7329 38.435 15.5369 38.826 15.2929 39.1482C14.7437 39.8734 13.8707 40.4641 12.8956 41.1239C10.3229 42.8648 7.03972 45.0865 7.12023 51.5267C7.17927 56.2502 8.54495 61.9001 9.96096 67.7581C11.2072 72.914 12.4925 78.2312 12.9602 83.2201C13.7595 91.7458 18.9184 96.5416 21.3979 97.8737C20.1546 94.7654 21.4149 91.1749 22.2004 89.7683C30.4354 79.206 43.5337 79.2508 49.0535 80.5934C48.3076 80.3697 46.2787 79.4298 44.1304 77.4606C41.9822 75.4913 41.1468 69.4792 40.9976 66.7193C41.5943 67.3161 43.5934 68.6886 46.8157 69.4046C50.0381 70.1207 63.9719 70.8965 70.536 71.1948C69.4619 68.1515 70.9836 65.4513 71.8787 64.4816C64.2703 63.5865 48.606 60.9459 46.8157 57.5445C46.4637 56.8756 46.0008 55.8687 45.4411 54.6512C42.4434 48.1303 36.6677 35.5667 30.2565 36.5096C29.1645 36.6702 28.2099 36.5691 27.3775 36.2734Z" fill="#03224C"/>
<path d="M71.0475 71.1752L73.4172 60.3227C73.6343 59.3283 74.3946 58.542 75.3812 58.2915L98.3463 52.4608C99.3303 52.2109 100.225 53.1008 99.981 54.0863L95.5255 72.0617C95.2915 73.0057 94.5656 73.7496 93.6277 74.0067L68.9523 80.7703L56.5334 78.331C55.1647 78.0622 55.0616 76.1436 56.3936 75.7296L71.0475 71.1752Z" fill="white"/>
<path d="M68.9523 80.7703L73.4172 60.3227C73.6343 59.3283 74.3946 58.542 75.3812 58.2915L98.3463 52.4608C99.3303 52.2109 100.225 53.1008 99.981 54.0863L95.5255 72.0617C95.2915 73.0057 94.5656 73.7496 93.6277 74.0067L68.9523 80.7703ZM68.9523 80.7703L56.5334 78.331C55.1647 78.0622 55.0616 76.1436 56.3936 75.7296L71.0475 71.1752" stroke="#03224C" stroke-width="0.618035"/>
<path d="M61.2005 69.0874C60.4615 69.0879 56.5832 69.497 54.7365 69.7014C53.3817 71.4832 53.5567 74.0781 53.8135 75.1528C54.5317 74.9481 56.6146 74.7843 59.2001 75.7671C62.4321 76.9957 63.8941 75.6903 65.2023 75.7671C66.2488 75.8285 68.6651 76.7141 69.7424 77.1492L70.5889 73.2332C67.7673 71.8511 61.9395 69.0869 61.2005 69.0874Z" fill="white" stroke="#03224C" stroke-width="0.618035"/>
<path d="M18.5124 45.8733C14.1732 41.0716 9.97084 44.9509 9.97084 44.9509C2.12225 53.1452 23.1284 74.7275 29.3607 76.6896C34.3466 78.2592 47.6155 75.2691 53.3862 75.6538C52.8322 72.4222 54.2326 70.1524 55.002 69.4215C49.1544 67.6134 36.3086 67.6873 33.631 65.8407C30.284 63.5325 23.9363 51.8754 18.5124 45.8733Z" fill="#03224C" stroke="#03224C" stroke-width="0.618035"/>
<path d="M20.8649 10.7473C18.4335 12.3387 18.6727 15.3886 19.0962 16.7146C19.349 18.089 20.8265 24.1401 23.2025 22.1509C25.5785 20.1617 34.8015 17.5493 34.8015 25.3527C34.8015 33.1561 18.9276 33.4445 16.4978 29.7976C14.0681 26.1508 17.3833 25.059 11.2499 20.1412C5.11649 15.2234 9.09808 4.67213 16.4978 4.06172C21.8566 3.61967 24.4012 1.13259 27.606 0.524777C30.8109 -0.083038 35.2866 2.67996 33.2974 7.2662C31.3082 11.8524 23.904 8.75811 20.8649 10.7473Z" fill="#03224C"/>
<path d="M76.1663 141.927C77.2912 142.536 79.5135 144.597 79.403 147.974C79.2925 151.35 79.3569 166.54 79.403 173.713" stroke="#03224C" stroke-width="0.616511" stroke-linecap="round"/>
<path d="M53.1966 117.181L56.411 144.045" stroke="#03224C" stroke-width="0.616511" stroke-linecap="round"/>
<path d="M66.1654 144.867C67.2904 145.476 69.5127 147.537 69.4022 150.914C69.2916 154.29 69.3561 173.268 69.4022 180.441" stroke="#03224C" stroke-width="0.616511" stroke-linecap="round"/>
<path d="M44.9686 143.954C43.2727 144.841 40.561 147.198 40.561 151.022C40.561 153.311 40.5586 170.074 40.561 178.66" stroke="#03224C" stroke-width="0.616511" stroke-linecap="round"/>
<path d="M54.7179 139.004C53.022 139.891 50.3103 142.249 50.3103 146.073C50.3103 148.362 50.3079 165.124 50.3103 173.71" stroke="#03224C" stroke-width="0.616511" stroke-linecap="round"/>
<path d="M39.3315 105.528C41.1846 114.487 48.6279 120.412 55.8661 118.914C63.1043 117.417 67.5866 109.026 65.7336 100.067C63.8806 91.1081 56.4373 85.1835 49.1991 86.6806C41.9609 88.1777 37.4785 96.5689 39.3315 105.528Z" fill="#FE3945" stroke="#03224C" stroke-width="0.616511" stroke-linecap="round"/>
<path d="M39.9854 139.545C39.9854 140.478 40.4921 141.405 41.4909 142.285C42.4893 143.165 43.9516 143.972 45.7852 144.655C49.45 146.021 54.5335 146.872 60.1637 146.872C65.7939 146.872 70.8774 146.021 74.5422 144.655C76.3758 143.972 77.8382 143.165 78.8365 142.285C79.8354 141.405 80.342 140.478 80.342 139.545C80.342 138.611 79.8354 137.684 78.8365 136.804C77.8382 135.924 76.3758 135.118 74.5422 134.434C70.8774 133.069 65.7939 132.217 60.1637 132.217C54.5335 132.217 49.45 133.069 45.7852 134.434C43.9516 135.118 42.4893 135.924 41.4909 136.804C40.4921 137.684 39.9854 138.611 39.9854 139.545Z" fill="#FE3945" stroke="#03224C" stroke-width="0.616511" stroke-linecap="round"/>
</g>
<defs>
<clipPath id="clip0">
<rect width="153" height="182" fill="white"/>
</clipPath>
</defs>
</svg>
