<svg xmlns="http://www.w3.org/2000/svg" fill="none" viewBox="0 0 266 300"><path fill="#FFF3EE" d="M-192.467 156.871L.868 50.914a2.806 2.806 0 011.71-.322L240.59 81.525a2.83 2.83 0 012.433 2.396c.754 5.114 2.941 19.211 6.914 39.31 5.057 25.573 14.775 47.055 14.775 47.055-48.078 16.542-33.441 15.519-61.442 39.786-28 24.267-45.734 19.601-49.467 30.801-3.733 11.2-21.467 24.267-38.267 24.267-13.44 0-35.467 22.4-44.8 33.6-12.134-8.4-13.067 0-35.468 0-22.4 0-51.334-7.467-70-15.867-18.667-8.4-42-3.733-62.534-6.533-20.534-2.8-19.601-11.2-36.401-11.2-16.8 0-17.733 6.533-41.067 0-23.334-6.534-9.333-14.934-24.267-12.134-11.947 2.24-23.643-7.156-27.998-12.133 5.973-10.454 25.511-60.357 34.533-84.002z"/><path stroke="#03224C" stroke-linecap="round" stroke-linejoin="round" d="M-192.467 156.871L.868 50.914a2.806 2.806 0 011.71-.322L240.59 81.525a2.83 2.83 0 012.433 2.396c.754 5.114 2.941 19.211 6.915 39.31 5.056 25.573 14.774 47.055 14.774 47.055-48.078 16.542-33.441 15.519-61.442 39.786-28 24.267-45.734 19.601-49.467 30.801-3.733 11.2-21.467 24.267-38.267 24.267-13.44 0-35.467 22.4-44.8 33.6-12.134-8.4-13.067 0-35.468 0-22.4 0-51.334-7.467-70-15.867-18.667-8.4-42-3.733-62.534-6.533-20.534-2.8-19.601-11.2-36.401-11.2-16.8 0-17.733 6.533-41.067 0-23.334-6.534-9.333-14.934-24.267-12.134-11.947 2.24-23.643-7.156-27.998-12.133 5.973-10.454 25.511-60.357 34.533-84.002zm0 0c1.795 2.494 6.998 7.828 13.453 9.211 6.454 1.383 72.61 14.407 104.882 20.746m48.407 7.491l82.408 15.753m0 0c1.078 14.623 4.318 46.107 8.644 55.068m-8.644-55.068l174.035-109.11m-425.797 144.31c2.871-6.124 11.369-27.212 22.391-62.581m52.82 6.602c-1.435 7.847-4.593 24.86-5.741 30.142m102.77-12.63c-2.291 12.918-6.475 43.576-4.88 62.867m123.556-50.237c1.029 7.104 4.748 24.204 11.392 35.775m76.644-111.34c1.208 12.442 5.696 41.151 13.982 56.447"/><path fill="#F4D8CD" stroke="#03224C" d="M203.979 90.416l-221.886-28.86c-10.852-1.411-13.706 0-19.717 3.343-4.81 2.674-5.995 8.505-5.987 11.086 78.02 10.974 235.955 33.193 243.532 34.275 7.576 1.082 10.373 4.359 10.824 5.863 5.412 15.153 16.386 54.719 21.196 72.608 4.69-2.886 14.582-7.817 18.941-9.921-3.247-4.691-15.484-51.262-21.196-73.962-1.443-9.38-17.74-13.53-25.707-14.432z"/><path stroke="#03224C" stroke-linecap="round" stroke-linejoin="round" d="M1.237 33.841c-1.172-5.075 2.145-10.967 7.39-10.967l229.758 27.04c2.702 3.44.308 5.937-1.228 6.755 1.28.614 3.838 3.255 3.838 8.904 0 5.65-3.991 9.313-5.987 10.439-.614 4.298-3.343 4.91-4.631 4.679L5.141 50.752c-5.983-1.3-6.178-8.02-5.528-11.218-1.298-2.08.542-4.662 1.624-5.693z"/><ellipse cx="233.572" cy="65.929" fill="#03224C" rx="1.423" ry="4.745" transform="rotate(9.69 233.572 65.93)"/><path fill="#fff" d="M18.856 57.826c.114-8.882 3.444-32.314 15.858-54.983C43.596.706 68.31-1.34 96.108 7.565c0 24.291-8.096 48.8-12.144 58.018-14.17.9-47.028.61-65.108-7.757z"/><path stroke="#03224C" d="M96.108 7.565C68.31-1.34 43.596.706 34.712 2.843 22.3 25.512 18.97 48.943 18.857 57.826c18.08 8.367 50.938 8.658 65.108 7.757M96.108 7.565c-4.16 9.557-12.414 34.54-12.144 58.018M96.108 7.565c0 24.291-8.096 48.8-12.144 58.018"/><path fill="#FE3945" d="M27.863 63.466c.054-4.252 1.648-15.467 7.59-26.318 4.252-1.022 16.081-2.002 29.386 2.26 0 11.627-3.875 23.358-5.813 27.77-6.782.432-22.51.293-31.163-3.712z"/><path stroke="#03224C" d="M64.84 39.409c-13.306-4.263-25.135-3.283-29.387-2.26-5.942 10.85-7.536 22.065-7.59 26.317 8.654 4.005 24.381 4.144 31.163 3.712m5.813-27.77c-1.991 4.575-5.942 16.533-5.813 27.77m5.813-27.77c0 11.627-3.875 23.358-5.813 27.77"/><path fill="#fff" d="M110.854 67.612c.114-8.882 3.444-32.314 15.857-54.983 8.883-2.136 33.598-4.183 61.394 4.723 0 24.29-8.096 48.8-12.144 58.017-14.169.901-47.027.61-65.107-7.757z"/><path stroke="#03224C" d="M188.105 17.352c-27.796-8.906-52.511-6.86-61.394-4.723-12.413 22.67-15.743 46.101-15.857 54.983 18.08 8.368 50.938 8.658 65.107 7.757m12.144-58.017c-4.16 9.556-12.413 34.54-12.144 58.017m12.144-58.017c0 24.29-8.096 48.8-12.144 58.017"/><path fill="#FE3945" d="M117.025 74.9c.054-4.25 1.648-15.466 7.59-26.317 4.252-1.022 16.082-2.002 29.386 2.26 0 11.627-3.875 23.358-5.813 27.77-6.782.432-22.509.293-31.163-3.712z"/><path stroke="#03224C" d="M154.001 50.844c-13.304-4.263-25.134-3.283-29.386-2.26-5.942 10.85-7.536 22.065-7.59 26.317 8.654 4.005 24.381 4.144 31.163 3.713m5.813-27.77c-1.991 4.574-5.942 16.532-5.813 27.77m5.813-27.77c0 11.626-3.875 23.357-5.813 27.77"/><path fill="#fff" d="M-8.923 167.296c.617 4.988 3.085 8.571 3.977 8.893 14.405 3.899 43.033 9.964 44.421 9.808 1.736-.195 7.713-4.286 7.52-11.5-.154-5.772-4.306-9.156-6.363-10.126C27.328 161.19 1.406 155.999-1.76 156c-2.761 0-7.933 5.062-7.163 11.296z"/><path stroke="#03224C" stroke-linecap="round" stroke-linejoin="round" d="M38.472 167.276c-1.42 1.793-3.31 8.871-1.44 12.361 1.872 3.49 5.47-3.127 4.607-7.562m-46.585 4.114c-.892-.322-3.36-3.905-3.977-8.893C-9.693 161.062-4.52 156-1.76 156c3.166-.001 29.088 5.19 42.392 8.371 2.057.97 6.21 4.354 6.363 10.126.193 7.214-5.784 11.305-7.52 11.5-1.388.156-30.016-5.909-44.42-9.808z"/></svg>