<svg width="32" height="26" viewBox="0 0 32 26" fill="none" xmlns="http://www.w3.org/2000/svg">
<path d="M21.0485 0.0153119V0.00976562H22.4543L22.968 0.115146C23.3104 0.183559 23.6213 0.273215 23.9007 0.384142C24.1801 0.495068 24.4504 0.624491 24.7117 0.772383C24.9731 0.920276 25.2101 1.07097 25.4228 1.22441C25.6337 1.37602 25.8229 1.53686 25.9905 1.70694C26.1563 1.87887 26.4149 1.92324 26.7664 1.84005C27.1179 1.75685 27.4963 1.6413 27.9019 1.4934C28.3074 1.34551 28.7084 1.17912 29.1049 0.994236C29.5014 0.809349 29.743 0.691962 29.8295 0.642045C29.9142 0.590298 29.9593 0.562566 29.9647 0.55885L29.97 0.550531L29.9971 0.536665L30.0241 0.522799L30.0511 0.508934L30.0782 0.495068L30.0836 0.486748L30.0917 0.481202L30.0998 0.475656L30.1052 0.467336L30.1323 0.459017L30.1593 0.45347L30.1539 0.495068L30.1458 0.536665L30.1323 0.578262L30.1187 0.61986L30.1052 0.647591L30.0917 0.675323L30.0782 0.71692C30.0692 0.744652 30.0602 0.781618 30.0511 0.827846C30.0421 0.874075 29.9565 1.05893 29.7943 1.38248C29.6321 1.70602 29.4293 2.03417 29.186 2.36695C28.9427 2.69973 28.7247 2.95114 28.5318 3.12125C28.3372 3.29318 28.2083 3.41334 28.1452 3.48176C28.0821 3.552 28.0055 3.6167 27.9154 3.67588L27.7802 3.76739L27.7532 3.78126L27.7261 3.79512L27.7208 3.80344L27.7126 3.80899L27.7045 3.81453L27.6991 3.82285L27.6721 3.83672L27.645 3.85059L27.6397 3.85891L27.6315 3.86445L27.6234 3.87L27.618 3.87832L27.6126 3.88664L27.6045 3.89218L27.5964 3.89773L27.591 3.90605H27.7261L28.4831 3.73966C28.9878 3.62873 29.4699 3.49471 29.9295 3.33755L30.6594 3.08797L30.7405 3.06024L30.7811 3.04637L30.8081 3.0325L30.8352 3.01864L30.8622 3.00477L30.8892 2.99091L30.9433 2.98259L30.9974 2.97704V3.0325L30.9839 3.03805L30.9703 3.04637L30.965 3.05469L30.9568 3.06024L30.9487 3.06578L30.9433 3.0741L30.9379 3.08242L30.9298 3.08797L30.9217 3.09351L30.9163 3.10183L30.9109 3.11015L30.9028 3.1157L30.8892 3.14343L30.8757 3.17116L30.8676 3.17671C30.864 3.18226 30.7496 3.33938 30.5243 3.64815C30.299 3.95874 30.1773 4.11587 30.1593 4.11958C30.1413 4.12513 30.116 4.15286 30.0836 4.20278C30.053 4.25452 29.8619 4.46068 29.5105 4.82119C29.159 5.1817 28.8148 5.50244 28.4777 5.78347C28.1389 6.06634 27.9677 6.4139 27.9641 6.82618C27.9587 7.23661 27.9379 7.70067 27.9019 8.21831C27.8658 8.73597 27.7982 9.2952 27.6991 9.89606C27.6 10.4969 27.4468 11.1763 27.2395 11.9343C27.0323 12.6923 26.7799 13.4318 26.4825 14.1529C26.1852 14.8739 25.8743 15.5209 25.5498 16.0941C25.2254 16.6672 24.928 17.1525 24.6577 17.55C24.3873 17.9474 24.1125 18.3218 23.8331 18.6731C23.5538 19.0244 23.2005 19.42 22.7734 19.86C22.3444 20.2982 22.1101 20.5385 22.0705 20.581C22.029 20.6217 21.8524 20.7733 21.5406 21.0358C21.2306 21.3002 20.8971 21.5646 20.5403 21.829C20.1852 22.0915 19.859 22.3106 19.5616 22.4862C19.2642 22.6618 18.9056 22.8624 18.4856 23.088C18.0675 23.3154 17.6151 23.5261 17.1284 23.7202C16.6418 23.9144 16.1282 24.0946 15.5875 24.261C15.0468 24.4274 14.5241 24.5568 14.0194 24.6493C13.5148 24.7417 12.9425 24.8203 12.3027 24.885L11.343 24.982V24.9959H9.5857V24.982L9.3559 24.9682C9.20272 24.9589 9.07655 24.9497 8.97741 24.9404C8.8783 24.9312 8.5043 24.8803 7.85546 24.7879C7.20663 24.6955 6.69748 24.603 6.32799 24.5106C5.95853 24.4182 5.4088 24.2425 4.67886 23.9837C3.94892 23.7249 3.32441 23.4633 2.80534 23.1989C2.28808 22.9364 1.96366 22.77 1.83208 22.6997C1.70231 22.6313 1.55632 22.5463 1.39411 22.4446L1.1508 22.2921L1.14542 22.2837L1.13728 22.2782L1.12917 22.2727L1.12376 22.2643L1.09673 22.2505L1.06969 22.2366L1.06431 22.2283L1.05618 22.2227L1.04807 22.2172L1.04266 22.2089L1.03728 22.2006L1.02914 22.195H1.01562V22.1395L1.04266 22.1451L1.06969 22.1534L1.19135 22.1673C1.27246 22.1765 1.49325 22.1904 1.85371 22.2089C2.21419 22.2274 2.59717 22.2274 3.00269 22.2089C3.40822 22.1904 3.82277 22.1488 4.2463 22.0841C4.66986 22.0194 5.17 21.9085 5.74674 21.7513C6.3235 21.5941 6.85339 21.4074 7.33642 21.1911C7.81764 20.973 8.16007 20.8103 8.36375 20.7031C8.56559 20.5977 8.87379 20.4017 9.28832 20.1151L9.91012 19.6853L9.91553 19.677L9.92364 19.6714L9.93177 19.6659L9.93715 19.6576L9.94256 19.6493L9.95067 19.6437L9.95881 19.6382L9.96419 19.6298L9.99122 19.6215L10.0183 19.616L10.0237 19.5882L10.0318 19.5605L10.0399 19.555L10.0453 19.5466L9.82901 19.5328C9.68484 19.5235 9.54515 19.5143 9.40997 19.505C9.2748 19.4958 9.06303 19.4542 8.77465 19.3803C8.4863 19.3063 8.1754 19.1954 7.84195 19.0475C7.50852 18.8996 7.18411 18.7239 6.86869 18.5206C6.5533 18.3172 6.32529 18.148 6.18471 18.0131C6.04593 17.88 5.86569 17.6914 5.64401 17.4474C5.42413 17.2015 5.23308 16.9491 5.07087 16.6903C4.90866 16.4315 4.75366 16.1329 4.60589 15.7946L4.38147 15.2899L4.36796 15.2483L4.35444 15.2067L4.34633 15.1789L4.34092 15.1512L4.38147 15.1567L4.42203 15.1651L4.71941 15.2067C4.91769 15.2344 5.22859 15.2436 5.65212 15.2344C6.07567 15.2252 6.36854 15.2067 6.53075 15.1789C6.69296 15.1512 6.7921 15.1327 6.82814 15.1235L6.88221 15.1096L6.94979 15.0957L7.01738 15.0819L7.02279 15.0735L7.0309 15.068L7.03904 15.0625L7.04442 15.0541L6.99035 15.0403L6.93628 15.0264L6.88221 15.0125L6.82814 14.9987L6.77407 14.9848C6.73803 14.9756 6.67496 14.9571 6.58482 14.9293C6.49471 14.9016 6.2514 14.7999 5.85488 14.6243C5.45838 14.4487 5.14297 14.2776 4.90866 14.1113C4.67376 13.9444 4.44979 13.7619 4.23819 13.5649C4.02732 13.3653 3.79574 13.1083 3.54339 12.794C3.29107 12.4797 3.06579 12.1146 2.86752 11.6986C2.66927 11.2826 2.52058 10.8852 2.42144 10.5062C2.3227 10.1294 2.25756 9.74418 2.22682 9.3553L2.17813 8.77294L2.20516 8.77848L2.2322 8.7868L2.25923 8.80067L2.28627 8.81453L2.3133 8.8284L2.34034 8.84227L2.75938 9.03639C3.03876 9.16581 3.3857 9.27674 3.80022 9.36916C4.21478 9.46159 4.46258 9.51245 4.54368 9.52169L4.66534 9.53555H4.90866L4.90328 9.52724L4.89514 9.52169L4.88703 9.51614L4.88162 9.50782L4.87624 9.4995L4.8681 9.49396L4.85999 9.48841L4.85459 9.48009L4.82755 9.46622L4.80052 9.45236L4.79514 9.44404L4.787 9.43849L4.77889 9.43295L4.77348 9.42463L4.74645 9.41076L4.71941 9.3969L4.71403 9.38858C4.70862 9.38486 4.63112 9.32571 4.4815 9.21109C4.3337 9.09462 4.17871 8.94396 4.0165 8.75907C3.85429 8.57418 3.69208 8.38006 3.52987 8.17671C3.36737 7.97289 3.22262 7.75482 3.09732 7.52502C2.97117 7.29393 2.83778 6.99995 2.6972 6.64315C2.55843 6.28819 2.45299 5.93045 2.38089 5.56994C2.30881 5.20943 2.26826 4.85355 2.25923 4.50228C2.25023 4.151 2.25923 3.85059 2.28627 3.601C2.3133 3.35142 2.36737 3.06947 2.44848 2.75519C2.52958 2.44091 2.64675 2.10813 2.79993 1.75685L3.02973 1.22995L3.04325 1.18836L3.05676 1.14676L3.0649 1.14121L3.07028 1.13289L3.07569 1.12457L3.0838 1.11903L3.09194 1.12457L3.09732 1.13289L3.10272 1.14121L3.11083 1.14676L3.11897 1.15231L3.12435 1.16063L3.12976 1.16894L3.13787 1.17449L3.15139 1.20222L3.1649 1.22995L3.17304 1.2355L3.17842 1.24382L3.54339 1.65979C3.78671 1.93711 4.07509 2.24679 4.40851 2.5888C4.74196 2.93081 4.92669 3.1083 4.96273 3.12125C4.99879 3.13603 5.04383 3.17854 5.0979 3.24881C5.15197 3.31722 5.33221 3.48084 5.6386 3.73966C5.94501 3.99848 6.34602 4.29892 6.84165 4.64093C7.33731 4.98295 7.88701 5.32036 8.49079 5.65314C9.09458 5.98592 9.74342 6.28633 10.4373 6.55441C11.1312 6.82249 11.6178 6.99812 11.8972 7.08131C12.1766 7.16451 12.6542 7.2708 13.33 7.40022C14.0059 7.52965 14.5151 7.61284 14.8575 7.64981C15.2 7.68677 15.4343 7.70804 15.5604 7.71359L15.7497 7.71914L15.7443 7.67754L15.7361 7.63594L15.6821 7.2893C15.646 7.05821 15.628 6.73467 15.628 6.31869C15.628 5.90272 15.6596 5.51911 15.7226 5.16783C15.7857 4.81656 15.8804 4.46068 16.0065 4.10017C16.1327 3.73966 16.2561 3.45031 16.3769 3.23217C16.4995 3.01587 16.6599 2.76906 16.8581 2.49174C17.0564 2.21442 17.3132 1.92787 17.6286 1.63206C17.944 1.33625 18.3045 1.0728 18.71 0.841712C19.1155 0.610625 19.4895 0.434974 19.8319 0.314813C20.1744 0.194652 20.4628 0.116061 20.6971 0.0790945C20.9314 0.0421283 21.0485 0.0208582 21.0485 0.0153119Z" fill="#5DA8DC" stroke="#5DA8DC" stroke-width="0.016221"/>
<path d="M1.01562 11.0747V0.00976562H21.0485V0.0153119C21.0485 0.0208582 20.9314 0.0421006 20.6971 0.0790945C20.4628 0.116061 20.1744 0.194652 19.8319 0.314813C19.4895 0.434974 19.1155 0.610625 18.71 0.841712C18.3045 1.0728 17.944 1.33625 17.6286 1.63206C17.3132 1.92787 17.0564 2.21442 16.8581 2.49174C16.6599 2.76906 16.4995 3.01587 16.3769 3.23217C16.2561 3.45031 16.1327 3.73966 16.0065 4.10017C15.8804 4.46068 15.7857 4.81656 15.7226 5.16783C15.6596 5.51911 15.628 5.90272 15.628 6.31869C15.628 6.73467 15.646 7.05821 15.6821 7.2893L15.7361 7.63594L15.7443 7.67754L15.7497 7.71914L15.5604 7.71359C15.4343 7.70804 15.2 7.6868 14.8575 7.64981C14.5151 7.61284 14.0059 7.52965 13.33 7.40022C12.6542 7.2708 12.1766 7.16451 11.8972 7.08131C11.6178 6.99812 11.1312 6.82249 10.4373 6.55441C9.74342 6.28633 9.09458 5.98592 8.49079 5.65314C7.88701 5.32036 7.33731 4.98295 6.84165 4.64093C6.34602 4.29892 5.94501 3.99848 5.6386 3.73966C5.33221 3.48084 5.15197 3.31722 5.0979 3.24881C5.04383 3.17857 4.99879 3.13605 4.96273 3.12125C4.92669 3.1083 4.74196 2.93081 4.40851 2.5888C4.07509 2.24679 3.78671 1.93711 3.54339 1.65979L3.17842 1.24382L3.17304 1.2355L3.1649 1.22995L3.15139 1.20222L3.13787 1.17449L3.12976 1.16894L3.12435 1.16063L3.11897 1.15231L3.11083 1.14676L3.10272 1.14121L3.09732 1.13289L3.09194 1.12457L3.0838 1.11903L3.07569 1.12457L3.07028 1.13289L3.0649 1.14121L3.05676 1.14676L3.04325 1.18836L3.02973 1.22995L2.79993 1.75685C2.64675 2.10813 2.52958 2.44091 2.44848 2.75519C2.36737 3.06947 2.3133 3.35142 2.28627 3.601C2.25923 3.85059 2.25023 4.151 2.25923 4.50228C2.26826 4.85355 2.30881 5.20943 2.38089 5.56994C2.45299 5.93045 2.55843 6.28819 2.6972 6.64315C2.83778 6.99995 2.97117 7.2939 3.09732 7.52502C3.22349 7.7561 3.36766 7.97335 3.52987 8.17671C3.69208 8.38006 3.85429 8.57418 4.0165 8.75907C4.17871 8.94396 4.3337 9.09462 4.4815 9.21109C4.63109 9.32574 4.7086 9.38489 4.71403 9.38858L4.71941 9.3969L4.74645 9.41076L4.77348 9.42463L4.77889 9.43295L4.787 9.43849L4.79514 9.44404L4.80052 9.45236L4.82755 9.46622L4.85459 9.48009L4.85999 9.48841L4.8681 9.49396L4.87624 9.4995L4.88162 9.50782L4.88703 9.51614L4.89514 9.52169L4.90328 9.52724L4.90866 9.53555H4.66534L4.54368 9.52169C4.46258 9.51245 4.21478 9.46159 3.80022 9.36916C3.3857 9.27674 3.03876 9.16581 2.75938 9.03639L2.34034 8.84227L2.3133 8.8284L2.28627 8.81453L2.25923 8.80067L2.2322 8.7868L2.20516 8.77848L2.17813 8.77294L2.22682 9.3553C2.25745 9.74354 2.32233 10.1272 2.42144 10.5062C2.52058 10.8852 2.66927 11.2826 2.86752 11.6986C3.06579 12.1146 3.29107 12.4797 3.54339 12.794C3.79574 13.1083 4.02732 13.3653 4.23819 13.5649C4.44979 13.7619 4.67376 13.9444 4.90866 14.1113C5.14297 14.2776 5.45838 14.4487 5.85488 14.6243C6.2514 14.7999 6.49471 14.9016 6.58482 14.9293C6.67496 14.9571 6.73803 14.9756 6.77407 14.9848L6.82814 14.9987L6.88221 15.0125L6.93628 15.0264L6.99035 15.0403L7.04442 15.0541L7.03904 15.0625L7.0309 15.068L7.02279 15.0735L7.01738 15.0819L6.94979 15.0957L6.88221 15.1096L6.82814 15.1235C6.7921 15.1327 6.69296 15.1512 6.53075 15.1789C6.36854 15.2067 6.07567 15.2252 5.65212 15.2344C5.22859 15.2436 4.91769 15.2344 4.71941 15.2067L4.42203 15.1651L4.38147 15.1567L4.34092 15.1512L4.34633 15.1789L4.35444 15.2067L4.36796 15.2483L4.38147 15.2899L4.60589 15.7946C4.75364 16.1329 4.90866 16.4315 5.07087 16.6903C5.23308 16.9491 5.42413 17.2015 5.64401 17.4474C5.86569 17.6914 6.04593 17.88 6.18471 18.0131C6.32529 18.148 6.5533 18.3172 6.86869 18.5206C7.18411 18.7239 7.50852 18.8996 7.84195 19.0475C8.1754 19.1954 8.4863 19.3063 8.77465 19.3803C9.06303 19.4542 9.2748 19.4958 9.40997 19.505C9.54515 19.5143 9.68484 19.5235 9.82901 19.5328L10.0453 19.5466L10.0399 19.555L10.0318 19.5605L10.0237 19.5882L10.0183 19.616L9.99122 19.6215L9.96419 19.6298L9.95881 19.6382L9.95067 19.6437L9.94256 19.6493L9.93715 19.6576L9.93177 19.6659L9.92364 19.6714L9.91553 19.677L9.91012 19.6853L9.28832 20.1151C8.87379 20.4017 8.56559 20.5977 8.36375 20.7031C8.16007 20.8103 7.81764 20.973 7.33642 21.1911C6.85339 21.4074 6.3235 21.5941 5.74674 21.7513C5.17 21.9085 4.66986 22.0194 4.2463 22.0841C3.82277 22.1488 3.40822 22.1904 3.00269 22.2089C2.59717 22.2274 2.21419 22.2274 1.85371 22.2089C1.49325 22.1904 1.27246 22.1765 1.19135 22.1673L1.06969 22.1534L1.04266 22.1451L1.01562 22.1395V11.0747ZM30.965 3.05469L30.9703 3.04637L30.9839 3.03805L30.9974 3.0325V24.9959H11.343V24.982L12.3027 24.885C12.9425 24.8203 13.5148 24.7417 14.0194 24.6493C14.5241 24.5568 15.0468 24.4274 15.5875 24.261C16.1282 24.0946 16.6418 23.9144 17.1284 23.7202C17.6151 23.5261 18.0675 23.3154 18.4856 23.088C18.9056 22.8624 19.2642 22.6618 19.5616 22.4862C19.859 22.3106 20.1852 22.0915 20.5403 21.829C20.8971 21.5646 21.2306 21.3002 21.5406 21.0358C21.8524 20.7733 22.029 20.6217 22.0705 20.581C22.1101 20.5385 22.3444 20.2982 22.7734 19.86C23.2005 19.42 23.5538 19.0244 23.8331 18.6731C24.1125 18.3218 24.3873 17.9474 24.6577 17.55C24.928 17.1525 25.2254 16.6672 25.5498 16.0941C25.8743 15.5209 26.1852 14.8739 26.4825 14.1529C26.7799 13.4318 27.0323 12.6923 27.2395 11.9343C27.4468 11.1763 27.6 10.4969 27.6991 9.89606C27.7982 9.2952 27.8658 8.73597 27.9019 8.21831C27.9379 7.70064 27.9587 7.23661 27.9641 6.82618C27.9677 6.41392 28.1389 6.06634 28.4777 5.78347C28.8148 5.50244 29.159 5.1817 29.5105 4.82119C29.8619 4.46068 30.053 4.25452 30.0836 4.20278C30.116 4.15286 30.1413 4.12513 30.1593 4.11958C30.1773 4.11587 30.299 3.95874 30.5243 3.64815C30.7496 3.33938 30.864 3.18226 30.8676 3.17671L30.8757 3.17116L30.8892 3.14343L30.9028 3.1157L30.9109 3.11015L30.9163 3.10183L30.9217 3.09351L30.9298 3.08797L30.9379 3.08242L30.9433 3.0741L30.9487 3.06578L30.9568 3.06024L30.965 3.05469ZM22.968 0.115146L22.4543 0.00976562H30.9974V2.97704L30.9433 2.98259L30.8892 2.99091L30.8622 3.00477L30.8352 3.01864L30.8081 3.0325L30.7811 3.04637L30.7405 3.06024L30.6594 3.08797L29.9295 3.33755C29.4699 3.49471 28.9878 3.62873 28.4831 3.73966L27.7261 3.90605H27.591L27.5964 3.89773L27.6045 3.89218L27.6126 3.88664L27.618 3.87832L27.6234 3.87L27.6315 3.86445L27.6397 3.85891L27.645 3.85059L27.6721 3.83672L27.6991 3.82285L27.7045 3.81453L27.7126 3.80899L27.7208 3.80344L27.7261 3.79512L27.7532 3.78126L27.7802 3.76739L27.9154 3.67588C28.0055 3.6167 28.0821 3.552 28.1452 3.48176C28.2083 3.41334 28.3372 3.29318 28.5318 3.12125C28.7246 2.95114 28.9427 2.69973 29.186 2.36695C29.4293 2.03417 29.6321 1.70602 29.7943 1.38248C29.9565 1.05893 30.0421 0.874075 30.0511 0.827846C30.0602 0.781618 30.0692 0.744652 30.0782 0.71692L30.0917 0.675323L30.1052 0.647591L30.1187 0.61986L30.1323 0.578262L30.1458 0.536665L30.1539 0.495068L30.1593 0.45347L30.1323 0.459017L30.1052 0.467336L30.0998 0.475656L30.0917 0.481202L30.0836 0.486748L30.0782 0.495068L30.0511 0.508934L30.0241 0.522799L29.9971 0.536665L29.97 0.550531L29.9647 0.55885C29.9593 0.562566 29.9142 0.590298 29.8295 0.642045C29.743 0.691962 29.5014 0.809377 29.1049 0.994236C28.7084 1.17912 28.3074 1.34551 27.9019 1.4934C27.4963 1.6413 27.1179 1.75685 26.7664 1.84005C26.4149 1.92324 26.1563 1.87887 25.9905 1.70694C25.8229 1.53683 25.6337 1.37599 25.4228 1.22441C25.2101 1.07097 24.9731 0.920303 24.7117 0.772383C24.4502 0.62439 24.1793 0.494681 23.9007 0.384142C23.6213 0.273215 23.3104 0.183559 22.968 0.115146ZM1.01562 23.5955V22.195H1.02914L1.03728 22.2006L1.04266 22.2089L1.04807 22.2172L1.05618 22.2227L1.06431 22.2283L1.06969 22.2366L1.09673 22.2505L1.12376 22.2643L1.12917 22.2727L1.13728 22.2782L1.14542 22.2837L1.1508 22.2921L1.39411 22.4446C1.55632 22.5463 1.70231 22.6313 1.83208 22.6997C1.96366 22.77 2.28808 22.9364 2.80534 23.1989C3.32441 23.4633 3.94892 23.7249 4.67886 23.9837C5.4088 24.2425 5.95853 24.4182 6.32799 24.5106C6.69748 24.603 7.20663 24.6955 7.85546 24.7879C8.5043 24.8803 8.8783 24.9312 8.97741 24.9404C9.07655 24.9497 9.20272 24.9589 9.3559 24.9682L9.5857 24.982V24.9959H1.01562V23.5955Z" fill="white" stroke="white" stroke-width="0.016221"/>
</svg>
