<svg width="25" height="25" viewBox="0 0 25 25" fill="none" xmlns="http://www.w3.org/2000/svg">
<path d="M23.6201 25C24.3821 25 24.9998 24.3822 24.9998 23.6202V1.37976C24.9998 0.617565 24.382 0 23.6201 0H1.37976C0.617565 0 0 0.617659 0 1.37976V23.6202C0 24.3822 0.617565 24.9999 1.37976 24.9999H23.6201V25Z" fill="#485A96"/>
<path d="M17.2481 24.9986V15.3172H20.4977L20.9842 11.5442H17.248V9.13532C17.248 8.04294 17.5513 7.29855 19.1178 7.29855L21.1157 7.29761V3.92307C20.7701 3.87717 19.5841 3.77441 18.2044 3.77441C15.3238 3.77441 13.3517 5.53269 13.3517 8.76177V11.5442H10.0938V15.3172H13.3517V24.9985H17.2481V24.9986Z" fill="white"/>
</svg>
