<svg xmlns="http://www.w3.org/2000/svg" fill="none" viewBox="0 0 219 257"><path stroke="#051730" stroke-linecap="round" stroke-width=".617" d="M46.641 141.116c1.6.866 4.761 3.798 4.604 8.6-.157 4.802-.066 26.405 0 36.607"/><path fill="#051730" stroke="#03224C" stroke-linecap="round" stroke-width=".617" d="M13.913 140.02c0 1.379.75 2.73 2.186 3.996 1.436 1.265 3.531 2.419 6.148 3.394 5.23 1.949 12.476 3.161 20.495 3.161s15.265-1.212 20.495-3.161c2.616-.975 4.712-2.129 6.148-3.394 1.436-1.266 2.185-2.617 2.185-3.996s-.749-2.73-2.185-3.996c-1.436-1.265-3.532-2.419-6.148-3.394-5.23-1.949-12.477-3.161-20.495-3.161-8.02 0-15.265 1.212-20.495 3.161-2.617.975-4.712 2.129-6.148 3.394-1.437 1.266-2.186 2.617-2.186 3.996z"/><path stroke="#051730" stroke-linecap="round" stroke-width=".617" d="M69.573 143.839c1.6.865 4.76 3.797 4.603 8.599-.157 4.802-.065 31.793 0 41.994M36.659 149.138c-2.412 1.262-6.269 4.614-6.269 10.053 0 3.255-.003 28.492 0 40.704M15.914 142.644c-2.412 1.262-6.269 4.614-6.269 10.053 0 3.255-.003 27.095 0 39.307"/><ellipse cx="135.14" cy="205.57" fill="#F1F1F1" fill-opacity=".5" rx="63.14" ry="24.57"/><path fill="#fff" stroke="#03224C" stroke-width=".618" d="M103.773 128.544c-4.611-4.611-22.64-12.212-31.078-15.436-31.777-2.47-40.41 15.162-40.755 24.287 9.467 7.41 32.52 12.144 39.518 19.759 5.598 6.093 24.159 34.209 29.098 44.637 0-4.284 5.735-7.763 8.935-5.954-3.087-11.663-18.686-42.676-21.98-46.298-3.292-3.623-18.66-17.975-25.931-24.699 10.634 7.616 32.808 23.505 36.43 26.14 3.623 2.634 21.543 26.482 30.05 38.077 1.318-3.787 5.215-5.832 6.998-6.381-8.507-16.122-26.674-49.521-31.285-54.132z"/><path fill="#DFDFDF" stroke="#03224C" stroke-width="1.541" d="M218.08 121.869c0 1.935-1.628 4.009-5.174 6.056-3.49 2.013-8.59 3.853-14.96 5.408-12.728 3.107-30.351 5.037-49.846 5.037-19.494 0-37.117-1.93-49.845-5.037-6.37-1.555-11.47-3.395-14.96-5.408-3.546-2.047-5.174-4.121-5.174-6.056 0-1.935 1.628-4.008 5.174-6.055 3.49-2.014 8.59-3.854 14.96-5.409 12.728-3.107 30.351-5.036 49.845-5.036 19.495 0 37.118 1.929 49.846 5.036 6.37 1.555 11.47 3.395 14.96 5.409 3.546 2.047 5.174 4.12 5.174 6.055z"/><path fill="#051730" stroke="#03224C" stroke-width="1.541" d="M218.081 114.59c0 1.935-1.628 4.009-5.175 6.055-3.489 2.014-8.59 3.854-14.96 5.409-12.727 3.107-30.351 5.037-49.845 5.037s-37.118-1.93-49.846-5.037c-6.37-1.555-11.47-3.395-14.96-5.409-3.546-2.046-5.174-4.12-5.174-6.055 0-1.935 1.628-4.008 5.175-6.055 3.489-2.014 8.59-3.854 14.96-5.409 12.727-3.107 30.351-5.037 49.845-5.037s37.118 1.93 49.845 5.037c6.37 1.555 11.471 3.395 14.96 5.409 3.547 2.047 5.175 4.12 5.175 6.055z"/><path fill="#fff" stroke="#03224C" stroke-width=".618" d="M133.7 196.009l-5.546-7.06c.907-3.731 4.748-5.588 6.556-6.05l6.302 9.958c.504 5.142-4.664 4.244-7.312 3.152z"/><path fill="#03224C" d="M133.234 201.513c-2.747-2.991-1.953-6.365-1.213-7.677l1.653 2.147c5.581 2.147 6.731.075 7.337-1.238.485-1.051-.202-2.459-.606-3.031 7.914 3.266 30.484 11.531 22.402 13.067-8.082 1.536-26.004-1.988-29.573-3.268zM105.82 209.662c-2.747-2.991-1.953-6.364-1.212-7.677l1.653 2.148c5.58 2.147 6.731.075 7.337-1.239.485-1.051-.202-2.458-.606-3.03 7.913 3.266 30.931 12.839 22.849 14.376-8.083 1.536-26.452-3.297-30.021-4.578zM77.383 121.515v-6.475l6.114 3.465-6.114 3.01zM218.865 114.629v7.24l-6.114-3.875 6.114-3.365z"/><path fill="#03224C" d="M146.205 201.223a.77.77 0 001.541 0h-1.541zm0-63.532v63.532h1.541v-63.532h-1.541z"/><path fill="#051730" stroke="#03224C" stroke-linecap="round" stroke-width=".617" d="M5.131 91.695c2.645 12.788 13.283 21.288 23.67 19.14 10.387-2.148 16.78-14.171 14.135-26.959-2.645-12.788-13.283-21.288-23.67-19.14C8.88 66.885 2.486 78.908 5.132 91.696z"/><path stroke="#03224C" stroke-linecap="round" stroke-width=".617" d="M27.512 110.886l4.916 20.293"/><path fill="#fff" d="M46.432 38.585c3.671-4.608 2.228-14.45 0-23.362C44.487 2.33 27.552 2.95 21.833 11.995c-5.89 9.314 2.213 18.302 3.318 23.67 1.104 5.368 2.841 15.685 0 19.438-2.842 3.753-11.782 4.974-11.624 17.605.158 12.63 6.885 29.918 8.306 45.075 1.137 12.126 8.474 18.946 12 20.841-1.768-4.421.024-9.527 1.142-11.528 11.712-15.022 30.447-14.554 38.508-13.555-1.061-.318-4.264-1.148-7.319-3.949-3.055-2.801-4.243-11.351-4.456-15.277.85.85 3.692 2.801 8.275 3.82 4.583 1.018 24.4 2.121 33.736 2.546-1.528-4.329.636-8.17 1.909-9.548-10.82-1.273-33.099-5.029-35.645-9.866-3.182-6.047-12.73-31.508-23.55-29.917-8.657 1.273-11.246-9.017-11.458-14.321.106 1.803 7.294 6.782 11.457 1.556z"/><path fill="#03224C" d="M46.432 15.223l-.305.046.002.015.004.014.3-.075zm0 23.362l.242.193-.242-.193zM34.975 37.03l.308-.019-.617.03.309-.011zM46.432 51.35l.045.306-.045-.306zm23.551 29.917l-.273.144.273-.144zm35.645 9.866l.227.21.412-.446-.602-.071-.037.307zm-1.909 9.548l-.014.308.458.021-.153-.432-.291.103zm-33.736-2.546l-.067.301.067-.302zm-8.275-3.82l.219-.218-.57-.57.043.805.309-.017zm4.456 15.277l-.209.228.21-.228zm7.319 3.949l-.038.307a.309.309 0 00.126-.603l-.088.296zm-38.508 13.555l-.244-.19-.015.019-.011.021.27.15zm-1.142 11.528l-.146.272.749.403-.316-.79-.287.115zm-12-20.841l.308-.029-.308.029zm-8.306-45.075l.31-.004-.31.004zm11.624-37.043l-.303.062.303-.062zm-3.318-23.67l.261.165-.261-.165zm24.3 3.303c1.111 4.449 2.024 9.114 2.203 13.234.18 4.134-.383 7.648-2.145 9.86l.483.386c1.909-2.396 2.46-6.106 2.28-10.273-.183-4.182-1.106-8.894-2.222-13.357l-.6.15zm.058 23.095c-1.973 2.476-4.653 2.548-6.907 1.758a9.294 9.294 0 01-2.86-1.62 5.162 5.162 0 01-.846-.884c-.203-.28-.287-.498-.295-.637l-.617.037c.019.312.182.645.41.961.233.324.558.664.948.995a9.912 9.912 0 003.056 1.731c2.408.844 5.403.794 7.594-1.956l-.483-.385zM34.666 37.04c.107 2.682.814 6.634 2.603 9.768.895 1.57 2.071 2.949 3.593 3.852 1.528.907 3.385 1.323 5.615.995l-.09-.611c-2.097.308-3.81-.085-5.21-.915-1.404-.834-2.512-2.12-3.372-3.627-1.723-3.02-2.417-6.864-2.522-9.487l-.617.025zm11.811 14.615c2.571-.378 5.107.844 7.544 3.075 2.434 2.228 4.723 5.42 6.786 8.872 2.06 3.448 3.886 7.137 5.396 10.346 1.505 3.198 2.707 5.942 3.507 7.462l.547-.288c-.792-1.504-1.977-4.21-3.495-7.437-1.513-3.216-3.348-6.926-5.425-10.4-2.074-3.471-4.4-6.723-6.899-9.01-2.495-2.285-5.211-3.649-8.05-3.231l.09.611zM69.71 81.411c.354.673 1.032 1.296 1.924 1.875.897.584 2.038 1.14 3.356 1.67 2.637 1.061 6.016 2.028 9.642 2.881 7.255 1.706 15.542 2.965 20.96 3.603l.073-.614c-5.403-.636-13.666-1.891-20.892-3.59-3.613-.85-6.958-1.809-9.552-2.853-1.298-.522-2.4-1.061-3.25-1.615-.857-.556-1.432-1.109-1.714-1.645l-.547.288zm35.691 9.512c-1.318 1.428-3.553 5.385-1.974 9.86l.583-.205c-1.476-4.182.618-7.906 1.845-9.236l-.454-.419zm-1.668 9.449a889.787 889.787 0 01-18.643-1.05c-6.705-.457-12.777-.986-15.04-1.49l-.134.604c2.32.516 8.448 1.047 15.132 1.503a889.66 889.66 0 0018.657 1.05l.028-.617zm-33.683-2.54c-4.535-1.007-7.323-2.935-8.123-3.735l-.437.437c.897.897 3.796 2.873 8.426 3.902l.134-.603zm-8.65-3.5c.107 1.977.459 5.115 1.17 8.115.355 1.5.801 2.972 1.355 4.251.552 1.275 1.22 2.379 2.03 3.122l.418-.456c-.718-.658-1.344-1.673-1.88-2.911-.535-1.235-.972-2.671-1.322-4.149-.7-2.957-1.049-6.057-1.154-8.005l-.617.033zm4.555 15.488c3.112 2.853 6.377 3.699 7.439 4.017l.177-.592c-1.06-.318-4.2-1.132-7.198-3.881l-.418.456zm7.566 3.414c-8.079-1.001-26.97-1.489-38.79 13.672l.487.38c11.604-14.883 30.184-14.435 38.227-13.438l.076-.614zm-38.816 13.712c-.575 1.029-1.314 2.839-1.687 4.953-.373 2.114-.384 4.559.528 6.84l.574-.23c-.856-2.139-.854-4.459-.494-6.503.36-2.044 1.076-3.788 1.619-4.759l-.54-.301zm-.725 11.406c-3.446-1.851-10.713-8.586-11.84-20.598l-.615.058c1.148 12.24 8.555 19.146 12.162 21.084l.293-.544zm-11.84-20.598c-.712-7.605-2.756-15.741-4.633-23.528-1.881-7.803-3.592-15.248-3.67-21.522l-.619.008c.08 6.356 1.81 13.871 3.688 21.659 1.881 7.803 3.911 15.89 4.62 23.441l.615-.058zm-8.304-45.05c-.078-6.224 2.079-9.604 4.587-11.9 1.265-1.158 2.622-2.043 3.864-2.888 1.229-.835 2.364-1.641 3.11-2.627l-.493-.373c-.675.892-1.723 1.645-2.964 2.49-1.229.834-2.63 1.747-3.935 2.942-2.633 2.41-4.867 5.957-4.787 12.364l.618-.008zm11.56-17.414c.758-1 1.192-2.41 1.415-4.01.223-1.606.237-3.438.128-5.308-.218-3.742-.933-7.68-1.486-10.37l-.605.125c.551 2.68 1.258 6.584 1.474 10.28.108 1.85.093 3.637-.123 5.188-.217 1.557-.63 2.844-1.295 3.721l.493.373zm.057-19.687c-.285-1.385-1.016-2.988-1.835-4.723-.826-1.748-1.75-3.65-2.457-5.672-1.412-4.036-1.941-8.502.933-13.048l-.522-.33c-3.015 4.769-2.438 9.454-.995 13.582.72 2.06 1.661 3.994 2.482 5.732.826 1.75 1.522 3.284 1.789 4.583l.605-.124zM22.094 12.16c2.79-4.413 8.338-6.79 13.435-6.47 2.542.16 4.955.99 6.846 2.556 1.889 1.562 3.276 3.87 3.752 7.023l.61-.092c-.496-3.293-1.955-5.742-3.968-7.408-2.009-1.662-4.552-2.529-7.202-2.695-5.286-.332-11.066 2.124-13.995 6.756l.522.33z"/><path fill="#285592" fill-rule="evenodd" d="M42.496 50.961c-.364 2.972-1.21 4.928-1.689 5.646-4.695-.352-10.7-1.96-14.652-3.204-.22.633-.499 1.189-.846 1.647-.781 1.031-2.023 1.871-3.41 2.81-3.658 2.476-8.328 5.635-8.213 14.795.084 6.718 2.026 14.753 4.04 23.085 1.772 7.332 3.6 14.895 4.265 21.99 1.137 12.126 8.474 18.946 12 20.841-1.767-4.421.025-9.527 1.142-11.528 11.712-15.022 30.34-14.958 38.191-13.049-1.06-.318-3.946-1.655-7.001-4.455-3.056-2.801-4.244-11.352-4.456-15.277.849.849 3.692 2.8 8.275 3.82 4.583 1.018 24.4 2.121 33.735 2.545-1.527-4.328.637-8.168 1.91-9.547-10.821-1.273-33.1-5.029-35.645-9.867-.501-.95-1.16-2.383-1.955-4.114-4.264-9.275-12.478-27.143-21.596-25.802-1.553.229-2.911.085-4.095-.336z" clip-rule="evenodd"/><path fill="#fff" d="M104.605 100.6l3.519-16.12a2.69 2.69 0 011.964-2.031l34.26-8.698c.984-.25 1.879.64 1.635 1.625l-6.725 27.13a2.687 2.687 0 01-1.898 1.945l-35.735 9.795-19.865-3.902c-1.368-.268-1.471-2.187-.14-2.601l22.985-7.143z"/><path stroke="#03224C" stroke-width=".618" d="M101.625 114.246l6.499-29.766a2.69 2.69 0 011.964-2.031l34.26-8.698c.984-.25 1.879.64 1.635 1.625l-6.725 27.13a2.687 2.687 0 01-1.898 1.945l-35.735 9.795zm0 0l-19.865-3.902c-1.368-.268-1.471-2.187-.14-2.601l22.985-7.143"/><path fill="#141414" d="M118.761 93.578l-1.019.254-.491 1.905-1.323-1.453-1.019.254 2.137 2.329.304 1.219.927-.231-.304-1.22.788-3.057zM120.443 94.273l.05.204a1.307 1.307 0 00-.777-.03c-.713.179-1.16.94-.955 1.763.203.817.957 1.286 1.671 1.108.294-.074.509-.212.672-.39l.053.209.882-.22-.714-2.864-.882.22zm-.019 2.246c-.36.09-.702-.145-.797-.525-.094-.38.096-.753.456-.842a.707.707 0 01.608.12l.214.855a.691.691 0 01-.481.392zM123.792 93.438l.051.204a1.307 1.307 0 00-.777-.029c-.714.178-1.161.94-.956 1.762.204.817.957 1.286 1.671 1.108.294-.074.509-.212.672-.39l.053.209.883-.22-.714-2.864-.883.22zm-.019 2.246c-.36.09-.702-.145-.797-.525-.094-.38.096-.753.456-.842a.709.709 0 01.609.12l.213.856a.69.69 0 01-.481.39z"/><path fill="#141414" fill-rule="evenodd" d="M127.185 92.778l-.043-.175.882-.22.252 1.01-.883.22a.683.683 0 00-.608-.12c-.36.09-.561.423-.462.82.075.3.419.54.778.45a.703.703 0 00.482-.39l.883-.22.247.991c.217.866-.242 1.51-1.07 1.717-.807.201-1.508-.13-1.73-.834l-.017-.052.873-.217.021.051c.102.246.327.358.654.276.305-.076.486-.326.39-.703l-.053-.216c-.167.168-.383.3-.672.373-.719.179-1.461-.269-1.647-1.011-.209-.84.241-1.567.96-1.746.289-.072.536-.08.763-.004zM128.766 93.27a.392.392 0 01.174.764c.302.61.947.925 1.653.749.822-.205 1.254-.966 1.048-1.794-.204-.816-.938-1.268-1.76-1.063-.681.17-1.101.705-1.115 1.344zm1.632.73c-.36.09-.663-.143-.754-.507-.088-.352.072-.695.432-.784.349-.088.656.139.744.49.091.364-.073.714-.422.801z" clip-rule="evenodd"/><path fill="#FE3945" d="M133.027 94.177a.63.63 0 00.448-.775.629.629 0 00-.758-.468.622.622 0 00-.437.766c.089.355.425.558.747.477z"/><path fill="#fff" stroke="#03224C" stroke-width=".618" d="M90.6 97.63c-1.051 0-6.567.583-9.193.873-1.927 2.534-1.678 6.225-1.313 7.753 1.021-.291 3.984-.524 7.66.874 4.597 1.747 6.677-.109 8.537 0 1.489.087 4.925 1.347 6.457 1.966l1.204-5.57c-4.013-1.965-12.301-5.897-13.352-5.896z"/><path fill="#285592" stroke="#03224C" stroke-width=".618" d="M29.888 64.615c-6.171-6.83-12.148-1.312-12.148-1.312-11.162 11.654 18.713 42.349 27.577 45.139 7.09 2.233 25.962-2.02 34.17-1.473-.788-4.596 1.203-7.824 2.298-8.863-8.317-2.572-26.587-2.467-30.395-5.093-4.76-3.283-13.788-19.862-21.502-28.398z"/><path fill="#051730" d="M33.234 14.657c-3.458 2.264-3.118 6.601-2.516 8.487.36 1.955 2.461 10.56 5.84 7.732 3.38-2.83 16.497-6.545 16.497 4.553 0 11.099-22.576 11.509-26.032 6.322-3.456-5.186 1.26-6.74-7.464-13.733-8.723-6.995-3.06-22.001 7.464-22.87C34.644 4.52 38.263.984 42.82.119c4.558-.864 10.924 3.066 8.095 9.588-2.83 6.523-13.36 2.122-17.682 4.951z"/><path stroke="#051730" stroke-linecap="round" stroke-width=".617" d="M111.885 201.225c1.6.866 4.761 3.797 4.603 8.599-.157 4.802-.065 26.406 0 36.608M79.217 166.03l4.572 38.207M97.662 205.406c1.6.866 4.76 3.797 4.603 8.599-.157 4.802-.066 31.793 0 41.995M67.515 204.108c-2.412 1.262-6.269 4.614-6.269 10.053 0 3.255-.003 27.095 0 39.307M81.38 197.068c-2.412 1.262-6.268 4.614-6.268 10.053 0 3.255-.004 27.095 0 39.307"/><path fill="#FE3945" stroke="#03224C" stroke-linecap="round" stroke-width=".617" d="M59.37 149.484c2.645 12.787 13.283 21.288 23.67 19.139 10.387-2.148 16.78-14.171 14.135-26.959-2.645-12.787-13.283-21.288-23.67-19.139-10.387 2.148-16.78 14.171-14.135 26.959zM60.297 197.837c0 1.378.75 2.729 2.186 3.995s3.532 2.419 6.148 3.394c5.23 1.95 12.476 3.162 20.495 3.162 8.018 0 15.265-1.212 20.495-3.162 2.616-.975 4.712-2.128 6.148-3.394s2.185-2.617 2.185-3.995c0-1.379-.749-2.73-2.185-3.996s-3.532-2.419-6.148-3.394c-5.23-1.95-12.477-3.162-20.495-3.162-8.02 0-15.265 1.212-20.495 3.162-2.617.975-4.712 2.128-6.148 3.394-1.437 1.266-2.186 2.617-2.186 3.996z"/></svg>