<svg xmlns="http://www.w3.org/2000/svg" fill="none" viewBox="0 0 219 333"><path fill="#fff" stroke="#03224C" stroke-width=".594" d="M152.726 116.259c2.712 1.65 6.137 2.455 7.511 2.65l1.033 8.692c-1.523-.343-7.337-.824-18.415 0-11.078.825-14.83-9.87-15.321-15.321 4.243 2.004 9.918 3.487 12.226 3.979l-.612-4.658c6.629-1.767 10.187 2.594 13.578 4.658z"/><path fill="#fff" stroke="#000" stroke-width=".594" d="M129.767 110.457c-3.026 2.144-6.623 2.154-8.043 1.891v7.887c.355-.043 1.093 1.152 3.927 4.032 8.064 8.194 15.608 7.14 18.168 5.84 2.559-1.301 6.544-4.149 2.813-5.84-2.984-1.353-8.142-.212-9.557 1.132-6.38-1.249-5.238-7.635-4.661-11.277 1.902.354 4.43 1.235 7.078 2.37 3.311 1.419 4.879-.164 2.672-2.371-2.206-2.207-8.615-6.345-12.397-3.664z"/><ellipse cx="71.14" cy="305.57" fill="#F1F1F1" fill-opacity=".5" rx="63.14" ry="24.57"/><path fill="#051730" d="M29.255 298.233c.056-6.952 3.87-10.448 5.77-11.327l-.133 3.388c4.284 4.663 9.482 1.963 11.545.03l.738-1.959c12.297 8.944 27.007 19.908 24.016 23.051-3.74 3.928-42.006-4.493-41.936-13.183zM69.103 297.21c-.86-6.897 2.271-10.819 3.944-11.918l.319 3.375c4.642 4.11 8.437 1.153 10.125-1.01l1.057-2.365c12.745 7.396 28.147 16.5 25.744 19.972-3.003 4.341-40.115.569-41.19-8.054z"/><path fill="#fff" stroke="#03224C" stroke-width=".544" d="M34.528 289.859l.765-8.858c5.76 4.197 11.827 2.142 14.14.59l-3.535 9.295c-3.749 3.621-9.524 2.443-11.37-1.027zM63.59 50.135c7.86.328 8.981-17.669 6.006-28.763C64.96 4.08 48.781 2.733 42.54 17.139c-3.647 8.419-1.593 9.713 1.316 30.142 2.909 20.429-2.068 11.94-12.294 28.472-5.711 9.233-6.721 54.677-4.569 69.184 17.106 8.237 40.792 4.836 48.43 2.02.267-3.375 1.21-21.785 1.198-28.705-.013-6.921-.37-6.364 5.375-1.85 11.265 8.849 29.497 8.447 39.43 8.861l.68-16.301c-15.819-2.106-32.493-1.253-38.525-15.344-7.538-17.613-15.527-35.243-23.705-31.875-4.602 1.895-4.384-9.839-4.106-16.115.785 1.483 4.187 4.356 7.82 4.507z"/><path fill="#051730" d="M51.323 22.699c1.154-6.155 8.912-7.315 11.281-5.733 3.901 2.606 6.352 1.11 6.352 1.11C69.959 3.241 56.886.003 53.029 3.305c-3.857 3.301-11.916-.242-17.447 6.324-5.531 6.566 1.76 13.154-.736 17.666-2.497 4.513-1.33 10.332 3.081 12.183 3.53 1.481 5.77 8.234 6.449 11.426 2.018-2.267 5.616-7.973 3.862-12.663-1.753-4.69 1.023-5.044 2.63-4.635 3.819-2.405-.7-4.754.455-10.908z"/><path fill="#051730" stroke="#03224C" stroke-width=".544" d="M27.58 180.581c-4.149-15.975-3.256-29.564-.854-35.738 23.777 8.861 41.846 5.024 47.908 1.998 7.407 16.84 22.259 53.472 22.405 65.284.145 11.812-4.69 47.458-8.097 62.206-1.631 7.064-13.9 6.552-17.679 1.154 1.34-16.164 3.648-49.225 2.271-54.463-1.377-5.237-12.402-31.119-16.012-43.333-4.805-6.996 4.515 25.801 8.045 43.001-3.428 18.551-10.845 56.373-13.09 59.252-8.78 6.854-16.73 2.311-19.608-.817 2.076-11.594 6.317-36.9 6.67-45.379.442-10.6-8.375-39.362-11.96-53.165z"/><path fill="#fff" stroke="#000" stroke-width=".544" d="M29.466 85.686c3.038-12.524 12.099-13.343 16.25-12.187 14.061.4 10.58 37.045 15.695 47.787 4.092 8.594 16.886 19.799 22.771 24.328l-9.254 11.852c-6.467-4.67-20.788-15.368-26.34-20.799-6.942-6.788-22.919-35.326-19.122-50.981z"/><path fill="#03224C" stroke="#03224C" stroke-width=".594" d="M88.474 144.845l-2.36 4.887-6.18 12.103a1.29 1.29 0 00.46 1.677l7.106 4.51c.646.41 1.505.171 1.847-.514l8.73-17.491a1.292 1.292 0 00-.53-1.707l-7.285-4.033a1.292 1.292 0 00-1.788.568z"/><path fill="#fff" d="M88.475 146.189l-2.044 4.232-5.46 10.695a1.29 1.29 0 00.458 1.677l6.11 3.877c.647.41 1.506.171 1.848-.513l7.668-15.363a1.292 1.292 0 00-.53-1.707l-6.262-3.466a1.292 1.292 0 00-1.788.568z"/><path fill="#fff" stroke="#000" stroke-width=".594" d="M93.219 150.465c-3.383-.643-8.484-1.877-10.612-2.414l-6.032 7.381c.17 1.427.682 2.215.916 2.431 2.083 1.988 4.133.968 4.898.209 4.332.057 7.595 3.731 8.684 5.56l-1.433 3.429c1.873-.41 5.807-2.082 6.554-5.493.933-4.262 1.253-10.298-2.975-11.103z"/><path fill="#fff" d="M73.313 288.752l.469-11.246c5.79 2.728 11.053.98 12.961-.236l-3.604 11.892c-4.39 3.443-8.467 1.158-9.826-.41z"/><path stroke="#000" stroke-width=".544" d="M42.15 63.8c5.259 3.818 15.718 8.696 15.483-2.332"/><ellipse cx="205.982" cy="298.658" fill="#141414" opacity=".1" rx="77.579" ry="30.188" transform="rotate(2.922 205.982 298.658)"/><path fill="#051730" d="M233.958 296.722c-.375-6.574-4.147-9.705-5.985-10.448l.284 3.199c-3.837 4.611-8.88 2.297-10.921.565l-.789-1.819c-11.219 9.033-24.625 20.089-21.65 22.923 3.72 3.543 39.531-6.202 39.061-14.42zM194.159 291.124c1.092-6.493-1.712-10.331-3.25-11.438l-.438 3.181c-4.561 3.701-8.031.749-9.541-1.366l-.003-2.503c-12.361 6.483-28.206 14.696-26.074 18.08 2.667 4.229 37.94 2.162 39.306-5.954z"/><path fill="#fff" stroke="#03224C" stroke-width=".544" d="M209.989 61.329c-7.452 0-7.803-17.076-4.549-27.459 5.07-16.18 20.434-16.817 25.773-2.937 3.12 8.111 1.124 9.255-2.435 28.473-3.559 19.219 1.486 11.383 10.511 27.43 5.041 8.964 4.203 52.012 1.593 65.655-16.513 7.12-38.795 2.967-45.912 0-.119-3.204 8.687-27.457 8.972-34.006.284-6.548-5.401 4.785-7.836 8.216-7.707 10.861-15.079 18.801-25.067 25.79l-7.05-10.888c8.225-8.047 19.101-26.815 25.365-39.912 7.83-16.371 16.086-32.74 23.692-29.23 4.28 1.975 4.537-9.139 4.522-15.09-.801 1.374-4.134 3.958-7.579 3.958z"/><path fill="#fff" d="M156.569 149.449c1.71-1.243 6.285-4.723 8.359-6.307l4.253 6.554c-.483-.264-1.619.27-1.784 3.689-.166 3.419-2.192 5.108-3.249 5.751-.223.748-.52 1.472-.855 2.139-.544 1.427-1.166 3.256-1.36 4.716-.331 2.481-.496 2.428-.955 2.726-.386 2.316-1.448 2.114-1.93 1.724-.069.643-.4 2.026-1.172 2.412-.772.386-1.884-.942-2.344-1.654-1.036 2.826-2.892 1.447-3.099 1.172-.207-.276-1.586-7.376-1.517-9.719.069-2.344 3.515-11.649 5.653-13.203z"/><path fill="#03224C" d="M164.928 143.142l.249-.162-.174-.269-.255.195.18.236zm-8.359 6.307l.174.24-.174-.24zm-5.653 13.203l-.297-.009.297.009zm4.616 8.547l.25-.161-.323-.501-.206.56.279.102zm2.344 1.654l.133.266-.133-.266zm1.172-2.412l.187-.231-.425-.343-.058.542.296.032zm1.93-1.724l-.162-.249-.11.072-.021.129.293.048zm.955-2.726l-.295-.04.295.04zm2.215-6.855l-.154-.253-.086.052-.036.094.276.107zm-1.944-3.285a.296.296 0 10-.543-.241l.543.241zm-2.419 6.801l-.288-.072.288.072zm7.612-9.267l.296.014-.296-.014zm1.784-3.689l-.143.26.392-.422-.249.162zm-4.433-6.79c-2.075 1.585-6.647 5.062-8.354 6.303l.349.48c1.714-1.245 6.293-4.728 8.365-6.311l-.36-.472zm-8.354 6.303c-.303.22-.612.564-.919.982-.308.421-.625.932-.942 1.503-.632 1.141-1.27 2.535-1.842 3.949a47.394 47.394 0 00-1.448 4.091c-.366 1.225-.606 2.28-.624 2.909l.593.017c.016-.542.234-1.53.6-2.756a46.911 46.911 0 011.43-4.039c.566-1.399 1.194-2.77 1.811-3.883.309-.557.612-1.046.901-1.44.292-.398.558-.685.789-.853l-.349-.48zm-5.775 13.434c-.036 1.207.298 3.598.659 5.694.182 1.054.372 2.045.53 2.79.079.372.151.686.21.916.029.115.056.213.08.289.012.037.024.073.037.104a.487.487 0 00.06.113l.476-.357c.018.025.023.042.015.022a4.826 4.826 0 01-.093-.317c-.056-.22-.125-.525-.204-.893a76.454 76.454 0 01-.525-2.768c-.364-2.108-.685-4.439-.652-5.576l-.593-.017zm1.576 9.906c.086.114.279.276.518.411.246.139.576.269.946.285.378.015.786-.089 1.169-.402.377-.308.712-.804.983-1.542l-.558-.204c-.247.675-.532 1.066-.801 1.286a1.104 1.104 0 01-.768.268c-.249-.01-.487-.1-.679-.208a1.725 1.725 0 01-.307-.222.206.206 0 01-.027-.029l-.476.357zm3.088-1.189c.239.371.65.906 1.11 1.303.229.198.486.375.753.473.27.1.574.127.863-.017l-.266-.531c-.097.048-.222.054-.391-.009a1.956 1.956 0 01-.571-.366c-.404-.348-.779-.834-.999-1.175l-.499.322zm2.726 1.759c.488-.244.798-.776.993-1.266a5.646 5.646 0 00.341-1.381l-.591-.063c-.032.3-.127.78-.303 1.225-.181.458-.422.812-.706.954l.266.531zm.852-2.447c.289.234.802.451 1.322.187.506-.257.891-.911 1.088-2.093l-.586-.097c-.189 1.134-.528 1.537-.771 1.66-.227.116-.486.037-.679-.119l-.374.462zm2.279-1.706c.09-.058.224-.134.332-.23a1.18 1.18 0 00.305-.449c.158-.377.286-1.025.45-2.257l-.589-.079c-.166 1.249-.286 1.816-.408 2.107a.588.588 0 01-.153.234c-.063.056-.122.086-.261.176l.324.498zm1.087-2.936c.19-1.423.8-3.223 1.343-4.649l-.555-.211c-.544 1.427-1.177 3.284-1.377 4.781l.589.079zm1.343-4.649c.386-1.011.712-1.769.855-2.137l-.553-.215c-.122.312-.481 1.156-.857 2.141l.555.211zm-1.637-5.651l-.272-.12v.001l-.001.001a.648.648 0 01-.011.027l-.034.079a32.064 32.064 0 00-.59 1.59c-.391 1.143-.93 2.881-1.528 5.272l.576.144c.594-2.375 1.129-4.097 1.514-5.224a30.59 30.59 0 01.577-1.553l.031-.074.007-.017.002-.004v-.001l-.271-.121zm-2.436 6.85a6.984 6.984 0 00-.219 1.298c-.019.347.012.642.112.869.107.242.298.41.558.45.235.035.478-.043.699-.16.446-.236.955-.715 1.453-1.333a12.983 12.983 0 001.458-2.295l-.531-.267c-.425.847-.914 1.6-1.389 2.189-.48.595-.929 1.001-1.269 1.182-.172.091-.279.104-.332.096-.028-.004-.064-.014-.103-.102-.046-.104-.079-.291-.063-.597.016-.301.079-.693.202-1.186l-.576-.144zm4.061-1.171a13.53 13.53 0 00.875-2.188l-.569-.17a12.94 12.94 0 01-.837 2.091l.531.267zm.745-2.019c1.108-.674 3.219-2.44 3.39-5.991l-.593-.028c-.159 3.287-2.1 4.899-3.106 5.512l.309.507zm3.39-5.991c.082-1.687.402-2.61.721-3.071.319-.461.571-.401.624-.372l.285-.521c-.429-.234-.987-.038-1.397.556-.412.594-.742 1.648-.826 3.38l.593.028zm1.737-3.865l-4.253-6.554-.498.323 4.253 6.554.498-.323z"/><path fill="#051730" d="M223.649 44.306c-6.631-4.84-10.978-13.216-12.323-16.8-1.532 5.369-5.295 9.823-7.212 11.372-2.847 18.289 3.581 24.176 8.104 22.417-4.177 6.172-14.332 5.114-15.676 4.068 9.408-6.72 3.137-29.793 9.634-40.545 5.197-8.602 13.814-7.17 17.473-5.377 20.25 1.075 19.19 27.18 16.129 40.098-6.81 10.753-18.071 10.006-22.85 8.288 5.556-6.81 6.795-18.518 6.721-23.521z"/><path stroke="#000" stroke-width=".544" d="M205.975 90.764c-2.344 2.98-6.646 10.588-5.102 17.192 1.931 8.255 4.62 6.401 2.287 15.092"/><path fill="#71BFD6" stroke="#03224C" stroke-width=".544" d="M238.929 186.197c4.557-14.954 4.248-27.85 2.218-33.787-22.851 7.447-39.799 3.103-45.417 0-7.675 15.644-15.279 51.857-15.883 63.029-.604 11.173-1.587 43.827-1.587 65.397 0 5.958 13.854 4.065 13.854 2.148-.629-15.349 5.588-52.166 7.098-57.068 1.51-4.903 7.596-32.22 11.494-43.637 4.824-6.431 0 14.113 0 40.145 2.512 17.691 4.304 63.93 6.314 66.744 4.166 5.833 10.98 3.028 12.801-.615.82-15.867 1.674-50.462 1.674-58.501 0-10.048 3.497-30.933 7.434-43.855z"/><path fill="#fff" stroke="#000" stroke-width=".544" d="M237.636 97.854c3.699-10.57.962-12.112-2.933-13.33-12.424-1.995-30.567 20.591-40.163 26.499-7.677 4.727-27.342 4.073-34.353 4.644l1.257 14.188c7.546-.385 28.165 1.46 35.375 0 9.013-1.825 35.777-17.599 40.817-32z"/><path stroke="#000" stroke-width=".544" d="M229.745 75.102c-5.128 3.405-15.219 7.61-14.562-2.818"/></svg>