<svg width="130" height="226" viewBox="0 0 130 226" fill="none" xmlns="http://www.w3.org/2000/svg">
<path d="M69.1855 69.9834L1.94897 87.111V147.328L69.1855 127.854V69.9834Z" fill="#DFDFDF"/>
<path d="M1.94897 69.9834V87.111M1.94897 177.586V147.328M69.1855 56.4297V69.9834M69.1855 160.528V127.854M1.94897 87.111L69.1855 69.9834M1.94897 87.111V147.328M69.1855 69.9834V127.854M69.1855 127.854L1.94897 147.328" stroke="#03224C" stroke-width="1.23849" stroke-linecap="round"/>
<path d="M58.4423 38.5037C57.0976 46.8727 53.2928 54.0103 48.2567 58.7905C43.2211 63.5702 36.9843 65.9713 30.7315 64.9666C24.4787 63.9619 19.3081 59.7278 16.0233 53.6112C12.7382 47.494 11.361 39.5236 12.7058 31.1547C14.0505 22.7857 17.8553 15.6481 22.8914 10.8679C27.927 6.0882 34.1637 3.68706 40.4166 4.69178C46.6694 5.6965 51.84 9.93059 55.1248 16.0472C58.4099 22.1645 59.787 30.1348 58.4423 38.5037Z" fill="white" stroke="#03224C" stroke-width="1.23849"/>
<path d="M27.5959 46.2774V26.4041L36.5312 31.4476L45.4645 22.6572V41.2436" stroke="#FE3945" stroke-width="0.978833" stroke-linecap="round" stroke-linejoin="round"/>
<path d="M19.0831 94.6689C19.0822 93.6148 22.8193 90.7199 24.688 89.4043C29.1492 85.7875 37.0148 83.6462 41.1283 84.3043C45.2417 84.9625 55.7722 87.266 59.063 89.4043C62.3537 91.5425 59.063 102.568 58.0757 103.555C57.0885 104.543 56.2658 120.503 55.7722 122.313C55.2786 124.123 44.2545 128.73 41.1283 127.413C38.002 126.097 28.4664 127.413 26.4919 127.413C24.5174 127.413 15.7969 120.503 16.9453 118.528C18.0937 116.554 16.9453 110.137 16.9453 108.656C16.9453 107.175 16.7808 103.555 16.9453 102.568C17.1099 101.581 19.0843 95.9866 19.0831 94.6689Z" stroke="#03224C" stroke-width="0.495395"/>
<path d="M2.46167 144.607C5.39007 142.718 11.2837 138.647 11.4308 137.477C11.6148 136.014 10.15 132.358 11.4308 131.627C12.7116 130.896 28.0673 119.195 28.2501 113.711C28.3964 109.324 32.9422 105.058 35.1968 103.474L39.2185 94.1519C42.9965 91.1657 52.1246 84.1332 58.4131 79.8921C64.7017 75.651 67.3706 72.276 67.9191 71.1187" stroke="#03224C" stroke-width="0.495395"/>
<path d="M3.19284 94.2043C7.83691 96.8337 17.588 102.044 19.4398 101.85C21.7546 101.608 21.1478 101.608 23.2111 102.458C25.2743 103.307 32.1924 109.619 34.7411 109.861C37.2899 110.104 42.9942 117.265 46.3926 118.6C49.7909 119.935 55.2525 122.605 57.1944 124.668C58.748 126.319 64.3148 127.784 66.904 128.309M17.8708 138.383C17.8708 142.616 18.2677 135.3 19.4398 135.106C20.905 134.863 26.7308 128.188 26.8521 127.217C26.9735 126.246 29.5223 123.697 31.7069 122.484C33.8916 121.27 37.654 121.998 39.1104 121.634C40.5669 121.27 51.8542 118.6 53.1893 117.022C54.5243 115.444 60.4714 115.808 61.6851 115.808C62.8988 115.808 67.6322 114.716 68.6032 114.231C69.3799 113.842 70.626 113.583 71.1519 113.502M31.7069 79.519C32.071 84.1308 32.775 93.5242 32.6779 94.2043C32.5565 95.0543 32.7992 96.9948 31.7069 98.3299C30.6146 99.6649 29.5223 101.85 29.4009 103.427C29.2795 105.005 22.7256 111.074 20.2982 111.074C17.8708 111.074 6.57577 115.808 4.8843 115.808C3.53113 115.808 1.73127 115.808 1.00049 115.808" stroke="#03224C" stroke-width="0.495395"/>
<ellipse cx="91.0925" cy="207.508" rx="37.2715" ry="18.4913" fill="#F1F1F1"/>
<path d="M91.6308 211.281C92.2381 208.855 90.8718 206.009 90.1128 204.889L89.6607 207.169C87.2182 208.549 84.705 207.022 83.7537 206.085L83.0892 202.522C78.858 200.386 68.8086 199.255 73.4022 204.889C79.1442 211.931 90.8718 214.315 91.6308 211.281Z" fill="#03224C"/>
<path d="M112.301 207.982C112.908 205.555 111.542 202.709 110.783 201.59L110.331 203.869C107.888 205.25 106.224 204.806 105.273 203.869L104.788 200.412C100.557 198.276 91.5991 195.956 96.1927 201.59C101.935 208.632 111.542 211.015 112.301 207.982Z" fill="#03224C"/>
<path d="M77.9344 101.87C79.7659 94.2214 82.7829 92.0191 85.97 91.7245C88.5774 90.7118 87.8722 88.9618 87.2919 88.5816C86.6514 88.1619 84.7943 91.0424 82.328 89.3127C76.7748 84.1973 75.9849 75.1486 76.4088 69.3555C83.643 60.7398 98.3169 75.1191 95.8782 82.8239C93.9273 88.9878 96.9331 91.5696 100.48 96.02C109.792 107.702 111.853 125.748 112.075 131.598C112.296 137.447 115.176 141.344 111.175 166.236C110.171 172.487 110.658 190.401 111.175 198.604C108.692 201.442 105.263 200.821 103.859 200.156C102.012 193.505 98.3169 179.139 98.3169 174.883V156.458C97.2084 158.757 94.4594 164.818 92.3311 170.67C90.2028 176.523 90.2619 193.653 90.5575 201.486C86.4783 204.679 83.5371 202.816 82.5764 201.486C82.0515 199.048 80.6958 191.732 79.4726 181.977C78.2495 172.222 82.7135 152.653 85.0985 144.088C85.389 141.795 90.0594 130.62 89.3622 126.992C88.6651 123.363 80.8865 118.022 82.2167 111.831C82.2167 111.831 76.0599 117.184 70.8993 117.184C62.3544 117.887 54.6717 111.068 50.6544 101.87C48.77 102.523 46.1454 100.789 45.7965 99.4892C45.7599 99.3532 45.7359 99.2616 45.7221 99.2085C45.8074 99.5516 46.2391 101.362 46.2391 102.532C46.2391 104.514 43.3905 102.558 42.865 96.8333C42.4446 92.2537 45.4092 91.9 47.2271 91.4587C45.98 89.4047 43.2399 85.2984 44.2967 84.2415C45.6178 82.9205 54.6435 95.4704 54.8637 98.773C55.0838 102.076 65.4119 109.679 68.7145 109.679C72.0171 109.679 76.5732 107.555 77.9344 101.87Z" fill="white"/>
<path d="M76.4088 69.3555C83.643 60.7398 98.3169 75.1191 95.8782 82.8239C93.9273 88.9878 96.9331 91.5696 100.48 96.02C109.792 107.702 111.853 125.748 112.075 131.598C112.296 137.447 115.176 141.344 111.175 166.236C110.171 172.487 110.658 190.401 111.175 198.604C108.692 201.442 105.263 200.821 103.859 200.156C102.012 193.505 98.3169 179.139 98.3169 174.883C98.3169 170.626 98.3169 160.826 98.3169 156.458C97.2084 158.757 94.4594 164.818 92.3311 170.67C90.2028 176.523 90.2619 193.653 90.5575 201.486C86.4783 204.679 83.5371 202.816 82.5764 201.486C82.0515 199.048 80.6958 191.732 79.4726 181.977C78.2494 172.222 82.7135 152.653 85.0985 144.088C85.389 141.795 90.0594 130.62 89.3622 126.992C88.6651 123.363 80.8865 118.022 82.2167 111.831C82.2167 111.831 76.0599 117.184 70.8993 117.184C62.3544 117.887 54.6717 111.068 50.6544 101.87C48.77 102.523 46.1454 100.789 45.7965 99.4892C45.4475 98.1897 46.2391 100.947 46.2391 102.532C46.2391 104.514 43.3905 102.558 42.865 96.8333C42.4446 92.2537 45.4092 91.9 47.2271 91.4587C45.98 89.4047 43.2399 85.2984 44.2967 84.2415C45.6178 82.9205 54.6435 95.4704 54.8637 98.7731C55.0838 102.076 65.4119 109.679 68.7145 109.679C72.0171 109.679 76.5732 107.555 77.9344 101.87C79.7659 94.2214 82.7829 92.0191 85.97 91.7245C88.5774 90.7118 87.8722 88.9618 87.2919 88.5816C86.6514 88.1619 84.7943 91.0424 82.328 89.3127C76.7748 84.1973 75.9849 75.1486 76.4088 69.3555Z" stroke="black" stroke-width="0.49662"/>
<path fill-rule="evenodd" clip-rule="evenodd" d="M70.0835 109.566C73.1687 109.055 76.7533 106.803 77.934 101.872C79.5884 94.9629 82.2102 92.4978 85.0509 91.8686C90.2324 92.6667 94.2421 91.3269 96.1912 90.2173C96.9314 91.6902 98.0509 93.0521 99.3164 94.5916C99.6933 95.0501 100.083 95.5244 100.48 96.022C109.791 107.704 111.853 125.75 112.074 131.6C112.084 131.863 112.095 132.157 112.105 132.479C106.067 139.588 94.4506 136.658 88.2929 133.755C89.0829 131.001 89.6353 128.417 89.3618 126.994C89.1036 125.65 87.8738 124.071 86.4953 122.301C84.152 119.292 81.3788 115.731 82.2163 111.833C82.2163 111.833 78.1939 115.331 73.9265 116.672L70.0835 109.566Z" fill="#03224C"/>
<path d="M70.0835 109.566L70.043 109.321L69.6994 109.378L69.8651 109.684L70.0835 109.566ZM77.934 101.872L77.6925 101.814L77.6925 101.814L77.934 101.872ZM85.0509 91.8686L85.0887 91.6232L85.0427 91.6161L84.9972 91.6262L85.0509 91.8686ZM96.1912 90.2173L96.4131 90.1058L96.2957 89.8721L96.0684 90.0015L96.1912 90.2173ZM99.3164 94.5916L99.5082 94.4339L99.5082 94.4339L99.3164 94.5916ZM100.48 96.022L100.674 95.8672L100.674 95.8672L100.48 96.022ZM112.074 131.6L112.322 131.59L112.322 131.59L112.074 131.6ZM112.105 132.479L112.295 132.64L112.357 132.567L112.353 132.471L112.105 132.479ZM88.2929 133.755L88.0542 133.687L87.996 133.89L88.187 133.98L88.2929 133.755ZM89.3618 126.994L89.6056 126.947L89.6056 126.947L89.3618 126.994ZM86.4953 122.301L86.2994 122.453L86.2994 122.453L86.4953 122.301ZM82.2163 111.833L82.459 111.886L82.6155 111.157L82.0533 111.646L82.2163 111.833ZM73.9265 116.672L73.7081 116.79L73.8055 116.97L74.0009 116.908L73.9265 116.672ZM70.124 109.811C73.2941 109.286 76.9684 106.971 78.1755 101.93L77.6925 101.814C76.5381 106.636 73.0433 108.824 70.043 109.321L70.124 109.811ZM78.1755 101.93C79.8209 95.0583 82.4012 92.7098 85.1046 92.1111L84.9972 91.6262C82.0192 92.2858 79.3559 94.8674 77.6925 101.814L78.1755 101.93ZM85.0131 92.1141C90.2542 92.9213 94.3202 91.5681 96.3141 90.4331L96.0684 90.0015C94.164 91.0856 90.2105 92.4121 85.0887 91.6232L85.0131 92.1141ZM95.9694 90.3288C96.7243 91.8312 97.8636 93.2153 99.1245 94.7492L99.5082 94.4339C98.2383 92.889 97.1384 91.5491 96.4131 90.1058L95.9694 90.3288ZM99.1245 94.7492C99.5016 95.208 99.8903 95.6808 100.286 96.1768L100.674 95.8672C100.276 95.3679 99.885 94.8922 99.5082 94.4339L99.1245 94.7492ZM100.286 96.1768C104.91 101.979 107.742 109.374 109.445 116.059C111.147 122.743 111.716 128.699 111.826 131.609L112.322 131.59C112.211 128.651 111.638 122.659 109.926 115.937C108.215 109.217 105.36 101.747 100.674 95.8672L100.286 96.1768ZM111.826 131.609C111.836 131.872 111.846 132.165 111.857 132.487L112.353 132.471C112.343 132.148 112.332 131.854 112.322 131.59L111.826 131.609ZM111.916 132.318C108.965 135.792 104.642 136.828 100.255 136.623C95.8683 136.419 91.4573 134.972 88.3987 133.531L88.187 133.98C91.2861 135.441 95.7619 136.911 100.232 137.119C104.702 137.328 109.206 136.275 112.295 132.64L111.916 132.318ZM88.5316 133.824C88.9277 132.443 89.2659 131.099 89.4708 129.918C89.6744 128.744 89.7513 127.705 89.6056 126.947L89.1179 127.04C89.2457 127.706 89.1832 128.67 88.9815 129.833C88.781 130.989 88.4481 132.314 88.0542 133.687L88.5316 133.824ZM89.6056 126.947C89.4672 126.226 89.0737 125.463 88.5566 124.671C88.0378 123.877 87.3787 123.031 86.6912 122.148L86.2994 122.453C86.9904 123.34 87.6355 124.169 88.1408 124.943C88.6477 125.719 88.9981 126.417 89.1179 127.04L89.6056 126.947ZM86.6912 122.148C85.5167 120.64 84.2535 119.017 83.3848 117.289C82.5179 115.564 82.0564 113.759 82.459 111.886L81.9735 111.781C81.5386 113.805 82.045 115.729 82.9411 117.512C83.8355 119.291 85.1307 120.953 86.2994 122.453L86.6912 122.148ZM82.2163 111.833C82.0533 111.646 82.0534 111.646 82.0534 111.646C82.0533 111.646 82.0533 111.646 82.0533 111.646C82.0532 111.646 82.0531 111.646 82.0528 111.647C82.0524 111.647 82.0518 111.647 82.0509 111.648C82.0491 111.65 82.0464 111.652 82.0427 111.655C82.0353 111.662 82.0241 111.671 82.0092 111.684C81.9794 111.709 81.9348 111.747 81.8765 111.795C81.7597 111.892 81.5876 112.033 81.3676 112.206C80.9276 112.552 80.2962 113.027 79.5325 113.544C78.0021 114.58 75.9526 115.775 73.852 116.435L74.0009 116.908C76.1678 116.228 78.2632 115.003 79.8109 113.955C80.5861 113.43 81.2271 112.948 81.6745 112.596C81.8983 112.42 82.0738 112.277 82.1937 112.177C82.2537 112.128 82.2997 112.089 82.3309 112.062C82.3465 112.049 82.3584 112.039 82.3665 112.032C82.3705 112.028 82.3736 112.026 82.3757 112.024C82.3768 112.023 82.3776 112.022 82.3782 112.022C82.3785 112.021 82.3787 112.021 82.3789 112.021C82.379 112.021 82.379 112.021 82.3791 112.021C82.3791 112.021 82.3792 112.021 82.2163 111.833ZM74.1449 116.553L70.3019 109.448L69.8651 109.684L73.7081 116.79L74.1449 116.553Z" fill="black"/>
<path d="M78.4611 80.9847C73.4774 78.8338 74.4571 72.3143 75.5698 69.3233C79.3527 65.2081 83.2451 63.5382 88.0286 64.2056C92.8121 64.8731 96.1494 67.3204 96.4831 76.3312C96.8169 85.3419 94.2582 90.5703 93.4795 91.6828C91.0767 90.0809 88.1769 86.7881 87.0274 85.3419C88.1769 84.8228 89.9865 83.2245 88.0286 80.9847C85.5813 78.1848 86.6937 82.4496 83.2451 82.5608C80.4863 82.6498 79.7224 78.4448 79.6853 76.3312C77.1045 77.6661 77.7939 79.9897 78.4611 80.9847Z" fill="#03224C"/>
<circle cx="93.1233" cy="66.3125" r="7.53415" fill="#03224C"/>
<path d="M89.7721 207.108V202.173C86.6783 204.15 84.0318 202.997 83.0952 202.173L83.7235 206.083C86.2543 208.369 88.8104 207.719 89.7721 207.108Z" fill="white"/>
<path d="M105.357 204.212L104.947 200.462C108.087 201.119 110.044 199.798 110.63 199.056V203.509C108.849 205.477 106.372 204.798 105.357 204.212Z" fill="white"/>
<path d="M89.7721 207.108V202.173C86.6783 204.15 84.0318 202.997 83.0952 202.173L83.7235 206.083C86.2543 208.369 88.8104 207.719 89.7721 207.108Z" stroke="black" stroke-width="0.49662"/>
<path d="M105.357 204.212L104.947 200.462C108.087 201.119 110.044 199.798 110.63 199.056V203.509C108.849 205.477 106.372 204.798 105.357 204.212Z" stroke="black" stroke-width="0.49662"/>
</svg>
